<?xml version="1.0" encoding="UTF-8"?>
<svg width="1440px" height="900px" viewBox="0 0 1440 900" version="1.1" xmlns="http://www.w3.org/2000/svg" xmlns:xlink="http://www.w3.org/1999/xlink">
    <!-- Generator: Sketch 48.2 (47327) - http://www.bohemiancoding.com/sketch -->
    <title>装饰圆点</title>
    <desc>Created with Sketch.</desc>
    <defs>
        <path d="M20.21095,40.582825 C9.0487,40.582825 0,31.513625 0,20.324725 C0,9.13685 9.0487,0.066625 20.21095,0.066625 C31.374225,0.066625 40.422925,9.13685 40.422925,20.324725 C40.422925,31.513625 31.374225,40.582825 20.21095,40.582825 Z" id="path-1"></path>
        <path d="M19.4989211,39 C8.75692105,39 0.0465789474,30.4727027 0.0465789474,19.9532432 C0.0465789474,9.43378378 8.75692105,0.906486486 19.4989211,0.906486486 C30.242,0.906486486 38.9512632,9.43378378 38.9512632,19.9532432 C38.9512632,30.4727027 30.242,39 19.4989211,39 Z" id="path-3"></path>
        <path d="M22.8677991,45.2162308 C10.252938,45.2162308 0.0257193732,35.1519615 0.0257193732,22.7372692 C0.0257193732,10.3225769 10.252938,0.258307692 22.8677991,0.258307692 C35.4835613,0.258307692 45.7107799,10.3225769 45.7107799,22.7372692 C45.7107799,35.1519615 35.4835613,45.2162308 22.8677991,45.2162308 Z" id="path-5"></path>
        <path d="M24.5127826,48.5068043 C11.255087,48.5068043 0.507043478,37.7342609 0.507043478,24.4456739 C0.507043478,11.1581522 11.255087,0.385608696 24.5127826,0.385608696 C37.7715435,0.385608696 48.5174565,11.1581522 48.5174565,24.4456739 C48.5174565,37.7342609 37.7715435,48.5068043 24.5127826,48.5068043 Z" id="path-7"></path>
        <path d="M15.0841724,30.8161379 C6.76975862,30.8161379 0.0277931034,24.0602759 0.0277931034,15.7255517 C0.0277931034,7.39082759 6.76975862,0.633896552 15.0841724,0.633896552 C23.3985862,0.633896552 30.1405517,7.39082759 30.1405517,15.7255517 C30.1405517,24.0602759 23.3985862,30.8161379 15.0841724,30.8161379 Z" id="path-9"></path>
        <path d="M15.0841724,30.8161379 C6.76975862,30.8161379 0.0277931034,24.0602759 0.0277931034,15.7255517 C0.0277931034,7.39082759 6.76975862,0.633896552 15.0841724,0.633896552 C23.3985862,0.633896552 30.1405517,7.39082759 30.1405517,15.7255517 C30.1405517,24.0602759 23.3985862,30.8161379 15.0841724,30.8161379 Z" id="path-11"></path>
        <path d="M10.9549,21.5677 C5.137,21.5677 0.4191,16.8399 0.4191,11.0077 C0.4191,5.1766 5.137,0.4477 10.9549,0.4477 C16.7739,0.4477 21.4907,5.1766 21.4907,11.0077 C21.4907,16.8399 16.7739,21.5677 10.9549,21.5677 Z" id="path-13"></path>
        <path d="M10.8873061,20.5313 C5.35581847,20.5313 0.872071966,16.0900333 0.872071966,10.6113 C0.872071966,5.13256667 5.35581847,0.6913 10.8873061,0.6913 C16.4177481,0.6913 20.9014946,5.13256667 20.9014946,10.6113 C20.9014946,16.0900333 16.4177481,20.5313 10.8873061,20.5313 Z" id="path-15"></path>
        <path d="M25.9790541,51.8047297 C11.7888514,51.8047297 0.284459459,40.2739865 0.284459459,26.0503378 C0.284459459,11.8266892 11.7888514,0.295945946 25.9790541,0.295945946 C40.1702703,0.295945946 51.6746622,11.8266892 51.6746622,26.0503378 C51.6746622,40.2739865 40.1702703,51.8047297 25.9790541,51.8047297 Z" id="path-17"></path>
        <path d="M20.4366207,41.7508966 C9.17193103,41.7508966 0.0376551724,32.5977931 0.0376551724,21.3055862 C0.0376551724,10.0133793 9.17193103,0.858827586 20.4366207,0.858827586 C31.7013103,0.858827586 40.8355862,10.0133793 40.8355862,21.3055862 C40.8355862,32.5977931 31.7013103,41.7508966 20.4366207,41.7508966 Z" id="path-19"></path>
        <path d="M12.44875,24.50875 C5.8375,24.50875 0.47625,19.13625 0.47625,12.50875 C0.47625,5.8825 5.8375,0.50875 12.44875,0.50875 C19.06125,0.50875 24.42125,5.8825 24.42125,12.50875 C24.42125,19.13625 19.06125,24.50875 12.44875,24.50875 Z" id="path-21"></path>
        <path d="M13.9469796,29.1412 C6.35290333,29.1412 0.197251343,22.8374667 0.197251343,15.0612 C0.197251343,7.28493333 6.35290333,0.9812 13.9469796,0.9812 C21.5396203,0.9812 27.6952723,7.28493333 27.6952723,15.0612 C27.6952723,22.8374667 21.5396203,29.1412 13.9469796,29.1412 Z" id="path-23"></path>
    </defs>
    <g id="Home-Copy" stroke="none" stroke-width="1" fill="none" fill-rule="evenodd" transform="translate(0.000000, -2038.000000)" opacity="0.6">
        <g id="装饰圆点" transform="translate(-24.000000, 2038.000000)">
            <g id="装饰" transform="translate(92.000000, 0.000000)">
                <g id="Group-6" transform="translate(0.000000, 231.000000)">
                    <path d="M20.21136,40.583235 C31.374635,40.583235 40.423335,31.51301 40.423335,20.325135 C40.423335,9.136235 31.374635,0.067035 20.21136,0.067035 C9.04911,0.067035 0.00041,9.136235 0.00041,20.325135 C0.00041,31.51301 9.04911,40.583235 20.21136,40.583235" id="Fill-1" fill="#EDCE72"></path>
                    <g id="Group-5">
                        <mask id="mask-2" fill="white">
                            <use xlink:href="#path-1"></use>
                        </mask>
                        <g id="Clip-4"></g>
                        <polygon id="Fill-3" fill="#EDD572" mask="url(#mask-2)" points="-5.125 45.707825 45.547925 45.707825 45.547925 -5.058375 -5.125 -5.058375"></polygon>
                    </g>
                </g>
                <g id="Group-12" transform="translate(830.000000, 404.000000)">
                    <path d="M19.4985974,39.0002108 C30.2416763,39.0002108 38.9509395,30.4729135 38.9509395,19.9534541 C38.9509395,9.43399459 30.2416763,0.906697297 19.4985974,0.906697297 C8.75659737,0.906697297 0.0473342105,9.43399459 0.0473342105,19.9534541 C0.0473342105,30.4729135 8.75659737,39.0002108 19.4985974,39.0002108" id="Fill-7" fill="#728AED"></path>
                    <g id="Group-11">
                        <mask id="mask-4" fill="white">
                            <use xlink:href="#path-3"></use>
                        </mask>
                        <g id="Clip-10"></g>
                        <polygon id="Fill-9" fill="#728AED" mask="url(#mask-4)" points="-5.34815789 44.2702703 44.346 44.2702703 44.346 -4.36378378 -5.34815789 -4.36378378"></polygon>
                    </g>
                </g>
                <g id="Group-18" transform="translate(45.000000, 57.000000)">
                    <path d="M23,45.0212766 C35.702481,45.0212766 46,34.9428251 46,22.5106383 C46,10.0784515 35.702481,0 23,0 C10.2984262,0 0,10.0784515 0,22.5106383 C0,34.9428251 10.2984262,45.0212766 23,45.0212766" id="Fill-13" fill="#728AED"></path>
                    <g id="Group-17">
                        <mask id="mask-6" fill="white">
                            <use xlink:href="#path-5"></use>
                        </mask>
                        <g id="Clip-16"></g>
                        <polygon id="Fill-15" fill="#ED7294" mask="url(#mask-6)" points="-4.47926638 49.6393077 50.2157657 49.6393077 50.2157657 -4.16476923 -4.47926638 -4.16476923"></polygon>
                    </g>
                </g>
                <g id="Group-24" transform="translate(172.000000, 323.000000)">
                    <path d="M24.5131022,48.5065913 C37.7707978,48.5065913 48.5177761,37.7340478 48.5177761,24.4465261 C48.5177761,11.1579391 37.7707978,0.385395652 24.5131022,0.385395652 C11.2554065,0.385395652 0.507363043,11.1579391 0.507363043,24.4465261 C0.507363043,37.7340478 11.2554065,48.5065913 24.5131022,48.5065913" id="Fill-19" fill="#728AED"></path>
                    <g id="Group-23">
                        <mask id="mask-8" fill="white">
                            <use xlink:href="#path-7"></use>
                        </mask>
                        <g id="Clip-22"></g>
                        <polygon id="Fill-21" fill="#728AED" mask="url(#mask-8)" points="-4.81904348 53.8328913 53.8435435 53.8328913 53.8435435 -4.94047826 -4.81904348 -4.94047826"></polygon>
                    </g>
                </g>
                <g id="Group-36" transform="translate(535.000000, 108.000000)">
                    <g id="Group-35">
                        <mask id="mask-10" fill="white">
                            <use xlink:href="#path-9"></use>
                        </mask>
                        <g id="Clip-34"></g>
                        <polygon id="Fill-33" fill="#F4E5A6" mask="url(#mask-10)" points="-5.31703448 36.1609655 35.4853793 36.1609655 35.4853793 -4.70986207 -5.31703448 -4.70986207"></polygon>
                    </g>
                </g>
                <g id="Group-36-Copy" transform="translate(1274.000000, 119.000000)">
                    <g id="Group-35">
                        <mask id="mask-12" fill="white">
                            <use xlink:href="#path-11"></use>
                        </mask>
                        <g id="Clip-34"></g>
                        <polygon id="Fill-33" fill="#FFCC78" mask="url(#mask-12)" points="-5.31703448 36.1609655 35.4853793 36.1609655 35.4853793 -4.70986207 -5.31703448 -4.70986207"></polygon>
                    </g>
                </g>
                <g id="Group-42" transform="translate(119.000000, 221.000000)">
                    <g id="Group-41">
                        <mask id="mask-14" fill="white">
                            <use xlink:href="#path-13"></use>
                        </mask>
                        <g id="Clip-40"></g>
                        <polygon id="Fill-39" fill="#FEAA1D" mask="url(#mask-14)" points="-5.0809 27.0677 26.9896 27.0677 26.9896 -5.0523 -5.0809 -5.0523"></polygon>
                    </g>
                </g>
                <g id="Group-48" transform="translate(283.000000, 22.000000)">
                    <path d="M10.8869924,30.8644267 C16.4184801,30.8644267 20.9022266,26.42316 20.9022266,20.9444267 C20.9022266,15.4656933 16.4184801,11.0244267 10.8869924,11.0244267 C5.35550478,11.0244267 0.871758271,15.4656933 0.871758271,20.9444267 C0.871758271,26.42316 5.35550478,30.8644267 10.8869924,30.8644267" id="Fill-43" fill="#3CC2CF"></path>
                    <g id="Group-47" transform="translate(154.756176, 0.000000)">
                        <mask id="mask-16" fill="white">
                            <use xlink:href="#path-15"></use>
                        </mask>
                        <g id="Clip-46"></g>
                    </g>
                </g>
                <g id="Group-54" transform="translate(430.000000, 0.000000)" fill="#728AED">
                    <path d="M7.0187,13.1169 C10.4407,13.1169 13.2157,10.3359 13.2157,6.9049 C13.2157,3.4749 10.4407,0.6939 7.0187,0.6939 C3.5957,0.6939 0.8207,3.4749 0.8207,6.9049 C0.8207,10.3359 3.5957,13.1169 7.0187,13.1169" id="Fill-49"></path>
                </g>
            </g>
            <g id="装饰" transform="translate(0.000000, 596.000000)">
                <g id="Group-18" transform="translate(0.000000, 252.000000)">
                    <path d="M25.5,51 C39.5831854,51 51,39.583153 51,25.5 C51,11.416847 39.5831854,0 25.5,0 C11.4178204,0 0,11.416847 0,25.5 C0,39.583153 11.4178204,51 25.5,51" id="Fill-13" fill="#728AED"></path>
                    <g id="Group-17">
                        <mask id="mask-18" fill="white">
                            <use xlink:href="#path-17"></use>
                        </mask>
                        <g id="Clip-16"></g>
                        <polygon id="Fill-15" fill="#F4A6BC" mask="url(#mask-18)" points="-4.78310811 56.8722973 56.7422297 56.8722973 56.7422297 -4.77162162 -4.78310811 -4.77162162"></polygon>
                    </g>
                </g>
                <g id="Group-36" transform="translate(1446.000000, 0.000000)">
                    <g id="Group-35">
                        <mask id="mask-20" fill="white">
                            <use xlink:href="#path-19"></use>
                        </mask>
                        <g id="Clip-34"></g>
                        <polygon id="Fill-33" fill="#B2E8ED" mask="url(#mask-20)" points="-7.20372414 48.9922759 48.0769655 48.9922759 48.0769655 -6.38110345 -7.20372414 -6.38110345"></polygon>
                    </g>
                </g>
                <g id="Group-42" transform="translate(632.000000, 173.000000)">
                    <g id="Group-41">
                        <mask id="mask-22" fill="white">
                            <use xlink:href="#path-21"></use>
                        </mask>
                        <g id="Clip-40"></g>
                        <polygon id="Fill-39" fill="#84D9E1" mask="url(#mask-22)" points="-5.77375 30.75875 30.67 30.75875 30.67 -5.74125 -5.77375 -5.74125"></polygon>
                    </g>
                </g>
                <g id="Group-48" transform="translate(921.000000, 149.000000)">
                    <path d="M13.9465489,43.8075733 C21.5406252,43.8075733 27.6962772,37.50384 27.6962772,29.7275733 C27.6962772,21.9513067 21.5406252,15.6475733 13.9465489,15.6475733 C6.35247266,15.6475733 0.196820677,21.9513067 0.196820677,29.7275733 C0.196820677,37.50384 6.35247266,43.8075733 13.9465489,43.8075733" id="Fill-43" fill="#FFCA71"></path>
                    <g id="Group-47" transform="translate(212.461869, 0.000000)">
                        <mask id="mask-24" fill="white">
                            <use xlink:href="#path-23"></use>
                        </mask>
                        <g id="Clip-46"></g>
                    </g>
                </g>
                <g id="Group-54" transform="translate(1295.000000, 267.000000)" fill="#728AED">
                    <path d="M12.0009681,24 C18.6268657,24 24,18.6273847 24,11.999034 C24,5.37261531 18.6268657,0 12.0009681,0 C5.37313433,0 0,5.37261531 0,11.999034 C0,18.6273847 5.37313433,24 12.0009681,24" id="Fill-49"></path>
                </g>
            </g>
        </g>
    </g>
</svg>