<?xml version="1.0" encoding="UTF-8"?>
<svg width="174px" height="200px" viewBox="0 0 174 200" version="1.1" xmlns="http://www.w3.org/2000/svg" xmlns:xlink="http://www.w3.org/1999/xlink">
    <!-- Generator: Sketch 48.2 (47327) - http://www.bohemiancoding.com/sketch -->
    <title>最新技术栈</title>
    <desc>Created with Sketch.</desc>
    <defs></defs>
    <g id="Home-Copy" stroke="none" stroke-width="1" fill="none" fill-rule="evenodd" transform="translate(-1043.000000, -957.000000)">
        <g id="Group-4" transform="translate(1007.000000, 957.000000)">
            <g id="最新技术栈" transform="translate(36.000000, 0.000000)">
                <polygon id="Polygon-Copy-3" fill="#FFFFFF" points="86.6025404 0 173.205081 50 173.205081 150 86.6025404 200 5.15143483e-14 150 -5.32907052e-15 50"></polygon>
                <g id="Page-1" opacity="0.702502264" transform="translate(44.000000, 63.000000)">
                    <polygon id="Fill-1" fill="#34448E" points="4 61.9132202 43.3265268 80 84 61.9303844 43.622855 43.5443038"></polygon>
                    <polygon id="Fill-2" fill="#A7AEE5" points="0 40.6643576 42.7675438 60.7594937 87 40.6839075 43.0931985 20.2531646"></polygon>
                    <polygon id="Fill-3" fill="#ECDC94" points="43.6242611 0 4 18.3708158 43.3251815 36.4556962 84 18.38694"></polygon>
                </g>
                <g id="Page-1" transform="translate(44.000000, 60.000000)">
                    <polygon id="Fill-1" stroke="#4D5164" stroke-width="1.5" fill="#3C4E9F" points="4 61.9132202 43.3265268 80 84 61.9303844 43.622855 43.5443038"></polygon>
                    <polygon id="Path-4" fill="#5C6FC5" points="43.2382812 44.956543 6.43945312 61.8300781 43.2382812 79.5698242"></polygon>
                    <polygon id="Fill-2" stroke="#4D5164" stroke-width="1.5" fill="#99A4FF" points="0 40.6643576 42.7675438 60.7594937 87 40.6839075 43.0931985 20.2531646"></polygon>
                    <polygon id="Path-3" fill="#B0B8FF" points="43.1289062 21.1484375 1.87988281 40.5029297 43.1289062 59.7734375"></polygon>
                    <polygon id="Fill-3" stroke="#4D5164" stroke-width="1.5" fill="#FBE06A" points="43.6242611 0 4 18.3708158 43.3251815 36.4556962 84 18.38694"></polygon>
                    <polygon id="Path-2" fill="#FDEA96" points="6.1875 18.3447266 43.4892578 0.908203125 43.4892578 35.6152344"></polygon>
                </g>
            </g>
        </g>
    </g>
</svg>