<?xml version="1.0" encoding="UTF-8"?>
<svg width="174px" height="200px" viewBox="0 0 174 200" version="1.1" xmlns="http://www.w3.org/2000/svg" xmlns:xlink="http://www.w3.org/1999/xlink">
    <!-- Generator: Sketch 48.2 (47327) - http://www.bohemiancoding.com/sketch -->
    <title>国际化</title>
    <desc>Created with Sketch.</desc>
    <defs></defs>
    <g id="Home-Copy" stroke="none" stroke-width="1" fill="none" fill-rule="evenodd" transform="translate(-1036.000000, -1478.000000)">
        <g id="Group-4-Copy" transform="translate(1013.000000, 1478.000000)">
            <g id="Page-1" transform="translate(23.000000, 0.000000)">
                <g id="国际化">
                    <polygon id="Polygon-Copy-3" fill="#FFFFFF" points="86.6025404 0 173.205081 50 173.205081 150 86.6025404 200 5.15143483e-14 150 -5.32907052e-15 50"></polygon>
                    <path d="M85.0114277,57 L84.9742358,57 L84.9573653,57 C84.9404947,57 84.9236242,57.0030666 84.9075205,57.0030666 C61.1990517,57.0586484 42,76.2880359 42,100 C42,123.708898 61.1990517,142.941352 84.9075205,142.996933 C84.9236242,142.996933 84.9404947,143 84.9573653,143 L84.9742358,143 L85.0114277,143 C108.761306,143 128.022472,123.744163 128.022472,100 C128.022472,76.2527702 108.761306,57 85.0114277,57 Z" id="Stroke-1" stroke="#D4DEFF" stroke-width="1.5"></path>
                    <path d="M87.9889558,57 L87.9517639,57 L87.9348934,57 C87.9180228,57 87.9011523,57.0030666 87.8850486,57.0030666 C64.1765798,57.0586484 44.9775281,76.2880359 44.9775281,100 C44.9775281,123.708898 64.1765798,142.941352 87.8850486,142.996933 C87.9011523,142.996933 87.9180228,143 87.9348934,143 L87.9517639,143 L87.9889558,143 C111.738834,143 131,123.744163 131,100 C131,76.2527702 111.738834,57 87.9889558,57 Z" id="Stroke-3" stroke="#3A3D4C" stroke-width="1.5"></path>
                    <g id="Group-8" transform="translate(47.000000, 61.000000)">
                        <path d="M56.0137321,20 C51.6525791,21.0181612 47.1233859,21.6102913 42.4719101,21.7396897 L42.4719101,37 L58.2921348,37 C58.1521014,30.7158532 57.3335963,24.9803254 56.0137321,20" id="Fill-5" fill="#91B4F2"></path>
                        <path d="M42.4719101,0 L42.4719101,19 C46.5460833,18.8656787 50.5126789,18.2986314 54.3370787,17.3278371 C51.4510974,7.71622903 46.9428917,1.41800981 42.4719101,0" id="Fill-7" fill="#738CE9"></path>
                        <path d="M26.6516854,17.3086448 C30.4743115,18.2926634 34.4416753,18.8683025 38.5168539,19 L38.5168539,0 C34.0525081,1.34706596 29.5375779,7.6572122 26.6516854,17.3086448" id="Fill-9" fill="#91B4F2"></path>
                        <path d="M69.1685393,11.5947424 C64.1039174,6.46706467 57.6315536,2.73155069 50.3820225,1 C53.6860223,4.41795013 56.4807264,9.62200873 58.4710605,16 C62.2050148,14.8734761 65.7806643,13.3917624 69.1685393,11.5947424" id="Fill-11" fill="#91B4F2"></path>
                        <path d="M61.571348,37 L80.0449438,37 C79.6379524,28.293484 76.4212985,20.3211795 71.2796649,14 C67.498909,16.1035294 63.4847314,17.8246332 59.2808989,19.1099763 C60.628684,24.4968423 61.4374298,30.5608019 61.571348,37" id="Fill-13" fill="#738CE9"></path>
                        <path d="M23.6853933,37 L39.505618,37 L39.505618,21.7593634 C34.8479564,21.6282425 30.3175962,21.0278068 25.9513568,20 C24.6407407,24.9773056 23.8260123,30.7167752 23.6853933,37" id="Fill-15" fill="#738CE9"></path>
                        <path d="M58.2921348,41 L42.4719101,41 L42.4719101,56.2554296 C47.1249638,56.3864522 51.653368,56.9805983 56.0192546,58 C57.3332018,53.0192458 58.1521014,47.2822712 58.2921348,41" id="Fill-17" fill="#738CE9"></path>
                        <path d="M25.9493983,58 C30.3156377,56.9680125 34.8479564,56.3652319 39.505618,56.2343899 L39.505618,41 L23.6853933,41 C23.8260123,47.2826827 24.6387822,53.0208208 25.9493983,58" id="Fill-19" fill="#91B4F2"></path>
                        <path d="M38.5168539,79 L38.5168539,60 C34.4419737,60.1335196 30.4752303,60.7070294 26.6516854,61.6896871 C29.535214,71.3429223 34.0507615,77.6542626 38.5168539,79" id="Fill-21" fill="#738CE9"></path>
                        <path d="M50.3820225,78 C57.6326739,76.2699825 64.1073195,72.5340767 69.1685393,67.4056627 C65.7816796,65.6091205 62.2060107,64.1290403 58.4724973,63 C56.4809377,69.37998 53.6876942,74.5839389 50.3820225,78" id="Fill-23" fill="#738CE9"></path>
                        <path d="M31.5955056,1 C24.3476739,2.7496159 17.8765722,6.4891318 12.8089888,11.6053699 C16.1902954,13.3954109 19.759981,14.8703624 23.4849364,16 C25.4825142,9.62831524 28.2838421,4.4266932 31.5955056,1" id="Fill-25" fill="#738CE9"></path>
                        <path d="M59.2808989,58.8840952 C63.4890028,60.1685589 67.5044349,61.8920262 71.289783,64 C76.4260792,57.6760786 79.637901,49.7032448 80.0449438,41 L61.569018,41 C61.435083,47.4332938 60.6281057,53.4964623 59.2808989,58.8840952" id="Fill-27" fill="#91B4F2"></path>
                        <path d="M42.4719101,60 L42.4719101,79 C46.9437223,77.5836371 51.4527468,71.2827784 54.3370787,61.6691172 C50.5120177,60.7027038 46.5455498,60.1338111 42.4719101,60" id="Fill-29" fill="#91B4F2"></path>
                        <path d="M21.7078652,19.0828562 C17.5161845,17.803817 13.5139752,16.0914939 9.74221444,14 C4.57949235,20.3217835 1.35020649,28.2972359 0.943820225,37 L19.4022528,37 C19.5368377,30.5525831 20.3514899,24.4771471 21.7078652,19.0828562" id="Fill-31" fill="#91B4F2"></path>
                        <path d="M19.4022528,41 L0.943820225,41 C1.35020649,49.706313 4.57949235,57.6784909 9.74221444,64 C13.5139752,61.9088501 17.5173123,60.1980125 21.7078652,58.9136544 C20.3514899,53.5211669 19.5368377,47.4456309 19.4022528,41" id="Fill-33" fill="#738CE9"></path>
                        <path d="M12.8089888,67.3932723 C17.8771952,72.5096362 24.3468979,76.2507674 31.5955056,78 C28.2832582,74.5773914 25.4829277,69.3738489 23.4862232,63 C19.7609432,64.1284154 16.1915963,65.6036582 12.8089888,67.3932723" id="Fill-35" fill="#91B4F2"></path>
                    </g>
                </g>
            </g>
        </g>
    </g>
</svg>