<?xml version="1.0" encoding="UTF-8"?>
<svg width="174px" height="200px" viewBox="0 0 174 200" version="1.1" xmlns="http://www.w3.org/2000/svg" xmlns:xlink="http://www.w3.org/1999/xlink">
    <!-- Generator: Sketch 48.2 (47327) - http://www.bohemiancoding.com/sketch -->
    <title>最佳实践</title>
    <desc>Created with Sketch.</desc>
    <defs></defs>
    <g id="Home-Copy" stroke="none" stroke-width="1" fill="none" fill-rule="evenodd" transform="translate(-222.000000, -1479.000000)">
        <g id="Group-2-Copy-2" transform="translate(199.000000, 1479.000000)">
            <g id="最佳实践" transform="translate(23.000000, 0.000000)">
                <polygon id="Polygon-Copy" fill="#FFFFFF" points="86.6025404 0 173.205081 50 173.205081 150 86.6025404 200 5.15143483e-14 150 -5.32907052e-15 50"></polygon>
                <polygon id="Fill-1" fill="#97B2FF" points="66.3958124 64 68 65.6041876 62.6051915 71 61 69.3958124"></polygon>
                <polygon id="Fill-2" fill="#97B2FF" points="53.3958124 78 55 79.6049613 49.6041876 85 48 83.3950387"></polygon>
                <polygon id="Fill-3" fill="#97B2FF" points="48 65.6041876 49.6041876 64 55 69.3958124 53.3958124 71"></polygon>
                <polygon id="Fill-4" fill="#97B2FF" points="61 79.6041876 62.6051915 78 68 83.3958124 66.3958124 85"></polygon>
                <polygon id="Fill-5" fill="#97B2FF" points="44 75 51 75 51 73 44 73"></polygon>
                <polygon id="Fill-6" fill="#97B2FF" points="63 75 70 75 70 73 63 73"></polygon>
                <polygon id="Fill-7" fill="#97B2FF" points="57 87 59 87 59 80 57 80"></polygon>
                <polygon id="Fill-8" fill="#97B2FF" points="57 68 59 68 59 61 57 61"></polygon>
                <polygon id="Fill-9" fill="#97B2FF" points="123.395812 106 125 107.604188 119.605191 113 118 111.395812"></polygon>
                <polygon id="Fill-10" fill="#97B2FF" points="109.395812 120 111 121.604961 105.604188 127 104 125.395039"></polygon>
                <polygon id="Fill-11" fill="#97B2FF" points="104 107.604188 105.605191 106 111 111.395812 109.395812 113"></polygon>
                <polygon id="Fill-12" fill="#97B2FF" points="118 121.604188 119.605191 120 125 125.395812 123.395812 127"></polygon>
                <polygon id="Fill-13" fill="#97B2FF" points="101 117 108 117 108 115 101 115"></polygon>
                <polygon id="Fill-14" fill="#97B2FF" points="120 117 127 117 127 115 120 115"></polygon>
                <polygon id="Fill-15" fill="#97B2FF" points="113 129 115 129 115 122 113 122"></polygon>
                <polygon id="Fill-16" fill="#97B2FF" points="113 110 115 110 115 103 113 103"></polygon>
                <polygon id="Fill-17" fill="#97B2FF" points="43 96 84.1999295 139 95.0249133 127.573795 119.084228 102.91622 126 96"></polygon>
                <polygon id="Fill-18" fill="#97B2FF" points="70.9681974 75 53.0812759 75.001947 45.706946 90.3002503 43 96 126 96 114.872637 75"></polygon>
                <polygon id="Fill-19" fill="#6485FF" points="48 95 89.1999295 138 100.025889 126.573795 124.084228 101.91622 131 95"></polygon>
                <polygon id="Fill-20" fill="#97B2FF" points="89.1012192 138 110 95.7956339 89 95"></polygon>
                <polygon id="Fill-21" fill="#97B2FF" points="69 95.4660565 89.1896373 138 90 95"></polygon>
                <polygon id="Fill-22" fill="#97B2FF" points="75.9672216 74 119.872637 74 131 95 48 95 50.706946 89.2992768 58.0803 74.0009735"></polygon>
                <polygon id="Fill-23" fill="#6485FF" points="110 96 130 95.4753514 120.562617 76"></polygon>
                <polygon id="Fill-24" fill="#6485FF" points="89 95 109 94.9019904 100.453771 74"></polygon>
                <polygon id="Fill-25" fill="#6485FF" points="47 95 67 94.9019904 56.9518015 74"></polygon>
                <polygon id="Fill-26" fill="#6485FF" points="68 95 88 94.9019904 78.5888528 74"></polygon>
                <g id="Group-31" transform="translate(47.000000, 74.000000)" stroke="#3A3D4C" stroke-linecap="round" stroke-linejoin="round" stroke-width="1.5">
                    <polyline id="Stroke-27" points="28.6462465 0.591402985 72.5928977 0.591402985 83.7307116 21.5194627 0.65275814 21.5194627 3.36224651 15.8382687"></polyline>
                    <polyline id="Stroke-29" points="52.7271907 52.9112612 41.890214 64.271709 0.653051163 21.5191716 83.7300279 21.5191716 76.8068651 28.3955896"></polyline>
                </g>
                <polyline id="Stroke-32" stroke="#3B3C42" stroke-width="1.5" stroke-linecap="round" stroke-linejoin="round" points="65 89.7430562 68.5859655 94.6138251 79.3477417 74.7810128 89.1114227 95.7710994 100.470698 75 109.039381 96 120 75.8164687"></polyline>
                <g id="Group-37" transform="translate(67.000000, 94.000000)" stroke="#3A3D4C" stroke-linecap="round" stroke-linejoin="round" stroke-width="1.5">
                    <polyline id="Stroke-33" points="21.0825484 1.45858696 21.1822258 43.9923913 29.6315806 25.4748913"></polyline>
                    <polygon id="Stroke-35" points="21.1817419 44.2661087 0.802064516 0.579913043 21.2814194 0.754043478"></polygon>
                </g>
                <path d="M106,102 L109,96" id="Stroke-38" stroke="#3A3D4C" stroke-width="1.5" stroke-linecap="round" stroke-linejoin="round"></path>
                <polygon id="Fill-39" fill="#FFEF5A" points="68.3958124 64 70 65.6041876 64.6041876 71 63 69.3958124"></polygon>
                <polygon id="Fill-40" fill="#FFEF5A" points="54.3958124 78 56 79.6049613 50.6041876 85 49 83.3950387"></polygon>
                <polygon id="Fill-41" fill="#FFEF5A" points="49 65.6041876 50.6041876 64 56 69.3958124 54.3958124 71"></polygon>
                <polygon id="Fill-42" fill="#FFEF5A" points="63 79.6041876 64.6041876 78 70 83.3958124 68.3958124 85"></polygon>
                <polygon id="Fill-43" fill="#FFEF5A" points="45 75 52 75 52 73 45 73"></polygon>
                <polygon id="Fill-44" fill="#FFEF5A" points="65 75 72 75 72 73 65 73"></polygon>
                <polygon id="Fill-45" fill="#FFEF5A" points="58 87 60 87 60 80 58 80"></polygon>
                <polygon id="Fill-46" fill="#FFEF5A" points="58 68 60 68 60 61 58 61"></polygon>
                <polygon id="Fill-47" fill="#FFEF5A" points="121.395812 105 123 106.604188 117.604188 112 116 110.395812"></polygon>
                <polygon id="Fill-48" fill="#FFEF5A" points="108.395812 119 110 120.604961 104.605191 126 103 124.395039"></polygon>
                <polygon id="Fill-49" fill="#FFEF5A" points="103 106.604188 104.604188 105 110 110.394809 108.395812 112"></polygon>
                <polygon id="Fill-50" fill="#FFEF5A" points="116 120.604188 117.604961 119 123 124.394809 121.395039 126"></polygon>
                <polygon id="Fill-51" fill="#FFEF5A" points="99 116 106 116 106 114 99 114"></polygon>
                <polygon id="Fill-52" fill="#FFEF5A" points="118 116 125 116 125 114 118 114"></polygon>
                <polygon id="Fill-53" fill="#FFEF5A" points="112 129 114 129 114 122 112 122"></polygon>
                <polygon id="Fill-54" fill="#FFEF5A" points="112 109 114 109 114 102 112 102"></polygon>
            </g>
        </g>
    </g>
</svg>