<svg xmlns="http://www.w3.org/2000/svg" xmlns:xlink="http://www.w3.org/1999/xlink" width="559" height="504" viewBox="0 0 559 504">
  <defs>
    <linearGradient id="logo2-a" x1="64.065%" x2="32.171%" y1="11.067%" y2="100%">
      <stop offset="0%" stop-color="#96ABF4"/>
      <stop offset="100%" stop-color="#5D72E5"/>
    </linearGradient>
    <linearGradient id="logo2-d" x1="80.126%" x2="40.29%" y1="100%" y2="50%">
      <stop offset="0%" stop-color="#FFF0AA"/>
      <stop offset="100%" stop-color="#FFF"/>
    </linearGradient>
    <path id="logo2-c" d="M323.193828,121.926291 L282.583014,192.088946 C271.689221,210.909978 251.556661,222.504211 229.769075,222.504211 L146.193828,222.504211 L146.193828,112.851523 C146.193828,83.3886163 170.246754,59.5042114 199.917541,59.5042114 C209.348023,59.5042114 218.612362,61.9691914 226.779398,66.6513959 L323.193828,121.926291 Z"/>
    <filter id="logo2-b" width="145.2%" height="149.1%" x="-16.9%" y="-36.8%" filterUnits="objectBoundingBox">
      <feOffset dx="10" dy="-20" in="SourceAlpha" result="shadowOffsetOuter1"/>
      <feGaussianBlur in="shadowOffsetOuter1" result="shadowBlurOuter1" stdDeviation="10"/>
      <feColorMatrix in="shadowBlurOuter1" values="0 0 0 0 0   0 0 0 0 0   0 0 0 0 0  0 0 0 0.12 0"/>
    </filter>
    <linearGradient id="logo2-f" x1="0%" x2="92.314%" y1="5.817%" y2="100%">
      <stop offset="0%" stop-color="#0028FF" stop-opacity="0"/>
      <stop offset="100%" stop-color="#FFF" stop-opacity=".6"/>
    </linearGradient>
    <linearGradient id="logo2-h" x1="47.021%" x2="25.905%" y1="9.768%" y2="50%">
      <stop offset="0%" stop-color="#3851DC" stop-opacity=".2"/>
      <stop offset="100%" stop-color="#FFAE00" stop-opacity="0"/>
    </linearGradient>
    <path id="logo2-g" d="M385.677606,457.252029 L270.975574,457.637495 L152.643846,262.637495 L243.044599,263.17808 C266.31856,263.17808 287.824587,275.932357 299.461568,296.636498 L388.840436,455.656499 C389.114704,456.144467 389.382507,456.635103 389.643846,457.128283 C388.328529,457.210482 387.005947,457.252029 385.677606,457.252029 Z"/>
    <filter id="logo2-e" width="135.4%" height="143.1%" x="-17.7%" y="-21.5%" filterUnits="objectBoundingBox">
      <feGaussianBlur in="SourceGraphic" stdDeviation="14"/>
    </filter>
    <radialGradient id="logo2-i" cx="0%" cy="66.609%" r="75.379%" fx="0%" fy="66.609%" gradientTransform="matrix(.80672 .44298 -.40293 .90629 .268 .062)">
      <stop offset="0%" stop-color="#3851DC"/>
      <stop offset="62.371%" stop-color="#455BD6"/>
      <stop offset="100%" stop-color="#7E90F0"/>
    </radialGradient>
    <path id="logo2-j" d="M313.689644,412.661723 L145.310356,412.661723 C123.424067,412.661723 103.200302,401.014216 92.2571575,382.106705 L8.20735836,236.885879 C-2.73578612,217.978368 -2.73578612,194.683355 8.20735836,175.775844 L92.2571575,30.5550177 C103.200302,11.647507 123.424067,-1.8189894e-12 145.310356,-1.8189894e-12 L313.409954,-1.76219596e-12 L313.689644,-1.8189894e-12 C335.575933,-1.8189894e-12 355.799698,11.647507 366.742843,30.5550177 L450.792642,175.775844 C461.735786,194.683355 461.735786,217.978368 450.792642,236.885879 L366.742843,382.106705 C355.799698,401.014216 335.575933,412.661723 313.689644,412.661723 Z"/>
    <radialGradient id="logo2-k" cx="11.734%" cy="54.732%" r="93.012%" fx="11.734%" fy="54.732%" gradientTransform="matrix(.7921 .53876 -.6104 .69915 .359 .102)">
      <stop offset="0%" stop-color="#3851DC"/>
      <stop offset="100%" stop-color="#7E90F0"/>
    </radialGradient>
    <linearGradient id="logo2-m" x1="85.642%" x2="85.642%" y1="19.6%" y2="88.598%">
      <stop offset="0%" stop-color="#C8C8C8" stop-opacity="0"/>
      <stop offset="100%" stop-color="#3851DC"/>
    </linearGradient>
    <linearGradient id="logo2-n" x1="0%" x2="89.376%" y1="62.303%" y2="31.228%">
      <stop offset="0%" stop-color="#3851DC"/>
      <stop offset="100%" stop-color="#8092F0"/>
    </linearGradient>
    <radialGradient id="logo2-o" cx="0%" r="41.476%" fx="0%" fy="50%" gradientTransform="matrix(0 -.8458 1.46679 0 -.733 .5)">
      <stop offset="0%" stop-color="#9FAEFF"/>
      <stop offset="100%" stop-color="#9FAEFF" stop-opacity=".3"/>
    </radialGradient>
  </defs>
  <g fill="none" fill-rule="evenodd" transform="rotate(120 279.292 251.75)">
    <path fill="url(#logo2-a)" fill-rule="nonzero" d="M405.551868,456.841095 C404.090064,456.929193 402.620186,456.973721 401.143907,456.973721 L202.477895,456.973721 C176.611909,456.973721 152.710753,443.304243 139.77776,421.114447 L40.4447541,250.68374 C40.1399415,250.160757 39.8423129,249.634915 39.5518683,249.106346 C41.0136724,249.018248 42.4835508,248.973721 43.9598295,248.973721 L242.625842,248.973721 C268.491827,248.973721 292.392984,262.643198 305.325976,284.832994 L404.658982,455.263701 C404.963795,455.786684 405.261424,456.312526 405.551868,456.841095 Z"/>
    <path fill="url(#logo2-a)" fill-rule="nonzero" d="M367.628475,459.635865 C366.40631,459.71168 365.177396,459.75 363.94313,459.75 L197.845316,459.75 C176.219656,459.75 156.236722,447.986363 145.423892,428.890337 L62.3749856,282.221603 C62.1201423,281.771537 61.8713052,281.319008 61.6284745,280.864135 C62.8506387,280.78832 64.0795534,280.75 65.3138192,280.75 L231.411633,280.75 C253.037293,280.75 273.020227,292.513637 283.833057,311.609663 L366.881963,458.278397 C367.136807,458.728463 367.385644,459.180992 367.628475,459.635865 Z"/>
    <path fill="#FFC039" fill-rule="nonzero" d="M283.830092,193.232089 C272.693283,212.796557 252.111611,224.848767 229.837992,224.848767 L58.7634765,224.848767 C57.8235931,224.848767 56.8867223,224.827307 55.9534468,224.784727 C56.1452595,224.432434 56.3406252,224.081538 56.5395439,223.732089 L142.076802,73.4654442 C153.213611,53.9009762 173.795283,41.8487668 196.068901,41.8487668 C311.369748,41.8630736 369.331263,41.8844201 369.953447,41.9128062 C369.825572,42.1476683 341.117787,92.5874294 283.830092,193.232089 Z"/>
    <path fill="#FFC039" d="M467.100929,296.826923 L226.263868,435.419182 C200.877512,450.028032 168.416105,441.358491 153.759285,416.055221 C149.100802,408.0129 146.64831,398.890032 146.64831,389.603559 L146.64831,112.419041 C146.64831,83.2013422 170.41171,59.5157171 199.725349,59.5157171 C209.042315,59.5157171 218.195138,61.9601821 226.263868,66.6034186 L467.100929,205.195678 C492.487285,219.804527 501.185293,252.159693 486.528473,277.462962 C481.86999,285.505284 475.169658,292.183687 467.100929,296.826923 Z"/>
    <g fill-rule="nonzero">
      <use fill="#000" filter="url(#logo2-b)" xlink:href="#logo2-c"/>
      <use fill="url(#logo2-d)" xlink:href="#logo2-c"/>
    </g>
    <g fill-rule="nonzero" filter="url(#logo2-e)">
      <use fill="url(#logo2-f)" xlink:href="#logo2-g"/>
      <use fill="url(#logo2-h)" xlink:href="#logo2-g"/>
    </g>
    <path fill="url(#logo2-i)" fill-rule="nonzero" d="M363.627211,46.1266599 L196.038312,46.1266599 C174.218515,46.1266599 154.056191,57.715741 143.146293,76.5284084 L59.3518431,221.020782 C48.4419447,239.833449 48.4419447,263.011612 59.3518431,281.824279 L143.146293,426.316653 C154.056191,445.12932 174.218515,456.718401 196.038312,456.718401 L363.627211,456.718401 C385.447008,456.718401 407.563268,438.578201 413.637595,429.148189 C413.430386,428.815378 413.226091,428.480281 413.024754,428.142922 L326.447764,283.074838 C315.175584,264.187214 314.889744,241.080857 325.697919,222.459709 L412.918235,77.08273 C413.374309,76.2969704 413.847214,75.5242345 414.336375,74.7648423 C412.199899,71.3333312 410.49069,68.5602906 409.202,66.4509468 C397.744678,53.6647906 381.224997,46.1266599 363.627211,46.1266599 Z M382.378417,-3.76118049e-13 C409.080965,-3.76118049e-13 432.222967,15.0772467 445.574242,38.1239152 L548.267254,215.051286 C561.618529,238.097954 563.003342,265.697333 549.652067,288.744002 L447.106412,465.755998 C433.755138,488.802667 409.080965,503 382.378417,503 L177.287106,503 C150.584558,503 125.910385,488.802667 112.559111,465.755998 L10.0134557,288.744002 C-3.33781857,265.697333 -3.33781857,237.302667 10.0134557,214.255998 L112.559111,37.2440017 C125.910385,14.1973332 150.584558,-4.46753745e-13 177.287106,-4.46753745e-13 L382.378417,-3.76118049e-13 Z"/>
    <path fill="url(#logo2-i)" fill-rule="nonzero" d="M363.627211,46.1266599 L196.038312,46.1266599 C174.218515,46.1266599 154.056191,57.715741 143.146293,76.5284084 L59.3518431,221.020782 C48.4419447,239.833449 48.4419447,263.011612 59.3518431,281.824279 L143.146293,426.316653 C154.056191,445.12932 174.218515,456.718401 196.038312,456.718401 L363.627211,456.718401 C385.447008,456.718401 407.563268,438.578201 413.637595,429.148189 C413.430386,428.815378 413.226091,428.480281 413.024754,428.142922 L326.447764,283.074838 C315.175584,264.187214 314.889744,241.080857 325.697919,222.459709 L412.918235,77.08273 C413.374309,76.2969704 413.847214,75.5242345 414.336375,74.7648423 C412.199899,71.3333312 410.49069,68.5602906 409.202,66.4509468 C397.744678,53.6647906 381.224997,46.1266599 363.627211,46.1266599 Z M382.378417,-3.76118049e-13 C409.080965,-3.76118049e-13 432.222967,15.0772467 445.574242,38.1239152 L548.267254,215.051286 C561.618529,238.097954 563.003342,265.697333 549.652067,288.744002 L447.106412,465.755998 C433.755138,488.802667 409.080965,503 382.378417,503 L177.287106,503 C150.584558,503 125.910385,488.802667 112.559111,465.755998 L10.0134557,288.744002 C-3.33781857,265.697333 -3.33781857,237.302667 10.0134557,214.255998 L112.559111,37.2440017 C125.910385,14.1973332 150.584558,-4.46753745e-13 177.287106,-4.46753745e-13 L382.378417,-3.76118049e-13 Z"/>
    <path fill="#3851DC" fill-rule="nonzero" d="M417.000506,9.7686398 C434.666628,20.3537088 438.707473,27.0715695 444.723272,37.5257681 L546.744997,214.479137 C560.008996,237.529193 561.384757,265.132627 548.120757,288.182683 L446.245427,465.220691 C439.824634,476.378685 430.767889,485.462707 420.122611,491.866025 C403.052526,470.156209 342.750441,352.286088 289.407584,250.064305 C330.327581,166.113652 404.471818,32.0897293 417.000506,9.7686398 Z"/>
    <g transform="translate(49.837 44.83)">
      <mask id="logo2-l" fill="#fff">
        <use xlink:href="#logo2-j"/>
      </mask>
      <use fill="#FFF" fill-opacity=".01" fill-rule="nonzero" xlink:href="#logo2-j"/>
      <path fill="url(#logo2-k)" fill-opacity=".9" fill-rule="nonzero" d="M178.733188,177.408675 C200.486516,177.408675 220.58742,165.730287 231.464084,146.772646 C304.980363,19.3188028 341.800075,-44.5202465 341.92322,-44.7445019 C362.17639,-43.9487091 380.736426,-33.047864 391.380553,-15.6573248 C391.264056,-15.4618835 354.459928,48.3370706 280.968168,175.739538 C270.091504,194.697178 269.824114,218.2086 280.700778,237.166241 C353.713618,363.867565 390.321121,427.383377 390.523286,427.713677 C380.417684,444.667422 363.282384,454.560491 342.062506,455.692521 C341.76358,455.108043 305.52985,391.691545 233.361316,265.443027 C222.484652,246.485386 202.383749,234.806998 180.630421,234.806998 C32.7072252,234.909062 -41.8199184,235.008102 -42.9510098,235.10412 C-52.2189879,216.982813 -53.1992167,195.609343 -43.3659264,177.702291 C-42.8379605,177.723036 31.1950778,177.625164 178.733188,177.408675 Z" mask="url(#logo2-l)"/>
      <path fill="url(#logo2-m)" fill-opacity=".9" fill-rule="nonzero" d="M245.02065,-107.374491 C259.279756,-97.8269984 259.284661,-96.2926682 264.745026,-87.3116427 C264.629461,-87.116074 228.117568,-24.4934571 155.209348,100.556208 C144.420293,119.526565 144.441455,142.910345 155.264862,161.899105 C228.996682,291.425065 265.96317,356.353471 266.164324,356.684324 C262.674294,362.590441 256.471786,368.57044 247.5568,374.624322 C204.857987,302.756637 160.553969,227.679528 114.644746,149.392995 C110.043117,140.08871 110.078632,124.397176 114.61385,115.253163 C187.938473,-12.1409757 195.01087,-18.1974721 245.02065,-107.374491 Z" mask="url(#logo2-l)" transform="scale(-1 1) rotate(-60 0 460.435)"/>
      <path fill="#3851DC" fill-rule="nonzero" d="M368.334993,-37.6388894 C378.314141,-31.9662908 386.057124,-24.3609467 391.563943,-14.8228571 C391.446481,-14.6270991 354.799783,49.0095623 281.623849,176.087127 C270.657059,195.075483 270.657059,218.470101 281.623849,237.458457 C354.626979,363.354237 391.230463,426.467544 391.434303,426.798379 C388.815501,432.929148 381.515214,439.838271 369.533443,447.525751 C328.567225,376.921869 285.526629,302.740333 240.411655,224.981144 C235.750196,215.676459 233.637415,201.319758 238.248419,192.167636 C283.723954,113.278858 327.086145,36.6766832 368.334993,-37.6388894 Z" mask="url(#logo2-l)"/>
    </g>
    <g transform="translate(320.667 150.737)">
      <path fill="url(#logo2-n)" d="M8.11622338,131.648895 C-2.70540779,112.869712 -2.70540779,89.7328041 8.11622338,70.9536211 L49.0037271,1.08576492e-12 L146.189336,55.9638386 C171.714781,70.6625362 180.460444,103.216694 165.723322,128.675585 C161.039315,136.767369 154.302273,143.486845 146.189336,148.158639 L49.6613825,203.74377 L8.11622338,131.648895 Z"/>
      <path fill="url(#logo2-o)" d="M146.217008,59.9599518 L51.7396765,5.71028988 L11.9915875,74.4905961 C1.47152337,92.6945713 1.47152337,115.122794 11.9915875,133.326769 L51.9934881,202.546272 L49.8399093,203.788113 L8.67576356,132.25573 C-2.04662173,113.623064 -2.04662173,90.6666733 8.67576356,72.0340075 L49.1882853,1.6339746 L145.482599,57.161177 C160.659003,65.9125065 169.848827,81.0429904 171.61705,97.2036341 C169.397469,82.1270897 160.515238,68.1701134 146.217008,59.9599518 Z"/>
    </g>
  </g>
</svg>
