<?xml version="1.0" encoding="UTF-8"?>
<svg width="174px" height="200px" viewBox="0 0 174 200" version="1.1" xmlns="http://www.w3.org/2000/svg" xmlns:xlink="http://www.w3.org/1999/xlink">
    <!-- Generator: Sketch 48.2 (47327) - http://www.bohemiancoding.com/sketch -->
    <title>主题</title>
    <desc>Created with Sketch.</desc>
    <defs></defs>
    <g id="Home-Copy" stroke="none" stroke-width="1" fill="none" fill-rule="evenodd" transform="translate(-626.000000, -1478.000000)">
        <g id="Group-3-Copy" transform="translate(603.000000, 1478.000000)">
            <g id="主题" transform="translate(23.000000, 0.000000)">
                <polygon id="Polygon-Copy-2" fill="#FFFFFF" points="86.6025404 0 173.205081 50 173.205081 150 86.6025404 200 5.15143483e-14 150 -5.32907052e-15 50"></polygon>
                <path d="M125,109.499515 C125,111.985451 122.985451,114 120.499515,114 C118.014549,114 116,111.985451 116,109.499515 C116,107.014549 118.014549,105 120.499515,105 C122.985451,105 125,107.014549 125,109.499515" id="Fill-1" fill="#D2EEFF"></path>
                <path d="M59,97.5 C59,99.9852339 56.9852339,102 54.49903,102 C52.0137961,102 50,99.9852339 50,97.5 C50,95.0147661 52.0137961,93 54.49903,93 C56.9852339,93 59,95.0147661 59,97.5" id="Fill-3" fill="#D2EEFF"></path>
                <path d="M74.1742973,96 L66.0121322,96 C66.0083992,96.1648043 66,96.3296087 66,96.4963519 C66,106.436961 73.5378239,114.547273 83,115 C76.0370553,108.582326 73.9279205,101.951375 74.1742973,96" id="Fill-5" fill="#D2EEFF"></path>
                <path d="M101,96 C100.782654,87.5872728 94.8464562,80.6259814 87,79 C89.7108607,82.3630374 93.8294249,88.6382803 94.1393947,96 L101,96 Z" id="Fill-7" fill="#D2EEFF"></path>
                <path d="M101.987632,96 L94.870072,96 C95.1193435,101.638398 92.9967295,107.917146 86,114 C95.0118333,112.95308 102,105.508214 102,96.4731006 C102,96.3141684 101.991437,96.1570842 101.987632,96" id="Fill-9" fill="#D2EEFF"></path>
                <path d="M66,96 L74.3678766,96 C74.6989177,88.5740771 79.1784967,82.2641622 82,79 C73.134605,80.0597929 66.2401483,87.2286009 66,96" id="Fill-11" fill="#D2EEFF"></path>
                <path d="M94.9808676,96 L66.0122616,96 C66.0084888,96.1646112 66,96.3292223 66,96.4957701 C66,106.715218 74.0700483,115 84.0246169,115 C84.7565428,115 85.4771502,114.949648 86.1873823,114.862501 C93.1237001,108.488177 95.2279869,101.908572 94.9808676,96" id="Fill-13" fill="#D2EEFF"></path>
                <path d="M102,96.4731006 C102,96.3150924 101.991437,96.1580082 101.987632,96 L94.870072,96 C95.1193435,101.638398 92.9967295,107.917146 86,114 C95.0118333,112.95308 102,105.508214 102,96.4731006" id="Fill-15" fill="#D2EEFF"></path>
                <path d="M87,79 C89.7108607,82.3639708 93.8285078,88.6392137 94.1393947,96 L101,96 C100.781737,87.5882062 94.8455391,80.6259814 87,79" id="Fill-17" fill="#D2EEFF"></path>
                <path d="M84.0318758,78 C74.2289259,78 66.2568294,86.0143018 66,96 L95,96 C94.6808518,88.367009 90.4403347,81.8605301 87.6501481,78.3726007 C86.4811969,78.1287166 85.2716439,78 84.0318758,78" id="Fill-19" fill="#D2EEFF"></path>
                <path d="M74.1742973,96 L66.0121322,96 C66.0083992,96.1648043 66,96.3296087 66,96.4963519 C66,106.436961 73.5378239,114.547273 83,115 C76.0370553,108.582326 73.9279205,101.951375 74.1742973,96" id="Fill-21" fill="#C5D3FF"></path>
                <path d="M101.987632,96 L94.870072,96 C95.1193435,101.638398 92.9967295,107.917146 86,114 C95.0118333,112.95308 102,105.508214 102,96.4731006 C102,96.3141684 101.991437,96.1570842 101.987632,96" id="Fill-23" fill="#D2EEFF"></path>
                <path d="M101,96 C100.782654,87.5872728 94.8464562,80.6259814 87,79 C89.7108607,82.3630374 93.8294249,88.6382803 94.1393947,96 L101,96 Z" id="Fill-25" fill="#D2EEFF"></path>
                <path d="M66,96 L74.3678766,96 C74.6989177,88.5740771 79.1784967,82.2641622 82,79 C73.134605,80.0597929 66.2401483,87.2286009 66,96" id="Fill-27" fill="#C5D3FF"></path>
                <path d="M83.8914951,78 C83.1231865,78 82.3663452,78.0532287 81.6219269,78.1471047 C78.8047954,81.5750309 74.3306403,88.2015162 74,96 L85,96 L85,78.037744 C84.6330467,78.0154847 84.2641821,78 83.8914951,78" id="Fill-29" fill="#D2EEFF"></path>
                <path d="M83.8914951,78 C83.1231865,78 82.3663452,78.0532287 81.6219269,78.1471047 C78.8047954,81.5750309 74.3306403,88.2015162 74,96 L85,96 L85,78.037744 C84.6330467,78.0154847 84.2641821,78 83.8914951,78" id="Fill-31" fill="#D2EEFF"></path>
                <path d="M87.5545142,78.3365302 C86.722456,78.1648707 85.8693573,78.0533405 85,78 L85,96 L95,96 C94.6757842,88.3519397 90.3815991,81.8317888 87.5545142,78.3365302" id="Fill-33" fill="#D2EEFF"></path>
                <path d="M87.5545142,78.3365302 C86.722456,78.1648707 85.8693573,78.0533405 85,78 L85,96 L95,96 C94.6757842,88.3519397 90.3815991,81.8317888 87.5545142,78.3365302" id="Fill-35" fill="#D2EEFF"></path>
                <path d="M94.9806377,96 L85,96 L85,114 C85.3636786,113.977941 85.723539,113.945772 86.0814903,113.904412 C93.1011546,107.85386 95.2307264,101.608456 94.9806377,96" id="Fill-37" fill="#D2EEFF"></path>
                <path d="M94.9806377,96 L85,96 L85,114 C85.3636786,113.977941 85.723539,113.945772 86.0814903,113.904412 C93.1011546,107.85386 95.2307264,101.608456 94.9806377,96" id="Fill-39" fill="#D2EEFF"></path>
                <path d="M74.0194048,96 C73.7675695,101.944399 75.923433,108.567577 83.0406444,114.977729 C83.3230053,114.991285 83.607274,115 83.8934506,115 C84.2654801,115 84.633694,114.986444 85,114.963205 L85,96 L74.0194048,96 Z" id="Fill-41" fill="#D2EEFF"></path>
                <path d="M74.0194048,96 C73.7675695,101.944399 75.923433,108.567577 83.0406444,114.977729 C83.3230053,114.991285 83.607274,115 83.8934506,115 C84.2654801,115 84.633694,114.986444 85,114.963205 L85,96 L74.0194048,96 Z" id="Fill-43" fill="#D2EEFF"></path>
                <path d="M49.6089389,89.5699389 C49.6089389,89.5699389 33.7644914,64.9072382 47.8037428,56.8176403 C47.8037428,56.8176403 60.4382131,47.1505427 91.9273762,72.404572 C91.9273762,72.404572 111.181533,88.5837677 118,102" id="Stroke-45" stroke="#D4DEFF" stroke-width="1.6"></path>
                <path d="M125.386733,118 C125.386733,118 128.201993,131.536825 121.768747,136.790393 C121.768747,136.790393 111.717517,144.872438 89,130.122587" id="Stroke-47" stroke="#D4DEFF" stroke-width="1.6"></path>
                <path d="M59,104 C59,104 74.4947514,120.122133 80,124" id="Stroke-49" stroke="#D4DEFF" stroke-width="1.6"></path>
                <path d="M49.7635652,103.954165 C49.7635652,103.954165 39.3567782,115.373079 44.3608807,133.683489 C44.3608807,133.683489 51.7650164,144.709324 76.5795947,131.51735 C76.5795947,131.51735 101.994893,115.964099 111,101" id="Stroke-51" stroke="#D4DEFF" stroke-width="1.6"></path>
                <path d="M61,90 C61,90 75.2011666,74.5999905 81,70" id="Stroke-53" stroke="#D4DEFF"></path>
                <path d="M89,63.2995526 C89,63.2995526 110.866781,48.2480522 122.992682,58.6839875 C122.992682,58.6839875 132.534653,66.7103124 117.62497,93" id="Stroke-55" stroke="#D4DEFF" stroke-width="1.6"></path>
                <path d="M120.499515,114 C118.014549,114 116,111.985451 116,109.499515 C116,107.014549 118.014549,105 120.499515,105 C122.985451,105 125,107.014549 125,109.499515 C125,111.985451 122.985451,114 120.499515,114 Z" id="Fill-57" fill="#C5D1FF"></path>
                <path d="M59,97.5 C59,99.9852339 56.9852339,102 54.49903,102 C52.0137961,102 50,99.9852339 50,97.5 C50,95.0147661 52.0137961,93 54.49903,93 C56.9852339,93 59,95.0147661 59,97.5" id="Fill-59" fill="#C5D1FF"></path>
                <path d="M129,109.499515 C129,111.985451 126.985234,114 124.49903,114 C122.013796,114 120,111.985451 120,109.499515 C120,107.014549 122.013796,105 124.49903,105 C126.985234,105 129,107.014549 129,109.499515" id="Fill-61" fill="#FFEF5A"></path>
                <path d="M62,97.5 C62,99.9852339 59.9852339,102 57.49903,102 C55.0147661,102 53,99.9852339 53,97.5 C53,95.0147661 55.0147661,93 57.49903,93 C59.9852339,93 62,95.0147661 62,97.5" id="Fill-63" fill="#FFEF5A"></path>
                <path d="M77.1747461,96 L69.0121329,96 C69.0074664,96.1648043 69,96.3296087 69,96.4963519 C69,106.436961 76.5382377,114.547273 86,115 C79.0376064,108.582326 76.9283558,101.951375 77.1747461,96" id="Fill-65" fill="#C5D3FF"></path>
                <path d="M105,96 C104.78264,87.5872728 98.8460531,80.6259814 91,79 C93.7101212,82.3630374 97.8289551,88.6382803 98.1389453,96 L105,96 Z" id="Fill-67" fill="#C5D3FF"></path>
                <path d="M104.987632,96 L97.870072,96 C98.1193435,101.638398 95.9967295,107.917146 89,114 C98.0118333,112.95308 105,105.508214 105,96.4731006 C105,96.3141684 104.991437,96.1570842 104.987632,96" id="Fill-69" fill="#99B9FF"></path>
                <path d="M69,96 L77.368377,96 C77.6994379,88.5740771 82.1792848,82.2641622 85,79 C76.1350317,80.0597929 69.2392058,87.2286009 69,96" id="Fill-71" fill="#99B9FF"></path>
                <path d="M97.9808676,96 L69.0122616,96 C69.0084888,96.1646112 69,96.3292223 69,96.4957701 C69,106.715218 77.0700483,115 87.0246169,115 C87.757486,115 88.4771502,114.949648 89.1873823,114.862501 C96.1237001,108.488177 98.2279869,101.908572 97.9808676,96 Z" id="Stroke-73" stroke="#3E3A39" stroke-width="1.5" stroke-linecap="round" stroke-linejoin="round"></path>
                <path d="M105,96.4731006 C105,96.3150924 104.991437,96.1580082 104.987632,96 L97.870072,96 C98.1193435,101.638398 96.1488291,108.784822 89.1520996,114.867676 C98.1639329,113.820756 105,105.508214 105,96.4731006 Z" id="Stroke-75" stroke="#3E3A39" stroke-width="1.5" stroke-linecap="round" stroke-linejoin="round"></path>
                <path d="M91,79 C93.7101212,82.3639708 97.8289551,88.6392137 98.1389453,96 L105,96 C104.78264,87.5882062 98.8460531,80.6259814 91,79 Z" id="Stroke-77" stroke="#3E3A39" stroke-width="0.5" stroke-linecap="round" stroke-linejoin="round"></path>
                <path d="M87.0318758,78 C77.2289259,78 69.2568294,86.0143018 69,96 L98,96 C97.6808518,88.367009 93.4403347,81.8605301 90.6501481,78.3726007 C89.4811969,78.1287166 88.2716439,78 87.0318758,78 Z" id="Stroke-79" stroke="#3E3A39" stroke-width="0.5" stroke-linecap="round" stroke-linejoin="round"></path>
                <path d="M77.1747461,96 L69.0121329,96 C69.0074664,96.1648043 69,96.3296087 69,96.4963519 C69,106.436961 76.5382377,114.547273 86,115 C79.0376064,108.582326 76.9283558,101.951375 77.1747461,96 Z" id="Stroke-81" stroke="#3A3D4C" stroke-width="1.5" stroke-linecap="round" stroke-linejoin="round"></path>
                <path d="M104.987632,96 L97.870072,96 C98.1193435,101.638398 96.1019541,108.593659 89.1052246,114.676514 C98.4145508,112.644531 105,105.508214 105,96.4731006 C105,96.3141684 104.991437,96.1570842 104.987632,96 Z" id="Stroke-83" stroke="#3A3D4C" stroke-width="1.5" stroke-linecap="round" stroke-linejoin="round"></path>
                <path d="M105,96 C104.78264,87.5872728 98.8460531,80.6259814 91,79 C93.7101212,82.3630374 97.8289551,88.6382803 98.1389453,96 L105,96 Z" id="Stroke-85" stroke="#3A3D4C" stroke-width="1.5" stroke-linecap="round" stroke-linejoin="round"></path>
                <path d="M69,96 L77.368377,96 C77.6994379,88.5740771 82.1792848,82.2641622 85,79 C76.1350317,80.0597929 69.2392058,87.2286009 69,96 Z" id="Stroke-87" stroke="#3A3D4C" stroke-width="1.5" stroke-linecap="round" stroke-linejoin="round"></path>
                <path d="M86.8906359,78 C86.122394,78 85.3656185,78.0532287 84.6212648,78.1471047 C81.804378,81.5750309 77.3306115,88.2015162 77,96 L88,96 L88,78.037744 C87.632123,78.0154847 87.2632905,78 86.8906359,78" id="Fill-89" fill="#C5D3FF"></path>
                <path d="M86.8906359,78.6577123 C86.122394,78.6577123 85.3656185,78.7079838 84.6212648,78.7966445 C81.804378,82.0341304 77.3306115,88.6347653 77,96 L88,96 L88,78.6933594 C87.632123,78.6723367 87.2632905,78.6577123 86.8906359,78.6577123 Z" id="Stroke-91" stroke="#3A3D4C" stroke-width="1.5" stroke-linecap="round" stroke-linejoin="round"></path>
                <path d="M90.5547585,78.3365302 C89.7226208,78.1648707 88.868484,78.0533405 88,78 L88,96 L98,96 C97.6767097,88.3519397 93.3811573,81.8317888 90.5547585,78.3365302" id="Fill-93" fill="#99B9FF"></path>
                <path d="M90.4658203,78.8417969 C89.6337622,78.6701374 88.7797071,78.5586072 87.9113062,78.5052667 L88,96 L98,96 C97.6757842,88.3519397 93.2929052,82.3360857 90.4658203,78.8417969 Z" id="Stroke-95" stroke="#3A3D4C" stroke-width="1.5" stroke-linecap="round" stroke-linejoin="round"></path>
                <path d="M97.9806377,96 L88,96 L88,114 C88.3636786,113.977941 88.723539,113.945772 89.0814903,113.904412 C96.1011546,107.85386 98.2307264,101.608456 97.9806377,96" id="Fill-97" fill="#C5D3FF"></path>
                <path d="M97.9806377,96 L88,96 L88,114 C88.3636786,113.977941 88.723539,113.945772 89.0814903,113.904412 C96.1011546,107.85386 98.2307264,101.608456 97.9806377,96 Z" id="Stroke-99" stroke="#3A3D4C" stroke-width="1.5" stroke-linecap="round" stroke-linejoin="round"></path>
                <path d="M77.019405,96 C76.7675696,101.944399 78.9234331,108.567577 86.0396905,114.977729 C86.3230053,114.991285 86.607274,115 86.8934506,115 C87.2654801,115 87.633694,114.986444 88,114.963205 L88,96 L77.019405,96 Z" id="Fill-101" fill="#99B9FF"></path>
                <path d="M77.019405,96 C76.7675696,101.944399 78.9234331,108.51282 86.0396905,114.922972 C86.3230053,114.936528 86.607274,114.945243 86.8934506,114.945243 C87.2654801,114.945243 87.633694,114.931686 88,114.908447 L88,96 L77.019405,96 Z" id="Stroke-103" stroke="#3A3D4C" stroke-width="1.5" stroke-linecap="round" stroke-linejoin="round"></path>
                <path d="M52.6089389,89.5699389 C52.6089389,89.5699389 36.7644914,64.9072382 50.8037428,56.8176403 C50.8037428,56.8176403 63.4382131,47.1505427 94.9273762,72.404572 C94.9273762,72.404572 114.181533,88.5837677 121,102" id="Stroke-105" stroke="#3A3D4C" stroke-width="1.6" stroke-linecap="round" stroke-linejoin="round"></path>
                <path d="M128.387155,118 C128.387155,118 131.201494,131.536825 124.768174,136.790393 C124.768174,136.790393 114.716827,144.872438 92,130.122587" id="Stroke-107" stroke="#3A3D4C" stroke-width="1.6" stroke-linecap="round" stroke-linejoin="round"></path>
                <path d="M62,104 C62,104 77.4947514,120.122133 83,124" id="Stroke-109" stroke="#3A3D4C" stroke-width="1.6" stroke-linecap="round" stroke-linejoin="round"></path>
                <path d="M52.7632422,103.954165 C52.7632422,103.954165 42.3573493,115.373079 47.3605292,133.683489 C47.3605292,133.683489 54.764704,144.709324 79.5794132,131.51735 C79.5794132,131.51735 104.994846,115.964099 114,101" id="Stroke-111" stroke="#3A3D4C" stroke-width="1.6" stroke-linecap="round" stroke-linejoin="round"></path>
                <path d="M62,90 C62,90 76.2011666,74.5999905 82,70" id="Stroke-113" stroke="#3A3D4C" stroke-width="1.6" stroke-linecap="round" stroke-linejoin="round"></path>
                <path d="M91,63.2995526 C91,63.2995526 112.866683,48.2480522 124.992529,58.6839875 C124.992529,58.6839875 134.534457,66.7103124 119.625784,93" id="Stroke-115" stroke="#3A3D4C" stroke-width="1.6" stroke-linecap="round" stroke-linejoin="round"></path>
                <path d="M129,109.499515 C129,111.985451 126.985234,114 124.49903,114 C122.013796,114 120,111.985451 120,109.499515 C120,107.014549 122.013796,105 124.49903,105 C126.985234,105 129,107.014549 129,109.499515 Z" id="Stroke-117" stroke="#3A3D4C" stroke-width="1.5" stroke-linecap="round" stroke-linejoin="round"></path>
                <path d="M62,97.5 C62,99.9852339 59.9852339,102 57.49903,102 C55.0147661,102 53,99.9852339 53,97.5 C53,95.0147661 55.0147661,93 57.49903,93 C59.9852339,93 62,95.0147661 62,97.5 Z" id="Stroke-119" stroke="#3A3D4C" stroke-width="1.5" stroke-linecap="round" stroke-linejoin="round"></path>
            </g>
        </g>
    </g>
</svg>