<svg xmlns="http://www.w3.org/2000/svg" width="687" height="88" viewBox="0 0 687 88">
  <defs>
    <linearGradient id="uilogo-0429-a" x1="70.409%" x2="8.211%" y1="70.562%" y2="12.123%">
      <stop offset="0%" stop-color="#00B0FF"/>
      <stop offset="100%" stop-color="#5568D5"/>
      <stop offset="100%" stop-color="#304FFE"/>
    </linearGradient>
    <linearGradient id="uilogo-0429-b" x1="37.821%" x2="69.851%" y1="43.094%" y2="76.303%">
      <stop offset="0%" stop-opacity="0"/>
      <stop offset="43.31%" stop-opacity=".08"/>
      <stop offset="100%" stop-opacity=".3"/>
    </linearGradient>
    <linearGradient id="uilogo-0429-c" x1="81.154%" x2="0%" y1="41.71%" y2="74.894%">
      <stop offset="0%" stop-color="#26C6DA"/>
      <stop offset="41.131%" stop-color="#00B0FF"/>
      <stop offset="100%" stop-color="#5568D5"/>
      <stop offset="100%" stop-color="#3D5AFE"/>
    </linearGradient>
    <linearGradient id="uilogo-0429-d" x1="63.464%" x2="18.78%" y1="71.51%" y2="37.762%">
      <stop offset="0%" stop-opacity="0"/>
      <stop offset="26.576%" stop-opacity=".05"/>
      <stop offset="100%" stop-opacity=".4"/>
    </linearGradient>
  </defs>
  <g fill="none" fill-rule="evenodd">
    <g fill-rule="nonzero">
      <path fill="url(#uilogo-0429-a)" d="M19.9636037,45.6712026 L3.46316823,29.1707672 C-0.789501452,24.9180975 -0.796131202,18.0297874 3.44836027,13.7852959 C7.69285175,9.54080442 14.5811619,9.54743417 18.8338316,13.8001039 L35.334267,30.3005393 L19.9636037,45.6712026 Z"/>
      <path fill="url(#uilogo-0429-b)" d="M19.9636037,45.6712026 L3.46316823,29.1707672 C-0.789501452,24.9180975 -0.796131202,18.0297874 3.44836027,13.7852959 C7.69285175,9.54080442 14.5811619,9.54743417 18.8338316,13.8001039 L35.334267,30.3005393 L19.9636037,45.6712026 Z"/>
      <path fill="url(#uilogo-0429-c)" d="M46.9201367,15.6801868 C47.5926985,14.9055319 48.2972637,14.149057 49.0338342,13.4124865 C66.0118001,-3.56547937 93.5650406,-3.53896037 110.575719,13.4717184 C127.586398,30.4823971 127.612917,58.0356376 110.634951,75.0136035 C93.6569853,91.9915694 66.1037448,91.9650504 49.0930661,74.9543717 C48.3550764,74.2163819 47.6490536,73.4585494 46.9749995,72.6825984 L33.8466415,59.5542405 L18.7303239,74.6705581 C14.4858324,78.9150496 7.59752231,78.9084199 3.34485263,74.6557502 C-0.907817059,70.4030805 -0.914446808,63.5147704 3.33004466,59.2702789 L18.4463623,44.1539612 L33.8170256,28.7832979 L46.9201367,15.6801868 Z M65.2022759,29.0609556 L63.6638352,30.5993963 C57.1695372,38.5355519 57.1693968,50.0103195 63.6635004,57.9463161 L65.3547849,59.6376005 L65.2790909,59.7132945 C73.7341129,68.0042559 87.309517,67.9533782 95.7021078,59.5607874 C104.145719,51.1171762 104.145887,37.4275451 95.7024821,28.9841406 C87.2590776,20.5407361 73.5694465,20.5409036 65.1258352,28.9845149 L65.2022759,29.0609556 Z"/>
      <path fill="url(#uilogo-0429-d)" d="M70.5243895,64.1150352 C72.1153156,65.0067195 73.8039673,65.6350412 75.5903448,66 L62.1248276,83.4482759 C54.3679689,78.478756 49.5276543,75.0321107 47.6038837,73.1083402 L33.8662069,59.1724138 L62.2956988,31.4536592 C60.0880567,34.5095435 58.6460773,38.155044 58.2509944,42.1089337 L58.2509944,44.5427332 L58.142069,44.5427332 C58.2264058,53.1511584 63.2550412,60.5764322 70.5243895,64.1150352 Z"/>
    </g>
    <path fill="#282828" stroke="#000" d="M211.6,62.28 C205.306635,70.3867072 196.666722,74.44 185.68,74.44 C176.399954,74.44 168.80003,71.506696 162.88,65.64 C156.95997,59.773304 154,52.3600448 154,43.4 C154,37.8533056 155.37332,32.7333568 158.12,28.04 C160.86668,23.3466432 164.666642,19.66668 169.52,17 C174.373358,14.33332 179.613305,13 185.24,13 C190.866695,13 195.906644,14.0799892 200.36,16.24 C204.813356,18.4000108 208.533318,21.5599792 211.52,25.72 L206.24,29.8 C200.693306,23.0799664 193.840041,19.72 185.68,19.72 C179.0133,19.72 173.266691,22.0666432 168.44,26.76 C163.613309,31.4533568 161.2,37.199966 161.2,44 C161.2,50.800034 163.559976,56.4799772 168.28,61.04 C173.000024,65.6000228 179.119962,67.88 186.64,67.88 C194.160038,67.88 200.693306,64.6533656 206.24,58.2 L211.6,62.28 Z M259.04,73 L252.4,73 L252.4,52.2 C252.4,48.1466464 252.280001,45.2933416 252.04,43.64 C251.799999,41.9866584 251.253338,40.426674 250.4,38.96 C249.546662,37.493326 248.386674,36.3733372 246.92,35.6 C245.453326,34.8266628 243.693344,34.44 241.64,34.44 C239.586656,34.44 237.626676,34.9199952 235.76,35.88 C233.893324,36.8400048 232.29334,38.1733248 230.96,39.88 C229.62666,41.5866752 228.706669,43.3999904 228.2,45.32 C227.693331,47.2400096 227.44,51.0799712 227.44,56.84 L227.44,73 L220.8,73 L220.8,13 L227.44,13 L227.44,35.96 C231.760022,30.8399744 236.87997,28.28 242.8,28.28 C245.946682,28.28 248.799987,29.0933252 251.36,30.72 C253.920013,32.3466748 255.839994,34.5866524 257.12,37.44 C258.400006,40.2933476 259.04,44.6799704 259.04,50.6 L259.04,73 Z M290.32,28.28 C296.613365,28.28 301.959978,30.546644 306.36,35.08 C310.760022,39.613356 312.96,45.0533016 312.96,51.4 C312.96,57.7466984 310.786688,63.1733108 306.44,67.68 C302.093312,72.1866892 296.720032,74.44 290.32,74.44 C283.919968,74.44 278.533355,72.1866892 274.16,67.68 C269.786645,63.1733108 267.6,57.7466984 267.6,51.4 C267.6,45.0533016 269.799978,39.613356 274.2,35.08 C278.600022,30.546644 283.973302,28.28 290.32,28.28 Z M290.32,68.12 C294.746689,68.12 298.519984,66.5066828 301.64,63.28 C304.760016,60.0533172 306.32,56.1600228 306.32,51.6 C306.32,47.0399772 304.733349,43.09335 301.56,39.76 C298.386651,36.42665 294.626688,34.76 290.28,34.76 C285.933312,34.76 282.186682,36.42665 279.04,39.76 C275.893318,43.09335 274.32,47.0533104 274.32,51.64 C274.32,56.2266896 275.839985,60.119984 278.88,63.32 C281.920015,66.520016 285.73331,68.12 290.32,68.12 Z M364.96,52.36 L326.72,52.36 C326.986668,57.160024 328.599985,61.0133188 331.56,63.92 C334.520015,66.8266812 338.053313,68.28 342.16,68.28 C349.146702,68.28 354.479982,64.8400344 358.16,57.96 L363.76,60.84 C361.253321,65.4800232 358.29335,68.9066556 354.88,71.12 C351.46665,73.3333444 347.38669,74.44 342.64,74.44 C336.079967,74.44 330.666688,72.1866892 326.4,67.68 C322.133312,63.1733108 320,57.7466984 320,51.4 C320,45.0533016 322.146645,39.613356 326.44,35.08 C330.733355,30.546644 336.053302,28.28 342.4,28.28 C348.746698,28.28 354.053312,30.4266452 358.32,34.72 C362.586688,39.0133548 364.799999,44.893296 364.96,52.36 Z M357.6,46.52 C356.799996,42.786648 354.986681,39.8800104 352.16,37.8 C349.333319,35.7199896 346.080018,34.68 342.4,34.68 C334.933296,34.68 329.973346,38.6266272 327.52,46.52 L357.6,46.52 Z M392.4,30.04 L388.96,35.64 C388.053329,35.1599976 387.173338,34.92 386.32,34.92 C384.666658,34.92 383.17334,35.7333252 381.84,37.36 C380.50666,38.9866748 379.50667,41.1199868 378.84,43.76 C378.17333,46.4000132 377.84,51.1599656 377.84,58.04 L377.84,73 L371.12,73 L371.12,29.4 L377.84,29.4 L377.84,34.12 C379.17334,32.1466568 380.519993,30.6800048 381.88,29.72 C383.240007,28.7599952 384.786658,28.28 386.52,28.28 C388.253342,28.28 390.213322,28.8666608 392.4,30.04 Z M418.8,28.28 C425.093365,28.28 430.439978,30.546644 434.84,35.08 C439.240022,39.613356 441.44,45.0533016 441.44,51.4 C441.44,57.7466984 439.266688,63.1733108 434.92,67.68 C430.573312,72.1866892 425.200032,74.44 418.8,74.44 C412.399968,74.44 407.013355,72.1866892 402.64,67.68 C398.266645,63.1733108 396.08,57.7466984 396.08,51.4 C396.08,45.0533016 398.279978,39.613356 402.68,35.08 C407.080022,30.546644 412.453302,28.28 418.8,28.28 Z M418.8,68.12 C423.226689,68.12 426.999984,66.5066828 430.12,63.28 C433.240016,60.0533172 434.8,56.1600228 434.8,51.6 C434.8,47.0399772 433.213349,43.09335 430.04,39.76 C426.866651,36.42665 423.106688,34.76 418.76,34.76 C414.413312,34.76 410.666682,36.42665 407.52,39.76 C404.373318,43.09335 402.8,47.0533104 402.8,51.64 C402.8,56.2266896 404.319985,60.119984 407.36,63.32 C410.400015,66.520016 414.21331,68.12 418.8,68.12 Z M494,73 L487.52,73 L487.52,66.6 C482.77331,71.8266928 477.293364,74.44 471.08,74.44 C464.866636,74.44 459.573355,72.173356 455.2,67.64 C450.826645,63.106644 448.64,57.6666984 448.64,51.32 C448.64,44.9733016 450.853311,39.5466892 455.28,35.04 C459.706689,30.5333108 465.106635,28.28 471.48,28.28 C477.853365,28.28 483.199978,30.8666408 487.52,36.04 L487.52,13 L494,13 L494,73 Z M471.6,68.28 C475.813354,68.28 479.573317,66.7066824 482.88,63.56 C486.186683,60.4133176 487.84,56.4266908 487.84,51.6 C487.84,46.7733092 486.306682,42.7466828 483.24,39.52 C480.173318,36.2933172 476.30669,34.68 471.64,34.68 C466.97331,34.68 463.080016,36.34665 459.96,39.68 C456.839984,43.01335 455.28,46.9333108 455.28,51.44 C455.28,55.9466892 456.879984,59.8799832 460.08,63.24 C463.280016,66.6000168 467.119978,68.28 471.6,68.28 Z M526,28.28 C532.293365,28.28 537.639978,30.546644 542.04,35.08 C546.440022,39.613356 548.64,45.0533016 548.64,51.4 C548.64,57.7466984 546.466688,63.1733108 542.12,67.68 C537.773312,72.1866892 532.400032,74.44 526,74.44 C519.599968,74.44 514.213355,72.1866892 509.84,67.68 C505.466645,63.1733108 503.28,57.7466984 503.28,51.4 C503.28,45.0533016 505.479978,39.613356 509.88,35.08 C514.280022,30.546644 519.653302,28.28 526,28.28 Z M526,68.12 C530.426689,68.12 534.199984,66.5066828 537.32,63.28 C540.440016,60.0533172 542,56.1600228 542,51.6 C542,47.0399772 540.413349,43.09335 537.24,39.76 C534.066651,36.42665 530.306688,34.76 525.96,34.76 C521.613312,34.76 517.866682,36.42665 514.72,39.76 C511.573318,43.09335 510,47.0533104 510,51.64 C510,56.2266896 511.519985,60.119984 514.56,63.32 C517.600015,66.520016 521.41331,68.12 526,68.12 Z M595.92,73 L589.36,73 L589.36,52.2 C589.36,47.399976 589.133336,44.133342 588.68,42.4 C588.226664,40.666658 587.560004,39.200006 586.68,38 C585.799996,36.799994 584.680007,35.9066696 583.32,35.32 C581.959993,34.7333304 580.306676,34.44 578.36,34.44 C576.413324,34.44 574.506676,34.9199952 572.64,35.88 C570.773324,36.8400048 569.17334,38.1733248 567.84,39.88 C566.50666,41.5866752 565.586669,43.3999904 565.08,45.32 C564.573331,47.2400096 564.32,51.0799712 564.32,56.84 L564.32,73 L557.68,73 L557.68,29.4 L564.32,29.4 L564.32,35.96 C568.640022,30.8399744 573.75997,28.28 579.68,28.28 C582.826682,28.28 585.679987,29.0933252 588.24,30.72 C590.800013,32.3466748 592.719994,34.5866524 594,37.44 C595.280006,40.2933476 595.92,44.6799704 595.92,50.6 L595.92,73 Z M666.72,49.64 C666.72,55.5600296 666.120006,60.1066508 664.92,63.28 C663.719994,66.4533492 661.586682,69.106656 658.52,71.24 C655.453318,73.373344 651.866687,74.44 647.76,74.44 C644.50665,74.44 641.573346,73.9200052 638.96,72.88 C636.346654,71.8399948 634.173342,70.3733428 632.44,68.48 C630.706658,66.5866572 629.46667,64.4800116 628.72,62.16 C627.97333,59.8399884 627.6,55.6666968 627.6,49.64 L627.6,14.44 L634.48,14.44 L634.48,49.64 C634.48,53.4266856 634.586666,56.1599916 634.8,57.84 C635.013334,59.5200084 635.626662,61.1466588 636.64,62.72 C637.653338,64.2933412 639.106657,65.546662 641,66.48 C642.893343,67.413338 645.039988,67.88 647.44,67.88 C650.320014,67.88 652.813323,67.0400084 654.92,65.36 C657.026677,63.6799916 658.386664,61.7333444 659,59.52 C659.613336,57.3066556 659.92,54.0133552 659.92,49.64 L659.92,14.44 L666.72,14.44 L666.72,49.64 Z M685.84,73 L678.96,73 L678.96,14.44 L685.84,14.44 L685.84,73 Z"/>
  </g>
</svg>
