<?xml version="1.0" encoding="UTF-8"?>
<svg width="908px" height="468px" viewBox="0 0 908 468" version="1.1" xmlns="http://www.w3.org/2000/svg" xmlns:xlink="http://www.w3.org/1999/xlink">
    <!-- Generator: Sketch 48.2 (47327) - http://www.bohemiancoding.com/sketch -->
    <title>插画</title>
    <desc>Created with Sketch.</desc>
    <defs>
        <path d="M7.18705446,15.130155 C3.45445462,15.130155 0.42758011,11.9369425 0.42758011,7.99738407 C0.42758011,4.06012205 3.45445462,0.865761319 7.18705446,0.865761319 C10.9207451,0.865761319 13.9465288,4.06012205 13.9465288,7.99738407 C13.9465288,11.9369425 10.9207451,15.130155 7.18705446,15.130155 Z" id="path-1"></path>
        <polygon id="path-3" points="0 874.947115 1381.84947 874.947115 1381.84947 0.882984687 0 0.882984687"></polygon>
        <path d="M23.1459286,14.895561 C23.1005357,25.7445366 23.8611429,33.4066829 17.5902857,33.4066829 C11.3183214,33.4066829 0.849178571,31.822439 0.618892857,39.7299024 C0.388607143,47.6362195 12.0302143,57.1244878 19.0849286,62.3563902 C21.1918214,64.7361951 22.3056071,70.0850244 8.79625,61.8130244 C-4.71310714,53.5387317 3.05128571,74.582122 10.3207857,79.4643902 C17.5902857,84.3466585 24.6782143,96.021 38.86625,92.3676098 C53.0531786,88.7119268 63.2377857,66.7308293 61.0334643,63.309 C58.8269286,59.8860244 52.9081429,62.1431707 49.8435714,63.7056341 C46.779,65.2669512 44.6211786,55.7053171 48.8692857,50.3587805 C53.1173929,45.0122439 60.7710714,45.9969512 60.9017143,28.3708049 C59.9794643,26.9195366 57.4097857,27.6142195 54.5090714,28.3111951 C49.7107143,29.462122 44.0067143,30.6141951 43.3734286,22.0349756 C42.3570714,8.26970732 42.5596786,0.724487805 30.9745357,0.724487805 C25.45875,0.724487805 23.1891071,4.04429268 23.1459286,14.895561 Z" id="path-5"></path>
        <path d="M21.7757778,13.9368228 C21.7338889,24.5527215 22.4535185,32.0492785 16.5278519,32.0492785 C10.6032593,32.0492785 0.713185185,30.4999747 0.495148148,38.2361266 C0.278185185,45.9722785 11.2767037,55.2554304 17.9413333,60.3779241 C19.9305185,62.7059114 20.982037,67.9389873 8.21988889,59.843443 C-4.54118519,51.7478987 2.79366667,72.3392405 9.66022222,77.1173165 C16.5278519,81.8953924 23.2247037,93.3176203 36.6280741,89.7409747 C50.0303704,86.165481 59.6519259,64.6560759 57.5682222,61.3086582 C55.4855926,57.9600886 49.8928889,60.1682785 46.9982593,61.6968481 C44.1025556,63.2242658 42.063963,53.8685443 46.0777778,48.6366203 C50.0905185,43.4046962 57.3201111,44.3688354 57.4447037,27.1226076 C56.5736296,25.7011646 54.1451481,26.3819367 51.4051852,27.0627089 C46.8715185,28.1904177 41.483963,29.3158228 40.8857037,20.9219367 C39.9254815,7.45278481 40.1166667,0.0679620253 29.1729259,0.0679620253 C23.9604444,0.0679620253 21.8187407,3.31977215 21.7757778,13.9368228 Z" id="path-7"></path>
        <path d="M1.45444444,0.147888889 C0.856666667,0.147888889 0.352222222,0.691777778 0.352222222,1.36277778 L0.352222222,9.00411111 C0.352222222,9.67755556 0.846666667,10.219 1.45444444,10.219 L28.2455556,10.219 C28.8433333,10.219 29.3466667,9.67511111 29.3466667,9.00411111 L29.3466667,1.36277778 C29.3466667,0.689333333 28.8533333,0.147888889 28.2455556,0.147888889 L1.45444444,0.147888889 Z" id="path-9"></path>
        <polygon id="path-11" points="0 874.947115 1381.84947 874.947115 1381.84947 0.882984687 0 0.882984687"></polygon>
        <polygon id="path-13" points="0 874.947115 1381.84947 874.947115 1381.84947 0.882984687 0 0.882984687"></polygon>
        <path d="M0.651277778,4.04915789 L3.65855556,20.6082105 L14.9836111,21.4766316 C16.1373333,21.5657895 17.2235,20.6151579 17.3997778,19.3542105 C17.3997778,19.3542105 18.3846111,12.6372632 18.3846111,10.1836842 C13.9618333,9.75410526 11.2152778,0.881157895 11.2152778,0.881157895 L0.651277778,4.04915789 Z" id="path-15"></path>
        <path d="M11.8616842,0.672 C11.8616842,0.672 4.93389474,3.00533333 2.27242105,9.324 C-0.389052632,15.6403333 0.158052632,18.8393333 6.95431579,24.5968333 C13.7505789,30.3543333 15.2548421,24.5968333 15.2548421,24.5968333 C15.2548421,24.5968333 10.2181579,21.2613333 11.8616842,16.8851667 C12.4552105,15.3055 13.4488421,16.345 14.5518947,17.3845 C16.506,19.2255 18.8038421,21.0688333 19.8350526,8.34866667 C20.916,1.49216667 17.5449474,0.203 14.8558421,0.203 C13.2344211,0.203 11.8616842,0.672 11.8616842,0.672 Z" id="path-17"></path>
        <path d="M43.7606667,23.6794074 L28.86728,19.3795926 C28.86728,19.3795926 21.3254667,19.8457407 17.7819733,23.4509259 C14.2362933,27.0561111 0.779546667,28.1950741 1.02117333,39.8947037 C1.26389333,51.5943333 -0.76096,73.7983704 5.61098667,73.9671481 C11.98184,74.1359259 12.5700533,75.7502222 12.5700533,75.7502222 L11.6363467,92.7921852 C11.6363467,92.7921852 50.9788533,89.8414444 50.3797067,82.7952593 C49.78056,75.7502222 40.8086667,48.4013333 48.8960533,42.3287778 C56.98344,36.2550741 81.1778133,24.8424815 81.0641067,4.80959259 C78.4160533,2.64762963 75.0846667,0.873740741 75.0846667,0.873740741 C75.0846667,0.873740741 58.65296,27.9803704 43.7606667,23.6794074 Z" id="path-19"></path>
        <path d="M0.00940225564,8.49921429 C0.00940225564,8.49921429 0.188962406,45.2334388 1.53233835,55.6674898 C2.87349749,66.1015408 3.50306642,111.269255 5.6899317,111.863082 C7.87679699,112.455755 16.4070125,110.98099 16.4070125,110.98099 C16.4070125,110.98099 15.0525526,41.0904898 24.3907888,29.286602 C34.5547801,41.0904898 40.550094,41.8445918 40.4181949,45.1654082 C40.2851873,48.4862245 20.6000746,79.4320816 20.6000746,79.4320816 C20.6000746,79.4320816 30.0413916,88.0915714 32.6572061,86.0218265 C35.2719123,83.9520816 67.4475395,50.2215816 58.3653427,34.6056735 C49.2853628,18.9909184 37.5795927,0.633030612 37.5795927,0.633030612 C28.2014543,4.97776531 10.1844774,8.49921429 0.00940225564,8.49921429 Z" id="path-21"></path>
        <polygon id="path-23" points="1.52678571 1.37133333 0.996428571 9.24 10.3167857 10.4194444 14.1032143 7.28811111 8.58964286 0.836"></polygon>
        <polygon id="path-25" points="9.87275 3.851 0.988125 2.838 1.2569375 6.451 10.8300625 6.349 16.29025 2.779 13.6244375 0.804"></polygon>
        <path d="M0.00892307692,4.84663636 C2.54976923,9.27727273 10.846,12.6891818 10.846,12.6891818 L27.7630385,12.4185455 C27.7630385,12.4185455 30.4087308,6.864 24.9121154,7.76690909 C19.4166154,8.66863636 13.8720385,6.33927273 13.8720385,6.33927273 L5.0895,0.700818182 C5.0895,0.700818182 2.54976923,0.700818182 0.00892307692,4.84663636 Z" id="path-27"></path>
        <path d="M0.553931034,5.70411111 C0.553931034,5.70411111 6.95834483,8.05077778 8.13131034,9.10677778 C9.61434483,6.96055556 8.88275862,6.96055556 9.61434483,5.99744444 C10.3812414,5.99744444 14.9693793,9.74355556 18.9616552,10.3155556 C25.2733793,11.2187778 31.7373793,9.10677778 31.7373793,9.10677778 L31.7373793,6.96055556 L18.9616552,8.06911111 L3.00027586,0.869 L0.553931034,5.70411111 Z" id="path-29"></path>
        <path d="M0.12675,4.50115385 L0.333666667,10.0142308 C0.333666667,10.0142308 5.434,16.0015385 7.95275,14.0515385 C10.4715,12.1026923 13.5579167,3.42692308 11.3685,2.43230769 C9.18125,1.43653846 3.30308333,0.601153846 3.30308333,0.601153846 L0.12675,4.50115385 Z" id="path-31"></path>
        <polygon id="path-33" points="0 874.947115 1381.84947 874.947115 1381.84947 0.882984687 0 0.882984687"></polygon>
        <path d="M0.0144444444,4.005 C0.0144444444,6.092 1.87777778,7.783 4.17666667,7.783 C6.47444444,7.783 8.33777778,6.092 8.33777778,4.005 C8.33777778,1.92 6.47444444,0.229 4.17666667,0.229 C1.87777778,0.229 0.0144444444,1.92 0.0144444444,4.005 Z" id="path-35"></path>
        <path d="M3.4705,0.5175 C3.1141,0.5175 2.7676,0.583875 2.4497,0.73575 C0.8602,1.494 0.6061,4.089375 1.1583,5.30325 C1.7105,6.514875 8.525,18.018 10.1134,17.25975 C11.704,16.5015 7.4679,3.769875 6.9157,2.557125 C6.4724,1.587375 4.8983,0.5175 3.4716,0.5175 C3.4716,0.5175 3.4705,0.5175 3.4705,0.5175 Z" id="path-37"></path>
        <path d="M8.631,2.5104 C0.435375,6.708 0.435375,11.1264 0.435375,11.1264 C0.435375,11.1264 25.817625,7.7748 26.305875,4.5396 C26.622,2.4408 22.545,0.4464 17.404875,0.4464 C14.616,0.4464 11.51325,1.0332 8.631,2.5104 Z" id="path-39"></path>
        <path d="M2.19908333,0.3115 C-5.76341667,3.066 11.1116667,27.4598333 11.1116667,27.4598333 C11.1116667,27.4598333 10.24175,0.134166667 3.21091667,0.131833333 C2.887,0.131833333 2.55008333,0.189 2.19908333,0.3115 Z" id="path-41"></path>
        <path d="M5.57273684,4.42511328 C3.39757895,8.55578125 0.223263158,16.313625 0.223263158,16.313625 C0.223263158,16.313625 20.9745789,5.37791016 20.6175789,1.88394531 C20.4882632,0.619570313 18.7651579,0.0630195313 16.5159474,0.0630195313 C12.5535789,0.0630195313 6.95984211,1.79024609 5.57273684,4.42511328 Z" id="path-43"></path>
        <path d="M1.9156875,1.0173913 C-4.668625,6.57234783 16.12875,25.3782609 16.12875,25.3782609 C16.12875,25.3782609 9.7420625,0.328956522 3.6114375,0.328956522 C3.0419375,0.328956522 2.475625,0.544869565 1.9156875,1.0173913 Z" id="path-45"></path>
        <path d="M0.638571429,1.92666667 C-3.47035714,8.90573333 13.9832143,16.0196667 13.9832143,16.0196667 C13.9832143,16.0196667 7.185,0.51 2.65821429,0.51 C1.90928571,0.51 1.22142857,0.935 0.638571429,1.92666667 Z" id="path-47"></path>
        <path d="M0.748,5.5187 C0.748,8.54491 2.9601,10.99879 5.6892,10.99879 C8.4172,10.99879 10.6315,8.54491 10.6315,5.5187 C10.6315,2.49128 8.4172,0.0374 5.6892,0.0374 C2.9601,0.0374 0.748,2.49128 0.748,5.5187 Z" id="path-49"></path>
        <path d="M4.37563636,3.00010526 C3.71781818,4.49610526 -1.32109091,20.2133684 0.570545455,21.1489474 C2.46,22.0845263 10.5654545,7.88526316 11.2232727,6.38926316 C11.88,4.89210526 11.5778182,1.68705263 9.68618182,0.750315789 C9.30872727,0.563894737 8.89636364,0.481684211 8.472,0.481684211 C6.77563636,0.481684211 4.90145455,1.80168421 4.37563636,3.00010526 Z" id="path-51"></path>
        <path d="M0.782344828,4.95063636 C1.35724138,8.77263636 31.2143448,12.7317273 31.2143448,12.7317273 C31.2143448,12.7317273 31.2143448,7.51281818 21.5735172,2.55390909 C18.1815172,0.809545455 14.5335172,0.115818182 11.2518621,0.115818182 C5.20496552,0.115818182 0.40937931,2.47236364 0.782344828,4.95063636 Z" id="path-53"></path>
        <path d="M0.146461538,33.6271724 C0.146461538,33.6271724 20.2655385,4.22655172 10.7713846,0.905103448 C10.3535385,0.758551724 9.95184615,0.68937931 9.56630769,0.68937931 C1.18246154,0.691724138 0.146461538,33.6271724 0.146461538,33.6271724 Z" id="path-55"></path>
        <path d="M0.192391304,2.41333333 C-0.229347826,6.53666667 24.2478261,19.4455556 24.2478261,19.4455556 C24.2478261,19.4455556 20.5021739,10.2877778 17.9380435,5.41222222 C16.3021739,2.30222222 9.70434783,0.262222222 5.03152174,0.262222222 C2.37826087,0.262222222 0.345652174,0.921111111 0.192391304,2.41333333 Z" id="path-57"></path>
        <path d="M0.143555556,32.2480714 C0.143555556,32.2480714 24.9216667,8.73321429 17.0767778,1.78671429 C16.4096667,1.19625 15.7341111,0.926357143 15.0564444,0.926357143 C7.75305556,0.926357143 0.143555556,32.2480714 0.143555556,32.2480714 Z" id="path-59"></path>
        <path d="M0.731647059,18.7485294 C0.731647059,18.7485294 21.4189412,10.3348824 16.5494118,2.08105882 C15.858,0.908647059 15.0437647,0.405705882 14.1543529,0.405705882 C8.78929412,0.405705882 0.731647059,18.7485294 0.731647059,18.7485294 Z" id="path-61"></path>
        <path d="M19.7415833,10.0733529 L0.585,2.48676471 C0.585,2.48676471 0.4225,8.31641176 2.03775,9.40164706 C2.99325,10.0454118 4.87933333,9.74923529 6.4285,9.45305882 C7.4945,9.25188235 8.40125,9.04847059 8.73708333,9.15017647 C9.55716667,9.40164706 17.7363333,18.4970588 20.7989167,18.0745882 C23.8636667,17.6521176 38.1615,7.80117647 38.1615,7.80117647 L31.655,0.0871764706 L19.7415833,10.0733529 Z" id="path-63"></path>
        <path d="M0.300631579,10.0487692 C0.300631579,12.3451538 2.67473684,10.7534231 2.61505263,15.2317308 C2.55426316,19.7088462 0.285157895,21.6332308 5.59263158,22.2901923 C10.9001053,22.9459615 8.87636842,30.0723846 8.87636842,30.0723846 L20.6441053,21.7095385 L20.6717368,1.78607692 L6.28784211,0.345769231 C6.28784211,0.345769231 4.81452632,7.62123077 0.300631579,10.0487692 Z" id="path-65"></path>
        <path d="M0.9823,4.56892308 C3.6817,10.7856154 4.4847,15.0421538 4.752,18.9934615 C5.0182,22.9447692 13.871,31.2158077 16.0611,29.7647692 C18.2501,28.3137308 21.4665,11.6106923 21.4665,11.6106923 L6.38,0.593769231 C6.38,0.593769231 4.9588,0.200307692 3.5046,0.200307692 C1.4905,0.200307692 -0.5863,0.956230769 0.9823,4.56892308 Z" id="path-67"></path>
        <path d="M16.7766102,15.165 C16.7766102,15.165 11.2461017,36.6611538 11.3540678,44.2753846 C11.4598305,51.8907692 4.34838983,95.2119231 0.759067797,98.6019231 C-2.83135593,101.993077 8.66483051,107.919231 11.8916949,103.26 C15.1174576,98.6019231 30.600678,49.3926923 28.4457627,42.8353846 C30.600678,49.3926923 32.5539831,60.5965385 35.5021186,64.0176923 C38.4491525,67.4376923 48.4205932,98.7646154 48.4205932,98.7646154 C48.4205932,98.7646154 50.7837288,99.7615385 54.7134746,100.010769 C58.644322,100.26 64.0448305,94.665 64.2585593,92.4242308 C64.4711864,90.1846154 45.9858475,39.4384615 42.990339,36.1546154 C39.9937288,32.8684615 44.8059322,18.9796154 45.6057627,15.8515385 C46.4055932,12.7211538 49.8428814,11.7715385 49.8428814,11.7715385 C49.8428814,11.7715385 32.3083051,0.229615385 31.0622881,0.229615385 C29.8162712,0.229615385 16.7766102,15.165 16.7766102,15.165 Z" id="path-69"></path>
        <path d="M1.3013,0.19465368 C0.3773,1.86180519 -0.5324,10.5090087 4.2592,15.4761126 C9.0497,20.4432165 10.0716,23.4397381 12.0164,22.905013 C13.9612,22.3702879 22.4741,8.96093939 21.3147,7.19302597 C20.1564,5.42396753 10.3785,3.2163658 10.3785,3.2163658 C10.3785,3.2163658 8.5426,0.151142857 2.5729,0.151142857 C2.1681,0.151142857 1.7446,0.164883117 1.3013,0.19465368 Z" id="path-71"></path>
        <path d="M1.157,11.0982432 C0.07475,15.7560135 -0.885083333,69.5621622 2.49816667,74.440473 C5.88141667,79.3187838 4.1665,84.83 4.1665,84.83 C4.1665,84.83 19.1685,74.440473 27.7203333,78.4458108 C36.2721667,82.4488514 38.1875,82.5143243 38.1875,82.5143243 C38.1875,82.5143243 27.06275,9.74743243 15.0995,1.25432432 C15.0995,1.00277027 14.9120833,0.886756757 14.5795,0.885608108 C12.1625833,0.885608108 2.11033333,7.00445946 1.157,11.0982432 Z" id="path-73"></path>
        <path d="M13.7927872,6.51948387 C10.6752766,5.18980645 11.5032128,4.536 6.40321277,5.22580645 C1.30212766,5.9156129 -1.04278723,12.8009032 0.838787234,15.4939355 C2.03565957,17.2103226 5.99738298,16.7794839 9.38725532,16.3474839 C11.3154894,16.1036129 13.0603404,15.8574194 14.0065532,16.0072258 C16.6151489,16.4206452 34.2850213,30.8624516 37.7779787,33.2698065 C41.2720213,35.6771613 49.8736596,37.0637419 50.3652128,33.884129 C50.8578511,30.7045161 49.3723404,26.5540645 43.748234,21.3375484 C21.8106383,16.0072258 18.8743404,3.28180645 14.595766,0.710709677 C13.9457872,0.320516129 13.4401277,0.152129032 13.0570851,0.152129032 C10.9161702,0.153290323 12.546,5.39187097 13.7927872,6.51948387 Z" id="path-75"></path>
        <path d="M0.39921875,7.17409 L0.53703125,9.80463 C0.53703125,9.80463 17.0985938,12.83689 22.229375,8.82937 C27.3579688,4.82306 28.0415625,8.07917 28.0415625,8.07917 L34.3284375,4.27251 L33.6678125,0.8591 L0.39921875,7.17409 Z" id="path-77"></path>
        <polygon id="path-79" points="0.766333333 2.635 1.90844444 7.163 18.9018333 5.882 18.5503333 0.227"></polygon>
        <polygon id="path-81" points="0.7129375 5.43783333 13.0081875 13.7386667 16.388 8.27283333 2.836875 0.579833333"></polygon>
        <path d="M19.2626452,2.40457143 C19.2626452,2.40457143 16.9802581,2.304 15.6685161,5.01028571 C14.357871,7.71428571 0.400322581,11.944 0.400322581,14.2411429 C0.400322581,16.5382857 20.8123871,13.6308571 20.8123871,13.6308571 C20.8123871,13.6308571 32.4831613,10.2274286 33.5985806,8.53257143 C34.7150968,6.83771429 31.3677419,0.396571429 31.3677419,0.396571429 L19.2626452,2.40457143 Z" id="path-83"></path>
        <path d="M0.8657,4.0572 C0.8657,6.4128 19.2225,7.8948 19.2225,7.8948 L19.1972,10.0368 L32.4764,11.2452 L32.2839,5.0712 L12.1165,0.762 C12.1165,0.762 0.8657,1.7028 0.8657,4.0572 Z" id="path-85"></path>
        <path d="M15.2616129,3.1872 C15.2616129,3.1872 -0.724967742,2.2284 1.02548387,6.5988 C2.77483871,10.968 32.6750968,11.874 32.6750968,11.874 L33.8486452,6.018 L18.2547097,0.0804 L15.2616129,3.1872 Z" id="path-87"></path>
        <polygon id="path-89" points="0 76.5517 136.194 76.5517 136.194 -0.0003 0 -0.0003"></polygon>
    </defs>
    <g id="Home-Copy-白底" stroke="none" stroke-width="1" fill="none" fill-rule="evenodd" transform="translate(-532.000000, -150.000000)">
        <g id="插画" transform="translate(295.000000, -167.000000)">
            <g id="Group-14">
                <g id="Group-6" transform="translate(249.785320, 701.565207)">
                    <path d="M7.18727261,15.1303847 C10.9209632,15.1303847 13.946747,11.9371722 13.946747,7.99761371 C13.946747,4.05920347 10.9209632,0.865990964 7.18727261,0.865990964 C3.45467277,0.865990964 0.427798264,4.05920347 0.427798264,7.99761371 C0.427798264,11.9371722 3.45467277,15.1303847 7.18727261,15.1303847" id="Fill-1" fill="#5063CF"></path>
                    <g id="Group-5">
                        <mask id="mask-2" fill="white">
                            <use xlink:href="#path-1"></use>
                        </mask>
                        <g id="Clip-4"></g>
                        <polygon id="Fill-3" fill="#5063CF" mask="url(#mask-2)" points="-5.02624783 20.8712778 19.4014475 20.8712778 19.4014475 -4.87536149 -5.02624783 -4.87536149"></polygon>
                    </g>
                </g>
                <path d="M289.415451,775.029647 L238.125472,775.029647 C237.523369,775.029647 237.034706,774.516391 237.034706,773.881423 C237.034706,773.246455 237.523369,772.733198 238.125472,772.733198 L288.678094,772.733198 C289.46999,770.813367 291.886035,765.944895 296.30909,765.080282 C299.038185,764.540616 301.946166,765.639467 304.995947,768.332054 C304.094975,764.267339 304.441838,760.41849 306.070351,757.631749 C307.335639,755.466197 310.009106,752.867765 315.558921,752.791982 L315.574192,752.791982 C316.16975,752.791982 316.656231,753.296053 316.663866,753.92528 C316.672593,754.5591 316.190474,755.080394 315.588372,755.088432 C311.928853,755.137805 309.351374,756.398556 307.929016,758.835088 C306.057262,762.037487 306.345224,767.327357 308.66201,772.312948 C308.903069,772.833094 308.739454,773.461173 308.279151,773.778083 C307.818848,774.092696 307.206929,774.001987 306.850248,773.561068 C303.056566,768.860237 299.645742,766.757838 296.713764,767.336543 C292.541585,768.147189 290.464768,774.200629 290.444043,774.262633 C290.290245,774.720775 289.877936,775.029647 289.415451,775.029647" id="Fill-7" fill="#5063CF"></path>
                <mask id="mask-4" fill="white">
                    <use xlink:href="#path-3"></use>
                </mask>
                <g id="Clip-12"></g>
                <polygon id="Fill-11" fill="#5298EF" mask="url(#mask-4)" points="330.351448 772.054712 1159.54818 772.054712 1159.54818 769.758263 330.351448 769.758263"></polygon>
                <path d="M1102.73881,578.281828 C1097.30462,578.281828 1095.06964,581.607087 1095.02601,592.47618 C1094.98129,603.344126 1095.73064,611.018859 1089.55255,611.018859 C1083.37336,611.018859 1073.05908,609.432012 1072.8322,617.351317 C1072.60532,625.27177 1084.07581,634.774477 1091.02617,640.016122 C1093.10081,642.399836 1094.19812,647.757452 1080.8886,639.470715 C1067.57907,631.183978 1075.22861,652.261937 1082.39058,657.152225 C1089.55255,662.042514 1096.53563,673.736032 1110.51379,670.075493 C1124.49086,666.414953 1134.5259,644.396598 1132.35201,640.970296 C1130.1792,637.541698 1124.34906,639.802552 1121.32873,641.366434 C1118.30949,642.931464 1116.18359,633.354123 1120.36886,627.998804 C1124.55412,622.643484 1132.09459,623.629809 1132.2233,605.97356 C1129.8138,602.112081 1115.95671,613.415203 1114.9543,599.628471 C1113.95297,585.840591 1114.15258,578.281828 1102.73881,578.281828" id="Fill-13" fill="#FDD57E" mask="url(#mask-4)"></path>
            </g>
            <g id="Group-17" transform="translate(1072.000000, 578.000000)">
                <mask id="mask-6" fill="white">
                    <use xlink:href="#path-5"></use>
                </mask>
                <g id="Clip-16"></g>
                <polygon id="Fill-15" fill="#FDD57E" mask="url(#mask-6)" points="-4.42525 98.2827317 66.3732143 98.2827317 66.3732143 -4.49595122 -4.42525 -4.49595122"></polygon>
            </g>
            <g id="Group-23" transform="translate(425.000000, 536.000000)">
                <polygon id="Fill-18" fill="#747474" points="677.989652 234.811078 681.619872 234.811078 681.619872 64.9256618 677.989652 64.9256618"></polygon>
                <polygon id="Fill-20" fill="#747474" points="680.753919 127.876056 663.149151 114.191914 664.584228 112.132208 680.850972 124.778434 697.206045 113.753017 698.508083 115.908336"></polygon>
                <polygon id="Fill-21" fill="#747474" points="679.937147 94.9911471 662.332379 81.3058529 663.767456 79.2461471 680.0342 91.8923725 696.389273 80.8681078 697.691311 83.0222745"></polygon>
                <path d="M29.6186256,0.0685416667 C24.3265086,0.0685416667 22.1509938,3.319375 22.1084649,13.9369975 C22.065936,24.5534681 22.7965601,32.0515809 16.7803619,32.0515809 C10.7652543,32.0515809 0.724081123,30.5010417 0.503803432,38.2376103 C0.282435257,45.9753309 11.4489875,55.2589828 18.2143479,60.3806005 C20.235014,62.7087132 21.303688,67.9420711 8.34656162,59.8472426 C-4.61056474,51.7512623 2.83634789,72.3437132 9.80780967,77.1208946 C16.7803619,81.9003799 23.5795273,93.323223 37.1865819,89.7463848 C50.794727,86.1706985 60.5632793,64.6601348 58.447741,61.3125368 C56.3332933,57.9626348 50.6562356,60.1709436 47.7162917,61.6995956 C44.7763479,63.2282475 42.70661,53.8720221 46.7817473,48.6398162 C50.8557941,43.4076103 58.1969298,44.3706495 58.3223354,27.1234926 C55.9767051,23.3496691 42.4863323,34.3912132 41.5103495,20.9224877 C40.5354571,7.45376225 40.7295632,0.0685416667 29.6186256,0.0685416667" id="Fill-22" fill="#FDD57E"></path>
            </g>
            <g id="Group-26" transform="translate(425.000000, 536.000000)">
                <mask id="mask-8" fill="white">
                    <use xlink:href="#path-7"></use>
                </mask>
                <g id="Clip-25"></g>
                <polygon id="Fill-24" fill="#FDD57E" mask="url(#mask-8)" points="-4.26944444 95.5304177 62.6142222 95.5304177 62.6142222 -5.03840506 -4.26944444 -5.03840506"></polygon>
            </g>
            <g id="Group-66" transform="translate(409.000000, 317.000000)">
                <polygon id="Fill-27" fill="#747474" points="44.5985859 359.457684 48.1318594 359.457684 48.1318594 241.366 44.5985859 241.366"></polygon>
                <polygon id="Fill-29" fill="#747474" points="47.2899551 302.447359 30.1565215 289.169951 31.5537012 287.170362 47.3836816 299.441089 63.3008496 288.744091 64.5683379 290.83551"></polygon>
                <polygon id="Fill-30" fill="#747474" points="46.4949141 270.53796 29.3625703 257.260551 30.7586602 255.259815 46.5886406 267.531689 62.5058086 256.834692 63.7732969 258.924962"></polygon>
                <polygon id="Fill-31" fill="#37538A" points="0.368367187 454.928301 213.672586 454.928301 213.672586 315.875368 0.368367187 315.875368"></polygon>
                <polygon id="Fill-32" fill="#FAFAFF" points="10.0363711 445.218471 204.004582 445.218471 204.004582 325.585198 10.0363711 325.585198"></polygon>
                <polygon id="Fill-33" fill="#303F9F" points="22.466148 445.218127 10.0375699 445.218127 10.0375699 401.009074 22.466148 390.640367"></polygon>
                <polygon id="Fill-34" fill="#728AED" points="34.8950531 445.218127 22.466475 445.218127 22.466475 390.640367 34.8950531 384.418914"></polygon>
                <polygon id="Fill-35" fill="#303F9F" points="47.3245031 445.218127 34.8948352 445.218127 34.8948352 384.418914 47.3245031 383.382387"></polygon>
                <polygon id="Fill-36" fill="#728AED" points="59.7534082 445.218127 47.3248301 445.218127 47.3248301 383.382387 59.7534082 379.235134"></polygon>
                <polygon id="Fill-37" fill="#303F9F" points="71.9216227 445.218127 59.4919547 445.218127 59.4919547 379.235134 71.9216227 369.902954"></polygon>
                <polygon id="Fill-38" fill="#728AED" points="84.3505277 445.218127 71.9219496 445.218127 71.9219496 369.902954 84.3505277 363.6815"></polygon>
                <polygon id="Fill-39" fill="#303F9F" points="96.7793238 445.218127 84.3507457 445.218127 84.3507457 363.6815 96.7793238 360.570773"></polygon>
                <polygon id="Fill-40" fill="#728AED" points="109.208774 445.218127 96.7791059 445.218127 96.7791059 360.570773 109.208774 352.275119"></polygon>
                <polygon id="Fill-41" fill="#303F9F" points="121.637679 445.218127 109.209101 445.218127 109.209101 352.275119 121.637679 348.127866"></polygon>
                <polygon id="Fill-42" fill="#728AED" points="134.066584 445.218127 121.638006 445.218127 121.638006 348.127866 134.066584 345.017139"></polygon>
                <polygon id="Fill-43" fill="#303F9F" points="146.496034 445.218127 134.066366 445.218127 134.066366 345.017139 146.496034 333.611906"></polygon>
                <polygon id="Fill-44" fill="#728AED" points="158.924939 445.218127 146.496361 445.218127 146.496361 333.611906 158.924939 349.164392"></polygon>
                <polygon id="Fill-45" fill="#303F9F" points="171.353844 445.218127 158.925266 445.218127 158.925266 349.164392 171.353844 359.534247"></polygon>
                <polygon id="Fill-46" fill="#9596CC" points="183.783294 445.218127 171.353626 445.218127 171.353626 359.534247 183.783294 380.271661"></polygon>
                <polygon id="Fill-47" fill="#6F7CC4" points="196.212199 445.218127 183.783621 445.218127 183.783621 380.271661 196.212199 390.640367"></polygon>
                <polygon id="Fill-48" fill="#9596CC" points="208.641104 445.218127 196.212526 445.218127 196.212526 390.640367 208.641104 401.009074"></polygon>
                <path d="M557.086166,457.461305 L166.7401,457.461305 L166.7401,13.0589689 C166.7401,6.20618697 172.013854,0.651645614 178.520221,0.651645614 L545.306045,0.651645614 C551.812412,0.651645614 557.086166,6.20618697 557.086166,13.0589689 L557.086166,457.461305 Z" id="Fill-49" fill="#5063CF"></path>
                <path d="M207.100501,27.6558536 C207.100501,31.3669163 204.244021,34.3766306 200.719466,34.3766306 C197.196001,34.3766306 194.338431,31.3669163 194.338431,27.6558536 C194.338431,23.9436431 197.196001,20.9350767 200.719466,20.9350767 C204.244021,20.9350767 207.100501,23.9436431 207.100501,27.6558536" id="Fill-50" fill="#303F9F"></path>
                <path d="M225.154744,27.6558536 C225.154744,31.3669163 222.298263,34.3766306 218.773709,34.3766306 C215.250244,34.3766306 212.392673,31.3669163 212.392673,27.6558536 C212.392673,23.9436431 215.250244,20.9350767 218.773709,20.9350767 C222.298263,20.9350767 225.154744,23.9436431 225.154744,27.6558536" id="Fill-51" fill="#303F9F"></path>
                <path d="M243.208986,27.6558536 C243.208986,31.3669163 240.352506,34.3766306 236.827951,34.3766306 C233.304486,34.3766306 230.446916,31.3669163 230.446916,27.6558536 C230.446916,23.9436431 233.304486,20.9350767 236.827951,20.9350767 C240.352506,20.9350767 243.208986,23.9436431 243.208986,27.6558536" id="Fill-52" fill="#303F9F"></path>
                <polygon id="Fill-53" fill="#303F9F" points="252.152789 34.376401 481.69677 34.376401 481.69677 20.9348471 252.152789 20.9348471"></polygon>
                <polygon id="Fill-54" fill="#303F9F" points="494.167852 24.5896642 513.249926 24.5896642 513.249926 20.9348471 494.167852 20.9348471"></polygon>
                <polygon id="Fill-55" fill="#303F9F" points="494.167852 29.4830326 513.249926 29.4830326 513.249926 25.8282155 494.167852 25.8282155"></polygon>
                <polygon id="Fill-56" fill="#303F9F" points="494.167852 34.376401 513.249926 34.376401 513.249926 30.721584 494.167852 30.721584"></polygon>
                <polygon id="Fill-57" fill="#F5F7FF" points="177.44182 457.461649 543.457125 457.461649 543.457125 61.0701103 177.44182 61.0701103"></polygon>
                <polygon id="Fill-58" fill="#5063CF" points="194.338758 206.988451 526.560187 206.988451 526.560187 85.8698346 194.338758 85.8698346"></polygon>
                <polygon id="Fill-59" fill="#728AED" points="194.338758 206.988451 260.93148 206.988451 260.93148 116.211474 194.338758 116.211474"></polygon>
                <polygon id="Fill-60" fill="#CED8F4" points="194.338758 241.475048 526.560187 241.475048 526.560187 221.085439 194.338758 221.085439"></polygon>
                <polygon id="Fill-61" fill="#CED8F4" points="194.338758 296.401759 526.560187 296.401759 526.560187 276.013298 194.338758 276.013298"></polygon>
                <polygon id="Fill-62" fill="#CED8F4" points="194.338758 351.330767 526.560187 351.330767 526.560187 330.942306 194.338758 330.942306"></polygon>
                <polygon id="Fill-63" fill="#CED8F4" points="194.338758 406.258627 526.560187 406.258627 526.560187 385.869018 194.338758 385.869018"></polygon>
                <polyline id="Stroke-64" stroke="#274785" points="214.455312 116.211588 229.012355 116.211588 229.012355 124.043503 212.664698 128.634982 212.664698 139.092075"></polyline>
                <path d="M194.338431,112.623463 C194.338431,111.993282 194.83213,111.48248 195.418466,111.48248 L221.696779,111.48248 C222.292923,111.48248 222.776814,111.990986 222.776814,112.623463 L222.776814,119.799944 C222.776814,120.430124 222.283114,120.940926 221.696779,120.940926 L195.418466,120.940926 C194.822321,120.940926 194.338431,120.43242 194.338431,119.799944 L194.338431,112.623463 Z" id="Fill-65" fill="#303F9F"></path>
            </g>
            <g id="Group-70" transform="translate(603.000000, 430.000000)">
                <mask id="mask-10" fill="white">
                    <use xlink:href="#path-9"></use>
                </mask>
                <g id="Clip-68"></g>
                <polygon id="Fill-67" fill="#303F9F" mask="url(#mask-10)" points="-344.793333 330.111222 655.206667 330.111222 655.206667 -280.999889 -344.793333 -280.999889"></polygon>
                <polygon id="Fill-69" fill="#303F9F" mask="url(#mask-10)" points="-5.20222222 16.3301111 34.9022222 16.3301111 34.9022222 -5.96322222 -5.20222222 -5.96322222"></polygon>
            </g>
            <g id="Group-109">
                <g id="Group-75">
                    <path d="M1049.26261,628.670285 C1049.26261,623.229997 1044.94209,618.818519 1039.61152,618.818519 L812.598111,618.818519 C807.268631,618.818519 802.948108,623.229997 802.948108,628.670285 L802.948108,634.388444 L1049.26261,634.388444 L1049.26261,628.670285 Z" id="Fill-71" fill="#B7BBC6"></path>
                    <mask id="mask-12" fill="white">
                        <use xlink:href="#path-11"></use>
                    </mask>
                    <g id="Clip-74"></g>
                    <polygon id="Fill-73" fill="#B7BBC6" mask="url(#mask-12)" points="802.947454 770.906488 1049.26196 770.906488 1049.26196 634.388329 802.947454 634.388329"></polygon>
                </g>
                <path d="M1047.34625,628.670285 C1047.34625,623.229997 1043.15552,618.818519 1037.98748,618.818519 L817.839349,618.818519 C812.671302,618.818519 808.48058,623.229997 808.48058,628.670285 L808.48058,634.388444 L1047.34625,634.388444 L1047.34625,628.670285 Z" id="Fill-76" fill="#5063CF"></path>
                <mask id="mask-14" fill="white">
                    <use xlink:href="#path-13"></use>
                </mask>
                <g id="Clip-79"></g>
                <polygon id="Fill-78" fill="#F2F2F4" mask="url(#mask-14)" points="808.479817 770.906488 1047.34548 770.906488 1047.34548 634.388329 808.479817 634.388329"></polygon>
                <path d="M826.183924,627.499556 C826.183924,629.080661 824.96663,630.360931 823.465736,630.360931 C821.963752,630.360931 820.747548,629.080661 820.747548,627.499556 C820.747548,625.919599 821.963752,624.63818 823.465736,624.63818 C824.96663,624.63818 826.183924,625.919599 826.183924,627.499556" id="Fill-80" fill="#F3F7F7" mask="url(#mask-14)"></path>
                <path d="M833.875785,627.499556 C833.875785,629.080661 832.65849,630.360931 831.157597,630.360931 C829.655613,630.360931 828.439409,629.080661 828.439409,627.499556 C828.439409,625.919599 829.655613,624.63818 831.157597,624.63818 C832.65849,624.63818 833.875785,625.919599 833.875785,627.499556" id="Fill-81" fill="#F3F7F7" mask="url(#mask-14)"></path>
                <path d="M841.566555,627.499556 C841.566555,629.080661 840.350351,630.360931 838.848367,630.360931 C837.347474,630.360931 836.130179,629.080661 836.130179,627.499556 C836.130179,625.919599 837.347474,624.63818 838.848367,624.63818 C840.350351,624.63818 841.566555,625.919599 841.566555,627.499556" id="Fill-82" fill="#F3F7F7" mask="url(#mask-14)"></path>
                <path d="M838.302766,656.093103 L825.213579,656.093103 C823.105129,656.093103 821.395899,654.293835 821.395899,652.074317 C821.395899,649.854799 823.105129,648.055531 825.213579,648.055531 L838.302766,648.055531 C840.412307,648.055531 842.120446,649.854799 842.120446,652.074317 C842.120446,654.293835 840.412307,656.093103 838.302766,656.093103" id="Fill-83" fill="#8B9ED8" mask="url(#mask-14)"></path>
                <path d="M928.924662,656.093103 L915.835475,656.093103 C913.727025,656.093103 912.017795,654.293835 912.017795,652.074317 C912.017795,649.854799 913.727025,648.055531 915.835475,648.055531 L928.924662,648.055531 C931.033112,648.055531 932.742341,649.854799 932.742341,652.074317 C932.742341,654.293835 931.033112,656.093103 928.924662,656.093103" id="Fill-84" fill="#EEC060" mask="url(#mask-14)"></path>
                <path d="M901.572515,656.093103 L855.76036,656.093103 C853.65191,656.093103 851.942681,654.293835 851.942681,652.074317 C851.942681,649.854799 853.65191,648.055531 855.76036,648.055531 L901.572515,648.055531 C903.682056,648.055531 905.390194,649.854799 905.390194,652.074317 C905.390194,654.293835 903.682056,656.093103 901.572515,656.093103" id="Fill-85" fill="#92A6EF" mask="url(#mask-14)"></path>
                <path d="M838.302766,733.751893 L825.213579,733.751893 C823.105129,733.751893 821.395899,731.953773 821.395899,729.733107 C821.395899,727.513589 823.105129,725.714321 825.213579,725.714321 L838.302766,725.714321 C840.412307,725.714321 842.120446,727.513589 842.120446,729.733107 C842.120446,731.953773 840.412307,733.751893 838.302766,733.751893" id="Fill-86" fill="#8B9ED8" mask="url(#mask-14)"></path>
                <path d="M928.924662,733.751893 L915.835475,733.751893 C913.727025,733.751893 912.017795,731.953773 912.017795,729.733107 C912.017795,727.513589 913.727025,725.714321 915.835475,725.714321 L928.924662,725.714321 C931.033112,725.714321 932.742341,727.513589 932.742341,729.733107 C932.742341,731.953773 931.033112,733.751893 928.924662,733.751893" id="Fill-87" fill="#EEC060" mask="url(#mask-14)"></path>
                <path d="M901.572515,733.751893 L855.76036,733.751893 C853.65191,733.751893 851.942681,731.953773 851.942681,729.733107 C851.942681,727.513589 853.65191,725.714321 855.76036,725.714321 L901.572515,725.714321 C903.682056,725.714321 905.390194,727.513589 905.390194,729.733107 C905.390194,731.953773 903.682056,733.751893 901.572515,733.751893" id="Fill-88" fill="#92A6EF" mask="url(#mask-14)"></path>
                <path d="M838.302766,716.389475 L825.213579,716.389475 C823.105129,716.389475 821.395899,714.590207 821.395899,712.370689 C821.395899,710.151171 823.105129,708.351903 825.213579,708.351903 L838.302766,708.351903 C840.412307,708.351903 842.120446,710.151171 842.120446,712.370689 C842.120446,714.590207 840.412307,716.389475 838.302766,716.389475" id="Fill-89" fill="#8B9ED8" mask="url(#mask-14)"></path>
                <path d="M901.572515,716.389475 L855.76036,716.389475 C853.65191,716.389475 851.942681,714.590207 851.942681,712.370689 C851.942681,710.151171 853.65191,708.351903 855.76036,708.351903 L901.572515,708.351903 C903.682056,708.351903 905.390194,710.151171 905.390194,712.370689 C905.390194,714.590207 903.682056,716.389475 901.572515,716.389475" id="Fill-90" fill="#5063CF" mask="url(#mask-14)"></path>
                <path d="M838.302766,669.613906 L825.213579,669.613906 C823.105129,669.613906 821.395899,667.814638 821.395899,665.59512 C821.395899,663.374454 823.105129,661.576334 825.213579,661.576334 L838.302766,661.576334 C840.412307,661.576334 842.120446,663.374454 842.120446,665.59512 C842.120446,667.814638 840.412307,669.613906 838.302766,669.613906" id="Fill-91" fill="#8B9ED8" mask="url(#mask-14)"></path>
                <path d="M945.831528,669.613906 L898.928608,669.613906 C896.820158,669.613906 895.110929,667.814638 895.110929,665.59512 C895.110929,663.374454 896.820158,661.576334 898.928608,661.576334 L945.831528,661.576334 C947.939978,661.576334 949.649208,663.374454 949.649208,665.59512 C949.649208,667.814638 947.939978,669.613906 945.831528,669.613906" id="Fill-92" fill="#5063CF" mask="url(#mask-14)"></path>
                <path d="M879.789163,669.613906 L855.760687,669.613906 C853.652238,669.613906 851.943008,667.814638 851.943008,665.59512 C851.943008,663.374454 853.652238,661.576334 855.760687,661.576334 L879.789163,661.576334 C881.898703,661.576334 883.606842,663.374454 883.606842,665.59512 C883.606842,667.814638 881.898703,669.613906 879.789163,669.613906" id="Fill-93" fill="#EEC060" mask="url(#mask-14)"></path>
                <path d="M838.302766,682.313844 L825.213579,682.313844 C823.105129,682.313844 821.395899,680.514576 821.395899,678.295058 C821.395899,676.074392 823.105129,674.276272 825.213579,674.276272 L838.302766,674.276272 C840.412307,674.276272 842.120446,676.074392 842.120446,678.295058 C842.120446,680.514576 840.412307,682.313844 838.302766,682.313844" id="Fill-94" fill="#8B9ED8" mask="url(#mask-14)"></path>
                <path d="M941.097824,682.313844 L855.760687,682.313844 C853.652238,682.313844 851.943008,680.514576 851.943008,678.295058 C851.943008,676.074392 853.652238,674.276272 855.760687,674.276272 L941.097824,674.276272 C943.207365,674.276272 944.915504,676.074392 944.915504,678.295058 C944.915504,680.514576 943.207365,682.313844 941.097824,682.313844" id="Fill-95" fill="#92A6EF" mask="url(#mask-14)"></path>
                <path d="M838.302766,697.623122 L825.213579,697.623122 C823.105129,697.623122 821.395899,695.823854 821.395899,693.604336 C821.395899,691.384818 823.105129,689.58555 825.213579,689.58555 L838.302766,689.58555 C840.412307,689.58555 842.120446,691.384818 842.120446,693.604336 C842.120446,695.823854 840.412307,697.623122 838.302766,697.623122" id="Fill-96" fill="#8B9ED8" mask="url(#mask-14)"></path>
                <path d="M974.185107,697.623122 L855.760687,697.623122 C853.652238,697.623122 851.943008,695.823854 851.943008,693.604336 C851.943008,691.384818 853.652238,689.58555 855.760687,689.58555 L974.185107,689.58555 C976.293557,689.58555 978.002787,691.384818 978.002787,693.604336 C978.002787,695.823854 976.293557,697.623122 974.185107,697.623122" id="Fill-97" fill="#92A6EF" mask="url(#mask-14)"></path>
                <path d="M838.302766,752.791753 L825.213579,752.791753 C823.105129,752.791753 821.395899,750.992485 821.395899,748.772967 C821.395899,746.553449 823.105129,744.754181 825.213579,744.754181 L838.302766,744.754181 C840.412307,744.754181 842.120446,746.553449 842.120446,748.772967 C842.120446,750.992485 840.412307,752.791753 838.302766,752.791753" id="Fill-98" fill="#8B9ED8" mask="url(#mask-14)"></path>
                <path d="M974.185107,752.791753 L855.760687,752.791753 C853.652238,752.791753 851.943008,750.992485 851.943008,748.772967 C851.943008,746.553449 853.652238,744.754181 855.760687,744.754181 L974.185107,744.754181 C976.293557,744.754181 978.002787,746.553449 978.002787,748.772967 C978.002787,750.992485 976.293557,752.791753 974.185107,752.791753" id="Fill-99" fill="#92A6EF" mask="url(#mask-14)"></path>
                <path d="M561.756385,552.296473 C561.756385,559.060664 555.52266,784.637417 555.52266,784.637417" id="Stroke-100" stroke="#274785" stroke-width="2" mask="url(#mask-14)"></path>
                <path d="M595.881205,552.296473 C595.881205,559.060664 602.11493,784.637417 602.11493,784.637417" id="Stroke-101" stroke="#274785" stroke-width="2" mask="url(#mask-14)"></path>
                <path d="M562.067472,586.74321 L597.650427,586.74321" id="Stroke-102" stroke="#274785" mask="url(#mask-14)"></path>
                <path d="M560.431323,613.726487 L596.426588,613.726487" id="Stroke-103" stroke="#274785" stroke-linecap="square" mask="url(#mask-14)"></path>
                <path d="M560.431323,641.283877 L597.517353,641.283877" id="Stroke-104" stroke="#274785" stroke-linecap="square" mask="url(#mask-14)"></path>
                <path d="M559.340558,668.841266 L597.517353,668.841266" id="Stroke-105" stroke="#274785" stroke-linecap="square" mask="url(#mask-14)"></path>
                <path d="M558.245974,695.824543 L598.850814,695.824543" id="Stroke-106" stroke="#274785" stroke-linecap="square" mask="url(#mask-14)"></path>
                <path d="M558.245974,723.381933 L598.850814,723.381933" id="Stroke-107" stroke="#274785" stroke-linecap="square" mask="url(#mask-14)"></path>
                <path d="M557.155209,749.791098 L600.792377,749.791098" id="Stroke-108" stroke="#274785" stroke-linecap="square" mask="url(#mask-14)"></path>
            </g>
            <g id="Group-112" transform="translate(558.000000, 461.000000)">
                <mask id="mask-16" fill="white">
                    <use xlink:href="#path-15"></use>
                </mask>
                <g id="Clip-111"></g>
                <polygon id="Fill-110" fill="#E6CACA" mask="url(#mask-16)" points="-4.6265 27.2718947 23.6623889 27.2718947 23.6623889 -4.90831579 -4.6265 -4.90831579"></polygon>
            </g>
            <g id="Group-115" transform="translate(551.000000, 456.000000)">
                <mask id="mask-18" fill="white">
                    <use xlink:href="#path-17"></use>
                </mask>
                <g id="Clip-114"></g>
                <polygon id="Fill-113" fill="#343434" mask="url(#mask-18)" points="-4.73936842 32.9886667 25.5680526 32.9886667 25.5680526 -5.6315 -4.73936842 -5.6315"></polygon>
            </g>
            <g id="Group-118" transform="translate(542.000000, 461.000000)">
                <mask id="mask-20" fill="white">
                    <use xlink:href="#path-19"></use>
                </mask>
                <g id="Clip-117"></g>
                <polygon id="Fill-116" fill="#FFAE00" mask="url(#mask-20)" points="-4.56685333 98.5329259 86.5318667 98.5329259 86.5318667 -4.86585185 -4.56685333 -4.86585185"></polygon>
            </g>
            <g id="Group-121" transform="translate(554.000000, 545.000000)">
                <mask id="mask-22" fill="white">
                    <use xlink:href="#path-21"></use>
                </mask>
                <g id="Clip-120"></g>
                <polygon id="Fill-119" fill="#002265" mask="url(#mask-22)" points="-5.53257769 117.769061 65.5189305 117.769061 65.5189305 -5.13227551 -5.53257769 -5.13227551"></polygon>
            </g>
            <g id="Group-124" transform="translate(558.000000, 656.000000)">
                <mask id="mask-24" fill="white">
                    <use xlink:href="#path-23"></use>
                </mask>
                <g id="Clip-123"></g>
                <polygon id="Fill-122" fill="#69E9CE" mask="url(#mask-24)" points="-4.36071429 16.5305556 19.4614286 16.5305556 19.4614286 -5.27511111 -4.36071429 -5.27511111"></polygon>
            </g>
            <g id="Group-127" transform="translate(558.000000, 660.000000)">
                <mask id="mask-26" fill="white">
                    <use xlink:href="#path-25"></use>
                </mask>
                <g id="Clip-126"></g>
                <polygon id="Fill-125" fill="#FFAE00" mask="url(#mask-26)" points="-4.324375 11.451 21.60275 11.451 21.60275 -4.195 -4.324375 -4.195"></polygon>
            </g>
            <g id="Group-130" transform="translate(570.000000, 625.000000)">
                <mask id="mask-28" fill="white">
                    <use xlink:href="#path-27"></use>
                </mask>
                <g id="Clip-129"></g>
                <polygon id="Fill-128" fill="#69E9CE" mask="url(#mask-28)" points="-5.568 18.5982727 33.9768462 18.5982727 33.9768462 -5.20827273 -5.568 -5.20827273"></polygon>
            </g>
            <g id="Group-133" transform="translate(567.000000, 631.000000)">
                <mask id="mask-30" fill="white">
                    <use xlink:href="#path-29"></use>
                </mask>
                <g id="Clip-132"></g>
                <polygon id="Fill-131" fill="#FFAE00" mask="url(#mask-30)" points="-4.9622069 16.6515556 37.2557241 16.6515556 37.2557241 -5.24333333 -4.9622069 -5.24333333"></polygon>
            </g>
            <g id="Group-136" transform="translate(617.000000, 453.000000)">
                <mask id="mask-32" fill="white">
                    <use xlink:href="#path-31"></use>
                </mask>
                <g id="Clip-135"></g>
                <polygon id="Fill-134" fill="#E6CACA" mask="url(#mask-32)" points="-5.28991667 20.2119231 17.5305 20.2119231 17.5305 -5.16692308 -5.28991667 -5.16692308"></polygon>
            </g>
            <g id="Group-145" transform="translate(635.000000, 409.000000)">
                <path d="M29.5460418,64.3526472 C26.3547433,64.3526472 23.7681463,61.6288191 23.7681463,58.2707691 L23.7681463,13.3121222 C23.7681463,9.95292531 26.3547433,7.22909719 29.5460418,7.22909719 C32.7373403,7.22909719 35.3239373,9.95292531 35.3239373,13.3121222 L35.3239373,58.2707691 C35.3239373,61.6288191 32.7373403,64.3526472 29.5460418,64.3526472" id="Fill-137" fill="#728AED"></path>
                <path d="M17.9891612,30.8485291 C14.7978627,30.8485291 12.2112657,28.1247009 12.2112657,24.7666509 L12.2112657,13.3116634 C12.2112657,9.95246656 14.7978627,7.22978531 17.9891612,7.22978531 C21.1804597,7.22978531 23.7681463,9.95246656 23.7681463,13.3116634 L23.7681463,24.7666509 C23.7681463,28.1247009 21.1804597,30.8485291 17.9891612,30.8485291" id="Fill-139" fill="#5063CF"></path>
                <path d="M6.43293433,57.6477866 C3.24163582,57.6477866 0.653949254,54.9239584 0.653949254,51.5647616 L0.653949254,6.60726156 C0.653949254,3.24691781 3.24163582,0.524236562 6.43293433,0.524236562 C9.62423284,0.524236562 12.2108299,3.24691781 12.2108299,6.60726156 L12.2108299,51.5647616 C12.2108299,54.9239584 9.62423284,57.6477866 6.43293433,57.6477866" id="Fill-141" fill="#5063CF"></path>
                <path d="M70.369603,360.14272 C66.7348567,366.710873 58.7299164,368.933517 52.4911403,365.106395 C46.2512746,361.28042 44.1397224,352.855476 47.7744687,346.287323 C51.4092149,339.71917 59.4141552,337.497673 65.6529313,341.323648 C71.892797,345.149623 74.0043493,353.574567 70.369603,360.14272" id="Fill-143" fill="#F8CD64"></path>
            </g>
            <text id="PHP" transform="translate(696.500000, 764.500000) rotate(24.000000) translate(-696.500000, -764.500000) " font-family="ArialNarrow-Bold, Arial Narrow" font-size="10" font-weight="bold" fill="#FFFFFF">
                <tspan x="687" y="768">PHP</tspan>
            </text>
            <g id="Group-150" transform="translate(380.000000, 748.000000)">
                <path d="M11.7506369,18.7342445 C8.13109078,18.7342445 5.19744539,15.6219354 5.19744539,11.7833821 C5.19744539,7.94598713 8.13109078,4.83367796 11.7506369,4.83367796 C15.370183,4.83367796 18.3038284,7.94598713 18.3038284,11.7833821 C18.3038284,15.6219354 15.370183,18.7342445 11.7506369,18.7342445 Z M22.8320837,13.5984132 L22.8320837,9.96950932 L20.6291191,9.96950932 C20.3953887,8.66991464 19.9170057,7.46298269 19.242027,6.40546938 L20.7962255,4.7583895 L18.3759135,2.19047382 L16.8217149,3.83987027 C15.8256298,3.12289246 14.6875589,2.61672234 13.4621121,2.36769127 L13.4621121,0.0325906805 L10.0391617,0.0325906805 L10.0391617,2.36769127 C8.81371489,2.61672234 7.67564397,3.12289246 6.67955887,3.83987027 L5.12536028,2.19047382 L2.70504823,4.7583895 L4.25924681,6.40546938 C3.58426809,7.46298269 3.10588511,8.66991464 2.87215461,9.96950932 L0.669190071,9.96950932 L0.669190071,13.5984132 L2.87215461,13.5984132 C3.10588511,14.8980078 3.58426809,16.1049398 4.25924681,17.1612948 L2.70504823,18.809533 L5.12536028,21.3762904 L6.67955887,19.7280522 C7.67564397,20.44503 8.81371489,20.9512001 10.0391617,21.2002312 L10.0391617,23.5364901 L13.4621121,23.5364901 L13.4621121,21.2002312 C14.6875589,20.9512001 15.8256298,20.44503 16.8217149,19.7280522 L18.3759135,21.3762904 L20.7962255,18.809533 L19.242027,17.1612948 C19.9170057,16.1049398 20.3953887,14.8980078 20.6291191,13.5984132 L22.8320837,13.5984132 Z" id="Fill-146" fill="#FBC366"></path>
                <path d="M304.547779,24.4363609 C299.674389,30.1119527 291.384601,30.5231435 286.032828,25.3548802 C280.681055,20.1866169 280.292233,11.3952411 285.166715,5.71964941 C290.040105,0.0440576923 298.329892,-0.367133136 303.681665,4.80113018 C309.033438,9.96939349 309.421169,18.7607692 304.547779,24.4363609" id="Fill-148" fill="#5063CF"></path>
            </g>
            <text id="&amp;" transform="translate(673.500000, 761.500000) rotate(29.000000) translate(-673.500000, -761.500000) " font-family="Arial-Black, Arial Black" font-size="12" font-weight="700" fill="#FFFFFF">
                <tspan x="673" y="766">&amp;</tspan>
            </text>
            <path d="M745.697972,757.009196 C748.888879,763.995908 746.012901,772.341471 739.276793,775.64937 C732.53956,778.958436 724.491997,775.978294 721.302215,768.990416 C718.111308,762.00487 720.986161,753.659307 727.723394,750.350242 C734.459503,747.041176 742.507066,750.023651 745.697972,757.009196" id="Fill-151" fill="#5063CF"></path>
            <text id="HTML" transform="translate(737.500000, 761.500000) rotate(-20.000000) translate(-737.500000, -761.500000) " font-family="ArialNarrow-Bold, Arial Narrow" font-size="8" font-weight="bold" fill="#FFFFFF">
                <tspan x="724" y="764">HTML</tspan>
            </text>
            <path d="M657.740268,776.09654 C650.764877,773.369647 647.242316,765.296272 649.87074,758.063825 C652.50029,750.830211 660.285465,747.177248 667.259732,749.902974 C674.235123,752.629867 677.757684,760.703242 675.12926,767.936856 C672.500835,775.169303 664.714535,778.823432 657.740268,776.09654 Z" id="Fill-153" fill="#F8CD64"></path>
            <text id="#" transform="translate(660.500000, 762.500000) rotate(20.000000) translate(-660.500000, -762.500000) " font-family="Arial-Black, Arial Black" font-size="14" font-weight="700" fill="#FFFFFF">
                <tspan x="658" y="768">#</tspan>
            </text>
            <path d="M657,763 C657,770.7315 650.955375,777 643.5,777 C636.044625,777 630,770.7315 630,763 C630,755.267333 636.044625,749 643.5,749 C650.955375,749 657,755.267333 657,763" id="Fill-155" fill="#141B2D"></path>
            <text id="&lt;/&gt;" font-family="Arial-Black, Arial Black" font-size="12" font-weight="700" fill="#FFFFFF">
                <tspan x="633" y="767">&lt;/&gt;</tspan>
            </text>
            <g id="Group-174">
                <path d="M820.2146,770.209171 C813.738725,780.248098 800.757524,782.860309 791.222051,776.042152 C781.685487,769.226291 779.203996,755.56127 785.680962,745.522343 C792.155746,735.484564 805.136948,732.872353 814.67242,739.689362 C824.208984,746.506372 826.690476,760.171392 820.2146,770.209171" id="Fill-157" fill="#F9C975"></path>
                <path d="M818.140619,768.726698 C812.441368,777.55999 801.021053,779.857587 792.629793,773.86041 C784.238533,767.860937 782.055911,755.837878 787.754071,747.004586 C793.45223,738.172443 804.873637,735.874846 813.263806,741.872022 C821.656156,747.871496 823.838778,759.894555 818.140619,768.726698" id="Fill-159" fill="#F7D6A1"></path>
                <path d="M815.56074,766.88219 C810.83009,774.215901 801.348064,776.123102 794.381344,771.143252 C787.415715,766.16455 785.602863,756.183034 790.333513,748.849324 C795.064164,741.516762 804.546189,739.608412 811.512909,744.588262 C818.478538,749.568112 820.29139,759.549628 815.56074,766.88219" id="Fill-161" fill="#F9C975"></path>
                <mask id="mask-34" fill="white">
                    <use xlink:href="#path-33"></use>
                </mask>
                <g id="Clip-164"></g>
                <polygon id="Fill-163" fill="#C7AB54" mask="url(#mask-34)" points="331.426942 769.297825 366.604133 769.297825 366.604133 747.768615 331.426942 747.768615"></polygon>
                <polygon id="Fill-165" fill="#DEBB72" mask="url(#mask-34)" points="331.426942 752.935625 366.604133 752.935625 366.604133 747.768615 331.426942 747.768615"></polygon>
                <polygon id="Fill-166" fill="#FDDA98" mask="url(#mask-34)" points="331.426942 750.639176 366.604133 750.639176 366.604133 747.768615 331.426942 747.768615"></polygon>
                <polygon id="Fill-167" fill="#EAC083" mask="url(#mask-34)" points="374.784329 748.916495 374.784329 768.149256 366.603587 769.297481 366.603587 747.76827"></polygon>
                <polygon id="Fill-168" fill="#C7AB54" mask="url(#mask-34)" points="374.784329 748.916495 374.784329 751.787056 366.603587 752.935281 366.603587 747.76827"></polygon>
                <polygon id="Fill-169" fill="#DCC695" mask="url(#mask-34)" points="374.784329 748.916495 374.784329 749.490607 366.603587 750.638832 366.603587 747.76827"></polygon>
                <polygon id="Fill-170" fill="#FFBE53" mask="url(#mask-34)" points="371.648378 735.1378 376.829515 742.027148 369.194155 747.76827 349.287684 747.76827 364.62712 731.620788"></polygon>
                <path d="M374.784329,732.554295 C374.784329,725.737286 369.534474,720.210881 363.058599,720.210881 C356.582724,720.210881 351.332869,725.737286 351.332869,732.554295 C351.332869,739.371304 356.582724,744.897709 363.058599,744.897709 C369.534474,744.897709 374.784329,739.371304 374.784329,732.554295" id="Fill-171" fill="#303F9F" mask="url(#mask-34)"></path>
                <path d="M371.512032,732.554295 C371.512032,727.639894 367.727076,723.655555 363.058599,723.655555 C358.390122,723.655555 354.605166,727.639894 354.605166,732.554295 C354.605166,737.468696 358.390122,741.453035 363.058599,741.453035 C367.727076,741.453035 371.512032,737.468696 371.512032,732.554295" id="Fill-172" fill="#5063CF" mask="url(#mask-34)"></path>
                <polygon id="Fill-173" fill="#6E86EA" mask="url(#mask-34)" points="354.696245 725.37904 363.059144 742.218901 352.651059 747.76827 338.107882 747.76827 331.198972 739.34834"></polygon>
            </g>
            <text id="2" font-family="Arial-Black, Arial Black" font-size="12" font-weight="700" fill="#FFFFFF">
                <tspan x="359" y="736">2</tspan>
            </text>
            <g id="Group-177" transform="translate(585.000000, 333.000000)">
                <mask id="mask-36" fill="white">
                    <use xlink:href="#path-35"></use>
                </mask>
                <g id="Clip-176"></g>
                <polygon id="Fill-175" fill="#2B4A88" mask="url(#mask-36)" points="-5.54111111 12.783 13.8933333 12.783 13.8933333 -4.771 -5.54111111 -4.771"></polygon>
            </g>
            <g id="Group-180" transform="translate(568.000000, 334.000000)">
                <mask id="mask-38" fill="white">
                    <use xlink:href="#path-37"></use>
                </mask>
                <g id="Clip-179"></g>
                <polygon id="Fill-178" fill="#2B4A88" mask="url(#mask-38)" points="8.09567 -8.16345 -7.62993 -0.663075 4.57567 26.107425 20.30127 18.608175"></polygon>
            </g>
            <g id="Group-183" transform="translate(573.000000, 357.000000)">
                <mask id="mask-40" fill="white">
                    <use xlink:href="#path-39"></use>
                </mask>
                <g id="Clip-182"></g>
                <polygon id="Fill-181" fill="#2B4A88" mask="url(#mask-40)" points="-5.189625 17.1264 31.94775 17.1264 31.94775 -5.5548 -5.189625 -5.5548"></polygon>
            </g>
            <g id="Group-186" transform="translate(558.000000, 355.000000)">
                <mask id="mask-42" fill="white">
                    <use xlink:href="#path-41"></use>
                </mask>
                <g id="Clip-185"></g>
                <polygon id="Fill-184" fill="#2B4A88" mask="url(#mask-42)" points="-5.35283333 33.2943333 16.52725 33.2943333 16.52725 -5.7015 -5.35283333 -5.7015"></polygon>
            </g>
            <g id="Group-189" transform="translate(568.000000, 377.000000)">
                <mask id="mask-44" fill="white">
                    <use xlink:href="#path-43"></use>
                </mask>
                <g id="Clip-188"></g>
                <polygon id="Fill-187" fill="#2B4A88" mask="url(#mask-44)" points="-5.30305263 21.9581563 26.1494211 21.9581563 26.1494211 -5.58264063 -5.30305263 -5.58264063"></polygon>
            </g>
            <g id="Group-192" transform="translate(553.000000, 383.000000)">
                <mask id="mask-46" fill="white">
                    <use xlink:href="#path-45"></use>
                </mask>
                <g id="Clip-191"></g>
                <polygon id="Fill-190" fill="#2B4A88" mask="url(#mask-46)" points="-4.6845625 31.0304348 21.44125 31.0304348 21.44125 -5.32321739 -4.6845625 -5.32321739"></polygon>
            </g>
            <g id="Group-195" transform="translate(558.000000, 409.000000)">
                <mask id="mask-48" fill="white">
                    <use xlink:href="#path-47"></use>
                </mask>
                <g id="Clip-194"></g>
                <polygon id="Fill-193" fill="#2B4A88" mask="url(#mask-48)" points="-5.34428571 21.6863333 19.3414286 21.6863333 19.3414286 -5.15666667 -5.34428571 -5.15666667"></polygon>
            </g>
            <path d="M587,342 C587,342 555.71747,369.122667 575.63201,437" id="Stroke-196" stroke="#2B4A88"></path>
            <g id="Group-200" transform="translate(946.000000, 506.000000)">
                <mask id="mask-50" fill="white">
                    <use xlink:href="#path-49"></use>
                </mask>
                <g id="Clip-199"></g>
                <polygon id="Fill-198" fill="#2B4A88" mask="url(#mask-50)" points="-5.8498 18.25516 17.2271 18.25516 17.2271 -7.21897 -5.8498 -7.21897"></polygon>
            </g>
            <g id="Group-203" transform="translate(963.000000, 507.000000)">
                <mask id="mask-52" fill="white">
                    <use xlink:href="#path-51"></use>
                </mask>
                <g id="Clip-202"></g>
                <polygon id="Fill-201" fill="#2B4A88" mask="url(#mask-52)" points="2.97163636 -10.2339368 21.6763636 -0.976568421 7.15745455 32.0709053 -11.5472727 22.8135368"></polygon>
            </g>
            <g id="Group-206" transform="translate(939.000000, 534.000000)">
                <mask id="mask-54" fill="white">
                    <use xlink:href="#path-53"></use>
                </mask>
                <g id="Clip-205"></g>
                <polygon id="Fill-204" fill="#2B4A88" mask="url(#mask-54)" points="-5.85489655 19.8190909 37.8328276 19.8190909 37.8328276 -6.97154545 -5.85489655 -6.97154545"></polygon>
            </g>
            <g id="Group-209" transform="translate(974.000000, 532.000000)">
                <mask id="mask-56" fill="white">
                    <use xlink:href="#path-55"></use>
                </mask>
                <g id="Clip-208"></g>
                <polygon id="Fill-207" fill="#2B4A88" mask="url(#mask-56)" points="-6.31184615 40.6581379 19.7755385 40.6581379 19.7755385 -6.34158621 -6.31184615 -6.34158621"></polygon>
            </g>
            <g id="Group-212" transform="translate(951.000000, 559.000000)">
                <mask id="mask-58" fill="white">
                    <use xlink:href="#path-57"></use>
                </mask>
                <g id="Clip-211"></g>
                <polygon id="Fill-210" fill="#2B4A88" mask="url(#mask-58)" points="-6.33152174 26.1088889 30.7663043 26.1088889 30.7663043 -6.40111111 -6.33152174 -6.40111111"></polygon>
            </g>
            <g id="Group-215" transform="translate(974.000000, 566.000000)">
                <mask id="mask-60" fill="white">
                    <use xlink:href="#path-59"></use>
                </mask>
                <g id="Clip-214"></g>
                <polygon id="Fill-213" fill="#2B4A88" mask="url(#mask-60)" points="-6.18661111 39.3159643 24.9417222 39.3159643 24.9417222 -6.14153571 -6.18661111 -6.14153571"></polygon>
            </g>
            <g id="Group-218" transform="translate(970.000000, 598.000000)">
                <mask id="mask-62" fill="white">
                    <use xlink:href="#path-61"></use>
                </mask>
                <g id="Clip-217"></g>
                <polygon id="Fill-216" fill="#2B4A88" mask="url(#mask-62)" points="-5.61705882 25.4510588 23.6414118 25.4510588 23.6414118 -6.29794118 -5.61705882 -6.29794118"></polygon>
            </g>
            <path d="M953,516 C953,516 991.234927,548.547614 966.893518,630" id="Stroke-219" stroke="#2B4A88"></path>
            <g id="Group-223" transform="translate(1016.000000, 592.000000)">
                <mask id="mask-64" fill="white">
                    <use xlink:href="#path-63"></use>
                </mask>
                <g id="Clip-222"></g>
                <polygon id="Fill-221" fill="#FFCDAD" mask="url(#mask-64)" points="-4.836 23.6762353 43.5781667 23.6762353 43.5781667 -5.50105882 -4.836 -5.50105882"></polygon>
            </g>
            <g id="Group-235" transform="translate(981.000000, 568.000000)">
                <polygon id="Fill-224" fill="#EAC083" points="10.5323721 50.3984318 45.7823721 50.3984318 45.7823721 28.6654773 10.5323721 28.6654773"></polygon>
                <polygon id="Fill-226" fill="#DEBB72" points="10.5323721 33.8813864 45.7823721 33.8813864 45.7823721 28.6654773 10.5323721 28.6654773"></polygon>
                <polygon id="Fill-227" fill="#FDDA98" points="10.5323721 31.5632045 45.7823721 31.5632045 45.7823721 28.6654773 10.5323721 28.6654773"></polygon>
                <polygon id="Fill-228" fill="#C7AB54" points="2.33480698 29.8244523 2.33480698 49.239225 10.5324814 50.3983159 10.5324814 28.6653614"></polygon>
                <polygon id="Fill-229" fill="#C7AB54" points="2.33480698 29.8244523 2.33480698 32.7221795 10.5324814 33.8812705 10.5324814 28.6653614"></polygon>
                <polygon id="Fill-230" fill="#DCC695" points="2.33480698 29.8244523 2.33480698 30.4039977 10.5324814 31.5630886 10.5324814 28.6653614"></polygon>
                <polygon id="Fill-231" fill="#FFBE53" points="5.47724884 15.9153614 0.285388372 22.8699068 7.93655116 28.6653614 27.8842256 28.6653614 12.5130395 12.3650659"></polygon>
                <path d="M2.33480698,13.3074068 C2.33480698,6.42588409 7.59552791,0.847179545 14.084807,0.847179545 C20.574086,0.847179545 25.834807,6.42588409 25.834807,13.3074068 C25.834807,20.1889295 20.574086,25.7676341 14.084807,25.7676341 C7.59552791,25.7676341 2.33480698,20.1889295 2.33480698,13.3074068" id="Fill-232" fill="#4C4B7C"></path>
                <path d="M5.61387674,13.3074068 C5.61387674,8.34649773 9.40666744,4.32445227 14.084807,4.32445227 C18.7629465,4.32445227 22.5557372,8.34649773 22.5557372,13.3074068 C22.5557372,18.2683159 18.7629465,22.2903614 14.084807,22.2903614 C9.40666744,22.2903614 5.61387674,18.2683159 5.61387674,13.3074068" id="Fill-233" fill="#6E6B91"></path>
                <polygon id="Fill-234" fill="#FFFAF9" points="22.4650163 6.06308864 14.084807 23.063475 24.5144349 28.6653614 39.087714 28.6653614 46.0109233 20.1645886"></polygon>
            </g>
            <text id="1" font-family="Arial-Black, Arial Black" font-size="12" font-weight="700" fill="#FFFFFF">
                <tspan x="991" y="585">1</tspan>
            </text>
            <g id="Group-238" transform="translate(1032.000000, 569.000000)">
                <mask id="mask-66" fill="white">
                    <use xlink:href="#path-65"></use>
                </mask>
                <g id="Clip-237"></g>
                <polygon id="Fill-236" fill="#FFCDAD" mask="url(#mask-66)" points="-5.22568421 36.0339231 26.1980526 36.0339231 26.1980526 -5.61576923 -5.22568421 -5.61576923"></polygon>
            </g>
            <g id="Group-241" transform="translate(1036.000000, 564.000000)">
                <mask id="mask-68" fill="white">
                    <use xlink:href="#path-67"></use>
                </mask>
                <g id="Clip-240"></g>
                <polygon id="Fill-239" fill="#363636" mask="url(#mask-68)" points="-5.0688 35.8956154 26.9665 35.8956154 26.9665 -5.76123077 -5.0688 -5.76123077"></polygon>
            </g>
            <g id="Group-244" transform="translate(1027.000000, 657.000000)">
                <mask id="mask-70" fill="white">
                    <use xlink:href="#path-69"></use>
                </mask>
                <g id="Clip-243"></g>
                <polygon id="Fill-242" fill="#FFAE00" mask="url(#mask-70)" points="-5.43708475 118.864731 69.7690169 105.788192 69.7690169 -5.5395 -2.31488136 -5.5395"></polygon>
            </g>
            <g id="Group-247" transform="translate(1040.000000, 564.000000)">
                <mask id="mask-72" fill="white">
                    <use xlink:href="#path-71"></use>
                </mask>
                <g id="Clip-246"></g>
                <polygon id="Fill-245" fill="#FFAE00" mask="url(#mask-72)" points="-4.9368 28.6908074 26.9225 28.6908074 26.9225 -5.57396537 -4.9368 -5.57396537"></polygon>
            </g>
            <g id="Group-250" transform="translate(1039.000000, 586.000000)">
                <mask id="mask-74" fill="white">
                    <use xlink:href="#path-73"></use>
                </mask>
                <g id="Clip-249"></g>
                <polygon id="Fill-248" fill="#002265" mask="url(#mask-74)" points="-5.26608333 90.5732432 43.6030833 90.5732432 43.6030833 -4.85763514 -5.26608333 -4.85763514"></polygon>
            </g>
            <g id="Group-253" transform="translate(1003.000000, 602.000000)">
                <mask id="mask-76" fill="white">
                    <use xlink:href="#path-75"></use>
                </mask>
                <g id="Clip-252"></g>
                <polygon id="Fill-251" fill="#FFCDAD" mask="url(#mask-76)" points="-5.23238298 41.544 55.8786383 41.544 55.8786383 -5.65432258 -5.23238298 -5.65432258"></polygon>
            </g>
            <g id="Group-260" transform="translate(1049.000000, 577.000000)" stroke="#979797" stroke-linecap="round">
                <path d="M0.405321429,0.178528302 C0.405321429,0.178528302 0.690321429,5.20041509 3.57567857,5.20041509" id="Stroke-254"></path>
                <path d="M1.35225,34.3828302 C1.35225,34.3828302 1.77117857,43.3624528 0.405107143,44.7877358" id="Stroke-256" stroke-width="0.4"></path>
                <path d="M14.5326429,40.6015472 C14.5326429,40.6015472 9.58692857,58.943434 6.29228571,59.5728679" id="Stroke-258" stroke-width="0.4"></path>
            </g>
            <g id="Group-263" transform="translate(1060.000000, 763.000000)">
                <mask id="mask-78" fill="white">
                    <use xlink:href="#path-77"></use>
                </mask>
                <g id="Clip-262"></g>
                <polygon id="Fill-261" fill="#6EF1D5" mask="url(#mask-78)" points="-5.0684375 16.95452 39.7982812 16.95452 39.7982812 -5.1909 -5.0684375 -5.1909"></polygon>
            </g>
            <path d="M1053.4704,678 C1053.4704,678 1051.38378,694.412805 1056,699" id="Stroke-264" stroke="#979797" stroke-width="0.6" stroke-linecap="round"></path>
            <g id="Group-268" transform="translate(1073.000000, 750.000000)">
                <mask id="mask-80" fill="white">
                    <use xlink:href="#path-79"></use>
                </mask>
                <g id="Clip-267"></g>
                <polygon id="Fill-266" fill="#6E59FF" mask="url(#mask-80)" points="-4.51144444 12.164 24.1796111 12.164 24.1796111 -4.773 -4.51144444 -4.773"></polygon>
            </g>
            <g id="Group-271" transform="translate(1023.000000, 752.000000)">
                <mask id="mask-82" fill="white">
                    <use xlink:href="#path-81"></use>
                </mask>
                <g id="Clip-270"></g>
                <polygon id="Fill-269" fill="#6E59FF" mask="url(#mask-82)" points="3.33104375 -9.83418333 27.0757937 -5.90135 13.2346063 23.1019833 -7.49795625 5.94615"></polygon>
            </g>
            <g id="Group-274" transform="translate(1060.000000, 754.000000)">
                <mask id="mask-84" fill="white">
                    <use xlink:href="#path-83"></use>
                </mask>
                <g id="Clip-273"></g>
                <polygon id="Fill-272" fill="#002365" mask="url(#mask-84)" points="-5.08245161 20.84 39.3116774 20.84 39.3116774 -5.31771429 -5.08245161 -5.31771429"></polygon>
            </g>
            <g id="Group-277" transform="translate(1005.000000, 761.000000)">
                <mask id="mask-86" fill="white">
                    <use xlink:href="#path-85"></use>
                </mask>
                <g id="Clip-276"></g>
                <polygon id="Fill-275" fill="#6EF1D5" mask="url(#mask-86)" points="-4.6343 17.2452 37.9753 17.2452 37.9753 -5.2368 -4.6343 -5.2368"></polygon>
            </g>
            <g id="Group-280" transform="translate(1005.000000, 757.000000)">
                <mask id="mask-88" fill="white">
                    <use xlink:href="#path-87"></use>
                </mask>
                <g id="Clip-279"></g>
                <polygon id="Fill-278" fill="#002365" mask="url(#mask-88)" points="-4.59219355 17.874 39.3336129 17.874 39.3336129 -5.9196 -4.59219355 -5.9196"></polygon>
            </g>
            <text id="UI" transform="translate(804.000000, 758.500000) rotate(31.000000) translate(-804.000000, -758.500000) " font-family="Arial-Black, Arial Black" font-size="16" font-weight="700" fill="#292B39">
                <tspan x="794" y="765">UI</tspan>
            </text>
            <g id="zhuchiyu" opacity="0.960994112" transform="translate(726.000000, 422.000000)">
                <path d="M85.852,40.6223 L85.7,40.5733 C85.7,40.5733 84.491,40.1793 83.282,39.7803 C80.638,38.9073 80.638,38.9073 80.681,38.6403 L80.718,38.4023 L80.963,38.4013 C80.998,38.4013 81.03,38.4073 81.071,38.4163 C81.164,38.4373 81.271,38.4473 81.39,38.4473 C82.592,38.4473 84.665,37.3963 86.332,36.5523 C88.213,35.5983 89.046,35.2003 89.418,35.5333 C89.578,35.6773 90.003,36.0593 87.863,38.8553 L87.825,38.8953 L85.852,40.6223 Z" id="Fill-1" fill="#FFFFFF"></path>
                <path d="M94.0884,24.7048 C93.6044,24.7048 93.2234,23.9858 92.4764,22.4898 C91.7254,20.9888 90.7904,19.1198 89.7854,18.6238 C89.5484,18.5068 89.5814,18.3058 89.5914,18.2668 C89.6504,18.0168 89.9274,18.0168 90.0934,18.0168 C91.0074,18.0168 94.1944,18.4148 94.3294,18.4318 L94.5364,18.4568 L94.9944,21.1158 L94.9944,21.1438 C94.8974,24.6638 94.3264,24.6928 94.1114,24.7048 L94.0884,24.7048 Z" id="Fill-3" fill="#FFFFFF"></path>
                <path d="M73.1782,2.5813 L64.2182,0.4693 C64.2182,0.4693 52.2232,4.8493 45.1482,11.8343 C50.0582,12.8363 51.4892,12.5703 51.4892,12.5703 L73.1782,2.5813 Z" id="Fill-5" fill="#FFFFFF"></path>
                <path d="M46.1255,11.5486 C48.7905,12.0526 50.2355,12.1326 50.8875,12.1326 C51.1345,12.1326 51.2845,12.1216 51.3565,12.1146 L71.7425,2.7256 L64.2495,0.9596 C62.9775,1.4416 52.7035,5.4506 46.1255,11.5486 M50.8875,13.0716 C49.9645,13.0716 48.2035,12.9376 45.0545,12.2946 C44.8845,12.2596 44.7475,12.1346 44.6975,11.9676 C44.6475,11.8016 44.6945,11.6226 44.8175,11.5006 C51.8845,4.5236 63.9375,0.0726 64.0585,0.0286 C64.1445,-0.0024 64.2365,-0.0094 64.3265,0.0126 L73.2855,2.1246 C73.4805,2.1706 73.6255,2.3356 73.6455,2.5346 C73.6655,2.7336 73.5575,2.9236 73.3745,3.0076 L51.6855,12.9976 C51.6495,13.0136 51.6125,13.0256 51.5735,13.0326 C51.5385,13.0396 51.3375,13.0716 50.8875,13.0716" id="Fill-7" fill="#FFFFFF"></path>
                <path d="M81.9985,16.7903 C81.0565,16.7903 80.2925,16.0593 80.2925,15.1563 C80.2925,14.2543 81.0565,13.5233 81.9985,13.5233 C82.9405,13.5233 83.7045,14.2543 83.7045,15.1563 C83.7045,16.0593 82.9405,16.7903 81.9985,16.7903 M81.5875,12.3043 C80.0145,12.3043 78.7345,13.5833 78.7345,15.1563 C78.7345,16.7293 80.0145,18.0093 81.5875,18.0093 C83.1605,18.0093 84.4395,16.7293 84.4395,15.1563 C84.4395,13.5833 83.1605,12.3043 81.5875,12.3043" id="Fill-9" fill="#FFFFFF"></path>
                <path d="M63.6958,22.7971 C63.6748,22.7971 63.6518,22.7961 63.6298,22.7931 C61.2648,22.4551 58.8888,20.6061 58.7888,20.5271 C58.5858,20.3671 58.5498,20.0721 58.7098,19.8681 C58.8698,19.6651 59.1648,19.6291 59.3688,19.7891 C59.3908,19.8061 61.6498,21.5611 63.7618,21.8631 C64.0188,21.9001 64.1968,22.1371 64.1608,22.3941 C64.1278,22.6281 63.9258,22.7971 63.6958,22.7971" id="Fill-11" fill="#FFFFFF"></path>
                <path d="M62.1977,24.9031 C62.1807,24.9031 62.1647,24.9021 62.1477,24.9011 C59.6327,24.6371 57.1637,23.9021 57.0597,23.8701 C56.8117,23.7961 56.6717,23.5341 56.7457,23.2861 C56.8197,23.0371 57.0827,22.8951 57.3307,22.9711 C57.3547,22.9781 59.8207,23.7131 62.2457,23.9661 C62.5047,23.9931 62.6907,24.2241 62.6647,24.4821 C62.6387,24.7231 62.4347,24.9031 62.1977,24.9031" id="Fill-13" fill="#FFFFFF"></path>
                <path d="M55.9419,27.9592 C55.7939,27.9592 55.7029,27.9582 55.6819,27.9572 C55.4229,27.9522 55.2169,27.7382 55.2219,27.4792 C55.2279,27.2222 55.4369,27.0182 55.6919,27.0182 L55.7019,27.0182 C55.7329,27.0202 58.7929,27.0722 61.1149,26.4372 C61.3639,26.3692 61.6229,26.5162 61.6909,26.7662 C61.7589,27.0162 61.6119,27.2742 61.3619,27.3422 C59.2859,27.9102 56.7539,27.9592 55.9419,27.9592" id="Fill-15" fill="#FFFFFF"></path>
                <path d="M97.9155,27.9817 C97.9135,27.9917 97.9105,28.0017 97.9085,28.0107 C97.8715,27.9867 97.8345,27.9647 97.7975,27.9417 C97.7005,27.8807 97.6035,27.8167 97.5055,27.7597 C97.3895,27.6907 97.2695,27.6287 97.1495,27.5647 C97.0505,27.5117 96.9505,27.4567 96.8495,27.4067 C96.7275,27.3477 96.6035,27.2947 96.4785,27.2407 C96.3775,27.1957 96.2755,27.1477 96.1715,27.1067 C96.0445,27.0557 95.9155,27.0127 95.7865,26.9677 C95.6835,26.9307 95.5805,26.8917 95.4755,26.8587 C95.3425,26.8167 95.2075,26.7837 95.0725,26.7477 C94.9695,26.7197 94.8665,26.6897 94.7635,26.6657 C94.6205,26.6317 94.4765,26.6077 94.3325,26.5817 C94.2335,26.5637 94.1365,26.5407 94.0365,26.5257 C93.8755,26.5007 93.7125,26.4857 93.5495,26.4687 C93.4665,26.4607 93.3835,26.4477 93.2995,26.4407 C93.0515,26.4217 92.8025,26.4127 92.5525,26.4127 C91.9885,26.4127 91.4195,26.4617 90.8595,26.5587 C90.6805,26.5897 90.5015,26.6267 90.3235,26.6667 C90.2685,26.6797 90.2145,26.6957 90.1585,26.7097 C90.0375,26.7397 89.9175,26.7687 89.7985,26.8027 C89.7335,26.8217 89.6705,26.8437 89.6065,26.8637 C89.4985,26.8977 89.3905,26.9297 89.2835,26.9667 C89.2145,26.9917 89.1465,27.0197 89.0785,27.0447 C88.9785,27.0827 88.8795,27.1177 88.7815,27.1587 C88.7115,27.1877 88.6425,27.2197 88.5725,27.2507 C88.4785,27.2917 88.3845,27.3317 88.2915,27.3767 C88.2215,27.4097 88.1535,27.4467 88.0845,27.4817 C87.9945,27.5267 87.9035,27.5707 87.8155,27.6197 C87.7465,27.6567 87.6785,27.6987 87.6095,27.7377 C87.5245,27.7877 87.4385,27.8357 87.3545,27.8877 C87.2865,27.9297 87.2215,27.9747 87.1535,28.0187 C87.0715,28.0717 86.9895,28.1247 86.9095,28.1807 C86.8435,28.2267 86.7785,28.2757 86.7135,28.3237 C86.6355,28.3807 86.5575,28.4377 86.4795,28.4967 C86.4165,28.5467 86.3535,28.6007 86.2915,28.6517 C86.2165,28.7127 86.1425,28.7737 86.0685,28.8367 C86.0075,28.8907 85.9475,28.9467 85.8875,29.0027 C85.8165,29.0677 85.7445,29.1317 85.6765,29.1997 C85.6175,29.2567 85.5615,29.3157 85.5035,29.3747 C85.4365,29.4437 85.3675,29.5127 85.3025,29.5837 C85.2465,29.6447 85.1925,29.7077 85.1395,29.7697 C85.0745,29.8417 85.0105,29.9147 84.9485,29.9887 C84.8955,30.0527 84.8465,30.1187 84.7955,30.1837 C84.7345,30.2607 84.6745,30.3367 84.6165,30.4157 C84.5675,30.4817 84.5205,30.5507 84.4735,30.6187 C84.4175,30.6987 84.3605,30.7787 84.3065,30.8617 C84.2615,30.9307 84.2185,31.0027 84.1745,31.0727 C84.1705,31.0797 84.1665,31.0857 84.1615,31.0917 C84.1215,30.9697 84.0855,30.8487 84.0575,30.7287 C84.0255,30.5957 84.0015,30.4647 83.9845,30.3357 C84.0025,30.3087 84.0195,30.2827 84.0385,30.2567 C84.0715,30.2097 84.1035,30.1597 84.1385,30.1127 C84.2475,29.9627 84.3605,29.8167 84.4775,29.6737 C84.4965,29.6497 84.5175,29.6277 84.5355,29.6057 C84.6355,29.4857 84.7355,29.3687 84.8395,29.2537 C84.8825,29.2067 84.9285,29.1617 84.9725,29.1147 C85.0545,29.0267 85.1365,28.9397 85.2215,28.8557 C85.2735,28.8037 85.3275,28.7547 85.3805,28.7047 C85.4615,28.6277 85.5415,28.5517 85.6235,28.4787 C85.6815,28.4277 85.7395,28.3787 85.7985,28.3297 C85.8795,28.2597 85.9615,28.1907 86.0445,28.1247 C86.1055,28.0757 86.1685,28.0277 86.2305,27.9807 C86.3135,27.9167 86.3975,27.8537 86.4825,27.7937 C86.5485,27.7467 86.6135,27.7017 86.6795,27.6567 C86.7655,27.5987 86.8515,27.5417 86.9385,27.4857 C87.0065,27.4417 87.0745,27.3997 87.1435,27.3587 C87.2315,27.3047 87.3205,27.2527 87.4115,27.2017 C87.4805,27.1627 87.5515,27.1237 87.6215,27.0857 C87.7135,27.0367 87.8065,26.9887 87.8995,26.9427 C87.9715,26.9067 88.0425,26.8717 88.1145,26.8377 C88.2105,26.7937 88.3075,26.7507 88.4035,26.7087 C88.4765,26.6777 88.5485,26.6467 88.6205,26.6167 C88.7215,26.5757 88.8225,26.5387 88.9245,26.5007 C88.9965,26.4747 89.0675,26.4467 89.1405,26.4217 C89.2465,26.3847 89.3555,26.3517 89.4645,26.3177 C89.5335,26.2967 89.6015,26.2737 89.6705,26.2537 C89.7915,26.2197 89.9145,26.1897 90.0375,26.1587 C90.0965,26.1447 90.1535,26.1277 90.2125,26.1147 C90.3945,26.0727 90.5785,26.0357 90.7645,26.0027 C91.3545,25.9007 91.9565,25.8487 92.5525,25.8487 C92.8115,25.8487 93.0695,25.8597 93.3265,25.8787 C93.4105,25.8847 93.4935,25.8977 93.5775,25.9057 C93.7495,25.9227 93.9215,25.9397 94.0915,25.9647 C94.1905,25.9797 94.2885,26.0007 94.3875,26.0187 C94.5405,26.0457 94.6935,26.0727 94.8455,26.1067 C94.9485,26.1307 95.0505,26.1587 95.1525,26.1857 C95.2985,26.2237 95.4425,26.2617 95.5855,26.3047 C95.6895,26.3367 95.7925,26.3727 95.8955,26.4077 C96.0345,26.4557 96.1725,26.5037 96.3095,26.5577 C96.4125,26.5977 96.5145,26.6407 96.6165,26.6847 C96.7505,26.7417 96.8835,26.8007 97.0155,26.8637 C97.1155,26.9127 97.2165,26.9627 97.3155,27.0147 C97.4445,27.0817 97.5725,27.1507 97.6995,27.2237 C97.7835,27.2727 97.8675,27.3217 97.9515,27.3737 C97.9535,27.4037 97.9565,27.4327 97.9575,27.4637 C97.9595,27.5437 97.9565,27.6217 97.9505,27.6987 C97.9445,27.7937 97.9345,27.8877 97.9155,27.9817 M95.8525,30.7717 C95.7915,30.8437 95.7335,30.9157 95.6775,30.9867 C95.6695,30.9817 95.6615,30.9777 95.6535,30.9737 C95.5805,30.9297 95.5075,30.8887 95.4325,30.8487 C95.3325,30.7947 95.2305,30.7457 95.1295,30.6977 C95.0575,30.6637 94.9845,30.6307 94.9105,30.5997 C94.8055,30.5557 94.6965,30.5157 94.5885,30.4767 C94.5155,30.4507 94.4405,30.4237 94.3665,30.4007 C94.2565,30.3667 94.1455,30.3377 94.0345,30.3097 C93.9585,30.2907 93.8825,30.2697 93.8055,30.2537 C93.6935,30.2307 93.5805,30.2127 93.4675,30.1957 C93.3895,30.1837 93.3115,30.1697 93.2325,30.1607 C93.1175,30.1477 93.0015,30.1417 92.8855,30.1347 C92.8085,30.1307 92.7315,30.1227 92.6535,30.1217 C92.5275,30.1197 92.4005,30.1257 92.2735,30.1307 C92.2075,30.1337 92.1405,30.1327 92.0725,30.1377 C91.8795,30.1527 91.6855,30.1757 91.4925,30.2097 C91.3455,30.2347 91.1995,30.2657 91.0565,30.3017 C91.0105,30.3137 90.9665,30.3277 90.9205,30.3407 C90.8235,30.3667 90.7275,30.3927 90.6325,30.4237 C90.5785,30.4417 90.5255,30.4627 90.4735,30.4817 C90.3885,30.5127 90.3035,30.5417 90.2205,30.5757 C90.1655,30.5977 90.1125,30.6237 90.0585,30.6477 C89.9795,30.6827 89.8995,30.7167 89.8225,30.7547 C89.7685,30.7817 89.7155,30.8127 89.6605,30.8417 C89.5875,30.8807 89.5135,30.9187 89.4405,30.9607 C89.3875,30.9927 89.3355,31.0267 89.2825,31.0597 C89.2135,31.1037 89.1435,31.1467 89.0755,31.1927 C89.0235,31.2277 88.9755,31.2667 88.9245,31.3027 C88.8585,31.3517 88.7925,31.3987 88.7275,31.4487 C88.6795,31.4877 88.6325,31.5297 88.5835,31.5707 C88.5215,31.6227 88.4595,31.6737 88.3995,31.7287 C88.3525,31.7717 88.3085,31.8167 88.2635,31.8607 C88.2055,31.9177 88.1475,31.9727 88.0925,32.0307 C88.0485,32.0767 88.0065,32.1257 87.9635,32.1737 C87.9105,32.2327 87.8565,32.2917 87.8065,32.3537 C87.7655,32.4027 87.7265,32.4547 87.6865,32.5057 C87.6375,32.5687 87.5895,32.6317 87.5425,32.6957 C87.5045,32.7497 87.4695,32.8037 87.4335,32.8587 C87.3895,32.9237 87.3455,32.9897 87.3035,33.0577 C87.2695,33.1137 87.2365,33.1717 87.2035,33.2287 C87.1645,33.2977 87.1255,33.3667 87.0895,33.4367 C87.0585,33.4957 87.0295,33.5567 87.0005,33.6167 C86.9675,33.6877 86.9335,33.7587 86.9015,33.8327 C86.8745,33.8947 86.8505,33.9577 86.8255,34.0207 C86.7965,34.0937 86.7685,34.1687 86.7415,34.2437 C86.7195,34.3077 86.6985,34.3727 86.6785,34.4387 C86.6765,34.4427 86.6755,34.4477 86.6735,34.4527 C86.6555,34.4387 86.6375,34.4237 86.6195,34.4087 C86.5575,34.3557 86.5005,34.3007 86.4405,34.2477 C86.3645,34.1797 86.2875,34.1127 86.2155,34.0447 C86.2215,34.0267 86.2275,34.0087 86.2345,33.9917 C86.2695,33.8967 86.3025,33.8017 86.3405,33.7097 C86.3655,33.6487 86.3935,33.5917 86.4195,33.5327 C86.4575,33.4477 86.4945,33.3627 86.5355,33.2807 C86.5655,33.2197 86.5995,33.1607 86.6315,33.1017 C86.6735,33.0237 86.7145,32.9447 86.7595,32.8687 C86.7945,32.8097 86.8315,32.7517 86.8685,32.6927 C86.9145,32.6197 86.9615,32.5467 87.0105,32.4757 C87.0495,32.4177 87.0915,32.3617 87.1325,32.3057 C87.1835,32.2367 87.2335,32.1687 87.2865,32.1017 C87.3305,32.0457 87.3755,31.9927 87.4215,31.9387 C87.4755,31.8747 87.5295,31.8107 87.5875,31.7487 C87.6345,31.6957 87.6835,31.6447 87.7325,31.5937 C87.7915,31.5337 87.8515,31.4747 87.9105,31.4177 C87.9625,31.3677 88.0145,31.3197 88.0665,31.2727 C88.1295,31.2167 88.1925,31.1617 88.2575,31.1077 C88.3115,31.0637 88.3665,31.0187 88.4225,30.9747 C88.4885,30.9227 88.5575,30.8737 88.6255,30.8237 C88.6825,30.7827 88.7385,30.7417 88.7975,30.7027 C88.8675,30.6547 88.9395,30.6097 89.0125,30.5647 C89.0715,30.5277 89.1315,30.4907 89.1915,30.4557 C89.2665,30.4127 89.3425,30.3727 89.4195,30.3317 C89.4795,30.2997 89.5405,30.2667 89.6025,30.2357 C89.6835,30.1967 89.7645,30.1617 89.8465,30.1257 C89.9065,30.0987 89.9675,30.0707 90.0295,30.0447 C90.1165,30.0097 90.2055,29.9797 90.2935,29.9477 C90.3535,29.9267 90.4115,29.9037 90.4725,29.8837 C90.5715,29.8517 90.6735,29.8237 90.7745,29.7957 C90.8255,29.7827 90.8765,29.7657 90.9285,29.7527 C91.0825,29.7147 91.2375,29.6817 91.3955,29.6537 C91.6075,29.6177 91.8205,29.5917 92.0335,29.5757 C92.1145,29.5697 92.1955,29.5717 92.2765,29.5677 C92.4085,29.5627 92.5405,29.5557 92.6725,29.5587 C92.7635,29.5607 92.8535,29.5697 92.9445,29.5757 C93.0655,29.5827 93.1865,29.5877 93.3075,29.6017 C93.3995,29.6127 93.4905,29.6297 93.5825,29.6447 C93.7005,29.6627 93.8175,29.6807 93.9355,29.7057 C94.0245,29.7247 94.1125,29.7497 94.2015,29.7727 C94.3185,29.8017 94.4365,29.8317 94.5515,29.8677 C94.6375,29.8947 94.7225,29.9277 94.8075,29.9587 C94.9225,29.9997 95.0365,30.0407 95.1485,30.0877 C95.2325,30.1237 95.3145,30.1637 95.3965,30.2027 C95.5075,30.2537 95.6155,30.3067 95.7235,30.3647 C95.8065,30.4097 95.8875,30.4587 95.9695,30.5067 C95.9955,30.5227 96.0205,30.5397 96.0475,30.5557 C95.9835,30.6267 95.9195,30.6937 95.8565,30.7677 C95.8555,30.7697 95.8535,30.7707 95.8525,30.7717 M91.6695,22.7567 C91.1915,22.7567 90.7245,22.7827 90.2785,22.8337 C86.9305,23.2147 83.3905,25.4377 83.0305,29.5417 C82.9755,30.1677 83.0655,30.8207 83.3005,31.4827 C83.7365,32.7187 84.6735,33.9767 86.0085,35.1217 C88.0535,36.8747 90.6505,38.0527 92.4735,38.0527 C93.5665,38.0527 94.1205,37.6187 94.3915,37.2547 C95.1845,36.1917 95.3075,35.1757 95.4165,34.2787 C95.5025,33.5627 95.5845,32.8857 95.9825,32.1947 C96.1365,31.9287 96.3275,31.6627 96.5675,31.3807 C96.7865,31.1247 97.0225,30.8817 97.2515,30.6467 C97.9335,29.9477 98.6365,29.2247 98.8385,28.1557 C98.8835,27.9197 98.9015,27.6867 98.8955,27.4407 C98.8115,23.9837 94.9505,22.7567 91.6695,22.7567" id="Fill-17" fill="#FFFFFF"></path>
                <path d="M83.0825,14.5505 C83.0825,14.8845 82.8115,15.1565 82.4775,15.1565 C82.1425,15.1565 81.8705,14.8845 81.8705,14.5505 C81.8705,14.2155 82.1425,13.9445 82.4775,13.9445 C82.8115,13.9445 83.0825,14.2155 83.0825,14.5505" id="Fill-19" fill="#FFFFFF"></path>
                <path d="M81.5874,18.9485 C79.4964,18.9485 77.7954,17.2475 77.7954,15.1565 C77.7954,13.0665 79.4964,11.3655 81.5874,11.3655 C83.6784,11.3655 85.3794,13.0665 85.3794,15.1565 C85.3794,17.2475 83.6784,18.9485 81.5874,18.9485 M71.5224,24.1545 C71.1764,24.3655 62.9774,29.3415 55.5714,30.6255 C55.5444,30.6305 55.5184,30.6325 55.4904,30.6325 C55.3694,30.6325 55.2514,30.5855 55.1634,30.4995 C55.0554,30.3945 55.0044,30.2445 55.0264,30.0945 C56.0664,22.9945 60.2644,18.6135 60.4414,18.4305 C60.5824,18.2865 60.7984,18.2485 60.9804,18.3335 L71.4794,23.3295 C71.6344,23.4045 71.7364,23.5575 71.7464,23.7295 C71.7554,23.9015 71.6694,24.0645 71.5224,24.1545 M95.4814,20.6275 C95.3544,20.0525 94.1294,14.8655 90.2324,10.0265 C85.9984,4.7705 80.4444,2.1065 73.7244,2.1065 C73.5404,2.1065 73.3544,2.1075 73.1684,2.1125 C68.1964,2.2215 57.5034,4.6895 41.4744,19.8795 C40.9994,18.7355 40.5564,17.5515 40.1524,16.3515 C40.0924,16.1715 39.9294,16.0455 39.7394,16.0325 C39.5544,16.0205 39.3714,16.1215 39.2874,16.2905 C37.4594,19.9515 37.3024,24.0635 37.2964,24.2365 C37.2894,24.4325 37.4064,24.6125 37.5884,24.6865 C37.7704,24.7605 37.9794,24.7145 38.1114,24.5695 C38.1234,24.5565 39.2514,23.3305 41.1474,21.4935 C44.4314,28.8545 49.2624,34.9775 55.1504,39.2325 C61.8274,44.0565 67.7454,45.1245 70.6794,45.3315 C71.5074,45.3895 72.2564,45.4185 72.9694,45.4185 C77.5754,45.4185 82.1234,44.2935 89.3434,38.8035 C89.5004,38.6835 89.5664,38.4775 89.5064,38.2885 C89.4464,38.0995 89.2744,37.9685 89.0764,37.9615 C85.4044,37.8245 82.3044,36.4385 80.1084,33.9505 C77.5044,30.9985 76.3164,26.7465 76.6614,21.6275 C79.5834,22.4195 82.3454,22.8045 85.0844,22.8045 C89.0994,22.8045 92.5754,21.9365 95.1544,21.1795 C95.3924,21.1105 95.5344,20.8685 95.4814,20.6275" id="Fill-21" fill="#FFFFFF"></path>
                <path d="M42.354,61.8967 C38.459,61.8967 35.301,65.0547 35.301,68.9497 C35.301,72.8447 38.459,76.0017 42.354,76.0017 C46.25,76.0017 49.407,72.8447 49.407,68.9497 C49.407,65.0547 46.25,61.8967 42.354,61.8967 M42.354,63.5217 C45.347,63.5217 47.783,65.9567 47.783,68.9497 C47.783,71.9427 45.347,74.3777 42.354,74.3777 C39.361,74.3777 36.925,71.9427 36.925,68.9497 C36.925,65.9567 39.361,63.5217 42.354,63.5217" id="Fill-23" fill="#FFFFFF"></path>
                <path d="M42.354,61.8967 C38.459,61.8967 35.301,65.0547 35.301,68.9497 C35.301,72.8447 38.459,76.0017 42.354,76.0017 C46.25,76.0017 49.407,72.8447 49.407,68.9497 C49.407,65.0547 46.25,61.8967 42.354,61.8967 Z M42.354,63.5217 C45.347,63.5217 47.783,65.9567 47.783,68.9497 C47.783,71.9427 45.347,74.3777 42.354,74.3777 C39.361,74.3777 36.925,71.9427 36.925,68.9497 C36.925,65.9567 39.361,63.5217 42.354,63.5217 Z" id="Stroke-25" stroke="#FFFFFF"></path>
                <path d="M115.3081,61.8972 C111.4121,61.8972 108.2551,65.0552 108.2551,68.9502 C108.2551,72.8452 111.4121,76.0022 115.3081,76.0022 C119.2031,76.0022 122.3611,72.8452 122.3611,68.9502 C122.3611,65.0552 119.2031,61.8972 115.3081,61.8972 M115.3081,63.5212 C118.3011,63.5212 120.7371,65.9562 120.7371,68.9502 C120.7371,71.9432 118.3011,74.3782 115.3081,74.3782 C112.3151,74.3782 109.8791,71.9432 109.8791,68.9502 C109.8791,65.9562 112.3151,63.5212 115.3081,63.5212" id="Fill-27" fill="#FFFFFF"></path>
                <path d="M115.3081,61.8972 C111.4121,61.8972 108.2551,65.0552 108.2551,68.9502 C108.2551,72.8452 111.4121,76.0022 115.3081,76.0022 C119.2031,76.0022 122.3611,72.8452 122.3611,68.9502 C122.3611,65.0552 119.2031,61.8972 115.3081,61.8972 Z M115.3081,63.5212 C118.3011,63.5212 120.7371,65.9562 120.7371,68.9502 C120.7371,71.9432 118.3011,74.3782 115.3081,74.3782 C112.3151,74.3782 109.8791,71.9432 109.8791,68.9502 C109.8791,65.9562 112.3151,63.5212 115.3081,63.5212 Z" id="Stroke-29" stroke="#FFFFFF"></path>
                <path d="M82.1645,61.8967 C78.2685,61.8967 75.1115,65.0547 75.1115,68.9497 C75.1115,72.8447 78.2685,76.0017 82.1645,76.0017 C86.0595,76.0017 89.2175,72.8447 89.2175,68.9497 C89.2175,65.0547 86.0595,61.8967 82.1645,61.8967 M82.1645,63.5217 C85.1575,63.5217 87.5935,65.9567 87.5935,68.9497 C87.5935,71.9427 85.1575,74.3777 82.1645,74.3777 C79.1715,74.3777 76.7355,71.9427 76.7355,68.9497 C76.7355,65.9567 79.1715,63.5217 82.1645,63.5217" id="Fill-31" fill="#FFFFFF"></path>
                <path d="M82.1645,61.8967 C78.2685,61.8967 75.1115,65.0547 75.1115,68.9497 C75.1115,72.8447 78.2685,76.0017 82.1645,76.0017 C86.0595,76.0017 89.2175,72.8447 89.2175,68.9497 C89.2175,65.0547 86.0595,61.8967 82.1645,61.8967 Z M82.1645,63.5217 C85.1575,63.5217 87.5935,65.9567 87.5935,68.9497 C87.5935,71.9427 85.1575,74.3777 82.1645,74.3777 C79.1715,74.3777 76.7355,71.9427 76.7355,68.9497 C76.7355,65.9567 79.1715,63.5217 82.1645,63.5217 Z" id="Stroke-33" stroke="#FFFFFF"></path>
                <mask id="mask-90" fill="white">
                    <use xlink:href="#path-89"></use>
                </mask>
                <g id="Clip-36"></g>
                <polygon id="Fill-35" fill="#FFFFFF" mask="url(#mask-90)" points="21.969 76.0027 23.593 76.0027 23.593 56.1607 21.969 56.1607"></polygon>
                <polygon id="Stroke-37" stroke="#FFFFFF" mask="url(#mask-90)" points="21.969 76.0027 23.593 76.0027 23.593 56.1607 21.969 56.1607"></polygon>
                <path d="M98.7358,61.8972 C94.8408,61.8972 91.6828,65.0552 91.6828,68.9502 C91.6828,72.8452 94.8408,76.0022 98.7358,76.0022 C102.6318,76.0022 105.7888,72.8452 105.7888,68.9502 C105.7888,65.0552 102.6318,61.8972 98.7358,61.8972 M98.7358,63.5212 C101.7288,63.5212 104.1648,65.9562 104.1648,68.9502 C104.1648,71.9432 101.7288,74.3782 98.7358,74.3782 C95.7428,74.3782 93.3068,71.9432 93.3068,68.9502 C93.3068,65.9562 95.7428,63.5212 98.7358,63.5212" id="Fill-38" fill="#FFFFFF" mask="url(#mask-90)"></path>
                <path d="M98.7358,61.8972 C94.8408,61.8972 91.6828,65.0552 91.6828,68.9502 C91.6828,72.8452 94.8408,76.0022 98.7358,76.0022 C102.6318,76.0022 105.7888,72.8452 105.7888,68.9502 C105.7888,65.0552 102.6318,61.8972 98.7358,61.8972 Z M98.7358,63.5212 C101.7288,63.5212 104.1648,65.9562 104.1648,68.9502 C104.1648,71.9432 101.7288,74.3782 98.7358,74.3782 C95.7428,74.3782 93.3068,71.9432 93.3068,68.9502 C93.3068,65.9562 95.7428,63.5212 98.7358,63.5212 Z" id="Stroke-39" stroke="#FFFFFF" mask="url(#mask-90)"></path>
                <polygon id="Fill-40" fill="#FFFFFF" mask="url(#mask-90)" points="104.165 76.0027 105.789 76.0027 105.789 56.1607 104.165 56.1607"></polygon>
                <polygon id="Stroke-41" stroke="#FFFFFF" mask="url(#mask-90)" points="104.165 76.0027 105.789 76.0027 105.789 56.1607 104.165 56.1607"></polygon>
                <polygon id="Fill-42" fill="#FFFFFF" mask="url(#mask-90)" points="31.211 76.0027 32.835 76.0027 32.835 67.3307 31.211 67.3307"></polygon>
                <polygon id="Stroke-43" stroke="#FFFFFF" mask="url(#mask-90)" points="31.211 76.0027 32.835 76.0027 32.835 67.3307 31.211 67.3307"></polygon>
                <path d="M27.4018,61.8972 C24.4008,61.8972 21.9688,64.3292 21.9688,67.3302 L23.5928,67.3302 C23.5928,65.2302 25.3008,63.5212 27.4018,63.5212 C29.5028,63.5212 31.2118,65.2302 31.2118,67.3302 L32.8358,67.3302 C32.8358,64.3292 30.4028,61.8972 27.4018,61.8972" id="Fill-44" fill="#FFFFFF" mask="url(#mask-90)"></path>
                <path d="M27.4018,61.8972 C24.4008,61.8972 21.9688,64.3292 21.9688,67.3302 L23.5928,67.3302 C23.5928,65.2302 25.3008,63.5212 27.4018,63.5212 C29.5028,63.5212 31.2118,65.2302 31.2118,67.3302 L32.8358,67.3302 C32.8358,64.3292 30.4028,61.8972 27.4018,61.8972 Z" id="Stroke-45" stroke="#FFFFFF" mask="url(#mask-90)"></path>
                <polygon id="Fill-46" fill="#FFFFFF" mask="url(#mask-90)" points="52.892 68.9497 65.217 68.9497 65.217 67.3257 52.892 67.3257"></polygon>
                <polygon id="Stroke-47" stroke="#FFFFFF" mask="url(#mask-90)" points="52.892 68.9497 65.217 68.9497 65.217 67.3257 52.892 67.3257"></polygon>
                <path d="M58.9263,61.8967 C55.0303,61.8967 51.8733,65.0547 51.8733,68.9497 L53.4973,68.9497 C53.4973,65.9567 55.9333,63.5217 58.9263,63.5217 C61.9193,63.5217 64.3553,65.9567 64.3553,68.9497 L65.9793,68.9497 C65.9793,65.0547 62.8213,61.8967 58.9263,61.8967" id="Fill-48" fill="#FFFFFF" mask="url(#mask-90)"></path>
                <path d="M58.9263,61.8967 C55.0303,61.8967 51.8733,65.0547 51.8733,68.9497 L53.4973,68.9497 C53.4973,65.9567 55.9333,63.5217 58.9263,63.5217 C61.9193,63.5217 64.3553,65.9567 64.3553,68.9497 L65.9793,68.9497 C65.9793,65.0547 62.8213,61.8967 58.9263,61.8967 Z" id="Stroke-49" stroke="#FFFFFF" mask="url(#mask-90)"></path>
                <path d="M58.9263,74.3782 C55.9333,74.3782 53.4973,71.9432 53.4973,68.9492 L51.8733,68.9492 C51.8733,72.8452 55.0303,76.0022 58.9263,76.0022 C61.5363,76.0022 63.8143,74.5832 65.0333,72.4752 L63.6253,71.6622 C62.6853,73.2842 60.9313,74.3782 58.9263,74.3782" id="Fill-50" fill="#FFFFFF" mask="url(#mask-90)"></path>
                <path d="M58.9263,74.3782 C55.9333,74.3782 53.4973,71.9432 53.4973,68.9492 L51.8733,68.9492 C51.8733,72.8452 55.0303,76.0022 58.9263,76.0022 C61.5363,76.0022 63.8143,74.5832 65.0333,72.4752 L63.6253,71.6622 C62.6853,73.2842 60.9313,74.3782 58.9263,74.3782 Z" id="Stroke-51" stroke="#FFFFFF" mask="url(#mask-90)"></path>
                <polygon id="Fill-52" fill="#FFFFFF" mask="url(#mask-90)" points="68.445 76.0027 70.07 76.0027 70.07 61.8977 68.445 61.8977"></polygon>
                <polygon id="Stroke-53" stroke="#FFFFFF" mask="url(#mask-90)" points="68.445 76.0027 70.07 76.0027 70.07 61.8977 68.445 61.8977"></polygon>
                <path d="M73.8784,63.5212 L73.8784,61.8972 C70.8794,61.8972 68.4474,64.3272 68.4454,67.3252 L70.0694,67.3252 C70.0714,65.2272 71.7794,63.5212 73.8784,63.5212" id="Fill-54" fill="#FFFFFF" mask="url(#mask-90)"></path>
                <path d="M73.8784,63.5212 L73.8784,61.8972 C70.8794,61.8972 68.4474,64.3272 68.4454,67.3252 L70.0694,67.3252 C70.0714,65.2272 71.7794,63.5212 73.8784,63.5212 Z" id="Stroke-55" stroke="#FFFFFF" mask="url(#mask-90)"></path>
                <polygon id="Fill-56" fill="#FFFFFF" mask="url(#mask-90)" points="124.827 76.0027 126.452 76.0027 126.452 61.9957 124.827 61.9957"></polygon>
                <polygon id="Stroke-57" stroke="#FFFFFF" mask="url(#mask-90)" points="124.827 76.0027 126.452 76.0027 126.452 61.9957 124.827 61.9957"></polygon>
                <polygon id="Fill-58" fill="#FFFFFF" mask="url(#mask-90)" points="134.069 76.0027 135.694 76.0027 135.694 67.3307 134.069 67.3307"></polygon>
                <polygon id="Stroke-59" stroke="#FFFFFF" mask="url(#mask-90)" points="134.069 76.0027 135.694 76.0027 135.694 67.3307 134.069 67.3307"></polygon>
                <path d="M134.0688,67.3254 L135.6928,67.3254 C135.6908,64.3264 133.2588,61.8974 130.2598,61.8974 L130.2598,63.5214 C132.3588,63.5214 134.0658,65.2274 134.0688,67.3254" id="Fill-60" fill="#FFFFFF" mask="url(#mask-90)"></path>
                <path d="M134.0688,67.3254 L135.6928,67.3254 C135.6908,64.3264 133.2588,61.8974 130.2598,61.8974 L130.2598,63.5214 C132.3588,63.5214 134.0658,65.2274 134.0688,67.3254 Z" id="Stroke-61" stroke="#FFFFFF" mask="url(#mask-90)"></path>
                <path d="M130.2602,63.5212 L130.2602,61.8972 C127.2612,61.8972 124.8292,64.3272 124.8262,67.3252 L126.4512,67.3252 C126.4532,65.2272 128.1612,63.5212 130.2602,63.5212" id="Fill-62" fill="#FFFFFF" mask="url(#mask-90)"></path>
                <path d="M130.2602,63.5212 L130.2602,61.8972 C127.2612,61.8972 124.8292,64.3272 124.8262,67.3252 L126.4512,67.3252 C126.4532,65.2272 128.1612,63.5212 130.2602,63.5212 Z" id="Stroke-63" stroke="#FFFFFF" mask="url(#mask-90)"></path>
                <path d="M2.1323,66.0813 C2.1323,64.6113 2.5153,63.2303 3.1863,62.0303 L1.7703,61.2133 C0.9623,62.6533 0.5003,64.3123 0.5003,66.0813 C0.5003,67.9453 1.0133,69.6893 1.9033,71.1823 L3.3193,70.3643 C2.5663,69.1123 2.1323,67.6463 2.1323,66.0813" id="Fill-64" fill="#FFFFFF" mask="url(#mask-90)"></path>
                <path d="M2.1323,66.0813 C2.1323,64.6113 2.5153,63.2303 3.1863,62.0303 L1.7703,61.2133 C0.9623,62.6533 0.5003,64.3123 0.5003,66.0813 C0.5003,67.9453 1.0133,69.6893 1.9033,71.1823 L3.3193,70.3643 C2.5663,69.1123 2.1323,67.6463 2.1323,66.0813 Z" id="Stroke-65" stroke="#FFFFFF" mask="url(#mask-90)"></path>
                <path d="M10.4702,57.7434 C13.5982,57.7434 16.3282,59.4754 17.7542,62.0304 L19.1702,61.2134 C17.4642,58.1694 14.2082,56.1114 10.4702,56.1114 C6.7322,56.1114 3.4762,58.1694 1.7702,61.2134 L3.1862,62.0304 C4.6122,59.4754 7.3422,57.7434 10.4702,57.7434" id="Fill-66" fill="#FFFFFF" mask="url(#mask-90)"></path>
                <path d="M10.4702,57.7434 C13.5982,57.7434 16.3282,59.4754 17.7542,62.0304 L19.1702,61.2134 C17.4642,58.1694 14.2082,56.1114 10.4702,56.1114 C6.7322,56.1114 3.4762,58.1694 1.7702,61.2134 L3.1862,62.0304 C4.6122,59.4754 7.3422,57.7434 10.4702,57.7434 Z" id="Stroke-67" stroke="#FFFFFF" mask="url(#mask-90)"></path>
                <path d="M10.4702,74.4197 C7.4382,74.4197 4.7792,72.7917 3.3202,70.3647 L1.9042,71.1827 C3.6432,74.0977 6.8282,76.0517 10.4702,76.0517 C14.1132,76.0517 17.2972,74.0977 19.0362,71.1827 L17.6202,70.3647 C16.1612,72.7917 13.5022,74.4197 10.4702,74.4197" id="Fill-68" fill="#FFFFFF" mask="url(#mask-90)"></path>
                <path d="M10.4702,74.4197 C7.4382,74.4197 4.7792,72.7917 3.3202,70.3647 L1.9042,71.1827 C3.6432,74.0977 6.8282,76.0517 10.4702,76.0517 C14.1132,76.0517 17.2972,74.0977 19.0362,71.1827 L17.6202,70.3647 C16.1612,72.7917 13.5022,74.4197 10.4702,74.4197 Z" id="Stroke-69" stroke="#FFFFFF" mask="url(#mask-90)"></path>
            </g>
        </g>
    </g>
</svg>