<?xml version="1.0" encoding="UTF-8"?>
<svg width="174px" height="200px" viewBox="0 0 174 200" version="1.1" xmlns="http://www.w3.org/2000/svg" xmlns:xlink="http://www.w3.org/1999/xlink">
    <!-- Generator: Sketch 48.2 (47327) - http://www.bohemiancoding.com/sketch -->
    <title>优雅美观</title>
    <desc>Created with Sketch.</desc>
    <defs>
        <polygon id="path-1" points="0.788298598 0.482103448 24.6473361 0.482103448 24.6473361 5.05747126 0.788298598 5.05747126"></polygon>
        <polygon id="path-3" points="0.788298598 0.482103448 24.6473361 0.482103448 24.6473361 5.05747126 0.788298598 5.05747126"></polygon>
    </defs>
    <g id="Home-Copy" stroke="none" stroke-width="1" fill="none" fill-rule="evenodd" transform="translate(-228.000000, -957.000000)">
        <g id="Group-2" transform="translate(202.000000, 957.000000)">
            <g id="优雅美观" transform="translate(26.000000, 0.000000)">
                <polygon id="背景" fill="#FFFFFF" points="86.6025404 0 173.205081 50 173.205081 150 86.6025404 200 5.15143483e-14 150 -5.32907052e-15 50"></polygon>
                <path d="M125.998105,100.999366 C125.998105,106.865611 121.297226,111.62069 115.494753,111.62069 C109.692281,111.62069 104.990148,106.865611 104.990148,100.999366 C104.990148,95.1343892 109.692281,90.3793103 115.494753,90.3793103 C121.297226,90.3793103 125.998105,95.1343892 125.998105,100.999366" id="Fill-1" fill="#FBD940"></path>
                <path d="M124.997726,100.999353 C124.997726,106.307536 120.742765,110.609195 115.494766,110.609195 C110.246768,110.609195 105.990527,106.307536 105.990527,100.999353 C105.990527,95.6937577 110.245488,91.3908046 115.494766,91.3908046 C120.744045,91.3908046 124.997726,95.6937577 124.997726,100.999353" id="Fill-3" fill="#FBE06A"></path>
                <path d="M119.067527,92.2402846 C118.009336,91.82559 116.85946,91.5963489 115.653556,91.5963489 C115.389963,91.5963489 115.13019,91.6092276 114.871691,91.6311214 L116.108158,90.3793103 C117.488517,90.4372646 118.800114,90.763096 119.995832,91.3014263 L119.067527,92.2402846 Z M105.903172,105.551724 C105.369619,104.342413 105.049997,103.017193 104.990148,101.62114 L106.227887,100.369329 C106.207513,100.630767 106.197326,100.897357 106.197326,101.16137 C106.197326,102.379697 106.42017,103.542645 106.83275,104.614154 L105.903172,105.551724 Z" id="Fill-5" fill="#FCE680"></path>
                <path d="M106.632602,104.54023 C106.218277,103.457887 105.990527,102.283181 105.990527,101.051235 C105.990527,100.784552 106.000821,100.516568 106.021408,100.252487 L114.755695,91.4259287 C115.018187,91.4025126 115.280679,91.3908046 115.547031,91.3908046 C116.764272,91.3908046 117.926185,91.6210626 118.995453,92.041251 L106.632602,104.54023 Z" id="Fill-7" fill="#FCEB9D"></path>
                <path d="M122.130737,94.1463773 C121.768099,93.8366933 121.382395,93.5516284 120.976189,93.2976616 L121.862923,92.4022989 C122.260159,92.6666317 122.638174,92.9581753 122.996969,93.2717466 L122.130737,94.1463773 Z M107.849449,108.586207 C107.539348,108.223397 107.252313,107.839855 106.990906,107.440765 L107.876358,106.544106 C108.127514,106.956154 108.408143,107.346175 108.71568,107.711576 L107.849449,108.586207 Z" id="Fill-9" fill="#FCE680"></path>
                <path d="M108.817274,107.574713 C108.513824,107.215725 108.236815,106.83255 107.991285,106.429007 L120.863372,93.4137931 C121.263776,93.6633023 121.641515,93.9433636 121.99659,94.2476121 L108.817274,107.574713 Z" id="Fill-11" fill="#FCEB9D"></path>
                <path d="M111.9928,81.7809797 C111.9928,83.1772295 110.873103,84.3103448 109.490607,84.3103448 C108.110603,84.3103448 106.990906,83.1772295 106.990906,81.7809797 C106.990906,80.3859889 108.110603,79.2528736 109.490607,79.2528736 C110.873103,79.2528736 111.9928,80.3859889 111.9928,81.7809797" id="Fill-13" fill="#FBD940"></path>
                <path d="M131,122.242009 C131,123.637 129.881548,124.770115 128.500298,124.770115 C127.119048,124.770115 125.998105,123.637 125.998105,122.242009 C125.998105,120.845759 127.119048,119.712644 128.500298,119.712644 C129.881548,119.712644 131,120.845759 131,122.242009" id="Fill-15" fill="#FBD940"></path>
                <path d="M119.995832,64.5869562 C119.995832,65.4231247 119.326439,66.1034483 118.496748,66.1034483 C117.668541,66.1034483 116.994695,65.4231247 116.994695,64.5869562 C116.996179,63.7492891 117.668541,63.0689655 118.496748,63.0689655 C119.326439,63.0689655 119.995832,63.7492891 119.995832,64.5869562" id="Fill-17" fill="#FBD940"></path>
                <path d="M126.998484,76.7241379 C126.998484,77.562106 126.32847,78.2413793 125.498649,78.2413793 C124.670294,78.2413793 123.997347,77.562106 123.997347,76.7241379 C123.997347,75.8876529 124.670294,75.2068966 125.498649,75.2068966 C126.329936,75.2068966 126.998484,75.8876529 126.998484,76.7241379" id="Fill-19" fill="#51557F"></path>
                <path d="M111.9928,65.0926106 C111.9928,66.210146 111.096648,67.1149425 109.991393,67.1149425 C108.887437,67.1149425 107.991285,66.210146 107.991285,65.0926106 C107.991285,63.9737621 108.886138,63.0689655 109.991393,63.0689655 C111.097947,63.0689655 111.9928,63.9737621 111.9928,65.0926106" id="Fill-21" fill="#51557F"></path>
                <path d="M106.990906,131.850575 C106.990906,132.968473 106.095761,133.873563 104.990148,133.873563 C103.884534,133.873563 102.98939,132.968473 102.98939,131.850575 C102.98939,130.732677 103.884534,129.827586 104.990148,129.827586 C106.095761,129.827586 106.990906,130.732677 106.990906,131.850575" id="Fill-23" fill="#51557F"></path>
                <path d="M94.9863585,63.0689655 C91.2696501,63.0689655 89.3200884,61.9158134 87.5985455,60.8966071 C85.9720106,59.9346322 84.4328829,59.0225826 81.3115573,59.0225826 C78.1876981,59.0225826 76.651104,59.9346322 75.024569,60.8966071 C73.3030262,61.9158134 71.3521977,63.0689655 67.6367561,63.0689655 C63.9225813,63.0689655 61.9717527,61.9158134 60.2527435,60.8966071 C58.6262085,59.9346322 57.0896144,59.0225826 53.9708223,59.0225826 L53.9708223,57 C57.6862639,57 59.6345588,58.1543698 61.3561017,59.1747938 C62.9826366,60.1379864 64.5166972,61.0463829 67.6367561,61.0463829 C70.7555482,61.0463829 72.2946759,60.1379864 73.9212108,59.1747938 C75.6427536,58.1543698 77.5923154,57 81.3115573,57 C85.0295324,57 86.9803609,58.1543698 88.7019037,59.1747938 C90.3284387,60.1379864 91.8675664,61.0463829 94.9863585,61.0463829 L94.9863585,63.0689655 Z" id="Fill-25" fill="#51557F"></path>
                <path d="M67.9761273,76.2183908 C65.680798,76.2183908 64.4827972,75.3985246 63.426996,74.6764277 C62.4882265,74.0353398 61.6765557,73.4822444 59.9726764,73.4822444 C58.2662803,73.4822444 57.4546095,74.0353398 56.51584,74.6778244 C55.4600388,75.3985246 54.2645548,76.2183908 51.9654503,76.2183908 C49.6676041,76.2183908 48.4721201,75.3985246 47.416319,74.6764277 C46.4800662,74.0353398 45.6683955,73.4822444 43.967033,73.4822444 L43.967033,71.1609195 C46.2623623,71.1609195 47.4603631,71.9807858 48.5161643,72.7014859 C49.452417,73.3439705 50.2628293,73.8984627 51.9654503,73.8984627 C53.670588,73.8984627 54.4810003,73.3439705 55.4197699,72.7014859 C56.475571,71.9807858 57.6723135,71.1609195 59.9726764,71.1609195 C62.2705225,71.1609195 63.4660066,71.9807858 64.5218077,72.7014859 C65.4605773,73.3439705 66.272248,73.8984627 67.9761273,73.8984627 L67.9761273,76.2183908 Z" id="Fill-27" fill="#51557F"></path>
                <g id="Group-31" transform="translate(57.972338, 138.931034)">
                    <mask id="mask-2" fill="white">
                        <use xlink:href="#path-1"></use>
                    </mask>
                    <g id="Clip-30"></g>
                    <path d="M24.6473361,5.05785057 C22.3664721,5.05785057 21.1760212,4.31566667 20.1268738,3.66451724 C19.1940205,3.08290805 18.3862145,2.58221839 16.6943236,2.58221839 C14.9986813,2.58221839 14.1933763,3.08290805 13.2605229,3.66451724 C12.2113755,4.31566667 11.0221751,5.05785057 8.73755968,5.05785057 C6.45794619,5.05785057 5.26874574,4.31566667 4.21834786,3.66451724 C3.28674498,3.08290805 2.48143994,2.58221839 0.788298598,2.58221839 L0.788298598,0.482103448 C3.06791209,0.482103448 4.25836302,1.22175862 5.30751042,1.87417241 C6.24161425,2.45451724 7.04441834,2.95647126 8.73755968,2.95647126 C10.4319515,2.95647126 11.2372565,2.45451724 12.1701099,1.87417241 C13.2192573,1.22175862 14.4097082,0.482103448 16.6943236,0.482103448 C18.9776885,0.482103448 20.1656385,1.22175862 21.2147859,1.87417241 C22.1476393,2.45451724 22.9541948,2.95647126 24.6473361,2.95647126 L24.6473361,5.05785057 Z" id="Fill-29" fill="#51557F" mask="url(#mask-2)"></path>
                </g>
                <g id="Group-31" opacity="0.4" transform="translate(58.961349, 139.942529)">
                    <mask id="mask-4" fill="white">
                        <use xlink:href="#path-3"></use>
                    </mask>
                    <g id="Clip-30"></g>
                </g>
                <path d="M70.9772641,124.770115 C68.6819348,124.770115 67.4864508,123.950967 66.4306496,123.229669 C65.4918801,122.586652 64.6802093,122.034495 62.9738132,122.034495 C61.2674171,122.034495 60.4570047,122.586652 59.5182352,123.229669 C58.462434,123.950967 57.2656916,124.770115 54.9678455,124.770115 C52.6737746,124.770115 51.4757737,123.950967 50.4199726,123.229669 C49.4824614,122.586652 48.6720491,122.034495 46.9681698,122.034495 L46.9681698,119.712644 C49.2634991,119.712644 50.4589831,120.530394 51.5160427,121.250294 C52.4548122,121.891913 53.2639661,122.448263 54.9678455,122.448263 C56.6742416,122.448263 57.4833955,121.891913 58.4234235,121.250294 C59.4779662,120.530394 60.6772255,119.712644 62.9738132,119.712644 C65.2716593,119.712644 66.4684017,120.530394 67.5229445,121.250294 C68.4617141,121.891913 69.2733848,122.448263 70.9772641,122.448263 L70.9772641,124.770115 Z" id="Fill-32" fill="#51557F"></path>
                <path d="M74.980017,79.2538851 C74.980017,79.2528736 74.9787798,79.2528736 74.9787798,79.2528736 C74.980017,79.2528736 74.9787798,79.2528736 74.980017,79.2538851 Z M74.9812541,79.2892874 L74.9812541,79.2842299 L74.9812541,79.2892874 Z M74.9837284,79.3206437 L74.9837284,79.3145747 L74.9837284,79.3206437 Z M74.9837284,79.349977 L74.9837284,79.3348046 L74.9837284,79.349977 Z M74.9862027,79.3803218 C74.9862027,79.3752644 74.9849656,79.3702069 74.9849656,79.3651494 C74.9862027,79.3702069 74.9849656,79.3752644 74.9849656,79.3803218 L74.9862027,79.3803218 Z M74.9862027,79.4096552 C74.9862027,79.4035862 74.9849656,79.3995402 74.9849656,79.3924598 C74.9862027,79.3995402 74.9849656,79.4035862 74.9849656,79.4096552 L74.9862027,79.4096552 Z M74.988677,79.4430345 C74.988677,79.435954 74.9874399,79.4288736 74.9849656,79.4197701 C74.988677,79.4288736 74.9874399,79.435954 74.9874399,79.4430345 L74.988677,79.4430345 Z M74.988677,79.4693333 C74.988677,79.4622529 74.9874399,79.4551724 74.9874399,79.4501149 C74.988677,79.4551724 74.9874399,79.4622529 74.9874399,79.4693333 L74.988677,79.4693333 Z M74.988677,79.4986667 C74.988677,79.4905747 74.9874399,79.4855172 74.9874399,79.4764138 C74.988677,79.4845057 74.9874399,79.4905747 74.9874399,79.4986667 L74.988677,79.4986667 Z M74.9899142,79.5290115 L74.9899142,79.5057471 L74.9899142,79.5290115 Z M87.9837059,79.536092 L87.9837059,79.5290115 L87.9837059,79.536092 Z M74.9899142,79.5583448 L74.9899142,79.534069 L74.9899142,79.5583448 Z M87.9837059,79.5694713 L87.9837059,79.5553103 L87.9837059,79.5694713 Z M74.9899142,79.5866667 L74.9899142,79.5623908 L74.9899142,79.5866667 Z M87.9837059,79.6038621 L87.9837059,79.5846437 L87.9837059,79.6038621 Z M74.9899142,79.6170115 L74.9899142,79.5917241 L74.9899142,79.6170115 Z M74.9899142,79.6483678 L74.9899142,79.620046 L74.9899142,79.6483678 Z M87.9837059,79.6483678 L87.9837059,79.6149885 L87.9837059,79.6483678 Z" id="Fill-38" fill="#C5C2C0"></path>
                <path d="M73.6538482,112.634813 C73.6369408,112.632184 73.6174321,112.632184 73.5979235,112.632184 C73.6174321,112.632184 73.6356402,112.632184 73.6538482,112.634813 Z M75.4382377,113.136923 C75.4213302,113.130351 75.4057233,113.123779 75.3914169,113.117207 C75.4070238,113.123779 75.4200296,113.130351 75.4382377,113.136923 Z M71.9930135,118.93354 C72.2063078,115.563353 71.6366558,112.684761 73.5459005,112.634813 C71.6379564,112.684761 72.2063078,115.563353 71.9917129,118.93354 L71.9930135,118.93354 Z M71.9930135,118.934854 C71.9930135,118.934854 71.9917129,118.934854 71.9917129,118.93354 C71.9930135,118.934854 71.9917129,118.934854 71.9917129,118.934854 L71.9930135,118.934854 Z M71.0500963,123.307948 C71.0539981,123.298747 71.0565992,123.292175 71.0605009,123.284288 C71.0565992,123.292175 71.0539981,123.298747 71.0487958,123.307948 L71.0500963,123.307948 Z M71.03579,123.336865 C71.0409923,123.327664 71.0422929,123.321092 71.0474952,123.31452 C71.0422929,123.321092 71.0409923,123.327664 71.03579,123.336865 Z M71.0240848,123.364468 C71.026686,123.357896 71.0292871,123.351324 71.0344894,123.342123 C71.0292871,123.351324 71.026686,123.357896 71.0240848,123.364468 Z M71.0162814,123.388128 C71.017582,123.38287 71.0201831,123.377613 71.0227843,123.37104 C71.0201831,123.377613 71.017582,123.38287 71.0149808,123.388128 L71.0162814,123.388128 Z M71.0006745,123.417045 C71.0045762,123.411788 71.0071773,123.40653 71.0084779,123.398643 C71.0071773,123.40653 71.0032756,123.411788 70.9993739,123.417045 L71.0006745,123.417045 Z M70.9915704,123.439391 C70.992871,123.434133 70.992871,123.431504 70.9954722,123.427561 C70.9954722,123.431504 70.992871,123.434133 70.9915704,123.439391 Z M70.9772641,123.464365 C70.9798653,123.461736 70.9798653,123.461736 70.9798653,123.460421 C70.9798653,123.461736 70.9798653,123.461736 70.9772641,123.464365 Z M81.0450181,127.765165 C81.0502204,127.752021 81.0541221,127.738876 81.060625,127.723103 C81.6862018,126.27855 81.9814324,124.772218 81.9814324,123.289546 C81.9814324,124.772218 81.6862018,126.27855 81.060625,127.723103 C81.0541221,127.738876 81.0502204,127.752021 81.0437175,127.765165 L81.0450181,127.765165 Z M81.02681,127.804598 C81.0294112,127.798026 81.0333129,127.790139 81.0359141,127.782252 C81.0333129,127.790139 81.0294112,127.798026 81.02681,127.804598 Z" id="Fill-42" fill="#C5C2C0"></path>
                <path d="M78.4011511,130.83908 C74.7218057,130.83908 71.2164576,130.091754 68.0248127,128.742767 C67.6666576,128.592035 67.3288233,128.403303 66.9757484,128.234838 C68.3601069,126.926384 70.1724734,125.317732 71.202487,123.146686 C71.2139174,123.121353 71.226618,123.096019 71.2355084,123.070686 C71.2380485,123.068153 71.2380485,123.068153 71.2380485,123.066886 C71.2431287,123.060553 71.2443987,123.052953 71.2494789,123.04662 C71.250749,123.041553 71.2532891,123.03902 71.2532891,123.03522 C71.2558292,123.032687 71.2570993,123.028887 71.2570993,123.025087 C71.2621795,123.02002 71.2647196,123.014954 71.2659896,123.007354 C71.2685298,123.00482 71.2697998,123.002287 71.2723399,122.99722 C71.27488,122.992154 71.2774201,122.987087 71.2799602,122.980754 C71.2799602,122.978221 71.2812303,122.975687 71.2812303,122.974421 C71.2837704,122.968087 71.2863105,122.961754 71.2913907,122.952887 C71.2913907,122.950354 71.2926608,122.949088 71.2926608,122.947821 C71.297741,122.938954 71.299011,122.932621 71.3040913,122.926288 C71.3040913,122.923754 71.3053613,122.921221 71.3053613,122.919954 C71.3104415,122.911088 71.3129816,122.904755 71.3167918,122.895888 C71.9149871,121.527901 72.1372465,120.076314 72.2261502,118.705794 C72.2274203,118.705794 72.2261502,118.705794 72.2261502,118.704527 C72.4357091,115.455558 71.8794256,112.68285 73.7438643,112.634717 C73.760375,112.632184 73.7768857,112.632184 73.7946665,112.632184 C73.8137173,112.632184 73.831498,112.632184 73.8492788,112.634717 C74.2823671,112.64485 74.8361105,112.791782 75.5460705,113.09958 C75.5613111,113.105913 75.5740117,113.112246 75.5917924,113.118579 C79.5950015,114.874163 81.9814324,118.789393 81.9814324,122.902221 C81.9814324,124.331008 81.6931302,125.782594 81.0822344,127.174648 C81.0758841,127.189848 81.073344,127.202514 81.0657237,127.215181 C81.0644536,127.222781 81.0593734,127.226581 81.0581034,127.231647 C81.0555632,127.239247 81.0517531,127.246847 81.049213,127.253181 C80.4179963,128.666767 79.5099079,129.868823 78.4265522,130.83908 L78.4011511,130.83908 Z" id="Fill-44" fill="#3F51B5"></path>
                <path d="M59.9730959,101.510805 L59.9730959,101.505747 L59.9730959,101.510805 Z M59.9730959,101.534069 L59.9730959,101.533057 L59.9730959,101.534069 Z M59.9770974,101.586667 L59.9770974,101.576552 L59.9770974,101.586667 Z M59.9780978,101.617011 C59.9770974,101.613977 59.9770974,101.60892 59.9770974,101.603862 C59.9770974,101.60892 59.9770974,101.613977 59.9780978,101.617011 Z M59.9780978,101.660506 L59.9780978,101.632184 L59.9780978,101.660506 Z M59.9800985,101.690851 L59.9800985,101.670621 L59.9800985,101.690851 Z M59.9820993,101.72423 C59.9820993,101.717149 59.9800985,101.709057 59.9800985,101.702989 C59.9800985,101.709057 59.9820993,101.717149 59.9820993,101.72423 Z M59.9820993,101.763678 L59.9820993,101.733333 L59.9820993,101.763678 Z M59.9830997,101.795034 C59.9830997,101.785931 59.9830997,101.778851 59.9820993,101.770759 C59.9830997,101.778851 59.9830997,101.785931 59.9830997,101.795034 Z M59.9830997,101.831448 L59.9830997,101.803126 L59.9830997,101.831448 Z M59.9851004,101.866851 C59.9830997,101.855724 59.9830997,101.845609 59.9830997,101.833471 C59.9830997,101.843586 59.9830997,101.855724 59.9851004,101.866851 Z M59.9851004,101.898207 L59.9851004,101.871908 L59.9851004,101.898207 Z M59.9851004,101.936644 L59.9851004,101.906299 L59.9851004,101.936644 Z M59.9851004,101.968 L59.9851004,101.936644 L59.9851004,101.968 Z M59.9851004,102.000368 L59.9851004,101.977103 L59.9851004,102.000368 Z M59.9851004,102.040828 L59.9851004,102.00846 L59.9851004,102.040828 Z M59.9851004,102.071172 L59.9851004,102.040828 L59.9851004,102.071172 Z M59.9851004,102.101517 L59.9851004,102.080276 L59.9851004,102.101517 Z M59.9851004,102.139954 L59.9851004,102.112644 L59.9851004,102.139954 Z M59.9851004,102.168276 L59.9851004,102.153103 L59.9851004,102.168276 Z M59.9851004,102.198621 L59.9851004,102.185471 L59.9851004,102.198621 Z M59.9830997,102.23908 L59.9830997,102.226943 L59.9830997,102.23908 Z M59.9830997,102.264368 L59.9830997,102.257287 L59.9830997,102.264368 Z" id="Fill-48" fill="#C5C2C0"></path>
                <g id="Group" opacity="0.794327446" transform="translate(41.000000, 68.126437)">
                    <path d="M42.5274725,13.1519204 C42.5274725,20.411551 36.8395274,26.2988506 29.8221369,26.2988506 C22.8047465,26.2988506 29.8221369,20.4127985 29.8221369,13.1519204 C29.8221369,5.88605204 22.8047465,0 29.8221369,0 C36.8395274,0 42.5274725,5.88605204 42.5274725,13.1519204" id="Fill-34" fill="#8B98DF"></path>
                    <path d="M35.6984231,58.557456 C33.3494549,63.7733857 27.0868044,66.1524958 21.7146621,63.8663962 C16.3412549,61.5851918 23.6196412,59.6393147 25.9724043,54.4233851 C28.3239024,49.2025601 24.8580041,42.6918266 30.2301464,44.9754786 C35.6022887,47.2603544 38.0524511,53.336631 35.6984231,58.557456" id="Fill-36" fill="#8B98DF"></path>
                    <path d="M29.8209522,26.2988506 C27.4848301,26.2988506 26.7032999,25.6679305 26.7032999,24.5665345 C26.6996705,22.3601237 29.8209522,18.2706032 29.8209522,13.5863531 L29.8209522,13.5537817 L29.8209522,13.5501627 L29.8209522,13.5187976 L29.8209522,13.5127659 L29.8209522,13.4838135 L29.8209522,13.4789881 L29.8209522,13.4512421 L29.8209522,13.4452104 L29.8209522,13.416258 C29.8197424,13.412639 29.8185326,13.4114326 29.8185326,13.4078136 C29.8197424,13.3993691 29.8185326,13.3921311 29.8185326,13.3812739 C29.8197424,13.3776549 29.8185326,13.3752422 29.8185326,13.3728295 C29.8197424,13.364385 29.8185326,13.3559406 29.8185326,13.3511152 C29.8197424,13.3474962 29.8185326,13.3426708 29.8185326,13.3414644 C29.8197424,13.33302 29.8185326,13.3245756 29.816113,13.3137184 C29.8173228,13.3100994 29.816113,13.3064803 29.816113,13.3028613 C29.8173228,13.2956232 29.816113,13.2895915 29.816113,13.281147 C29.8173228,13.2763216 29.816113,13.2727026 29.816113,13.2666708 C29.8173228,13.2606391 29.816113,13.2546074 29.816113,13.249782 C29.8149032,13.2425439 29.8149032,13.2377185 29.8149032,13.2304804 L29.8149032,13.2123852 L29.8149032,13.1967026 L29.8149032,13.1882582 C29.8124836,13.1786074 29.8124836,13.1689566 29.8124836,13.1580995 L29.8124836,13.1532741 C29.8124836,13.1400043 29.810064,13.1267345 29.810064,13.1158773 C29.8112738,13.114671 29.810064,13.114671 29.810064,13.114671 C29.6902939,10.3436891 28.5349358,7.80311979 27.6663,5.76077227 C29.5414886,5.31321709 31.4868456,5.05747126 33.4975318,5.05747126 C35.724772,5.05747126 37.8770047,5.36147101 39.9312436,5.90674041 C41.5281784,8.00699264 42.494808,10.6102921 42.5274725,13.4452104 L42.5274725,13.4536548 L42.5274725,13.4753691 L42.5274725,13.492258 L42.5274725,13.5103532 L42.5274725,13.5332738 L42.5274725,13.54775 L42.5274725,13.5863531 C42.5274725,20.6060934 36.838997,26.2988506 29.8209522,26.2988506" id="Fill-40" fill="#7382D9"></path>
                    <path d="M15.8241758,35.4035463 C15.8241758,42.6624881 10.1354092,48.5517241 3.11821519,48.5517241 C-3.89776898,48.5517241 3.11821519,42.6624881 3.11821519,35.4035463 C3.11821519,28.1383672 -3.89776898,22.2528736 3.11821519,22.2528736 C10.1354092,22.2528736 15.8241758,28.1383672 15.8241758,35.4035463" id="Fill-46" fill="#8F9CE7"></path>
                    <path d="M9.38532896,46.5287356 C6.66362209,43.5710382 4.94505495,39.3178205 4.94505495,34.5720605 C4.94633937,30.1660692 6.41958042,26.1792886 8.80605109,23.2643678 C13.3285286,25.1893155 16.5408877,29.4107564 16.7977737,34.3838434 L16.7977737,34.3899544 L16.7977737,34.4180647 L16.7977737,34.4192869 C16.8003425,34.4363976 16.8003425,34.4535082 16.8029114,34.4706189 L16.8029114,34.4828407 L16.8029114,34.5023958 C16.8029114,34.5085067 16.8029114,34.5146177 16.8041958,34.5195064 L16.8041958,34.5366171 L16.8041958,34.5720605 C16.8067647,34.5757271 16.8067647,34.5793937 16.8067647,34.5842824 L16.8067647,34.607504 L16.8067647,34.6233925 C16.8067647,34.6307256 16.8093335,34.6392809 16.8093335,34.6478363 L16.8093335,34.658836 L16.8093335,34.6955016 L16.8093335,34.704057 C16.810618,34.7138345 16.810618,34.723612 16.810618,34.7346117 L16.810618,34.743167 L16.810618,34.7786105 L16.810618,34.7810549 C16.810618,34.7944989 16.810618,34.8067208 16.8131868,34.8201649 L16.8131868,34.827498 L16.8131868,34.8580528 L16.8131868,34.8678303 L16.8131868,34.904496 L16.8131868,34.943606 L16.8131868,34.9533835 L16.8131868,34.982716 L16.8131868,34.9924936 L16.8131868,35.0316036 L16.8131868,35.0670471 L16.8131868,35.079269 L16.8131868,35.1037128 L16.8131868,35.1171568 L16.8131868,35.1501559 L16.8131868,35.1660444 L16.8131868,35.1855994 L16.8131868,35.2051544 L16.8131868,35.2210429 C16.8131868,35.2332648 16.8131868,35.2442645 16.810618,35.2552642 L16.810618,35.2699305 L16.810618,35.2931521 L16.810618,35.3004852 C16.7052947,40.2161294 13.7087199,44.4449034 9.38532896,46.5287356" id="Fill-50" fill="#7181D9"></path>
                    <path d="M42.7458794,31.6788266 L56.3736264,42.2093234 C55.0726511,45.2353558 53.1880148,47.9589051 50.8582758,50.2479348 C48.5309892,52.5369644 45.7573736,54.3878736 42.6784396,55.6650249 C39.5995056,56.9469776 36.2152532,57.6551724 32.6593358,57.6551724 C29.1070969,57.6551724 25.7228444,56.9469776 22.6414581,55.6650249 C19.5637502,54.3866733 16.7901347,52.5369644 14.462848,50.2479348 C12.133109,47.9589051 10.2484728,45.2353558 8.94749749,42.2093234 C7.64529601,39.186892 6.92307692,35.8595766 6.92307692,32.3666158 C6.9243031,28.8772559 7.64529601,25.5511409 8.94749749,22.5251085 C10.2484728,19.5002763 12.133109,16.7755268 14.462848,14.4876974 C16.7901347,12.1998681 19.5637502,10.3489589 22.6414581,9.06940691 C25.7228444,7.78865459 29.1058707,7.08045977 32.6593358,7.08045977 C36.2152532,7.08045977 39.5982794,7.78865459 42.6784396,9.06940691 C45.7573736,10.3489589 48.5309892,12.1998681 50.8582758,14.4876974 C53.1880148,16.7755268 55.0726511,19.5002763 56.3736264,22.5251085 L42.7458794,31.6788266 Z" id="Fill-52" fill="#596FCE"></path>
                    <path d="M53.399185,44.4732458 C50.7791661,46.8478983 47.6595099,48.7690494 44.1940458,50.0984063 C40.7273509,51.4252714 36.9197706,52.1603421 32.9202115,52.1603421 C28.9206523,52.1603421 25.1118413,51.4252714 21.6476078,50.0984063 C18.1821436,48.7690494 15.0624875,46.8478983 12.4400073,44.4732458 C10.1916397,42.4337358 8.33953618,40.0453787 6.92307692,37.4252874 C7.20612265,39.9631504 7.83251514,42.3938676 8.77394984,44.6576365 C10.0808827,47.7985068 11.9723665,50.6254147 14.3093397,53.001313 C16.6463129,55.3772113 19.4287754,57.2983624 22.5188964,58.6239816 C25.6114786,59.9545844 29.0067967,60.6896552 32.5744034,60.6896552 C36.1420102,60.6896552 39.5360976,59.9545844 42.6286798,58.6239816 C45.7188008,57.2971166 48.5024939,55.3772113 50.8382365,53.001313 C53.1752097,50.6254147 55.0666935,47.7985068 56.3736264,44.6576365 L54.6199735,43.2560184 C54.218787,43.6684056 53.8286761,44.0857763 53.399185,44.4732458" id="Fill-54" fill="#828ED6"></path>
                    <path d="M43.5164835,21.7465797 C43.5164835,22.5852998 42.8511814,23.2643678 42.0335036,23.2643678 C41.2147527,23.2643678 40.5494505,22.5852998 40.5494505,21.7465797 C40.5494505,20.9089531 41.2136796,20.2298851 42.0335036,20.2298851 C42.8511814,20.2298851 43.5164835,20.9089531 43.5164835,21.7465797" id="Fill-56" fill="#424244"></path>
                    <path d="M36.261149,47.5402299 C32.7481152,38.0812276 32.7481152,27.6635021 36.261149,18.2068966 L38.5714286,18.9319309 C35.234503,27.9223573 35.234503,37.8247691 38.5714286,46.8151955 L36.261149,47.5402299 Z" id="Fill-58" fill="#3F51B5"></path>
                    <path d="M25.5674601,43.4942529 C23.125865,36.3191261 23.125865,28.4177086 25.5674601,21.2413793 L27.6923077,21.9688725 C25.4102861,28.6750367 25.4102861,36.059393 27.6923077,42.7679622 L25.5674601,43.4942529 Z" id="Fill-60" fill="#3F51B5"></path>
                    <path d="M15.3317627,41.4712644 C13.3509509,36.2517816 13.3509509,30.505585 15.3317627,25.2873563 L17.8021978,26.046075 C16.0027279,30.7739582 16.0027279,35.9834084 17.8008029,40.7137998 L15.3317627,41.4712644 Z" id="Fill-62" fill="#3F51B5"></path>
                </g>
                <g id="Group" transform="translate(43.967033, 66.103448)">
                    <path d="M43.5164835,13.6577635 C43.5164835,21.1966106 37.8285383,27.3103448 30.8111479,27.3103448 C23.7937574,27.3103448 30.8111479,21.1979062 30.8111479,13.6577635 C30.8111479,6.11243866 23.7937574,0 30.8111479,0 C37.8285383,0 43.5164835,6.11243866 43.5164835,13.6577635" id="Fill-34" stroke="#4D5164" stroke-width="1.5" fill="#5B6DD0"></path>
                    <path d="M36.6874341,61.28303 C34.3384658,66.7597562 28.0758154,69.2578218 22.7036731,66.8574172 C17.3302658,64.4621526 24.6086522,62.4189816 26.9614152,56.9422555 C29.3129134,51.4603892 25.8470151,44.6241191 31.2191574,47.0219537 C36.5912997,49.4210733 39.0414621,55.8011637 36.6874341,61.28303" id="Fill-36" stroke="#4D5164" stroke-width="1.5" fill="#5B6DD0"></path>
                    <path d="M30.8099632,27.3103448 C28.4738411,27.3103448 27.6923109,26.6493809 27.6923109,25.4955376 C27.6886815,23.1840595 30.8099632,18.8998 30.8099632,13.9924904 L30.8099632,13.9583679 L30.8099632,13.9545766 L30.8099632,13.9217179 L30.8099632,13.915399 L30.8099632,13.8850679 L30.8099632,13.8800127 L30.8099632,13.8509455 L30.8099632,13.8446265 L30.8099632,13.8142955 C30.8087534,13.8105041 30.8075436,13.8092403 30.8075436,13.8054489 C30.8087534,13.7966024 30.8075436,13.7890196 30.8075436,13.7776455 C30.8087534,13.7738541 30.8075436,13.7713265 30.8075436,13.7687989 C30.8087534,13.7599524 30.8075436,13.7511058 30.8075436,13.7460506 C30.8087534,13.7422593 30.8075436,13.7372041 30.8075436,13.7359403 C30.8087534,13.7270937 30.8075436,13.7182472 30.805124,13.7068731 C30.8063338,13.7030817 30.805124,13.6992903 30.805124,13.6954989 C30.8063338,13.6879162 30.805124,13.6815972 30.805124,13.6727506 C30.8063338,13.6676955 30.805124,13.6639041 30.805124,13.6575851 C30.8063338,13.6512661 30.805124,13.6449472 30.805124,13.639892 C30.8039142,13.6323092 30.8039142,13.6272541 30.8039142,13.6196713 L30.8039142,13.6007144 L30.8039142,13.5842851 L30.8039142,13.5754385 C30.8014946,13.5653282 30.8014946,13.5552178 30.8014946,13.5438437 L30.8014946,13.5387885 C30.8014946,13.5248868 30.799075,13.5109851 30.799075,13.4996109 C30.8002848,13.4983471 30.799075,13.4983471 30.799075,13.4983471 C30.6793049,10.5954138 29.5239467,7.93386496 28.655311,5.7942628 C30.5304996,5.32539546 32.4758566,5.05747126 34.4865428,5.05747126 C36.713783,5.05747126 38.8660156,5.37594719 40.9202546,5.94718179 C42.5171894,8.14744604 43.4838189,10.8747121 43.5164835,13.8446265 L43.5164835,13.8534731 L43.5164835,13.8762214 L43.5164835,13.8939145 L43.5164835,13.9128714 L43.5164835,13.9368834 L43.5164835,13.952049 L43.5164835,13.9924904 C43.5164835,21.3465039 37.828008,27.3103448 30.8099632,27.3103448" id="Fill-40" fill="#3F51B5"></path>
                    <path d="M15.8241758,36.9208357 C15.8241758,44.4589676 10.1354092,50.5747126 3.11821519,50.5747126 C-3.89776898,50.5747126 3.11821519,44.4589676 3.11821519,36.9208357 C3.11821519,29.3762266 -3.89776898,23.2643678 3.11821519,23.2643678 C10.1354092,23.2643678 15.8241758,29.3762266 15.8241758,36.9208357" id="Fill-46" stroke="#4D5164" stroke-width="1.5" fill="#5B6DD0"></path>
                    <path d="M9.38532896,48.5517241 C6.66362209,45.4654312 4.94505495,41.0272909 4.94505495,36.0751936 C4.94633937,31.4776374 6.41958042,27.3175185 8.80605109,24.2758621 C13.3285286,26.2845031 16.5408877,30.6894849 16.7977737,35.8787931 L16.7977737,35.8851698 L16.7977737,35.9145023 L16.7977737,35.9157777 C16.8003425,35.9336322 16.8003425,35.9514868 16.8029114,35.9693414 L16.8029114,35.9820947 L16.8029114,36.0024999 C16.8029114,36.0088766 16.8029114,36.0152532 16.8041958,36.0203545 L16.8041958,36.0382091 L16.8041958,36.0751936 C16.8067647,36.0790196 16.8067647,36.0828456 16.8067647,36.0879469 L16.8067647,36.1121781 L16.8067647,36.1287574 C16.8067647,36.1364093 16.8093335,36.1453366 16.8093335,36.1542639 L16.8093335,36.1657419 L16.8093335,36.2040017 L16.8093335,36.212929 C16.810618,36.2231316 16.810618,36.2333342 16.810618,36.2448122 L16.810618,36.2537395 L16.810618,36.290724 L16.810618,36.2932746 C16.810618,36.3073032 16.810618,36.3200565 16.8131868,36.3340851 L16.8131868,36.3417371 L16.8131868,36.3736203 L16.8131868,36.3838229 L16.8131868,36.4220827 L16.8131868,36.4628932 L16.8131868,36.4730958 L16.8131868,36.5037037 L16.8131868,36.5139063 L16.8131868,36.5547168 L16.8131868,36.5917013 L16.8131868,36.6044546 L16.8131868,36.6299611 L16.8131868,36.6439897 L16.8131868,36.6784236 L16.8131868,36.6950029 L16.8131868,36.7154081 L16.8131868,36.7358133 L16.8131868,36.7523926 C16.8131868,36.7651459 16.8131868,36.7766238 16.810618,36.7881018 L16.810618,36.8034057 L16.810618,36.8276369 L16.810618,36.8352889 C16.7052947,41.9646568 13.7087199,46.3772905 9.38532896,48.5517241" id="Fill-50" fill="#3F51B5"></path>
                    <path d="M45.1678025,34.1662228 L59.3406593,45.3285495 C57.987645,48.5361439 56.0276233,51.423106 53.6046948,53.8494775 C51.1843167,56.275849 48.2997565,58.2378127 45.0976651,59.5915931 C41.8955737,60.9504629 38.3759512,61.7011494 34.6777971,61.7011494 C30.9834687,61.7011494 27.4638461,60.9504629 24.2592043,59.5915931 C21.0583882,58.2365403 18.173828,56.275849 15.7534499,53.8494775 C13.3305213,51.423106 11.3704996,48.5361439 10.0174853,45.3285495 C8.66319576,42.1247721 7.91208791,38.5978179 7.91208791,34.8952794 C7.91336314,31.1965579 8.66319576,27.670876 10.0174853,24.4632816 C11.3704996,21.2569596 13.3305213,18.3687251 15.7534499,15.9436259 C18.173828,13.5185268 21.0583882,11.5565631 24.2592043,10.200238 C27.4638461,8.84264053 30.9821934,8.09195402 34.6777971,8.09195402 C38.3759512,8.09195402 41.8942985,8.84264053 45.0976651,10.200238 C48.2997565,11.5565631 51.1843167,13.5185268 53.6046948,15.9436259 C56.0276233,18.3687251 57.987645,21.2569596 59.3406593,24.4632816 L45.1678025,34.1662228 Z" id="Fill-52" stroke="#4D5164" stroke-width="1.5" fill="#596FCE"></path>
                    <path d="M46.659251,50.5588954 C43.3312239,51.8280706 39.6759468,52.5311818 35.83637,52.5311818 C31.9967932,52.5311818 28.3403347,51.8280706 25.0146705,50.5588954 C21.6878249,49.2873366 18.692955,47.4497138 16.175374,45.1783071 C14.0169412,43.2274715 10.6332277,41.6314437 9.27342677,39.1252694 C9.54515066,41.5527906 10.1464875,43.8778244 11.0502648,46.0431686 C12.3049203,49.0474793 14.7499837,51.7030765 16.993478,53.9756749 C19.2369722,56.2482733 22.7101022,58.0792686 25.6766183,59.3472522 C28.6454972,60.6200026 31.65801,60.6896552 35.5043943,60.6896552 C39.3507787,60.6896552 42.1876208,59.986544 45.1564997,58.7137935 C48.1230158,57.4446182 50.7953612,55.6081871 53.0376741,53.3355887 C55.2811683,51.0629903 57.0969928,48.3589915 58.3516484,45.3546808 L56.6681416,44.0140026 C56.2830025,44.4084599 55.9084961,44.8076841 55.4961846,45.1783071 C52.9809665,47.4497138 49.9860966,49.2873366 46.659251,50.5588954 Z" id="Fill-54" fill="#7886D5"></path>
                    <path d="M44.5054945,22.7580739 C44.5054945,23.596794 43.8401924,24.2758621 43.0225146,24.2758621 C42.2037637,24.2758621 41.5384615,23.596794 41.5384615,22.7580739 C41.5384615,21.9204473 42.2026906,21.2413793 43.0225146,21.2413793 C43.8401924,21.2413793 44.5054945,21.9204473 44.5054945,22.7580739" id="Fill-56" fill="#424244"></path>
                    <path d="M37.25016,50.5747126 C33.7371262,40.4633653 33.7371262,29.327176 37.25016,19.2183908 L39.5604396,19.9934276 C36.223514,29.6038834 36.223514,40.1892201 39.5604396,49.7996759 L37.25016,50.5747126 Z" id="Fill-58" fill="#3F51B5"></path>
                    <path d="M26.5564711,45.5172414 C24.1148759,38.0159725 24.1148759,29.7553996 26.5564711,22.2528736 L28.6813187,23.0134346 C26.3992971,30.0244245 26.3992971,37.7444333 28.6813187,44.7579375 L26.5564711,45.5172414 Z" id="Fill-60" fill="#3F51B5"></path>
                    <path d="M15.3317627,42.4827586 C13.3509509,37.2632758 13.3509509,31.5170793 15.3317627,26.2988506 L17.8021978,27.0575692 C16.0027279,31.7854525 16.0027279,36.9949026 17.8008029,41.725294 L15.3317627,42.4827586 Z" id="Fill-62" fill="#3F51B5"></path>
                </g>
            </g>
        </g>
    </g>
</svg>