<svg xmlns="http://www.w3.org/2000/svg" xmlns:xlink="http://www.w3.org/1999/xlink" width="659" height="115" viewBox="0 0 659 115">
  <defs>
    <linearGradient id="分组-7-a" x1="64.065%" x2="32.171%" y1="11.067%" y2="100%">
      <stop offset="0%" stop-color="#96ABF4"/>
      <stop offset="100%" stop-color="#5D72E5"/>
    </linearGradient>
    <linearGradient id="分组-7-d" x1="80.126%" x2="40.29%" y1="100%" y2="50%">
      <stop offset="0%" stop-color="#FFF0AA"/>
      <stop offset="100%" stop-color="#FFF"/>
    </linearGradient>
    <path id="分组-7-c" d="M65.8011038,24.927873 L57.5404324,39.1997032 C55.324519,43.0281012 51.2293423,45.3864917 46.7975157,45.3864917 L29.7974216,45.3864917 L29.7974216,23.0819688 C29.7974216,17.0889002 34.6900425,12.2305583 40.7253962,12.2305583 C42.6436564,12.2305583 44.5281215,12.7319614 46.1893835,13.6843716 L65.8011038,24.927873 Z"/>
    <filter id="分组-7-b" width="322.2%" height="341.3%" x="-83.3%" y="-181%" filterUnits="objectBoundingBox">
      <feOffset dx="10" dy="-20" in="SourceAlpha" result="shadowOffsetOuter1"/>
      <feGaussianBlur in="shadowOffsetOuter1" result="shadowBlurOuter1" stdDeviation="10"/>
      <feColorMatrix in="shadowBlurOuter1" values="0 0 0 0 0   0 0 0 0 0   0 0 0 0 0  0 0 0 0.12 0"/>
    </filter>
    <linearGradient id="分组-7-f" x1="0%" x2="92.314%" y1="5.817%" y2="100%">
      <stop offset="0%" stop-color="#0028FF" stop-opacity="0"/>
      <stop offset="100%" stop-color="#FFF" stop-opacity=".6"/>
    </linearGradient>
    <linearGradient id="分组-7-h" x1="47.021%" x2="25.905%" y1="9.768%" y2="50%">
      <stop offset="0%" stop-color="#3851DC" stop-opacity=".2"/>
      <stop offset="100%" stop-color="#FFAE00" stop-opacity="0"/>
    </linearGradient>
    <path id="分组-7-g" d="M78.4095104,93.6043429 L54.9794517,93.6827509 L30.807959,54.0176772 L49.274022,54.127638 C54.0281686,54.127638 58.4211812,56.7219935 60.7982545,60.9334358 L79.0555783,93.2797952 C79.1116026,93.379053 79.1663065,93.4788537 79.21969,93.5791716 C78.9510116,93.5958919 78.6808492,93.6043429 78.4095104,93.6043429 Z"/>
    <filter id="分组-7-e" width="273.5%" height="311.8%" x="-86.8%" y="-105.9%" filterUnits="objectBoundingBox">
      <feGaussianBlur in="SourceGraphic" stdDeviation="14"/>
    </filter>
    <radialGradient id="分组-7-i" cx="0%" cy="66.609%" r="75.259%" fx="0%" fy="66.609%" gradientTransform="matrix(.808 .44368 -.40438 .90593 .27 .063)">
      <stop offset="0%" stop-color="#3851DC"/>
      <stop offset="62.371%" stop-color="#455BD6"/>
      <stop offset="100%" stop-color="#7E90F0"/>
    </radialGradient>
    <path id="分组-7-j" d="M63.7243861,83.798305 L29.5783026,83.798305 C25.1399239,83.798305 21.0386929,81.4362761 18.8195035,77.6019717 L1.77482134,48.1522544 C-0.44436802,44.31795 -0.44436802,39.5938923 1.77482134,35.7595879 L18.8195035,6.30987055 C21.0386929,2.47556618 25.1399239,0.113537287 29.5783026,0.113537287 L63.667667,0.113537287 L63.7243861,0.113537287 C68.1627648,0.113537287 72.2639958,2.47556618 74.4831852,6.30987055 L91.5278674,35.7595879 C93.7470567,39.5938923 93.7470567,44.31795 91.5278674,48.1522544 L74.4831852,77.6019717 C72.2639958,81.4362761 68.1627648,83.798305 63.7243861,83.798305 Z"/>
    <radialGradient id="分组-7-k" cx="11.734%" cy="54.732%" r="93.012%" fx="11.734%" fy="54.732%" gradientTransform="matrix(.7921 .53876 -.6104 .69915 .359 .102)">
      <stop offset="0%" stop-color="#3851DC"/>
      <stop offset="100%" stop-color="#7E90F0"/>
    </radialGradient>
    <linearGradient id="分组-7-m" x1="85.642%" x2="85.642%" y1="19.6%" y2="88.598%">
      <stop offset="0%" stop-color="#C8C8C8" stop-opacity="0"/>
      <stop offset="100%" stop-color="#3851DC"/>
    </linearGradient>
    <linearGradient id="分组-7-n" x1="0%" x2="89.376%" y1="62.303%" y2="31.228%">
      <stop offset="0%" stop-color="#3851DC"/>
      <stop offset="100%" stop-color="#8092F0"/>
    </linearGradient>
    <radialGradient id="分组-7-o" cx="0%" r="41.503%" fx="0%" fy="50%" gradientTransform="matrix(0 -.84525 1.46679 0 -.733 .5)">
      <stop offset="0%" stop-color="#9FAEFF"/>
      <stop offset="100%" stop-color="#9FAEFF" stop-opacity=".3"/>
    </radialGradient>
  </defs>
  <g fill="none" fill-rule="evenodd" transform="translate(5 -18)">
    <g transform="rotate(120 58.072 67.724)">
      <path fill="url(#分组-7-a)" fill-rule="nonzero" d="M82.6317096,93.6222005 C82.3335507,93.6402929 82.0337449,93.6494374 81.7326336,93.6494374 L41.211442,93.6494374 C35.9356501,93.6494374 31.0606173,90.8421845 28.4227213,86.2851437 L8.16212553,51.2843849 C8.099954,51.1769818 8.03924776,51.0689913 7.98000682,50.9604411 C8.27816575,50.9423487 8.57797156,50.9332042 8.87908281,50.9332042 L49.4002744,50.9332042 C54.6760663,50.9332042 59.5510991,53.740457 62.1889951,58.2974978 L82.4495909,93.2982566 C82.5117624,93.4056597 82.5724687,93.5136502 82.6317096,93.6222005 Z"/>
      <path fill="url(#分组-7-a)" fill-rule="nonzero" d="M75.1446995,93.7977506 C74.8944734,93.8131722 74.6428653,93.8209668 74.3901616,93.8209668 L40.383276,93.8209668 C35.9556359,93.8209668 31.8643277,91.4281179 29.6505077,87.5437832 L12.6470649,57.709803 C12.5948882,57.6182547 12.5439413,57.5262056 12.4942241,57.4336795 C12.7444501,57.4182579 12.9960583,57.4104633 13.248762,57.4104633 L47.2556476,57.4104633 C51.6832877,57.4104633 55.7745959,59.8033121 57.9884159,63.6876469 L74.9918587,93.521627 C75.0440353,93.6131754 75.0949823,93.7052244 75.1446995,93.7977506 Z"/>
      <path fill="#FFC039" fill-rule="nonzero" d="M57.7210253,39.7318108 C55.4556126,43.7334826 51.2689572,46.1986141 46.7381318,46.1986141 L11.9387219,46.1986141 C11.7475339,46.1986141 11.5569588,46.1942247 11.367115,46.1855156 C11.4061329,46.1134584 11.4458735,46.0416868 11.4863369,45.9702115 L28.8860418,15.2350136 C31.1514546,11.2333418 35.3381099,8.76821028 39.8689354,8.76821028 C63.3230507,8.77113655 75.1133897,8.77550271 75.2399522,8.78130875 C75.2139403,8.82934692 69.374298,19.1461809 57.7210253,39.7318108 Z"/>
      <path fill="#FFC039" d="M95.272877,61.007205 L46.0017014,89.3455565 C40.8080838,92.3326693 34.1670307,90.5599838 31.1684942,85.3861526 C30.2154476,83.7417164 29.7137094,81.8763378 29.7137094,79.9775064 L29.7137094,23.3008034 C29.7137094,17.3265777 34.5752977,12.4835109 40.5723707,12.4835109 C42.4784639,12.4835109 44.3509762,12.9833376 46.0017014,13.9327533 L95.272877,42.2711048 C100.466495,45.2582176 102.245959,51.8739699 99.2474229,57.0478011 C98.2943763,58.6922374 96.9236021,60.0577893 95.272877,61.007205 Z"/>
      <g fill-rule="nonzero">
        <use fill="#000" filter="url(#分组-7-b)" xlink:href="#分组-7-c"/>
        <use fill="url(#分组-7-d)" xlink:href="#分组-7-c"/>
      </g>
      <g fill-rule="nonzero" filter="url(#分组-7-e)">
        <use fill="url(#分组-7-f)" xlink:href="#分组-7-g"/>
        <use fill="url(#分组-7-h)" xlink:href="#分组-7-g"/>
      </g>
      <path fill="url(#分组-7-i)" fill-rule="nonzero" d="M74.0062397,9.41522505 L39.9168754,9.41522505 C35.4784967,9.41522505 31.3772656,11.7772539 29.1580762,15.6115583 L12.1133941,45.0612756 C9.89420472,48.89558 9.89420472,53.6196378 12.1133941,57.4539422 L29.1580762,86.9036595 C31.3772656,90.7379639 35.4784967,93.0999928 39.9168754,93.0999928 L74.0062397,93.0999928 C78.4446184,93.0999928 82.9433009,89.4027474 84.1788837,87.4807692 C84.136735,87.4129373 84.0951792,87.3446394 84.0542252,87.2758806 L66.4435448,57.708825 C64.1506634,53.8592433 64.0925206,49.1498205 66.2910182,45.3545505 L84.0325581,15.7245374 C84.1253285,15.5643878 84.2215223,15.4068926 84.3210229,15.252117 C83.8864409,14.5527235 83.5387697,13.9875361 83.2766363,13.5576202 C80.9460953,10.9516094 77.5858166,9.41522505 74.0062397,9.41522505 Z M77.8204343,0.0139185182 C83.2520167,0.0139185182 87.959346,3.086888 90.6751371,7.7841454 L111.563988,43.8446026 C114.279779,48.54186 114.561465,54.1670282 111.845674,58.8642857 L90.9867969,94.9419909 C88.2710057,99.6392483 83.2520167,102.532878 77.8204343,102.532878 L36.1026808,102.532878 C30.6710984,102.532878 25.6521094,99.6392483 22.9363182,94.9419909 L2.07744141,58.8642857 C-0.638349764,54.1670282 -0.638349764,48.3797685 2.07744141,43.6825111 L22.9363182,7.60480581 C25.6521094,2.90754841 30.6710984,0.0139185182 36.1026808,0.0139185182 L77.8204343,0.0139185182 Z"/>
      <path fill="url(#分组-7-i)" fill-rule="nonzero" d="M73.9656417,9.40130653 L39.8762773,9.40130653 C35.4378986,9.40130653 31.3366676,11.7633354 29.1174782,15.5976398 L12.072796,45.0473571 C9.85360669,48.8816615 9.85360669,53.6057193 12.072796,57.4400237 L29.1174782,86.889741 C31.3366676,90.7240454 35.4378986,93.0860743 39.8762773,93.0860743 L73.9656417,93.0860743 C78.4040204,93.0860743 82.9027029,89.3888289 84.1382857,87.4668507 C84.096137,87.3990188 84.0545812,87.3307209 84.0136272,87.2619621 L66.4029468,57.6949064 C64.1100654,53.8453248 64.0519226,49.135902 66.2504202,45.340632 L83.9919601,15.7106189 C84.0847304,15.5504693 84.1809242,15.3929741 84.2804248,15.2381985 C83.8458428,14.538805 83.4981716,13.9736176 83.2360383,13.5437017 C80.9054973,10.9376909 77.5452185,9.40130653 73.9656417,9.40130653 Z M77.7798363,-5.00988671e-11 C83.2114187,-5.00988671e-11 87.9187479,3.07296948 90.6345391,7.77022688 L111.52339,43.830684 C114.239181,48.5279414 114.520867,54.1531097 111.805076,58.8503671 L90.9461989,94.9280724 C88.2304077,99.6253298 83.2114187,102.51896 77.7798363,102.51896 L36.0620827,102.51896 C30.6305004,102.51896 25.6115113,99.6253298 22.8957202,94.9280724 L2.03684338,58.8503671 C-0.678947793,54.1531097 -0.678947793,48.36585 2.03684338,43.6685926 L22.8957202,7.59088729 C25.6115113,2.89362989 30.6305004,-5.01132637e-11 36.0620827,-5.01132637e-11 L77.7798363,-5.00988671e-11 Z"/>
      <path fill="#3851DC" fill-rule="nonzero" d="M85.1687882,2.13358391 C88.5631184,4.18542832 89.4028101,5.63981714 90.6345391,7.77022688 L111.52339,43.830684 C114.239181,48.5279414 114.520867,54.1531097 111.805076,58.8503671 L90.9461989,94.9280724 C89.6315477,97.2019051 87.7771877,99.0530934 85.5975772,100.357994 C82.1024937,95.9338574 69.7556993,71.9136849 58.8338002,51.0824104 C67.2121304,33.9745196 82.6035514,6.682289 85.1687882,2.13358391 Z"/>
      <g transform="translate(10.312 9.287)">
        <mask id="分组-7-l" fill="#fff">
          <use xlink:href="#分组-7-j"/>
        </mask>
        <use fill="#FFF" fill-opacity=".01" fill-rule="nonzero" xlink:href="#分组-7-j"/>
        <path fill="url(#分组-7-k)" fill-opacity=".9" fill-rule="nonzero" d="M36.3214963,36.2551789 C40.7669992,36.2551789 44.8748133,33.8685872 47.0975648,29.99441 C62.1213276,3.94798423 69.6457919,-9.09814302 69.6709578,-9.14397177 C73.8098891,-8.98134382 77.6028118,-6.75365067 79.7780421,-3.19972578 C79.7542349,-3.15978546 72.2329553,9.87814795 57.2142033,35.9140745 C54.9914518,39.7882517 54.936808,44.5930382 57.1595595,48.4672154 C72.0804397,74.3598566 79.561537,87.3399272 79.6028513,87.4074272 C77.5376737,90.8720889 74.0359095,92.8938334 69.6994223,93.1251746 C69.6383338,93.0057308 62.2336206,80.045956 47.4852826,54.2458502 C45.2625312,50.3716729 41.154717,47.9850813 36.7092141,47.9850813 C6.47967817,48.0059391 -8.75066452,48.026179 -8.981814,48.045801 C-10.875815,44.3425368 -11.0761342,39.9746614 -9.06660621,36.315182 C-8.95871127,36.3194214 6.17065622,36.2994204 36.3214963,36.2551789 Z" mask="url(#分组-7-l)"/>
        <path fill="url(#分组-7-m)" fill-opacity=".9" fill-rule="nonzero" d="M50.1525998,-21.9431497 C53.0738773,-20.0013317 53.0738773,-19.6877737 54.1890531,-17.8559563 C54.165198,-17.8159134 46.6278248,-4.99420675 31.5769334,20.6091638 C29.3493772,24.4930834 29.338375,29.2718636 31.5480713,33.1453841 C46.6009771,59.5674713 54.1479711,72.8122561 54.1890531,72.8797385 C53.4686372,74.0890205 52.1912727,75.3151786 50.3569594,76.5582127 C41.6376134,61.8990474 32.5908083,46.5850444 23.2165442,30.6162036 C22.277888,28.717761 22.2954782,25.510959 23.2326072,23.639284 C38.3705291,-2.44348447 39.8265411,-3.6858457 50.1525998,-21.9431497 Z" mask="url(#分组-7-l)" transform="scale(-1 1) rotate(-60 0 93.74)"/>
        <path fill="#3851DC" fill-rule="nonzero" d="M75.0684591,-7.69187113 C77.1077944,-6.53262074 78.6901479,-4.97839511 79.8155196,-3.02919422 C79.7915151,-2.98918919 72.3024079,10.0155781 57.348198,35.9851078 C55.1070285,39.8655619 55.1070285,44.6464784 57.348198,48.5269325 C72.2670937,74.254953 79.7473699,87.1527679 79.7890265,87.2203773 C79.253849,88.4732591 77.7619648,89.8852053 75.3133739,91.4562161 C66.9415309,77.0276298 58.1457688,61.8679155 48.9260875,45.977073 C47.9734733,44.0755706 47.5417061,41.1416399 48.4840094,39.2713153 C57.7773747,23.1496305 66.638858,7.49523498 75.0684591,-7.69187113 Z" mask="url(#分组-7-l)"/>
      </g>
      <g transform="translate(65.31 30.747)">
        <path fill="url(#分组-7-n)" d="M1.9042612,27.0413223 C-0.317085638,23.1839869 -0.317085638,18.4315537 1.9042612,14.5742183 L10.2972036,-1.25099044e-11 L30.2464091,11.4952442 C35.485995,14.5144281 37.2812097,21.2012102 34.2561334,26.4305901 C33.2946515,28.0926818 31.9117446,29.4728949 30.2464091,30.432504 L10.4321999,41.8499598 L1.9042612,27.0413223 Z"/>
        <path fill="url(#分组-7-o)" d="M30.0291643,12.1547219 L10.6358845,1.01157792 L2.47682882,15.1393868 C0.317384404,18.8785717 0.317384404,23.4854375 2.47682882,27.2246225 L10.6879842,41.4426446 L10.245921,41.6977247 L1.79619253,27.0046259 C-0.404782184,23.1773858 -0.404782184,18.4620316 1.79619253,14.6347916 L10.1121627,0.174282966 L29.8784127,11.57984 C32.99366,13.3774056 34.8800474,16.4852804 35.2430089,19.8047551 C34.7873975,16.7079597 32.9641496,13.841129 30.0291643,12.1547219 Z"/>
      </g>
    </g>
    <path fill="#282828" stroke="#282828" d="M56.4277929,49.0790191 C50.640298,56.5340972 42.6948734,60.2615804 32.5912807,60.2615804 C24.057178,60.2615804 17.0681471,57.5640597 11.6239782,52.1689373 C6.17980929,46.773815 3.45776567,39.9564445 3.45776567,31.7166213 C3.45776567,26.6157783 4.72069582,21.9073785 7.24659401,17.5912807 C9.77249219,13.2751828 13.2670077,9.89102044 17.7302452,7.4386921 C22.1934828,4.98636376 27.0122357,3.76021798 32.1866485,3.76021798 C37.3610613,3.76021798 41.9958923,4.75339606 46.0912807,6.73978202 C50.186669,8.72616797 53.6076157,11.6321335 56.3542234,15.4577657 L51.4986376,19.2098093 C46.3977947,13.0299419 40.0954054,9.9400545 32.5912807,9.9400545 C26.4604598,9.9400545 21.1757715,12.0980711 16.7370572,16.4141689 C12.2983429,20.7302668 10.0790191,26.0149551 10.0790191,32.2683924 C10.0790191,38.5218296 12.2492971,43.7452106 16.5899183,47.9386921 C20.9305394,52.1321736 26.5585485,54.2288828 33.4741144,54.2288828 C40.3896804,54.2288828 46.3977947,51.2616101 51.4986376,45.3269755 L56.4277929,49.0790191 Z M100.054496,58.9373297 L93.9482289,58.9373297 L93.9482289,39.8092643 C93.9482289,36.0817252 93.8378758,33.4577733 93.6171662,31.9373297 C93.3964567,30.4168861 92.8937369,28.9822956 92.1089918,27.633515 C91.3242468,26.2847344 90.2574999,25.2547719 88.9087193,24.5435967 C87.5599388,23.8324215 85.9414263,23.4768392 84.0531335,23.4768392 C82.1648407,23.4768392 80.3624064,23.9182517 78.6457766,24.8010899 C76.9291467,25.6839281 75.4577718,26.9100739 74.2316076,28.479564 C73.0054435,30.0490542 72.1594029,31.7166124 71.6934605,33.4822888 C71.2275181,35.2479652 70.9945504,38.7792651 70.9945504,44.0762943 L70.9945504,58.9373297 L64.8882834,58.9373297 L64.8882834,3.76021798 L70.9945504,3.76021798 L70.9945504,24.8746594 C74.9673223,20.166189 79.6757221,17.8119891 85.119891,17.8119891 C88.0136384,17.8119891 90.6375904,18.559938 92.9918256,20.0558583 C95.3460608,21.5517786 97.1117107,23.6117035 98.2888283,26.2356948 C99.4659459,28.8596861 100.054496,32.8937057 100.054496,38.3378747 L100.054496,58.9373297 Z M128.820163,17.8119891 C134.607658,17.8119891 139.524503,19.8964369 143.570845,24.0653951 C147.617186,28.2343533 149.640327,33.237028 149.640327,39.0735695 C149.640327,44.9101109 147.641709,49.9005242 143.644414,54.0449591 C139.647119,58.189394 134.705751,60.2615804 128.820163,60.2615804 C122.934575,60.2615804 117.980947,58.189394 113.959128,54.0449591 C109.93731,49.9005242 107.926431,44.9101109 107.926431,39.0735695 C107.926431,33.237028 109.949571,28.2343533 113.995913,24.0653951 C118.042255,19.8964369 122.983622,17.8119891 128.820163,17.8119891 Z M128.820163,54.4495913 C132.891029,54.4495913 136.361021,52.9659549 139.230245,49.9986376 C142.099469,47.0313203 143.53406,43.4509746 143.53406,39.2574932 C143.53406,35.0640117 142.074946,31.4346202 139.156676,28.3692098 C136.238405,25.3037994 132.780674,23.7711172 128.783379,23.7711172 C124.786084,23.7711172 121.340614,25.3037994 118.446866,28.3692098 C115.553119,31.4346202 114.106267,35.0762732 114.106267,39.2942779 C114.106267,43.5122827 115.504073,47.0926283 118.299728,50.0354223 C121.095382,52.9782163 124.602159,54.4495913 128.820163,54.4495913 Z M197.46049,39.9564033 L162.294278,39.9564033 C162.539511,44.3705943 164.023147,47.9141556 166.745232,50.5871935 C169.467316,53.2602313 172.716602,54.5967302 176.493188,54.5967302 C182.918288,54.5967302 187.822871,51.4332741 191.207084,45.106267 L196.356948,47.7547684 C194.05176,52.0218197 191.329716,55.1730143 188.190736,57.2084469 C185.051755,59.2438794 181.299749,60.2615804 176.934605,60.2615804 C170.901877,60.2615804 165.923725,58.189394 162,54.0449591 C158.076275,49.9005242 156.114441,44.9101109 156.114441,39.0735695 C156.114441,33.237028 158.088536,28.2343533 162.036785,24.0653951 C165.985033,19.8964369 170.877355,17.8119891 176.713896,17.8119891 C182.550438,17.8119891 187.430498,19.7860838 191.354223,23.7343324 C195.277949,27.682581 197.313351,33.0898839 197.46049,39.9564033 Z M190.692098,34.5858311 C189.9564,31.1525714 188.288841,28.4795736 185.689373,26.5667575 C183.089905,24.6539414 180.09811,23.6975477 176.713896,23.6975477 C169.847377,23.6975477 165.286115,27.3269392 163.029973,34.5858311 L190.692098,34.5858311 Z M222.694823,19.4305177 L219.531335,24.5803815 C218.697544,24.1389624 217.888287,23.9182561 217.103542,23.9182561 C215.583099,23.9182561 214.209815,24.6662051 212.983651,26.1621253 C211.757487,27.6580456 210.837878,29.6198789 210.224796,32.0476839 C209.611714,34.475489 209.305177,38.8528294 209.305177,45.1798365 L209.305177,58.9373297 L203.125341,58.9373297 L203.125341,18.8419619 L209.305177,18.8419619 L209.305177,23.1825613 C210.531341,21.3678383 211.769749,20.019078 213.020436,19.1362398 C214.271123,18.2534016 215.693453,17.8119891 217.287466,17.8119891 C218.881479,17.8119891 220.683914,18.3514932 222.694823,19.4305177 Z M246.972752,17.8119891 C252.760247,17.8119891 257.677091,19.8964369 261.723433,24.0653951 C265.769775,28.2343533 267.792916,33.237028 267.792916,39.0735695 C267.792916,44.9101109 265.794298,49.9005242 261.797003,54.0449591 C257.799708,58.189394 252.85834,60.2615804 246.972752,60.2615804 C241.087164,60.2615804 236.133535,58.189394 232.111717,54.0449591 C228.089898,49.9005242 226.079019,44.9101109 226.079019,39.0735695 C226.079019,33.237028 228.10216,28.2343533 232.148501,24.0653951 C236.194843,19.8964369 241.136211,17.8119891 246.972752,17.8119891 Z M246.972752,54.4495913 C251.043617,54.4495913 254.51361,52.9659549 257.382834,49.9986376 C260.252058,47.0313203 261.686649,43.4509746 261.686649,39.2574932 C261.686649,35.0640117 260.227535,31.4346202 257.309264,28.3692098 C254.390994,25.3037994 250.933262,23.7711172 246.935967,23.7711172 C242.938672,23.7711172 239.493202,25.3037994 236.599455,28.3692098 C233.705708,31.4346202 232.258856,35.0762732 232.258856,39.2942779 C232.258856,43.5122827 233.656662,47.0926283 236.452316,50.0354223 C239.24797,52.9782163 242.754747,54.4495913 246.972752,54.4495913 Z M316.128065,58.9373297 L310.168937,58.9373297 L310.168937,53.0517711 C305.803793,57.8583347 300.764334,60.2615804 295.050409,60.2615804 C289.336484,60.2615804 284.468685,58.1771326 280.446866,54.0081744 C276.425048,49.8392162 274.414169,44.8365414 274.414169,39 C274.414169,33.1634586 276.449571,28.1730452 280.520436,24.0286104 C284.591301,19.8841755 289.557191,17.8119891 295.418256,17.8119891 C301.279321,17.8119891 306.196165,20.1907119 310.168937,24.9482289 L310.168937,3.76021798 L316.128065,3.76021798 L316.128065,58.9373297 Z M295.52861,54.5967302 C299.403289,54.5967302 302.86102,53.1498782 305.901907,50.2561308 C308.942794,47.3623834 310.463215,43.6962075 310.463215,39.2574932 C310.463215,34.8187789 309.053148,31.1158187 306.23297,28.1485014 C303.412792,25.1811841 299.85697,23.6975477 295.565395,23.6975477 C291.273821,23.6975477 287.693475,25.2302299 284.824251,28.2956403 C281.955027,31.3610507 280.520436,34.9659193 280.520436,39.1103542 C280.520436,43.2547891 281.991811,46.8719192 284.934605,49.9618529 C287.877399,53.0517866 291.408699,54.5967302 295.52861,54.5967302 Z M345.555858,17.8119891 C351.343353,17.8119891 356.260198,19.8964369 360.30654,24.0653951 C364.352881,28.2343533 366.376022,33.237028 366.376022,39.0735695 C366.376022,44.9101109 364.377404,49.9005242 360.380109,54.0449591 C356.382814,58.189394 351.441446,60.2615804 345.555858,60.2615804 C339.67027,60.2615804 334.716641,58.189394 330.694823,54.0449591 C326.673004,49.9005242 324.662125,44.9101109 324.662125,39.0735695 C324.662125,33.237028 326.685266,28.2343533 330.731608,24.0653951 C334.777949,19.8964369 339.719317,17.8119891 345.555858,17.8119891 Z M345.555858,54.4495913 C349.626723,54.4495913 353.096716,52.9659549 355.96594,49.9986376 C358.835164,47.0313203 360.269755,43.4509746 360.269755,39.2574932 C360.269755,35.0640117 358.810641,31.4346202 355.892371,28.3692098 C352.9741,25.3037994 349.516369,23.7711172 345.519074,23.7711172 C341.521778,23.7711172 338.076309,25.3037994 335.182561,28.3692098 C332.288814,31.4346202 330.841962,35.0762732 330.841962,39.2942779 C330.841962,43.5122827 332.239768,47.0926283 335.035422,50.0354223 C337.831077,52.9782163 341.337854,54.4495913 345.555858,54.4495913 Z M409.855586,58.9373297 L403.822888,58.9373297 L403.822888,39.8092643 C403.822888,35.3950733 403.614444,32.3910161 403.197548,30.7970027 C402.780652,29.2029893 402.167579,27.854229 401.358311,26.7506812 C400.549042,25.6471334 399.51908,24.8256158 398.268392,24.2861035 C397.017705,23.7465913 395.497284,23.4768392 393.707084,23.4768392 C391.916885,23.4768392 390.163496,23.9182517 388.446866,24.8010899 C386.730237,25.6839281 385.258862,26.9100739 384.032698,28.479564 C382.806533,30.0490542 381.960493,31.7166124 381.49455,33.4822888 C381.028608,35.2479652 380.79564,38.7792651 380.79564,44.0762943 L380.79564,58.9373297 L374.689373,58.9373297 L374.689373,18.8419619 L380.79564,18.8419619 L380.79564,24.8746594 C384.768412,20.166189 389.476812,17.8119891 394.920981,17.8119891 C397.814728,17.8119891 400.43868,18.559938 402.792916,20.0558583 C405.147151,21.5517786 406.912801,23.6117035 408.089918,26.2356948 C409.267036,28.8596861 409.855586,32.8937057 409.855586,38.3378747 L409.855586,58.9373297 Z M474.964578,37.4550409 C474.964578,42.8992098 474.412812,47.0803669 473.309264,49.9986376 C472.205717,52.9169083 470.243883,55.3569384 467.423706,57.3188011 C464.603528,59.2806638 461.305196,60.2615804 457.52861,60.2615804 C454.53677,60.2615804 451.839249,59.7833835 449.435967,58.8269755 C447.032686,57.8705674 445.034068,56.5218071 443.440054,54.780654 C441.846041,53.0395008 440.705726,51.1021905 440.019074,48.9686649 C439.332422,46.8351392 438.989101,42.9973029 438.989101,37.4550409 L438.989101,5.08446866 L445.316076,5.08446866 L445.316076,37.4550409 C445.316076,40.9373471 445.414168,43.450946 445.610354,44.9959128 C445.80654,46.5408797 446.370568,48.0367775 447.302452,49.4836512 C448.234337,50.9305249 449.570836,52.083102 451.311989,52.9414169 C453.053142,53.7997318 455.027237,54.2288828 457.234332,54.2288828 C459.882847,54.2288828 462.17574,53.456411 464.113079,51.9114441 C466.050418,50.3664773 467.301087,48.5763045 467.865123,46.5408719 C468.429158,44.5054394 468.711172,41.4768593 468.711172,37.4550409 L468.711172,5.08446866 L474.964578,5.08446866 L474.964578,37.4550409 Z M492.547684,58.9373297 L486.220708,58.9373297 L486.220708,5.08446866 L492.547684,5.08446866 L492.547684,58.9373297 Z" transform="translate(160.422 38.01)"/>
  </g>
</svg>
