<?xml version="1.0" encoding="UTF-8"?>
<svg width="932px" height="185px" viewBox="0 0 932 185" version="1.1" xmlns="http://www.w3.org/2000/svg" xmlns:xlink="http://www.w3.org/1999/xlink">
    <!-- Generator: Sketch 59 (86127) - https://sketch.com -->
    <title>16-Table-style6</title>
    <desc>Created with Sketch.</desc>
    <g id="页面-1" stroke="none" stroke-width="1" fill="none" fill-rule="evenodd">
        <g id="列表样式-英文" transform="translate(-130.000000, -1700.000000)">
            <rect fill="#FFFFFF" x="0" y="0" width="2323" height="2300"></rect>
            <g id="编组-7" transform="translate(78.000000, 1648.000000)">
                <rect id="矩形" fill-opacity="0.01" fill="#FFFFFF" x="0" y="0" width="1000" height="290"></rect>
                <rect id="矩形" stroke="#B8D7FF" fill="#EFF6FF" x="58.5" y="94.5" width="87" height="25" rx="2"></rect>
                <rect id="矩形备份" stroke="#B8D7FF" fill="#EFF6FF" x="159.5" y="94.5" width="127" height="25" rx="2"></rect>
                <rect id="矩形备份-2" stroke="#B8D7FF" fill="#EFF6FF" x="300.5" y="94.5" width="187" height="25" rx="2"></rect>
                <rect id="矩形备份-2" stroke="#B8D7FF" fill="#EFF6FF" x="501.5" y="94.5" width="265" height="25" rx="2"></rect>
                <rect id="矩形备份-3" stroke="#B8D7FF" fill="#EFF6FF" x="780.5" y="94.5" width="83" height="25" rx="2"></rect>
                <g id="编组-2" transform="translate(848.000000, 102.000000)">
                    <rect id="矩形" fill="#D8D8D8" opacity="0.01" x="0" y="0" width="10" height="10"></rect>
                    <path d="M3.07437422,1.34394406 C3.3505166,1.34394406 3.57437422,1.56780169 3.57437422,1.84394406 L3.57437422,5.34394406 L7.07437422,5.34394406 C7.3505166,5.34394406 7.57437422,5.56780169 7.57437422,5.84394406 C7.57437422,6.12008644 7.3505166,6.34394406 7.07437422,6.34394406 L3.07437422,6.34394406 L3.07437422,6.34394406 C2.79823185,6.34394406 2.57437422,6.12008644 2.57437422,5.84394406 L2.57437422,1.84394406 C2.57437422,1.56780169 2.79823185,1.34394406 3.07437422,1.34394406 Z" id="矩形-2" fill="#666666" transform="translate(5.074374, 3.843944) rotate(-45.000000) translate(-5.074374, -3.843944) "></path>
                </g>
                <rect id="Rectangle" fill="#F7F7F7" x="52" y="52" width="932" height="37" rx="2"></rect>
                <text id="Title" font-family="PingFangSC-Medium, PingFang SC" font-size="12" font-weight="400" fill="#5A6677">
                    <tspan x="68" y="75">Title</tspan>
                </text>
                <text id="management" font-family="PingFangSC-Medium, PingFang SC" font-size="12" font-weight="400" fill="#333333">
                    <tspan x="68" y="111">management</tspan>
                </text>
                <text id="2020005201655" font-family="PingFangSC-Medium, PingFang SC" font-size="12" font-weight="400" fill="#333333">
                    <tspan x="169" y="111">2020005201655</tspan>
                </text>
                <text id="Material-name" font-family="PingFangSC-Medium, PingFang SC" font-size="12" font-weight="400" fill="#333333">
                    <tspan x="310" y="111">Material name</tspan>
                </text>
                <text id="Explanatory-copy" font-family="PingFangSC-Medium, PingFang SC" font-size="12" font-weight="400" fill="#333333">
                    <tspan x="512" y="111">Explanatory copy</tspan>
                </text>
                <text id="XX" font-family="PingFangSC-Medium, PingFang SC" font-size="12" font-weight="400" fill="#333333">
                    <tspan x="790" y="111">XX</tspan>
                </text>
                <text id="Coding" font-family="PingFangSC-Medium, PingFang SC" font-size="12" font-weight="400" fill="#5A6677">
                    <tspan x="169" y="75">Coding</tspan>
                </text>
                <path d="M280.714286,70 L280.714286,73.7423703 L278.060692,75.4896965 C277.830059,75.6415623 277.519983,75.5777093 277.368117,75.3470767 C277.314363,75.2654422 277.285714,75.1698425 277.285714,75.0720993 L277.285714,70 L280.714286,70 Z M273.68341,64.8200922 C273.506628,64.6079538 273.53529,64.2926714 273.747429,64.1158894 C273.837286,64.0410081 273.950553,64 274.067521,64 L283.932479,64 C284.208622,64 284.432479,64.2238576 284.432479,64.5 C284.432479,64.6169683 284.391471,64.7302347 284.31659,64.8200922 L280.714286,69.1428571 L277.285714,69.1428571 L273.68341,64.8200922 Z" id="Rectangle-2" fill="#5A6677" opacity="0.5"></path>
                <path d="M481.714286,70 L481.714286,73.7423703 L479.060692,75.4896965 C478.830059,75.6415623 478.519983,75.5777093 478.368117,75.3470767 C478.314363,75.2654422 478.285714,75.1698425 478.285714,75.0720993 L478.285714,70 L481.714286,70 Z M474.68341,64.8200922 C474.506628,64.6079538 474.53529,64.2926714 474.747429,64.1158894 C474.837286,64.0410081 474.950553,64 475.067521,64 L484.932479,64 C485.208622,64 485.432479,64.2238576 485.432479,64.5 C485.432479,64.6169683 485.391471,64.7302347 485.31659,64.8200922 L481.714286,69.1428571 L478.285714,69.1428571 L474.68341,64.8200922 Z" id="Rectangle-2备份" fill="#5A6677" opacity="0.5"></path>
                <text id="Material-name" font-family="PingFangSC-Medium, PingFang SC" font-size="12" font-weight="400" fill="#5A6677">
                    <tspan x="310" y="75">Material name</tspan>
                </text>
                <text id="Unit" font-family="PingFangSC-Medium, PingFang SC" font-size="12" font-weight="400" fill="#5A6677">
                    <tspan x="790" y="75">Unit</tspan>
                </text>
                <text id="Save" font-family="PingFangSC-Medium, PingFang SC" font-size="12" font-weight="400" fill="#3889FF">
                    <tspan x="887" y="111">Save</tspan>
                </text>
                <text id="Cancel" font-family="PingFangSC-Medium, PingFang SC" font-size="12" font-weight="400" fill="#333333">
                    <tspan x="934" y="111">Cancel</tspan>
                </text>
                <text id="edit" font-family="PingFangSC-Medium, PingFang SC" font-size="12" font-weight="400" fill="#3889FF">
                    <tspan x="887" y="148">edit</tspan>
                </text>
                <text id="delete" font-family="PingFangSC-Medium, PingFang SC" font-size="12" font-weight="400" fill="#FF5656">
                    <tspan x="933" y="148">delete</tspan>
                </text>
                <text id="edit" font-family="PingFangSC-Medium, PingFang SC" font-size="12" font-weight="400" fill="#3889FF">
                    <tspan x="887" y="185">edit</tspan>
                </text>
                <text id="delete" font-family="PingFangSC-Medium, PingFang SC" font-size="12" font-weight="400" fill="#FF5656">
                    <tspan x="933" y="185">delete</tspan>
                </text>
                <text id="edit" font-family="PingFangSC-Medium, PingFang SC" font-size="12" font-weight="400" fill="#3889FF">
                    <tspan x="887" y="222">edit</tspan>
                </text>
                <text id="delete" font-family="PingFangSC-Medium, PingFang SC" font-size="12" font-weight="400" fill="#FF5656">
                    <tspan x="933" y="222">delete</tspan>
                </text>
                <text id="Operate" font-family="PingFangSC-Medium, PingFang SC" font-size="12" font-weight="400" fill="#5A6677">
                    <tspan x="887" y="75">Operate</tspan>
                </text>
                <text id="Item-Description" font-family="PingFangSC-Medium, PingFang SC" font-size="12" font-weight="400" fill="#5A6677">
                    <tspan x="511" y="75">Item Description</tspan>
                </text>
                <rect id="Rectangle" stroke="#D5DAE0" x="52.5" y="52.5" width="931" height="184" rx="2"></rect>
                <rect id="Rectangle" fill="#D5DAE0" x="52" y="88" width="932" height="1"></rect>
                <rect id="Rectangle备份-6" fill="#D5DAE0" x="52" y="125" width="932" height="1"></rect>
                <rect id="Rectangle备份-7" fill="#D5DAE0" x="52" y="162" width="932" height="1"></rect>
                <rect id="Rectangle" fill="#D5DAE0" x="293" y="52" width="1" height="185"></rect>
                <rect id="Rectangle备份-3" fill="#D5DAE0" x="152" y="52" width="1" height="185"></rect>
                <rect id="Rectangle备份-2" fill="#D5DAE0" x="494" y="52" width="1" height="185"></rect>
                <rect id="Rectangle" fill="#D5DAE0" x="773" y="52" width="1" height="185"></rect>
                <rect id="Rectangle备份-4" fill="#D5DAE0" x="870" y="52" width="1" height="185"></rect>
                <text id="management" font-family="PingFangSC-Medium, PingFang SC" font-size="12" font-weight="400" fill="#333333">
                    <tspan x="68" y="148">management</tspan>
                </text>
                <text id="2020005201655备份" font-family="PingFangSC-Medium, PingFang SC" font-size="12" font-weight="400" fill="#333333">
                    <tspan x="169" y="148">2020005201655</tspan>
                </text>
                <text id="Material-name" font-family="PingFangSC-Medium, PingFang SC" font-size="12" font-weight="400" fill="#333333">
                    <tspan x="310" y="148">Material name</tspan>
                </text>
                <text id="Explanatory-copy" font-family="PingFangSC-Medium, PingFang SC" font-size="12" font-weight="400" fill="#333333">
                    <tspan x="512" y="148">Explanatory copy</tspan>
                </text>
                <text id="XX备份-5" font-family="PingFangSC-Medium, PingFang SC" font-size="12" font-weight="400" fill="#333333">
                    <tspan x="790" y="148">XX</tspan>
                </text>
                <rect id="Rectangle备份-8" fill="#D5DAE0" x="52" y="199" width="932" height="1"></rect>
                <text id="management" font-family="PingFangSC-Medium, PingFang SC" font-size="12" font-weight="400" fill="#333333">
                    <tspan x="68" y="185">management</tspan>
                </text>
                <text id="2020005201655备份-2" font-family="PingFangSC-Medium, PingFang SC" font-size="12" font-weight="400" fill="#333333">
                    <tspan x="169" y="185">2020005201655</tspan>
                </text>
                <text id="Material-name" font-family="PingFangSC-Medium, PingFang SC" font-size="12" font-weight="400" fill="#333333">
                    <tspan x="310" y="185">Material name</tspan>
                </text>
                <text id="Explanatory-copy" font-family="PingFangSC-Medium, PingFang SC" font-size="12" font-weight="400" fill="#333333">
                    <tspan x="512" y="185">Explanatory copy</tspan>
                </text>
                <text id="XX备份-8" font-family="PingFangSC-Medium, PingFang SC" font-size="12" font-weight="400" fill="#333333">
                    <tspan x="790" y="185">XX</tspan>
                </text>
                <rect id="Rectangle备份-9" fill="#D5DAE0" x="52" y="236" width="932" height="1"></rect>
                <text id="management" font-family="PingFangSC-Medium, PingFang SC" font-size="12" font-weight="400" fill="#333333">
                    <tspan x="68" y="222">management</tspan>
                </text>
                <text id="2020005201655备份-3" font-family="PingFangSC-Medium, PingFang SC" font-size="12" font-weight="400" fill="#333333">
                    <tspan x="169" y="222">2020005201655</tspan>
                </text>
                <text id="Material-name" font-family="PingFangSC-Medium, PingFang SC" font-size="12" font-weight="400" fill="#333333">
                    <tspan x="310" y="222">Material name</tspan>
                </text>
                <text id="Explanatory-copy" font-family="PingFangSC-Medium, PingFang SC" font-size="12" font-weight="400" fill="#333333">
                    <tspan x="512" y="222">Explanatory copy</tspan>
                </text>
                <text id="XX备份-11" font-family="PingFangSC-Medium, PingFang SC" font-size="12" font-weight="400" fill="#333333">
                    <tspan x="790" y="222">XX</tspan>
                </text>
            </g>
        </g>
    </g>
</svg>