<?xml version="1.0" encoding="UTF-8"?>
<svg width="932px" height="182px" viewBox="0 0 932 182" version="1.1" xmlns="http://www.w3.org/2000/svg" xmlns:xlink="http://www.w3.org/1999/xlink">
    <!-- Generator: Sketch 58 (84663) - https://sketch.com -->
    <title>style1/Fixed</title>
    <desc>Created with Sketch.</desc>
    <defs>
        <linearGradient x1="100%" y1="50%" x2="0%" y2="50%" id="linearGradient-1">
            <stop stop-color="#F8FBFF" offset="0%"></stop>
            <stop stop-color="#FCFDFF" offset="49.4462022%"></stop>
            <stop stop-color="#F8FBFF" offset="100%"></stop>
        </linearGradient>
        <linearGradient x1="-1.11022302e-14%" y1="50%" x2="100%" y2="50%" id="linearGradient-2">
            <stop stop-color="#000000" stop-opacity="0" offset="0%"></stop>
            <stop stop-color="#000000" offset="100%"></stop>
        </linearGradient>
    </defs>
    <g id="页面-1" stroke="none" stroke-width="1" fill="none" fill-rule="evenodd">
        <g id="画板" transform="translate(-52.000000, -643.000000)">
            <g id="style1/Fixed" transform="translate(52.000000, 643.000000)">
                <rect id="Rectangle" fill="#FAFAFA" x="0" y="1" width="932" height="32" rx="2"></rect>
                <rect id="矩形" fill="url(#linearGradient-1)" x="0" y="71" width="932" height="36"></rect>
                <rect id="矩形" fill="url(#linearGradient-1)" x="0" y="145" width="932" height="36"></rect>
                <g id="编组-3" transform="translate(24.000000, 8.000000)" font-family="PingFangSC-Medium, PingFang SC" font-size="12" font-weight="400" line-spacing="20">
                    <text id="标题" fill="#AAADBA">
                        <tspan x="0" y="13">标题</tspan>
                    </text>
                    <text id="采购管理" fill="#5A6677">
                        <tspan x="0" y="48">采购管理</tspan>
                    </text>
                    <text id="销售管理" fill="#5A6677">
                        <tspan x="0" y="85">销售管理</tspan>
                    </text>
                    <text id="售后管理" fill="#5A6677">
                        <tspan x="0" y="122">售后管理</tspan>
                    </text>
                    <text id="退货管理" fill="#5A6677">
                        <tspan x="0" y="158">退货管理</tspan>
                    </text>
                </g>
                <g id="编组-5" transform="translate(204.000000, 8.000000)" font-family="PingFangSC-Medium, PingFang SC" font-size="12" font-weight="400" line-spacing="20">
                    <text id="说明文案说明文案说明文案…" fill="#5A6677">
                        <tspan x="0" y="48">说明文案说明文案说明文案…</tspan>
                    </text>
                    <text id="说明文案说明文案说明文案…" fill="#5A6677">
                        <tspan x="0" y="85">说明文案说明文案说明文案…</tspan>
                    </text>
                    <text id="说明文案说明文案说明文案…" fill="#5A6677">
                        <tspan x="0" y="122">说明文案说明文案说明文案…</tspan>
                    </text>
                    <text id="说明文案说明文案说明文案…" fill="#5A6677">
                        <tspan x="0" y="158">说明文案说明文案说明文案…</tspan>
                    </text>
                    <text id="说明" fill="#AAADBA">
                        <tspan x="0" y="13">说明</tspan>
                    </text>
                </g>
                <g id="编组-6" transform="translate(505.000000, 8.000000)" font-family="PingFangSC-Medium, PingFang SC" font-size="12" font-weight="400" line-spacing="20">
                    <text id="管理员" fill="#5A6677">
                        <tspan x="0" y="48">管理员</tspan>
                    </text>
                    <text id="管理员" fill="#5A6677">
                        <tspan x="0" y="85">管理员</tspan>
                    </text>
                    <text id="管理员" fill="#5A6677">
                        <tspan x="0" y="122">管理员</tspan>
                    </text>
                    <text id="管理员" fill="#5A6677">
                        <tspan x="0" y="158">管理员</tspan>
                    </text>
                    <text id="发布人" fill="#AAADBA">
                        <tspan x="0" y="13">发布人</tspan>
                    </text>
                </g>
                <g id="编组-6" transform="translate(695.000000, 8.000000)" font-family="PingFangSC-Medium, PingFang SC" font-size="12" font-weight="400" line-spacing="20">
                    <text id="备注文案" fill="#5A6677">
                        <tspan x="0" y="48">备注文案</tspan>
                    </text>
                    <text id="备注文案" fill="#5A6677">
                        <tspan x="0" y="85">备注文案</tspan>
                    </text>
                    <text id="备注文案" fill="#5A6677">
                        <tspan x="0" y="122">备注文案</tspan>
                    </text>
                    <text id="备注文案" fill="#5A6677">
                        <tspan x="0" y="158">备注文案</tspan>
                    </text>
                    <text id="备注" fill="#AAADBA">
                        <tspan x="0" y="13">备注</tspan>
                    </text>
                </g>
                <g id="编组-6" transform="translate(892.000000, 44.000000)">
                    <g id="编组-10">
                        <rect id="矩形" fill="#D8D8D8" opacity="0.01" x="0" y="0" width="16" height="16"></rect>
                        <path d="M8.5,12 C9.05228475,12 9.5,12.4477153 9.5,13 L9.5,14 C9.5,14.5522847 9.05228475,15 8.5,15 L7.5,15 C6.94771525,15 6.5,14.5522847 6.5,14 L6.5,13 C6.5,12.4477153 6.94771525,12 7.5,12 L8.5,12 Z M8.5,6.5 C9.05228475,6.5 9.5,6.94771525 9.5,7.5 L9.5,8.5 C9.5,9.05228475 9.05228475,9.5 8.5,9.5 L7.5,9.5 C6.94771525,9.5 6.5,9.05228475 6.5,8.5 L6.5,7.5 C6.5,6.94771525 6.94771525,6.5 7.5,6.5 L8.5,6.5 Z M8.5,1 C9.05228475,1 9.5,1.44771525 9.5,2 L9.5,3 C9.5,3.55228475 9.05228475,4 8.5,4 L7.5,4 C6.94771525,4 6.5,3.55228475 6.5,3 L6.5,2 C6.5,1.44771525 6.94771525,1 7.5,1 L8.5,1 Z" id="矩形-5" fill="#5A6677"></path>
                    </g>
                    <g id="编组-10" transform="translate(0.000000, 37.000000)">
                        <rect id="矩形" fill="#D8D8D8" opacity="0.01" x="0" y="0" width="16" height="16"></rect>
                        <path d="M8.5,12 C9.05228475,12 9.5,12.4477153 9.5,13 L9.5,14 C9.5,14.5522847 9.05228475,15 8.5,15 L7.5,15 C6.94771525,15 6.5,14.5522847 6.5,14 L6.5,13 C6.5,12.4477153 6.94771525,12 7.5,12 L8.5,12 Z M8.5,6.5 C9.05228475,6.5 9.5,6.94771525 9.5,7.5 L9.5,8.5 C9.5,9.05228475 9.05228475,9.5 8.5,9.5 L7.5,9.5 C6.94771525,9.5 6.5,9.05228475 6.5,8.5 L6.5,7.5 C6.5,6.94771525 6.94771525,6.5 7.5,6.5 L8.5,6.5 Z M8.5,1 C9.05228475,1 9.5,1.44771525 9.5,2 L9.5,3 C9.5,3.55228475 9.05228475,4 8.5,4 L7.5,4 C6.94771525,4 6.5,3.55228475 6.5,3 L6.5,2 C6.5,1.44771525 6.94771525,1 7.5,1 L8.5,1 Z" id="矩形-5" fill="#5A6677"></path>
                    </g>
                    <g id="编组-10" transform="translate(0.000000, 74.000000)">
                        <rect id="矩形" fill="#D8D8D8" opacity="0.01" x="0" y="0" width="16" height="16"></rect>
                        <path d="M8.5,12 C9.05228475,12 9.5,12.4477153 9.5,13 L9.5,14 C9.5,14.5522847 9.05228475,15 8.5,15 L7.5,15 C6.94771525,15 6.5,14.5522847 6.5,14 L6.5,13 C6.5,12.4477153 6.94771525,12 7.5,12 L8.5,12 Z M8.5,6.5 C9.05228475,6.5 9.5,6.94771525 9.5,7.5 L9.5,8.5 C9.5,9.05228475 9.05228475,9.5 8.5,9.5 L7.5,9.5 C6.94771525,9.5 6.5,9.05228475 6.5,8.5 L6.5,7.5 C6.5,6.94771525 6.94771525,6.5 7.5,6.5 L8.5,6.5 Z M8.5,1 C9.05228475,1 9.5,1.44771525 9.5,2 L9.5,3 C9.5,3.55228475 9.05228475,4 8.5,4 L7.5,4 C6.94771525,4 6.5,3.55228475 6.5,3 L6.5,2 C6.5,1.44771525 6.94771525,1 7.5,1 L8.5,1 Z" id="矩形-5" fill="#5A6677"></path>
                    </g>
                    <g id="编组-10" transform="translate(0.000000, 111.000000)">
                        <rect id="矩形" fill="#D8D8D8" opacity="0.01" x="0" y="0" width="16" height="16"></rect>
                        <path d="M8.5,12 C9.05228475,12 9.5,12.4477153 9.5,13 L9.5,14 C9.5,14.5522847 9.05228475,15 8.5,15 L7.5,15 C6.94771525,15 6.5,14.5522847 6.5,14 L6.5,13 C6.5,12.4477153 6.94771525,12 7.5,12 L8.5,12 Z M8.5,6.5 C9.05228475,6.5 9.5,6.94771525 9.5,7.5 L9.5,8.5 C9.5,9.05228475 9.05228475,9.5 8.5,9.5 L7.5,9.5 C6.94771525,9.5 6.5,9.05228475 6.5,8.5 L6.5,7.5 C6.5,6.94771525 6.94771525,6.5 7.5,6.5 L8.5,6.5 Z M8.5,1 C9.05228475,1 9.5,1.44771525 9.5,2 L9.5,3 C9.5,3.55228475 9.05228475,4 8.5,4 L7.5,4 C6.94771525,4 6.5,3.55228475 6.5,3 L6.5,2 C6.5,1.44771525 6.94771525,1 7.5,1 L8.5,1 Z" id="矩形-5" fill="#5A6677"></path>
                    </g>
                </g>
                <rect id="Rectangle" fill="#F1F1F1" x="0" y="70" width="932" height="1"></rect>
                <rect id="Rectangle" fill="#F1F1F1" x="0" y="107" width="932" height="1"></rect>
                <rect id="Rectangle" fill="#F1F1F1" x="0" y="144" width="932" height="1"></rect>
                <rect id="Rectangle" fill="#F1F1F1" x="0" y="181" width="932" height="1"></rect>
                <rect id="Rectangle" fill="#F1F1F1" x="0" y="33" width="932" height="1"></rect>
                <rect id="Rectangle" fill="#F1F1F1" x="0" y="0" width="932" height="1"></rect>
                <rect id="矩形" fill="url(#linearGradient-2)" opacity="0.12" transform="translate(101.000000, 90.500000) scale(-1, 1) translate(-101.000000, -90.500000) " x="96" y="0" width="10" height="181"></rect>
                <rect id="矩形" fill="url(#linearGradient-2)" opacity="0.12" x="858" y="0" width="10" height="181"></rect>
            </g>
        </g>
    </g>
</svg>