<?xml version="1.0" encoding="UTF-8"?>
<svg width="932px" height="181px" viewBox="0 0 932 181" version="1.1" xmlns="http://www.w3.org/2000/svg" xmlns:xlink="http://www.w3.org/1999/xlink">
    <!-- Generator: Sketch 58 (84663) - https://sketch.com -->
    <title>style4/Fixed</title>
    <desc>Created with Sketch.</desc>
    <defs>
        <linearGradient x1="-1.11022302e-14%" y1="50%" x2="100%" y2="50%" id="linearGradient-1">
            <stop stop-color="#000000" stop-opacity="0" offset="0%"></stop>
            <stop stop-color="#000000" offset="100%"></stop>
        </linearGradient>
        <linearGradient x1="-1.11022302e-14%" y1="50%" x2="100%" y2="50%" id="linearGradient-2">
            <stop stop-color="#000000" stop-opacity="0" offset="0%"></stop>
            <stop stop-color="#000000" offset="100%"></stop>
        </linearGradient>
    </defs>
    <g id="页面-1" stroke="none" stroke-width="1" fill="none" fill-rule="evenodd">
        <g id="表格" transform="translate(-3044.000000, -644.000000)">
            <g id="style4/Fixed" transform="translate(3044.000000, 644.000000)">
                <rect id="Rectangle" fill-opacity="0.01" fill="#FFFFFF" x="0" y="0" width="932" height="32" rx="2"></rect>
                <g id="编组-3" transform="translate(24.000000, 9.000000)" font-size="12">
                    <text id="Title" font-family="Arial-BoldMT, Arial" font-weight="bold" fill="#4F7DE7">
                        <tspan x="0" y="11">Title</tspan>
                    </text>
                    <text id="采购管理" font-family="ArialMT, Arial" font-weight="normal" fill="#5A6677">
                        <tspan x="0" y="46">Purchase</tspan>
                    </text>
                    <text id="销售管理" font-family="ArialMT, Arial" font-weight="normal" fill="#5A6677">
                        <tspan x="0" y="83">Sale</tspan>
                    </text>
                    <text id="售后管理" font-family="ArialMT, Arial" font-weight="normal" fill="#5A6677">
                        <tspan x="0" y="120">after-sales</tspan>
                    </text>
                    <text id="退货管理" font-family="ArialMT, Arial" font-weight="normal" fill="#5A6677">
                        <tspan x="0" y="157">refund</tspan>
                    </text>
                </g>
                <g id="编组-5" transform="translate(204.000000, 9.000000)" font-size="12">
                    <text id="说明文案说明文案说明文案…" font-family="ArialMT, Arial" font-weight="normal" fill="#5A6677">
                        <tspan x="0" y="46">Describe text.Describe text…</tspan>
                    </text>
                    <text id="说明文案说明文案说明文案…" font-family="ArialMT, Arial" font-weight="normal" fill="#5A6677">
                        <tspan x="0" y="83">Describe text.Describe text…</tspan>
                    </text>
                    <text id="说明文案说明文案说明文案…" font-family="ArialMT, Arial" font-weight="normal" fill="#5A6677">
                        <tspan x="0" y="120">Describe text.Describe text…</tspan>
                    </text>
                    <text id="说明文案说明文案说明文案…" font-family="ArialMT, Arial" font-weight="normal" fill="#5A6677">
                        <tspan x="0" y="157">Describe text.Describe text…</tspan>
                    </text>
                    <text id="Description" font-family="Arial-BoldMT, Arial" font-weight="bold" fill="#4F7DE7">
                        <tspan x="0" y="11">Description</tspan>
                    </text>
                </g>
                <g id="编组-6" transform="translate(505.000000, 9.000000)" font-size="12">
                    <text id="管理员" font-family="ArialMT, Arial" font-weight="normal" fill="#5A6677">
                        <tspan x="0" y="46">Administrators</tspan>
                    </text>
                    <text id="管理员" font-family="ArialMT, Arial" font-weight="normal" fill="#5A6677">
                        <tspan x="0" y="83">Administrators</tspan>
                    </text>
                    <text id="管理员" font-family="ArialMT, Arial" font-weight="normal" fill="#5A6677">
                        <tspan x="0" y="120">Administrators</tspan>
                    </text>
                    <text id="管理员" font-family="ArialMT, Arial" font-weight="normal" fill="#5A6677">
                        <tspan x="0" y="157">Administrators</tspan>
                    </text>
                    <text id="发布人" font-family="Arial-BoldMT, Arial" font-weight="bold" fill="#4F7DE7">
                        <tspan x="0" y="11">Issuer</tspan>
                    </text>
                </g>
                <g id="编组-6" transform="translate(695.000000, 9.000000)" font-size="12">
                    <text id="备注文案" font-family="ArialMT, Arial" font-weight="normal" fill="#5A6677">
                        <tspan x="0" y="46">Remark text</tspan>
                    </text>
                    <text id="备注文案" font-family="ArialMT, Arial" font-weight="normal" fill="#5A6677">
                        <tspan x="0" y="83">Remark text</tspan>
                    </text>
                    <text id="备注文案" font-family="ArialMT, Arial" font-weight="normal" fill="#5A6677">
                        <tspan x="0" y="120">Remark text</tspan>
                    </text>
                    <text id="备注文案" font-family="ArialMT, Arial" font-weight="normal" fill="#5A6677">
                        <tspan x="0" y="157">Remark text</tspan>
                    </text>
                    <text id="备注" font-family="Arial-BoldMT, Arial" font-weight="bold" fill="#4F7DE7">
                        <tspan x="0" y="11">Remark</tspan>
                    </text>
                </g>
                <g id="编组-6" transform="translate(892.000000, 43.000000)">
                    <g id="编组-10">
                        <rect id="矩形" fill="#D8D8D8" opacity="0.01" x="0" y="0" width="16" height="16"></rect>
                        <path d="M8.5,12 C9.05228475,12 9.5,12.4477153 9.5,13 L9.5,14 C9.5,14.5522847 9.05228475,15 8.5,15 L7.5,15 C6.94771525,15 6.5,14.5522847 6.5,14 L6.5,13 C6.5,12.4477153 6.94771525,12 7.5,12 L8.5,12 Z M8.5,6.5 C9.05228475,6.5 9.5,6.94771525 9.5,7.5 L9.5,8.5 C9.5,9.05228475 9.05228475,9.5 8.5,9.5 L7.5,9.5 C6.94771525,9.5 6.5,9.05228475 6.5,8.5 L6.5,7.5 C6.5,6.94771525 6.94771525,6.5 7.5,6.5 L8.5,6.5 Z M8.5,1 C9.05228475,1 9.5,1.44771525 9.5,2 L9.5,3 C9.5,3.55228475 9.05228475,4 8.5,4 L7.5,4 C6.94771525,4 6.5,3.55228475 6.5,3 L6.5,2 C6.5,1.44771525 6.94771525,1 7.5,1 L8.5,1 Z" id="矩形-5" fill="#5A6677"></path>
                    </g>
                    <g id="编组-10" transform="translate(0.000000, 37.000000)">
                        <rect id="矩形" fill="#D8D8D8" opacity="0.01" x="0" y="0" width="16" height="16"></rect>
                        <path d="M8.5,12 C9.05228475,12 9.5,12.4477153 9.5,13 L9.5,14 C9.5,14.5522847 9.05228475,15 8.5,15 L7.5,15 C6.94771525,15 6.5,14.5522847 6.5,14 L6.5,13 C6.5,12.4477153 6.94771525,12 7.5,12 L8.5,12 Z M8.5,6.5 C9.05228475,6.5 9.5,6.94771525 9.5,7.5 L9.5,8.5 C9.5,9.05228475 9.05228475,9.5 8.5,9.5 L7.5,9.5 C6.94771525,9.5 6.5,9.05228475 6.5,8.5 L6.5,7.5 C6.5,6.94771525 6.94771525,6.5 7.5,6.5 L8.5,6.5 Z M8.5,1 C9.05228475,1 9.5,1.44771525 9.5,2 L9.5,3 C9.5,3.55228475 9.05228475,4 8.5,4 L7.5,4 C6.94771525,4 6.5,3.55228475 6.5,3 L6.5,2 C6.5,1.44771525 6.94771525,1 7.5,1 L8.5,1 Z" id="矩形-5" fill="#5A6677"></path>
                    </g>
                    <g id="编组-10" transform="translate(0.000000, 74.000000)">
                        <rect id="矩形" fill="#D8D8D8" opacity="0.01" x="0" y="0" width="16" height="16"></rect>
                        <path d="M8.5,12 C9.05228475,12 9.5,12.4477153 9.5,13 L9.5,14 C9.5,14.5522847 9.05228475,15 8.5,15 L7.5,15 C6.94771525,15 6.5,14.5522847 6.5,14 L6.5,13 C6.5,12.4477153 6.94771525,12 7.5,12 L8.5,12 Z M8.5,6.5 C9.05228475,6.5 9.5,6.94771525 9.5,7.5 L9.5,8.5 C9.5,9.05228475 9.05228475,9.5 8.5,9.5 L7.5,9.5 C6.94771525,9.5 6.5,9.05228475 6.5,8.5 L6.5,7.5 C6.5,6.94771525 6.94771525,6.5 7.5,6.5 L8.5,6.5 Z M8.5,1 C9.05228475,1 9.5,1.44771525 9.5,2 L9.5,3 C9.5,3.55228475 9.05228475,4 8.5,4 L7.5,4 C6.94771525,4 6.5,3.55228475 6.5,3 L6.5,2 C6.5,1.44771525 6.94771525,1 7.5,1 L8.5,1 Z" id="矩形-5" fill="#5A6677"></path>
                    </g>
                    <g id="编组-10" transform="translate(0.000000, 111.000000)">
                        <rect id="矩形" fill="#D8D8D8" opacity="0.01" x="0" y="0" width="16" height="16"></rect>
                        <path d="M8.5,12 C9.05228475,12 9.5,12.4477153 9.5,13 L9.5,14 C9.5,14.5522847 9.05228475,15 8.5,15 L7.5,15 C6.94771525,15 6.5,14.5522847 6.5,14 L6.5,13 C6.5,12.4477153 6.94771525,12 7.5,12 L8.5,12 Z M8.5,6.5 C9.05228475,6.5 9.5,6.94771525 9.5,7.5 L9.5,8.5 C9.5,9.05228475 9.05228475,9.5 8.5,9.5 L7.5,9.5 C6.94771525,9.5 6.5,9.05228475 6.5,8.5 L6.5,7.5 C6.5,6.94771525 6.94771525,6.5 7.5,6.5 L8.5,6.5 Z M8.5,1 C9.05228475,1 9.5,1.44771525 9.5,2 L9.5,3 C9.5,3.55228475 9.05228475,4 8.5,4 L7.5,4 C6.94771525,4 6.5,3.55228475 6.5,3 L6.5,2 C6.5,1.44771525 6.94771525,1 7.5,1 L8.5,1 Z" id="矩形-5" fill="#5A6677"></path>
                    </g>
                </g>
                <rect id="Rectangle" fill="#F1F1F1" x="0" y="69" width="932" height="1"></rect>
                <rect id="Rectangle" fill="#F1F1F1" x="0" y="106" width="932" height="1"></rect>
                <rect id="Rectangle" fill="#F1F1F1" x="0" y="143" width="932" height="1"></rect>
                <rect id="Rectangle" fill="#F1F1F1" x="0" y="180" width="932" height="1"></rect>
                <rect id="Rectangle" fill="#4F7DE7" x="0" y="32" width="932" height="1"></rect>
                <rect id="矩形" fill="url(#linearGradient-1)" opacity="0.12" transform="translate(183.000000, 106.000000) scale(-1, 1) translate(-183.000000, -106.000000) " x="178" y="32" width="10" height="148"></rect>
                <rect id="矩形" fill="url(#linearGradient-2)" opacity="0.12" x="858" y="32.5" width="10" height="147.5"></rect>
            </g>
        </g>
    </g>
</svg>