<?xml version="1.0" encoding="UTF-8"?>
<svg width="934px" height="219px" viewBox="0 0 934 219" version="1.1" xmlns="http://www.w3.org/2000/svg" xmlns:xlink="http://www.w3.org/1999/xlink">
    <!-- Generator: Sketch 58 (84663) - https://sketch.com -->
    <title>style2/folding</title>
    <desc>Created with Sketch.</desc>
    <g id="页面-1" stroke="none" stroke-width="1" fill="none" fill-rule="evenodd">
        <g id="画板" transform="translate(-1048.000000, -1462.000000)">
            <g id="style2/folding" transform="translate(1048.000000, 1462.000000)">
                <rect id="Rectangle" fill="#FAFAFA" x="1" y="1" width="932" height="32" rx="2"></rect>
                <text id="标题" font-family="PingFangSC-Medium, PingFang SC" font-size="12" font-weight="400" line-spacing="20" fill="#AAADBA">
                    <tspan x="25" y="21">标题</tspan>
                </text>
                <text id="采购管理" font-family="PingFangSC-Medium, PingFang SC" font-size="12" font-weight="400" line-spacing="20" fill="#5A6677">
                    <tspan x="25" y="56">采购管理</tspan>
                </text>
                <text id="销售管理" font-family="PingFangSC-Medium, PingFang SC" font-size="12" font-weight="400" line-spacing="20" fill="#5A6677">
                    <tspan x="25" y="130">销售管理</tspan>
                </text>
                <text id="售后管理" font-family="PingFangSC-Medium, PingFang SC" font-size="12" font-weight="400" line-spacing="20" fill="#5A6677">
                    <tspan x="25" y="167">售后管理</tspan>
                </text>
                <text id="退货管理" font-family="PingFangSC-Medium, PingFang SC" font-size="12" font-weight="400" line-spacing="20" fill="#5A6677">
                    <tspan x="25" y="203">退货管理</tspan>
                </text>
                <g id="编组-7" transform="translate(9.000000, 46.000000)">
                    <rect id="矩形" stroke="#AAADBA" fill="#FFFFFF" x="0.5" y="0.5" width="11" height="11" rx="1"></rect>
                    <rect id="矩形" fill="#AAADBA" x="3" y="5.5" width="6" height="1" rx="0.5"></rect>
                </g>
                <g id="编组-7" transform="translate(9.000000, 120.000000)">
                    <rect id="矩形" stroke="#AAADBA" fill="#FFFFFF" x="0.5" y="0.5" width="11" height="11" rx="1"></rect>
                    <path d="M6,3 C6.27614237,3 6.5,3.22385763 6.5,3.5 L6.5,5.5 L8.5,5.5 C8.77614237,5.5 9,5.72385763 9,6 C9,6.27614237 8.77614237,6.5 8.5,6.5 L6.499,6.5 L6.5,8.5 C6.5,8.77614237 6.27614237,9 6,9 C5.72385763,9 5.5,8.77614237 5.5,8.5 L5.499,6.5 L3.5,6.5 C3.22385763,6.5 3,6.27614237 3,6 C3,5.72385763 3.22385763,5.5 3.5,5.5 L5.5,5.5 L5.5,3.5 C5.5,3.22385763 5.72385763,3 6,3 Z" id="矩形-3" fill="#AAADBA"></path>
                </g>
                <g id="编组-7" transform="translate(9.000000, 158.000000)">
                    <rect id="矩形" stroke="#AAADBA" fill="#FFFFFF" x="0.5" y="0.5" width="11" height="11" rx="1"></rect>
                    <path d="M6,3 C6.27614237,3 6.5,3.22385763 6.5,3.5 L6.5,5.5 L8.5,5.5 C8.77614237,5.5 9,5.72385763 9,6 C9,6.27614237 8.77614237,6.5 8.5,6.5 L6.499,6.5 L6.5,8.5 C6.5,8.77614237 6.27614237,9 6,9 C5.72385763,9 5.5,8.77614237 5.5,8.5 L5.499,6.5 L3.5,6.5 C3.22385763,6.5 3,6.27614237 3,6 C3,5.72385763 3.22385763,5.5 3.5,5.5 L5.5,5.5 L5.5,3.5 C5.5,3.22385763 5.72385763,3 6,3 Z" id="矩形-3" fill="#AAADBA"></path>
                </g>
                <g id="编组-7" transform="translate(9.000000, 194.000000)">
                    <rect id="矩形" stroke="#AAADBA" fill="#FFFFFF" x="0.5" y="0.5" width="11" height="11" rx="1"></rect>
                    <path d="M6,3 C6.27614237,3 6.5,3.22385763 6.5,3.5 L6.5,5.5 L8.5,5.5 C8.77614237,5.5 9,5.72385763 9,6 C9,6.27614237 8.77614237,6.5 8.5,6.5 L6.499,6.5 L6.5,8.5 C6.5,8.77614237 6.27614237,9 6,9 C5.72385763,9 5.5,8.77614237 5.5,8.5 L5.499,6.5 L3.5,6.5 C3.22385763,6.5 3,6.27614237 3,6 C3,5.72385763 3.22385763,5.5 3.5,5.5 L5.5,5.5 L5.5,3.5 C5.5,3.22385763 5.72385763,3 6,3 Z" id="矩形-3" fill="#AAADBA"></path>
                </g>
                <text id="说明文案说明文案说明文案…" font-family="PingFangSC-Medium, PingFang SC" font-size="12" font-weight="400" line-spacing="20" fill="#5A6677">
                    <tspan x="205" y="56">说明文案说明文案说明文案…</tspan>
                </text>
                <text id="说明文案说明文案说明文案…" font-family="PingFangSC-Medium, PingFang SC" font-size="12" font-weight="400" line-spacing="20" fill="#5A6677">
                    <tspan x="205" y="130">说明文案说明文案说明文案…</tspan>
                </text>
                <text id="说明文案说明文案说明文案…" font-family="PingFangSC-Medium, PingFang SC" font-size="12" font-weight="400" line-spacing="20" fill="#5A6677">
                    <tspan x="205" y="167">说明文案说明文案说明文案…</tspan>
                </text>
                <text id="说明文案说明文案说明文案…" font-family="PingFangSC-Medium, PingFang SC" font-size="12" font-weight="400" line-spacing="20" fill="#5A6677">
                    <tspan x="205" y="203">说明文案说明文案说明文案…</tspan>
                </text>
                <text id="说明" font-family="PingFangSC-Medium, PingFang SC" font-size="12" font-weight="400" line-spacing="20" fill="#AAADBA">
                    <tspan x="205" y="21">说明</tspan>
                </text>
                <text id="管理员" font-family="PingFangSC-Medium, PingFang SC" font-size="12" font-weight="400" line-spacing="20" fill="#5A6677">
                    <tspan x="506" y="56">管理员</tspan>
                </text>
                <text id="管理员" font-family="PingFangSC-Medium, PingFang SC" font-size="12" font-weight="400" line-spacing="20" fill="#5A6677">
                    <tspan x="506" y="130">管理员</tspan>
                </text>
                <text id="管理员" font-family="PingFangSC-Medium, PingFang SC" font-size="12" font-weight="400" line-spacing="20" fill="#5A6677">
                    <tspan x="506" y="167">管理员</tspan>
                </text>
                <text id="管理员" font-family="PingFangSC-Medium, PingFang SC" font-size="12" font-weight="400" line-spacing="20" fill="#5A6677">
                    <tspan x="506" y="203">管理员</tspan>
                </text>
                <text id="发布人" font-family="PingFangSC-Medium, PingFang SC" font-size="12" font-weight="400" line-spacing="20" fill="#AAADBA">
                    <tspan x="506" y="21">发布人</tspan>
                </text>
                <text id="备注文案" font-family="PingFangSC-Medium, PingFang SC" font-size="12" font-weight="400" line-spacing="20" fill="#5A6677">
                    <tspan x="696" y="56">备注文案</tspan>
                </text>
                <text id="备注文案" font-family="PingFangSC-Medium, PingFang SC" font-size="12" font-weight="400" line-spacing="20" fill="#5A6677">
                    <tspan x="696" y="130">备注文案</tspan>
                </text>
                <text id="备注文案" font-family="PingFangSC-Medium, PingFang SC" font-size="12" font-weight="400" line-spacing="20" fill="#5A6677">
                    <tspan x="696" y="167">备注文案</tspan>
                </text>
                <text id="备注文案" font-family="PingFangSC-Medium, PingFang SC" font-size="12" font-weight="400" line-spacing="20" fill="#5A6677">
                    <tspan x="696" y="203">备注文案</tspan>
                </text>
                <text id="备注" font-family="PingFangSC-Medium, PingFang SC" font-size="12" font-weight="400" line-spacing="20" fill="#AAADBA">
                    <tspan x="696" y="21">备注</tspan>
                </text>
                <g id="编组-10" transform="translate(893.000000, 118.000000)">
                    <rect id="矩形" fill="#D8D8D8" opacity="0.01" x="0" y="0" width="16" height="16"></rect>
                    <path d="M8.5,12 C9.05228475,12 9.5,12.4477153 9.5,13 L9.5,14 C9.5,14.5522847 9.05228475,15 8.5,15 L7.5,15 C6.94771525,15 6.5,14.5522847 6.5,14 L6.5,13 C6.5,12.4477153 6.94771525,12 7.5,12 L8.5,12 Z M8.5,6.5 C9.05228475,6.5 9.5,6.94771525 9.5,7.5 L9.5,8.5 C9.5,9.05228475 9.05228475,9.5 8.5,9.5 L7.5,9.5 C6.94771525,9.5 6.5,9.05228475 6.5,8.5 L6.5,7.5 C6.5,6.94771525 6.94771525,6.5 7.5,6.5 L8.5,6.5 Z M8.5,1 C9.05228475,1 9.5,1.44771525 9.5,2 L9.5,3 C9.5,3.55228475 9.05228475,4 8.5,4 L7.5,4 C6.94771525,4 6.5,3.55228475 6.5,3 L6.5,2 C6.5,1.44771525 6.94771525,1 7.5,1 L8.5,1 Z" id="矩形-5" fill="#5A6677"></path>
                </g>
                <g id="编组-10" transform="translate(893.000000, 44.000000)">
                    <rect id="矩形" fill="#D8D8D8" opacity="0.01" x="0" y="0" width="16" height="16"></rect>
                    <path d="M8.5,12 C9.05228475,12 9.5,12.4477153 9.5,13 L9.5,14 C9.5,14.5522847 9.05228475,15 8.5,15 L7.5,15 C6.94771525,15 6.5,14.5522847 6.5,14 L6.5,13 C6.5,12.4477153 6.94771525,12 7.5,12 L8.5,12 Z M8.5,6.5 C9.05228475,6.5 9.5,6.94771525 9.5,7.5 L9.5,8.5 C9.5,9.05228475 9.05228475,9.5 8.5,9.5 L7.5,9.5 C6.94771525,9.5 6.5,9.05228475 6.5,8.5 L6.5,7.5 C6.5,6.94771525 6.94771525,6.5 7.5,6.5 L8.5,6.5 Z M8.5,1 C9.05228475,1 9.5,1.44771525 9.5,2 L9.5,3 C9.5,3.55228475 9.05228475,4 8.5,4 L7.5,4 C6.94771525,4 6.5,3.55228475 6.5,3 L6.5,2 C6.5,1.44771525 6.94771525,1 7.5,1 L8.5,1 Z" id="矩形-5" fill="#5A6677"></path>
                </g>
                <g id="编组-10" transform="translate(893.000000, 155.000000)">
                    <rect id="矩形" fill="#D8D8D8" opacity="0.01" x="0" y="0" width="16" height="16"></rect>
                    <path d="M8.5,12 C9.05228475,12 9.5,12.4477153 9.5,13 L9.5,14 C9.5,14.5522847 9.05228475,15 8.5,15 L7.5,15 C6.94771525,15 6.5,14.5522847 6.5,14 L6.5,13 C6.5,12.4477153 6.94771525,12 7.5,12 L8.5,12 Z M8.5,6.5 C9.05228475,6.5 9.5,6.94771525 9.5,7.5 L9.5,8.5 C9.5,9.05228475 9.05228475,9.5 8.5,9.5 L7.5,9.5 C6.94771525,9.5 6.5,9.05228475 6.5,8.5 L6.5,7.5 C6.5,6.94771525 6.94771525,6.5 7.5,6.5 L8.5,6.5 Z M8.5,1 C9.05228475,1 9.5,1.44771525 9.5,2 L9.5,3 C9.5,3.55228475 9.05228475,4 8.5,4 L7.5,4 C6.94771525,4 6.5,3.55228475 6.5,3 L6.5,2 C6.5,1.44771525 6.94771525,1 7.5,1 L8.5,1 Z" id="矩形-5" fill="#5A6677"></path>
                </g>
                <g id="编组-10" transform="translate(893.000000, 192.000000)">
                    <rect id="矩形" fill="#D8D8D8" opacity="0.01" x="0" y="0" width="16" height="16"></rect>
                    <path d="M8.5,12 C9.05228475,12 9.5,12.4477153 9.5,13 L9.5,14 C9.5,14.5522847 9.05228475,15 8.5,15 L7.5,15 C6.94771525,15 6.5,14.5522847 6.5,14 L6.5,13 C6.5,12.4477153 6.94771525,12 7.5,12 L8.5,12 Z M8.5,6.5 C9.05228475,6.5 9.5,6.94771525 9.5,7.5 L9.5,8.5 C9.5,9.05228475 9.05228475,9.5 8.5,9.5 L7.5,9.5 C6.94771525,9.5 6.5,9.05228475 6.5,8.5 L6.5,7.5 C6.5,6.94771525 6.94771525,6.5 7.5,6.5 L8.5,6.5 Z M8.5,1 C9.05228475,1 9.5,1.44771525 9.5,2 L9.5,3 C9.5,3.55228475 9.05228475,4 8.5,4 L7.5,4 C6.94771525,4 6.5,3.55228475 6.5,3 L6.5,2 C6.5,1.44771525 6.94771525,1 7.5,1 L8.5,1 Z" id="矩形-5" fill="#5A6677"></path>
                </g>
                <rect id="Rectangle" fill="#F1F1F1" x="1" y="107" width="932" height="1"></rect>
                <rect id="矩形" stroke="#F1F1F1" x="0.5" y="0.5" width="933" height="218"></rect>
                <rect id="Rectangle" fill="#F1F1F1" x="1" y="70" width="932" height="1"></rect>
                <rect id="矩形" fill="#F8F8F8" x="1" y="71" width="932" height="36"></rect>
                <text id="说明文字说明文字说明文字，说明文字说明文" font-family="MicrosoftYaHei, Microsoft YaHei" font-size="12" font-weight="normal" line-spacing="20" fill="#5A6677">
                    <tspan x="25" y="92">说明文字说明文字说明文字，说明文字说明文字说明文字…</tspan>
                </text>
                <rect id="Rectangle" fill="#F1F1F1" x="1" y="144" width="932" height="1"></rect>
                <rect id="Rectangle" fill="#F1F1F1" x="1" y="181" width="932" height="1"></rect>
                <rect id="Rectangle" fill="#F1F1F1" x="1" y="218" width="932" height="1"></rect>
                <rect id="Rectangle" fill="#F1F1F1" x="1" y="33" width="932" height="1"></rect>
            </g>
        </g>
    </g>
</svg>