<?xml version="1.0" encoding="UTF-8"?>
<svg width="932px" height="217px" viewBox="0 0 932 217" version="1.1" xmlns="http://www.w3.org/2000/svg" xmlns:xlink="http://www.w3.org/1999/xlink">
    <!-- Generator: Sketch 59 (86127) - https://sketch.com -->
    <title>16-Table-style2</title>
    <desc>Created with Sketch.</desc>
    <g id="页面-1" stroke="none" stroke-width="1" fill="none" fill-rule="evenodd">
        <g id="列表样式-英文" transform="translate(-130.000000, -400.000000)">
            <rect fill="#FFFFFF" x="0" y="0" width="2323" height="2300"></rect>
            <g id="编组" transform="translate(78.000000, 348.000000)">
                <rect id="矩形" fill-opacity="0.01" fill="#FFFFFF" x="0" y="0" width="1000" height="290"></rect>
                <rect id="Rectangle" fill="#F7F7F7" x="52" y="52" width="932" height="37" rx="2"></rect>
                <text id="XX" font-family="PingFangSC-Medium, PingFang SC" font-size="12" font-weight="400" fill="#333333">
                    <tspan x="839" y="111">XX</tspan>
                </text>
                <text id="Unit" font-family="PingFangSC-Medium, PingFang SC" font-size="12" font-weight="400" fill="#5A6677">
                    <tspan x="839" y="75">Unit</tspan>
                </text>
                <text id="XX备份" font-family="PingFangSC-Medium, PingFang SC" font-size="12" font-weight="400" fill="#333333">
                    <tspan x="953" y="111">XX</tspan>
                </text>
                <text id="Quantity" font-family="PingFangSC-Medium, PingFang SC" font-size="12" font-weight="400" fill="#5A6677">
                    <tspan x="919.94" y="75">Quantity</tspan>
                </text>
                <rect id="Rectangle" fill="#D5DAE0" x="822" y="52" width="1" height="185"></rect>
                <rect id="Rectangle备份" fill="#D5DAE0" x="903" y="52" width="1" height="185"></rect>
                <text id="XX备份-5" font-family="PingFangSC-Medium, PingFang SC" font-size="12" font-weight="400" fill="#333333">
                    <tspan x="839" y="148">XX</tspan>
                </text>
                <text id="XX备份-4" font-family="PingFangSC-Medium, PingFang SC" font-size="12" font-weight="400" fill="#333333">
                    <tspan x="953" y="148">XX</tspan>
                </text>
                <text id="XX备份-8" font-family="PingFangSC-Medium, PingFang SC" font-size="12" font-weight="400" fill="#333333">
                    <tspan x="839" y="185">XX</tspan>
                </text>
                <text id="XX备份-7" font-family="PingFangSC-Medium, PingFang SC" font-size="12" font-weight="400" fill="#333333">
                    <tspan x="953" y="185">XX</tspan>
                </text>
                <text id="XX备份-11" font-family="PingFangSC-Medium, PingFang SC" font-size="12" font-weight="400" fill="#333333">
                    <tspan x="839" y="222">XX</tspan>
                </text>
                <text id="XX备份-10" font-family="PingFangSC-Medium, PingFang SC" font-size="12" font-weight="400" fill="#333333">
                    <tspan x="953" y="222">XX</tspan>
                </text>
                <text id="Title" font-family="PingFangSC-Medium, PingFang SC" font-size="12" font-weight="400" fill="#5A6677">
                    <tspan x="68" y="75">Title</tspan>
                </text>
                <text id="management" font-family="PingFangSC-Medium, PingFang SC" font-size="12" font-weight="400" fill="#333333">
                    <tspan x="68" y="111">management</tspan>
                </text>
                <text id="2020005201655" font-family="PingFangSC-Medium, PingFang SC" font-size="12" font-weight="400" fill="#333333">
                    <tspan x="169" y="111">2020005201655</tspan>
                </text>
                <text id="Material-name" font-family="PingFangSC-Medium, PingFang SC" font-size="12" font-weight="400" fill="#333333">
                    <tspan x="310" y="111">Material name</tspan>
                </text>
                <text id="Explanatory-copy" font-family="PingFangSC-Medium, PingFang SC" font-size="12" font-weight="400" fill="#333333">
                    <tspan x="512" y="111">Explanatory copy</tspan>
                </text>
                <text id="Coding" font-family="PingFangSC-Medium, PingFang SC" font-size="12" font-weight="400" fill="#5A6677">
                    <tspan x="169" y="75">Coding</tspan>
                </text>
                <text id="Material-name" font-family="PingFangSC-Medium, PingFang SC" font-size="12" font-weight="400" fill="#5A6677">
                    <tspan x="310" y="75">Material name</tspan>
                </text>
                <text id="Item-Description" font-family="PingFangSC-Medium, PingFang SC" font-size="12" font-weight="400" fill="#5A6677">
                    <tspan x="511" y="75">Item Description</tspan>
                </text>
                <rect id="Rectangle" stroke="#D5DAE0" x="52.5" y="52.5" width="931" height="184" rx="2"></rect>
                <rect id="Rectangle" fill="#D5DAE0" x="52" y="88" width="932" height="1"></rect>
                <rect id="Rectangle备份-6" fill="#D5DAE0" x="52" y="125" width="932" height="1"></rect>
                <rect id="Rectangle备份-7" fill="#D5DAE0" x="52" y="162" width="932" height="1"></rect>
                <rect id="Rectangle" fill="#D5DAE0" x="152" y="52" width="1" height="185"></rect>
                <rect id="Rectangle" fill="#D5DAE0" x="293" y="52" width="1" height="185"></rect>
                <rect id="Rectangle备份-2" fill="#D5DAE0" x="494" y="52" width="1" height="185"></rect>
                <text id="management" font-family="PingFangSC-Medium, PingFang SC" font-size="12" font-weight="400" fill="#333333">
                    <tspan x="68" y="148">management</tspan>
                </text>
                <text id="2020005201655备份" font-family="PingFangSC-Medium, PingFang SC" font-size="12" font-weight="400" fill="#333333">
                    <tspan x="169" y="148">2020005201655</tspan>
                </text>
                <text id="Material-name" font-family="PingFangSC-Medium, PingFang SC" font-size="12" font-weight="400" fill="#333333">
                    <tspan x="310" y="148">Material name</tspan>
                </text>
                <text id="Explanatory-copy" font-family="PingFangSC-Medium, PingFang SC" font-size="12" font-weight="400" fill="#333333">
                    <tspan x="512" y="148">Explanatory copy</tspan>
                </text>
                <rect id="Rectangle备份-8" fill="#D5DAE0" x="52" y="199" width="932" height="1"></rect>
                <text id="management" font-family="PingFangSC-Medium, PingFang SC" font-size="12" font-weight="400" fill="#333333">
                    <tspan x="68" y="185">management</tspan>
                </text>
                <text id="2020005201655备份-2" font-family="PingFangSC-Medium, PingFang SC" font-size="12" font-weight="400" fill="#333333">
                    <tspan x="169" y="185">2020005201655</tspan>
                </text>
                <text id="Material-name" font-family="PingFangSC-Medium, PingFang SC" font-size="12" font-weight="400" fill="#333333">
                    <tspan x="310" y="185">Material name</tspan>
                </text>
                <text id="Explanatory-copy" font-family="PingFangSC-Medium, PingFang SC" font-size="12" font-weight="400" fill="#333333">
                    <tspan x="512" y="185">Explanatory copy</tspan>
                </text>
                <rect id="Rectangle备份-9" fill="#D5DAE0" x="52" y="236" width="932" height="1"></rect>
                <text id="management" font-family="PingFangSC-Medium, PingFang SC" font-size="12" font-weight="400" fill="#333333">
                    <tspan x="68" y="222">management</tspan>
                </text>
                <text id="2020005201655备份-3" font-family="PingFangSC-Medium, PingFang SC" font-size="12" font-weight="400" fill="#333333">
                    <tspan x="169" y="222">2020005201655</tspan>
                </text>
                <text id="Material-name" font-family="PingFangSC-Medium, PingFang SC" font-size="12" font-weight="400" fill="#333333">
                    <tspan x="310" y="222">Material name</tspan>
                </text>
                <text id="Explanatory-copy" font-family="PingFangSC-Medium, PingFang SC" font-size="12" font-weight="400" fill="#333333">
                    <tspan x="512" y="222">Explanatory copy</tspan>
                </text>
                <g id="turnpage-right备份-4" transform="translate(595.000000, 257.000000) scale(-1, 1) translate(-595.000000, -257.000000) translate(583.000000, 245.000000)">
                    <rect id="矩形" stroke="#E3E3E3" fill="#F6F6F6" x="0.5" y="0.5" width="23" height="23" rx="4"></rect>
                    <polyline id="路径" stroke="#B7B7B7" transform="translate(12.559525, 12.349971) rotate(180.000000) translate(-12.559525, -12.349971) " points="15.1190498 8 10 12.5251749 15.1190498 16.6999419"></polyline>
                </g>
                <g id="turnpage-right备份-5" transform="translate(559.000000, 257.000000) scale(-1, 1) translate(-559.000000, -257.000000) translate(547.000000, 245.000000)">
                    <rect id="矩形" stroke="#E3E3E3" fill="#F6F6F6" x="0.5" y="0.5" width="23" height="23" rx="4"></rect>
                    <polyline id="路径" stroke="#B7B7B7" transform="translate(11.559525, 12.349971) rotate(180.000000) translate(-11.559525, -12.349971) " points="14.1190498 8 9 12.5251749 14.1190498 16.6999419"></polyline>
                    <line x1="14.7859442" y1="8" x2="14.7859442" y2="16.6999419" id="路径-3" stroke="#B7B7B7"></line>
                </g>
                <g id="turnpage-right备份-6" transform="translate(835.000000, 245.000000)">
                    <rect id="矩形" stroke="#E3E3E3" x="0.5" y="0.5" width="23" height="23" rx="4"></rect>
                    <polyline id="路径" stroke="#666666" transform="translate(12.559525, 12.349971) rotate(180.000000) translate(-12.559525, -12.349971) " points="15.1190498 8 10 12.5251749 15.1190498 16.6999419"></polyline>
                </g>
                <g id="turnpage-right备份-7" transform="translate(871.000000, 245.000000)">
                    <rect id="矩形" stroke="#E3E3E3" x="0.5" y="0.5" width="23" height="23" rx="4"></rect>
                    <polyline id="路径" stroke="#666666" transform="translate(11.559525, 12.349971) rotate(180.000000) translate(-11.559525, -12.349971) " points="14.1190498 8 9 12.5251749 14.1190498 16.6999419"></polyline>
                    <line x1="14.7859442" y1="8" x2="14.7859442" y2="16.6999419" id="路径-3" stroke="#666666"></line>
                </g>
                <g id="分组-3-copy-2" transform="translate(919.000000, 249.000000)">
                    <g id="路径-2" transform="translate(47.000000, 5.000000)">
                        <polyline id="路径" stroke="#666666" transform="translate(4.959525, 3.349971) rotate(270.000000) translate(-4.959525, -3.349971) " points="7.51904985 -1 2.40000003 3.5251749 7.51904985 7.69994188"></polyline>
                        <rect id="矩形" x="0" y="0" width="10" height="6"></rect>
                    </g>
                    <text id="10/page" font-family="PingFangSC-Regular, PingFang SC" font-size="11" font-weight="normal" fill="#666666">
                        <tspan x="0" y="12">10/page</tspan>
                    </text>
                </g>
                <rect id="矩形" stroke="#E3E3E3" x="911.5" y="245.5" width="72" height="23" rx="4"></rect>
                <g id="分组-3-copy" transform="translate(619.000000, 245.000000)">
                    <rect id="矩形" fill="#E4EFFF" x="0" y="0" width="24" height="24" rx="4"></rect>
                    <text id="1" font-family="PingFangSC-Medium, PingFang SC" font-size="11" font-weight="400" fill="#4F7DE7">
                        <tspan x="9.756" y="16">1</tspan>
                    </text>
                </g>
                <g id="分组-3-copy" transform="translate(655.000000, 245.000000)">
                    <rect id="矩形" stroke="#E3E3E3" x="0.5" y="0.5" width="23" height="23" rx="4"></rect>
                    <text id="2" font-family="ArialMT, Arial" font-size="11" font-weight="normal" fill="#666666">
                        <tspan x="8.94116211" y="16">2</tspan>
                    </text>
                </g>
                <g id="分组-3-copy" transform="translate(691.000000, 245.000000)">
                    <rect id="矩形" stroke="#E3E3E3" x="0.5" y="0.5" width="23" height="23" rx="4"></rect>
                    <text id="3" font-family="ArialMT, Arial" font-size="11" font-weight="normal" fill="#666666">
                        <tspan x="8.94116211" y="16">3</tspan>
                    </text>
                </g>
                <g id="分组-3-copy备份" transform="translate(727.000000, 245.000000)">
                    <rect id="矩形" stroke="#E3E3E3" x="0.5" y="0.5" width="23" height="23" rx="4"></rect>
                    <text id="4" font-family="ArialMT, Arial" font-size="11" font-weight="normal" fill="#666666">
                        <tspan x="8.94116211" y="16">4</tspan>
                    </text>
                </g>
                <g id="分组-3-copy备份-2" transform="translate(799.000000, 245.000000)">
                    <rect id="矩形" stroke="#E3E3E3" x="0.5" y="0.5" width="23" height="23" rx="4"></rect>
                    <text id="20" font-family="ArialMT, Arial" font-size="11" font-weight="normal" fill="#666666">
                        <tspan x="6.38232422" y="16">20</tspan>
                    </text>
                </g>
                <g id="分组-3-copy备份-3" transform="translate(768.000000, 255.000000)" fill="#666666">
                    <path d="M1.5,0 C2.32842712,0 3,0.671572875 3,1.5 C3,2.32842712 2.32842712,3 1.5,3 C0.671572875,3 0,2.32842712 0,1.5 C0,0.671572875 0.671572875,0 1.5,0 Z M7.5,0 C8.32842712,0 9,0.671572875 9,1.5 C9,2.32842712 8.32842712,3 7.5,3 C6.67157288,3 6,2.32842712 6,1.5 C6,0.671572875 6.67157288,0 7.5,0 Z M13.5,0 C14.3284271,0 15,0.671572875 15,1.5 C15,2.32842712 14.3284271,3 13.5,3 C12.6715729,3 12,2.32842712 12,1.5 C12,0.671572875 12.6715729,0 13.5,0 Z" id="椭圆形-2"></path>
                </g>
            </g>
        </g>
    </g>
</svg>