<?xml version="1.0" encoding="UTF-8"?>
<svg width="934px" height="182px" viewBox="0 0 934 182" version="1.1" xmlns="http://www.w3.org/2000/svg" xmlns:xlink="http://www.w3.org/1999/xlink">
    <!-- Generator: Sketch 58 (84663) - https://sketch.com -->
    <title>style3/screening</title>
    <desc>Created with Sketch.</desc>
    <g id="页面-1" stroke="none" stroke-width="1" fill="none" fill-rule="evenodd">
        <g id="画板" transform="translate(-2046.000000, -913.000000)">
            <g id="style3/screening" transform="translate(2046.000000, 913.000000)">
                <rect id="Rectangle" fill="#FAFAFA" x="1" y="1" width="932" height="32" rx="2"></rect>
                <g id="编组-3" transform="translate(25.000000, 8.000000)" font-family="PingFangSC-Medium, PingFang SC" font-size="12" font-weight="400" line-spacing="20">
                    <text id="标题" fill="#AAADBA">
                        <tspan x="0" y="13">标题</tspan>
                    </text>
                    <text id="采购管理" fill="#5A6677">
                        <tspan x="0" y="48">采购管理</tspan>
                    </text>
                    <text id="销售管理" fill="#5A6677">
                        <tspan x="0" y="85">销售管理</tspan>
                    </text>
                    <text id="售后管理" fill="#5A6677">
                        <tspan x="0" y="122">售后管理</tspan>
                    </text>
                    <text id="退货管理" fill="#5A6677">
                        <tspan x="0" y="158">退货管理</tspan>
                    </text>
                </g>
                <g id="编组-5" transform="translate(205.000000, 8.000000)">
                    <text id="说明文案说明文案说明文案…" font-family="PingFangSC-Medium, PingFang SC" font-size="12" font-weight="400" line-spacing="20" fill="#5A6677">
                        <tspan x="0" y="48">说明文案说明文案说明文案…</tspan>
                    </text>
                    <text id="说明文案说明文案说明文案…" font-family="PingFangSC-Medium, PingFang SC" font-size="12" font-weight="400" line-spacing="20" fill="#5A6677">
                        <tspan x="0" y="85">说明文案说明文案说明文案…</tspan>
                    </text>
                    <text id="说明文案说明文案说明文案…" font-family="PingFangSC-Medium, PingFang SC" font-size="12" font-weight="400" line-spacing="20" fill="#5A6677">
                        <tspan x="0" y="122">说明文案说明文案说明文案…</tspan>
                    </text>
                    <text id="说明文案说明文案说明文案…" font-family="PingFangSC-Medium, PingFang SC" font-size="12" font-weight="400" line-spacing="20" fill="#5A6677">
                        <tspan x="0" y="158">说明文案说明文案说明文案…</tspan>
                    </text>
                    <text id="说明" font-family="PingFangSC-Medium, PingFang SC" font-size="12" font-weight="400" line-spacing="20" fill="#AAADBA">
                        <tspan x="0" y="13">说明</tspan>
                    </text>
                    <g id="编组" transform="translate(36.000000, 0.000000)">
                        <rect id="矩形" fill-opacity="0.01" fill="#F0F0F0" x="0" y="0" width="20" height="20" rx="4"></rect>
                        <path d="M11.7142857,10 L11.7142857,13.7423703 L8.28571429,16 L8.28571429,10 L11.7142857,10 Z M4,4 L16,4 L11.7142857,9.14285714 L8.28571429,9.14285714 L4,4 Z" id="screen-s" fill="#AAADBA"></path>
                    </g>
                </g>
                <g id="编组-6" transform="translate(506.000000, 8.000000)" font-family="PingFangSC-Medium, PingFang SC" font-size="12" font-weight="400" line-spacing="20">
                    <text id="管理员" fill="#5A6677">
                        <tspan x="0" y="48">管理员</tspan>
                    </text>
                    <text id="管理员" fill="#5A6677">
                        <tspan x="0" y="85">管理员</tspan>
                    </text>
                    <text id="管理员" fill="#5A6677">
                        <tspan x="0" y="122">管理员</tspan>
                    </text>
                    <text id="管理员" fill="#5A6677">
                        <tspan x="0" y="158">管理员</tspan>
                    </text>
                    <text id="发布人" fill="#AAADBA">
                        <tspan x="0" y="13">发布人</tspan>
                    </text>
                </g>
                <g id="编组-6" transform="translate(696.000000, 8.000000)" font-family="PingFangSC-Medium, PingFang SC" font-size="12" font-weight="400" line-spacing="20">
                    <text id="备注文案" fill="#5A6677">
                        <tspan x="0" y="48">备注文案</tspan>
                    </text>
                    <text id="备注文案" fill="#5A6677">
                        <tspan x="0" y="85">备注文案</tspan>
                    </text>
                    <text id="备注文案" fill="#5A6677">
                        <tspan x="0" y="122">备注文案</tspan>
                    </text>
                    <text id="备注文案" fill="#5A6677">
                        <tspan x="0" y="158">备注文案</tspan>
                    </text>
                    <text id="备注" fill="#AAADBA">
                        <tspan x="0" y="13">备注</tspan>
                    </text>
                </g>
                <g id="编组-6" transform="translate(893.000000, 44.000000)">
                    <g id="编组-10">
                        <rect id="矩形" fill="#D8D8D8" opacity="0.01" x="0" y="0" width="16" height="16"></rect>
                        <path d="M8.5,12 C9.05228475,12 9.5,12.4477153 9.5,13 L9.5,14 C9.5,14.5522847 9.05228475,15 8.5,15 L7.5,15 C6.94771525,15 6.5,14.5522847 6.5,14 L6.5,13 C6.5,12.4477153 6.94771525,12 7.5,12 L8.5,12 Z M8.5,6.5 C9.05228475,6.5 9.5,6.94771525 9.5,7.5 L9.5,8.5 C9.5,9.05228475 9.05228475,9.5 8.5,9.5 L7.5,9.5 C6.94771525,9.5 6.5,9.05228475 6.5,8.5 L6.5,7.5 C6.5,6.94771525 6.94771525,6.5 7.5,6.5 L8.5,6.5 Z M8.5,1 C9.05228475,1 9.5,1.44771525 9.5,2 L9.5,3 C9.5,3.55228475 9.05228475,4 8.5,4 L7.5,4 C6.94771525,4 6.5,3.55228475 6.5,3 L6.5,2 C6.5,1.44771525 6.94771525,1 7.5,1 L8.5,1 Z" id="矩形-5" fill="#5A6677"></path>
                    </g>
                    <g id="编组-10" transform="translate(0.000000, 37.000000)">
                        <rect id="矩形" fill="#D8D8D8" opacity="0.01" x="0" y="0" width="16" height="16"></rect>
                        <path d="M8.5,12 C9.05228475,12 9.5,12.4477153 9.5,13 L9.5,14 C9.5,14.5522847 9.05228475,15 8.5,15 L7.5,15 C6.94771525,15 6.5,14.5522847 6.5,14 L6.5,13 C6.5,12.4477153 6.94771525,12 7.5,12 L8.5,12 Z M8.5,6.5 C9.05228475,6.5 9.5,6.94771525 9.5,7.5 L9.5,8.5 C9.5,9.05228475 9.05228475,9.5 8.5,9.5 L7.5,9.5 C6.94771525,9.5 6.5,9.05228475 6.5,8.5 L6.5,7.5 C6.5,6.94771525 6.94771525,6.5 7.5,6.5 L8.5,6.5 Z M8.5,1 C9.05228475,1 9.5,1.44771525 9.5,2 L9.5,3 C9.5,3.55228475 9.05228475,4 8.5,4 L7.5,4 C6.94771525,4 6.5,3.55228475 6.5,3 L6.5,2 C6.5,1.44771525 6.94771525,1 7.5,1 L8.5,1 Z" id="矩形-5" fill="#5A6677"></path>
                    </g>
                    <g id="编组-10" transform="translate(0.000000, 74.000000)">
                        <rect id="矩形" fill="#D8D8D8" opacity="0.01" x="0" y="0" width="16" height="16"></rect>
                        <path d="M8.5,12 C9.05228475,12 9.5,12.4477153 9.5,13 L9.5,14 C9.5,14.5522847 9.05228475,15 8.5,15 L7.5,15 C6.94771525,15 6.5,14.5522847 6.5,14 L6.5,13 C6.5,12.4477153 6.94771525,12 7.5,12 L8.5,12 Z M8.5,6.5 C9.05228475,6.5 9.5,6.94771525 9.5,7.5 L9.5,8.5 C9.5,9.05228475 9.05228475,9.5 8.5,9.5 L7.5,9.5 C6.94771525,9.5 6.5,9.05228475 6.5,8.5 L6.5,7.5 C6.5,6.94771525 6.94771525,6.5 7.5,6.5 L8.5,6.5 Z M8.5,1 C9.05228475,1 9.5,1.44771525 9.5,2 L9.5,3 C9.5,3.55228475 9.05228475,4 8.5,4 L7.5,4 C6.94771525,4 6.5,3.55228475 6.5,3 L6.5,2 C6.5,1.44771525 6.94771525,1 7.5,1 L8.5,1 Z" id="矩形-5" fill="#5A6677"></path>
                    </g>
                    <g id="编组-10" transform="translate(0.000000, 111.000000)">
                        <rect id="矩形" fill="#D8D8D8" opacity="0.01" x="0" y="0" width="16" height="16"></rect>
                        <path d="M8.5,12 C9.05228475,12 9.5,12.4477153 9.5,13 L9.5,14 C9.5,14.5522847 9.05228475,15 8.5,15 L7.5,15 C6.94771525,15 6.5,14.5522847 6.5,14 L6.5,13 C6.5,12.4477153 6.94771525,12 7.5,12 L8.5,12 Z M8.5,6.5 C9.05228475,6.5 9.5,6.94771525 9.5,7.5 L9.5,8.5 C9.5,9.05228475 9.05228475,9.5 8.5,9.5 L7.5,9.5 C6.94771525,9.5 6.5,9.05228475 6.5,8.5 L6.5,7.5 C6.5,6.94771525 6.94771525,6.5 7.5,6.5 L8.5,6.5 Z M8.5,1 C9.05228475,1 9.5,1.44771525 9.5,2 L9.5,3 C9.5,3.55228475 9.05228475,4 8.5,4 L7.5,4 C6.94771525,4 6.5,3.55228475 6.5,3 L6.5,2 C6.5,1.44771525 6.94771525,1 7.5,1 L8.5,1 Z" id="矩形-5" fill="#5A6677"></path>
                    </g>
                </g>
                <rect id="Rectangle" fill="#F1F1F1" x="1" y="70" width="932" height="1"></rect>
                <rect id="矩形" stroke="#F1F1F1" x="0.5" y="0.5" width="933" height="181"></rect>
                <rect id="矩形" fill="#F1F1F1" x="188" y="0" width="1" height="181"></rect>
                <rect id="矩形" fill="#F1F1F1" x="489" y="0" width="1" height="181"></rect>
                <rect id="矩形" fill="#F1F1F1" x="679" y="0" width="1" height="181"></rect>
                <rect id="矩形" fill="#F1F1F1" x="868" y="0" width="1" height="181"></rect>
                <rect id="Rectangle" fill="#F1F1F1" x="1" y="107" width="932" height="1"></rect>
                <rect id="Rectangle" fill="#F1F1F1" x="1" y="144" width="932" height="1"></rect>
                <rect id="Rectangle" fill="#F1F1F1" x="1" y="181" width="932" height="1"></rect>
                <rect id="Rectangle" fill="#F1F1F1" x="1" y="33" width="932" height="1"></rect>
                <rect id="Rectangle" fill="#F1F1F1" x="1" y="0" width="932" height="1"></rect>
                <g id="编组" transform="translate(61.000000, 7.000000)">
                    <rect id="矩形" fill-opacity="0.01" fill="#F0F0F0" x="0" y="0" width="20" height="20" rx="4"></rect>
                    <path d="M11.7142857,10 L11.7142857,13.7423703 L8.28571429,16 L8.28571429,10 L11.7142857,10 Z M4,4 L16,4 L11.7142857,9.14285714 L8.28571429,9.14285714 L4,4 Z" id="screen-s" fill="#AAADBA"></path>
                </g>
            </g>
        </g>
    </g>
</svg>