<?xml version="1.0" encoding="UTF-8"?>
<svg width="241px" height="192px" viewBox="0 0 241 192" version="1.1" xmlns="http://www.w3.org/2000/svg" xmlns:xlink="http://www.w3.org/1999/xlink">
    <!-- Generator: Sketch 58 (84663) - https://sketch.com -->
    <title>input-style3</title>
    <desc>Created with Sketch.</desc>
    <defs>
        <polygon id="path-1" points="4.30251387 15.5021376 2.99218577 0.502137574 15.9921858 9.03637537 8.49919044 9.03637537"></polygon>
        <filter x="-19.9%" y="-13.2%" width="148.2%" height="143.2%" filterUnits="objectBoundingBox" id="filter-2">
            <feMorphology radius="0.5" operator="dilate" in="SourceAlpha" result="shadowSpreadOuter1"></feMorphology>
            <feOffset dx="0" dy="1" in="shadowSpreadOuter1" result="shadowOffsetOuter1"></feOffset>
            <feGaussianBlur stdDeviation="0.5" in="shadowOffsetOuter1" result="shadowBlurOuter1"></feGaussianBlur>
            <feComposite in="shadowBlurOuter1" in2="SourceAlpha" operator="out" result="shadowBlurOuter1"></feComposite>
            <feColorMatrix values="0 0 0 0 0   0 0 0 0 0   0 0 0 0 0  0 0 0 0.5 0" type="matrix" in="shadowBlurOuter1"></feColorMatrix>
        </filter>
        <linearGradient x1="50%" y1="0%" x2="50%" y2="100%" id="linearGradient-3">
            <stop stop-color="#FFFFFF" offset="0%"></stop>
            <stop stop-color="#EEEEEE" offset="100%"></stop>
        </linearGradient>
        <path d="M14.4165577,11.6253645 C19.9394052,11.6253645 24.4165577,16.102517 24.4165577,21.6253645 C24.4165577,27.148212 19.9394052,31.6253645 14.4165577,31.6253645 C8.89371023,31.6253645 4.41655772,27.148212 4.41655772,21.6253645 C4.41655772,16.102517 8.89371023,11.6253645 14.4165577,11.6253645 Z M6.41655772,21.6253645 C6.41655772,25.704999 9.47027128,29.0714004 13.4166064,29.5634768 L13.4166064,13.6872522 C9.47027128,14.1793286 6.41655772,17.5457301 6.41655772,21.6253645 Z M15.4175128,13.6873774 L15.4175128,29.5633516 C19.363362,29.0708295 22.4165577,25.704653 22.4165577,21.6253645 C22.4165577,17.546076 19.363362,14.1798995 15.4175128,13.6873774 Z" id="path-4"></path>
        <filter x="-10.0%" y="-5.0%" width="120.0%" height="120.0%" filterUnits="objectBoundingBox" id="filter-5">
            <feOffset dx="0" dy="1" in="SourceAlpha" result="shadowOffsetOuter1"></feOffset>
            <feGaussianBlur stdDeviation="0.5" in="shadowOffsetOuter1" result="shadowBlurOuter1"></feGaussianBlur>
            <feColorMatrix values="0 0 0 0 0   0 0 0 0 0   0 0 0 0 0  0 0 0 0.5 0" type="matrix" in="shadowBlurOuter1"></feColorMatrix>
        </filter>
    </defs>
    <g id="页面-1" stroke="none" stroke-width="1" fill="none" fill-rule="evenodd">
        <g id="input-style3">
            <rect id="矩形备份" fill="#FAFAFA" opacity="0.01" x="0" y="0" width="241" height="192"></rect>
            <path d="M52.3632812,28.0488281 L57.9882812,28.0488281 L57.6223952,27.3665352 C57.3975691,26.9568133 57.2109382,26.6373709 57.0625,26.4082031 L57.9648438,25.9863281 L58.2200521,26.392578 C58.414496,26.7102855 58.6575506,27.1217423 58.9492188,27.6269531 L58.1054688,28.0488281 L63.6132812,28.0488281 L63.6132812,28.9160156 L61.4511719,28.9160156 C61.033201,31.1464955 60.1347725,32.9394463 58.7558594,34.2949219 C59.7949271,35.0527382 61.4453012,35.7324189 63.7070312,36.3339844 C63.3476545,36.7402364 63.0742197,37.0800768 62.8867188,37.3535156 C60.6835827,36.5917931 59.0566459,35.794926 58.0058594,34.9628906 C56.9511666,35.7832072 55.2656366,36.6113239 52.9492188,37.4472656 L52.6210942,37.013672 C52.5039069,36.8613286 52.3789069,36.7011727 52.2460938,36.5332031 C54.4804799,35.8613248 56.1621037,35.1132854 57.2910156,34.2890625 C55.8652272,32.7656174 54.9589863,30.9746197 54.5722656,28.9160156 L52.3632812,28.9160156 L52.3632812,28.0488281 Z M60.4492188,28.9160156 L55.5097656,28.9160156 C55.8613299,30.8379002 56.7011652,32.425775 58.0292969,33.6796875 C59.2988345,32.4999941 60.105467,30.9121194 60.4492188,28.9160156 Z M75.7773438,34.4941406 L75.4257815,34.8515622 C75.2929693,34.9882806 75.1445321,35.1425773 74.9804688,35.3144531 C73.0898343,33.8574146 71.5820369,31.9902458 70.4570312,29.7128906 L70.4570312,34.3535156 L73.140625,34.3535156 L73.140625,35.1738281 L70.4570312,35.1738281 L70.4570312,37.5761719 L69.5429688,37.5761719 L69.5429688,35.1738281 L66.765625,35.1738281 L66.765625,34.3535156 L69.5429688,34.3535156 L69.5429688,29.7128906 C68.54687,31.6972755 67.0195415,33.6113189 64.9609375,35.4550781 L64.6178121,35.1344528 C64.4575,34.9872655 64.3140631,34.8597662 64.1875,34.7519531 C66.4101674,32.9277253 68.0722601,30.9980571 69.1738281,28.9628906 L64.4453125,28.9628906 L64.4453125,28.0957031 L69.5429688,28.0957031 L69.5429688,25.9863281 L70.4570312,25.9863281 L70.4570312,28.0957031 L75.5546875,28.0957031 L75.5546875,28.9628906 L70.7910156,28.9628906 C72.0332093,31.2988398 73.6953021,33.1425714 75.7773438,34.4941406 Z M77.171875,31.8457031 L78.2265625,31.8457031 L78.2265625,29.7128906 L79,29.7128906 L79,31.8457031 L80.125,31.8457031 L80.125,32.6191406 L79,32.6191406 L79,34.2246094 C79.4140646,34.1699216 79.8359354,34.1074222 80.265625,34.0371094 C80.2265623,34.3339859 80.1992188,34.6035144 80.1835938,34.8457031 L79,35.0097656 L79,35.0097656 L79,37.6230469 L78.2265625,37.6230469 L78.2265625,35.1269531 C77.5937468,35.2207036 76.9570345,35.3183589 76.3164062,35.4199219 L76.1875,34.5644531 C76.8593784,34.4941403 77.5390591,34.4160161 78.2265625,34.3300781 L78.2265625,32.6191406 L76.3515625,32.6191406 L76.3515625,31.8105469 C76.648439,30.9746052 76.9570296,29.9121158 77.2773438,28.6230469 L76.2460938,28.6230469 L76.2460938,27.8730469 L77.4648438,27.8730469 C77.5976569,27.3105441 77.7343743,26.7089876 77.875,26.0683594 L78.71875,26.2558594 L78.296875,27.8730469 L78.296875,27.8730469 L80.4179688,27.8730469 L80.4179688,28.6230469 L78.0976562,28.6230469 L77.846435,29.536379 C77.6018062,30.4138203 77.3769542,31.1835904 77.171875,31.8457031 Z M81.2734375,37.5996094 L80.5234375,37.5996094 L80.5234375,30.6972656 L83.640625,30.6972656 L83.640625,36.4628906 C83.640625,37.1503941 83.3242219,37.4941406 82.6914062,37.4941406 L81.7773438,37.4824219 L81.7773438,37.4824219 L81.6132812,36.7558594 L81.6132812,36.7558594 C81.9257828,36.779297 82.2109362,36.7910156 82.46875,36.7910156 C82.7500014,36.7910156 82.890625,36.6347672 82.890625,36.3222656 L82.890625,34.9628906 L81.2734375,34.9628906 L81.2734375,37.5996094 Z M84.6601562,26.1503906 L84.4609375,26.4082031 C85.3750046,27.78321 86.5195244,28.7675752 87.8945312,29.3613281 C87.6289049,29.6738297 87.425782,29.9433582 87.2851562,30.1699219 C86.7539036,29.8730454 86.261721,29.5371113 85.8085938,29.1621094 L85.8085938,29.7480469 L81.7421875,29.7480469 L81.7421875,29.2324219 C81.2812477,29.6152363 80.8007837,29.9667953 80.3007812,30.2871094 C80.0664051,29.9824204 79.8593759,29.7441415 79.6796875,29.5722656 C81.2343828,28.6660111 82.4882765,27.5253975 83.4414062,26.1503906 L84.6601562,26.1503906 Z M86.40625,30.4863281 L87.203125,30.4863281 L87.203125,36.1933594 C87.203125,37.0605512 86.8359412,37.4980468 86.1015625,37.5058594 C85.703123,37.5136719 85.2460963,37.5058595 84.7304688,37.4824219 C84.6914061,37.1933579 84.6367191,36.9003921 84.5664062,36.6035156 C85.0585962,36.6660159 85.480467,36.6972656 85.8320312,36.6972656 C86.2148457,36.6972656 86.40625,36.4941427 86.40625,36.0878906 L86.40625,30.4863281 Z M83.8867188,27.0175781 C83.3007783,27.7519568 82.6679721,28.4160127 81.9882812,29.0097656 L85.6210938,29.0097656 C84.9570279,28.4316377 84.3789087,27.7675819 83.8867188,27.0175781 Z M84.6132812,31.0488281 L85.3632812,31.0488281 L85.3632812,35.3144531 L84.6132812,35.3144531 L84.6132812,31.0488281 Z M81.2734375,34.3066406 L82.890625,34.3066406 L82.890625,33.1816406 L81.2734375,33.1816406 L81.2734375,34.3066406 Z M82.890625,31.4121094 L81.2734375,31.4121094 L81.2734375,32.5253906 L82.890625,32.5253906 L82.890625,31.4121094 Z M91.4335938,26.7246094 L92.2070312,26.1738281 C93.0820356,26.7128933 94.0429635,28.095692 95.0898438,30.3222656 C96.5507886,33.5175941 98.1367102,35.4667934 99.8476562,36.1699219 L99.0273438,37.2011719 C97.3876871,36.2278597 95.8664407,34.2213688 94.4635628,31.1816425 L94.0494794,30.2714846 C94.011285,30.1894535 93.9733075,30.1087244 93.9355469,30.0292969 C93.0292923,33.1347812 91.3437623,35.5488195 88.8789062,37.2714844 C88.6679677,36.9589828 88.4296888,36.666017 88.1640625,36.3925781 C90.6992314,34.7949139 92.4062456,32.2675954 93.2851562,28.8105469 C92.6718719,27.7871043 92.0546906,27.0917987 91.4335938,26.7246094 Z M104.640625,26.7363281 L111.554688,26.7363281 L111.554688,27.5800781 L105.519531,27.5800781 L105.519531,36.2285156 L111.71875,36.2285156 L111.71875,37.0722656 L104.640625,37.0722656 L104.640625,26.7363281 Z M100.164062,33.3691406 C100.988285,32.0644466 101.57617,30.6503982 101.927734,29.1269531 L100.246094,29.1269531 L100.246094,28.3066406 L101.933594,28.3066406 L101.933594,26.0214844 L102.800781,26.0214844 L102.800781,28.3066406 L104.265625,28.3066406 L104.265625,29.1269531 L102.800781,29.1269531 L102.800781,30.9960938 L103.316406,30.5214844 L103.621572,30.8419566 C103.890226,31.1305402 104.194753,31.4729333 104.535156,31.8691406 L103.890625,32.4667969 C103.570311,32.0371072 103.207033,31.587893 102.800781,31.1191406 L102.800781,37.5761719 L101.933594,37.5761719 L101.933594,31.3007812 C101.531248,32.6132878 101.066409,33.6464806 100.539062,34.4003906 C100.437499,34.0644514 100.312501,33.7207049 100.164062,33.3691406 Z M105.917969,33.9785156 L108.296875,33.9785156 L108.296875,32.1738281 L106.421875,32.1738281 L106.421875,31.3769531 L108.296875,31.3769531 L108.296875,29.6894531 L106.210938,29.6894531 L106.210938,28.8925781 L111.296875,28.8925781 L111.296875,29.6894531 L109.164062,29.6894531 L109.164062,31.3769531 L111.039062,31.3769531 L111.039062,32.1738281 L109.164062,32.1738281 L109.164062,33.9785156 L111.542969,33.9785156 L111.542969,34.7753906 L105.917969,34.7753906 L105.917969,33.9785156 Z" id="文本输入框" fill="#333333" fill-rule="nonzero"></path>
            <rect id="矩形" fill="#D9D9D9" x="52" y="45" width="177" height="1"></rect>
            <rect id="矩形" fill="#EFF6FF" x="52" y="58" width="177" height="20"></rect>
            <path d="M52.3632812,65.0488281 L57.9882812,65.0488281 L57.6223952,64.3665352 C57.3975691,63.9568133 57.2109382,63.6373709 57.0625,63.4082031 L57.9648438,62.9863281 L58.2200521,63.392578 C58.414496,63.7102855 58.6575506,64.1217423 58.9492188,64.6269531 L58.1054688,65.0488281 L63.6132812,65.0488281 L63.6132812,65.9160156 L61.4511719,65.9160156 C61.033201,68.1464955 60.1347725,69.9394463 58.7558594,71.2949219 C59.7949271,72.0527382 61.4453012,72.7324189 63.7070312,73.3339844 C63.3476545,73.7402364 63.0742197,74.0800768 62.8867188,74.3535156 C60.6835827,73.5917931 59.0566459,72.794926 58.0058594,71.9628906 C56.9511666,72.7832072 55.2656366,73.6113239 52.9492188,74.4472656 L52.6210942,74.013672 C52.5039069,73.8613286 52.3789069,73.7011727 52.2460938,73.5332031 C54.4804799,72.8613248 56.1621037,72.1132854 57.2910156,71.2890625 C55.8652272,69.7656174 54.9589863,67.9746197 54.5722656,65.9160156 L52.3632812,65.9160156 L52.3632812,65.0488281 Z M60.4492188,65.9160156 L55.5097656,65.9160156 C55.8613299,67.8379002 56.7011652,69.425775 58.0292969,70.6796875 C59.2988345,69.4999941 60.105467,67.9121194 60.4492188,65.9160156 Z M75.7773438,71.4941406 L75.4257815,71.8515622 C75.2929693,71.9882806 75.1445321,72.1425773 74.9804688,72.3144531 C73.0898343,70.8574146 71.5820369,68.9902458 70.4570312,66.7128906 L70.4570312,71.3535156 L73.140625,71.3535156 L73.140625,72.1738281 L70.4570312,72.1738281 L70.4570312,74.5761719 L69.5429688,74.5761719 L69.5429688,72.1738281 L66.765625,72.1738281 L66.765625,71.3535156 L69.5429688,71.3535156 L69.5429688,66.7128906 C68.54687,68.6972755 67.0195415,70.6113189 64.9609375,72.4550781 L64.6178121,72.1344528 C64.4575,71.9872655 64.3140631,71.8597662 64.1875,71.7519531 C66.4101674,69.9277253 68.0722601,67.9980571 69.1738281,65.9628906 L64.4453125,65.9628906 L64.4453125,65.0957031 L69.5429688,65.0957031 L69.5429688,62.9863281 L70.4570312,62.9863281 L70.4570312,65.0957031 L75.5546875,65.0957031 L75.5546875,65.9628906 L70.7910156,65.9628906 C72.0332093,68.2988398 73.6953021,70.1425714 75.7773438,71.4941406 Z M77.171875,68.8457031 L78.2265625,68.8457031 L78.2265625,66.7128906 L79,66.7128906 L79,68.8457031 L80.125,68.8457031 L80.125,69.6191406 L79,69.6191406 L79,71.2246094 C79.4140646,71.1699216 79.8359354,71.1074222 80.265625,71.0371094 C80.2265623,71.3339859 80.1992188,71.6035144 80.1835938,71.8457031 L79,72.0097656 L79,72.0097656 L79,74.6230469 L78.2265625,74.6230469 L78.2265625,72.1269531 C77.5937468,72.2207036 76.9570345,72.3183589 76.3164062,72.4199219 L76.1875,71.5644531 C76.8593784,71.4941403 77.5390591,71.4160161 78.2265625,71.3300781 L78.2265625,69.6191406 L76.3515625,69.6191406 L76.3515625,68.8105469 C76.648439,67.9746052 76.9570296,66.9121158 77.2773438,65.6230469 L76.2460938,65.6230469 L76.2460938,64.8730469 L77.4648438,64.8730469 C77.5976569,64.3105441 77.7343743,63.7089876 77.875,63.0683594 L78.71875,63.2558594 L78.296875,64.8730469 L78.296875,64.8730469 L80.4179688,64.8730469 L80.4179688,65.6230469 L78.0976562,65.6230469 L77.846435,66.536379 C77.6018062,67.4138203 77.3769542,68.1835904 77.171875,68.8457031 Z M81.2734375,74.5996094 L80.5234375,74.5996094 L80.5234375,67.6972656 L83.640625,67.6972656 L83.640625,73.4628906 C83.640625,74.1503941 83.3242219,74.4941406 82.6914062,74.4941406 L81.7773438,74.4824219 L81.7773438,74.4824219 L81.6132812,73.7558594 L81.6132812,73.7558594 C81.9257828,73.779297 82.2109362,73.7910156 82.46875,73.7910156 C82.7500014,73.7910156 82.890625,73.6347672 82.890625,73.3222656 L82.890625,71.9628906 L81.2734375,71.9628906 L81.2734375,74.5996094 Z M84.6601562,63.1503906 L84.4609375,63.4082031 C85.3750046,64.78321 86.5195244,65.7675752 87.8945312,66.3613281 C87.6289049,66.6738297 87.425782,66.9433582 87.2851562,67.1699219 C86.7539036,66.8730454 86.261721,66.5371112 85.8085938,66.1621094 L85.8085938,66.7480469 L81.7421875,66.7480469 L81.7421875,66.2324219 C81.2812477,66.6152363 80.8007837,66.9667953 80.3007812,67.2871094 C80.0664051,66.9824204 79.8593759,66.7441415 79.6796875,66.5722656 C81.2343828,65.6660111 82.4882765,64.5253975 83.4414062,63.1503906 L84.6601562,63.1503906 Z M86.40625,67.4863281 L87.203125,67.4863281 L87.203125,73.1933594 C87.203125,74.0605512 86.8359412,74.4980468 86.1015625,74.5058594 C85.703123,74.5136719 85.2460963,74.5058595 84.7304688,74.4824219 C84.6914061,74.1933579 84.6367191,73.9003921 84.5664062,73.6035156 C85.0585962,73.6660159 85.480467,73.6972656 85.8320312,73.6972656 C86.2148457,73.6972656 86.40625,73.4941427 86.40625,73.0878906 L86.40625,67.4863281 Z M83.8867188,64.0175781 C83.3007783,64.7519568 82.6679721,65.4160127 81.9882812,66.0097656 L85.6210938,66.0097656 C84.9570279,65.4316377 84.3789087,64.7675819 83.8867188,64.0175781 Z M84.6132812,68.0488281 L85.3632812,68.0488281 L85.3632812,72.3144531 L84.6132812,72.3144531 L84.6132812,68.0488281 Z M81.2734375,71.3066406 L82.890625,71.3066406 L82.890625,70.1816406 L81.2734375,70.1816406 L81.2734375,71.3066406 Z M82.890625,68.4121094 L81.2734375,68.4121094 L81.2734375,69.5253906 L82.890625,69.5253906 L82.890625,68.4121094 Z M91.4335938,63.7246094 L92.2070312,63.1738281 C93.0820356,63.7128933 94.0429635,65.095692 95.0898438,67.3222656 C96.5507886,70.5175941 98.1367102,72.4667934 99.8476562,73.1699219 L99.0273438,74.2011719 C97.3876871,73.2278597 95.8664407,71.2213688 94.4635628,68.1816425 L94.0494794,67.2714846 C94.011285,67.1894535 93.9733075,67.1087244 93.9355469,67.0292969 C93.0292923,70.1347812 91.3437623,72.5488195 88.8789062,74.2714844 C88.6679677,73.9589828 88.4296888,73.666017 88.1640625,73.3925781 C90.6992314,71.7949139 92.4062456,69.2675954 93.2851562,65.8105469 C92.6718719,64.7871043 92.0546906,64.0917987 91.4335938,63.7246094 Z M104.640625,63.7363281 L111.554688,63.7363281 L111.554688,64.5800781 L105.519531,64.5800781 L105.519531,73.2285156 L111.71875,73.2285156 L111.71875,74.0722656 L104.640625,74.0722656 L104.640625,63.7363281 Z M100.164062,70.3691406 C100.988285,69.0644466 101.57617,67.6503982 101.927734,66.1269531 L100.246094,66.1269531 L100.246094,65.3066406 L101.933594,65.3066406 L101.933594,63.0214844 L102.800781,63.0214844 L102.800781,65.3066406 L104.265625,65.3066406 L104.265625,66.1269531 L102.800781,66.1269531 L102.800781,67.9960938 L103.316406,67.5214844 L103.621572,67.8419566 C103.890226,68.1305402 104.194753,68.4729333 104.535156,68.8691406 L103.890625,69.4667969 C103.570311,69.0371072 103.207033,68.587893 102.800781,68.1191406 L102.800781,74.5761719 L101.933594,74.5761719 L101.933594,68.3007812 C101.531248,69.6132878 101.066409,70.6464806 100.539062,71.4003906 C100.437499,71.0644514 100.312501,70.7207049 100.164062,70.3691406 Z M105.917969,70.9785156 L108.296875,70.9785156 L108.296875,69.1738281 L106.421875,69.1738281 L106.421875,68.3769531 L108.296875,68.3769531 L108.296875,66.6894531 L106.210938,66.6894531 L106.210938,65.8925781 L111.296875,65.8925781 L111.296875,66.6894531 L109.164062,66.6894531 L109.164062,68.3769531 L111.039062,68.3769531 L111.039062,69.1738281 L109.164062,69.1738281 L109.164062,70.9785156 L111.542969,70.9785156 L111.542969,71.7753906 L105.917969,71.7753906 L105.917969,70.9785156 Z" id="文本输入框" fill="#333333" fill-rule="nonzero"></path>
            <rect id="矩形" fill="#B8D7FF" x="52" y="82" width="177" height="1"></rect>
            <path d="M52.3632812,106.048828 L57.9882812,106.048828 L57.6223952,105.366535 C57.3975691,104.956813 57.2109382,104.637371 57.0625,104.408203 L57.9648438,103.986328 L58.2200521,104.392578 C58.414496,104.710286 58.6575506,105.121742 58.9492188,105.626953 L58.1054688,106.048828 L63.6132812,106.048828 L63.6132812,106.916016 L61.4511719,106.916016 C61.033201,109.146496 60.1347725,110.939446 58.7558594,112.294922 C59.7949271,113.052738 61.4453012,113.732419 63.7070312,114.333984 C63.3476545,114.740236 63.0742197,115.080077 62.8867188,115.353516 C60.6835827,114.591793 59.0566459,113.794926 58.0058594,112.962891 C56.9511666,113.783207 55.2656366,114.611324 52.9492188,115.447266 L52.6210942,115.013672 C52.5039069,114.861329 52.3789069,114.701173 52.2460938,114.533203 C54.4804799,113.861325 56.1621037,113.113285 57.2910156,112.289062 C55.8652272,110.765617 54.9589863,108.97462 54.5722656,106.916016 L52.3632812,106.916016 L52.3632812,106.048828 Z M60.4492188,106.916016 L55.5097656,106.916016 C55.8613299,108.8379 56.7011652,110.425775 58.0292969,111.679688 C59.2988345,110.499994 60.105467,108.912119 60.4492188,106.916016 Z M75.7773438,112.494141 L75.4257815,112.851562 C75.2929693,112.988281 75.1445321,113.142577 74.9804688,113.314453 C73.0898343,111.857415 71.5820369,109.990246 70.4570312,107.712891 L70.4570312,112.353516 L73.140625,112.353516 L73.140625,113.173828 L70.4570312,113.173828 L70.4570312,115.576172 L69.5429688,115.576172 L69.5429688,113.173828 L66.765625,113.173828 L66.765625,112.353516 L69.5429688,112.353516 L69.5429688,107.712891 C68.54687,109.697276 67.0195415,111.611319 64.9609375,113.455078 L64.6178121,113.134453 C64.4575,112.987266 64.3140631,112.859766 64.1875,112.751953 C66.4101674,110.927725 68.0722601,108.998057 69.1738281,106.962891 L64.4453125,106.962891 L64.4453125,106.095703 L69.5429688,106.095703 L69.5429688,103.986328 L70.4570312,103.986328 L70.4570312,106.095703 L75.5546875,106.095703 L75.5546875,106.962891 L70.7910156,106.962891 C72.0332093,109.29884 73.6953021,111.142571 75.7773438,112.494141 Z M77.171875,109.845703 L78.2265625,109.845703 L78.2265625,107.712891 L79,107.712891 L79,109.845703 L80.125,109.845703 L80.125,110.619141 L79,110.619141 L79,112.224609 C79.4140646,112.169922 79.8359354,112.107422 80.265625,112.037109 C80.2265623,112.333986 80.1992188,112.603514 80.1835938,112.845703 L79,113.009766 L79,113.009766 L79,115.623047 L78.2265625,115.623047 L78.2265625,113.126953 C77.5937468,113.220704 76.9570345,113.318359 76.3164062,113.419922 L76.1875,112.564453 C76.8593784,112.49414 77.5390591,112.416016 78.2265625,112.330078 L78.2265625,110.619141 L76.3515625,110.619141 L76.3515625,109.810547 C76.648439,108.974605 76.9570296,107.912116 77.2773438,106.623047 L76.2460938,106.623047 L76.2460938,105.873047 L77.4648438,105.873047 C77.5976569,105.310544 77.7343743,104.708988 77.875,104.068359 L78.71875,104.255859 L78.296875,105.873047 L78.296875,105.873047 L80.4179688,105.873047 L80.4179688,106.623047 L78.0976562,106.623047 L77.846435,107.536379 C77.6018062,108.41382 77.3769542,109.18359 77.171875,109.845703 Z M81.2734375,115.599609 L80.5234375,115.599609 L80.5234375,108.697266 L83.640625,108.697266 L83.640625,114.462891 C83.640625,115.150394 83.3242219,115.494141 82.6914062,115.494141 L81.7773438,115.482422 L81.7773438,115.482422 L81.6132812,114.755859 L81.6132812,114.755859 C81.9257828,114.779297 82.2109362,114.791016 82.46875,114.791016 C82.7500014,114.791016 82.890625,114.634767 82.890625,114.322266 L82.890625,112.962891 L81.2734375,112.962891 L81.2734375,115.599609 Z M84.6601562,104.150391 L84.4609375,104.408203 C85.3750046,105.78321 86.5195244,106.767575 87.8945312,107.361328 C87.6289049,107.67383 87.425782,107.943358 87.2851562,108.169922 C86.7539036,107.873045 86.261721,107.537111 85.8085938,107.162109 L85.8085938,107.748047 L81.7421875,107.748047 L81.7421875,107.232422 C81.2812477,107.615236 80.8007837,107.966795 80.3007812,108.287109 C80.0664051,107.98242 79.8593759,107.744141 79.6796875,107.572266 C81.2343828,106.666011 82.4882765,105.525397 83.4414062,104.150391 L84.6601562,104.150391 Z M86.40625,108.486328 L87.203125,108.486328 L87.203125,114.193359 C87.203125,115.060551 86.8359412,115.498047 86.1015625,115.505859 C85.703123,115.513672 85.2460963,115.505859 84.7304688,115.482422 C84.6914061,115.193358 84.6367191,114.900392 84.5664062,114.603516 C85.0585962,114.666016 85.480467,114.697266 85.8320312,114.697266 C86.2148457,114.697266 86.40625,114.494143 86.40625,114.087891 L86.40625,108.486328 Z M83.8867188,105.017578 C83.3007783,105.751957 82.6679721,106.416013 81.9882812,107.009766 L85.6210938,107.009766 C84.9570279,106.431638 84.3789087,105.767582 83.8867188,105.017578 Z M84.6132812,109.048828 L85.3632812,109.048828 L85.3632812,113.314453 L84.6132812,113.314453 L84.6132812,109.048828 Z M81.2734375,112.306641 L82.890625,112.306641 L82.890625,111.181641 L81.2734375,111.181641 L81.2734375,112.306641 Z M82.890625,109.412109 L81.2734375,109.412109 L81.2734375,110.525391 L82.890625,110.525391 L82.890625,109.412109 Z M91.4335938,104.724609 L92.2070312,104.173828 C93.0820356,104.712893 94.0429635,106.095692 95.0898438,108.322266 C96.5507886,111.517594 98.1367102,113.466793 99.8476562,114.169922 L99.0273438,115.201172 C97.3876871,114.22786 95.8664407,112.221369 94.4635628,109.181642 L94.0494794,108.271485 C94.011285,108.189454 93.9733075,108.108724 93.9355469,108.029297 C93.0292923,111.134781 91.3437623,113.54882 88.8789062,115.271484 C88.6679677,114.958983 88.4296888,114.666017 88.1640625,114.392578 C90.6992314,112.794914 92.4062456,110.267595 93.2851562,106.810547 C92.6718719,105.787104 92.0546906,105.091799 91.4335938,104.724609 Z M104.640625,104.736328 L111.554688,104.736328 L111.554688,105.580078 L105.519531,105.580078 L105.519531,114.228516 L111.71875,114.228516 L111.71875,115.072266 L104.640625,115.072266 L104.640625,104.736328 Z M100.164062,111.369141 C100.988285,110.064447 101.57617,108.650398 101.927734,107.126953 L100.246094,107.126953 L100.246094,106.306641 L101.933594,106.306641 L101.933594,104.021484 L102.800781,104.021484 L102.800781,106.306641 L104.265625,106.306641 L104.265625,107.126953 L102.800781,107.126953 L102.800781,108.996094 L103.316406,108.521484 L103.621572,108.841957 C103.890226,109.13054 104.194753,109.472933 104.535156,109.869141 L103.890625,110.466797 C103.570311,110.037107 103.207033,109.587893 102.800781,109.119141 L102.800781,115.576172 L101.933594,115.576172 L101.933594,109.300781 C101.531248,110.613288 101.066409,111.646481 100.539062,112.400391 C100.437499,112.064451 100.312501,111.720705 100.164062,111.369141 Z M105.917969,111.978516 L108.296875,111.978516 L108.296875,110.173828 L106.421875,110.173828 L106.421875,109.376953 L108.296875,109.376953 L108.296875,107.689453 L106.210938,107.689453 L106.210938,106.892578 L111.296875,106.892578 L111.296875,107.689453 L109.164062,107.689453 L109.164062,109.376953 L111.039062,109.376953 L111.039062,110.173828 L109.164062,110.173828 L109.164062,111.978516 L111.542969,111.978516 L111.542969,112.775391 L105.917969,112.775391 L105.917969,111.978516 Z" id="文本输入框" fill="#AAADBA" fill-rule="nonzero" opacity="0.5"></path>
            <rect id="矩形" fill="#E7EAED" x="52" y="123" width="177" height="1"></rect>
            <path d="M56.921875,150.927734 L62.8867188,150.927734 L62.8867188,156.587891 L61.9960938,156.587891 L61.9960938,155.908203 L57.8125,155.908203 L57.8125,156.587891 L56.921875,156.587891 L56.921875,150.927734 Z M56.1367188,149.134766 L57.859375,149.134766 L57.859375,147.564453 L56.4882812,147.564453 L56.4882812,146.767578 L57.859375,146.767578 L57.859375,145.080078 L58.75,145.080078 L58.75,146.767578 L60.8828125,146.767578 L60.8828125,145.080078 L61.7734375,145.080078 L61.7734375,146.767578 L63.4257812,146.767578 L63.4257812,147.564453 L61.7734375,147.564453 L61.7734375,149.134766 L63.765625,149.134766 L63.765625,149.931641 L56.1367188,149.931641 L56.1367188,149.134766 Z M55.9023438,153.412109 L55.9848438,153.80586 C56.0251562,153.988672 56.0640623,154.15039 56.1015625,154.291016 L55.4179676,154.94336 C54.9960931,155.34961 54.6419285,155.698566 54.3554688,155.990234 L54.2579688,156.115859 C54.197969,156.194609 54.1210942,156.297265 54.0273438,156.423828 L53.3828125,155.697266 C53.6015636,155.455077 53.7109375,155.099612 53.7109375,154.630859 L53.7109375,152.064453 L52.2109375,152.064453 L52.2109375,151.244141 L53.7109375,151.244141 L53.7109375,149.791016 L53.2070312,149.791016 L53.2070312,148.970703 L55.7148438,148.970703 L55.7148438,149.791016 L54.5664062,149.791016 L54.5664062,151.244141 L56.03125,151.244141 L56.03125,152.064453 L54.5664062,152.064453 L54.5664062,154.666016 C55.0585962,154.220701 55.5039043,153.802736 55.9023438,153.412109 Z M52.140625,149.064453 C52.8125034,147.970698 53.3164046,146.626961 53.6523438,145.033203 L54.53125,145.220703 C54.3945306,145.7793 54.2402352,146.314451 54.0683594,146.826172 L56.078125,146.826172 L56.078125,147.646484 L53.7695312,147.646484 C53.4414046,148.494145 53.0585959,149.271481 52.6210938,149.978516 C52.4726555,149.681639 52.3125009,149.376955 52.140625,149.064453 Z M57.8125,155.134766 L61.9960938,155.134766 L61.9960938,153.787109 L57.8125,153.787109 L57.8125,155.134766 Z M61.9960938,151.701172 L57.8125,151.701172 L57.8125,153.037109 L61.9960938,153.037109 L61.9960938,151.701172 Z M58.75,149.134766 L60.8828125,149.134766 L60.8828125,147.564453 L58.75,147.564453 L58.75,149.134766 Z M67.4101562,152.216797 L70.9492188,152.216797 C71.0039065,151.861326 71.0351562,151.400393 71.0429688,150.833984 L67.8320312,150.833984 L67.8320312,150.013672 L75.3789062,150.013672 L75.3789062,150.833984 L71.9570312,150.833984 L71.9436384,151.305605 C71.9296875,151.673111 71.9087613,151.97684 71.8808594,152.216797 L75.7890625,152.216797 L75.7890625,153.037109 L72.1679688,153.037109 C72.8632847,154.412116 74.1171784,155.291014 75.9296875,155.673828 L75.4698438,156.232109 C75.377969,156.345859 75.2929691,156.452734 75.2148438,156.552734 C73.4101472,156.025388 72.1621128,154.97657 71.4707031,153.40625 C70.9511693,154.808601 69.6914163,155.869137 67.6914062,156.587891 C67.5039053,156.345702 67.2929699,156.091798 67.0585938,155.826172 C69.003916,155.208981 70.22656,154.279303 70.7265625,153.037109 L67.4101562,153.037109 L67.4101562,152.216797 Z M68.359375,145.560547 L74.78125,145.560547 L74.78125,149.392578 L73.890625,149.392578 L73.890625,148.865234 L69.25,148.865234 L69.25,149.392578 L68.359375,149.392578 L68.359375,145.560547 Z M67.8320312,153.529297 C67.8554689,153.935549 67.8828123,154.271483 67.9140625,154.537109 C66.92187,155.18555 66.1953148,155.705076 65.734375,156.095703 L65.1835938,155.310547 C65.4492201,155.091796 65.5820312,154.751955 65.5820312,154.291016 L65.5820312,149.908203 L64.1875,149.908203 L64.1875,149.064453 L66.484375,149.064453 L66.484375,154.466797 L67.2314457,153.957031 C67.4560545,153.800781 67.6562491,153.658204 67.8320312,153.529297 Z M73.890625,146.345703 L69.25,146.345703 L69.25,148.080078 L73.890625,148.080078 L73.890625,146.345703 Z M65.5585938,145.337891 C66.1210966,145.908206 66.6796847,146.513669 67.234375,147.154297 L66.4257812,147.833984 C65.9101537,147.177731 65.3828152,146.552737 64.84375,145.958984 L65.5585938,145.337891 Z M76.3632812,147.048828 L81.9882812,147.048828 L81.6223952,146.366535 C81.3975691,145.956813 81.2109382,145.637371 81.0625,145.408203 L81.9648438,144.986328 L82.2200521,145.392578 C82.414496,145.710286 82.6575506,146.121742 82.9492188,146.626953 L82.1054688,147.048828 L87.6132812,147.048828 L87.6132812,147.916016 L85.4511719,147.916016 C85.033201,150.146496 84.1347725,151.939446 82.7558594,153.294922 C83.7949271,154.052738 85.4453012,154.732419 87.7070312,155.333984 C87.3476545,155.740236 87.0742197,156.080077 86.8867188,156.353516 C84.6835827,155.591793 83.0566459,154.794926 82.0058594,153.962891 C80.9511666,154.783207 79.2656366,155.611324 76.9492188,156.447266 L76.6210942,156.013672 C76.5039069,155.861329 76.3789069,155.701173 76.2460938,155.533203 C78.4804799,154.861325 80.1621037,154.113285 81.2910156,153.289062 C79.8652272,151.765617 78.9589863,149.97462 78.5722656,147.916016 L76.3632812,147.916016 L76.3632812,147.048828 Z M84.4492188,147.916016 L79.5097656,147.916016 C79.8613299,149.8379 80.7011652,151.425775 82.0292969,152.679688 C83.2988345,151.499994 84.105467,149.912119 84.4492188,147.916016 Z M88.234375,151.947266 L93.7304688,151.947266 L93.7304688,151.208984 L96.0390625,149.755859 L90.3671875,149.755859 L90.3671875,148.900391 L97.46875,148.900391 L97.46875,149.849609 L94.6914062,151.630859 L94.6914062,151.947266 L99.8125,151.947266 L99.8125,152.814453 L94.6914062,152.814453 L94.6914062,154.970703 C94.6914062,155.962896 94.1953175,156.458984 93.203125,156.458984 L92.4677741,156.453125 C92.1767592,156.449219 91.8398457,156.443359 91.4570312,156.435547 L91.3984376,155.952149 C91.3750001,155.778321 91.3476564,155.591798 91.3164062,155.392578 C91.9335968,155.478516 92.4804664,155.521484 92.9570312,155.521484 C93.4726588,155.521484 93.7304688,155.244143 93.7304688,154.689453 L93.7304688,152.814453 L88.234375,152.814453 L88.234375,151.947266 Z M88.6796875,146.779297 L94.0703125,146.779297 C93.7812486,146.369139 93.4335958,145.919924 93.0273438,145.431641 L93.8125,144.904297 C94.30469,145.443362 94.7109359,145.943357 95.03125,146.404297 L94.4746094,146.779297 L99.4140625,146.779297 L99.4140625,149.158203 L98.4648438,149.158203 L98.4648438,147.634766 L89.6171875,147.634766 L89.6171875,149.158203 L88.6796875,149.158203 L88.6796875,146.779297 Z" id="错误文字" fill="#333333" fill-rule="nonzero"></path>
            <rect id="矩形" fill="#FD6868" x="52" y="164" width="177" height="1"></rect>
            <path d="M56.1015625,176.606445 L61.0722656,176.606445 L61.0722656,181.323242 L60.3300781,181.323242 L60.3300781,180.756836 L56.84375,180.756836 L56.84375,181.323242 L56.1015625,181.323242 L56.1015625,176.606445 Z M55.4472656,175.112305 L56.8828125,175.112305 L56.8828125,173.803711 L55.7402344,173.803711 L55.7402344,173.139648 L56.8828125,173.139648 L56.8828125,171.733398 L57.625,171.733398 L57.625,173.139648 L59.4023438,173.139648 L59.4023438,171.733398 L60.1445312,171.733398 L60.1445312,173.139648 L61.5214844,173.139648 L61.5214844,173.803711 L60.1445312,173.803711 L60.1445312,175.112305 L61.8046875,175.112305 L61.8046875,175.776367 L55.4472656,175.776367 L55.4472656,175.112305 Z M55.2519531,178.676758 L55.3374024,179.07959 C55.3650716,179.20166 55.391927,179.311523 55.4179688,179.40918 L54.5952144,180.197754 C54.352702,180.433756 54.141928,180.642903 53.9628906,180.825195 L53.7628909,181.087695 C53.7399742,181.118424 53.7154949,181.151367 53.6894531,181.186523 L53.1523438,180.581055 C53.3346363,180.379231 53.4257812,180.08301 53.4257812,179.692383 L53.4257812,177.553711 L52.1757812,177.553711 L52.1757812,176.870117 L53.4257812,176.870117 L53.4257812,175.65918 L53.0058594,175.65918 L53.0058594,174.975586 L55.0957031,174.975586 L55.0957031,175.65918 L54.1386719,175.65918 L54.1386719,176.870117 L55.359375,176.870117 L55.359375,177.553711 L54.1386719,177.553711 L54.1386719,179.72168 C54.5488302,179.350584 54.9199202,179.00228 55.2519531,178.676758 Z M52.1171875,175.053711 C52.6770861,174.142248 53.0970038,173.022468 53.3769531,171.694336 L54.109375,171.850586 C53.9954421,172.316083 53.8668627,172.762042 53.7236328,173.188477 L55.3984375,173.188477 L55.3984375,173.87207 L53.4746094,173.87207 C53.2011705,174.578454 52.8821633,175.226234 52.5175781,175.81543 C52.3938796,175.568033 52.2604174,175.314129 52.1171875,175.053711 Z M56.84375,180.112305 L60.3300781,180.112305 L60.3300781,178.989258 L56.84375,178.989258 L56.84375,180.112305 Z M60.3300781,177.250977 L56.84375,177.250977 L56.84375,178.364258 L60.3300781,178.364258 L60.3300781,177.250977 Z M57.625,175.112305 L59.4023438,175.112305 L59.4023438,173.803711 L57.625,173.803711 L57.625,175.112305 Z M64.8417969,177.680664 L67.7910156,177.680664 C67.8365888,177.384439 67.8626302,177.000328 67.8691406,176.52832 L65.1933594,176.52832 L65.1933594,175.844727 L71.4824219,175.844727 L71.4824219,176.52832 L68.6308594,176.52832 C68.6210937,177.016604 68.5999351,177.400715 68.5673828,177.680664 L71.8242188,177.680664 L71.8242188,178.364258 L68.8066406,178.364258 C69.3860706,179.510097 70.430982,180.242511 71.9414062,180.561523 L71.6166991,180.95459 C71.5174155,181.07666 71.4270837,181.189778 71.3457031,181.293945 C69.8417894,180.85449 68.8017607,179.980475 68.2255859,178.671875 C67.7926411,179.840501 66.7428469,180.724281 65.0761719,181.323242 C64.9199211,181.121418 64.7441416,180.909832 64.5488281,180.688477 C66.16993,180.174151 67.1888,179.399419 67.6054688,178.364258 L64.8417969,178.364258 L64.8417969,177.680664 Z M65.6328125,172.133789 L70.984375,172.133789 L70.984375,175.327148 L70.2421875,175.327148 L70.2421875,174.887695 L66.375,174.887695 L66.375,175.327148 L65.6328125,175.327148 L65.6328125,172.133789 Z M65.1933594,178.774414 L65.2183594,179.152539 C65.2316406,179.327539 65.2460937,179.481445 65.2617188,179.614258 L64.7432952,179.958587 C64.1767278,180.341738 63.7440698,180.659902 63.4453125,180.913086 L62.9863281,180.258789 C63.2076834,180.076496 63.3183594,179.793296 63.3183594,179.40918 L63.3183594,175.756836 L62.15625,175.756836 L62.15625,175.053711 L64.0703125,175.053711 L64.0703125,179.555664 L64.6928714,179.130859 C64.8800454,179.000651 65.0468743,178.881836 65.1933594,178.774414 Z M70.2421875,172.788086 L66.375,172.788086 L66.375,174.233398 L70.2421875,174.233398 L70.2421875,172.788086 Z M63.2988281,171.948242 C63.7675805,172.423505 64.2330706,172.928057 64.6953125,173.461914 L64.0214844,174.02832 C63.5917947,173.481443 63.152346,172.960614 62.703125,172.46582 L63.2988281,171.948242 Z M76.0136719,172.124023 L80.8867188,172.124023 L80.8867188,175.981445 L80.1835938,175.981445 L80.1835938,175.698242 L76.7167969,175.698242 L76.7167969,175.981445 L76.0136719,175.981445 L76.0136719,172.124023 Z M74.4902344,180.874023 C75.4082077,180.10579 75.9225255,179.005541 76.0332031,177.573242 L76.765625,177.573242 C76.7330728,178.028974 76.6663417,178.455402 76.5654297,178.852539 C76.9788432,179.484053 77.5175748,179.910481 78.1816406,180.131836 L78.1816406,177.192383 L75.1640625,177.192383 L75.1640625,176.547852 L81.7460938,176.547852 L81.7460938,177.192383 L78.9140625,177.192383 L78.9140625,178.286133 L81.3652344,178.286133 L81.3652344,178.911133 L78.9140625,178.911133 L78.9140625,180.288086 L79.1199656,180.305968 C79.62853,180.338318 80.5429621,180.329102 81.8632812,180.27832 L81.6386719,181.000977 L81.6386719,181.000977 C81.0576143,181.015625 80.4600839,181.013794 79.8460705,180.995483 L79.2265625,180.97168 C77.9114518,180.955404 76.9446646,180.493169 76.3261719,179.584961 C76.052733,180.265303 75.6556016,180.847979 75.1347656,181.333008 C74.9394521,181.170247 74.7246105,181.017253 74.4902344,180.874023 Z M72.1269531,176.870117 C72.5436219,176.69108 72.9635396,176.50228 73.3867188,176.303711 L73.3867188,174.223633 L72.2050781,174.223633 L72.2050781,173.55957 L73.3867188,173.55957 L73.3867188,171.743164 L74.1289062,171.743164 L74.1289062,173.55957 L75.3789062,173.55957 L75.3789062,174.223633 L74.1289062,174.223633 L74.1289062,175.942383 C74.5032571,175.756835 74.8776023,175.561524 75.2519531,175.356445 C75.2714845,175.610353 75.2975259,175.870767 75.3300781,176.137695 L74.1289062,176.738281 L74.1289062,176.738281 L74.1289062,180.141602 C74.1289062,180.773115 73.8880232,181.114909 73.40625,181.166992 C73.0677066,181.199544 72.6868511,181.20931 72.2636719,181.196289 C72.2246092,180.92285 72.1822919,180.652671 72.1367188,180.385742 L72.5414067,180.423242 C72.73125,180.437305 72.902343,180.444336 73.0546875,180.444336 C73.2760428,180.444336 73.3867188,180.323894 73.3867188,180.083008 L73.3867188,177.119141 C72.9960918,177.320965 72.6087259,177.524413 72.2246094,177.729492 L72.1269531,176.870117 Z M76.7167969,175.073242 L80.1835938,175.073242 L80.1835938,174.213867 L76.7167969,174.213867 L76.7167969,175.073242 Z M80.1835938,172.749023 L76.7167969,172.749023 L76.7167969,173.598633 L80.1835938,173.598633 L80.1835938,172.749023 Z M82.15625,175.200195 L91.84375,175.200195 L91.84375,175.932617 L87.6542969,175.932617 L87.6542969,179.87793 C87.6542969,180.691736 87.2278688,181.101888 86.375,181.108398 L85.1828134,181.102148 C85.0746102,181.101107 84.9641933,181.099935 84.8515625,181.098633 L84.7856446,180.673828 C84.7612306,180.524089 84.7343751,180.366212 84.7050781,180.200195 C85.2194036,180.252279 85.7044248,180.27832 86.1601562,180.27832 C86.6028668,180.27832 86.8242188,180.060224 86.8242188,179.624023 L86.8242188,175.932617 L82.15625,175.932617 L82.15625,175.200195 Z M83.0546875,172.319336 L90.9746094,172.319336 L90.9746094,173.051758 L83.0546875,173.051758 L83.0546875,172.319336 Z M88.8945312,177.114258 L89.5488281,176.674805 C90.3496134,177.657883 91.1243452,178.683263 91.8730469,179.750977 L91.1601562,180.219727 L90.5644519,179.362791 C89.9785147,178.532713 89.4218776,177.783206 88.8945312,177.114258 Z M84.3144531,176.655273 L85.0273438,177.055664 C84.3437466,178.240566 83.6145872,179.366857 82.8398438,180.43457 C82.6380198,180.28483 82.4231782,180.131837 82.1953125,179.975586 C82.9244828,179.031571 83.630856,177.924811 84.3144531,176.655273 Z M92.3027344,173.374023 L96.9902344,173.374023 L96.7570795,172.937011 C96.5373529,172.531737 96.3579109,172.221681 96.21875,172.006836 L96.9707031,171.655273 L97.1833767,171.993815 C97.3454134,172.258571 97.5479589,172.601452 97.7910156,173.022461 L97.0878906,173.374023 L101.677734,173.374023 L101.677734,174.09668 L99.8759766,174.09668 C99.5276675,175.955413 98.7789771,177.449539 97.6298828,178.579102 C98.4957726,179.210615 99.8710843,179.777016 101.755859,180.27832 C101.456379,180.616864 101.228516,180.900064 101.072266,181.12793 C99.2363189,180.493161 97.8805382,179.829105 97.0048828,179.135742 C96.1259722,179.819339 94.7213638,180.509437 92.7910156,181.206055 L92.5175782,180.844727 C92.4199222,180.717774 92.3157558,180.584311 92.2050781,180.444336 C94.0670666,179.884437 95.4684198,179.261071 96.4091797,178.574219 C95.2210227,177.304681 94.4658219,175.812183 94.1435547,174.09668 L92.3027344,174.09668 L92.3027344,173.374023 Z M99.0410156,174.09668 L94.9248047,174.09668 C95.2177749,175.69825 95.9176377,177.021479 97.0244141,178.066406 C98.0823621,177.083328 98.7545559,175.760099 99.0410156,174.09668 Z M102.195312,177.456055 L106.775391,177.456055 L106.775391,176.84082 L108.699219,175.629883 L103.972656,175.629883 L103.972656,174.916992 L109.890625,174.916992 L109.890625,175.708008 L107.576172,177.192383 L107.576172,177.456055 L111.84375,177.456055 L111.84375,178.178711 L107.576172,178.178711 L107.576172,179.975586 C107.576172,180.802413 107.162765,181.21582 106.335938,181.21582 L105.897858,181.213074 C105.618623,181.210022 105.279624,181.204427 104.880859,181.196289 L104.832031,180.793457 C104.8125,180.648601 104.789714,180.493165 104.763672,180.327148 C105.277997,180.398763 105.733722,180.43457 106.130859,180.43457 C106.560549,180.43457 106.775391,180.203453 106.775391,179.741211 L106.775391,178.178711 L102.195312,178.178711 L102.195312,177.456055 Z M102.566406,173.149414 L107.058594,173.149414 C106.817707,172.807615 106.527996,172.43327 106.189453,172.026367 L106.84375,171.586914 C107.253908,172.036135 107.592447,172.452798 107.859375,172.836914 L107.395508,173.149414 L111.511719,173.149414 L111.511719,175.131836 L110.720703,175.131836 L110.720703,173.862305 L103.347656,173.862305 L103.347656,175.131836 L102.566406,175.131836 L102.566406,173.149414 Z" id="错误提示文字" fill="#FD6868" fill-rule="nonzero"></path>
            <g id="编组-51备份-2" transform="translate(143.000000, 104.000000)">
                <g id="路径-5" transform="translate(9.492186, 8.002138) rotate(4.000000) translate(-9.492186, -8.002138) ">
                    <use fill="black" fill-opacity="1" filter="url(#filter-2)" xlink:href="#path-1"></use>
                    <use stroke="#FFFFFF" stroke-width="1" fill="#000000" fill-rule="evenodd" xlink:href="#path-1"></use>
                </g>
                <g id="椭圆形" fill-rule="nonzero" transform="translate(14.416558, 21.625365) rotate(-45.000000) translate(-14.416558, -21.625365) ">
                    <use fill="black" fill-opacity="1" filter="url(#filter-5)" xlink:href="#path-4"></use>
                    <use fill="url(#linearGradient-3)" xlink:href="#path-4"></use>
                </g>
            </g>
            <text id="样式三" font-family="MicrosoftYaHei, Microsoft YaHei" font-size="12" font-weight="normal" line-spacing="22" fill="#525A6E">
                <tspan x="8" y="35">样式三</tspan>
            </text>
        </g>
    </g>
</svg>