<?xml version="1.0" encoding="UTF-8"?>
<svg width="494px" height="150px" viewBox="0 0 494 150" version="1.1" xmlns="http://www.w3.org/2000/svg" xmlns:xlink="http://www.w3.org/1999/xlink">
    <!-- Generator: Sketch 59 (86127) - https://sketch.com -->
    <title>12-Prompt-style1</title>
    <desc>Created with Sketch.</desc>
    <g id="页面-1" stroke="none" stroke-width="1" fill="none" fill-rule="evenodd">
        <g id="一诺合同-配置组件备份-2" transform="translate(-224.000000, -5221.000000)">
            <rect fill="#F6F6F6" x="0" y="0" width="1440" height="9290"></rect>
            <path d="M210,149 L1430,149 C1431.10457,149 1432,149.895431 1432,151 L1432,8635.15678 L1432,8635.15678 L1432,9272 C1432,9273.10457 1431.10457,9274 1430,9274 L210,9274 C208.895431,9274 208,9273.10457 208,9272 L208,151 C208,149.895431 208.895431,149 210,149 Z" id="Rectangle" fill="#FFFFFF"></path>
            <g id="warning-hints/style1" transform="translate(224.000000, 5221.000000)">
                <rect id="矩形" fill-opacity="0.01" fill="#FAFAFA" x="0" y="0" width="494" height="150"></rect>
                <g id="编组-8" transform="translate(59.000000, 20.000000)">
                    <path d="M13,0 L397,0 C404.179702,-1.31888981e-15 410,5.82029825 410,13 C410,20.1797017 404.179702,26 397,26 L13,26 C5.82029825,26 8.79259876e-16,20.1797017 0,13 C-8.79259876e-16,5.82029825 5.82029825,1.31888981e-15 13,0 Z" id="矩形" fill="#E6F1FF"></path>
                    <g id="close备份" transform="translate(380.000000, 6.000000)">
                        <rect id="矩形" fill="#D8D8D8" opacity="0.01" x="0" y="0" width="14" height="14"></rect>
                        <path d="M7.70710678,7 L11.9497475,11.2426407 C12.1450096,11.4379028 12.1450096,11.7544853 11.9497475,11.9497475 C11.7544853,12.1450096 11.4379028,12.1450096 11.2426407,11.9497475 L7,7.70710678 L2.75735931,11.9497475 C2.56209717,12.1450096 2.24551468,12.1450096 2.05025253,11.9497475 C1.85499039,11.7544853 1.85499039,11.4379028 2.05025253,11.2426407 L6.29289322,7 L2.05025253,2.75735931 C1.85499039,2.56209717 1.85499039,2.24551468 2.05025253,2.05025253 C2.24551468,1.85499039 2.56209717,1.85499039 2.75735931,2.05025253 L7,6.29289322 L11.2426407,2.05025253 C11.4379028,1.85499039 11.7544853,1.85499039 11.9497475,2.05025253 C12.1450096,2.24551468 12.1450096,2.56209717 11.9497475,2.75735931 L7.70710678,7 Z" id="路径" fill="#AAADBA"></path>
                    </g>
                    <text id="提示信息文案" font-family="PingFangSC-Regular, PingFang SC" font-size="12" font-weight="normal" fill="#5A6677">
                        <tspan x="36" y="18">提示信息文案</tspan>
                    </text>
                    <g id="提示备份" transform="translate(16.000000, 6.000000)" fill="#3889FF" fill-rule="nonzero">
                        <path d="M6.88972946,13.9251313 C9.39320568,13.9528089 11.718448,12.6330831 12.9782441,10.4695043 C14.2380402,8.30592557 14.2380402,5.63227112 12.9782441,3.46869236 C11.718448,1.3051136 9.39320568,-0.0146122243 6.88972946,0.0130654104 C3.07801581,0.0552065008 0.0101751051,3.15715176 0.0101751051,6.96909834 C0.0101751051,10.7810449 3.07801581,13.8829902 6.88972946,13.9251313 L6.88972946,13.9251313 Z M6.88972946,1.1217456 C10.1191332,1.1217456 12.7370822,3.7396946 12.7370822,6.96909834 C12.7370822,10.1985021 10.1191332,12.8164511 6.88972946,12.8164511 C3.66032571,12.8164511 1.04237671,10.1985021 1.04237671,6.96909834 C1.04237671,3.7396946 3.66032571,1.1217456 6.88972946,1.1217456 Z" id="形状"></path>
                        <path d="M7.66342499,10.8328998 C7.66342499,10.4055996 7.3170297,10.0592043 6.88972946,10.0592043 C6.46242921,10.0592043 6.11603392,10.4055996 6.11603392,10.8328998 C6.11603392,11.2602 6.46242921,11.6065953 6.88972946,11.6065953 C7.3170297,11.6065953 7.66342499,11.2602 7.66342499,10.8328998 Z M6.11603392,3.79992243 C6.11603392,3.41562531 6.4467675,3.10444666 6.85317021,3.10444666 L6.9262887,3.10444666 C7.33269141,3.10444666 7.66257476,3.41562531 7.66257476,3.79992243 L7.66257476,8.59173342 C7.66257476,8.97603054 7.3326914,9.2880594 6.9262887,9.2880594 L6.85317021,9.2880594 C6.4467675,9.2880594 6.11688413,8.97603054 6.11688415,8.59173342 L6.11688415,3.79992243 L6.11603392,3.79992243 Z" id="形状"></path>
                    </g>
                </g>
                <g id="编组-8备份" transform="translate(59.000000, 62.000000)">
                    <path d="M13,0 L397,0 C404.179702,-1.31888981e-15 410,5.82029825 410,13 C410,20.1797017 404.179702,26 397,26 L13,26 C5.82029825,26 8.79259876e-16,20.1797017 0,13 C-8.79259876e-16,5.82029825 5.82029825,1.31888981e-15 13,0 Z" id="矩形" fill="#FFF8E5"></path>
                    <g id="编组-13" transform="translate(380.000000, 6.000000)">
                        <rect id="矩形" fill="#D8D8D8" opacity="0.01" x="0" y="0" width="14" height="14"></rect>
                        <path d="M7.70710678,7 L11.9497475,11.2426407 C12.1450096,11.4379028 12.1450096,11.7544853 11.9497475,11.9497475 C11.7544853,12.1450096 11.4379028,12.1450096 11.2426407,11.9497475 L7,7.70710678 L2.75735931,11.9497475 C2.56209717,12.1450096 2.24551468,12.1450096 2.05025253,11.9497475 C1.85499039,11.7544853 1.85499039,11.4379028 2.05025253,11.2426407 L6.29289322,7 L2.05025253,2.75735931 C1.85499039,2.56209717 1.85499039,2.24551468 2.05025253,2.05025253 C2.24551468,1.85499039 2.56209717,1.85499039 2.75735931,2.05025253 L7,6.29289322 L11.2426407,2.05025253 C11.4379028,1.85499039 11.7544853,1.85499039 11.9497475,2.05025253 C12.1450096,2.24551468 12.1450096,2.56209717 11.9497475,2.75735931 L7.70710678,7 Z" id="路径" fill="#AAADBA"></path>
                    </g>
                    <text id="提示信息文案" font-family="PingFangSC-Regular, PingFang SC" font-size="12" font-weight="normal" fill="#5A6677">
                        <tspan x="36" y="18">提示信息文案</tspan>
                    </text>
                    <g id="提示-2" transform="translate(16.000000, 6.000000)" fill="#FFB700" fill-rule="nonzero">
                        <path d="M6.88972946,13.9251313 C9.39320568,13.9528089 11.718448,12.6330831 12.9782441,10.4695043 C14.2380402,8.30592557 14.2380402,5.63227112 12.9782441,3.46869236 C11.718448,1.3051136 9.39320568,-0.0146122243 6.88972946,0.0130654104 C3.07801581,0.0552065008 0.0101751051,3.15715176 0.0101751051,6.96909834 C0.0101751051,10.7810449 3.07801581,13.8829902 6.88972946,13.9251313 L6.88972946,13.9251313 Z M6.88972946,1.1217456 C10.1191332,1.1217456 12.7370822,3.7396946 12.7370822,6.96909834 C12.7370822,10.1985021 10.1191332,12.8164511 6.88972946,12.8164511 C3.66032571,12.8164511 1.04237671,10.1985021 1.04237671,6.96909834 C1.04237671,3.7396946 3.66032571,1.1217456 6.88972946,1.1217456 Z" id="形状"></path>
                        <path d="M7.66342499,10.8328998 C7.66342499,10.4055996 7.3170297,10.0592043 6.88972946,10.0592043 C6.46242921,10.0592043 6.11603392,10.4055996 6.11603392,10.8328998 C6.11603392,11.2602 6.46242921,11.6065953 6.88972946,11.6065953 C7.3170297,11.6065953 7.66342499,11.2602 7.66342499,10.8328998 Z M6.11603392,3.79992243 C6.11603392,3.41562531 6.4467675,3.10444666 6.85317021,3.10444666 L6.9262887,3.10444666 C7.33269141,3.10444666 7.66257476,3.41562531 7.66257476,3.79992243 L7.66257476,8.59173342 C7.66257476,8.97603054 7.3326914,9.2880594 6.9262887,9.2880594 L6.85317021,9.2880594 C6.4467675,9.2880594 6.11688413,8.97603054 6.11688415,8.59173342 L6.11688415,3.79992243 L6.11603392,3.79992243 Z" id="形状"></path>
                    </g>
                </g>
                <g id="编组-8备份-2" transform="translate(59.000000, 104.000000)">
                    <path d="M13,0 L397,0 C404.179702,-1.31888981e-15 410,5.82029825 410,13 C410,20.1797017 404.179702,26 397,26 L13,26 C5.82029825,26 8.79259876e-16,20.1797017 0,13 C-8.79259876e-16,5.82029825 5.82029825,1.31888981e-15 13,0 Z" id="矩形" fill="#FFF4F4"></path>
                    <g id="编组-13" transform="translate(380.000000, 6.000000)">
                        <rect id="矩形" fill="#D8D8D8" opacity="0.01" x="0" y="0" width="14" height="14"></rect>
                        <path d="M7.70710678,7 L11.9497475,11.2426407 C12.1450096,11.4379028 12.1450096,11.7544853 11.9497475,11.9497475 C11.7544853,12.1450096 11.4379028,12.1450096 11.2426407,11.9497475 L7,7.70710678 L2.75735931,11.9497475 C2.56209717,12.1450096 2.24551468,12.1450096 2.05025253,11.9497475 C1.85499039,11.7544853 1.85499039,11.4379028 2.05025253,11.2426407 L6.29289322,7 L2.05025253,2.75735931 C1.85499039,2.56209717 1.85499039,2.24551468 2.05025253,2.05025253 C2.24551468,1.85499039 2.56209717,1.85499039 2.75735931,2.05025253 L7,6.29289322 L11.2426407,2.05025253 C11.4379028,1.85499039 11.7544853,1.85499039 11.9497475,2.05025253 C12.1450096,2.24551468 12.1450096,2.56209717 11.9497475,2.75735931 L7.70710678,7 Z" id="路径" fill="#AAADBA"></path>
                    </g>
                    <text id="提示信息文案" font-family="PingFangSC-Regular, PingFang SC" font-size="12" font-weight="normal" fill="#FF5656">
                        <tspan x="36" y="18">提示信息文案</tspan>
                    </text>
                    <g id="提示-3" transform="translate(16.000000, 6.000000)" fill="#FF5656" fill-rule="nonzero">
                        <path d="M6.88972946,13.9251313 C9.39320568,13.9528089 11.718448,12.6330831 12.9782441,10.4695043 C14.2380402,8.30592557 14.2380402,5.63227112 12.9782441,3.46869236 C11.718448,1.3051136 9.39320568,-0.0146122243 6.88972946,0.0130654104 C3.07801581,0.0552065008 0.0101751051,3.15715176 0.0101751051,6.96909834 C0.0101751051,10.7810449 3.07801581,13.8829902 6.88972946,13.9251313 L6.88972946,13.9251313 Z M6.88972946,1.1217456 C10.1191332,1.1217456 12.7370822,3.7396946 12.7370822,6.96909834 C12.7370822,10.1985021 10.1191332,12.8164511 6.88972946,12.8164511 C3.66032571,12.8164511 1.04237671,10.1985021 1.04237671,6.96909834 C1.04237671,3.7396946 3.66032571,1.1217456 6.88972946,1.1217456 Z" id="形状"></path>
                        <path d="M7.66342499,10.8328998 C7.66342499,10.4055996 7.3170297,10.0592043 6.88972946,10.0592043 C6.46242921,10.0592043 6.11603392,10.4055996 6.11603392,10.8328998 C6.11603392,11.2602 6.46242921,11.6065953 6.88972946,11.6065953 C7.3170297,11.6065953 7.66342499,11.2602 7.66342499,10.8328998 Z M6.11603392,3.79992243 C6.11603392,3.41562531 6.4467675,3.10444666 6.85317021,3.10444666 L6.9262887,3.10444666 C7.33269141,3.10444666 7.66257476,3.41562531 7.66257476,3.79992243 L7.66257476,8.59173342 C7.66257476,8.97603054 7.3326914,9.2880594 6.9262887,9.2880594 L6.85317021,9.2880594 C6.4467675,9.2880594 6.11688413,8.97603054 6.11688415,8.59173342 L6.11688415,3.79992243 L6.11603392,3.79992243 Z" id="形状"></path>
                    </g>
                </g>
                <text id="样式" font-family="MicrosoftYaHei, Microsoft YaHei" font-size="12" font-weight="normal" line-spacing="22" fill="#525A6E">
                    <tspan x="8" y="27">样式</tspan>
                </text>
            </g>
        </g>
    </g>
</svg>