<?xml version="1.0" encoding="UTF-8"?>
<svg width="494px" height="68px" viewBox="0 0 494 68" version="1.1" xmlns="http://www.w3.org/2000/svg" xmlns:xlink="http://www.w3.org/1999/xlink">
    <!-- Generator: Sketch 58 (84663) - https://sketch.com -->
    <title>password-input/style2</title>
    <desc>Created with Sketch.</desc>
    <g id="页面-1" stroke="none" stroke-width="1" fill="none" fill-rule="evenodd">
        <g id="password-input/style2">
            <rect id="矩形备份" fill-opacity="0.01" fill="#F6F6F6" x="0" y="0" width="494" height="68"></rect>
            <rect id="矩形备份-4" stroke-opacity="0.15" stroke="#000000" fill="#FFFFFF" x="8.5" y="32.5" width="219" height="27" rx="2"></rect>
            <rect id="矩形备份-9" stroke-opacity="0.15" stroke="#000000" fill="#FFFFFF" x="240.5" y="32.5" width="219" height="27" rx="2"></rect>
            <g id="eye" transform="translate(442.000000, 41.000000)">
                <rect id="矩形" fill="#D8D8D8" opacity="0.01" x="0" y="0" width="10" height="10"></rect>
                <path d="M5,2 C6.84094917,2 8.50761583,3 10,5 C8.50761583,7 6.84094917,8 5,8 C3.15905083,8 1.49321344,6.968151 0.0024878047,4.90445299 C1.52873372,2.968151 3.19457112,2 5,2 Z M5,3 C3.8954305,3 3,3.8954305 3,5 C3,6.1045695 3.8954305,7 5,7 C6.1045695,7 7,6.1045695 7,5 C7,3.8954305 6.1045695,3 5,3 Z M5,4 C5.55228475,4 6,4.44771525 6,5 C6,5.55228475 5.55228475,6 5,6 C4.44771525,6 4,5.55228475 4,5 C4,4.44771525 4.44771525,4 5,4 Z" id="椭圆形-2" fill="#333333"></path>
            </g>
            <path d="M258.353516,50.6669922 L257.205078,50.6669922 L257.205078,46.9462891 C257.205078,46.2431605 257.095704,45.7402359 256.876953,45.4375 C256.658202,45.1347641 256.298831,44.9833984 255.798828,44.9833984 C255.376951,44.9833984 255.015627,45.1806621 254.714844,45.5751953 C254.414061,45.9697285 254.263672,46.4365207 254.263672,46.9755859 L254.263672,50.6669922 L253.115234,50.6669922 L253.115234,46.8291016 C253.115234,45.5986267 252.64063,44.9833984 251.691406,44.9833984 C251.253904,44.9833984 250.891603,45.1708966 250.604492,45.5458984 C250.317381,45.9209003 250.173828,46.3994112 250.173828,46.9814453 L250.173828,50.6669922 L249.025391,50.6669922 L249.025391,44.1865234 L250.173828,44.1865234 L250.173828,45.2119141 L250.197266,45.2119141 C250.658205,44.4267539 251.332027,44.0341797 252.21875,44.0341797 C252.652346,44.0341797 253.035155,44.1533191 253.367188,44.3916016 C253.69922,44.629884 253.929687,44.9521464 254.058594,45.3583984 C254.539065,44.4755815 255.257808,44.0341797 256.214844,44.0341797 C257.640632,44.0341797 258.353516,44.9130771 258.353516,46.6708984 L258.353516,50.6669922 Z M260.128906,41.9013672 C260.128906,41.6982412 260.198241,41.5273444 260.336914,41.3886719 C260.475587,41.2499993 260.646483,41.1806641 260.849609,41.1806641 C261.056642,41.1806641 261.231445,41.2490228 261.374023,41.3857422 C261.516602,41.5224616 261.587891,41.6943349 261.587891,41.9013672 C261.587891,42.1044932 261.516602,42.2734368 261.374023,42.4082031 C261.231445,42.5429694 261.056642,42.6103516 260.849609,42.6103516 C260.642577,42.6103516 260.470704,42.5429694 260.333984,42.4082031 C260.197265,42.2734368 260.128906,42.1044932 260.128906,41.9013672 Z M260.263672,50.6669922 L260.263672,44.1865234 L261.412109,44.1865234 L261.412109,50.6669922 L260.263672,50.6669922 Z M272.791016,50.6669922 L271.642578,50.6669922 L271.642578,46.9462891 C271.642578,46.2431605 271.533204,45.7402359 271.314453,45.4375 C271.095702,45.1347641 270.736331,44.9833984 270.236328,44.9833984 C269.814451,44.9833984 269.453127,45.1806621 269.152344,45.5751953 C268.851561,45.9697285 268.701172,46.4365207 268.701172,46.9755859 L268.701172,50.6669922 L267.552734,50.6669922 L267.552734,46.8291016 C267.552734,45.5986267 267.07813,44.9833984 266.128906,44.9833984 C265.691404,44.9833984 265.329103,45.1708966 265.041992,45.5458984 C264.754881,45.9209003 264.611328,46.3994112 264.611328,46.9814453 L264.611328,50.6669922 L263.462891,50.6669922 L263.462891,44.1865234 L264.611328,44.1865234 L264.611328,45.2119141 L264.634766,45.2119141 C265.095705,44.4267539 265.769527,44.0341797 266.65625,44.0341797 C267.089846,44.0341797 267.472655,44.1533191 267.804688,44.3916016 C268.13672,44.629884 268.367187,44.9521464 268.496094,45.3583984 C268.976565,44.4755815 269.695308,44.0341797 270.652344,44.0341797 C272.078132,44.0341797 272.791016,44.9130771 272.791016,46.6708984 L272.791016,50.6669922 Z M274.859375,44.6376953 C275.503909,44.2353496 276.248043,44.0341797 277.091797,44.0341797 C278.654305,44.0341797 279.435547,44.854484 279.435547,46.4951172 L279.435547,50.6669922 L278.298828,50.6669922 L278.298828,49.6650391 L278.269531,49.6650391 C277.82031,50.4345742 277.158208,50.8193359 276.283203,50.8193359 C275.654294,50.8193359 275.154299,50.6494158 274.783203,50.3095703 C274.412108,49.9697249 274.226562,49.5107451 274.226562,48.9326172 C274.226562,47.7216736 274.943352,47.0166026 276.376953,46.8173828 L278.298828,46.5478516 C278.298828,45.4892525 277.861333,44.9599609 276.986328,44.9599609 C276.20898,44.9599609 275.500003,45.2216771 274.859375,45.7451172 L274.859375,44.6376953 Z M276.78125,47.6201172 C276.249997,47.69043 275.88379,47.8232412 275.682617,48.0185547 C275.481444,48.2138682 275.380859,48.4873029 275.380859,48.8388672 C275.380859,49.1474625 275.490233,49.3994131 275.708984,49.5947266 C275.927735,49.79004 276.216795,49.8876953 276.576172,49.8876953 C277.076174,49.8876953 277.48828,49.7119158 277.8125,49.3603516 C278.13672,49.0087873 278.298828,48.5673855 278.298828,48.0361328 L278.298828,47.4150391 L276.78125,47.6201172 Z M286.625,50.6669922 L281.421875,50.6669922 L281.421875,49.6767578 L283.455078,49.6767578 L283.455078,42.7861328 L281.369141,43.3896484 L281.369141,42.3349609 L284.597656,41.3974609 L284.597656,49.6767578 L286.625,49.6767578 L286.625,50.6669922 Z M293.492188,50.6669922 L287.972656,50.6669922 L287.972656,49.6708984 L290.609375,47.0400391 C291.335941,46.3134729 291.822264,45.7382834 292.068359,45.3144531 C292.314454,44.8906229 292.4375,44.4521507 292.4375,43.9990234 C292.4375,43.4833959 292.29297,43.087892 292.003906,42.8125 C291.714842,42.537108 291.296878,42.3994141 290.75,42.3994141 C289.941402,42.3994141 289.169926,42.7431606 288.435547,43.4306641 L288.435547,42.2646484 C289.150394,41.7138644 289.982417,41.4384766 290.931641,41.4384766 C291.748051,41.4384766 292.392576,41.6591775 292.865234,42.1005859 C293.337893,42.5419944 293.574219,43.1357385 293.574219,43.8818359 C293.574219,44.4443388 293.422853,44.996091 293.120117,45.5371094 C292.817381,46.0781277 292.244145,46.7665974 291.400391,47.6025391 L289.332031,49.6240234 L289.332031,49.6474609 L293.492188,49.6474609 L293.492188,50.6669922 Z M295.226562,49.1494141 C295.847659,49.6298852 296.548824,49.8701172 297.330078,49.8701172 C297.955081,49.8701172 298.450193,49.7167984 298.81543,49.4101562 C299.180666,49.1035141 299.363281,48.6923854 299.363281,48.1767578 C299.363281,47.0283146 298.541024,46.4541016 296.896484,46.4541016 L296.140625,46.4541016 L296.140625,45.5048828 L296.861328,45.5048828 C298.318367,45.5048828 299.046875,44.9658257 299.046875,43.8876953 C299.046875,42.8915966 298.49024,42.3935547 297.376953,42.3935547 C296.740231,42.3935547 296.140628,42.6083963 295.578125,43.0380859 L295.578125,41.9541016 C296.171878,41.6103498 296.86523,41.4384766 297.658203,41.4384766 C298.431644,41.4384766 299.052732,41.640623 299.521484,42.0449219 C299.990237,42.4492208 300.224609,42.9736296 300.224609,43.6181641 C300.224609,44.80567 299.619147,45.5693342 298.408203,45.9091797 L298.408203,45.9326172 C299.064456,46.00293 299.583006,46.234373 299.963867,46.6269531 C300.344728,47.0195332 300.535156,47.5087861 300.535156,48.0947266 C300.535156,48.9111369 300.241214,49.5693334 299.65332,50.0693359 C299.065427,50.5693384 298.283208,50.8193359 297.306641,50.8193359 C296.447261,50.8193359 295.753909,50.6591813 295.226562,50.3388672 L295.226562,49.1494141 Z M306.875,41.5908203 L306.875,47.4033203 L308.035156,47.4033203 L308.035156,48.3115234 L306.875,48.3115234 L306.875,50.6669922 L305.761719,50.6669922 L305.761719,48.3115234 L301.53125,48.3115234 L301.53125,47.5673828 L305.544922,41.5908203 L306.875,41.5908203 Z M305.785156,42.6689453 L305.761719,42.6689453 C305.72526,42.7679041 305.661893,42.904188 305.571615,43.0777989 L305.571615,43.0777989 L305.416016,43.3662109 L302.714844,47.4033203 L305.761719,47.4033203 L305.761719,43.6005859 C305.761719,43.3310533 305.769531,43.0205096 305.785156,42.6689453 L305.785156,42.6689453 Z" id="mima1234" fill="#333333" fill-rule="nonzero"></path>
            <g id="noeye" transform="translate(210.000000, 41.000000)">
                <rect id="矩形备份-6" fill="#D8D8D8" opacity="0.01" x="0" y="0" width="10" height="10"></rect>
                <path d="M1.53775278,0.972453964 L1.60767966,1.02948689 L3.02153344,2.41111138 C3.02186796,2.41096806 3.02220248,2.41082479 3.02253701,2.41068155 L3.93855138,3.30459791 L3.9374878,3.30519423 L4.69816181,4.04635953 C4.79339971,4.01624364 4.8948029,4 5,4 C5.55228475,4 6,4.44771525 6,5 C6,5.09679594 5.98624723,5.19037975 5.9605891,5.27890402 L6.71979967,6.0215323 L6.8034878,6.10319423 L9.33178806,8.57312355 C9.50739378,8.74462629 9.52986208,9.01380393 9.39717873,9.21025406 L9.34014581,9.28018094 C9.16864307,9.45578666 8.89946543,9.47825496 8.7030153,9.34557161 L8.63308842,9.28853868 L6.91701142,7.61264766 C6.91667716,7.61278768 6.91634289,7.61292765 6.91600861,7.61306759 L6.0094383,6.72694137 L6.0094878,6.72619423 L5.2374589,5.97163656 C5.16134485,5.9901736 5.08181996,6 5,6 C4.44771525,6 4,5.55228475 4,5 C4,4.92668787 4.0078891,4.85521833 4.02286467,4.78639402 L3.24985201,4.03126494 L2.2324878,3.03719423 L0.908980015,1.74490202 C0.733374297,1.57339928 0.710905996,1.30422164 0.843589348,1.10777151 L0.900622272,1.03784463 C1.07212501,0.862238912 1.34130265,0.839770612 1.53775278,0.972453964 Z M1.68773672,3.20293687 L3.05356958,4.53824108 C3.01853797,4.68646805 3,4.84106914 3,5 C3,6.1045695 3.8954305,7 5,7 C5.17536834,7 5.34546497,6.97742914 5.50754337,6.93503393 L6.39220015,7.7996862 C5.9397705,7.93322873 5.47570378,8 5,8 C3.15905083,8 1.49321344,6.968151 0.0024878047,4.90445299 C0.546502447,4.21427808 1.10825209,3.64710604 1.68773672,3.20293687 Z M5,2 C6.84094917,2 8.50761583,3 10,5 C9.44247012,5.7471667 8.86061659,6.35476888 8.25443941,6.82280654 L6.92955978,5.5280239 C6.97548353,5.35981486 7,5.18277049 7,5 C7,3.8954305 6.1045695,3 5,3 C4.80060369,3 4.60802265,3.02917965 4.42629408,3.08350174 L3.54164227,2.21981832 C4.01719678,2.07327277 4.50331602,2 5,2 Z" id="椭圆形-2备份" fill="#333333"></path>
            </g>
            <g id="编组-11" transform="translate(16.000000, 43.000000)" fill="#333333">
                <circle id="椭圆形" cx="3" cy="3" r="3"></circle>
                <circle id="椭圆形" cx="17" cy="3" r="3"></circle>
                <circle id="椭圆形" cx="31" cy="3" r="3"></circle>
                <circle id="椭圆形" cx="45" cy="3" r="3"></circle>
                <circle id="椭圆形" cx="59" cy="3" r="3"></circle>
                <circle id="椭圆形" cx="73" cy="3" r="3"></circle>
                <circle id="椭圆形" cx="87" cy="3" r="3"></circle>
                <circle id="椭圆形" cx="101" cy="3" r="3"></circle>
            </g>
            <text id="样式二" font-family="MicrosoftYaHei, Microsoft YaHei" font-size="12" font-weight="normal" line-spacing="22" fill="#525A6E">
                <tspan x="8" y="19">样式二</tspan>
            </text>
            <text id="样式二" font-family="MicrosoftYaHei, Microsoft YaHei" font-size="12" font-weight="normal" line-spacing="22" fill="#525A6E">
                <tspan x="240" y="19">样式二</tspan>
            </text>
        </g>
    </g>
</svg>