<?xml version="1.0" encoding="UTF-8"?>
<svg width="494px" height="155px" viewBox="0 0 494 155" version="1.1" xmlns="http://www.w3.org/2000/svg" xmlns:xlink="http://www.w3.org/1999/xlink">
    <!-- Generator: Sketch 58 (84663) - https://sketch.com -->
    <title>warning-hints/style2</title>
    <desc>Created with Sketch.</desc>
    <g id="页面-1" stroke="none" stroke-width="1" fill="none" fill-rule="evenodd">
        <g id="warning-hints/style2">
            <rect id="矩形" fill-opacity="0.01" fill="#FAFAFA" x="0" y="0" width="494" height="155"></rect>
            <rect id="矩形" stroke="#4F7DE7" fill="#FFFFFF" x="52.5" y="15.5" width="409" height="35" rx="2"></rect>
            <path d="M82.8164062,27.7792969 L88.6640625,27.7792969 L88.6640625,32.4082031 L87.8203125,32.4082031 L87.8203125,32.0683594 L83.6601562,32.0683594 L83.6601562,32.4082031 L82.8164062,32.4082031 L82.8164062,27.7792969 Z M80.9882812,38.2792969 C82.0898493,37.3574173 82.7070306,36.037118 82.8398438,34.3183594 L83.71875,34.3183594 C83.6796873,34.8652371 83.59961,35.3769507 83.4785156,35.8535156 C83.9746119,36.6113319 84.6210898,37.1230455 85.4179688,37.3886719 L85.4179688,33.8613281 L81.796875,33.8613281 L81.796875,33.0878906 L89.6953125,33.0878906 L89.6953125,33.8613281 L86.296875,33.8613281 L86.296875,35.1738281 L89.2382812,35.1738281 L89.2382812,35.9238281 L86.296875,35.9238281 L86.296875,37.5761719 C86.8281277,37.6386722 88.0078034,37.634766 89.8359375,37.5644531 L89.5664062,38.4316406 L89.5664062,38.4316406 C88.8691371,38.4492188 88.1521007,38.4470217 87.4152847,38.4250489 L86.671875,38.3964844 C85.0937421,38.376953 83.9335975,37.8222711 83.1914062,36.7324219 C82.8632796,37.5488322 82.3867219,38.248044 81.7617188,38.8300781 C81.5273426,38.6347646 81.2695327,38.4511727 80.9882812,38.2792969 Z M78.1523438,33.4746094 C78.6523438,33.2597646 79.1562475,33.0332043 79.6640625,32.7949219 L79.6640625,30.2988281 L78.2460938,30.2988281 L78.2460938,29.5019531 L79.6640625,29.5019531 L79.6640625,27.3222656 L80.5546875,27.3222656 L80.5546875,29.5019531 L82.0546875,29.5019531 L82.0546875,30.2988281 L80.5546875,30.2988281 L80.5546875,32.3613281 C81.0039085,32.1386708 81.4531228,31.9042981 81.9023438,31.6582031 C81.9257814,31.9628921 81.9570311,32.275389 81.9960938,32.5957031 L80.5546875,33.3164062 L80.5546875,33.3164062 L80.5546875,37.4003906 C80.5546875,38.1582069 80.2656279,38.5683591 79.6875,38.6308594 C79.281248,38.6699221 78.8242213,38.6816407 78.3164062,38.6660156 C78.269531,38.337889 78.2187503,38.0136735 78.1640625,37.6933594 C78.5937521,37.7402346 78.960936,37.7636719 79.265625,37.7636719 C79.5312513,37.7636719 79.6640625,37.6191421 79.6640625,37.3300781 L79.6640625,33.7734375 C79.1953102,34.0156262 78.7304711,34.2597644 78.2695312,34.5058594 L78.1523438,33.4746094 Z M83.6601562,31.3183594 L87.8203125,31.3183594 L87.8203125,30.2871094 L83.6601562,30.2871094 L83.6601562,31.3183594 Z M87.8203125,28.5292969 L83.6601562,28.5292969 L83.6601562,29.5488281 L87.8203125,29.5488281 L87.8203125,28.5292969 Z M90.1875,31.4707031 L101.8125,31.4707031 L101.8125,32.3496094 L96.7851562,32.3496094 L96.7851562,37.0839844 C96.7851562,38.0605518 96.2734426,38.5527343 95.25,38.5605469 L93.421875,38.5488281 L93.421875,38.5488281 L93.3427735,38.0390626 C93.3134767,37.8593756 93.2812502,37.6699229 93.2460938,37.4707031 C93.8632843,37.5332034 94.4453098,37.5644531 94.9921875,37.5644531 C95.5234402,37.5644531 95.7890625,37.302737 95.7890625,36.7792969 L95.7890625,32.3496094 L90.1875,32.3496094 L90.1875,31.4707031 Z M91.265625,28.0136719 L100.769531,28.0136719 L100.769531,28.8925781 L91.265625,28.8925781 L91.265625,28.0136719 Z M98.2734375,33.7675781 L99.0585938,33.2402344 C100.019536,34.4199278 100.949214,35.6503842 101.847656,36.9316406 L100.992188,37.4941406 C100.023433,36.0800711 99.1171917,34.837896 98.2734375,33.7675781 Z M92.7773438,33.2167969 L93.6328125,33.6972656 C92.8124959,35.1191477 91.9375046,36.4706967 91.0078125,37.7519531 C90.7656238,37.5722647 90.5078139,37.3886728 90.234375,37.2011719 C91.1093794,36.0683537 91.9570271,34.740242 92.7773438,33.2167969 Z M106.3125,34.5410156 L112.980469,34.5410156 L112.980469,38.8300781 L112.078125,38.8300781 L112.078125,38.1269531 L107.214844,38.1269531 L107.214844,38.8300781 L106.3125,38.8300781 L106.3125,34.5410156 Z M102.152344,32.9121094 C103.300787,31.2089759 104.16406,29.3261822 104.742188,27.2636719 L105.65625,27.5214844 C105.316405,28.5722709 104.945315,29.5410112 104.542969,30.4277344 L104.542969,38.8300781 L103.675781,38.8300781 L103.675781,32.1445312 C103.316404,32.7734406 102.937502,33.3496068 102.539062,33.8730469 C102.414062,33.5449202 102.285157,33.2246109 102.152344,32.9121094 Z M112.078125,35.3378906 L107.214844,35.3378906 L107.214844,37.3300781 L112.078125,37.3300781 L112.078125,35.3378906 Z M105.539062,28.8457031 L109.365234,28.8457031 C109.130858,28.4433574 108.88672,28.0449238 108.632812,27.6503906 L109.417969,27.2402344 C109.69922,27.6621115 109.976561,28.1074195 110.25,28.5761719 L109.740234,28.8457031 L113.789062,28.8457031 L113.789062,29.6660156 L105.539062,29.6660156 L105.539062,28.8457031 Z M106.183594,30.7558594 L113.097656,30.7558594 L113.097656,31.5527344 L106.183594,31.5527344 L106.183594,30.7558594 Z M106.183594,32.6425781 L113.097656,32.6425781 L113.097656,33.4394531 L106.183594,33.4394531 L106.183594,32.6425781 Z M115.710938,28.4003906 L118.576172,28.4003906 C118.744141,27.9824198 118.882812,27.5800801 118.992188,27.1933594 L119.90625,27.4394531 C119.777343,27.771486 119.642579,28.0917953 119.501953,28.4003906 L124.171875,28.4003906 L124.171875,34.7988281 L123.269531,34.7988281 L123.269531,34.4355469 L116.613281,34.4355469 L116.613281,34.7988281 L115.710938,34.7988281 L115.710938,28.4003906 Z M116.941406,35.2441406 L117.832031,35.2441406 L117.832031,36.9667969 C117.832031,37.4511743 118.089841,37.6933594 118.605469,37.6933594 L121.207031,37.6933594 C121.832034,37.6933594 122.195312,37.4785178 122.296875,37.0488281 C122.375,36.7675767 122.453125,36.3417997 122.53125,35.7714844 C122.820314,35.8886725 123.124998,36.0019526 123.445312,36.1113281 C123.351562,36.6503933 123.257813,37.0839827 123.164062,37.4121094 C122.984374,38.1543006 122.402349,38.5253906 121.417969,38.5253906 L118.464844,38.5253906 C117.449214,38.5253906 116.941406,38.0410205 116.941406,37.0722656 L116.941406,35.2441406 Z M116.613281,31.9042969 L123.269531,31.9042969 L123.269531,30.9199219 L116.613281,30.9199219 L116.613281,31.9042969 Z M116.613281,33.6386719 L123.269531,33.6386719 L123.269531,32.6542969 L116.613281,32.6542969 L116.613281,33.6386719 Z M123.269531,29.1972656 L116.613281,29.1972656 L116.613281,30.1699219 L123.269531,30.1699219 L123.269531,29.1972656 Z M115.195312,35.1269531 L116.050781,35.4199219 C115.70703,36.3574266 115.347658,37.2128868 114.972656,37.9863281 L114.56836,37.819336 C114.423829,37.7626955 114.269532,37.7050784 114.105469,37.6464844 C114.488283,36.9667935 114.851561,36.1269531 115.195312,35.1269531 Z M123.597656,35.5019531 L124.277344,34.9746094 C124.832034,35.5761749 125.398435,36.2363245 125.976562,36.9550781 L125.226562,37.5292969 C124.69531,36.8105433 124.152347,36.1347688 123.597656,35.5019531 Z M118.992188,35.1152344 L119.625,34.5761719 C120.101565,35.0136741 120.624997,35.5371063 121.195312,36.1464844 L120.480469,36.7558594 L120.062255,36.2709964 C119.659423,35.8110359 119.302736,35.4257828 118.992188,35.1152344 Z M126.363281,29.2792969 L131.988281,29.2792969 L131.622395,28.5970039 C131.397569,28.1872821 131.210938,27.8678397 131.0625,27.6386719 L131.964844,27.2167969 L132.220052,27.6230468 C132.414496,27.9407543 132.657551,28.352211 132.949219,28.8574219 L132.105469,29.2792969 L137.613281,29.2792969 L137.613281,30.1464844 L135.451172,30.1464844 C135.033201,32.3769643 134.134773,34.1699151 132.755859,35.5253906 C133.794927,36.2832069 135.445301,36.9628876 137.707031,37.5644531 C137.347654,37.9707052 137.07422,38.3105455 136.886719,38.5839844 C134.683583,37.8222618 133.056646,37.0253948 132.005859,36.1933594 C130.951167,37.013676 129.265637,37.8417927 126.949219,38.6777344 L126.621094,38.2441407 C126.503907,38.0917974 126.378907,37.9316415 126.246094,37.7636719 C128.48048,37.0917935 130.162104,36.3437541 131.291016,35.5195312 C129.865227,33.9960861 128.958986,32.2050884 128.572266,30.1464844 L126.363281,30.1464844 L126.363281,29.2792969 Z M134.449219,30.1464844 L129.509766,30.1464844 C129.86133,32.068369 130.701165,33.6562437 132.029297,34.9101562 C133.298834,33.7304629 134.105467,32.1425881 134.449219,30.1464844 Z M149.847656,37.5996094 C149.58203,37.9121109 149.35547,38.2050768 149.167969,38.4785156 C147.105458,37.861325 145.523443,37.1054732 144.421875,36.2109375 L144.421875,38.8535156 L143.578125,38.8535156 L143.578125,36.2285156 C142.394525,37.0644573 140.820322,37.818356 138.855469,38.4902344 C138.675781,38.2636707 138.44922,37.9980484 138.175781,37.6933594 C140.191416,37.1894506 141.787103,36.5683631 142.962891,35.8300781 L138.445312,35.8300781 L138.445312,35.0449219 L143.578125,35.0449219 L143.578125,34.0839844 L144.421875,34.0839844 L144.421875,35.0449219 L149.625,35.0449219 L149.625,35.8300781 L145.060547,35.8300781 C146.294928,36.6621135 147.890615,37.2519514 149.847656,37.5996094 Z M138.785156,28.3535156 L143.695312,28.3535156 C143.546874,28.083983 143.375001,27.8066421 143.179688,27.5214844 L144.011719,27.1464844 C144.265626,27.5449239 144.505858,27.9472636 144.732422,28.3535156 L149.203125,28.3535156 L149.203125,30.1230469 L148.3125,30.1230469 L148.3125,29.1269531 L139.675781,29.1269531 L139.675781,30.1230469 L138.785156,30.1230469 L138.785156,28.3535156 Z" id="提示信息文案" fill="#5A6677" fill-rule="nonzero"></path>
            <path d="M142.710938,29.4316406 L143.660156,29.7011719 C143.449218,29.9824233 143.224611,30.2636705 142.986328,30.5449219 L149.53125,30.5449219 L149.53125,31.3183594 L147.011719,31.3183594 C146.640623,31.9785189 146.138675,32.5136698 145.505859,32.9238281 L146.813673,33.2697659 C147.451172,33.4399218 148.06406,33.6058586 148.652344,33.7675781 L148.277344,34.5527344 C147.039056,34.1621074 145.779303,33.7890643 144.498047,33.4335938 C143.310541,33.9023461 141.519543,34.2871079 139.125,34.5878906 C139.03125,34.3378894 138.917969,34.0800795 138.785156,33.8144531 L139.62461,33.7129366 C141.10945,33.522501 142.29642,33.3082945 143.185547,33.0703125 C142.248042,32.8203113 141.300786,32.5761731 140.34375,32.3378906 C140.664064,31.9941389 140.96875,31.6542986 141.257812,31.3183594 L138.46875,31.3183594 L138.46875,30.5449219 L141.890625,30.5449219 C142.187501,30.16992 142.460936,29.79883 142.710938,29.4316406 Z M146.033203,31.3183594 L142.300781,31.3183594 C142.101562,31.5332042 141.894532,31.7480458 141.679688,31.9628906 C142.156252,32.0800787 142.623048,32.1958011 143.080078,32.3100586 L143.080078,32.3100586 L144.421875,32.6484375 C145.109378,32.3437485 145.646482,31.9003935 146.033203,31.3183594 L146.033203,31.3183594 Z" id="形状结合" fill="#5A6677" fill-rule="nonzero"></path>
            <circle id="椭圆形" fill="#4F7DE7" cx="67" cy="33" r="3"></circle>
            <rect id="矩形" stroke="#F8B303" fill="#FFFFFF" x="52.5" y="59.5" width="409" height="35" rx="2"></rect>
            <circle id="椭圆形" fill="#F8B303" cx="67" cy="77" r="3"></circle>
            <path d="M82.8164062,71.7792969 L88.6640625,71.7792969 L88.6640625,76.4082031 L87.8203125,76.4082031 L87.8203125,76.0683594 L83.6601562,76.0683594 L83.6601562,76.4082031 L82.8164062,76.4082031 L82.8164062,71.7792969 Z M80.9882812,82.2792969 C82.0898493,81.3574173 82.7070306,80.037118 82.8398438,78.3183594 L83.71875,78.3183594 C83.6796873,78.8652371 83.59961,79.3769507 83.4785156,79.8535156 C83.9746119,80.6113319 84.6210898,81.1230455 85.4179688,81.3886719 L85.4179688,77.8613281 L81.796875,77.8613281 L81.796875,77.0878906 L89.6953125,77.0878906 L89.6953125,77.8613281 L86.296875,77.8613281 L86.296875,79.1738281 L89.2382812,79.1738281 L89.2382812,79.9238281 L86.296875,79.9238281 L86.296875,81.5761719 C86.8281277,81.6386722 88.0078034,81.634766 89.8359375,81.5644531 L89.5664062,82.4316406 L89.5664062,82.4316406 C88.8691371,82.4492188 88.1521007,82.4470217 87.4152847,82.4250489 L86.671875,82.3964844 C85.0937421,82.376953 83.9335975,81.8222711 83.1914062,80.7324219 C82.8632796,81.5488322 82.3867219,82.248044 81.7617188,82.8300781 C81.5273426,82.6347646 81.2695327,82.4511727 80.9882812,82.2792969 Z M78.1523438,77.4746094 C78.6523438,77.2597646 79.1562475,77.0332043 79.6640625,76.7949219 L79.6640625,74.2988281 L78.2460938,74.2988281 L78.2460938,73.5019531 L79.6640625,73.5019531 L79.6640625,71.3222656 L80.5546875,71.3222656 L80.5546875,73.5019531 L82.0546875,73.5019531 L82.0546875,74.2988281 L80.5546875,74.2988281 L80.5546875,76.3613281 C81.0039085,76.1386708 81.4531228,75.9042981 81.9023438,75.6582031 C81.9257814,75.9628921 81.9570311,76.275389 81.9960938,76.5957031 L80.5546875,77.3164062 L80.5546875,77.3164062 L80.5546875,81.4003906 C80.5546875,82.1582069 80.2656279,82.5683591 79.6875,82.6308594 C79.281248,82.6699221 78.8242213,82.6816407 78.3164062,82.6660156 C78.269531,82.337889 78.2187503,82.0136735 78.1640625,81.6933594 C78.5937521,81.7402346 78.960936,81.7636719 79.265625,81.7636719 C79.5312513,81.7636719 79.6640625,81.6191421 79.6640625,81.3300781 L79.6640625,77.7734375 C79.1953102,78.0156262 78.7304711,78.2597644 78.2695312,78.5058594 L78.1523438,77.4746094 Z M83.6601562,75.3183594 L87.8203125,75.3183594 L87.8203125,74.2871094 L83.6601562,74.2871094 L83.6601562,75.3183594 Z M87.8203125,72.5292969 L83.6601562,72.5292969 L83.6601562,73.5488281 L87.8203125,73.5488281 L87.8203125,72.5292969 Z M90.1875,75.4707031 L101.8125,75.4707031 L101.8125,76.3496094 L96.7851562,76.3496094 L96.7851562,81.0839844 C96.7851562,82.0605518 96.2734426,82.5527343 95.25,82.5605469 L93.421875,82.5488281 L93.421875,82.5488281 L93.3427735,82.0390626 C93.3134767,81.8593756 93.2812502,81.6699229 93.2460938,81.4707031 C93.8632843,81.5332034 94.4453098,81.5644531 94.9921875,81.5644531 C95.5234402,81.5644531 95.7890625,81.302737 95.7890625,80.7792969 L95.7890625,76.3496094 L90.1875,76.3496094 L90.1875,75.4707031 Z M91.265625,72.0136719 L100.769531,72.0136719 L100.769531,72.8925781 L91.265625,72.8925781 L91.265625,72.0136719 Z M98.2734375,77.7675781 L99.0585938,77.2402344 C100.019536,78.4199278 100.949214,79.6503842 101.847656,80.9316406 L100.992188,81.4941406 C100.023433,80.0800711 99.1171917,78.837896 98.2734375,77.7675781 Z M92.7773438,77.2167969 L93.6328125,77.6972656 C92.8124959,79.1191477 91.9375046,80.4706967 91.0078125,81.7519531 C90.7656238,81.5722647 90.5078139,81.3886728 90.234375,81.2011719 C91.1093794,80.0683537 91.9570271,78.740242 92.7773438,77.2167969 Z M106.3125,78.5410156 L112.980469,78.5410156 L112.980469,82.8300781 L112.078125,82.8300781 L112.078125,82.1269531 L107.214844,82.1269531 L107.214844,82.8300781 L106.3125,82.8300781 L106.3125,78.5410156 Z M102.152344,76.9121094 C103.300787,75.2089759 104.16406,73.3261822 104.742188,71.2636719 L105.65625,71.5214844 C105.316405,72.5722709 104.945315,73.5410112 104.542969,74.4277344 L104.542969,82.8300781 L103.675781,82.8300781 L103.675781,76.1445312 C103.316404,76.7734406 102.937502,77.3496068 102.539062,77.8730469 C102.414062,77.5449202 102.285157,77.2246109 102.152344,76.9121094 Z M112.078125,79.3378906 L107.214844,79.3378906 L107.214844,81.3300781 L112.078125,81.3300781 L112.078125,79.3378906 Z M105.539062,72.8457031 L109.365234,72.8457031 C109.130858,72.4433574 108.88672,72.0449238 108.632812,71.6503906 L109.417969,71.2402344 C109.69922,71.6621115 109.976561,72.1074195 110.25,72.5761719 L109.740234,72.8457031 L113.789062,72.8457031 L113.789062,73.6660156 L105.539062,73.6660156 L105.539062,72.8457031 Z M106.183594,74.7558594 L113.097656,74.7558594 L113.097656,75.5527344 L106.183594,75.5527344 L106.183594,74.7558594 Z M106.183594,76.6425781 L113.097656,76.6425781 L113.097656,77.4394531 L106.183594,77.4394531 L106.183594,76.6425781 Z M115.710938,72.4003906 L118.576172,72.4003906 C118.744141,71.9824198 118.882812,71.5800801 118.992188,71.1933594 L119.90625,71.4394531 C119.777343,71.771486 119.642579,72.0917953 119.501953,72.4003906 L124.171875,72.4003906 L124.171875,78.7988281 L123.269531,78.7988281 L123.269531,78.4355469 L116.613281,78.4355469 L116.613281,78.7988281 L115.710938,78.7988281 L115.710938,72.4003906 Z M116.941406,79.2441406 L117.832031,79.2441406 L117.832031,80.9667969 C117.832031,81.4511743 118.089841,81.6933594 118.605469,81.6933594 L121.207031,81.6933594 C121.832034,81.6933594 122.195312,81.4785178 122.296875,81.0488281 C122.375,80.7675767 122.453125,80.3417997 122.53125,79.7714844 C122.820314,79.8886725 123.124998,80.0019526 123.445312,80.1113281 C123.351562,80.6503933 123.257813,81.0839827 123.164062,81.4121094 C122.984374,82.1543006 122.402349,82.5253906 121.417969,82.5253906 L118.464844,82.5253906 C117.449214,82.5253906 116.941406,82.0410205 116.941406,81.0722656 L116.941406,79.2441406 Z M116.613281,75.9042969 L123.269531,75.9042969 L123.269531,74.9199219 L116.613281,74.9199219 L116.613281,75.9042969 Z M116.613281,77.6386719 L123.269531,77.6386719 L123.269531,76.6542969 L116.613281,76.6542969 L116.613281,77.6386719 Z M123.269531,73.1972656 L116.613281,73.1972656 L116.613281,74.1699219 L123.269531,74.1699219 L123.269531,73.1972656 Z M115.195312,79.1269531 L116.050781,79.4199219 C115.70703,80.3574266 115.347658,81.2128868 114.972656,81.9863281 L114.56836,81.819336 C114.423829,81.7626955 114.269532,81.7050784 114.105469,81.6464844 C114.488283,80.9667935 114.851561,80.1269531 115.195312,79.1269531 Z M123.597656,79.5019531 L124.277344,78.9746094 C124.832034,79.5761749 125.398435,80.2363245 125.976562,80.9550781 L125.226562,81.5292969 C124.69531,80.8105433 124.152347,80.1347688 123.597656,79.5019531 Z M118.992188,79.1152344 L119.625,78.5761719 C120.101565,79.0136741 120.624997,79.5371063 121.195312,80.1464844 L120.480469,80.7558594 L120.062255,80.2709964 C119.659423,79.8110359 119.302736,79.4257828 118.992188,79.1152344 Z M126.363281,73.2792969 L131.988281,73.2792969 L131.622395,72.5970039 C131.397569,72.1872821 131.210938,71.8678397 131.0625,71.6386719 L131.964844,71.2167969 L132.220052,71.6230468 C132.414496,71.9407543 132.657551,72.352211 132.949219,72.8574219 L132.105469,73.2792969 L137.613281,73.2792969 L137.613281,74.1464844 L135.451172,74.1464844 C135.033201,76.3769643 134.134773,78.1699151 132.755859,79.5253906 C133.794927,80.2832069 135.445301,80.9628876 137.707031,81.5644531 C137.347654,81.9707052 137.07422,82.3105455 136.886719,82.5839844 C134.683583,81.8222618 133.056646,81.0253948 132.005859,80.1933594 C130.951167,81.013676 129.265637,81.8417927 126.949219,82.6777344 L126.621094,82.2441407 C126.503907,82.0917974 126.378907,81.9316415 126.246094,81.7636719 C128.48048,81.0917935 130.162104,80.3437541 131.291016,79.5195312 C129.865227,77.9960861 128.958986,76.2050884 128.572266,74.1464844 L126.363281,74.1464844 L126.363281,73.2792969 Z M134.449219,74.1464844 L129.509766,74.1464844 C129.86133,76.068369 130.701165,77.6562437 132.029297,78.9101562 C133.298834,77.7304629 134.105467,76.1425881 134.449219,74.1464844 Z M149.847656,81.5996094 C149.58203,81.9121109 149.35547,82.2050768 149.167969,82.4785156 C147.105458,81.861325 145.523443,81.1054732 144.421875,80.2109375 L144.421875,82.8535156 L143.578125,82.8535156 L143.578125,80.2285156 C142.394525,81.0644573 140.820322,81.818356 138.855469,82.4902344 C138.675781,82.2636707 138.44922,81.9980484 138.175781,81.6933594 C140.191416,81.1894506 141.787103,80.5683631 142.962891,79.8300781 L138.445312,79.8300781 L138.445312,79.0449219 L143.578125,79.0449219 L143.578125,78.0839844 L144.421875,78.0839844 L144.421875,79.0449219 L149.625,79.0449219 L149.625,79.8300781 L145.060547,79.8300781 C146.294928,80.6621135 147.890615,81.2519514 149.847656,81.5996094 Z M138.785156,72.3535156 L143.695312,72.3535156 C143.546874,72.083983 143.375001,71.8066421 143.179688,71.5214844 L144.011719,71.1464844 C144.265626,71.5449239 144.505858,71.9472636 144.732422,72.3535156 L149.203125,72.3535156 L149.203125,74.1230469 L148.3125,74.1230469 L148.3125,73.1269531 L139.675781,73.1269531 L139.675781,74.1230469 L138.785156,74.1230469 L138.785156,72.3535156 Z" id="提示信息文案" fill="#5A6677" fill-rule="nonzero"></path>
            <path d="M142.710938,73.4316406 L143.660156,73.7011719 C143.449218,73.9824233 143.224611,74.2636705 142.986328,74.5449219 L149.53125,74.5449219 L149.53125,75.3183594 L147.011719,75.3183594 C146.640623,75.9785189 146.138675,76.5136698 145.505859,76.9238281 L146.813673,77.2697659 C147.451172,77.4399218 148.06406,77.6058586 148.652344,77.7675781 L148.277344,78.5527344 C147.039056,78.1621074 145.779303,77.7890643 144.498047,77.4335938 C143.310541,77.9023461 141.519543,78.2871079 139.125,78.5878906 C139.03125,78.3378894 138.917969,78.0800795 138.785156,77.8144531 L139.62461,77.7129366 C141.10945,77.522501 142.29642,77.3082945 143.185547,77.0703125 C142.248042,76.8203113 141.300786,76.5761731 140.34375,76.3378906 C140.664064,75.9941389 140.96875,75.6542986 141.257812,75.3183594 L138.46875,75.3183594 L138.46875,74.5449219 L141.890625,74.5449219 C142.187501,74.16992 142.460936,73.79883 142.710938,73.4316406 Z M146.033203,75.3183594 L142.300781,75.3183594 C142.101562,75.5332042 141.894532,75.7480458 141.679688,75.9628906 C142.156252,76.0800787 142.623048,76.1958011 143.080078,76.3100586 L143.080078,76.3100586 L144.421875,76.6484375 C145.109378,76.3437485 145.646482,75.9003935 146.033203,75.3183594 L146.033203,75.3183594 Z" id="形状结合" fill="#5A6677" fill-rule="nonzero"></path>
            <rect id="矩形" stroke="#FD6868" fill="#FFFFFF" x="52.5" y="103.5" width="409" height="35" rx="2"></rect>
            <g id="编组-13" transform="translate(440.000000, 26.000000)">
                <rect id="矩形" fill="#D8D8D8" opacity="0.01" x="0" y="0" width="14" height="14"></rect>
                <path d="M7.70710678,7 L11.9497475,11.2426407 C12.1450096,11.4379028 12.1450096,11.7544853 11.9497475,11.9497475 C11.7544853,12.1450096 11.4379028,12.1450096 11.2426407,11.9497475 L7,7.70710678 L2.75735931,11.9497475 C2.56209717,12.1450096 2.24551468,12.1450096 2.05025253,11.9497475 C1.85499039,11.7544853 1.85499039,11.4379028 2.05025253,11.2426407 L6.29289322,7 L2.05025253,2.75735931 C1.85499039,2.56209717 1.85499039,2.24551468 2.05025253,2.05025253 C2.24551468,1.85499039 2.56209717,1.85499039 2.75735931,2.05025253 L7,6.29289322 L11.2426407,2.05025253 C11.4379028,1.85499039 11.7544853,1.85499039 11.9497475,2.05025253 C12.1450096,2.24551468 12.1450096,2.56209717 11.9497475,2.75735931 L7.70710678,7 Z" id="路径" fill="#AAADBA"></path>
            </g>
            <g id="编组-13" transform="translate(440.000000, 70.000000)">
                <rect id="矩形" fill="#D8D8D8" opacity="0.01" x="0" y="0" width="14" height="14"></rect>
                <path d="M7.70710678,7 L11.9497475,11.2426407 C12.1450096,11.4379028 12.1450096,11.7544853 11.9497475,11.9497475 C11.7544853,12.1450096 11.4379028,12.1450096 11.2426407,11.9497475 L7,7.70710678 L2.75735931,11.9497475 C2.56209717,12.1450096 2.24551468,12.1450096 2.05025253,11.9497475 C1.85499039,11.7544853 1.85499039,11.4379028 2.05025253,11.2426407 L6.29289322,7 L2.05025253,2.75735931 C1.85499039,2.56209717 1.85499039,2.24551468 2.05025253,2.05025253 C2.24551468,1.85499039 2.56209717,1.85499039 2.75735931,2.05025253 L7,6.29289322 L11.2426407,2.05025253 C11.4379028,1.85499039 11.7544853,1.85499039 11.9497475,2.05025253 C12.1450096,2.24551468 12.1450096,2.56209717 11.9497475,2.75735931 L7.70710678,7 Z" id="路径" fill="#AAADBA"></path>
            </g>
            <g id="编组-13" transform="translate(440.000000, 114.000000)">
                <rect id="矩形" fill="#D8D8D8" opacity="0.01" x="0" y="0" width="14" height="14"></rect>
                <path d="M7.70710678,7 L11.9497475,11.2426407 C12.1450096,11.4379028 12.1450096,11.7544853 11.9497475,11.9497475 C11.7544853,12.1450096 11.4379028,12.1450096 11.2426407,11.9497475 L7,7.70710678 L2.75735931,11.9497475 C2.56209717,12.1450096 2.24551468,12.1450096 2.05025253,11.9497475 C1.85499039,11.7544853 1.85499039,11.4379028 2.05025253,11.2426407 L6.29289322,7 L2.05025253,2.75735931 C1.85499039,2.56209717 1.85499039,2.24551468 2.05025253,2.05025253 C2.24551468,1.85499039 2.56209717,1.85499039 2.75735931,2.05025253 L7,6.29289322 L11.2426407,2.05025253 C11.4379028,1.85499039 11.7544853,1.85499039 11.9497475,2.05025253 C12.1450096,2.24551468 12.1450096,2.56209717 11.9497475,2.75735931 L7.70710678,7 Z" id="路径" fill="#AAADBA"></path>
            </g>
            <circle id="椭圆形" fill="#FD6868" cx="67" cy="121" r="3"></circle>
            <path d="M82.8164062,115.779297 L88.6640625,115.779297 L88.6640625,120.408203 L87.8203125,120.408203 L87.8203125,120.068359 L83.6601562,120.068359 L83.6601562,120.408203 L82.8164062,120.408203 L82.8164062,115.779297 Z M80.9882812,126.279297 C82.0898493,125.357417 82.7070306,124.037118 82.8398438,122.318359 L83.71875,122.318359 C83.6796873,122.865237 83.59961,123.376951 83.4785156,123.853516 C83.9746119,124.611332 84.6210898,125.123046 85.4179688,125.388672 L85.4179688,121.861328 L81.796875,121.861328 L81.796875,121.087891 L89.6953125,121.087891 L89.6953125,121.861328 L86.296875,121.861328 L86.296875,123.173828 L89.2382812,123.173828 L89.2382812,123.923828 L86.296875,123.923828 L86.296875,125.576172 C86.8281277,125.638672 88.0078034,125.634766 89.8359375,125.564453 L89.5664062,126.431641 L89.5664062,126.431641 C88.8691371,126.449219 88.1521007,126.447022 87.4152847,126.425049 L86.671875,126.396484 C85.0937421,126.376953 83.9335975,125.822271 83.1914062,124.732422 C82.8632796,125.548832 82.3867219,126.248044 81.7617188,126.830078 C81.5273426,126.634765 81.2695327,126.451173 80.9882812,126.279297 Z M78.1523438,121.474609 C78.6523438,121.259765 79.1562475,121.033204 79.6640625,120.794922 L79.6640625,118.298828 L78.2460938,118.298828 L78.2460938,117.501953 L79.6640625,117.501953 L79.6640625,115.322266 L80.5546875,115.322266 L80.5546875,117.501953 L82.0546875,117.501953 L82.0546875,118.298828 L80.5546875,118.298828 L80.5546875,120.361328 C81.0039085,120.138671 81.4531228,119.904298 81.9023438,119.658203 C81.9257814,119.962892 81.9570311,120.275389 81.9960938,120.595703 L80.5546875,121.316406 L80.5546875,121.316406 L80.5546875,125.400391 C80.5546875,126.158207 80.2656279,126.568359 79.6875,126.630859 C79.281248,126.669922 78.8242213,126.681641 78.3164062,126.666016 C78.269531,126.337889 78.2187503,126.013673 78.1640625,125.693359 C78.5937521,125.740235 78.960936,125.763672 79.265625,125.763672 C79.5312513,125.763672 79.6640625,125.619142 79.6640625,125.330078 L79.6640625,121.773438 C79.1953102,122.015626 78.7304711,122.259764 78.2695312,122.505859 L78.1523438,121.474609 Z M83.6601562,119.318359 L87.8203125,119.318359 L87.8203125,118.287109 L83.6601562,118.287109 L83.6601562,119.318359 Z M87.8203125,116.529297 L83.6601562,116.529297 L83.6601562,117.548828 L87.8203125,117.548828 L87.8203125,116.529297 Z M90.1875,119.470703 L101.8125,119.470703 L101.8125,120.349609 L96.7851562,120.349609 L96.7851562,125.083984 C96.7851562,126.060552 96.2734426,126.552734 95.25,126.560547 L93.421875,126.548828 L93.421875,126.548828 L93.3427735,126.039063 C93.3134767,125.859376 93.2812502,125.669923 93.2460938,125.470703 C93.8632843,125.533203 94.4453098,125.564453 94.9921875,125.564453 C95.5234402,125.564453 95.7890625,125.302737 95.7890625,124.779297 L95.7890625,120.349609 L90.1875,120.349609 L90.1875,119.470703 Z M91.265625,116.013672 L100.769531,116.013672 L100.769531,116.892578 L91.265625,116.892578 L91.265625,116.013672 Z M98.2734375,121.767578 L99.0585938,121.240234 C100.019536,122.419928 100.949214,123.650384 101.847656,124.931641 L100.992188,125.494141 C100.023433,124.080071 99.1171917,122.837896 98.2734375,121.767578 Z M92.7773438,121.216797 L93.6328125,121.697266 C92.8124959,123.119148 91.9375046,124.470697 91.0078125,125.751953 C90.7656238,125.572265 90.5078139,125.388673 90.234375,125.201172 C91.1093794,124.068354 91.9570271,122.740242 92.7773438,121.216797 Z M106.3125,122.541016 L112.980469,122.541016 L112.980469,126.830078 L112.078125,126.830078 L112.078125,126.126953 L107.214844,126.126953 L107.214844,126.830078 L106.3125,126.830078 L106.3125,122.541016 Z M102.152344,120.912109 C103.300787,119.208976 104.16406,117.326182 104.742188,115.263672 L105.65625,115.521484 C105.316405,116.572271 104.945315,117.541011 104.542969,118.427734 L104.542969,126.830078 L103.675781,126.830078 L103.675781,120.144531 C103.316404,120.773441 102.937502,121.349607 102.539062,121.873047 C102.414062,121.54492 102.285157,121.224611 102.152344,120.912109 Z M112.078125,123.337891 L107.214844,123.337891 L107.214844,125.330078 L112.078125,125.330078 L112.078125,123.337891 Z M105.539062,116.845703 L109.365234,116.845703 C109.130858,116.443357 108.88672,116.044924 108.632812,115.650391 L109.417969,115.240234 C109.69922,115.662111 109.976561,116.10742 110.25,116.576172 L109.740234,116.845703 L113.789062,116.845703 L113.789062,117.666016 L105.539062,117.666016 L105.539062,116.845703 Z M106.183594,118.755859 L113.097656,118.755859 L113.097656,119.552734 L106.183594,119.552734 L106.183594,118.755859 Z M106.183594,120.642578 L113.097656,120.642578 L113.097656,121.439453 L106.183594,121.439453 L106.183594,120.642578 Z M115.710938,116.400391 L118.576172,116.400391 C118.744141,115.98242 118.882812,115.58008 118.992188,115.193359 L119.90625,115.439453 C119.777343,115.771486 119.642579,116.091795 119.501953,116.400391 L124.171875,116.400391 L124.171875,122.798828 L123.269531,122.798828 L123.269531,122.435547 L116.613281,122.435547 L116.613281,122.798828 L115.710938,122.798828 L115.710938,116.400391 Z M116.941406,123.244141 L117.832031,123.244141 L117.832031,124.966797 C117.832031,125.451174 118.089841,125.693359 118.605469,125.693359 L121.207031,125.693359 C121.832034,125.693359 122.195312,125.478518 122.296875,125.048828 C122.375,124.767577 122.453125,124.3418 122.53125,123.771484 C122.820314,123.888672 123.124998,124.001953 123.445312,124.111328 C123.351562,124.650393 123.257813,125.083983 123.164062,125.412109 C122.984374,126.154301 122.402349,126.525391 121.417969,126.525391 L118.464844,126.525391 C117.449214,126.525391 116.941406,126.04102 116.941406,125.072266 L116.941406,123.244141 Z M116.613281,119.904297 L123.269531,119.904297 L123.269531,118.919922 L116.613281,118.919922 L116.613281,119.904297 Z M116.613281,121.638672 L123.269531,121.638672 L123.269531,120.654297 L116.613281,120.654297 L116.613281,121.638672 Z M123.269531,117.197266 L116.613281,117.197266 L116.613281,118.169922 L123.269531,118.169922 L123.269531,117.197266 Z M115.195312,123.126953 L116.050781,123.419922 C115.70703,124.357427 115.347658,125.212887 114.972656,125.986328 L114.56836,125.819336 C114.423829,125.762695 114.269532,125.705078 114.105469,125.646484 C114.488283,124.966793 114.851561,124.126953 115.195312,123.126953 Z M123.597656,123.501953 L124.277344,122.974609 C124.832034,123.576175 125.398435,124.236325 125.976562,124.955078 L125.226562,125.529297 C124.69531,124.810543 124.152347,124.134769 123.597656,123.501953 Z M118.992188,123.115234 L119.625,122.576172 C120.101565,123.013674 120.624997,123.537106 121.195312,124.146484 L120.480469,124.755859 L120.062255,124.270996 C119.659423,123.811036 119.302736,123.425783 118.992188,123.115234 Z M126.363281,117.279297 L131.988281,117.279297 L131.622395,116.597004 C131.397569,116.187282 131.210938,115.86784 131.0625,115.638672 L131.964844,115.216797 L132.220052,115.623047 C132.414496,115.940754 132.657551,116.352211 132.949219,116.857422 L132.105469,117.279297 L137.613281,117.279297 L137.613281,118.146484 L135.451172,118.146484 C135.033201,120.376964 134.134773,122.169915 132.755859,123.525391 C133.794927,124.283207 135.445301,124.962888 137.707031,125.564453 C137.347654,125.970705 137.07422,126.310546 136.886719,126.583984 C134.683583,125.822262 133.056646,125.025395 132.005859,124.193359 C130.951167,125.013676 129.265637,125.841793 126.949219,126.677734 L126.621094,126.244141 C126.503907,126.091797 126.378907,125.931641 126.246094,125.763672 C128.48048,125.091794 130.162104,124.343754 131.291016,123.519531 C129.865227,121.996086 128.958986,120.205088 128.572266,118.146484 L126.363281,118.146484 L126.363281,117.279297 Z M134.449219,118.146484 L129.509766,118.146484 C129.86133,120.068369 130.701165,121.656244 132.029297,122.910156 C133.298834,121.730463 134.105467,120.142588 134.449219,118.146484 Z M149.847656,125.599609 C149.58203,125.912111 149.35547,126.205077 149.167969,126.478516 C147.105458,125.861325 145.523443,125.105473 144.421875,124.210938 L144.421875,126.853516 L143.578125,126.853516 L143.578125,124.228516 C142.394525,125.064457 140.820322,125.818356 138.855469,126.490234 C138.675781,126.263671 138.44922,125.998048 138.175781,125.693359 C140.191416,125.189451 141.787103,124.568363 142.962891,123.830078 L138.445312,123.830078 L138.445312,123.044922 L143.578125,123.044922 L143.578125,122.083984 L144.421875,122.083984 L144.421875,123.044922 L149.625,123.044922 L149.625,123.830078 L145.060547,123.830078 C146.294928,124.662114 147.890615,125.251951 149.847656,125.599609 Z M138.785156,116.353516 L143.695312,116.353516 C143.546874,116.083983 143.375001,115.806642 143.179688,115.521484 L144.011719,115.146484 C144.265626,115.544924 144.505858,115.947264 144.732422,116.353516 L149.203125,116.353516 L149.203125,118.123047 L148.3125,118.123047 L148.3125,117.126953 L139.675781,117.126953 L139.675781,118.123047 L138.785156,118.123047 L138.785156,116.353516 Z" id="提示信息文案" fill="#5A6677" fill-rule="nonzero"></path>
            <path d="M142.710938,117.431641 L143.660156,117.701172 C143.449218,117.982423 143.224611,118.26367 142.986328,118.544922 L149.53125,118.544922 L149.53125,119.318359 L147.011719,119.318359 C146.640623,119.978519 146.138675,120.51367 145.505859,120.923828 L146.813673,121.269766 C147.451172,121.439922 148.06406,121.605859 148.652344,121.767578 L148.277344,122.552734 C147.039056,122.162107 145.779303,121.789064 144.498047,121.433594 C143.310541,121.902346 141.519543,122.287108 139.125,122.587891 C139.03125,122.337889 138.917969,122.080079 138.785156,121.814453 L139.62461,121.712937 C141.10945,121.522501 142.29642,121.308294 143.185547,121.070312 C142.248042,120.820311 141.300786,120.576173 140.34375,120.337891 C140.664064,119.994139 140.96875,119.654299 141.257812,119.318359 L138.46875,119.318359 L138.46875,118.544922 L141.890625,118.544922 C142.187501,118.16992 142.460936,117.79883 142.710938,117.431641 Z M146.033203,119.318359 L142.300781,119.318359 C142.101562,119.533204 141.894532,119.748046 141.679688,119.962891 C142.156252,120.080079 142.623048,120.195801 143.080078,120.310059 L143.080078,120.310059 L144.421875,120.648438 C145.109378,120.343748 145.646482,119.900394 146.033203,119.318359 L146.033203,119.318359 Z" id="形状结合" fill="#5A6677" fill-rule="nonzero"></path>
            <text id="样式二" font-family="MicrosoftYaHei, Microsoft YaHei" font-size="12" font-weight="normal" line-spacing="22" fill="#525A6E">
                <tspan x="8" y="27">样式二</tspan>
            </text>
        </g>
    </g>
</svg>