<?xml version="1.0" encoding="UTF-8"?>
<svg width="494px" height="52px" viewBox="0 0 494 52" version="1.1" xmlns="http://www.w3.org/2000/svg" xmlns:xlink="http://www.w3.org/1999/xlink">
    <!-- Generator: Sketch 58 (84663) - https://sketch.com -->
    <title>checkbox/checkbox/style2</title>
    <desc>Created with Sketch.</desc>
    <g id="页面-1" stroke="none" stroke-width="1" fill="none" fill-rule="evenodd">
        <g id="编组-52备份-2" transform="translate(-506.000000, -78.000000)">
            <g id="checkbox/checkbox/style2" transform="translate(506.000000, 78.000000)">
                <g id="编组-56">
                    <rect id="矩形" fill-opacity="0.01" fill="#FAFAFA" x="0" y="0" width="494" height="52"></rect>
                    <path d="M83.1523438,24.8398438 L87.03125,24.8398438 L87.03125,22.8828125 L85.0566406,22.8828125 C84.8222645,23.4765655 84.5781263,24.0078102 84.3242188,24.4765625 C84.1210927,24.3437493 83.847658,24.2031257 83.5039062,24.0546875 C84.1132843,22.9843696 84.5664048,21.7968815 84.8632812,20.4921875 L85.7773438,20.6914062 C85.6406243,21.1796899 85.4980476,21.6406228 85.3496094,22.0742188 L87.03125,22.0742188 L87.03125,20.0351562 L87.9453125,20.0351562 L87.9453125,22.0742188 L91.0039062,22.0742188 L91.0039062,22.8828125 L87.9453125,22.8828125 L87.9453125,24.8398438 L91.5664062,24.8398438 L91.5664062,25.6484375 L88.8007812,25.6484375 L88.8007812,28.15625 C88.8007812,28.5703146 88.9726545,28.7773438 89.3164062,28.7773438 L89.8789062,28.7773438 C90.238283,28.7773438 90.4453122,28.5898456 90.5,28.2148438 C90.5468752,27.9101547 90.5898436,27.4492218 90.6289062,26.8320312 C90.871095,26.9414068 91.167967,27.0546869 91.5195312,27.171875 C91.4570309,27.7109402 91.3906254,28.1640607 91.3203125,28.53125 C91.1953119,29.226566 90.7500038,29.5742188 89.984375,29.5742188 L89.1171875,29.5742188 C88.3046834,29.5742188 87.8984375,29.1328169 87.8984375,28.25 L87.8984375,25.6484375 L86.3222656,25.6484375 L86.3120117,26.1523439 C86.3095703,26.2314453 86.3067627,26.3081052 86.3035889,26.3823239 L86.2929688,26.5976562 C86.2460935,28.0586011 85.4257892,29.1406215 83.8320312,29.84375 C83.6757805,29.6171864 83.4804699,29.3554702 83.2460938,29.0585938 C84.6211006,28.4882784 85.3359372,27.6679741 85.390625,26.5976562 L85.4084375,26.2770313 C85.416875,26.0970318 85.4246093,25.8875012 85.4316406,25.6484375 L83.1523438,25.6484375 L83.1523438,24.8398438 Z M84.9101562,30.3710938 L87.359375,30.3945312 L91.671875,30.3125 L91.5575,30.64625 C91.4946877,30.8253121 91.4234379,31.0226552 91.34375,31.2382812 L87.2597656,31.2851562 L84.8046875,31.25 C83.3984305,31.2031248 82.4257839,30.7304732 81.8867188,29.8320312 C81.5664046,30.1289077 81.0976593,30.65234 80.4804688,31.4023438 L80,30.4296875 L81.5,28.9941406 L81.5,28.9941406 L81.5,25.0507812 L80.1054688,25.0507812 L80.1054688,24.1835938 L82.4023438,24.1835938 L82.4023438,29.1933594 C82.8828149,29.9628945 83.718744,30.3554687 84.9101562,30.3710938 Z M80.7148438,20.75 L81.4648438,20.2460938 L81.6968948,20.5354796 C82.0670522,21.0073284 82.5365739,21.6491437 83.1054688,22.4609375 L82.2734375,23.046875 L81.7344912,22.2150764 C81.3391009,21.6157018 80.9992202,21.1273456 80.7148438,20.75 Z M98.3632812,20 L98.3632812,22.5546875 L102.921875,22.5546875 L102.921875,27.8984375 L101.960938,27.8984375 L101.960938,27.265625 L98.3632812,27.265625 L98.3632812,31.625 L97.3554688,31.625 L97.3554688,27.265625 L93.8046875,27.265625 L93.8046875,27.8984375 L92.84375,27.8984375 L92.84375,22.5546875 L97.3554688,22.5546875 L97.3554688,20 L98.3632812,20 Z M101.960938,23.421875 L98.3632812,23.421875 L98.3632812,26.3984375 L101.960938,26.3984375 L101.960938,23.421875 Z M97.3554688,23.421875 L93.8046875,23.421875 L93.8046875,26.3984375 L97.3554688,26.3984375 L97.3554688,23.421875 Z" id="选中" fill="#6A6A6A" fill-rule="nonzero"></path>
                    <path d="M158.707031,29.7617188 C158.48828,30.0273451 158.269532,30.3164047 158.050781,30.6289062 C155.992177,29.6015574 154.410162,28.2734456 153.304688,26.6445312 L153.304688,31.5429688 L152.390625,31.5429688 L152.390625,26.65625 C151.203119,28.2304766 149.617197,29.6015567 147.632812,30.7695312 C147.484374,30.5585927 147.273439,30.2968766 147,29.984375 C149.121104,28.8710882 150.796869,27.5312578 152.027344,25.9648438 L147.1875,25.9648438 L147.1875,25.0976562 L152.390625,25.0976562 L152.390625,22.8945312 L147.878906,22.8945312 L147.878906,22.0273438 L152.390625,22.0273438 L152.390625,20.0234375 L153.304688,20.0234375 L153.304688,22.0273438 L157.863281,22.0273438 L157.863281,22.8945312 L153.304688,22.8945312 L153.304688,25.0976562 L158.507812,25.0976562 L158.507812,25.9648438 L153.632812,25.9648438 C154.890631,27.6445396 156.582021,28.910152 158.707031,29.7617188 Z M162.140625,24.8398438 L166.019531,24.8398438 L166.019531,22.8828125 L164.044922,22.8828125 C163.810546,23.4765655 163.566408,24.0078102 163.3125,24.4765625 C163.109374,24.3437493 162.835939,24.2031257 162.492188,24.0546875 C163.101566,22.9843696 163.554686,21.7968815 163.851562,20.4921875 L164.765625,20.6914062 C164.628906,21.1796899 164.486329,21.6406228 164.337891,22.0742188 L166.019531,22.0742188 L166.019531,20.0351562 L166.933594,20.0351562 L166.933594,22.0742188 L169.992188,22.0742188 L169.992188,22.8828125 L166.933594,22.8828125 L166.933594,24.8398438 L170.554688,24.8398438 L170.554688,25.6484375 L167.789062,25.6484375 L167.789062,28.15625 C167.789062,28.5703146 167.960936,28.7773438 168.304688,28.7773438 L168.867188,28.7773438 C169.226564,28.7773438 169.433593,28.5898456 169.488281,28.2148438 C169.535156,27.9101547 169.578125,27.4492218 169.617188,26.8320312 C169.859376,26.9414068 170.156248,27.0546869 170.507812,27.171875 C170.445312,27.7109402 170.378907,28.1640607 170.308594,28.53125 C170.183593,29.226566 169.738285,29.5742188 168.972656,29.5742188 L168.105469,29.5742188 C167.292965,29.5742188 166.886719,29.1328169 166.886719,28.25 L166.886719,25.6484375 L165.310547,25.6484375 L165.300293,26.1523439 C165.297852,26.2314453 165.295044,26.3081052 165.29187,26.3823239 L165.28125,26.5976562 C165.234375,28.0586011 164.41407,29.1406215 162.820312,29.84375 C162.664062,29.6171864 162.468751,29.3554702 162.234375,29.0585938 C163.609382,28.4882784 164.324218,27.6679741 164.378906,26.5976562 L164.396719,26.2770313 C164.405156,26.0970318 164.412891,25.8875012 164.419922,25.6484375 L162.140625,25.6484375 L162.140625,24.8398438 Z M163.898438,30.3710938 L166.347656,30.3945312 L170.660156,30.3125 L170.545781,30.64625 C170.482969,30.8253121 170.411719,31.0226552 170.332031,31.2382812 L166.248047,31.2851562 L163.792969,31.25 C162.386712,31.2031248 161.414065,30.7304732 160.875,29.8320312 C160.554686,30.1289077 160.085941,30.65234 159.46875,31.4023438 L158.988281,30.4296875 L160.488281,28.9941406 L160.488281,28.9941406 L160.488281,25.0507812 L159.09375,25.0507812 L159.09375,24.1835938 L161.390625,24.1835938 L161.390625,29.1933594 C161.871096,29.9628945 162.707025,30.3554687 163.898438,30.3710938 Z M159.703125,20.75 L160.453125,20.2460938 L160.685176,20.5354796 C161.055333,21.0073284 161.524855,21.6491437 162.09375,22.4609375 L161.261719,23.046875 L160.722772,22.2150764 C160.327382,21.6157018 159.987501,21.1273456 159.703125,20.75 Z M177.351562,20 L177.351562,22.5546875 L181.910156,22.5546875 L181.910156,27.8984375 L180.949219,27.8984375 L180.949219,27.265625 L177.351562,27.265625 L177.351562,31.625 L176.34375,31.625 L176.34375,27.265625 L172.792969,27.265625 L172.792969,27.8984375 L171.832031,27.8984375 L171.832031,22.5546875 L176.34375,22.5546875 L176.34375,20 L177.351562,20 Z M180.949219,23.421875 L177.351562,23.421875 L177.351562,26.3984375 L180.949219,26.3984375 L180.949219,23.421875 Z M176.34375,23.421875 L172.792969,23.421875 L172.792969,26.3984375 L176.34375,26.3984375 L176.34375,23.421875 Z" id="未选中" fill="#6A6A6A" fill-rule="nonzero"></path>
                    <rect id="outline" stroke="#DBDFE6" fill-rule="nonzero" x="128.5" y="19.5" width="13" height="13" rx="2"></rect>
                    <path d="M226.351562,21.0195312 L237.519531,21.0195312 L237.519531,21.9335938 L233.207031,21.9335938 C232.832029,22.5820345 232.332034,23.351558 231.707031,24.2421875 L232.386719,24.2421875 L232.386719,31.5898438 L231.378906,31.5898438 L231.378906,24.6054688 C230.042962,26.2539145 228.468759,27.6601504 226.65625,28.8242188 C226.460937,28.5429673 226.242189,28.2617202 226,27.9804688 C228.46095,26.4413986 230.445305,24.4257937 231.953125,21.9335938 L226.351562,21.9335938 L226.351562,21.0195312 Z M233.558594,24.6054688 C235.019539,25.4960982 236.429681,26.4023391 237.789062,27.3242188 L237.121094,28.25 C235.511711,27.0546815 234.132818,26.1054688 232.984375,25.4023438 L233.558594,24.6054688 Z M239.453125,23.5742188 L244.621094,23.5742188 L244.621094,28.203125 L240.378906,28.203125 L240.378906,29.0351562 L239.453125,29.0351562 L239.453125,23.5742188 Z M238.152344,20.9492188 L249.730469,20.9492188 L249.730469,21.8398438 L247.785156,21.8398438 L247.785156,29.7734375 C247.785156,30.8281303 247.273443,31.359375 246.25,31.3671875 C245.515621,31.3671875 244.800785,31.3632813 244.105469,31.3554688 C244.066406,30.996092 244.003907,30.6406268 243.917969,30.2890625 L244.73047,30.341146 C245.225261,30.3689238 245.626301,30.3828125 245.933594,30.3828125 C246.511722,30.3828125 246.800781,30.0703156 246.800781,29.4453125 L246.800781,21.8398438 L238.152344,21.8398438 L238.152344,20.9492188 Z M243.695312,24.40625 L240.378906,24.40625 L240.378906,27.3710938 L243.695312,27.3710938 L243.695312,24.40625 Z M253.222656,24.8046875 L257.101562,24.8046875 L257.101562,22.8476562 L255.126953,22.8476562 C254.892577,23.4414092 254.648439,23.9726539 254.394531,24.4414062 C254.191405,24.3085931 253.91797,24.1679695 253.574219,24.0195312 C254.183597,22.9492134 254.636717,21.7617253 254.933594,20.4570312 L255.847656,20.65625 C255.710937,21.1445337 255.56836,21.6054666 255.419922,22.0390625 L257.101562,22.0390625 L257.101562,20 L258.015625,20 L258.015625,22.0390625 L261.074219,22.0390625 L261.074219,22.8476562 L258.015625,22.8476562 L258.015625,24.8046875 L261.636719,24.8046875 L261.636719,25.6132812 L258.871094,25.6132812 L258.871094,28.1210938 C258.871094,28.5351583 259.042967,28.7421875 259.386719,28.7421875 L259.949219,28.7421875 C260.308596,28.7421875 260.515625,28.5546894 260.570312,28.1796875 C260.617188,27.8749985 260.660156,27.4140656 260.699219,26.796875 C260.941407,26.9062505 261.238279,27.0195307 261.589844,27.1367188 C261.527343,27.6757839 261.460938,28.1289044 261.390625,28.4960938 C261.265624,29.1914097 260.820316,29.5390625 260.054688,29.5390625 L259.1875,29.5390625 C258.374996,29.5390625 257.96875,29.0976607 257.96875,28.2148438 L257.96875,25.6132812 L256.392578,25.6132812 L256.382324,26.1171876 C256.379883,26.196289 256.377075,26.272949 256.373901,26.3471676 L256.363281,26.5625 C256.316406,28.0234448 255.496102,29.1054652 253.902344,29.8085938 C253.746093,29.5820301 253.550782,29.320314 253.316406,29.0234375 C254.691413,28.4531221 255.40625,27.6328179 255.460938,26.5625 L255.47875,26.2418751 C255.487188,26.0618755 255.494922,25.8523449 255.501953,25.6132812 L253.222656,25.6132812 L253.222656,24.8046875 Z M254.980469,30.3359375 L257.429688,30.359375 L261.742188,30.2773438 L261.627813,30.6110938 C261.565,30.7901559 261.49375,30.9874989 261.414062,31.203125 L257.330078,31.25 L254.875,31.2148438 C253.468743,31.1679685 252.496096,30.695317 251.957031,29.796875 C251.636717,30.0937515 251.167972,30.6171838 250.550781,31.3671875 L250.070312,30.3945312 L251.570312,28.9589844 L251.570312,28.9589844 L251.570312,25.015625 L250.175781,25.015625 L250.175781,24.1484375 L252.472656,24.1484375 L252.472656,29.1582031 C252.953127,29.9277382 253.789057,30.3203124 254.980469,30.3359375 Z M250.785156,20.7148438 L251.535156,20.2109375 L251.767207,20.5003233 C252.137365,20.9721721 252.606886,21.6139874 253.175781,22.4257812 L252.34375,23.0117188 L251.804804,22.1799202 C251.409413,21.5805456 251.069533,21.0921894 250.785156,20.7148438 Z" id="不可选" fill="#AAADBA" fill-rule="nonzero"></path>
                    <rect id="outline" stroke="#DBDFE6" fill-rule="nonzero" x="207.5" y="19.5" width="13" height="13" rx="2"></rect>
                    <g id="checked-" transform="translate(61.000000, 19.000000)">
                        <g id="icon/z/checkboxChecked-Copy" fill-rule="nonzero" stroke="#437CEF">
                            <rect id="box" x="0" y="0" width="14" height="14" rx="2"></rect>
                        </g>
                        <g id="check" transform="translate(2.625000, 2.625000)">
                            <rect id="Rectangle" fill="#618FE8" opacity="0" x="0" y="0" width="8.75" height="8.75"></rect>
                            <path d="M8.28125,1.23046875 L7.59863281,1.23046875 C7.50292969,1.23046875 7.41210938,1.27441406 7.35351563,1.34960938 L3.32714844,6.45019531 L1.39648438,4.00390625 C1.33691406,3.92871094 1.24707031,3.88476562 1.15136719,3.88476562 L0.46875,3.88476562 C0.403320313,3.88476562 0.3671875,3.95996094 0.407226563,4.01074219 L3.08203125,7.39941406 C3.20703125,7.55761719 3.44726563,7.55761719 3.57324219,7.39941406 L8.34277344,1.35546875 C8.3828125,1.30566406 8.34667969,1.23046875 8.28125,1.23046875 Z" id="Path" stroke="#4F7DE7" stroke-width="0.833333333" fill="#4F7DE7"></path>
                        </g>
                    </g>
                    <path d="M12.03125,27.7558594 L15.4648438,27.7558594 L15.4648438,25.8339844 L12.9101562,25.8339844 L12.9101562,25.0136719 L15.4648438,25.0136719 L15.4648438,23.1738281 L12.640625,23.1738281 L12.640625,22.3535156 L16.2617188,22.3535156 C16.9101595,21.4160109 17.3984359,20.6425812 17.7265625,20.0332031 L18.59375,20.5839844 C18.187498,21.1386746 17.7382837,21.7285125 17.2460938,22.3535156 L19.390625,22.3535156 L19.390625,23.1738281 L16.3789062,23.1738281 L16.3789062,25.0136719 L19.0625,25.0136719 L19.0625,25.8339844 L16.3789062,25.8339844 L16.3789062,27.7558594 L19.765625,27.7558594 L19.765625,28.5761719 L16.3789062,28.5761719 L16.3789062,31.6347656 L15.4648438,31.6347656 L15.4648438,28.5761719 L12.03125,28.5761719 L12.03125,27.7558594 Z M8.17578125,27.4042969 C8.93359754,26.2402286 9.52343539,24.8535237 9.9453125,23.2441406 L8.3046875,23.2441406 L8.3046875,22.4589844 L10.0390625,22.4589844 L10.0390625,20.1386719 L10.8945312,20.1386719 L10.8945312,22.4589844 L12.265625,22.4589844 L12.265625,23.2441406 L10.8945312,23.2441406 L10.8945312,25.0839844 L11.3632812,24.6621094 C11.8710963,25.1621119 12.3710913,25.6777317 12.8632812,26.2089844 L12.1953125,26.8183594 L11.5540616,26.0908583 C11.2737496,25.7758588 11.053907,25.5339852 10.8945312,25.3652344 L10.8945312,31.6347656 L10.0390625,31.6347656 L10.0390625,25.2011719 C9.61718539,26.4668032 9.13672145,27.5410112 8.59765625,28.4238281 C8.48046816,28.0878889 8.33984457,27.7480486 8.17578125,27.4042969 Z M13.3085938,20.5371094 L14,20.0214844 L14.3854178,20.4613004 C14.8046889,20.9467366 15.1176205,21.335285 15.3242188,21.6269531 L14.5273438,22.1777344 C14.0664039,21.5136686 13.660158,20.966799 13.3085938,20.5371094 Z M20.1757812,22.2714844 L26.6914062,22.2714844 C26.6601561,21.5488245 26.6367188,20.7832072 26.6210938,19.9746094 L27.6171875,19.9746094 C27.6132812,20.7480507 27.6249999,21.5136681 27.6523438,22.2714844 L31.6835938,22.2714844 L31.6835938,23.1503906 L27.6933594,23.1503906 C27.8457039,27.0879103 28.5039004,29.4785114 29.6679688,30.3222656 C30.0898459,30.6660173 30.3867179,30.5722683 30.5585938,30.0410156 C30.6757812,29.6347636 30.7812495,29.0332071 30.875,28.2363281 C31.2421893,28.3691413 31.5585924,28.4707028 31.8242188,28.5410156 C31.6757812,29.4550827 31.5156259,30.1933566 31.34375,30.7558594 C31.1562491,31.2949246 30.7968777,31.5644531 30.265625,31.5644531 C29.7265598,31.5644531 29.1914089,31.2910184 28.6601562,30.7441406 C27.5429632,29.5566347 26.9042977,27.02541 26.7441406,23.1503906 L20.1757812,23.1503906 L20.1757812,22.2714844 Z M20.2226562,29.7011719 C21.1054732,29.5957026 22.0117141,29.4804694 22.9414062,29.3554688 L22.9414062,26.0683594 L20.65625,26.0683594 L20.65625,25.1894531 L26.1640625,25.1894531 L26.1640625,26.0683594 L23.9023438,26.0683594 L23.9023438,29.2207031 C24.8125046,29.0917962 25.746089,28.9550788 26.703125,28.8105469 C26.6874999,29.1152359 26.6796875,29.431639 26.6796875,29.7597656 L23.990935,30.1497659 C22.7131251,30.3382031 21.5351616,30.516796 20.4570312,30.6855469 L20.2226562,29.7011719 Z M28.5195312,20.6660156 L29.0820312,20.0683594 C29.6445341,20.4746114 30.2148409,20.9355443 30.7929688,21.4511719 L30.125,22.1425781 C29.6249975,21.6347631 29.0898466,21.1425805 28.5195312,20.6660156 Z M33.21875,21.5332031 L42.78125,21.5332031 L42.78125,22.5410156 L33.21875,22.5410156 L33.21875,21.5332031 Z M32.3515625,29.2089844 L43.6132812,29.2089844 L43.6132812,30.1933594 L32.3515625,30.1933594 L32.3515625,29.2089844 Z" id="样式二" fill="#525A6E" fill-rule="nonzero"></path>
                </g>
            </g>
        </g>
    </g>
</svg>