<?xml version="1.0" encoding="UTF-8"?>
<svg width="494px" height="68px" viewBox="0 0 494 68" version="1.1" xmlns="http://www.w3.org/2000/svg" xmlns:xlink="http://www.w3.org/1999/xlink">
    <!-- Generator: Sketch 58 (84663) - https://sketch.com -->
    <title>password-input/style3</title>
    <desc>Created with Sketch.</desc>
    <g id="页面-1" stroke="none" stroke-width="1" fill="none" fill-rule="evenodd">
        <g id="password-input/style3">
            <rect id="矩形备份" fill-opacity="0.01" fill="#F6F6F6" x="0" y="0" width="494" height="68"></rect>
            <rect id="矩形" fill="#D9D9D9" x="52" y="47" width="177" height="1"></rect>
            <rect id="矩形" fill="#D9D9D9" x="253" y="47" width="177" height="1"></rect>
            <g id="eye" transform="translate(420.000000, 27.000000)">
                <rect id="矩形" fill="#D8D8D8" opacity="0.01" x="0" y="0" width="10" height="10"></rect>
                <path d="M5,2 C6.84094917,2 8.50761583,3 10,5 C8.50761583,7 6.84094917,8 5,8 C3.15905083,8 1.49321344,6.968151 0.0024878047,4.90445299 C1.52873372,2.968151 3.19457112,2 5,2 Z M5,3 C3.8954305,3 3,3.8954305 3,5 C3,6.1045695 3.8954305,7 5,7 C6.1045695,7 7,6.1045695 7,5 C7,3.8954305 6.1045695,3 5,3 Z M5,4 C5.55228475,4 6,4.44771525 6,5 C6,5.55228475 5.55228475,6 5,6 C4.44771525,6 4,5.55228475 4,5 C4,4.44771525 4.44771525,4 5,4 Z" id="椭圆形-2" fill="#333333"></path>
            </g>
            <path d="M263.353516,38 L262.205078,38 L262.205078,34.2792969 C262.205078,33.5761684 262.095704,33.0732437 261.876953,32.7705078 C261.658202,32.4677719 261.298831,32.3164062 260.798828,32.3164062 C260.376951,32.3164062 260.015627,32.5136699 259.714844,32.9082031 C259.414061,33.3027363 259.263672,33.7695286 259.263672,34.3085938 L259.263672,38 L258.115234,38 L258.115234,34.1621094 C258.115234,32.9316345 257.64063,32.3164062 256.691406,32.3164062 C256.253904,32.3164062 255.891603,32.5039044 255.604492,32.8789062 C255.317381,33.2539081 255.173828,33.732419 255.173828,34.3144531 L255.173828,38 L254.025391,38 L254.025391,31.5195312 L255.173828,31.5195312 L255.173828,32.5449219 L255.197266,32.5449219 C255.658205,31.7597617 256.332027,31.3671875 257.21875,31.3671875 C257.652346,31.3671875 258.035155,31.4863269 258.367188,31.7246094 C258.69922,31.9628918 258.929687,32.2851542 259.058594,32.6914062 C259.539065,31.8085893 260.257808,31.3671875 261.214844,31.3671875 C262.640632,31.3671875 263.353516,32.246085 263.353516,34.0039062 L263.353516,38 Z M265.128906,29.234375 C265.128906,29.031249 265.198241,28.8603523 265.336914,28.7216797 C265.475587,28.5830071 265.646483,28.5136719 265.849609,28.5136719 C266.056642,28.5136719 266.231445,28.5820306 266.374023,28.71875 C266.516602,28.8554694 266.587891,29.0273427 266.587891,29.234375 C266.587891,29.437501 266.516602,29.6064446 266.374023,29.7412109 C266.231445,29.8759772 266.056642,29.9433594 265.849609,29.9433594 C265.642577,29.9433594 265.470704,29.8759772 265.333984,29.7412109 C265.197265,29.6064446 265.128906,29.437501 265.128906,29.234375 Z M265.263672,38 L265.263672,31.5195312 L266.412109,31.5195312 L266.412109,38 L265.263672,38 Z M277.791016,38 L276.642578,38 L276.642578,34.2792969 C276.642578,33.5761684 276.533204,33.0732437 276.314453,32.7705078 C276.095702,32.4677719 275.736331,32.3164062 275.236328,32.3164062 C274.814451,32.3164062 274.453127,32.5136699 274.152344,32.9082031 C273.851561,33.3027363 273.701172,33.7695286 273.701172,34.3085938 L273.701172,38 L272.552734,38 L272.552734,34.1621094 C272.552734,32.9316345 272.07813,32.3164062 271.128906,32.3164062 C270.691404,32.3164062 270.329103,32.5039044 270.041992,32.8789062 C269.754881,33.2539081 269.611328,33.732419 269.611328,34.3144531 L269.611328,38 L268.462891,38 L268.462891,31.5195312 L269.611328,31.5195312 L269.611328,32.5449219 L269.634766,32.5449219 C270.095705,31.7597617 270.769527,31.3671875 271.65625,31.3671875 C272.089846,31.3671875 272.472655,31.4863269 272.804688,31.7246094 C273.13672,31.9628918 273.367187,32.2851542 273.496094,32.6914062 C273.976565,31.8085893 274.695308,31.3671875 275.652344,31.3671875 C277.078132,31.3671875 277.791016,32.246085 277.791016,34.0039062 L277.791016,38 Z M279.859375,31.9707031 C280.503909,31.5683574 281.248043,31.3671875 282.091797,31.3671875 C283.654305,31.3671875 284.435547,32.1874918 284.435547,33.828125 L284.435547,38 L283.298828,38 L283.298828,36.9980469 L283.269531,36.9980469 C282.82031,37.767582 282.158208,38.1523438 281.283203,38.1523438 C280.654294,38.1523438 280.154299,37.9824236 279.783203,37.6425781 C279.412108,37.3027327 279.226562,36.8437529 279.226562,36.265625 C279.226562,35.0546814 279.943352,34.3496104 281.376953,34.1503906 L283.298828,33.8808594 C283.298828,32.8222603 282.861333,32.2929688 281.986328,32.2929688 C281.20898,32.2929688 280.500003,32.5546849 279.859375,33.078125 L279.859375,31.9707031 Z M281.78125,34.953125 C281.249997,35.0234379 280.88379,35.156249 280.682617,35.3515625 C280.481444,35.546876 280.380859,35.8203107 280.380859,36.171875 C280.380859,36.4804703 280.490233,36.7324209 280.708984,36.9277344 C280.927735,37.1230479 281.216795,37.2207031 281.576172,37.2207031 C282.076174,37.2207031 282.48828,37.0449236 282.8125,36.6933594 C283.13672,36.3417951 283.298828,35.9003933 283.298828,35.3691406 L283.298828,34.7480469 L281.78125,34.953125 Z M291.625,38 L286.421875,38 L286.421875,37.0097656 L288.455078,37.0097656 L288.455078,30.1191406 L286.369141,30.7226562 L286.369141,29.6679688 L289.597656,28.7304688 L289.597656,37.0097656 L291.625,37.0097656 L291.625,38 Z M298.492188,38 L292.972656,38 L292.972656,37.0039062 L295.609375,34.3730469 C296.335941,33.6464807 296.822264,33.0712912 297.068359,32.6474609 C297.314454,32.2236307 297.4375,31.7851585 297.4375,31.3320312 C297.4375,30.8164037 297.29297,30.4208998 297.003906,30.1455078 C296.714842,29.8701158 296.296878,29.7324219 295.75,29.7324219 C294.941402,29.7324219 294.169926,30.0761684 293.435547,30.7636719 L293.435547,29.5976562 C294.150394,29.0468722 294.982417,28.7714844 295.931641,28.7714844 C296.748051,28.7714844 297.392576,28.9921853 297.865234,29.4335938 C298.337893,29.8750022 298.574219,30.4687463 298.574219,31.2148438 C298.574219,31.7773466 298.422853,32.3290989 298.120117,32.8701172 C297.817381,33.4111355 297.244145,34.0996052 296.400391,34.9355469 L294.332031,36.9570312 L294.332031,36.9804688 L298.492188,36.9804688 L298.492188,38 Z M300.226562,36.4824219 C300.847659,36.962893 301.548824,37.203125 302.330078,37.203125 C302.955081,37.203125 303.450193,37.0498062 303.81543,36.7431641 C304.180666,36.4365219 304.363281,36.0253932 304.363281,35.5097656 C304.363281,34.3613224 303.541024,33.7871094 301.896484,33.7871094 L301.140625,33.7871094 L301.140625,32.8378906 L301.861328,32.8378906 C303.318367,32.8378906 304.046875,32.2988335 304.046875,31.2207031 C304.046875,30.2246044 303.49024,29.7265625 302.376953,29.7265625 C301.740231,29.7265625 301.140628,29.9414041 300.578125,30.3710938 L300.578125,29.2871094 C301.171878,28.9433577 301.86523,28.7714844 302.658203,28.7714844 C303.431644,28.7714844 304.052732,28.9736308 304.521484,29.3779297 C304.990237,29.7822286 305.224609,30.3066374 305.224609,30.9511719 C305.224609,32.1386778 304.619147,32.9023421 303.408203,33.2421875 L303.408203,33.265625 C304.064456,33.3359379 304.583006,33.5673808 304.963867,33.9599609 C305.344728,34.352541 305.535156,34.8417939 305.535156,35.4277344 C305.535156,36.2441447 305.241214,36.9023412 304.65332,37.4023438 C304.065427,37.9023463 303.283208,38.1523438 302.306641,38.1523438 C301.447261,38.1523438 300.753909,37.9921891 300.226562,37.671875 L300.226562,36.4824219 Z M311.875,28.9238281 L311.875,34.7363281 L313.035156,34.7363281 L313.035156,35.6445312 L311.875,35.6445312 L311.875,38 L310.761719,38 L310.761719,35.6445312 L306.53125,35.6445312 L306.53125,34.9003906 L310.544922,28.9238281 L311.875,28.9238281 Z M310.785156,30.0019531 L310.761719,30.0019531 C310.72526,30.100912 310.661893,30.2371958 310.571615,30.4108068 L310.571615,30.4108068 L310.416016,30.6992188 L307.714844,34.7363281 L310.761719,34.7363281 L310.761719,30.9335938 C310.761719,30.6640612 310.769531,30.3535174 310.785156,30.0019531 L310.785156,30.0019531 Z" id="mima1234" fill="#333333" fill-rule="nonzero"></path>
            <g id="noeye" transform="translate(219.000000, 27.000000)">
                <rect id="矩形备份-6" fill="#D8D8D8" opacity="0.01" x="0" y="0" width="10" height="10"></rect>
                <path d="M1.53775278,0.972453964 L1.60767966,1.02948689 L3.02153344,2.41111138 C3.02186796,2.41096806 3.02220248,2.41082479 3.02253701,2.41068155 L3.93855138,3.30459791 L3.9374878,3.30519423 L4.69816181,4.04635953 C4.79339971,4.01624364 4.8948029,4 5,4 C5.55228475,4 6,4.44771525 6,5 C6,5.09679594 5.98624723,5.19037975 5.9605891,5.27890402 L6.71979967,6.0215323 L6.8034878,6.10319423 L9.33178806,8.57312355 C9.50739378,8.74462629 9.52986208,9.01380393 9.39717873,9.21025406 L9.34014581,9.28018094 C9.16864307,9.45578666 8.89946543,9.47825496 8.7030153,9.34557161 L8.63308842,9.28853868 L6.91701142,7.61264766 C6.91667716,7.61278768 6.91634289,7.61292765 6.91600861,7.61306759 L6.0094383,6.72694137 L6.0094878,6.72619423 L5.2374589,5.97163656 C5.16134485,5.9901736 5.08181996,6 5,6 C4.44771525,6 4,5.55228475 4,5 C4,4.92668787 4.0078891,4.85521833 4.02286467,4.78639402 L3.24985201,4.03126494 L2.2324878,3.03719423 L0.908980015,1.74490202 C0.733374297,1.57339928 0.710905996,1.30422164 0.843589348,1.10777151 L0.900622272,1.03784463 C1.07212501,0.862238912 1.34130265,0.839770612 1.53775278,0.972453964 Z M1.68773672,3.20293687 L3.05356958,4.53824108 C3.01853797,4.68646805 3,4.84106914 3,5 C3,6.1045695 3.8954305,7 5,7 C5.17536834,7 5.34546497,6.97742914 5.50754337,6.93503393 L6.39220015,7.7996862 C5.9397705,7.93322873 5.47570378,8 5,8 C3.15905083,8 1.49321344,6.968151 0.0024878047,4.90445299 C0.546502447,4.21427808 1.10825209,3.64710604 1.68773672,3.20293687 Z M5,2 C6.84094917,2 8.50761583,3 10,5 C9.44247012,5.7471667 8.86061659,6.35476888 8.25443941,6.82280654 L6.92955978,5.5280239 C6.97548353,5.35981486 7,5.18277049 7,5 C7,3.8954305 6.1045695,3 5,3 C4.80060369,3 4.60802265,3.02917965 4.42629408,3.08350174 L3.54164227,2.21981832 C4.01719678,2.07327277 4.50331602,2 5,2 Z" id="椭圆形-2备份" fill="#333333"></path>
            </g>
            <g id="编组-11" transform="translate(52.000000, 30.000000)" fill="#333333">
                <circle id="椭圆形" cx="3" cy="3" r="3"></circle>
                <circle id="椭圆形" cx="17" cy="3" r="3"></circle>
                <circle id="椭圆形" cx="31" cy="3" r="3"></circle>
                <circle id="椭圆形" cx="45" cy="3" r="3"></circle>
                <circle id="椭圆形" cx="59" cy="3" r="3"></circle>
                <circle id="椭圆形" cx="73" cy="3" r="3"></circle>
                <circle id="椭圆形" cx="87" cy="3" r="3"></circle>
                <circle id="椭圆形" cx="101" cy="3" r="3"></circle>
            </g>
            <text id="样式三" font-family="MicrosoftYaHei, Microsoft YaHei" font-size="12" font-weight="normal" line-spacing="22" fill="#525A6E">
                <tspan x="8" y="33">样式三</tspan>
            </text>
        </g>
    </g>
</svg>