<?xml version="1.0" encoding="UTF-8"?>
<svg width="494px" height="300px" viewBox="0 0 494 300" version="1.1" xmlns="http://www.w3.org/2000/svg" xmlns:xlink="http://www.w3.org/1999/xlink">
    <!-- Generator: Sketch 58 (84663) - https://sketch.com -->
    <title>transfer/style1</title>
    <desc>Created with Sketch.</desc>
    <defs>
        <rect id="path-1" x="1.42108547e-14" y="0" width="188" height="270" rx="2"></rect>
        <filter x="-3.2%" y="-2.2%" width="106.4%" height="104.4%" filterUnits="objectBoundingBox" id="filter-2">
            <feOffset dx="0" dy="0" in="SourceAlpha" result="shadowOffsetOuter1"></feOffset>
            <feGaussianBlur stdDeviation="2" in="shadowOffsetOuter1" result="shadowBlurOuter1"></feGaussianBlur>
            <feComposite in="shadowBlurOuter1" in2="SourceAlpha" operator="out" result="shadowBlurOuter1"></feComposite>
            <feColorMatrix values="0 0 0 0 0.270588235   0 0 0 0 0.533333333   0 0 0 0 0.956862745  0 0 0 0.503824301 0" type="matrix" in="shadowBlurOuter1"></feColorMatrix>
        </filter>
    </defs>
    <g id="页面-1" stroke="none" stroke-width="1" fill="none" fill-rule="evenodd">
        <g id="transfer/style1">
            <rect id="矩形备份-29" fill-opacity="0.01" fill="#FAFAFA" x="0" y="0" width="494" height="300"></rect>
            <g id="编组-20" transform="translate(54.000000, 15.000000)">
                <g id="outline" fill-rule="nonzero">
                    <use fill="black" fill-opacity="1" filter="url(#filter-2)" xlink:href="#path-1"></use>
                    <rect stroke="#618FE8" stroke-width="1" stroke-linejoin="square" fill="#FFFFFF" fill-rule="evenodd" x="0.5" y="0.5" width="187" height="269" rx="2"></rect>
                </g>
                <rect id="outline备份" stroke="#DBDFE6" fill="#FFFFFF" fill-rule="nonzero" x="236.5" y="0.5" width="187" height="269" rx="2"></rect>
                <rect id="矩形" fill="#F8FAFE" x="1" y="104" width="186" height="34"></rect>
                <g id="9.Box/2.Row/1.Border.bottom" fill-rule="nonzero">
                    <rect id="BG/fill" opacity="0" x="0" y="0" width="187" height="32"></rect>
                    <rect id="divider/fill" fill="#DBDFE6" x="1" y="31" width="186" height="1"></rect>
                </g>
                <g id="9.Box/2.Row/1.Border.bottom备份" transform="translate(236.000000, 0.000000)" fill-rule="nonzero">
                    <rect id="BG/fill" opacity="0" x="0" y="0" width="188" height="32"></rect>
                    <rect id="divider/fill" fill="#DBDFE6" x="1" y="31" width="186" height="1"></rect>
                </g>
                <path d="M131.096037,17.046875 C131.123381,17.5351587 131.238614,17.9316391 131.44174,18.2363281 C131.828461,18.8066435 132.510095,19.0917969 133.486662,19.0917969 C133.924164,19.0917969 134.322598,19.0292975 134.681974,18.9042969 C135.37729,18.6621082 135.724943,18.2285187 135.724943,17.6035156 C135.724943,17.1347633 135.57846,16.8007822 135.28549,16.6015625 C134.988614,16.406249 134.523774,16.2363288 133.890959,16.0917969 L132.724943,15.828125 C131.963221,15.6562491 131.424163,15.4667979 131.107756,15.2597656 C130.560878,14.9003888 130.287443,14.3632848 130.287443,13.6484375 C130.287443,12.8749961 130.555019,12.2402369 131.090178,11.7441406 C131.625336,11.2480444 132.383141,11 133.363615,11 C134.265963,11 135.032557,11.2177713 135.66342,11.6533203 C136.294282,12.0888694 136.609709,12.7851515 136.609709,13.7421875 L135.514006,13.7421875 C135.455412,13.2812477 135.330413,12.9277356 135.139006,12.6816406 C134.783535,12.2324196 134.180026,12.0078125 133.328459,12.0078125 C132.640955,12.0078125 132.14682,12.1523423 131.846037,12.4414062 C131.545254,12.7304702 131.394865,13.0664043 131.394865,13.4492188 C131.394865,13.8710959 131.570645,14.1796865 131.922209,14.375 C132.131727,14.4886364 132.581748,14.6280984 133.272285,14.7933882 L134.693693,15.1191406 C135.275727,15.2519538 135.724942,15.4335926 136.041349,15.6640625 C136.588227,16.0664083 136.861662,16.6503868 136.861662,17.4160156 C136.861662,18.3691454 136.514986,19.0507792 135.821623,19.4609375 C135.12826,19.8710958 134.322604,20.0761719 133.404631,20.0761719 C132.334313,20.0761719 131.496431,19.8027371 130.890959,19.2558594 C130.285487,18.7128879 129.988615,17.9765671 130.000334,17.046875 L131.096037,17.046875 Z M140.687834,19.1445312 C141.387056,19.1445312 141.866543,18.8798855 142.12631,18.3505859 C142.386077,17.8212864 142.515959,17.2324251 142.515959,16.5839844 C142.515959,15.9980439 142.42221,15.5214862 142.234709,15.1542969 C141.937832,14.576169 141.426119,14.2871094 140.699553,14.2871094 C140.055018,14.2871094 139.586273,14.5332007 139.293303,15.0253906 C139.000332,15.5175806 138.853849,16.1113246 138.853849,16.8066406 C138.853849,17.4746127 139.000332,18.0312478 139.293303,18.4765625 C139.586273,18.9218772 140.051112,19.1445312 140.687834,19.1445312 Z M140.728849,13.3671875 C141.537447,13.3671875 142.221034,13.6367161 142.779631,14.1757812 C143.338227,14.7148464 143.617521,15.5078073 143.617521,16.5546875 C143.617521,17.5664113 143.37143,18.4023404 142.87924,19.0625 C142.38705,19.7226596 141.623386,20.0527344 140.588224,20.0527344 C139.724939,20.0527344 139.039399,19.7607451 138.531584,19.1767578 C138.023769,18.5927705 137.769865,17.8085987 137.769865,16.8242188 C137.769865,15.769526 138.03744,14.9296906 138.572599,14.3046875 C139.107758,13.6796844 139.826501,13.3671875 140.728849,13.3671875 Z M145.926115,13.5488281 L145.926115,17.7148438 C145.926115,18.0351579 145.976896,18.296874 146.078459,18.5 C146.26596,18.8750019 146.615566,19.0625 147.127287,19.0625 C147.861666,19.0625 148.361661,18.7343783 148.627287,18.078125 C148.771819,17.7265607 148.844084,17.2441437 148.844084,16.6308594 L148.844084,13.5488281 L149.898771,13.5488281 L149.898771,19.8242188 L148.902678,19.8242188 L148.914396,18.8984375 C148.777677,19.1367199 148.607757,19.3378898 148.404631,19.5019531 C148.002285,19.8300798 147.514009,19.9941406 146.939787,19.9941406 C146.045251,19.9941406 145.435882,19.6953155 145.111662,19.0976562 C144.93588,18.7773421 144.84799,18.3496121 144.84799,17.8144531 L144.84799,13.5488281 L145.926115,13.5488281 Z M151.574553,13.5488281 L152.576506,13.5488281 L152.576506,14.6328125 C152.658537,14.4218739 152.859707,14.1650406 153.180021,13.8623047 C153.500335,13.5595688 153.869472,13.4082031 154.287443,13.4082031 L154.482267,13.4228515 C154.522306,13.4267578 154.570646,13.4316406 154.627287,13.4375 L154.627287,14.5507812 C154.564787,14.5390624 154.50717,14.53125 154.454435,14.5273438 C154.401701,14.5234375 154.344084,14.5214844 154.281584,14.5214844 C153.750331,14.5214844 153.342132,14.6923811 153.056974,15.0341797 C152.771817,15.3759783 152.62924,15.769529 152.62924,16.2148438 L152.62924,19.8242188 L151.574553,19.8242188 L151.574553,13.5488281 Z M157.961271,13.3671875 C158.668306,13.3671875 159.243496,13.5390608 159.686857,13.8828125 C160.130219,14.2265642 160.396818,14.8183552 160.486662,15.6582031 L159.461271,15.6582031 C159.398771,15.2714824 159.256194,14.9501966 159.033537,14.6943359 C158.81088,14.4384753 158.453461,14.3105469 157.961271,14.3105469 C157.289393,14.3105469 156.808929,14.6386686 156.519865,15.2949219 C156.332364,15.7207053 156.238615,16.2460906 156.238615,16.8710938 C156.238615,17.5000031 156.371426,18.0292947 156.637053,18.4589844 C156.902679,18.888674 157.320643,19.1035156 157.890959,19.1035156 C158.328461,19.1035156 158.675137,18.9697279 158.930998,18.7021484 C159.186858,18.434569 159.363615,18.0683617 159.461271,17.6035156 L160.486662,17.6035156 C160.369474,18.435551 160.076508,19.0439434 159.607756,19.4287109 C159.139003,19.8134785 158.5394,20.0058594 157.808928,20.0058594 C156.988611,20.0058594 156.334321,19.7060577 155.846037,19.1064453 C155.357753,18.5068329 155.113615,17.757817 155.113615,16.859375 C155.113615,15.757807 155.38119,14.9003937 155.916349,14.2871094 C156.451508,13.6738251 157.133142,13.3671875 157.961271,13.3671875 Z M164.154631,13.4082031 C164.599945,13.4082031 165.031582,13.5126943 165.449553,13.7216797 C165.867523,13.9306651 166.18588,14.2011702 166.404631,14.5332031 C166.573381,14.7863294 166.697131,15.0732023 166.775881,15.3938275 L166.826506,15.640625 C166.889006,15.9296889 166.920256,16.3906218 166.920256,17.0234375 L162.320646,17.0234375 C162.340178,17.6601594 162.490567,18.1708965 162.771818,18.5556641 C163.05307,18.9404316 163.488612,19.1328125 164.078459,19.1328125 C164.629243,19.1328125 165.068692,18.9511737 165.396818,18.5878906 C165.584319,18.3769521 165.71713,18.1328139 165.795256,17.8554688 L166.832365,17.8554688 C166.805021,18.0859387 166.714202,18.342772 166.559904,18.6259766 C166.405606,18.9091811 166.232757,19.1406241 166.041349,19.3203125 C165.721035,19.6328141 165.324555,19.8437495 164.851896,19.953125 C164.597989,20.0156253 164.310882,20.046875 163.990568,20.046875 C163.209314,20.046875 162.547211,19.7626982 162.00424,19.1943359 C161.461269,18.6259737 161.189787,17.8300832 161.189787,16.8066406 C161.189787,15.7988231 161.463222,14.9804719 162.010099,14.3515625 C162.556977,13.7226531 163.271814,13.4082031 164.154631,13.4082031 Z M164.090178,14.328125 C163.6058,14.328125 163.199554,14.5029279 162.871428,14.8525391 C162.543301,15.2021502 162.369474,15.6464817 162.349943,16.1855469 L162.349943,16.1855469 L165.836271,16.1855469 C165.793302,15.7285133 165.693694,15.3632826 165.537443,15.0898438 C165.248379,14.5820287 164.765962,14.328125 164.090178,14.328125 Z" id="Source" fill="#525A6E" fill-rule="nonzero"></path>
                <path d="M385.984375,11 L385.984375,12.0253906 L383.083984,12.0253906 L383.083984,19.6074219 L381.900391,19.6074219 L381.900391,12.0253906 L379,12.0253906 L379,11 L385.984375,11 Z M386.388672,17.9375 C386.388672,18.242189 386.499999,18.482421 386.722656,18.6582031 C386.945314,18.8339853 387.208983,18.921875 387.513672,18.921875 C387.884767,18.921875 388.244139,18.8359384 388.591797,18.6640625 C389.177737,18.3789048 389.470703,17.9121126 389.470703,17.2636719 L389.470703,16.4140625 C389.341796,16.4960942 389.175782,16.5644529 388.972656,16.6191406 C388.76953,16.6738284 388.570313,16.7128905 388.375,16.7363281 L387.736328,16.8183594 C387.353514,16.8691409 387.066407,16.9492182 386.875,17.0585938 C386.55078,17.2421884 386.388672,17.5351542 386.388672,17.9375 Z M388.943359,15.8046875 C389.185548,15.7734373 389.347656,15.6718759 389.429688,15.5 C389.476563,15.4062495 389.5,15.2714853 389.5,15.0957031 C389.5,14.7363263 389.372072,14.4755867 389.116211,14.3134766 C388.86035,14.1513664 388.494143,14.0703125 388.017578,14.0703125 C387.466794,14.0703125 387.076173,14.2187485 386.845703,14.515625 C386.716796,14.6796875 386.632813,14.9238265 386.59375,15.2480469 L385.609375,15.2480469 C385.628906,14.4746055 385.87988,13.936525 386.362305,13.6337891 C386.844729,13.3310532 387.404294,13.1796875 388.041016,13.1796875 C388.779301,13.1796875 389.378904,13.3203111 389.839844,13.6015625 C390.296877,13.8828139 390.525391,14.3203095 390.525391,14.9140625 L390.525391,18.5292969 C390.525391,18.6386724 390.547851,18.7265622 390.592773,18.7929688 C390.637696,18.8593753 390.732421,18.8925781 390.876953,18.8925781 L391.035156,18.8837891 L391.035156,18.8837891 C391.09375,18.8779297 391.15625,18.8691407 391.222656,18.8574219 L391.222656,19.6367188 C391.058593,19.683594 390.933594,19.7128906 390.847656,19.7246094 L390.695313,19.737793 C390.636719,19.7407227 390.570313,19.7421875 390.496094,19.7421875 C390.132811,19.7421875 389.869141,19.6132825 389.705078,19.3554688 C389.61914,19.2187493 389.558594,19.0253919 389.523438,18.7753906 C389.308593,19.056642 389.000002,19.3007802 388.597656,19.5078125 C388.19531,19.7148448 387.751956,19.8183594 387.267578,19.8183594 C386.685544,19.8183594 386.209963,19.6416033 385.84082,19.2880859 C385.471678,18.9345685 385.287109,18.4921902 385.287109,17.9609375 C385.287109,17.3789033 385.468748,16.927736 385.832031,16.6074219 C386.195314,16.2871078 386.671872,16.0898441 387.261719,16.015625 L388.943359,15.8046875 Z M392.283203,13.3320312 L393.285156,13.3320312 L393.285156,14.4160156 C393.367188,14.2050771 393.568358,13.9482437 393.888672,13.6455078 C394.208986,13.3427719 394.578123,13.1914062 394.996094,13.1914062 L395.190918,13.2060547 C395.230957,13.2099609 395.279297,13.2148437 395.335938,13.2207031 L395.335938,14.3339844 C395.273437,14.3222656 395.215821,14.3144531 395.163086,14.3105469 C395.110351,14.3066406 395.052735,14.3046875 394.990234,14.3046875 C394.458982,14.3046875 394.050783,14.4755842 393.765625,14.8173828 C393.480467,15.1591814 393.337891,15.5527321 393.337891,15.9980469 L393.337891,19.6074219 L392.283203,19.6074219 L392.283203,13.3320312 Z M398.464844,13.2207031 C398.957034,13.2207031 399.386717,13.3417957 399.753906,13.5839844 C399.953126,13.7207031 400.156249,13.9199206 400.363281,14.1816406 L400.363281,13.390625 L401.335938,13.390625 L401.335938,19.0976562 C401.335938,19.8945352 401.218751,20.5234352 400.984375,20.984375 C400.546873,21.8359418 399.720709,22.2617188 398.505859,22.2617188 C397.830075,22.2617188 397.261721,22.1103531 396.800781,21.8076172 C396.339841,21.5048813 396.082032,21.0312532 396.027344,20.3867188 L397.099609,20.3867188 C397.150391,20.6679702 397.251952,20.8847649 397.404297,21.0371094 C397.642579,21.2714855 398.017576,21.3886719 398.529297,21.3886719 C399.337895,21.3886719 399.867186,21.1035185 400.117188,20.5332031 C400.265626,20.1972639 400.333984,19.5976606 400.322266,18.734375 C400.111327,19.0546891 399.857423,19.292968 399.560547,19.4492188 C399.26367,19.6054695 398.871096,19.6835938 398.382812,19.6835938 C397.703122,19.6835938 397.108401,19.4423852 396.598633,18.9599609 C396.088865,18.4775367 395.833984,17.6796931 395.833984,16.5664062 C395.833984,15.5156197 396.090818,14.6953154 396.604492,14.1054688 C397.118167,13.5156221 397.738278,13.2207031 398.464844,13.2207031 Z M400.363281,16.4433594 C400.363281,15.6660117 400.203127,15.0898456 399.882812,14.7148438 C399.562498,14.3398419 399.154299,14.1523438 398.658203,14.1523438 C397.916012,14.1523438 397.408204,14.4999965 397.134766,15.1953125 C396.990234,15.5664081 396.917969,16.0527314 396.917969,16.6542969 C396.917969,17.3613317 397.061522,17.8994122 397.348633,18.2685547 C397.635744,18.6376972 398.021482,18.8222656 398.505859,18.8222656 C399.263676,18.8222656 399.796873,18.4804722 400.105469,17.796875 C400.277345,17.4101543 400.363281,16.958987 400.363281,16.4433594 Z M405.537109,13.1914062 C405.982424,13.1914062 406.41406,13.2958974 406.832031,13.5048828 C407.250002,13.7138682 407.568358,13.9843733 407.787109,14.3164062 C407.95586,14.5695325 408.079609,14.8564054 408.158359,15.1770306 L408.208984,15.4238281 C408.271485,15.7128921 408.302734,16.173825 408.302734,16.8066406 L403.703125,16.8066406 C403.722656,17.4433626 403.873045,17.9540996 404.154297,18.3388672 C404.435548,18.7236347 404.871091,18.9160156 405.460938,18.9160156 C406.011722,18.9160156 406.45117,18.7343768 406.779297,18.3710938 C406.966798,18.1601552 407.099609,17.916017 407.177734,17.6386719 L408.214844,17.6386719 C408.1875,17.8691418 408.09668,18.1259751 407.942383,18.4091797 C407.788085,18.6923842 407.615235,18.9238272 407.423828,19.1035156 C407.103514,19.4160172 406.707034,19.6269526 406.234375,19.7363281 C405.980467,19.7988284 405.693361,19.8300781 405.373047,19.8300781 C404.591793,19.8300781 403.92969,19.5459013 403.386719,18.9775391 C402.843747,18.4091768 402.572266,17.6132864 402.572266,16.5898438 C402.572266,15.5820262 402.8457,14.763675 403.392578,14.1347656 C403.939456,13.5058562 404.654292,13.1914062 405.537109,13.1914062 Z M407.21875,15.96875 C407.175781,15.5117165 407.076173,15.1464857 406.919922,14.8730469 C406.630858,14.3652318 406.148441,14.1113281 405.472656,14.1113281 C404.988279,14.1113281 404.582033,14.2861311 404.253906,14.6357422 C403.92578,14.9853533 403.751953,15.4296848 403.732422,15.96875 L407.21875,15.96875 Z M409.808594,11.5800781 L410.875,11.5800781 L410.875,13.3320312 L411.876953,13.3320312 L411.876953,14.1933594 L410.875,14.1933594 L410.875,18.2890625 C410.875,18.5078136 410.949218,18.6542965 411.097656,18.7285156 C411.179688,18.7714846 411.316405,18.7929688 411.507812,18.7929688 L411.671875,18.7900391 L411.671875,18.7900391 C411.730469,18.7880859 411.798828,18.7832032 411.876953,18.7753906 L411.876953,19.6074219 C411.755859,19.6425783 411.629883,19.6679687 411.499023,19.6835938 C411.368163,19.6992188 411.226563,19.7070312 411.074219,19.7070312 C410.582029,19.7070312 410.248048,19.5810559 410.072266,19.3291016 C409.896483,19.0771472 409.808594,18.750002 409.808594,18.3476562 L409.808594,14.1933594 L408.958984,14.1933594 L408.958984,13.3320312 L409.808594,13.3320312 L409.808594,11.5800781 Z" id="Target" fill="#525A6E" fill-rule="nonzero"></path>
                <path d="M34,20.288 C34.0390627,19.5653401 34.1884753,18.9364402 34.4482422,18.4012813 C34.7080091,17.8661223 35.21484,17.3797991 35.96875,16.9422969 L37.09375,16.2919063 C37.5976588,15.998936 37.9511709,15.7489385 38.1542969,15.5419063 C38.474611,15.2176859 38.6347656,14.8465958 38.6347656,14.428625 C38.6347656,13.9403413 38.4882827,13.5526499 38.1953125,13.2655391 C37.9023423,12.9784283 37.5117212,12.834875 37.0234375,12.834875 C36.3007776,12.834875 35.8007826,13.1083098 35.5234375,13.6551875 C35.3749993,13.9481577 35.2929688,14.3544037 35.2773438,14.8739375 L34.2050781,14.8739375 C34.2167969,14.1434651 34.3515612,13.5477679 34.609375,13.0868281 C35.0664085,12.2743241 35.8730411,11.8680781 37.0292969,11.8680781 C37.9902392,11.8680781 38.6923806,12.1278412 39.1357422,12.647375 C39.5791038,13.1669088 39.8007812,13.7450281 39.8007812,14.38175 C39.8007812,15.0536284 39.5644555,15.6278414 39.0917969,16.1044063 C38.818358,16.3817514 38.3281285,16.7176855 37.6210938,17.1122188 L36.8183594,17.5575313 C36.435545,17.7684698 36.1347667,17.9696397 35.9160156,18.1610469 C35.5253887,18.5008923 35.2792974,18.8778417 35.1777344,19.2919063 L39.7597656,19.2919063 L39.7597656,20.288 L34,20.288 Z M43.0292969,11.6805781 L43.9199219,11.6805781 L41.1894531,20.288 L40.2988281,20.288 L43.0292969,11.6805781 Z M44.78125,14.3465938 L44.78125,13.538 C45.5429726,13.4637809 46.0742172,13.3397587 46.375,13.1659297 C46.6757828,12.9921007 46.9003899,12.580972 47.0488281,11.9325313 L47.8808594,11.9325313 L47.8808594,20.288 L46.7558594,20.288 L46.7558594,14.3465938 L44.78125,14.3465938 Z M53.4238281,20.5165156 C52.4316357,20.5165156 51.7119163,20.2440574 51.2646484,19.6991328 C50.8173806,19.1542082 50.59375,18.4911289 50.59375,17.709875 L51.6953125,17.709875 C51.7421877,18.2528465 51.8437492,18.6473738 52,18.8934688 C52.2734389,19.3348772 52.7675746,19.5555781 53.4824219,19.5555781 C54.0371121,19.5555781 54.4824202,19.4071421 54.8183594,19.1102656 C55.1542986,18.8133891 55.3222656,18.4305805 55.3222656,17.9618281 C55.3222656,17.3837002 55.1455096,16.9794074 54.7919922,16.7489375 C54.4384748,16.5184676 53.9472688,16.4032344 53.3183594,16.4032344 L53.2121582,16.4039668 L53.2121582,16.4039668 L52.8847656,16.4149531 L52.8847656,16.4149531 L52.8847656,15.4833125 L53.0800781,15.5015417 L53.0800781,15.5015417 L53.1601562,15.50675 C53.2343754,15.5106563 53.3144527,15.5126094 53.4003906,15.5126094 C53.7949238,15.5126094 54.1191394,15.45011 54.3730469,15.3251094 C54.8183616,15.1063583 55.0410156,14.7157372 55.0410156,14.1532344 C55.0410156,13.7352635 54.8925796,13.4130011 54.5957031,13.1864375 C54.2988266,12.9598739 53.953127,12.8465938 53.5585938,12.8465938 C52.8554652,12.8465938 52.369142,13.0809664 52.0996094,13.5497188 C51.9511711,13.8075325 51.8671876,14.1747164 51.8476562,14.6512813 L50.8046875,14.6512813 C50.8046875,14.0262781 50.9296863,13.4950334 51.1796875,13.0575313 C51.6093771,12.2762773 52.365229,11.8856563 53.4472656,11.8856563 C54.3027387,11.8856563 54.9648414,12.076084 55.4335938,12.4569453 C55.9023461,12.8378066 56.1367188,13.3895589 56.1367188,14.1122188 C56.1367188,14.6278463 55.9980483,15.0458109 55.7207031,15.366125 C55.5488273,15.5653447 55.3261732,15.7215932 55.0527344,15.834875 C55.4941428,15.9559694 55.8388659,16.1893655 56.0869141,16.5350703 C56.3349622,16.8807752 56.4589844,17.3036225 56.4589844,17.803625 C56.4589844,18.6044103 56.1953151,19.2567475 55.6679688,19.7606563 C55.1406224,20.264565 54.392583,20.5165156 53.4238281,20.5165156 Z M62.4024531,12.5 L62.4024531,18.2 C61.8984531,18.344 61.3824531,18.476 60.8424531,18.608 L61.0944531,19.46 C62.4864531,19.088 63.7104531,18.68 64.7664531,18.236 L64.7664531,17.372 C64.2984531,17.564 63.8064531,17.744 63.2904531,17.924 L63.2904531,12.5 L64.6824531,12.5 L64.6824531,11.66 L60.9744531,11.66 L60.9744531,12.5 L62.4024531,12.5 Z M65.1384531,11 L65.1384531,11.84 L68.0664531,11.84 C68.0064531,12.284 67.9224531,12.716 67.8024531,13.124 L65.6904531,13.124 L65.6904531,18.764 L66.5184531,18.764 L66.5184531,13.916 L70.3704531,13.916 L70.3704531,18.764 L71.2104531,18.764 L71.2104531,13.124 L68.6664531,13.124 C68.7624531,12.716 68.8464531,12.296 68.9184531,11.84 L71.7864531,11.84 L71.7864531,11 L65.1384531,11 Z M69.4224531,18.788 L68.8464531,19.34 C69.8784531,20.132 70.6944531,20.876 71.2944531,21.572 L71.9184531,20.948 C71.2464531,20.228 70.4064531,19.508 69.4224531,18.788 Z M67.9584531,14.684 L68.8224531,14.684 L68.8224531,16.748 C68.7744531,18.044 68.4384531,19.076 67.7904531,19.856 C67.1544531,20.564 66.1224531,21.128 64.6824531,21.536 L64.2144531,20.792 C65.6064531,20.42 66.5904531,19.916 67.1424531,19.292 C67.6464531,18.644 67.9224531,17.792 67.9584531,16.748 L67.9584531,14.684 Z" id="2/13项" fill="#525A6E" fill-rule="nonzero"></path>
                <path d="M270,20.288 C270.039063,19.5653401 270.188475,18.9364402 270.448242,18.4012813 C270.708009,17.8661223 271.21484,17.3797991 271.96875,16.9422969 L273.09375,16.2919063 C273.597659,15.998936 273.951171,15.7489385 274.154297,15.5419063 C274.474611,15.2176859 274.634766,14.8465958 274.634766,14.428625 C274.634766,13.9403413 274.488283,13.5526499 274.195312,13.2655391 C273.902342,12.9784283 273.511721,12.834875 273.023438,12.834875 C272.300778,12.834875 271.800783,13.1083098 271.523438,13.6551875 C271.374999,13.9481577 271.292969,14.3544037 271.277344,14.8739375 L270.205078,14.8739375 C270.216797,14.1434651 270.351561,13.5477679 270.609375,13.0868281 C271.066409,12.2743241 271.873041,11.8680781 273.029297,11.8680781 C273.990239,11.8680781 274.692381,12.1278412 275.135742,12.647375 C275.579104,13.1669088 275.800781,13.7450281 275.800781,14.38175 C275.800781,15.0536284 275.564455,15.6278414 275.091797,16.1044063 C274.818358,16.3817514 274.328129,16.7176855 273.621094,17.1122188 L272.818359,17.5575313 C272.435545,17.7684698 272.134767,17.9696397 271.916016,18.1610469 C271.525389,18.5008923 271.279297,18.8778417 271.177734,19.2919063 L275.759766,19.2919063 L275.759766,20.288 L270,20.288 Z M279.029297,11.6805781 L279.919922,11.6805781 L277.189453,20.288 L276.298828,20.288 L279.029297,11.6805781 Z M280.78125,14.3465938 L280.78125,13.538 C281.542973,13.4637809 282.074217,13.3397587 282.375,13.1659297 C282.675783,12.9921007 282.90039,12.580972 283.048828,11.9325313 L283.880859,11.9325313 L283.880859,20.288 L282.755859,20.288 L282.755859,14.3465938 L280.78125,14.3465938 Z M289.423828,20.5165156 C288.431636,20.5165156 287.711916,20.2440574 287.264648,19.6991328 C286.817381,19.1542082 286.59375,18.4911289 286.59375,17.709875 L287.695312,17.709875 C287.742188,18.2528465 287.843749,18.6473738 288,18.8934688 C288.273439,19.3348772 288.767575,19.5555781 289.482422,19.5555781 C290.037112,19.5555781 290.48242,19.4071421 290.818359,19.1102656 C291.154299,18.8133891 291.322266,18.4305805 291.322266,17.9618281 C291.322266,17.3837002 291.14551,16.9794074 290.791992,16.7489375 C290.438475,16.5184676 289.947269,16.4032344 289.318359,16.4032344 L289.212158,16.4039668 L289.212158,16.4039668 L288.884766,16.4149531 L288.884766,16.4149531 L288.884766,15.4833125 L289.080078,15.5015417 L289.080078,15.5015417 L289.160156,15.50675 C289.234375,15.5106563 289.314453,15.5126094 289.400391,15.5126094 C289.794924,15.5126094 290.119139,15.45011 290.373047,15.3251094 C290.818362,15.1063583 291.041016,14.7157372 291.041016,14.1532344 C291.041016,13.7352635 290.89258,13.4130011 290.595703,13.1864375 C290.298827,12.9598739 289.953127,12.8465938 289.558594,12.8465938 C288.855465,12.8465938 288.369142,13.0809664 288.099609,13.5497188 C287.951171,13.8075325 287.867188,14.1747164 287.847656,14.6512813 L286.804688,14.6512813 C286.804688,14.0262781 286.929686,13.4950334 287.179688,13.0575313 C287.609377,12.2762773 288.365229,11.8856563 289.447266,11.8856563 C290.302739,11.8856563 290.964841,12.076084 291.433594,12.4569453 C291.902346,12.8378066 292.136719,13.3895589 292.136719,14.1122188 C292.136719,14.6278463 291.998048,15.0458109 291.720703,15.366125 C291.548827,15.5653447 291.326173,15.7215932 291.052734,15.834875 C291.494143,15.9559694 291.838866,16.1893655 292.086914,16.5350703 C292.334962,16.8807752 292.458984,17.3036225 292.458984,17.803625 C292.458984,18.6044103 292.195315,19.2567475 291.667969,19.7606563 C291.140622,20.264565 290.392583,20.5165156 289.423828,20.5165156 Z M298.402453,12.5 L298.402453,18.2 C297.898453,18.344 297.382453,18.476 296.842453,18.608 L297.094453,19.46 C298.486453,19.088 299.710453,18.68 300.766453,18.236 L300.766453,17.372 C300.298453,17.564 299.806453,17.744 299.290453,17.924 L299.290453,12.5 L300.682453,12.5 L300.682453,11.66 L296.974453,11.66 L296.974453,12.5 L298.402453,12.5 Z M301.138453,11 L301.138453,11.84 L304.066453,11.84 C304.006453,12.284 303.922453,12.716 303.802453,13.124 L301.690453,13.124 L301.690453,18.764 L302.518453,18.764 L302.518453,13.916 L306.370453,13.916 L306.370453,18.764 L307.210453,18.764 L307.210453,13.124 L304.666453,13.124 C304.762453,12.716 304.846453,12.296 304.918453,11.84 L307.786453,11.84 L307.786453,11 L301.138453,11 Z M305.422453,18.788 L304.846453,19.34 C305.878453,20.132 306.694453,20.876 307.294453,21.572 L307.918453,20.948 C307.246453,20.228 306.406453,19.508 305.422453,18.788 Z M303.958453,14.684 L304.822453,14.684 L304.822453,16.748 C304.774453,18.044 304.438453,19.076 303.790453,19.856 C303.154453,20.564 302.122453,21.128 300.682453,21.536 L300.214453,20.792 C301.606453,20.42 302.590453,19.916 303.142453,19.292 C303.646453,18.644 303.922453,17.792 303.958453,16.748 L303.958453,14.684 Z" id="2/13项" fill="#525A6E" fill-rule="nonzero"></path>
                <g id="icon/z/checkboxDisable" transform="translate(12.000000, 9.000000)" fill-rule="nonzero">
                    <rect id="fill" fill="#FFFFFF" x="0.325581395" y="0.325581395" width="13.3488372" height="13.3488372" rx="2"></rect>
                    <rect id="outline" fill="#4F7DE7" x="0.162790698" y="0.162790698" width="13.6744186" height="13.6744186"></rect>
                </g>
                <g id="icon/z/checkboxDisable备份" transform="translate(248.000000, 9.000000)" fill-rule="nonzero">
                    <rect id="fill" fill="#FFFFFF" x="0.325581395" y="0.325581395" width="13.3488372" height="13.3488372" rx="2"></rect>
                    <rect id="outline" stroke="#DBDFE6" x="0.662790698" y="0.662790698" width="12.6744186" height="12.6744186" rx="2"></rect>
                </g>
                <rect id="fill" fill="#FFFFFF" fill-rule="nonzero" x="16" y="16" width="7" height="1"></rect>
                <rect id="fill备份" fill="#4F7DE7" fill-rule="nonzero" x="252" y="13" width="6" height="6"></rect>
                <path d="M38.26,95.456 L43.624,95.456 L43.624,96.164 L44.5,96.164 L44.5,91.1 L39.496,91.1 C41.752,90.056 43.3,88.712 44.164,87.068 L44.164,86.3 L39.484,86.3 C39.724,85.976 39.94,85.64 40.132,85.28 L39.184,85.172 C38.464,86.444 37.084,87.524 35.032,88.4 L35.608,89.144 C36.88,88.544 37.912,87.872 38.728,87.116 L43.168,87.116 C42.604,88.1 41.716,88.952 40.492,89.684 C39.976,89.24 39.256,88.736 38.344,88.172 L37.6,88.64 C38.512,89.156 39.232,89.636 39.76,90.08 C38.38,90.776 36.652,91.328 34.576,91.76 L35.032,92.588 C35.872,92.384 36.652,92.168 37.396,91.928 L37.396,96.164 L38.26,96.164 L38.26,95.456 Z M43.624,94.616 L38.26,94.616 L38.26,91.904 L43.624,91.904 L43.624,94.616 Z M46.696,88.484 L46.696,89.312 L48.352,89.312 C47.968,90.68 47.32,91.892 46.408,92.96 L46.78,93.92 C47.476,92.96 48.04,91.892 48.448,90.716 L48.448,96.164 L49.276,96.164 L49.276,90.74 C49.636,91.16 50.08,91.724 50.584,92.444 L51.064,91.724 C50.464,91.076 49.876,90.5 49.276,89.972 L49.276,89.312 L50.752,89.312 L50.752,88.484 L49.276,88.484 L49.276,86.636 C49.888,86.516 50.464,86.372 50.992,86.228 L50.692,85.412 C49.54,85.772 48.232,86.012 46.744,86.144 L46.912,86.96 C47.44,86.912 47.944,86.84 48.448,86.768 L48.448,88.484 L46.696,88.484 Z M53.512,96.14 C54.196,96.14 54.544,95.78 54.544,95.06 L54.544,88.712 L53.656,88.712 L53.656,94.844 C53.656,95.192 53.5,95.372 53.212,95.372 C52.888,95.372 52.54,95.348 52.18,95.312 L52.36,96.14 L53.512,96.14 Z M52,90.44 C51.7,91.832 51.232,93.116 50.584,94.268 L51.328,94.736 C51.964,93.572 52.456,92.192 52.804,90.596 L52,90.44 Z M56.104,90.356 L55.324,90.608 C55.828,91.844 56.296,93.26 56.716,94.856 L57.508,94.508 C57.112,93.032 56.644,91.652 56.104,90.356 Z M52.816,87.692 C52.48,88.448 52.06,89.132 51.568,89.732 L51.04,89.048 C51.856,87.992 52.42,86.696 52.708,85.16 L53.56,85.268 C53.452,85.82 53.308,86.348 53.14,86.852 L57.112,86.852 L57.112,87.416 C56.968,88.232 56.788,89.036 56.548,89.828 L55.708,89.576 C55.924,89.012 56.104,88.388 56.248,87.692 L52.816,87.692 Z" id="名称" fill="#525A6E" fill-rule="nonzero"></path>
                <path d="M274.26,55.456 L279.624,55.456 L279.624,56.164 L280.5,56.164 L280.5,51.1 L275.496,51.1 C277.752,50.056 279.3,48.712 280.164,47.068 L280.164,46.3 L275.484,46.3 C275.724,45.976 275.94,45.64 276.132,45.28 L275.184,45.172 C274.464,46.444 273.084,47.524 271.032,48.4 L271.608,49.144 C272.88,48.544 273.912,47.872 274.728,47.116 L279.168,47.116 C278.604,48.1 277.716,48.952 276.492,49.684 C275.976,49.24 275.256,48.736 274.344,48.172 L273.6,48.64 C274.512,49.156 275.232,49.636 275.76,50.08 C274.38,50.776 272.652,51.328 270.576,51.76 L271.032,52.588 C271.872,52.384 272.652,52.168 273.396,51.928 L273.396,56.164 L274.26,56.164 L274.26,55.456 Z M279.624,54.616 L274.26,54.616 L274.26,51.904 L279.624,51.904 L279.624,54.616 Z M282.696,48.484 L282.696,49.312 L284.352,49.312 C283.968,50.68 283.32,51.892 282.408,52.96 L282.78,53.92 C283.476,52.96 284.04,51.892 284.448,50.716 L284.448,56.164 L285.276,56.164 L285.276,50.74 L285.561375,51.0821875 C285.86175,51.45175 286.206,51.904 286.584,52.444 L287.064,51.724 C286.464,51.076 285.876,50.5 285.276,49.972 L285.276,49.312 L286.752,49.312 L286.752,48.484 L285.276,48.484 L285.276,46.636 C285.888,46.516 286.464,46.372 286.992,46.228 L286.692,45.412 C285.54,45.772 284.232,46.012 282.744,46.144 L282.912,46.96 C283.44,46.912 283.944,46.84 284.448,46.768 L284.448,48.484 L282.696,48.484 Z M289.512,56.14 C290.196,56.14 290.544,55.78 290.544,55.06 L290.544,48.712 L289.656,48.712 L289.656,54.844 C289.656,55.192 289.5,55.372 289.212,55.372 C288.888,55.372 288.54,55.348 288.18,55.312 L288.36,56.14 L289.512,56.14 Z M288,50.44 C287.7,51.832 287.232,53.116 286.584,54.268 L287.328,54.736 C287.964,53.572 288.456,52.192 288.804,50.596 L288,50.44 Z M292.104,50.356 L291.324,50.608 C291.828,51.844 292.296,53.26 292.716,54.856 L293.508,54.508 C293.112,53.032 292.644,51.652 292.104,50.356 Z M288.816,47.692 C288.48,48.448 288.06,49.132 287.568,49.732 L287.04,49.048 C287.856,47.992 288.42,46.696 288.708,45.16 L289.56,45.268 C289.452,45.82 289.308,46.348 289.14,46.852 L293.112,46.852 L293.112,47.416 C292.968,48.232 292.788,49.036 292.548,49.828 L291.708,49.576 C291.924,49.012 292.104,48.388 292.248,47.692 L288.816,47.692 Z" id="名称" fill="#525A6E" fill-rule="nonzero"></path>
                <g id="7.Icon/control/checkbox/Checked-" transform="translate(12.000000, 84.000000)">
                    <g id="icon/z/checkboxChecked-Copy" fill="#4F7DE7" fill-rule="nonzero">
                        <rect id="box" x="0" y="0" width="14" height="14" rx="2"></rect>
                    </g>
                    <g id="check" transform="translate(2.625000, 2.625000)" fill="#FFFFFF">
                        <rect id="Rectangle" opacity="0.01" x="0" y="0" width="8.75" height="8.75"></rect>
                        <path d="M8.28125,1.23046875 L7.59863281,1.23046875 C7.50292969,1.23046875 7.41210938,1.27441406 7.35351563,1.34960938 L3.32714844,6.45019531 L1.39648438,4.00390625 C1.33691406,3.92871094 1.24707031,3.88476562 1.15136719,3.88476562 L0.46875,3.88476562 C0.403320313,3.88476562 0.3671875,3.95996094 0.407226563,4.01074219 L3.08203125,7.39941406 C3.20703125,7.55761719 3.44726563,7.55761719 3.57324219,7.39941406 L8.34277344,1.35546875 C8.3828125,1.30566406 8.34667969,1.23046875 8.28125,1.23046875 Z" id="Path" stroke="#FFFFFF" stroke-width="0.833333333"></path>
                    </g>
                </g>
                <g id="7.Icon/control/checkbox/Checked-备份-4" transform="translate(248.000000, 44.000000)">
                    <g id="icon/z/checkboxChecked-Copy" fill="#4F7DE7" fill-rule="nonzero">
                        <rect id="box" x="0" y="0" width="14" height="14" rx="2"></rect>
                    </g>
                    <g id="check" transform="translate(2.625000, 2.625000)">
                        <rect id="Rectangle" fill="#000000" opacity="0" x="0" y="0" width="8.75" height="8.75"></rect>
                        <path d="M8.28125,1.23046875 L7.59863281,1.23046875 C7.50292969,1.23046875 7.41210938,1.27441406 7.35351563,1.34960938 L3.32714844,6.45019531 L1.39648438,4.00390625 C1.33691406,3.92871094 1.24707031,3.88476562 1.15136719,3.88476562 L0.46875,3.88476562 C0.403320313,3.88476562 0.3671875,3.95996094 0.407226563,4.01074219 L3.08203125,7.39941406 C3.20703125,7.55761719 3.44726563,7.55761719 3.57324219,7.39941406 L8.34277344,1.35546875 C8.3828125,1.30566406 8.34667969,1.23046875 8.28125,1.23046875 Z" id="Path" stroke="#FFFFFF" stroke-width="0.833333333" fill="#FFFFFF"></path>
                    </g>
                </g>
                <path d="M38.26,155.456 L43.624,155.456 L43.624,156.164 L44.5,156.164 L44.5,151.1 L39.496,151.1 C41.752,150.056 43.3,148.712 44.164,147.068 L44.164,146.3 L39.484,146.3 C39.724,145.976 39.94,145.64 40.132,145.28 L39.184,145.172 C38.464,146.444 37.084,147.524 35.032,148.4 L35.608,149.144 C36.88,148.544 37.912,147.872 38.728,147.116 L43.168,147.116 C42.604,148.1 41.716,148.952 40.492,149.684 C39.976,149.24 39.256,148.736 38.344,148.172 L37.6,148.64 C38.512,149.156 39.232,149.636 39.76,150.08 C38.38,150.776 36.652,151.328 34.576,151.76 L35.032,152.588 C35.872,152.384 36.652,152.168 37.396,151.928 L37.396,156.164 L38.26,156.164 L38.26,155.456 Z M43.624,154.616 L38.26,154.616 L38.26,151.904 L43.624,151.904 L43.624,154.616 Z M46.696,148.484 L46.696,149.312 L48.352,149.312 C47.968,150.68 47.32,151.892 46.408,152.96 L46.78,153.92 C47.476,152.96 48.04,151.892 48.448,150.716 L48.448,156.164 L49.276,156.164 L49.276,150.74 C49.636,151.16 50.08,151.724 50.584,152.444 L51.064,151.724 C50.464,151.076 49.876,150.5 49.276,149.972 L49.276,149.312 L50.752,149.312 L50.752,148.484 L49.276,148.484 L49.276,146.636 C49.888,146.516 50.464,146.372 50.992,146.228 L50.692,145.412 C49.54,145.772 48.232,146.012 46.744,146.144 L46.912,146.96 C47.44,146.912 47.944,146.84 48.448,146.768 L48.448,148.484 L46.696,148.484 Z M53.512,156.14 C54.196,156.14 54.544,155.78 54.544,155.06 L54.544,148.712 L53.656,148.712 L53.656,154.844 C53.656,155.192 53.5,155.372 53.212,155.372 C52.888,155.372 52.54,155.348 52.18,155.312 L52.36,156.14 L53.512,156.14 Z M52,150.44 C51.7,151.832 51.232,153.116 50.584,154.268 L51.328,154.736 C51.964,153.572 52.456,152.192 52.804,150.596 L52,150.44 Z M56.104,150.356 L55.324,150.608 C55.828,151.844 56.296,153.26 56.716,154.856 L57.508,154.508 C57.112,153.032 56.644,151.652 56.104,150.356 Z M52.816,147.692 C52.48,148.448 52.06,149.132 51.568,149.732 L51.04,149.048 C51.856,147.992 52.42,146.696 52.708,145.16 L53.56,145.268 C53.452,145.82 53.308,146.348 53.14,146.852 L57.112,146.852 L57.112,147.416 C56.968,148.232 56.788,149.036 56.548,149.828 L55.708,149.576 C55.924,149.012 56.104,148.388 56.248,147.692 L52.816,147.692 Z" id="名称" fill="#525A6E" fill-rule="nonzero"></path>
                <path d="M274.26,115.456 L279.624,115.456 L279.624,116.164 L280.5,116.164 L280.5,111.1 L275.496,111.1 C277.752,110.056 279.3,108.712 280.164,107.068 L280.164,106.3 L275.484,106.3 C275.724,105.976 275.94,105.64 276.132,105.28 L275.184,105.172 C274.464,106.444 273.084,107.524 271.032,108.4 L271.608,109.144 C272.88,108.544 273.912,107.872 274.728,107.116 L279.168,107.116 C278.604,108.1 277.716,108.952 276.492,109.684 C275.976,109.24 275.256,108.736 274.344,108.172 L273.6,108.64 C274.512,109.156 275.232,109.636 275.76,110.08 C274.38,110.776 272.652,111.328 270.576,111.76 L271.032,112.588 C271.872,112.384 272.652,112.168 273.396,111.928 L273.396,116.164 L274.26,116.164 L274.26,115.456 Z M279.624,114.616 L274.26,114.616 L274.26,111.904 L279.624,111.904 L279.624,114.616 Z M282.696,108.484 L282.696,109.312 L284.352,109.312 C283.968,110.68 283.32,111.892 282.408,112.96 L282.78,113.92 C283.476,112.96 284.04,111.892 284.448,110.716 L284.448,116.164 L285.276,116.164 L285.276,110.74 L285.561375,111.082187 C285.86175,111.45175 286.206,111.904 286.584,112.444 L287.064,111.724 C286.464,111.076 285.876,110.5 285.276,109.972 L285.276,109.312 L286.752,109.312 L286.752,108.484 L285.276,108.484 L285.276,106.636 C285.888,106.516 286.464,106.372 286.992,106.228 L286.692,105.412 C285.54,105.772 284.232,106.012 282.744,106.144 L282.912,106.96 C283.44,106.912 283.944,106.84 284.448,106.768 L284.448,108.484 L282.696,108.484 Z M289.512,116.14 C290.196,116.14 290.544,115.78 290.544,115.06 L290.544,108.712 L289.656,108.712 L289.656,114.844 C289.656,115.192 289.5,115.372 289.212,115.372 C288.888,115.372 288.54,115.348 288.18,115.312 L288.36,116.14 L289.512,116.14 Z M288,110.44 C287.7,111.832 287.232,113.116 286.584,114.268 L287.328,114.736 C287.964,113.572 288.456,112.192 288.804,110.596 L288,110.44 Z M292.104,110.356 L291.324,110.608 C291.828,111.844 292.296,113.26 292.716,114.856 L293.508,114.508 C293.112,113.032 292.644,111.652 292.104,110.356 Z M288.816,107.692 C288.48,108.448 288.06,109.132 287.568,109.732 L287.04,109.048 C287.856,107.992 288.42,106.696 288.708,105.16 L289.56,105.268 C289.452,105.82 289.308,106.348 289.14,106.852 L293.112,106.852 L293.112,107.416 C292.968,108.232 292.788,109.036 292.548,109.828 L291.708,109.576 C291.924,109.012 292.104,108.388 292.248,107.692 L288.816,107.692 Z" id="名称" fill="#525A6E" fill-rule="nonzero"></path>
                <path d="M38.26,185.456 L43.624,185.456 L43.624,186.164 L44.5,186.164 L44.5,181.1 L39.496,181.1 C41.752,180.056 43.3,178.712 44.164,177.068 L44.164,176.3 L39.484,176.3 C39.724,175.976 39.94,175.64 40.132,175.28 L39.184,175.172 C38.464,176.444 37.084,177.524 35.032,178.4 L35.608,179.144 C36.88,178.544 37.912,177.872 38.728,177.116 L43.168,177.116 C42.604,178.1 41.716,178.952 40.492,179.684 C39.976,179.24 39.256,178.736 38.344,178.172 L37.6,178.64 C38.512,179.156 39.232,179.636 39.76,180.08 C38.38,180.776 36.652,181.328 34.576,181.76 L35.032,182.588 C35.872,182.384 36.652,182.168 37.396,181.928 L37.396,186.164 L38.26,186.164 L38.26,185.456 Z M43.624,184.616 L38.26,184.616 L38.26,181.904 L43.624,181.904 L43.624,184.616 Z M46.696,178.484 L46.696,179.312 L48.352,179.312 C47.968,180.68 47.32,181.892 46.408,182.96 L46.78,183.92 C47.476,182.96 48.04,181.892 48.448,180.716 L48.448,186.164 L49.276,186.164 L49.276,180.74 C49.636,181.16 50.08,181.724 50.584,182.444 L51.064,181.724 C50.464,181.076 49.876,180.5 49.276,179.972 L49.276,179.312 L50.752,179.312 L50.752,178.484 L49.276,178.484 L49.276,176.636 C49.888,176.516 50.464,176.372 50.992,176.228 L50.692,175.412 C49.54,175.772 48.232,176.012 46.744,176.144 L46.912,176.96 C47.44,176.912 47.944,176.84 48.448,176.768 L48.448,178.484 L46.696,178.484 Z M53.512,186.14 C54.196,186.14 54.544,185.78 54.544,185.06 L54.544,178.712 L53.656,178.712 L53.656,184.844 C53.656,185.192 53.5,185.372 53.212,185.372 C52.888,185.372 52.54,185.348 52.18,185.312 L52.36,186.14 L53.512,186.14 Z M52,180.44 C51.7,181.832 51.232,183.116 50.584,184.268 L51.328,184.736 C51.964,183.572 52.456,182.192 52.804,180.596 L52,180.44 Z M56.104,180.356 L55.324,180.608 C55.828,181.844 56.296,183.26 56.716,184.856 L57.508,184.508 C57.112,183.032 56.644,181.652 56.104,180.356 Z M52.816,177.692 C52.48,178.448 52.06,179.132 51.568,179.732 L51.04,179.048 C51.856,177.992 52.42,176.696 52.708,175.16 L53.56,175.268 C53.452,175.82 53.308,176.348 53.14,176.852 L57.112,176.852 L57.112,177.416 C56.968,178.232 56.788,179.036 56.548,179.828 L55.708,179.576 C55.924,179.012 56.104,178.388 56.248,177.692 L52.816,177.692 Z" id="名称" fill="#525A6E" fill-rule="nonzero"></path>
                <path d="M274.26,145.456 L279.624,145.456 L279.624,146.164 L280.5,146.164 L280.5,141.1 L275.496,141.1 C277.752,140.056 279.3,138.712 280.164,137.068 L280.164,136.3 L275.484,136.3 C275.724,135.976 275.94,135.64 276.132,135.28 L275.184,135.172 C274.464,136.444 273.084,137.524 271.032,138.4 L271.608,139.144 C272.88,138.544 273.912,137.872 274.728,137.116 L279.168,137.116 C278.604,138.1 277.716,138.952 276.492,139.684 C275.976,139.24 275.256,138.736 274.344,138.172 L273.6,138.64 C274.512,139.156 275.232,139.636 275.76,140.08 C274.38,140.776 272.652,141.328 270.576,141.76 L271.032,142.588 C271.872,142.384 272.652,142.168 273.396,141.928 L273.396,146.164 L274.26,146.164 L274.26,145.456 Z M279.624,144.616 L274.26,144.616 L274.26,141.904 L279.624,141.904 L279.624,144.616 Z M282.696,138.484 L282.696,139.312 L284.352,139.312 C283.968,140.68 283.32,141.892 282.408,142.96 L282.78,143.92 C283.476,142.96 284.04,141.892 284.448,140.716 L284.448,146.164 L285.276,146.164 L285.276,140.74 L285.561375,141.082188 C285.86175,141.45175 286.206,141.904 286.584,142.444 L287.064,141.724 C286.464,141.076 285.876,140.5 285.276,139.972 L285.276,139.312 L286.752,139.312 L286.752,138.484 L285.276,138.484 L285.276,136.636 C285.888,136.516 286.464,136.372 286.992,136.228 L286.692,135.412 C285.54,135.772 284.232,136.012 282.744,136.144 L282.912,136.96 C283.44,136.912 283.944,136.84 284.448,136.768 L284.448,138.484 L282.696,138.484 Z M289.512,146.14 C290.196,146.14 290.544,145.78 290.544,145.06 L290.544,138.712 L289.656,138.712 L289.656,144.844 C289.656,145.192 289.5,145.372 289.212,145.372 C288.888,145.372 288.54,145.348 288.18,145.312 L288.36,146.14 L289.512,146.14 Z M288,140.44 C287.7,141.832 287.232,143.116 286.584,144.268 L287.328,144.736 C287.964,143.572 288.456,142.192 288.804,140.596 L288,140.44 Z M292.104,140.356 L291.324,140.608 C291.828,141.844 292.296,143.26 292.716,144.856 L293.508,144.508 C293.112,143.032 292.644,141.652 292.104,140.356 Z M288.816,137.692 C288.48,138.448 288.06,139.132 287.568,139.732 L287.04,139.048 C287.856,137.992 288.42,136.696 288.708,135.16 L289.56,135.268 C289.452,135.82 289.308,136.348 289.14,136.852 L293.112,136.852 L293.112,137.416 C292.968,138.232 292.788,139.036 292.548,139.828 L291.708,139.576 C291.924,139.012 292.104,138.388 292.248,137.692 L288.816,137.692 Z" id="名称" fill="#525A6E" fill-rule="nonzero"></path>
                <path d="M38.26,215.456 L43.624,215.456 L43.624,216.164 L44.5,216.164 L44.5,211.1 L39.496,211.1 C41.752,210.056 43.3,208.712 44.164,207.068 L44.164,206.3 L39.484,206.3 C39.724,205.976 39.94,205.64 40.132,205.28 L39.184,205.172 C38.464,206.444 37.084,207.524 35.032,208.4 L35.608,209.144 C36.88,208.544 37.912,207.872 38.728,207.116 L43.168,207.116 C42.604,208.1 41.716,208.952 40.492,209.684 C39.976,209.24 39.256,208.736 38.344,208.172 L37.6,208.64 C38.512,209.156 39.232,209.636 39.76,210.08 C38.38,210.776 36.652,211.328 34.576,211.76 L35.032,212.588 C35.872,212.384 36.652,212.168 37.396,211.928 L37.396,216.164 L38.26,216.164 L38.26,215.456 Z M43.624,214.616 L38.26,214.616 L38.26,211.904 L43.624,211.904 L43.624,214.616 Z M46.696,208.484 L46.696,209.312 L48.352,209.312 C47.968,210.68 47.32,211.892 46.408,212.96 L46.78,213.92 C47.476,212.96 48.04,211.892 48.448,210.716 L48.448,216.164 L49.276,216.164 L49.276,210.74 C49.636,211.16 50.08,211.724 50.584,212.444 L51.064,211.724 C50.464,211.076 49.876,210.5 49.276,209.972 L49.276,209.312 L50.752,209.312 L50.752,208.484 L49.276,208.484 L49.276,206.636 C49.888,206.516 50.464,206.372 50.992,206.228 L50.692,205.412 C49.54,205.772 48.232,206.012 46.744,206.144 L46.912,206.96 C47.44,206.912 47.944,206.84 48.448,206.768 L48.448,208.484 L46.696,208.484 Z M53.512,216.14 C54.196,216.14 54.544,215.78 54.544,215.06 L54.544,208.712 L53.656,208.712 L53.656,214.844 C53.656,215.192 53.5,215.372 53.212,215.372 C52.888,215.372 52.54,215.348 52.18,215.312 L52.36,216.14 L53.512,216.14 Z M52,210.44 C51.7,211.832 51.232,213.116 50.584,214.268 L51.328,214.736 C51.964,213.572 52.456,212.192 52.804,210.596 L52,210.44 Z M56.104,210.356 L55.324,210.608 C55.828,211.844 56.296,213.26 56.716,214.856 L57.508,214.508 C57.112,213.032 56.644,211.652 56.104,210.356 Z M52.816,207.692 C52.48,208.448 52.06,209.132 51.568,209.732 L51.04,209.048 C51.856,207.992 52.42,206.696 52.708,205.16 L53.56,205.268 C53.452,205.82 53.308,206.348 53.14,206.852 L57.112,206.852 L57.112,207.416 C56.968,208.232 56.788,209.036 56.548,209.828 L55.708,209.576 C55.924,209.012 56.104,208.388 56.248,207.692 L52.816,207.692 Z" id="名称" fill="#525A6E" fill-rule="nonzero"></path>
                <path d="M274.26,175.456 L279.624,175.456 L279.624,176.164 L280.5,176.164 L280.5,171.1 L275.496,171.1 C277.752,170.056 279.3,168.712 280.164,167.068 L280.164,166.3 L275.484,166.3 C275.724,165.976 275.94,165.64 276.132,165.28 L275.184,165.172 C274.464,166.444 273.084,167.524 271.032,168.4 L271.608,169.144 C272.88,168.544 273.912,167.872 274.728,167.116 L279.168,167.116 C278.604,168.1 277.716,168.952 276.492,169.684 C275.976,169.24 275.256,168.736 274.344,168.172 L273.6,168.64 C274.512,169.156 275.232,169.636 275.76,170.08 C274.38,170.776 272.652,171.328 270.576,171.76 L271.032,172.588 C271.872,172.384 272.652,172.168 273.396,171.928 L273.396,176.164 L274.26,176.164 L274.26,175.456 Z M279.624,174.616 L274.26,174.616 L274.26,171.904 L279.624,171.904 L279.624,174.616 Z M282.696,168.484 L282.696,169.312 L284.352,169.312 C283.968,170.68 283.32,171.892 282.408,172.96 L282.78,173.92 C283.476,172.96 284.04,171.892 284.448,170.716 L284.448,176.164 L285.276,176.164 L285.276,170.74 L285.561375,171.082187 C285.86175,171.45175 286.206,171.904 286.584,172.444 L287.064,171.724 C286.464,171.076 285.876,170.5 285.276,169.972 L285.276,169.312 L286.752,169.312 L286.752,168.484 L285.276,168.484 L285.276,166.636 C285.888,166.516 286.464,166.372 286.992,166.228 L286.692,165.412 C285.54,165.772 284.232,166.012 282.744,166.144 L282.912,166.96 C283.44,166.912 283.944,166.84 284.448,166.768 L284.448,168.484 L282.696,168.484 Z M289.512,176.14 C290.196,176.14 290.544,175.78 290.544,175.06 L290.544,168.712 L289.656,168.712 L289.656,174.844 C289.656,175.192 289.5,175.372 289.212,175.372 C288.888,175.372 288.54,175.348 288.18,175.312 L288.36,176.14 L289.512,176.14 Z M288,170.44 C287.7,171.832 287.232,173.116 286.584,174.268 L287.328,174.736 C287.964,173.572 288.456,172.192 288.804,170.596 L288,170.44 Z M292.104,170.356 L291.324,170.608 C291.828,171.844 292.296,173.26 292.716,174.856 L293.508,174.508 C293.112,173.032 292.644,171.652 292.104,170.356 Z M288.816,167.692 C288.48,168.448 288.06,169.132 287.568,169.732 L287.04,169.048 C287.856,167.992 288.42,166.696 288.708,165.16 L289.56,165.268 C289.452,165.82 289.308,166.348 289.14,166.852 L293.112,166.852 L293.112,167.416 C292.968,168.232 292.788,169.036 292.548,169.828 L291.708,169.576 C291.924,169.012 292.104,168.388 292.248,167.692 L288.816,167.692 Z" id="名称" fill="#525A6E" fill-rule="nonzero"></path>
                <path d="M38.26,245.456 L43.624,245.456 L43.624,246.164 L44.5,246.164 L44.5,241.1 L39.496,241.1 C41.752,240.056 43.3,238.712 44.164,237.068 L44.164,236.3 L39.484,236.3 C39.724,235.976 39.94,235.64 40.132,235.28 L39.184,235.172 C38.464,236.444 37.084,237.524 35.032,238.4 L35.608,239.144 C36.88,238.544 37.912,237.872 38.728,237.116 L43.168,237.116 C42.604,238.1 41.716,238.952 40.492,239.684 C39.976,239.24 39.256,238.736 38.344,238.172 L37.6,238.64 C38.512,239.156 39.232,239.636 39.76,240.08 C38.38,240.776 36.652,241.328 34.576,241.76 L35.032,242.588 C35.872,242.384 36.652,242.168 37.396,241.928 L37.396,246.164 L38.26,246.164 L38.26,245.456 Z M43.624,244.616 L38.26,244.616 L38.26,241.904 L43.624,241.904 L43.624,244.616 Z M46.696,238.484 L46.696,239.312 L48.352,239.312 C47.968,240.68 47.32,241.892 46.408,242.96 L46.78,243.92 C47.476,242.96 48.04,241.892 48.448,240.716 L48.448,246.164 L49.276,246.164 L49.276,240.74 C49.636,241.16 50.08,241.724 50.584,242.444 L51.064,241.724 C50.464,241.076 49.876,240.5 49.276,239.972 L49.276,239.312 L50.752,239.312 L50.752,238.484 L49.276,238.484 L49.276,236.636 C49.888,236.516 50.464,236.372 50.992,236.228 L50.692,235.412 C49.54,235.772 48.232,236.012 46.744,236.144 L46.912,236.96 C47.44,236.912 47.944,236.84 48.448,236.768 L48.448,238.484 L46.696,238.484 Z M53.512,246.14 C54.196,246.14 54.544,245.78 54.544,245.06 L54.544,238.712 L53.656,238.712 L53.656,244.844 C53.656,245.192 53.5,245.372 53.212,245.372 C52.888,245.372 52.54,245.348 52.18,245.312 L52.36,246.14 L53.512,246.14 Z M52,240.44 C51.7,241.832 51.232,243.116 50.584,244.268 L51.328,244.736 C51.964,243.572 52.456,242.192 52.804,240.596 L52,240.44 Z M56.104,240.356 L55.324,240.608 C55.828,241.844 56.296,243.26 56.716,244.856 L57.508,244.508 C57.112,243.032 56.644,241.652 56.104,240.356 Z M52.816,237.692 C52.48,238.448 52.06,239.132 51.568,239.732 L51.04,239.048 C51.856,237.992 52.42,236.696 52.708,235.16 L53.56,235.268 C53.452,235.82 53.308,236.348 53.14,236.852 L57.112,236.852 L57.112,237.416 C56.968,238.232 56.788,239.036 56.548,239.828 L55.708,239.576 C55.924,239.012 56.104,238.388 56.248,237.692 L52.816,237.692 Z" id="名称" fill="#525A6E" fill-rule="nonzero"></path>
                <path d="M274.26,205.456 L279.624,205.456 L279.624,206.164 L280.5,206.164 L280.5,201.1 L275.496,201.1 C277.752,200.056 279.3,198.712 280.164,197.068 L280.164,196.3 L275.484,196.3 C275.724,195.976 275.94,195.64 276.132,195.28 L275.184,195.172 C274.464,196.444 273.084,197.524 271.032,198.4 L271.608,199.144 C272.88,198.544 273.912,197.872 274.728,197.116 L279.168,197.116 C278.604,198.1 277.716,198.952 276.492,199.684 C275.976,199.24 275.256,198.736 274.344,198.172 L273.6,198.64 C274.512,199.156 275.232,199.636 275.76,200.08 C274.38,200.776 272.652,201.328 270.576,201.76 L271.032,202.588 C271.872,202.384 272.652,202.168 273.396,201.928 L273.396,206.164 L274.26,206.164 L274.26,205.456 Z M279.624,204.616 L274.26,204.616 L274.26,201.904 L279.624,201.904 L279.624,204.616 Z M282.696,198.484 L282.696,199.312 L284.352,199.312 C283.968,200.68 283.32,201.892 282.408,202.96 L282.78,203.92 C283.476,202.96 284.04,201.892 284.448,200.716 L284.448,206.164 L285.276,206.164 L285.276,200.74 L285.561375,201.082187 C285.86175,201.45175 286.206,201.904 286.584,202.444 L287.064,201.724 C286.464,201.076 285.876,200.5 285.276,199.972 L285.276,199.312 L286.752,199.312 L286.752,198.484 L285.276,198.484 L285.276,196.636 C285.888,196.516 286.464,196.372 286.992,196.228 L286.692,195.412 C285.54,195.772 284.232,196.012 282.744,196.144 L282.912,196.96 C283.44,196.912 283.944,196.84 284.448,196.768 L284.448,198.484 L282.696,198.484 Z M289.512,206.14 C290.196,206.14 290.544,205.78 290.544,205.06 L290.544,198.712 L289.656,198.712 L289.656,204.844 C289.656,205.192 289.5,205.372 289.212,205.372 C288.888,205.372 288.54,205.348 288.18,205.312 L288.36,206.14 L289.512,206.14 Z M288,200.44 C287.7,201.832 287.232,203.116 286.584,204.268 L287.328,204.736 C287.964,203.572 288.456,202.192 288.804,200.596 L288,200.44 Z M292.104,200.356 L291.324,200.608 C291.828,201.844 292.296,203.26 292.716,204.856 L293.508,204.508 C293.112,203.032 292.644,201.652 292.104,200.356 Z M288.816,197.692 C288.48,198.448 288.06,199.132 287.568,199.732 L287.04,199.048 C287.856,197.992 288.42,196.696 288.708,195.16 L289.56,195.268 C289.452,195.82 289.308,196.348 289.14,196.852 L293.112,196.852 L293.112,197.416 C292.968,198.232 292.788,199.036 292.548,199.828 L291.708,199.576 C291.924,199.012 292.104,198.388 292.248,197.692 L288.816,197.692 Z" id="名称" fill="#525A6E" fill-rule="nonzero"></path>
                <path d="M274.26,235.456 L279.624,235.456 L279.624,236.164 L280.5,236.164 L280.5,231.1 L275.496,231.1 C277.752,230.056 279.3,228.712 280.164,227.068 L280.164,226.3 L275.484,226.3 C275.724,225.976 275.94,225.64 276.132,225.28 L275.184,225.172 C274.464,226.444 273.084,227.524 271.032,228.4 L271.608,229.144 C272.88,228.544 273.912,227.872 274.728,227.116 L279.168,227.116 C278.604,228.1 277.716,228.952 276.492,229.684 C275.976,229.24 275.256,228.736 274.344,228.172 L273.6,228.64 C274.512,229.156 275.232,229.636 275.76,230.08 C274.38,230.776 272.652,231.328 270.576,231.76 L271.032,232.588 C271.872,232.384 272.652,232.168 273.396,231.928 L273.396,236.164 L274.26,236.164 L274.26,235.456 Z M279.624,234.616 L274.26,234.616 L274.26,231.904 L279.624,231.904 L279.624,234.616 Z M282.696,228.484 L282.696,229.312 L284.352,229.312 C283.968,230.68 283.32,231.892 282.408,232.96 L282.78,233.92 C283.476,232.96 284.04,231.892 284.448,230.716 L284.448,236.164 L285.276,236.164 L285.276,230.74 L285.561375,231.082187 C285.86175,231.45175 286.206,231.904 286.584,232.444 L287.064,231.724 C286.464,231.076 285.876,230.5 285.276,229.972 L285.276,229.312 L286.752,229.312 L286.752,228.484 L285.276,228.484 L285.276,226.636 C285.888,226.516 286.464,226.372 286.992,226.228 L286.692,225.412 C285.54,225.772 284.232,226.012 282.744,226.144 L282.912,226.96 C283.44,226.912 283.944,226.84 284.448,226.768 L284.448,228.484 L282.696,228.484 Z M289.512,236.14 C290.196,236.14 290.544,235.78 290.544,235.06 L290.544,228.712 L289.656,228.712 L289.656,234.844 C289.656,235.192 289.5,235.372 289.212,235.372 C288.888,235.372 288.54,235.348 288.18,235.312 L288.36,236.14 L289.512,236.14 Z M288,230.44 C287.7,231.832 287.232,233.116 286.584,234.268 L287.328,234.736 C287.964,233.572 288.456,232.192 288.804,230.596 L288,230.44 Z M292.104,230.356 L291.324,230.608 C291.828,231.844 292.296,233.26 292.716,234.856 L293.508,234.508 C293.112,233.032 292.644,231.652 292.104,230.356 Z M288.816,227.692 C288.48,228.448 288.06,229.132 287.568,229.732 L287.04,229.048 C287.856,227.992 288.42,226.696 288.708,225.16 L289.56,225.268 C289.452,225.82 289.308,226.348 289.14,226.852 L293.112,226.852 L293.112,227.416 C292.968,228.232 292.788,229.036 292.548,229.828 L291.708,229.576 C291.924,229.012 292.104,228.388 292.248,227.692 L288.816,227.692 Z" id="名称" fill="#525A6E" fill-rule="nonzero"></path>
                <rect id="outline" stroke="#DBDFE6" fill-rule="nonzero" x="12.5" y="144.5" width="13" height="13" rx="2"></rect>
                <rect id="outline备份-2" stroke="#DBDFE6" fill-rule="nonzero" x="12.5" y="174.5" width="13" height="13" rx="2"></rect>
                <rect id="outline备份-3" stroke="#DBDFE6" fill-rule="nonzero" x="12.5" y="204.5" width="13" height="13" rx="2"></rect>
                <rect id="outline备份-4" stroke="#DBDFE6" fill-rule="nonzero" x="12.5" y="234.5" width="13" height="13" rx="2"></rect>
                <g id="7.Icon/control/checkbox/Checked-备份-5" transform="translate(248.000000, 104.000000)">
                    <rect id="Rectangle" x="2.625" y="2.625" width="8.75" height="8.75"></rect>
                    <rect id="outline" stroke="#DBDFE6" fill="#F8F8F8" fill-rule="nonzero" x="0.662790698" y="0.662790698" width="12.6744186" height="12.6744186" rx="2"></rect>
                    <path d="M10.6968028,4.08719224 C10.8651422,4.23876574 10.8787337,4.49810641 10.7271602,4.66644584 L5.83553904,10.0991415 C5.78577241,10.1544129 5.72438818,10.1930021 5.6584218,10.2145403 C5.65272956,10.2154927 5.64702545,10.21746 5.64129056,10.2192971 C5.63394035,10.2217714 5.62658665,10.2236029 5.61919451,10.225229 C5.47596411,10.2629265 5.31715493,10.2208997 5.21110269,10.1031168 L5.21110269,10.1031168 L3.27891589,7.95720595 C3.12734239,7.78886652 3.14093386,7.52952585 3.30927329,7.37795235 C3.47761271,7.22637885 3.73695338,7.23997032 3.88852688,7.40830974 L3.88852688,7.40830974 L5.52156164,9.22183799 L10.1175492,4.11754964 C10.2691227,3.94921021 10.5284633,3.93561874 10.6968028,4.08719224 Z" id="Combined-Shape" fill="#999999" fill-rule="nonzero"></path>
                </g>
                <g id="7.Icon/control/checkbox/Checked-备份-6" transform="translate(248.000000, 134.000000)">
                    <rect id="Rectangle" x="2.625" y="2.625" width="8.75" height="8.75"></rect>
                    <rect id="outline" stroke="#DBDFE6" fill="#F8F8F8" fill-rule="nonzero" x="0.662790698" y="0.662790698" width="12.6744186" height="12.6744186" rx="2"></rect>
                    <path d="M10.6968028,4.08719224 C10.8651422,4.23876574 10.8787337,4.49810641 10.7271602,4.66644584 L5.83553904,10.0991415 C5.78577241,10.1544129 5.72438818,10.1930021 5.6584218,10.2145403 C5.65272956,10.2154927 5.64702545,10.21746 5.64129056,10.2192971 C5.63394035,10.2217714 5.62658665,10.2236029 5.61919451,10.225229 C5.47596411,10.2629265 5.31715493,10.2208997 5.21110269,10.1031168 L5.21110269,10.1031168 L3.27891589,7.95720595 C3.12734239,7.78886652 3.14093386,7.52952585 3.30927329,7.37795235 C3.47761271,7.22637885 3.73695338,7.23997032 3.88852688,7.40830974 L3.88852688,7.40830974 L5.52156164,9.22183799 L10.1175492,4.11754964 C10.2691227,3.94921021 10.5284633,3.93561874 10.6968028,4.08719224 Z" id="Combined-Shape" fill="#999999" fill-rule="nonzero"></path>
                </g>
                <g id="7.Icon/control/checkbox/Checked-备份-7" transform="translate(248.000000, 164.000000)">
                    <rect id="Rectangle" x="2.625" y="2.625" width="8.75" height="8.75"></rect>
                    <rect id="outline" stroke="#DBDFE6" fill="#F8F8F8" fill-rule="nonzero" x="0.662790698" y="0.662790698" width="12.6744186" height="12.6744186" rx="2"></rect>
                    <path d="M10.6968028,4.08719224 C10.8651422,4.23876574 10.8787337,4.49810641 10.7271602,4.66644584 L5.83553904,10.0991415 C5.78577241,10.1544129 5.72438818,10.1930021 5.6584218,10.2145403 C5.65272956,10.2154927 5.64702545,10.21746 5.64129056,10.2192971 C5.63394035,10.2217714 5.62658665,10.2236029 5.61919451,10.225229 C5.47596411,10.2629265 5.31715493,10.2208997 5.21110269,10.1031168 L5.21110269,10.1031168 L3.27891589,7.95720595 C3.12734239,7.78886652 3.14093386,7.52952585 3.30927329,7.37795235 C3.47761271,7.22637885 3.73695338,7.23997032 3.88852688,7.40830974 L3.88852688,7.40830974 L5.52156164,9.22183799 L10.1175492,4.11754964 C10.2691227,3.94921021 10.5284633,3.93561874 10.6968028,4.08719224 Z" id="Combined-Shape" fill="#999999" fill-rule="nonzero"></path>
                </g>
                <g id="7.Icon/control/checkbox/Checked-备份-8" transform="translate(248.000000, 194.000000)">
                    <rect id="Rectangle" x="2.625" y="2.625" width="8.75" height="8.75"></rect>
                    <rect id="outline" stroke="#DBDFE6" fill-rule="nonzero" x="0.662790698" y="0.662790698" width="12.6744186" height="12.6744186" rx="2"></rect>
                </g>
                <g id="7.Icon/control/checkbox/Checked-备份-10" transform="translate(248.000000, 224.000000)">
                    <rect id="Rectangle" x="2.625" y="2.625" width="8.75" height="8.75"></rect>
                    <rect id="outline" stroke="#DBDFE6" fill-rule="nonzero" x="0.662790698" y="0.662790698" width="12.6744186" height="12.6744186" rx="2"></rect>
                </g>
                <path d="M38.26,125.456 L43.624,125.456 L43.624,126.164 L44.5,126.164 L44.5,121.1 L39.496,121.1 C41.752,120.056 43.3,118.712 44.164,117.068 L44.164,116.3 L39.484,116.3 C39.724,115.976 39.94,115.64 40.132,115.28 L39.184,115.172 C38.464,116.444 37.084,117.524 35.032,118.4 L35.608,119.144 C36.88,118.544 37.912,117.872 38.728,117.116 L43.168,117.116 C42.604,118.1 41.716,118.952 40.492,119.684 C39.976,119.24 39.256,118.736 38.344,118.172 L37.6,118.64 C38.512,119.156 39.232,119.636 39.76,120.08 C38.38,120.776 36.652,121.328 34.576,121.76 L35.032,122.588 C35.872,122.384 36.652,122.168 37.396,121.928 L37.396,126.164 L38.26,126.164 L38.26,125.456 Z M43.624,124.616 L38.26,124.616 L38.26,121.904 L43.624,121.904 L43.624,124.616 Z M46.696,118.484 L46.696,119.312 L48.352,119.312 C47.968,120.68 47.32,121.892 46.408,122.96 L46.78,123.92 C47.476,122.96 48.04,121.892 48.448,120.716 L48.448,126.164 L49.276,126.164 L49.276,120.74 C49.636,121.16 50.08,121.724 50.584,122.444 L51.064,121.724 C50.464,121.076 49.876,120.5 49.276,119.972 L49.276,119.312 L50.752,119.312 L50.752,118.484 L49.276,118.484 L49.276,116.636 C49.888,116.516 50.464,116.372 50.992,116.228 L50.692,115.412 C49.54,115.772 48.232,116.012 46.744,116.144 L46.912,116.96 C47.44,116.912 47.944,116.84 48.448,116.768 L48.448,118.484 L46.696,118.484 Z M53.512,126.14 C54.196,126.14 54.544,125.78 54.544,125.06 L54.544,118.712 L53.656,118.712 L53.656,124.844 C53.656,125.192 53.5,125.372 53.212,125.372 C52.888,125.372 52.54,125.348 52.18,125.312 L52.36,126.14 L53.512,126.14 Z M52,120.44 C51.7,121.832 51.232,123.116 50.584,124.268 L51.328,124.736 C51.964,123.572 52.456,122.192 52.804,120.596 L52,120.44 Z M56.104,120.356 L55.324,120.608 C55.828,121.844 56.296,123.26 56.716,124.856 L57.508,124.508 C57.112,123.032 56.644,121.652 56.104,120.356 Z M52.816,117.692 C52.48,118.448 52.06,119.132 51.568,119.732 L51.04,119.048 C51.856,117.992 52.42,116.696 52.708,115.16 L53.56,115.268 C53.452,115.82 53.308,116.348 53.14,116.852 L57.112,116.852 L57.112,117.416 C56.968,118.232 56.788,119.036 56.548,119.828 L55.708,119.576 C55.924,119.012 56.104,118.388 56.248,117.692 L52.816,117.692 Z" id="名称" fill="#525A6E" fill-rule="nonzero"></path>
                <path d="M274.26,85.456 L279.624,85.456 L279.624,86.164 L280.5,86.164 L280.5,81.1 L275.496,81.1 C277.752,80.056 279.3,78.712 280.164,77.068 L280.164,76.3 L275.484,76.3 C275.724,75.976 275.94,75.64 276.132,75.28 L275.184,75.172 C274.464,76.444 273.084,77.524 271.032,78.4 L271.608,79.144 C272.88,78.544 273.912,77.872 274.728,77.116 L279.168,77.116 C278.604,78.1 277.716,78.952 276.492,79.684 C275.976,79.24 275.256,78.736 274.344,78.172 L273.6,78.64 C274.512,79.156 275.232,79.636 275.76,80.08 C274.38,80.776 272.652,81.328 270.576,81.76 L271.032,82.588 C271.872,82.384 272.652,82.168 273.396,81.928 L273.396,86.164 L274.26,86.164 L274.26,85.456 Z M279.624,84.616 L274.26,84.616 L274.26,81.904 L279.624,81.904 L279.624,84.616 Z M282.696,78.484 L282.696,79.312 L284.352,79.312 C283.968,80.68 283.32,81.892 282.408,82.96 L282.78,83.92 C283.476,82.96 284.04,81.892 284.448,80.716 L284.448,86.164 L285.276,86.164 L285.276,80.74 L285.561375,81.0821875 C285.86175,81.45175 286.206,81.904 286.584,82.444 L287.064,81.724 C286.464,81.076 285.876,80.5 285.276,79.972 L285.276,79.312 L286.752,79.312 L286.752,78.484 L285.276,78.484 L285.276,76.636 C285.888,76.516 286.464,76.372 286.992,76.228 L286.692,75.412 C285.54,75.772 284.232,76.012 282.744,76.144 L282.912,76.96 C283.44,76.912 283.944,76.84 284.448,76.768 L284.448,78.484 L282.696,78.484 Z M289.512,86.14 C290.196,86.14 290.544,85.78 290.544,85.06 L290.544,78.712 L289.656,78.712 L289.656,84.844 C289.656,85.192 289.5,85.372 289.212,85.372 C288.888,85.372 288.54,85.348 288.18,85.312 L288.36,86.14 L289.512,86.14 Z M288,80.44 C287.7,81.832 287.232,83.116 286.584,84.268 L287.328,84.736 C287.964,83.572 288.456,82.192 288.804,80.596 L288,80.44 Z M292.104,80.356 L291.324,80.608 C291.828,81.844 292.296,83.26 292.716,84.856 L293.508,84.508 C293.112,83.032 292.644,81.652 292.104,80.356 Z M288.816,77.692 C288.48,78.448 288.06,79.132 287.568,79.732 L287.04,79.048 C287.856,77.992 288.42,76.696 288.708,75.16 L289.56,75.268 C289.452,75.82 289.308,76.348 289.14,76.852 L293.112,76.852 L293.112,77.416 C292.968,78.232 292.788,79.036 292.548,79.828 L291.708,79.576 C291.924,79.012 292.104,78.388 292.248,77.692 L288.816,77.692 Z" id="名称" fill="#525A6E" fill-rule="nonzero"></path>
                <g id="7.Icon/control/checkbox/Checked-" transform="translate(12.000000, 114.000000)">
                    <g id="icon/z/checkboxChecked-Copy" fill="#4F7DE7" fill-rule="nonzero">
                        <rect id="box" x="0" y="0" width="14" height="14" rx="2"></rect>
                    </g>
                    <g id="check" transform="translate(2.625000, 2.625000)">
                        <rect id="Rectangle" fill="#618FE8" opacity="0" x="0" y="0" width="8.75" height="8.75"></rect>
                        <path d="M8.28125,1.23046875 L7.59863281,1.23046875 C7.50292969,1.23046875 7.41210938,1.27441406 7.35351563,1.34960938 L3.32714844,6.45019531 L1.39648438,4.00390625 C1.33691406,3.92871094 1.24707031,3.88476562 1.15136719,3.88476562 L0.46875,3.88476562 C0.403320313,3.88476562 0.3671875,3.95996094 0.407226563,4.01074219 L3.08203125,7.39941406 C3.20703125,7.55761719 3.44726563,7.55761719 3.57324219,7.39941406 L8.34277344,1.35546875 C8.3828125,1.30566406 8.34667969,1.23046875 8.28125,1.23046875 Z" id="Path" stroke="#FFFFFF" stroke-width="0.833333333" fill="#FFFFFF"></path>
                    </g>
                </g>
                <g id="7.Icon/control/checkbox/Checked-备份-9" transform="translate(248.000000, 74.000000)">
                    <g id="icon/z/checkboxChecked-Copy" fill="#4F7DE7" fill-rule="nonzero">
                        <rect id="box" x="0" y="0" width="14" height="14" rx="2"></rect>
                    </g>
                    <g id="check" transform="translate(2.625000, 2.625000)">
                        <rect id="Rectangle" fill="#618FE8" opacity="0" x="0" y="0" width="8.75" height="8.75"></rect>
                        <path d="M8.28125,1.23046875 L7.59863281,1.23046875 C7.50292969,1.23046875 7.41210938,1.27441406 7.35351563,1.34960938 L3.32714844,6.45019531 L1.39648438,4.00390625 C1.33691406,3.92871094 1.24707031,3.88476562 1.15136719,3.88476562 L0.46875,3.88476562 C0.403320313,3.88476562 0.3671875,3.95996094 0.407226563,4.01074219 L3.08203125,7.39941406 C3.20703125,7.55761719 3.44726563,7.55761719 3.57324219,7.39941406 L8.34277344,1.35546875 C8.3828125,1.30566406 8.34667969,1.23046875 8.28125,1.23046875 Z" id="Path" stroke="#FFFFFF" stroke-width="0.833333333" fill="#FFFFFF"></path>
                    </g>
                </g>
                <g id="编组" transform="translate(10.000000, 40.000000)" fill-rule="nonzero">
                    <g id="9.Box/1.Cards/4.Border">
                        <rect id="BG/fill" fill="#FFFFFF" x="0" y="1" width="168" height="30" rx="3"></rect>
                        <rect id="outline" stroke="#DBDFE6" x="2.5" y="0.5" width="163" height="31" rx="4"></rect>
                    </g>
                    <path d="M21.368,10.196 L21.368,10.976 L18.464,10.976 L18.464,11.684 L21.368,11.684 L21.368,12.488 L18.944,12.488 L18.944,13.184 L21.368,13.184 L21.368,14 L18.128,14 L18.128,14.72 L25.472,14.72 L25.472,14 L22.196,14 L22.196,13.184 L24.74,13.184 L24.74,12.488 L22.196,12.488 L22.196,11.684 L25.172,11.684 L25.172,10.976 L22.196,10.976 L22.196,10.196 L21.368,10.196 Z M19.868,17.744 L23.744,17.744 L23.744,18.62 L19.868,18.62 L19.868,17.744 Z M23.744,17.072 L19.868,17.072 L19.868,16.184 L23.744,16.184 L23.744,17.072 Z M19.868,19.292 L23.744,19.292 L23.744,19.976 C23.744,20.252 23.588,20.396 23.3,20.396 L22.34,20.36 L22.544,21.128 L23.552,21.128 C24.224,21.128 24.572,20.804 24.572,20.156 L24.572,15.476 L19.04,15.476 L19.04,21.2 L19.868,21.2 L19.868,19.292 Z M15.956,10.328 L15.344,10.916 C16.208,11.564 16.892,12.176 17.396,12.752 L17.984,12.152 C17.432,11.54 16.76,10.928 15.956,10.328 Z M14.504,13.868 L14.504,14.696 L16.22,14.696 L16.22,19.46 C16.22,19.664 16.124,19.844 15.944,20.012 L16.28,20.78 C17.024,20.24 17.744,19.616 18.416,18.92 L18.188,18.008 C17.78,18.428 17.408,18.8 17.048,19.136 L17.048,13.868 L14.504,13.868 Z M28.748,13.532 L28.748,15.32 L27.56,15.32 C27.86,14.552 28.136,13.676 28.4,12.692 L30.716,12.692 L30.716,11.876 L28.604,11.876 L28.766,11.1305 C28.82,10.874 28.874,10.61 28.928,10.34 L28.136,10.16 C28.028,10.76 27.92,11.324 27.8,11.876 L26.612,11.876 L26.612,12.692 L27.608,12.692 C27.332,13.76 27.032,14.66 26.696,15.38 L26.876,16.1 L28.748,16.1 L28.748,17.888 C28.052,18.02 27.308,18.14 26.516,18.236 L26.624,19.076 C27.356,18.968 28.064,18.848 28.748,18.716 L28.748,21.2 L29.552,21.2 L29.552,18.536 L30.692,18.248 L30.692,17.432 C30.332,17.528 29.96,17.624 29.552,17.72 L29.552,16.1 L30.656,16.1 L30.656,15.32 L29.552,15.32 L29.552,13.532 L28.748,13.532 Z M32.288,12.92 L32.288,13.628 L35.732,13.628 L35.732,12.908 L32.3,12.908 C32.9,12.332 33.476,11.696 34.052,11 C34.964,12.176 35.984,13.172 37.112,13.988 L37.568,13.304 C36.476,12.536 35.408,11.516 34.364,10.22 L33.74,10.22 C32.768,11.42 31.664,12.476 30.44,13.376 L30.908,14.096 C31.376,13.736 31.832,13.34 32.288,12.92 Z M33.128,21.116 C33.716,21.116 34.016,20.804 34.016,20.192 L34.016,14.588 L31.184,14.588 L31.184,21.2 L31.94,21.2 L31.94,18.956 L33.284,18.956 L33.284,20.036 C33.284,20.3 33.152,20.432 32.888,20.432 L32.36,20.408 L32.552,21.116 L33.128,21.116 Z M31.94,18.284 L31.94,17.144 L33.284,17.144 L33.284,18.284 L31.94,18.284 Z M31.94,16.472 L31.94,15.284 L33.284,15.284 L33.284,16.472 L31.94,16.472 Z M34.736,14.924 L34.736,19.232 L35.408,19.232 L35.408,14.924 L34.736,14.924 Z M36.044,21.14 C36.62,21.14 36.92,20.792 36.92,20.108 L36.92,14.384 L36.164,14.384 L36.164,19.916 C36.164,20.252 36.032,20.432 35.78,20.432 C35.48,20.432 35.168,20.408 34.844,20.384 L35.024,21.14 L36.044,21.14 Z M43.472,12.98 C42.92,11.972 42.26,11.204 41.492,10.652 L42.212,10.196 C43.28,10.94 44.18,12.296 44.924,14.24 C46.052,17.108 47.552,19.136 49.448,20.324 L48.908,21.02 C46.964,19.844 45.38,17.66 44.144,14.492 L44.0124444,14.14 C43.992,14.0866667 43.972,14.036 43.952,13.988 C43.16,17.048 41.504,19.4 38.984,21.032 L38.468,20.3 C41.036,18.62 42.704,16.172 43.472,12.98 Z" id="请输入" fill="#999999"></path>
                    <path d="M154.5,9.75 C151.876562,9.75 149.75,11.8765625 149.75,14.5 C149.75,15.5984375 150.123437,16.609375 150.748437,17.4140625 L146.785937,21.3765625 C146.7375,21.425 146.7375,21.5046875 146.785937,21.553125 L147.446875,22.2140625 C147.495312,22.2625 147.575,22.2625 147.623437,22.2140625 L151.585937,18.2515625 C152.390625,18.8765625 153.401562,19.25 154.5,19.25 C157.123437,19.25 159.25,17.1234375 159.25,14.5 C159.25,11.8765625 157.123437,9.75 154.5,9.75 Z M157.01875,17.01875 C156.346875,17.6921875 155.451562,18.0625 154.5,18.0625 C153.548437,18.0625 152.653125,17.6921875 151.98125,17.01875 C151.307812,16.346875 150.9375,15.4515625 150.9375,14.5 C150.9375,13.5484375 151.307812,12.653125 151.98125,11.98125 C152.653125,11.3078125 153.548437,10.9375 154.5,10.9375 C155.451562,10.9375 156.346875,11.3078125 157.01875,11.98125 C157.692187,12.653125 158.0625,13.5484375 158.0625,14.5 C158.0625,15.4515625 157.692187,16.346875 157.01875,17.01875 Z" id="fill" fill="#000000" opacity="0.25"></path>
                </g>
                <g id="编组-54" transform="translate(200.000000, 104.000000)" fill-rule="nonzero">
                    <g id="9.Box/1.Cards/8.Primary" fill="#4F7DE7">
                        <g id="Z/Shape/RectangleRC/4px/RC-A">
                            <rect id="outline" x="0" y="0" width="24" height="24" rx="12"></rect>
                        </g>
                    </g>
                    <g id="箭头_右备份-8" transform="translate(4.000000, 4.000000)">
                        <rect id="矩形" fill="#000000" opacity="0" x="0" y="0" width="16" height="16"></rect>
                        <path d="M10.4935781,7.99548438 L9.87610937,7.37801562 L6.27154687,3.77345313 L6.27121875,3.77378125 C6.26709823,3.76926145 6.26288377,3.76482819 6.25857812,3.76048437 C6.08771875,3.589625 5.81071875,3.589625 5.63985937,3.76048437 C5.469,3.93134375 5.469,4.20834375 5.63985937,4.37920313 C5.64420312,4.38354688 5.64867187,4.38771875 5.65315625,4.39184375 L5.65282812,4.39217188 L9.257375,7.99671875 L5.6333125,11.6207813 C5.46245312,11.7916406 5.46245312,12.0686406 5.6333125,12.2395 C5.80417187,12.4103594 6.08117187,12.4103594 6.25203125,12.2395 L10.4948125,7.99671875 L10.4935781,7.99548438 Z" id="路径" fill="#FFFFFF"></path>
                    </g>
                </g>
                <g id="编组-55" transform="translate(200.000000, 134.000000)" fill-rule="nonzero">
                    <g id="9.Box/1.Cards/8.Primary备份" fill="#FFFFFF" stroke="#DBDFE6">
                        <g id="Z/Shape/RectangleRC/4px/RC-A">
                            <rect id="outline" x="0.5" y="0.5" width="23" height="23" rx="11.5"></rect>
                        </g>
                    </g>
                    <g id="箭头_右备份-9" transform="translate(12.000000, 12.000000) scale(-1, 1) translate(-12.000000, -12.000000) translate(4.000000, 4.000000)">
                        <rect id="矩形" fill="#000000" opacity="0" x="0" y="0" width="16" height="16"></rect>
                        <path d="M10.4935781,7.99548438 L9.87610937,7.37801562 L6.27154687,3.77345313 L6.27121875,3.77378125 C6.26709823,3.76926145 6.26288377,3.76482819 6.25857812,3.76048437 C6.08771875,3.589625 5.81071875,3.589625 5.63985937,3.76048437 C5.469,3.93134375 5.469,4.20834375 5.63985937,4.37920313 C5.64420312,4.38354688 5.64867187,4.38771875 5.65315625,4.39184375 L5.65282812,4.39217188 L9.257375,7.99671875 L5.6333125,11.6207813 C5.46245312,11.7916406 5.46245312,12.0686406 5.6333125,12.2395 C5.80417187,12.4103594 6.08117187,12.4103594 6.25203125,12.2395 L10.4948125,7.99671875 L10.4935781,7.99548438 Z" id="路径" fill="#525A6E"></path>
                    </g>
                </g>
            </g>
            <text id="样式一备份-5" font-family="MicrosoftYaHei, Microsoft YaHei" font-size="12" font-weight="normal" line-spacing="22" fill="#525A6E">
                <tspan x="8" y="27">样式一</tspan>
            </text>
        </g>
    </g>
</svg>