<?xml version="1.0" encoding="UTF-8"?>
<svg width="494px" height="218px" viewBox="0 0 494 218" version="1.1" xmlns="http://www.w3.org/2000/svg" xmlns:xlink="http://www.w3.org/1999/xlink">
    <!-- Generator: Sketch 58 (84663) - https://sketch.com -->
    <title>list-single/style1</title>
    <desc>Created with Sketch.</desc>
    <g id="页面-1" stroke="none" stroke-width="1" fill="none" fill-rule="evenodd">
        <g id="list-single/style1">
            <g id="编组-20">
                <rect id="矩形备份" fill-opacity="0.01" fill="#FAFAFA" x="0" y="0" width="494" height="218"></rect>
                <g id="编组-2" transform="translate(52.000000, 18.000000)">
                    <text id="标题文案" font-family="MicrosoftYaHei, Microsoft YaHei" font-size="14" font-weight="normal" line-spacing="22" fill="#333333">
                        <tspan x="12" y="15">标题文案</tspan>
                    </text>
                    <path d="M14.1796875,49.3378906 L14.7539062,48.6816406 C15.3476592,49.1699243 15.8886694,49.6484352 16.3769531,50.1171875 C16.9003932,49.210933 17.2695302,48.2285209 17.484375,47.1699219 L14.8476562,47.1699219 C14.2343719,48.5761789 13.4804732,49.8417912 12.5859375,50.9667969 C12.4140616,50.5683574 12.2578132,50.2558605 12.1171875,50.0292969 C13.2968809,48.4433514 14.2050749,46.5879013 14.8417969,44.4628906 L12.5039062,44.4628906 L12.5039062,43.6191406 L19.078125,43.6191406 L19.078125,44.4628906 L15.8085938,44.4628906 C15.6249991,45.1074251 15.419923,45.7285126 15.1933594,46.3261719 L18.4453125,46.3261719 L18.4453125,47.1816406 C17.8046843,50.3847816 16.1211074,52.8574132 13.3945312,54.5996094 C13.1914052,54.3652332 12.9492202,54.1269543 12.6679688,53.8847656 C14.0039129,53.0214801 15.0742147,52.0234432 15.8789062,50.890625 C15.4335915,50.4531228 14.8671909,49.9355499 14.1796875,49.3378906 Z M22.1601562,43.1972656 L23.0976562,43.1972656 L23.0976562,52.8769531 C23.0976562,53.8691456 22.648442,54.3691406 21.75,54.3769531 L21.43287,54.3804254 C21.0271028,54.3824508 20.496097,54.3773872 19.8398438,54.3652344 C19.8007811,54.0058576 19.7382817,53.6542986 19.6523438,53.3105469 L20.3867201,53.3691408 C20.829428,53.4003908 21.1783841,53.4160156 21.4335938,53.4160156 C21.9179712,53.4160156 22.1601562,53.1542995 22.1601562,52.6308594 L22.1601562,43.1972656 Z M20.4726562,51.6699219 L19.5703125,51.6699219 L19.5703125,44.4980469 L20.4726562,44.4980469 L20.4726562,51.6699219 Z M34.3476562,49.4550781 L34.9921875,50.2636719 L32.3730469,51.5761719 C33.2910202,52.3261756 34.4413993,52.8222644 35.8242188,53.0644531 C35.5585924,53.4082048 35.3398446,53.7207017 35.1679688,54.0019531 C32.6484249,53.4003876 30.8418023,51.851575 29.7480469,49.3554688 C29.3496074,49.8632838 28.8945338,50.3457008 28.3828125,50.8027344 L28.3828125,53.3105469 C29.4140677,52.9746077 30.3710893,52.6230487 31.2539062,52.2558594 C31.2460937,52.5996111 31.2499999,52.9394531 31.265625,53.2753906 C30.3281203,53.5957047 29.35938,53.9472637 28.359375,54.3300781 C28.1484364,54.4160161 27.9414073,54.5175775 27.7382812,54.6347656 L27.1875,53.7792969 C27.4062511,53.6230461 27.515625,53.4042983 27.515625,53.1230469 L27.515625,51.5117188 C26.7070272,52.1171905 25.7890676,52.6660132 24.7617188,53.1582031 C24.5898429,52.8847643 24.3906261,52.6152357 24.1640625,52.3496094 C26.1836038,51.5214802 27.7695255,50.4121163 28.921875,49.0214844 L24.2929688,49.0214844 L24.2929688,48.2128906 L29.5429688,48.2128906 L29.5429688,47.0175781 L25.125,47.0175781 L25.125,46.2089844 L29.5429688,46.2089844 L29.5429688,45.0605469 L24.65625,45.0605469 L24.65625,44.2519531 L29.5429688,44.2519531 L29.5429688,42.9394531 L30.46875,42.9394531 L30.46875,44.2519531 L35.3789062,44.2519531 L35.3789062,45.0605469 L30.46875,45.0605469 L30.46875,46.2089844 L34.875,46.2089844 L34.875,47.0175781 L30.46875,47.0175781 L30.46875,48.2128906 L35.7070312,48.2128906 L35.7070312,49.0214844 L30.4980469,49.0214844 C30.8261735,49.7832069 31.2480443,50.4433566 31.7636719,51.0019531 C32.5488321,50.6113262 33.4101516,50.0957063 34.3476562,49.4550781 Z M36.3632812,45.0488281 L41.9882812,45.0488281 L41.6223952,44.3665352 C41.3975691,43.9568133 41.2109382,43.6373709 41.0625,43.4082031 L41.9648438,42.9863281 L42.2200521,43.392578 C42.414496,43.7102855 42.6575506,44.1217423 42.9492188,44.6269531 L42.1054688,45.0488281 L47.6132812,45.0488281 L47.6132812,45.9160156 L45.4511719,45.9160156 C45.033201,48.1464955 44.1347725,49.9394463 42.7558594,51.2949219 C43.7949271,52.0527382 45.4453012,52.7324189 47.7070312,53.3339844 C47.3476545,53.7402364 47.0742197,54.0800768 46.8867188,54.3535156 C44.6835827,53.5917931 43.0566459,52.794926 42.0058594,51.9628906 C40.9511666,52.7832072 39.2656366,53.6113239 36.9492188,54.4472656 L36.6210942,54.013672 C36.5039069,53.8613286 36.3789069,53.7011727 36.2460938,53.5332031 C38.4804799,52.8613248 40.1621037,52.1132854 41.2910156,51.2890625 C39.8652272,49.7656174 38.9589863,47.9746197 38.5722656,45.9160156 L36.3632812,45.9160156 L36.3632812,45.0488281 Z M44.4492188,45.9160156 L39.5097656,45.9160156 C39.8613299,47.8379002 40.7011652,49.425775 42.0292969,50.6796875 C43.2988345,49.4999941 44.105467,47.9121194 44.4492188,45.9160156 Z M48.7851562,49.5839844 L49.6246099,49.4824678 C51.1094497,49.2920322 52.2964198,49.0778257 53.1855469,48.8398438 C52.2480422,48.5898425 51.300786,48.3457043 50.34375,48.1074219 C50.6640641,47.7636702 50.96875,47.4238298 51.2578125,47.0878906 L48.46875,47.0878906 L48.46875,46.3144531 L51.890625,46.3144531 C52.1875015,45.9394512 52.4609363,45.5683612 52.7109375,45.2011719 L53.6601562,45.4707031 C53.4492177,45.7519545 53.2246106,46.0332017 52.9863281,46.3144531 L59.53125,46.3144531 L59.53125,47.0878906 L57.0117188,47.0878906 C56.6406231,47.7480502 56.138675,48.2832011 55.5058594,48.6933594 L56.8136729,49.0392971 C57.4511715,49.209453 58.0640596,49.3753898 58.6523438,49.5371094 L58.2773438,50.3222656 C57.0390563,49.9316387 55.7793033,49.5585955 54.4980469,49.203125 C53.3105409,49.6718773 51.5195432,50.0566391 49.125,50.3574219 C49.0312495,50.1074206 48.9179694,49.8496107 48.7851562,49.5839844 Z M59.8476562,53.3691406 C59.5820299,53.6816422 59.3554697,53.974608 59.1679688,54.2480469 C57.1054584,53.6308563 55.523443,52.8750045 54.421875,51.9804688 L54.421875,54.6230469 L53.578125,54.6230469 L53.578125,51.9980469 C52.3945253,52.8339886 50.8203223,53.5878873 48.8554688,54.2597656 C48.6757812,54.033202 48.4492201,53.7675796 48.1757812,53.4628906 C50.1914163,52.9589819 51.7871035,52.3378943 52.9628906,51.5996094 L48.4453125,51.5996094 L48.4453125,50.8144531 L53.578125,50.8144531 L53.578125,49.8535156 L54.421875,49.8535156 L54.421875,50.8144531 L59.625,50.8144531 L59.625,51.5996094 L55.0605469,51.5996094 C56.294928,52.4316448 57.8906152,53.0214826 59.8476562,53.3691406 Z M48.7851562,44.1230469 L53.6953125,44.1230469 C53.5468743,43.8535143 53.375001,43.5761733 53.1796875,43.2910156 L54.0117188,42.9160156 C54.2656263,43.3144551 54.5058582,43.7167948 54.7324219,44.1230469 L59.203125,44.1230469 L59.203125,45.8925781 L58.3125,45.8925781 L58.3125,44.8964844 L49.6757812,44.8964844 L49.6757812,45.8925781 L48.7851562,45.8925781 L48.7851562,44.1230469 Z M51.6796875,47.7324219 L53.7582996,48.2498776 C53.9819323,48.3062741 54.2031239,48.3623044 54.421875,48.4179688 C55.1093784,48.1132797 55.6464824,47.6699248 56.0332031,47.0878906 L52.3007812,47.0878906 C52.1015615,47.3027354 51.8945323,47.5175771 51.6796875,47.7324219 Z M62.1796875,49.3378906 L62.7539062,48.6816406 C63.3476592,49.1699243 63.8886694,49.6484352 64.3769531,50.1171875 C64.9003932,49.210933 65.2695302,48.2285209 65.484375,47.1699219 L62.8476562,47.1699219 C62.2343719,48.5761789 61.4804732,49.8417912 60.5859375,50.9667969 C60.4140616,50.5683574 60.2578132,50.2558605 60.1171875,50.0292969 C61.2968809,48.4433514 62.2050749,46.5879013 62.8417969,44.4628906 L60.5039062,44.4628906 L60.5039062,43.6191406 L67.078125,43.6191406 L67.078125,44.4628906 L63.8085938,44.4628906 C63.6249991,45.1074251 63.419923,45.7285126 63.1933594,46.3261719 L66.4453125,46.3261719 L66.4453125,47.1816406 C65.8046843,50.3847816 64.1211074,52.8574132 61.3945312,54.5996094 C61.1914052,54.3652332 60.9492202,54.1269543 60.6679688,53.8847656 C62.0039129,53.0214801 63.0742147,52.0234432 63.8789062,50.890625 C63.4335915,50.4531228 62.8671909,49.9355499 62.1796875,49.3378906 Z M70.1601562,43.1972656 L71.0976562,43.1972656 L71.0976562,52.8769531 C71.0976562,53.8691456 70.648442,54.3691406 69.75,54.3769531 L69.43287,54.3804254 C69.0271028,54.3824508 68.496097,54.3773872 67.8398438,54.3652344 C67.8007811,54.0058576 67.7382817,53.6542986 67.6523438,53.3105469 L68.3867201,53.3691408 C68.829428,53.4003908 69.1783841,53.4160156 69.4335938,53.4160156 C69.9179712,53.4160156 70.1601562,53.1542995 70.1601562,52.6308594 L70.1601562,43.1972656 Z M68.4726562,51.6699219 L67.5703125,51.6699219 L67.5703125,44.4980469 L68.4726562,44.4980469 L68.4726562,51.6699219 Z M82.3476562,49.4550781 L82.9921875,50.2636719 L80.3730469,51.5761719 C81.2910202,52.3261756 82.4413993,52.8222644 83.8242188,53.0644531 C83.5585924,53.4082048 83.3398446,53.7207017 83.1679688,54.0019531 C80.6484249,53.4003876 78.8418023,51.851575 77.7480469,49.3554688 C77.3496074,49.8632838 76.8945338,50.3457008 76.3828125,50.8027344 L76.3828125,53.3105469 C77.4140677,52.9746077 78.3710893,52.6230487 79.2539062,52.2558594 C79.2460937,52.5996111 79.2499999,52.9394531 79.265625,53.2753906 C78.3281203,53.5957047 77.35938,53.9472637 76.359375,54.3300781 C76.1484364,54.4160161 75.9414073,54.5175775 75.7382812,54.6347656 L75.1875,53.7792969 C75.4062511,53.6230461 75.515625,53.4042983 75.515625,53.1230469 L75.515625,51.5117188 C74.7070272,52.1171905 73.7890676,52.6660132 72.7617188,53.1582031 C72.5898429,52.8847643 72.3906261,52.6152357 72.1640625,52.3496094 C74.1836038,51.5214802 75.7695255,50.4121163 76.921875,49.0214844 L72.2929688,49.0214844 L72.2929688,48.2128906 L77.5429688,48.2128906 L77.5429688,47.0175781 L73.125,47.0175781 L73.125,46.2089844 L77.5429688,46.2089844 L77.5429688,45.0605469 L72.65625,45.0605469 L72.65625,44.2519531 L77.5429688,44.2519531 L77.5429688,42.9394531 L78.46875,42.9394531 L78.46875,44.2519531 L83.3789062,44.2519531 L83.3789062,45.0605469 L78.46875,45.0605469 L78.46875,46.2089844 L82.875,46.2089844 L82.875,47.0175781 L78.46875,47.0175781 L78.46875,48.2128906 L83.7070312,48.2128906 L83.7070312,49.0214844 L78.4980469,49.0214844 C78.8261735,49.7832069 79.2480443,50.4433566 79.7636719,51.0019531 C80.5488321,50.6113262 81.4101516,50.0957063 82.3476562,49.4550781 Z M84.3632812,45.0488281 L89.9882812,45.0488281 L89.6223952,44.3665352 C89.3975691,43.9568133 89.2109382,43.6373709 89.0625,43.4082031 L89.9648438,42.9863281 L90.2200521,43.392578 C90.414496,43.7102855 90.6575506,44.1217423 90.9492188,44.6269531 L90.1054688,45.0488281 L95.6132812,45.0488281 L95.6132812,45.9160156 L93.4511719,45.9160156 C93.033201,48.1464955 92.1347725,49.9394463 90.7558594,51.2949219 C91.7949271,52.0527382 93.4453012,52.7324189 95.7070312,53.3339844 C95.3476545,53.7402364 95.0742197,54.0800768 94.8867188,54.3535156 C92.6835827,53.5917931 91.0566459,52.794926 90.0058594,51.9628906 C88.9511666,52.7832072 87.2656366,53.6113239 84.9492188,54.4472656 L84.6210942,54.013672 C84.5039069,53.8613286 84.3789069,53.7011727 84.2460938,53.5332031 C86.4804799,52.8613248 88.1621037,52.1132854 89.2910156,51.2890625 C87.8652272,49.7656174 86.9589863,47.9746197 86.5722656,45.9160156 L84.3632812,45.9160156 L84.3632812,45.0488281 Z M92.4492188,45.9160156 L87.5097656,45.9160156 C87.8613299,47.8379002 88.7011652,49.425775 90.0292969,50.6796875 C91.2988345,49.4999941 92.105467,47.9121194 92.4492188,45.9160156 Z M107.847656,53.3691406 C107.58203,53.6816422 107.35547,53.974608 107.167969,54.2480469 C105.105458,53.6308563 103.523443,52.8750045 102.421875,51.9804688 L102.421875,54.6230469 L101.578125,54.6230469 L101.578125,51.9980469 C100.394525,52.8339886 98.8203223,53.5878873 96.8554688,54.2597656 C96.6757812,54.033202 96.4492201,53.7675796 96.1757812,53.4628906 C98.1914163,52.9589819 99.7871035,52.3378943 100.962891,51.5996094 L96.4453125,51.5996094 L96.4453125,50.8144531 L101.578125,50.8144531 L101.578125,49.8535156 L102.421875,49.8535156 L102.421875,50.8144531 L107.625,50.8144531 L107.625,51.5996094 L103.060547,51.5996094 C104.294928,52.4316448 105.890615,53.0214826 107.847656,53.3691406 Z M96.7851562,44.1230469 L101.695312,44.1230469 C101.546874,43.8535143 101.375001,43.5761733 101.179688,43.2910156 L102.011719,42.9160156 C102.265626,43.3144551 102.505858,43.7167948 102.732422,44.1230469 L107.203125,44.1230469 L107.203125,45.8925781 L106.3125,45.8925781 L106.3125,44.8964844 L97.6757812,44.8964844 L97.6757812,45.8925781 L96.7851562,45.8925781 L96.7851562,44.1230469 Z" id="列表文案列表文案" fill="#5A6677" fill-rule="nonzero"></path>
                    <path d="M100.710938,45.2011719 L101.660156,45.4707031 C101.449218,45.7519545 101.224611,46.0332017 100.986328,46.3144531 L107.53125,46.3144531 L107.53125,47.0878906 L105.011719,47.0878906 C104.640623,47.7480502 104.138675,48.2832011 103.505859,48.6933594 L104.813673,49.0392971 C105.451172,49.209453 106.06406,49.3753898 106.652344,49.5371094 L106.277344,50.3222656 C105.039056,49.9316387 103.779303,49.5585955 102.498047,49.203125 C101.310541,49.6718773 99.5195432,50.0566391 97.125,50.3574219 C97.0312495,50.1074206 96.9179694,49.8496107 96.7851562,49.5839844 L97.6246099,49.4824678 C99.1094497,49.2920322 100.29642,49.0778257 101.185547,48.8398438 C100.248042,48.5898425 99.300786,48.3457043 98.34375,48.1074219 C98.6640641,47.7636702 98.96875,47.4238298 99.2578125,47.0878906 L96.46875,47.0878906 L96.46875,46.3144531 L99.890625,46.3144531 C100.187501,45.9394512 100.460936,45.5683612 100.710938,45.2011719 Z M104.033203,47.0878906 L100.300781,47.0878906 C100.101562,47.3027354 99.8945323,47.5175771 99.6796875,47.7324219 C100.156252,47.84961 100.623048,47.9653323 101.080078,48.0795899 L101.080078,48.0795899 L102.421875,48.4179688 C103.109378,48.1132797 103.646482,47.6699248 104.033203,47.0878906 L104.033203,47.0878906 Z" id="形状结合" fill="#5A6677" fill-rule="nonzero"></path>
                    <path d="M14.1796875,86.3378906 L14.7539062,85.6816406 C15.3476592,86.1699243 15.8886694,86.6484352 16.3769531,87.1171875 C16.9003932,86.210933 17.2695302,85.2285209 17.484375,84.1699219 L14.8476562,84.1699219 C14.2343719,85.5761789 13.4804732,86.8417912 12.5859375,87.9667969 C12.4140616,87.5683574 12.2578132,87.2558605 12.1171875,87.0292969 C13.2968809,85.4433514 14.2050749,83.5879013 14.8417969,81.4628906 L12.5039062,81.4628906 L12.5039062,80.6191406 L19.078125,80.6191406 L19.078125,81.4628906 L15.8085938,81.4628906 C15.6249991,82.1074251 15.419923,82.7285126 15.1933594,83.3261719 L18.4453125,83.3261719 L18.4453125,84.1816406 C17.8046843,87.3847816 16.1211074,89.8574132 13.3945312,91.5996094 C13.1914052,91.3652332 12.9492202,91.1269543 12.6679688,90.8847656 C14.0039129,90.0214801 15.0742147,89.0234432 15.8789062,87.890625 C15.4335915,87.4531228 14.8671909,86.9355499 14.1796875,86.3378906 Z M22.1601562,80.1972656 L23.0976562,80.1972656 L23.0976562,89.8769531 C23.0976562,90.8691456 22.648442,91.3691406 21.75,91.3769531 L21.43287,91.3804254 C21.0271028,91.3824508 20.496097,91.3773872 19.8398438,91.3652344 C19.8007811,91.0058576 19.7382817,90.6542986 19.6523438,90.3105469 L20.3867201,90.3691408 C20.829428,90.4003908 21.1783841,90.4160156 21.4335938,90.4160156 C21.9179712,90.4160156 22.1601562,90.1542995 22.1601562,89.6308594 L22.1601562,80.1972656 Z M20.4726562,88.6699219 L19.5703125,88.6699219 L19.5703125,81.4980469 L20.4726562,81.4980469 L20.4726562,88.6699219 Z M34.3476562,86.4550781 L34.9921875,87.2636719 L32.3730469,88.5761719 C33.2910202,89.3261756 34.4413993,89.8222644 35.8242188,90.0644531 C35.5585924,90.4082048 35.3398446,90.7207017 35.1679688,91.0019531 C32.6484249,90.4003876 30.8418023,88.851575 29.7480469,86.3554688 C29.3496074,86.8632838 28.8945338,87.3457008 28.3828125,87.8027344 L28.3828125,90.3105469 C29.4140677,89.9746077 30.3710893,89.6230487 31.2539062,89.2558594 C31.2460937,89.5996111 31.2499999,89.9394531 31.265625,90.2753906 C30.3281203,90.5957047 29.35938,90.9472637 28.359375,91.3300781 C28.1484364,91.4160161 27.9414073,91.5175775 27.7382812,91.6347656 L27.1875,90.7792969 C27.4062511,90.6230461 27.515625,90.4042983 27.515625,90.1230469 L27.515625,88.5117188 C26.7070272,89.1171905 25.7890676,89.6660132 24.7617188,90.1582031 C24.5898429,89.8847643 24.3906261,89.6152357 24.1640625,89.3496094 C26.1836038,88.5214802 27.7695255,87.4121163 28.921875,86.0214844 L24.2929688,86.0214844 L24.2929688,85.2128906 L29.5429688,85.2128906 L29.5429688,84.0175781 L25.125,84.0175781 L25.125,83.2089844 L29.5429688,83.2089844 L29.5429688,82.0605469 L24.65625,82.0605469 L24.65625,81.2519531 L29.5429688,81.2519531 L29.5429688,79.9394531 L30.46875,79.9394531 L30.46875,81.2519531 L35.3789062,81.2519531 L35.3789062,82.0605469 L30.46875,82.0605469 L30.46875,83.2089844 L34.875,83.2089844 L34.875,84.0175781 L30.46875,84.0175781 L30.46875,85.2128906 L35.7070312,85.2128906 L35.7070312,86.0214844 L30.4980469,86.0214844 C30.8261735,86.7832069 31.2480443,87.4433566 31.7636719,88.0019531 C32.5488321,87.6113262 33.4101516,87.0957063 34.3476562,86.4550781 Z M36.3632812,82.0488281 L41.9882812,82.0488281 L41.6223952,81.3665352 C41.3975691,80.9568133 41.2109382,80.6373709 41.0625,80.4082031 L41.9648438,79.9863281 L42.2200521,80.392578 C42.414496,80.7102855 42.6575506,81.1217423 42.9492188,81.6269531 L42.1054688,82.0488281 L47.6132812,82.0488281 L47.6132812,82.9160156 L45.4511719,82.9160156 C45.033201,85.1464955 44.1347725,86.9394463 42.7558594,88.2949219 C43.7949271,89.0527382 45.4453012,89.7324189 47.7070312,90.3339844 C47.3476545,90.7402364 47.0742197,91.0800768 46.8867188,91.3535156 C44.6835827,90.5917931 43.0566459,89.794926 42.0058594,88.9628906 C40.9511666,89.7832072 39.2656366,90.6113239 36.9492188,91.4472656 L36.6210942,91.013672 C36.5039069,90.8613286 36.3789069,90.7011727 36.2460938,90.5332031 C38.4804799,89.8613248 40.1621037,89.1132854 41.2910156,88.2890625 C39.8652272,86.7656174 38.9589863,84.9746197 38.5722656,82.9160156 L36.3632812,82.9160156 L36.3632812,82.0488281 Z M44.4492188,82.9160156 L39.5097656,82.9160156 C39.8613299,84.8379002 40.7011652,86.425775 42.0292969,87.6796875 C43.2988345,86.4999941 44.105467,84.9121194 44.4492188,82.9160156 Z M48.7851562,86.5839844 L49.6246099,86.4824678 C51.1094497,86.2920322 52.2964198,86.0778257 53.1855469,85.8398438 C52.2480422,85.5898425 51.300786,85.3457043 50.34375,85.1074219 C50.6640641,84.7636702 50.96875,84.4238298 51.2578125,84.0878906 L48.46875,84.0878906 L48.46875,83.3144531 L51.890625,83.3144531 C52.1875015,82.9394513 52.4609363,82.5683612 52.7109375,82.2011719 L53.6601562,82.4707031 C53.4492177,82.7519545 53.2246106,83.0332017 52.9863281,83.3144531 L59.53125,83.3144531 L59.53125,84.0878906 L57.0117188,84.0878906 C56.6406231,84.7480502 56.138675,85.2832011 55.5058594,85.6933594 L56.8136729,86.0392971 C57.4511715,86.209453 58.0640596,86.3753898 58.6523438,86.5371094 L58.2773438,87.3222656 C57.0390563,86.9316387 55.7793033,86.5585955 54.4980469,86.203125 C53.3105409,86.6718773 51.5195432,87.0566391 49.125,87.3574219 C49.0312495,87.1074206 48.9179694,86.8496107 48.7851562,86.5839844 Z M59.8476562,90.3691406 C59.5820299,90.6816422 59.3554697,90.974608 59.1679688,91.2480469 C57.1054584,90.6308563 55.523443,89.8750045 54.421875,88.9804688 L54.421875,91.6230469 L53.578125,91.6230469 L53.578125,88.9980469 C52.3945253,89.8339886 50.8203223,90.5878873 48.8554688,91.2597656 C48.6757812,91.033202 48.4492201,90.7675796 48.1757812,90.4628906 C50.1914163,89.9589819 51.7871035,89.3378943 52.9628906,88.5996094 L48.4453125,88.5996094 L48.4453125,87.8144531 L53.578125,87.8144531 L53.578125,86.8535156 L54.421875,86.8535156 L54.421875,87.8144531 L59.625,87.8144531 L59.625,88.5996094 L55.0605469,88.5996094 C56.294928,89.4316448 57.8906152,90.0214826 59.8476562,90.3691406 Z M48.7851562,81.1230469 L53.6953125,81.1230469 C53.5468743,80.8535143 53.375001,80.5761733 53.1796875,80.2910156 L54.0117188,79.9160156 C54.2656263,80.3144551 54.5058582,80.7167948 54.7324219,81.1230469 L59.203125,81.1230469 L59.203125,82.8925781 L58.3125,82.8925781 L58.3125,81.8964844 L49.6757812,81.8964844 L49.6757812,82.8925781 L48.7851562,82.8925781 L48.7851562,81.1230469 Z M51.6796875,84.7324219 L53.7582996,85.2498776 C53.9819323,85.3062741 54.2031239,85.3623044 54.421875,85.4179688 C55.1093784,85.1132797 55.6464824,84.6699248 56.0332031,84.0878906 L52.3007812,84.0878906 C52.1015615,84.3027354 51.8945323,84.5175771 51.6796875,84.7324219 Z M62.1796875,86.3378906 L62.7539062,85.6816406 C63.3476592,86.1699243 63.8886694,86.6484352 64.3769531,87.1171875 C64.9003932,86.210933 65.2695302,85.2285209 65.484375,84.1699219 L62.8476562,84.1699219 C62.2343719,85.5761789 61.4804732,86.8417912 60.5859375,87.9667969 C60.4140616,87.5683574 60.2578132,87.2558605 60.1171875,87.0292969 C61.2968809,85.4433514 62.2050749,83.5879013 62.8417969,81.4628906 L60.5039062,81.4628906 L60.5039062,80.6191406 L67.078125,80.6191406 L67.078125,81.4628906 L63.8085938,81.4628906 C63.6249991,82.1074251 63.419923,82.7285126 63.1933594,83.3261719 L66.4453125,83.3261719 L66.4453125,84.1816406 C65.8046843,87.3847816 64.1211074,89.8574132 61.3945312,91.5996094 C61.1914052,91.3652332 60.9492202,91.1269543 60.6679688,90.8847656 C62.0039129,90.0214801 63.0742147,89.0234432 63.8789062,87.890625 C63.4335915,87.4531228 62.8671909,86.9355499 62.1796875,86.3378906 Z M70.1601562,80.1972656 L71.0976562,80.1972656 L71.0976562,89.8769531 C71.0976562,90.8691456 70.648442,91.3691406 69.75,91.3769531 L69.43287,91.3804254 C69.0271028,91.3824508 68.496097,91.3773872 67.8398438,91.3652344 C67.8007811,91.0058576 67.7382817,90.6542986 67.6523438,90.3105469 L68.3867201,90.3691408 C68.829428,90.4003908 69.1783841,90.4160156 69.4335938,90.4160156 C69.9179712,90.4160156 70.1601562,90.1542995 70.1601562,89.6308594 L70.1601562,80.1972656 Z M68.4726562,88.6699219 L67.5703125,88.6699219 L67.5703125,81.4980469 L68.4726562,81.4980469 L68.4726562,88.6699219 Z M82.3476562,86.4550781 L82.9921875,87.2636719 L80.3730469,88.5761719 C81.2910202,89.3261756 82.4413993,89.8222644 83.8242188,90.0644531 C83.5585924,90.4082048 83.3398446,90.7207017 83.1679688,91.0019531 C80.6484249,90.4003876 78.8418023,88.851575 77.7480469,86.3554688 C77.3496074,86.8632838 76.8945338,87.3457008 76.3828125,87.8027344 L76.3828125,90.3105469 C77.4140677,89.9746077 78.3710893,89.6230487 79.2539062,89.2558594 C79.2460937,89.5996111 79.2499999,89.9394531 79.265625,90.2753906 C78.3281203,90.5957047 77.35938,90.9472637 76.359375,91.3300781 C76.1484364,91.4160161 75.9414073,91.5175775 75.7382812,91.6347656 L75.1875,90.7792969 C75.4062511,90.6230461 75.515625,90.4042983 75.515625,90.1230469 L75.515625,88.5117188 C74.7070272,89.1171905 73.7890676,89.6660132 72.7617188,90.1582031 C72.5898429,89.8847643 72.3906261,89.6152357 72.1640625,89.3496094 C74.1836038,88.5214802 75.7695255,87.4121163 76.921875,86.0214844 L72.2929688,86.0214844 L72.2929688,85.2128906 L77.5429688,85.2128906 L77.5429688,84.0175781 L73.125,84.0175781 L73.125,83.2089844 L77.5429688,83.2089844 L77.5429688,82.0605469 L72.65625,82.0605469 L72.65625,81.2519531 L77.5429688,81.2519531 L77.5429688,79.9394531 L78.46875,79.9394531 L78.46875,81.2519531 L83.3789062,81.2519531 L83.3789062,82.0605469 L78.46875,82.0605469 L78.46875,83.2089844 L82.875,83.2089844 L82.875,84.0175781 L78.46875,84.0175781 L78.46875,85.2128906 L83.7070312,85.2128906 L83.7070312,86.0214844 L78.4980469,86.0214844 C78.8261735,86.7832069 79.2480443,87.4433566 79.7636719,88.0019531 C80.5488321,87.6113262 81.4101516,87.0957063 82.3476562,86.4550781 Z M84.3632812,82.0488281 L89.9882812,82.0488281 L89.6223952,81.3665352 C89.3975691,80.9568133 89.2109382,80.6373709 89.0625,80.4082031 L89.9648438,79.9863281 L90.2200521,80.392578 C90.414496,80.7102855 90.6575506,81.1217423 90.9492188,81.6269531 L90.1054688,82.0488281 L95.6132812,82.0488281 L95.6132812,82.9160156 L93.4511719,82.9160156 C93.033201,85.1464955 92.1347725,86.9394463 90.7558594,88.2949219 C91.7949271,89.0527382 93.4453012,89.7324189 95.7070312,90.3339844 C95.3476545,90.7402364 95.0742197,91.0800768 94.8867188,91.3535156 C92.6835827,90.5917931 91.0566459,89.794926 90.0058594,88.9628906 C88.9511666,89.7832072 87.2656366,90.6113239 84.9492188,91.4472656 L84.6210942,91.013672 C84.5039069,90.8613286 84.3789069,90.7011727 84.2460938,90.5332031 C86.4804799,89.8613248 88.1621037,89.1132854 89.2910156,88.2890625 C87.8652272,86.7656174 86.9589863,84.9746197 86.5722656,82.9160156 L84.3632812,82.9160156 L84.3632812,82.0488281 Z M92.4492188,82.9160156 L87.5097656,82.9160156 C87.8613299,84.8379002 88.7011652,86.425775 90.0292969,87.6796875 C91.2988345,86.4999941 92.105467,84.9121194 92.4492188,82.9160156 Z M96.7851562,86.5839844 L97.6246099,86.4824678 C99.1094497,86.2920322 100.29642,86.0778257 101.185547,85.8398438 C100.248042,85.5898425 99.300786,85.3457043 98.34375,85.1074219 C98.6640641,84.7636702 98.96875,84.4238298 99.2578125,84.0878906 L96.46875,84.0878906 L96.46875,83.3144531 L99.890625,83.3144531 C100.187501,82.9394513 100.460936,82.5683612 100.710938,82.2011719 L101.660156,82.4707031 C101.449218,82.7519545 101.224611,83.0332017 100.986328,83.3144531 L107.53125,83.3144531 L107.53125,84.0878906 L105.011719,84.0878906 C104.640623,84.7480502 104.138675,85.2832011 103.505859,85.6933594 L104.813673,86.0392971 C105.451172,86.209453 106.06406,86.3753898 106.652344,86.5371094 L106.277344,87.3222656 C105.039056,86.9316387 103.779303,86.5585955 102.498047,86.203125 C101.310541,86.6718773 99.5195432,87.0566391 97.125,87.3574219 C97.0312495,87.1074206 96.9179694,86.8496107 96.7851562,86.5839844 Z M107.847656,90.3691406 C107.58203,90.6816422 107.35547,90.974608 107.167969,91.2480469 C105.105458,90.6308563 103.523443,89.8750045 102.421875,88.9804688 L102.421875,91.6230469 L101.578125,91.6230469 L101.578125,88.9980469 C100.394525,89.8339886 98.8203223,90.5878873 96.8554688,91.2597656 C96.6757812,91.033202 96.4492201,90.7675796 96.1757812,90.4628906 C98.1914163,89.9589819 99.7871035,89.3378943 100.962891,88.5996094 L96.4453125,88.5996094 L96.4453125,87.8144531 L101.578125,87.8144531 L101.578125,86.8535156 L102.421875,86.8535156 L102.421875,87.8144531 L107.625,87.8144531 L107.625,88.5996094 L103.060547,88.5996094 C104.294928,89.4316448 105.890615,90.0214826 107.847656,90.3691406 Z M96.7851562,81.1230469 L101.695312,81.1230469 C101.546874,80.8535143 101.375001,80.5761733 101.179688,80.2910156 L102.011719,79.9160156 C102.265626,80.3144551 102.505858,80.7167948 102.732422,81.1230469 L107.203125,81.1230469 L107.203125,82.8925781 L106.3125,82.8925781 L106.3125,81.8964844 L97.6757812,81.8964844 L97.6757812,82.8925781 L96.7851562,82.8925781 L96.7851562,81.1230469 Z M99.6796875,84.7324219 L101.7583,85.2498776 C101.981932,85.3062741 102.203124,85.3623044 102.421875,85.4179688 C103.109378,85.1132797 103.646482,84.6699248 104.033203,84.0878906 L100.300781,84.0878906 C100.101562,84.3027354 99.8945323,84.5175771 99.6796875,84.7324219 Z M110.179688,86.3378906 L110.753906,85.6816406 C111.347659,86.1699243 111.888669,86.6484352 112.376953,87.1171875 C112.900393,86.210933 113.26953,85.2285209 113.484375,84.1699219 L110.847656,84.1699219 C110.234372,85.5761789 109.480473,86.8417912 108.585938,87.9667969 C108.414062,87.5683574 108.257813,87.2558605 108.117188,87.0292969 C109.296881,85.4433514 110.205075,83.5879013 110.841797,81.4628906 L108.503906,81.4628906 L108.503906,80.6191406 L115.078125,80.6191406 L115.078125,81.4628906 L111.808594,81.4628906 C111.624999,82.1074251 111.419923,82.7285126 111.193359,83.3261719 L114.445312,83.3261719 L114.445312,84.1816406 C113.804684,87.3847816 112.121107,89.8574132 109.394531,91.5996094 C109.191405,91.3652332 108.94922,91.1269543 108.667969,90.8847656 C110.003913,90.0214801 111.074215,89.0234432 111.878906,87.890625 C111.433592,87.4531228 110.867191,86.9355499 110.179688,86.3378906 Z M118.160156,80.1972656 L119.097656,80.1972656 L119.097656,89.8769531 C119.097656,90.8691456 118.648442,91.3691406 117.75,91.3769531 L117.43287,91.3804254 C117.027103,91.3824508 116.496097,91.3773872 115.839844,91.3652344 C115.800781,91.0058576 115.738282,90.6542986 115.652344,90.3105469 L116.38672,90.3691408 C116.829428,90.4003908 117.178384,90.4160156 117.433594,90.4160156 C117.917971,90.4160156 118.160156,90.1542995 118.160156,89.6308594 L118.160156,80.1972656 Z M116.472656,88.6699219 L115.570312,88.6699219 L115.570312,81.4980469 L116.472656,81.4980469 L116.472656,88.6699219 Z M130.347656,86.4550781 L130.992188,87.2636719 L128.373047,88.5761719 C129.29102,89.3261756 130.441399,89.8222644 131.824219,90.0644531 C131.558592,90.4082048 131.339845,90.7207017 131.167969,91.0019531 C128.648425,90.4003876 126.841802,88.851575 125.748047,86.3554688 C125.349607,86.8632838 124.894534,87.3457008 124.382812,87.8027344 L124.382812,90.3105469 C125.414068,89.9746077 126.371089,89.6230487 127.253906,89.2558594 C127.246094,89.5996111 127.25,89.9394531 127.265625,90.2753906 C126.32812,90.5957047 125.35938,90.9472637 124.359375,91.3300781 C124.148436,91.4160161 123.941407,91.5175775 123.738281,91.6347656 L123.1875,90.7792969 C123.406251,90.6230461 123.515625,90.4042983 123.515625,90.1230469 L123.515625,88.5117188 C122.707027,89.1171905 121.789068,89.6660132 120.761719,90.1582031 C120.589843,89.8847643 120.390626,89.6152357 120.164062,89.3496094 C122.183604,88.5214802 123.769525,87.4121163 124.921875,86.0214844 L120.292969,86.0214844 L120.292969,85.2128906 L125.542969,85.2128906 L125.542969,84.0175781 L121.125,84.0175781 L121.125,83.2089844 L125.542969,83.2089844 L125.542969,82.0605469 L120.65625,82.0605469 L120.65625,81.2519531 L125.542969,81.2519531 L125.542969,79.9394531 L126.46875,79.9394531 L126.46875,81.2519531 L131.378906,81.2519531 L131.378906,82.0605469 L126.46875,82.0605469 L126.46875,83.2089844 L130.875,83.2089844 L130.875,84.0175781 L126.46875,84.0175781 L126.46875,85.2128906 L131.707031,85.2128906 L131.707031,86.0214844 L126.498047,86.0214844 C126.826174,86.7832069 127.248044,87.4433566 127.763672,88.0019531 C128.548832,87.6113262 129.410152,87.0957063 130.347656,86.4550781 Z M132.363281,82.0488281 L137.988281,82.0488281 L137.622395,81.3665352 C137.397569,80.9568133 137.210938,80.6373709 137.0625,80.4082031 L137.964844,79.9863281 L138.220052,80.392578 C138.414496,80.7102855 138.657551,81.1217423 138.949219,81.6269531 L138.105469,82.0488281 L143.613281,82.0488281 L143.613281,82.9160156 L141.451172,82.9160156 C141.033201,85.1464955 140.134773,86.9394463 138.755859,88.2949219 C139.794927,89.0527382 141.445301,89.7324189 143.707031,90.3339844 C143.347654,90.7402364 143.07422,91.0800768 142.886719,91.3535156 C140.683583,90.5917931 139.056646,89.794926 138.005859,88.9628906 C136.951167,89.7832072 135.265637,90.6113239 132.949219,91.4472656 L132.621094,91.013672 C132.503907,90.8613286 132.378907,90.7011727 132.246094,90.5332031 C134.48048,89.8613248 136.162104,89.1132854 137.291016,88.2890625 C135.865227,86.7656174 134.958986,84.9746197 134.572266,82.9160156 L132.363281,82.9160156 L132.363281,82.0488281 Z M140.449219,82.9160156 L135.509766,82.9160156 C135.86133,84.8379002 136.701165,86.425775 138.029297,87.6796875 C139.298834,86.4999941 140.105467,84.9121194 140.449219,82.9160156 Z M144.785156,86.5839844 L145.62461,86.4824678 C147.10945,86.2920322 148.29642,86.0778257 149.185547,85.8398438 C148.248042,85.5898425 147.300786,85.3457043 146.34375,85.1074219 C146.664064,84.7636702 146.96875,84.4238298 147.257812,84.0878906 L144.46875,84.0878906 L144.46875,83.3144531 L147.890625,83.3144531 C148.187501,82.9394513 148.460936,82.5683612 148.710938,82.2011719 L149.660156,82.4707031 C149.449218,82.7519545 149.224611,83.0332017 148.986328,83.3144531 L155.53125,83.3144531 L155.53125,84.0878906 L153.011719,84.0878906 C152.640623,84.7480502 152.138675,85.2832011 151.505859,85.6933594 L152.813673,86.0392971 C153.451172,86.209453 154.06406,86.3753898 154.652344,86.5371094 L154.277344,87.3222656 C153.039056,86.9316387 151.779303,86.5585955 150.498047,86.203125 C149.310541,86.6718773 147.519543,87.0566391 145.125,87.3574219 C145.03125,87.1074206 144.917969,86.8496107 144.785156,86.5839844 Z M155.847656,90.3691406 C155.58203,90.6816422 155.35547,90.974608 155.167969,91.2480469 C153.105458,90.6308563 151.523443,89.8750045 150.421875,88.9804688 L150.421875,91.6230469 L149.578125,91.6230469 L149.578125,88.9980469 C148.394525,89.8339886 146.820322,90.5878873 144.855469,91.2597656 C144.675781,91.033202 144.44922,90.7675796 144.175781,90.4628906 C146.191416,89.9589819 147.787103,89.3378943 148.962891,88.5996094 L144.445312,88.5996094 L144.445312,87.8144531 L149.578125,87.8144531 L149.578125,86.8535156 L150.421875,86.8535156 L150.421875,87.8144531 L155.625,87.8144531 L155.625,88.5996094 L151.060547,88.5996094 C152.294928,89.4316448 153.890615,90.0214826 155.847656,90.3691406 Z M144.785156,81.1230469 L149.695312,81.1230469 C149.546874,80.8535143 149.375001,80.5761733 149.179688,80.2910156 L150.011719,79.9160156 C150.265626,80.3144551 150.505858,80.7167948 150.732422,81.1230469 L155.203125,81.1230469 L155.203125,82.8925781 L154.3125,82.8925781 L154.3125,81.8964844 L145.675781,81.8964844 L145.675781,82.8925781 L144.785156,82.8925781 L144.785156,81.1230469 Z M147.679688,84.7324219 L149.7583,85.2498776 C149.981932,85.3062741 150.203124,85.3623044 150.421875,85.4179688 C151.109378,85.1132797 151.646482,84.6699248 152.033203,84.0878906 L148.300781,84.0878906 C148.101562,84.3027354 147.894532,84.5175771 147.679688,84.7324219 Z M162.140625,90 L156.621094,90 L156.621094,89.0039062 L159.257812,86.3730469 C159.984379,85.6464807 160.470702,85.0712912 160.716797,84.6474609 C160.962892,84.2236307 161.085938,83.7851585 161.085938,83.3320312 C161.085938,82.8164037 160.941408,82.4208998 160.652344,82.1455078 C160.36328,81.8701158 159.945315,81.7324219 159.398438,81.7324219 C158.58984,81.7324219 157.818363,82.0761684 157.083984,82.7636719 L157.083984,81.5976562 C157.798832,81.0468722 158.630855,80.7714844 159.580078,80.7714844 C160.396488,80.7714844 161.041013,80.9921853 161.513672,81.4335938 C161.98633,81.8750022 162.222656,82.4687463 162.222656,83.2148438 C162.222656,83.7773466 162.071291,84.3290989 161.768555,84.8701172 C161.465819,85.4111355 160.892582,86.0996052 160.048828,86.9355469 L157.980469,88.9570312 L157.980469,88.9804688 L162.140625,88.9804688 L162.140625,90 Z" id="列表文案列表文案列表文案2" fill="#5A6677" fill-rule="nonzero"></path>
                    <rect id="Rectangle" fill="#F1F1F1" x="0" y="67" width="410" height="1"></rect>
                    <rect id="Rectangle" fill="#F1F1F1" x="0" y="104" width="410" height="1"></rect>
                    <path d="M14.1796875,123.337891 L14.7539062,122.681641 C15.3476592,123.169924 15.8886694,123.648435 16.3769531,124.117188 C16.9003932,123.210933 17.2695302,122.228521 17.484375,121.169922 L14.8476562,121.169922 C14.2343719,122.576179 13.4804732,123.841791 12.5859375,124.966797 C12.4140616,124.568357 12.2578132,124.255861 12.1171875,124.029297 C13.2968809,122.443351 14.2050749,120.587901 14.8417969,118.462891 L12.5039062,118.462891 L12.5039062,117.619141 L19.078125,117.619141 L19.078125,118.462891 L15.8085938,118.462891 C15.6249991,119.107425 15.419923,119.728513 15.1933594,120.326172 L18.4453125,120.326172 L18.4453125,121.181641 C17.8046843,124.384782 16.1211074,126.857413 13.3945312,128.599609 C13.1914052,128.365233 12.9492202,128.126954 12.6679688,127.884766 C14.0039129,127.02148 15.0742147,126.023443 15.8789062,124.890625 C15.4335915,124.453123 14.8671909,123.93555 14.1796875,123.337891 Z M22.1601562,117.197266 L23.0976562,117.197266 L23.0976562,126.876953 C23.0976562,127.869146 22.648442,128.369141 21.75,128.376953 L21.43287,128.380425 C21.0271028,128.382451 20.496097,128.377387 19.8398438,128.365234 C19.8007811,128.005858 19.7382817,127.654299 19.6523438,127.310547 L20.3867201,127.369141 C20.829428,127.400391 21.1783841,127.416016 21.4335938,127.416016 C21.9179712,127.416016 22.1601562,127.154299 22.1601562,126.630859 L22.1601562,117.197266 Z M20.4726562,125.669922 L19.5703125,125.669922 L19.5703125,118.498047 L20.4726562,118.498047 L20.4726562,125.669922 Z M34.3476562,123.455078 L34.9921875,124.263672 L32.3730469,125.576172 C33.2910202,126.326176 34.4413993,126.822264 35.8242188,127.064453 C35.5585924,127.408205 35.3398446,127.720702 35.1679688,128.001953 C32.6484249,127.400388 30.8418023,125.851575 29.7480469,123.355469 C29.3496074,123.863284 28.8945338,124.345701 28.3828125,124.802734 L28.3828125,127.310547 C29.4140677,126.974608 30.3710893,126.623049 31.2539062,126.255859 C31.2460937,126.599611 31.2499999,126.939453 31.265625,127.275391 C30.3281203,127.595705 29.35938,127.947264 28.359375,128.330078 C28.1484364,128.416016 27.9414073,128.517578 27.7382812,128.634766 L27.1875,127.779297 C27.4062511,127.623046 27.515625,127.404298 27.515625,127.123047 L27.515625,125.511719 C26.7070272,126.117191 25.7890676,126.666013 24.7617188,127.158203 C24.5898429,126.884764 24.3906261,126.615236 24.1640625,126.349609 C26.1836038,125.52148 27.7695255,124.412116 28.921875,123.021484 L24.2929688,123.021484 L24.2929688,122.212891 L29.5429688,122.212891 L29.5429688,121.017578 L25.125,121.017578 L25.125,120.208984 L29.5429688,120.208984 L29.5429688,119.060547 L24.65625,119.060547 L24.65625,118.251953 L29.5429688,118.251953 L29.5429688,116.939453 L30.46875,116.939453 L30.46875,118.251953 L35.3789062,118.251953 L35.3789062,119.060547 L30.46875,119.060547 L30.46875,120.208984 L34.875,120.208984 L34.875,121.017578 L30.46875,121.017578 L30.46875,122.212891 L35.7070312,122.212891 L35.7070312,123.021484 L30.4980469,123.021484 C30.8261735,123.783207 31.2480443,124.443357 31.7636719,125.001953 C32.5488321,124.611326 33.4101516,124.095706 34.3476562,123.455078 Z M36.3632812,119.048828 L41.9882812,119.048828 L41.6223952,118.366535 C41.3975691,117.956813 41.2109382,117.637371 41.0625,117.408203 L41.9648438,116.986328 L42.2200521,117.392578 C42.414496,117.710286 42.6575506,118.121742 42.9492188,118.626953 L42.1054688,119.048828 L47.6132812,119.048828 L47.6132812,119.916016 L45.4511719,119.916016 C45.033201,122.146496 44.1347725,123.939446 42.7558594,125.294922 C43.7949271,126.052738 45.4453012,126.732419 47.7070312,127.333984 C47.3476545,127.740236 47.0742197,128.080077 46.8867188,128.353516 C44.6835827,127.591793 43.0566459,126.794926 42.0058594,125.962891 C40.9511666,126.783207 39.2656366,127.611324 36.9492188,128.447266 L36.6210942,128.013672 C36.5039069,127.861329 36.3789069,127.701173 36.2460938,127.533203 C38.4804799,126.861325 40.1621037,126.113285 41.2910156,125.289062 C39.8652272,123.765617 38.9589863,121.97462 38.5722656,119.916016 L36.3632812,119.916016 L36.3632812,119.048828 Z M44.4492188,119.916016 L39.5097656,119.916016 C39.8613299,121.8379 40.7011652,123.425775 42.0292969,124.679688 C43.2988345,123.499994 44.105467,121.912119 44.4492188,119.916016 Z M48.7851562,123.583984 L49.6246099,123.482468 C51.1094497,123.292032 52.2964198,123.077826 53.1855469,122.839844 C52.2480422,122.589843 51.300786,122.345704 50.34375,122.107422 C50.6640641,121.76367 50.96875,121.42383 51.2578125,121.087891 L48.46875,121.087891 L48.46875,120.314453 L51.890625,120.314453 C52.1875015,119.939451 52.4609363,119.568361 52.7109375,119.201172 L53.6601562,119.470703 C53.4492177,119.751955 53.2246106,120.033202 52.9863281,120.314453 L59.53125,120.314453 L59.53125,121.087891 L57.0117188,121.087891 C56.6406231,121.74805 56.138675,122.283201 55.5058594,122.693359 L56.8136729,123.039297 C57.4511715,123.209453 58.0640596,123.37539 58.6523438,123.537109 L58.2773438,124.322266 C57.0390563,123.931639 55.7793033,123.558596 54.4980469,123.203125 C53.3105409,123.671877 51.5195432,124.056639 49.125,124.357422 C49.0312495,124.107421 48.9179694,123.849611 48.7851562,123.583984 Z M59.8476562,127.369141 C59.5820299,127.681642 59.3554697,127.974608 59.1679688,128.248047 C57.1054584,127.630856 55.523443,126.875004 54.421875,125.980469 L54.421875,128.623047 L53.578125,128.623047 L53.578125,125.998047 C52.3945253,126.833989 50.8203223,127.587887 48.8554688,128.259766 C48.6757812,128.033202 48.4492201,127.76758 48.1757812,127.462891 C50.1914163,126.958982 51.7871035,126.337894 52.9628906,125.599609 L48.4453125,125.599609 L48.4453125,124.814453 L53.578125,124.814453 L53.578125,123.853516 L54.421875,123.853516 L54.421875,124.814453 L59.625,124.814453 L59.625,125.599609 L55.0605469,125.599609 C56.294928,126.431645 57.8906152,127.021483 59.8476562,127.369141 Z M48.7851562,118.123047 L53.6953125,118.123047 C53.5468743,117.853514 53.375001,117.576173 53.1796875,117.291016 L54.0117188,116.916016 C54.2656263,117.314455 54.5058582,117.716795 54.7324219,118.123047 L59.203125,118.123047 L59.203125,119.892578 L58.3125,119.892578 L58.3125,118.896484 L49.6757812,118.896484 L49.6757812,119.892578 L48.7851562,119.892578 L48.7851562,118.123047 Z M51.6796875,121.732422 L53.7582996,122.249878 C53.9819323,122.306274 54.2031239,122.362304 54.421875,122.417969 C55.1093784,122.11328 55.6464824,121.669925 56.0332031,121.087891 L52.3007812,121.087891 C52.1015615,121.302735 51.8945323,121.517577 51.6796875,121.732422 Z M62.1796875,123.337891 L62.7539062,122.681641 C63.3476592,123.169924 63.8886694,123.648435 64.3769531,124.117188 C64.9003932,123.210933 65.2695302,122.228521 65.484375,121.169922 L62.8476562,121.169922 C62.2343719,122.576179 61.4804732,123.841791 60.5859375,124.966797 C60.4140616,124.568357 60.2578132,124.255861 60.1171875,124.029297 C61.2968809,122.443351 62.2050749,120.587901 62.8417969,118.462891 L60.5039062,118.462891 L60.5039062,117.619141 L67.078125,117.619141 L67.078125,118.462891 L63.8085938,118.462891 C63.6249991,119.107425 63.419923,119.728513 63.1933594,120.326172 L66.4453125,120.326172 L66.4453125,121.181641 C65.8046843,124.384782 64.1211074,126.857413 61.3945312,128.599609 C61.1914052,128.365233 60.9492202,128.126954 60.6679688,127.884766 C62.0039129,127.02148 63.0742147,126.023443 63.8789062,124.890625 C63.4335915,124.453123 62.8671909,123.93555 62.1796875,123.337891 Z M70.1601562,117.197266 L71.0976562,117.197266 L71.0976562,126.876953 C71.0976562,127.869146 70.648442,128.369141 69.75,128.376953 L69.43287,128.380425 C69.0271028,128.382451 68.496097,128.377387 67.8398438,128.365234 C67.8007811,128.005858 67.7382817,127.654299 67.6523438,127.310547 L68.3867201,127.369141 C68.829428,127.400391 69.1783841,127.416016 69.4335938,127.416016 C69.9179712,127.416016 70.1601562,127.154299 70.1601562,126.630859 L70.1601562,117.197266 Z M68.4726562,125.669922 L67.5703125,125.669922 L67.5703125,118.498047 L68.4726562,118.498047 L68.4726562,125.669922 Z M82.3476562,123.455078 L82.9921875,124.263672 L80.3730469,125.576172 C81.2910202,126.326176 82.4413993,126.822264 83.8242188,127.064453 C83.5585924,127.408205 83.3398446,127.720702 83.1679688,128.001953 C80.6484249,127.400388 78.8418023,125.851575 77.7480469,123.355469 C77.3496074,123.863284 76.8945338,124.345701 76.3828125,124.802734 L76.3828125,127.310547 C77.4140677,126.974608 78.3710893,126.623049 79.2539062,126.255859 C79.2460937,126.599611 79.2499999,126.939453 79.265625,127.275391 C78.3281203,127.595705 77.35938,127.947264 76.359375,128.330078 C76.1484364,128.416016 75.9414073,128.517578 75.7382812,128.634766 L75.1875,127.779297 C75.4062511,127.623046 75.515625,127.404298 75.515625,127.123047 L75.515625,125.511719 C74.7070272,126.117191 73.7890676,126.666013 72.7617188,127.158203 C72.5898429,126.884764 72.3906261,126.615236 72.1640625,126.349609 C74.1836038,125.52148 75.7695255,124.412116 76.921875,123.021484 L72.2929688,123.021484 L72.2929688,122.212891 L77.5429688,122.212891 L77.5429688,121.017578 L73.125,121.017578 L73.125,120.208984 L77.5429688,120.208984 L77.5429688,119.060547 L72.65625,119.060547 L72.65625,118.251953 L77.5429688,118.251953 L77.5429688,116.939453 L78.46875,116.939453 L78.46875,118.251953 L83.3789062,118.251953 L83.3789062,119.060547 L78.46875,119.060547 L78.46875,120.208984 L82.875,120.208984 L82.875,121.017578 L78.46875,121.017578 L78.46875,122.212891 L83.7070312,122.212891 L83.7070312,123.021484 L78.4980469,123.021484 C78.8261735,123.783207 79.2480443,124.443357 79.7636719,125.001953 C80.5488321,124.611326 81.4101516,124.095706 82.3476562,123.455078 Z M84.3632812,119.048828 L89.9882812,119.048828 L89.6223952,118.366535 C89.3975691,117.956813 89.2109382,117.637371 89.0625,117.408203 L89.9648438,116.986328 L90.2200521,117.392578 C90.414496,117.710286 90.6575506,118.121742 90.9492188,118.626953 L90.1054688,119.048828 L95.6132812,119.048828 L95.6132812,119.916016 L93.4511719,119.916016 C93.033201,122.146496 92.1347725,123.939446 90.7558594,125.294922 C91.7949271,126.052738 93.4453012,126.732419 95.7070312,127.333984 C95.3476545,127.740236 95.0742197,128.080077 94.8867188,128.353516 C92.6835827,127.591793 91.0566459,126.794926 90.0058594,125.962891 C88.9511666,126.783207 87.2656366,127.611324 84.9492188,128.447266 L84.6210942,128.013672 C84.5039069,127.861329 84.3789069,127.701173 84.2460938,127.533203 C86.4804799,126.861325 88.1621037,126.113285 89.2910156,125.289062 C87.8652272,123.765617 86.9589863,121.97462 86.5722656,119.916016 L84.3632812,119.916016 L84.3632812,119.048828 Z M92.4492188,119.916016 L87.5097656,119.916016 C87.8613299,121.8379 88.7011652,123.425775 90.0292969,124.679688 C91.2988345,123.499994 92.105467,121.912119 92.4492188,119.916016 Z M96.7851562,123.583984 L97.6246099,123.482468 C99.1094497,123.292032 100.29642,123.077826 101.185547,122.839844 C100.248042,122.589843 99.300786,122.345704 98.34375,122.107422 C98.6640641,121.76367 98.96875,121.42383 99.2578125,121.087891 L96.46875,121.087891 L96.46875,120.314453 L99.890625,120.314453 C100.187501,119.939451 100.460936,119.568361 100.710938,119.201172 L101.660156,119.470703 C101.449218,119.751955 101.224611,120.033202 100.986328,120.314453 L107.53125,120.314453 L107.53125,121.087891 L105.011719,121.087891 C104.640623,121.74805 104.138675,122.283201 103.505859,122.693359 L104.813673,123.039297 C105.451172,123.209453 106.06406,123.37539 106.652344,123.537109 L106.277344,124.322266 C105.039056,123.931639 103.779303,123.558596 102.498047,123.203125 C101.310541,123.671877 99.5195432,124.056639 97.125,124.357422 C97.0312495,124.107421 96.9179694,123.849611 96.7851562,123.583984 Z M107.847656,127.369141 C107.58203,127.681642 107.35547,127.974608 107.167969,128.248047 C105.105458,127.630856 103.523443,126.875004 102.421875,125.980469 L102.421875,128.623047 L101.578125,128.623047 L101.578125,125.998047 C100.394525,126.833989 98.8203223,127.587887 96.8554688,128.259766 C96.6757812,128.033202 96.4492201,127.76758 96.1757812,127.462891 C98.1914163,126.958982 99.7871035,126.337894 100.962891,125.599609 L96.4453125,125.599609 L96.4453125,124.814453 L101.578125,124.814453 L101.578125,123.853516 L102.421875,123.853516 L102.421875,124.814453 L107.625,124.814453 L107.625,125.599609 L103.060547,125.599609 C104.294928,126.431645 105.890615,127.021483 107.847656,127.369141 Z M96.7851562,118.123047 L101.695312,118.123047 C101.546874,117.853514 101.375001,117.576173 101.179688,117.291016 L102.011719,116.916016 C102.265626,117.314455 102.505858,117.716795 102.732422,118.123047 L107.203125,118.123047 L107.203125,119.892578 L106.3125,119.892578 L106.3125,118.896484 L97.6757812,118.896484 L97.6757812,119.892578 L96.7851562,119.892578 L96.7851562,118.123047 Z M99.6796875,121.732422 L101.7583,122.249878 C101.981932,122.306274 102.203124,122.362304 102.421875,122.417969 C103.109378,122.11328 103.646482,121.669925 104.033203,121.087891 L100.300781,121.087891 C100.101562,121.302735 99.8945323,121.517577 99.6796875,121.732422 Z M110.179688,123.337891 L110.753906,122.681641 C111.347659,123.169924 111.888669,123.648435 112.376953,124.117188 C112.900393,123.210933 113.26953,122.228521 113.484375,121.169922 L110.847656,121.169922 C110.234372,122.576179 109.480473,123.841791 108.585938,124.966797 C108.414062,124.568357 108.257813,124.255861 108.117188,124.029297 C109.296881,122.443351 110.205075,120.587901 110.841797,118.462891 L108.503906,118.462891 L108.503906,117.619141 L115.078125,117.619141 L115.078125,118.462891 L111.808594,118.462891 C111.624999,119.107425 111.419923,119.728513 111.193359,120.326172 L114.445312,120.326172 L114.445312,121.181641 C113.804684,124.384782 112.121107,126.857413 109.394531,128.599609 C109.191405,128.365233 108.94922,128.126954 108.667969,127.884766 C110.003913,127.02148 111.074215,126.023443 111.878906,124.890625 C111.433592,124.453123 110.867191,123.93555 110.179688,123.337891 Z M118.160156,117.197266 L119.097656,117.197266 L119.097656,126.876953 C119.097656,127.869146 118.648442,128.369141 117.75,128.376953 L117.43287,128.380425 C117.027103,128.382451 116.496097,128.377387 115.839844,128.365234 C115.800781,128.005858 115.738282,127.654299 115.652344,127.310547 L116.38672,127.369141 C116.829428,127.400391 117.178384,127.416016 117.433594,127.416016 C117.917971,127.416016 118.160156,127.154299 118.160156,126.630859 L118.160156,117.197266 Z M116.472656,125.669922 L115.570312,125.669922 L115.570312,118.498047 L116.472656,118.498047 L116.472656,125.669922 Z M130.347656,123.455078 L130.992188,124.263672 L128.373047,125.576172 C129.29102,126.326176 130.441399,126.822264 131.824219,127.064453 C131.558592,127.408205 131.339845,127.720702 131.167969,128.001953 C128.648425,127.400388 126.841802,125.851575 125.748047,123.355469 C125.349607,123.863284 124.894534,124.345701 124.382812,124.802734 L124.382812,127.310547 C125.414068,126.974608 126.371089,126.623049 127.253906,126.255859 C127.246094,126.599611 127.25,126.939453 127.265625,127.275391 C126.32812,127.595705 125.35938,127.947264 124.359375,128.330078 C124.148436,128.416016 123.941407,128.517578 123.738281,128.634766 L123.1875,127.779297 C123.406251,127.623046 123.515625,127.404298 123.515625,127.123047 L123.515625,125.511719 C122.707027,126.117191 121.789068,126.666013 120.761719,127.158203 C120.589843,126.884764 120.390626,126.615236 120.164062,126.349609 C122.183604,125.52148 123.769525,124.412116 124.921875,123.021484 L120.292969,123.021484 L120.292969,122.212891 L125.542969,122.212891 L125.542969,121.017578 L121.125,121.017578 L121.125,120.208984 L125.542969,120.208984 L125.542969,119.060547 L120.65625,119.060547 L120.65625,118.251953 L125.542969,118.251953 L125.542969,116.939453 L126.46875,116.939453 L126.46875,118.251953 L131.378906,118.251953 L131.378906,119.060547 L126.46875,119.060547 L126.46875,120.208984 L130.875,120.208984 L130.875,121.017578 L126.46875,121.017578 L126.46875,122.212891 L131.707031,122.212891 L131.707031,123.021484 L126.498047,123.021484 C126.826174,123.783207 127.248044,124.443357 127.763672,125.001953 C128.548832,124.611326 129.410152,124.095706 130.347656,123.455078 Z M132.363281,119.048828 L137.988281,119.048828 L137.622395,118.366535 C137.397569,117.956813 137.210938,117.637371 137.0625,117.408203 L137.964844,116.986328 L138.220052,117.392578 C138.414496,117.710286 138.657551,118.121742 138.949219,118.626953 L138.105469,119.048828 L143.613281,119.048828 L143.613281,119.916016 L141.451172,119.916016 C141.033201,122.146496 140.134773,123.939446 138.755859,125.294922 C139.794927,126.052738 141.445301,126.732419 143.707031,127.333984 C143.347654,127.740236 143.07422,128.080077 142.886719,128.353516 C140.683583,127.591793 139.056646,126.794926 138.005859,125.962891 C136.951167,126.783207 135.265637,127.611324 132.949219,128.447266 L132.621094,128.013672 C132.503907,127.861329 132.378907,127.701173 132.246094,127.533203 C134.48048,126.861325 136.162104,126.113285 137.291016,125.289062 C135.865227,123.765617 134.958986,121.97462 134.572266,119.916016 L132.363281,119.916016 L132.363281,119.048828 Z M140.449219,119.916016 L135.509766,119.916016 C135.86133,121.8379 136.701165,123.425775 138.029297,124.679688 C139.298834,123.499994 140.105467,121.912119 140.449219,119.916016 Z M144.785156,123.583984 L145.62461,123.482468 C147.10945,123.292032 148.29642,123.077826 149.185547,122.839844 C148.248042,122.589843 147.300786,122.345704 146.34375,122.107422 C146.664064,121.76367 146.96875,121.42383 147.257812,121.087891 L144.46875,121.087891 L144.46875,120.314453 L147.890625,120.314453 C148.187501,119.939451 148.460936,119.568361 148.710938,119.201172 L149.660156,119.470703 C149.449218,119.751955 149.224611,120.033202 148.986328,120.314453 L155.53125,120.314453 L155.53125,121.087891 L153.011719,121.087891 C152.640623,121.74805 152.138675,122.283201 151.505859,122.693359 L152.813673,123.039297 C153.451172,123.209453 154.06406,123.37539 154.652344,123.537109 L154.277344,124.322266 C153.039056,123.931639 151.779303,123.558596 150.498047,123.203125 C149.310541,123.671877 147.519543,124.056639 145.125,124.357422 C145.03125,124.107421 144.917969,123.849611 144.785156,123.583984 Z M155.847656,127.369141 C155.58203,127.681642 155.35547,127.974608 155.167969,128.248047 C153.105458,127.630856 151.523443,126.875004 150.421875,125.980469 L150.421875,128.623047 L149.578125,128.623047 L149.578125,125.998047 C148.394525,126.833989 146.820322,127.587887 144.855469,128.259766 C144.675781,128.033202 144.44922,127.76758 144.175781,127.462891 C146.191416,126.958982 147.787103,126.337894 148.962891,125.599609 L144.445312,125.599609 L144.445312,124.814453 L149.578125,124.814453 L149.578125,123.853516 L150.421875,123.853516 L150.421875,124.814453 L155.625,124.814453 L155.625,125.599609 L151.060547,125.599609 C152.294928,126.431645 153.890615,127.021483 155.847656,127.369141 Z M144.785156,118.123047 L149.695312,118.123047 C149.546874,117.853514 149.375001,117.576173 149.179688,117.291016 L150.011719,116.916016 C150.265626,117.314455 150.505858,117.716795 150.732422,118.123047 L155.203125,118.123047 L155.203125,119.892578 L154.3125,119.892578 L154.3125,118.896484 L145.675781,118.896484 L145.675781,119.892578 L144.785156,119.892578 L144.785156,118.123047 Z M147.679688,121.732422 L149.7583,122.249878 C149.981932,122.306274 150.203124,122.362304 150.421875,122.417969 C151.109378,122.11328 151.646482,121.669925 152.033203,121.087891 L148.300781,121.087891 C148.101562,121.302735 147.894532,121.517577 147.679688,121.732422 Z M156.837891,125.482422 C157.458987,125.962893 158.160152,126.203125 158.941406,126.203125 C159.566409,126.203125 160.061522,126.049806 160.426758,125.743164 C160.791994,125.436522 160.974609,125.025393 160.974609,124.509766 C160.974609,123.361322 160.152352,122.787109 158.507812,122.787109 L157.751953,122.787109 L157.751953,121.837891 L158.472656,121.837891 C159.929695,121.837891 160.658203,121.298834 160.658203,120.220703 C160.658203,119.224604 160.101568,118.726562 158.988281,118.726562 C158.351559,118.726562 157.751956,118.941404 157.189453,119.371094 L157.189453,118.287109 C157.783206,117.943358 158.476559,117.771484 159.269531,117.771484 C160.042973,117.771484 160.66406,117.973631 161.132812,118.37793 C161.601565,118.782229 161.835938,119.306637 161.835938,119.951172 C161.835938,121.138678 161.230475,121.902342 160.019531,122.242188 L160.019531,122.265625 C160.675785,122.335938 161.194334,122.567381 161.575195,122.959961 C161.956057,123.352541 162.146484,123.841794 162.146484,124.427734 C162.146484,125.244145 161.852542,125.902341 161.264648,126.402344 C160.676755,126.902346 159.894536,127.152344 158.917969,127.152344 C158.058589,127.152344 157.365237,126.992189 156.837891,126.671875 L156.837891,125.482422 Z" id="列表文案列表文案列表文案3" fill="#5A6677" fill-rule="nonzero"></path>
                    <rect id="Rectangle" fill="#F1F1F1" x="0" y="141" width="410" height="1"></rect>
                    <path d="M14.1796875,160.337891 L14.7539062,159.681641 C15.3476592,160.169924 15.8886694,160.648435 16.3769531,161.117188 C16.9003932,160.210933 17.2695302,159.228521 17.484375,158.169922 L14.8476562,158.169922 C14.2343719,159.576179 13.4804732,160.841791 12.5859375,161.966797 C12.4140616,161.568357 12.2578132,161.255861 12.1171875,161.029297 C13.2968809,159.443351 14.2050749,157.587901 14.8417969,155.462891 L12.5039062,155.462891 L12.5039062,154.619141 L19.078125,154.619141 L19.078125,155.462891 L15.8085938,155.462891 C15.6249991,156.107425 15.419923,156.728513 15.1933594,157.326172 L18.4453125,157.326172 L18.4453125,158.181641 C17.8046843,161.384782 16.1211074,163.857413 13.3945312,165.599609 C13.1914052,165.365233 12.9492202,165.126954 12.6679688,164.884766 C14.0039129,164.02148 15.0742147,163.023443 15.8789062,161.890625 C15.4335915,161.453123 14.8671909,160.93555 14.1796875,160.337891 Z M22.1601562,154.197266 L23.0976562,154.197266 L23.0976562,163.876953 C23.0976562,164.869146 22.648442,165.369141 21.75,165.376953 L21.43287,165.380425 C21.0271028,165.382451 20.496097,165.377387 19.8398438,165.365234 C19.8007811,165.005858 19.7382817,164.654299 19.6523438,164.310547 L20.3867201,164.369141 C20.829428,164.400391 21.1783841,164.416016 21.4335938,164.416016 C21.9179712,164.416016 22.1601562,164.154299 22.1601562,163.630859 L22.1601562,154.197266 Z M20.4726562,162.669922 L19.5703125,162.669922 L19.5703125,155.498047 L20.4726562,155.498047 L20.4726562,162.669922 Z M34.3476562,160.455078 L34.9921875,161.263672 L32.3730469,162.576172 C33.2910202,163.326176 34.4413993,163.822264 35.8242188,164.064453 C35.5585924,164.408205 35.3398446,164.720702 35.1679688,165.001953 C32.6484249,164.400388 30.8418023,162.851575 29.7480469,160.355469 C29.3496074,160.863284 28.8945338,161.345701 28.3828125,161.802734 L28.3828125,164.310547 C29.4140677,163.974608 30.3710893,163.623049 31.2539062,163.255859 C31.2460937,163.599611 31.2499999,163.939453 31.265625,164.275391 C30.3281203,164.595705 29.35938,164.947264 28.359375,165.330078 C28.1484364,165.416016 27.9414073,165.517578 27.7382812,165.634766 L27.1875,164.779297 C27.4062511,164.623046 27.515625,164.404298 27.515625,164.123047 L27.515625,162.511719 C26.7070272,163.117191 25.7890676,163.666013 24.7617188,164.158203 C24.5898429,163.884764 24.3906261,163.615236 24.1640625,163.349609 C26.1836038,162.52148 27.7695255,161.412116 28.921875,160.021484 L24.2929688,160.021484 L24.2929688,159.212891 L29.5429688,159.212891 L29.5429688,158.017578 L25.125,158.017578 L25.125,157.208984 L29.5429688,157.208984 L29.5429688,156.060547 L24.65625,156.060547 L24.65625,155.251953 L29.5429688,155.251953 L29.5429688,153.939453 L30.46875,153.939453 L30.46875,155.251953 L35.3789062,155.251953 L35.3789062,156.060547 L30.46875,156.060547 L30.46875,157.208984 L34.875,157.208984 L34.875,158.017578 L30.46875,158.017578 L30.46875,159.212891 L35.7070312,159.212891 L35.7070312,160.021484 L30.4980469,160.021484 C30.8261735,160.783207 31.2480443,161.443357 31.7636719,162.001953 C32.5488321,161.611326 33.4101516,161.095706 34.3476562,160.455078 Z M36.3632812,156.048828 L41.9882812,156.048828 L41.6223952,155.366535 C41.3975691,154.956813 41.2109382,154.637371 41.0625,154.408203 L41.9648438,153.986328 L42.2200521,154.392578 C42.414496,154.710286 42.6575506,155.121742 42.9492188,155.626953 L42.1054688,156.048828 L47.6132812,156.048828 L47.6132812,156.916016 L45.4511719,156.916016 C45.033201,159.146496 44.1347725,160.939446 42.7558594,162.294922 C43.7949271,163.052738 45.4453012,163.732419 47.7070312,164.333984 C47.3476545,164.740236 47.0742197,165.080077 46.8867188,165.353516 C44.6835827,164.591793 43.0566459,163.794926 42.0058594,162.962891 C40.9511666,163.783207 39.2656366,164.611324 36.9492188,165.447266 L36.6210942,165.013672 C36.5039069,164.861329 36.3789069,164.701173 36.2460938,164.533203 C38.4804799,163.861325 40.1621037,163.113285 41.2910156,162.289062 C39.8652272,160.765617 38.9589863,158.97462 38.5722656,156.916016 L36.3632812,156.916016 L36.3632812,156.048828 Z M44.4492188,156.916016 L39.5097656,156.916016 C39.8613299,158.8379 40.7011652,160.425775 42.0292969,161.679688 C43.2988345,160.499994 44.105467,158.912119 44.4492188,156.916016 Z M48.7851562,160.583984 L49.6246099,160.482468 C51.1094497,160.292032 52.2964198,160.077826 53.1855469,159.839844 C52.2480422,159.589843 51.300786,159.345704 50.34375,159.107422 C50.6640641,158.76367 50.96875,158.42383 51.2578125,158.087891 L48.46875,158.087891 L48.46875,157.314453 L51.890625,157.314453 C52.1875015,156.939451 52.4609363,156.568361 52.7109375,156.201172 L53.6601562,156.470703 C53.4492177,156.751955 53.2246106,157.033202 52.9863281,157.314453 L59.53125,157.314453 L59.53125,158.087891 L57.0117188,158.087891 C56.6406231,158.74805 56.138675,159.283201 55.5058594,159.693359 L56.8136729,160.039297 C57.4511715,160.209453 58.0640596,160.37539 58.6523438,160.537109 L58.2773438,161.322266 C57.0390563,160.931639 55.7793033,160.558596 54.4980469,160.203125 C53.3105409,160.671877 51.5195432,161.056639 49.125,161.357422 C49.0312495,161.107421 48.9179694,160.849611 48.7851562,160.583984 Z M59.8476562,164.369141 C59.5820299,164.681642 59.3554697,164.974608 59.1679688,165.248047 C57.1054584,164.630856 55.523443,163.875004 54.421875,162.980469 L54.421875,165.623047 L53.578125,165.623047 L53.578125,162.998047 C52.3945253,163.833989 50.8203223,164.587887 48.8554688,165.259766 C48.6757812,165.033202 48.4492201,164.76758 48.1757812,164.462891 C50.1914163,163.958982 51.7871035,163.337894 52.9628906,162.599609 L48.4453125,162.599609 L48.4453125,161.814453 L53.578125,161.814453 L53.578125,160.853516 L54.421875,160.853516 L54.421875,161.814453 L59.625,161.814453 L59.625,162.599609 L55.0605469,162.599609 C56.294928,163.431645 57.8906152,164.021483 59.8476562,164.369141 Z M48.7851562,155.123047 L53.6953125,155.123047 C53.5468743,154.853514 53.375001,154.576173 53.1796875,154.291016 L54.0117188,153.916016 C54.2656263,154.314455 54.5058582,154.716795 54.7324219,155.123047 L59.203125,155.123047 L59.203125,156.892578 L58.3125,156.892578 L58.3125,155.896484 L49.6757812,155.896484 L49.6757812,156.892578 L48.7851562,156.892578 L48.7851562,155.123047 Z M51.6796875,158.732422 L53.7582996,159.249878 C53.9819323,159.306274 54.2031239,159.362304 54.421875,159.417969 C55.1093784,159.11328 55.6464824,158.669925 56.0332031,158.087891 L52.3007812,158.087891 C52.1015615,158.302735 51.8945323,158.517577 51.6796875,158.732422 Z M62.1796875,160.337891 L62.7539062,159.681641 C63.3476592,160.169924 63.8886694,160.648435 64.3769531,161.117188 C64.9003932,160.210933 65.2695302,159.228521 65.484375,158.169922 L62.8476562,158.169922 C62.2343719,159.576179 61.4804732,160.841791 60.5859375,161.966797 C60.4140616,161.568357 60.2578132,161.255861 60.1171875,161.029297 C61.2968809,159.443351 62.2050749,157.587901 62.8417969,155.462891 L60.5039062,155.462891 L60.5039062,154.619141 L67.078125,154.619141 L67.078125,155.462891 L63.8085938,155.462891 C63.6249991,156.107425 63.419923,156.728513 63.1933594,157.326172 L66.4453125,157.326172 L66.4453125,158.181641 C65.8046843,161.384782 64.1211074,163.857413 61.3945312,165.599609 C61.1914052,165.365233 60.9492202,165.126954 60.6679688,164.884766 C62.0039129,164.02148 63.0742147,163.023443 63.8789062,161.890625 C63.4335915,161.453123 62.8671909,160.93555 62.1796875,160.337891 Z M70.1601562,154.197266 L71.0976562,154.197266 L71.0976562,163.876953 C71.0976562,164.869146 70.648442,165.369141 69.75,165.376953 L69.43287,165.380425 C69.0271028,165.382451 68.496097,165.377387 67.8398438,165.365234 C67.8007811,165.005858 67.7382817,164.654299 67.6523438,164.310547 L68.3867201,164.369141 C68.829428,164.400391 69.1783841,164.416016 69.4335938,164.416016 C69.9179712,164.416016 70.1601562,164.154299 70.1601562,163.630859 L70.1601562,154.197266 Z M68.4726562,162.669922 L67.5703125,162.669922 L67.5703125,155.498047 L68.4726562,155.498047 L68.4726562,162.669922 Z M82.3476562,160.455078 L82.9921875,161.263672 L80.3730469,162.576172 C81.2910202,163.326176 82.4413993,163.822264 83.8242188,164.064453 C83.5585924,164.408205 83.3398446,164.720702 83.1679688,165.001953 C80.6484249,164.400388 78.8418023,162.851575 77.7480469,160.355469 C77.3496074,160.863284 76.8945338,161.345701 76.3828125,161.802734 L76.3828125,164.310547 C77.4140677,163.974608 78.3710893,163.623049 79.2539062,163.255859 C79.2460937,163.599611 79.2499999,163.939453 79.265625,164.275391 C78.3281203,164.595705 77.35938,164.947264 76.359375,165.330078 C76.1484364,165.416016 75.9414073,165.517578 75.7382812,165.634766 L75.1875,164.779297 C75.4062511,164.623046 75.515625,164.404298 75.515625,164.123047 L75.515625,162.511719 C74.7070272,163.117191 73.7890676,163.666013 72.7617188,164.158203 C72.5898429,163.884764 72.3906261,163.615236 72.1640625,163.349609 C74.1836038,162.52148 75.7695255,161.412116 76.921875,160.021484 L72.2929688,160.021484 L72.2929688,159.212891 L77.5429688,159.212891 L77.5429688,158.017578 L73.125,158.017578 L73.125,157.208984 L77.5429688,157.208984 L77.5429688,156.060547 L72.65625,156.060547 L72.65625,155.251953 L77.5429688,155.251953 L77.5429688,153.939453 L78.46875,153.939453 L78.46875,155.251953 L83.3789062,155.251953 L83.3789062,156.060547 L78.46875,156.060547 L78.46875,157.208984 L82.875,157.208984 L82.875,158.017578 L78.46875,158.017578 L78.46875,159.212891 L83.7070312,159.212891 L83.7070312,160.021484 L78.4980469,160.021484 C78.8261735,160.783207 79.2480443,161.443357 79.7636719,162.001953 C80.5488321,161.611326 81.4101516,161.095706 82.3476562,160.455078 Z M84.3632812,156.048828 L89.9882812,156.048828 L89.6223952,155.366535 C89.3975691,154.956813 89.2109382,154.637371 89.0625,154.408203 L89.9648438,153.986328 L90.2200521,154.392578 C90.414496,154.710286 90.6575506,155.121742 90.9492188,155.626953 L90.1054688,156.048828 L95.6132812,156.048828 L95.6132812,156.916016 L93.4511719,156.916016 C93.033201,159.146496 92.1347725,160.939446 90.7558594,162.294922 C91.7949271,163.052738 93.4453012,163.732419 95.7070312,164.333984 C95.3476545,164.740236 95.0742197,165.080077 94.8867188,165.353516 C92.6835827,164.591793 91.0566459,163.794926 90.0058594,162.962891 C88.9511666,163.783207 87.2656366,164.611324 84.9492188,165.447266 L84.6210942,165.013672 C84.5039069,164.861329 84.3789069,164.701173 84.2460938,164.533203 C86.4804799,163.861325 88.1621037,163.113285 89.2910156,162.289062 C87.8652272,160.765617 86.9589863,158.97462 86.5722656,156.916016 L84.3632812,156.916016 L84.3632812,156.048828 Z M92.4492188,156.916016 L87.5097656,156.916016 C87.8613299,158.8379 88.7011652,160.425775 90.0292969,161.679688 C91.2988345,160.499994 92.105467,158.912119 92.4492188,156.916016 Z M96.7851562,160.583984 L97.6246099,160.482468 C99.1094497,160.292032 100.29642,160.077826 101.185547,159.839844 C100.248042,159.589843 99.300786,159.345704 98.34375,159.107422 C98.6640641,158.76367 98.96875,158.42383 99.2578125,158.087891 L96.46875,158.087891 L96.46875,157.314453 L99.890625,157.314453 C100.187501,156.939451 100.460936,156.568361 100.710938,156.201172 L101.660156,156.470703 C101.449218,156.751955 101.224611,157.033202 100.986328,157.314453 L107.53125,157.314453 L107.53125,158.087891 L105.011719,158.087891 C104.640623,158.74805 104.138675,159.283201 103.505859,159.693359 L104.813673,160.039297 C105.451172,160.209453 106.06406,160.37539 106.652344,160.537109 L106.277344,161.322266 C105.039056,160.931639 103.779303,160.558596 102.498047,160.203125 C101.310541,160.671877 99.5195432,161.056639 97.125,161.357422 C97.0312495,161.107421 96.9179694,160.849611 96.7851562,160.583984 Z M107.847656,164.369141 C107.58203,164.681642 107.35547,164.974608 107.167969,165.248047 C105.105458,164.630856 103.523443,163.875004 102.421875,162.980469 L102.421875,165.623047 L101.578125,165.623047 L101.578125,162.998047 C100.394525,163.833989 98.8203223,164.587887 96.8554688,165.259766 C96.6757812,165.033202 96.4492201,164.76758 96.1757812,164.462891 C98.1914163,163.958982 99.7871035,163.337894 100.962891,162.599609 L96.4453125,162.599609 L96.4453125,161.814453 L101.578125,161.814453 L101.578125,160.853516 L102.421875,160.853516 L102.421875,161.814453 L107.625,161.814453 L107.625,162.599609 L103.060547,162.599609 C104.294928,163.431645 105.890615,164.021483 107.847656,164.369141 Z M96.7851562,155.123047 L101.695312,155.123047 C101.546874,154.853514 101.375001,154.576173 101.179688,154.291016 L102.011719,153.916016 C102.265626,154.314455 102.505858,154.716795 102.732422,155.123047 L107.203125,155.123047 L107.203125,156.892578 L106.3125,156.892578 L106.3125,155.896484 L97.6757812,155.896484 L97.6757812,156.892578 L96.7851562,156.892578 L96.7851562,155.123047 Z M99.6796875,158.732422 L101.7583,159.249878 C101.981932,159.306274 102.203124,159.362304 102.421875,159.417969 C103.109378,159.11328 103.646482,158.669925 104.033203,158.087891 L100.300781,158.087891 C100.101562,158.302735 99.8945323,158.517577 99.6796875,158.732422 Z M110.179688,160.337891 L110.753906,159.681641 C111.347659,160.169924 111.888669,160.648435 112.376953,161.117188 C112.900393,160.210933 113.26953,159.228521 113.484375,158.169922 L110.847656,158.169922 C110.234372,159.576179 109.480473,160.841791 108.585938,161.966797 C108.414062,161.568357 108.257813,161.255861 108.117188,161.029297 C109.296881,159.443351 110.205075,157.587901 110.841797,155.462891 L108.503906,155.462891 L108.503906,154.619141 L115.078125,154.619141 L115.078125,155.462891 L111.808594,155.462891 C111.624999,156.107425 111.419923,156.728513 111.193359,157.326172 L114.445312,157.326172 L114.445312,158.181641 C113.804684,161.384782 112.121107,163.857413 109.394531,165.599609 C109.191405,165.365233 108.94922,165.126954 108.667969,164.884766 C110.003913,164.02148 111.074215,163.023443 111.878906,161.890625 C111.433592,161.453123 110.867191,160.93555 110.179688,160.337891 Z M118.160156,154.197266 L119.097656,154.197266 L119.097656,163.876953 C119.097656,164.869146 118.648442,165.369141 117.75,165.376953 L117.43287,165.380425 C117.027103,165.382451 116.496097,165.377387 115.839844,165.365234 C115.800781,165.005858 115.738282,164.654299 115.652344,164.310547 L116.38672,164.369141 C116.829428,164.400391 117.178384,164.416016 117.433594,164.416016 C117.917971,164.416016 118.160156,164.154299 118.160156,163.630859 L118.160156,154.197266 Z M116.472656,162.669922 L115.570312,162.669922 L115.570312,155.498047 L116.472656,155.498047 L116.472656,162.669922 Z M130.347656,160.455078 L130.992188,161.263672 L128.373047,162.576172 C129.29102,163.326176 130.441399,163.822264 131.824219,164.064453 C131.558592,164.408205 131.339845,164.720702 131.167969,165.001953 C128.648425,164.400388 126.841802,162.851575 125.748047,160.355469 C125.349607,160.863284 124.894534,161.345701 124.382812,161.802734 L124.382812,164.310547 C125.414068,163.974608 126.371089,163.623049 127.253906,163.255859 C127.246094,163.599611 127.25,163.939453 127.265625,164.275391 C126.32812,164.595705 125.35938,164.947264 124.359375,165.330078 C124.148436,165.416016 123.941407,165.517578 123.738281,165.634766 L123.1875,164.779297 C123.406251,164.623046 123.515625,164.404298 123.515625,164.123047 L123.515625,162.511719 C122.707027,163.117191 121.789068,163.666013 120.761719,164.158203 C120.589843,163.884764 120.390626,163.615236 120.164062,163.349609 C122.183604,162.52148 123.769525,161.412116 124.921875,160.021484 L120.292969,160.021484 L120.292969,159.212891 L125.542969,159.212891 L125.542969,158.017578 L121.125,158.017578 L121.125,157.208984 L125.542969,157.208984 L125.542969,156.060547 L120.65625,156.060547 L120.65625,155.251953 L125.542969,155.251953 L125.542969,153.939453 L126.46875,153.939453 L126.46875,155.251953 L131.378906,155.251953 L131.378906,156.060547 L126.46875,156.060547 L126.46875,157.208984 L130.875,157.208984 L130.875,158.017578 L126.46875,158.017578 L126.46875,159.212891 L131.707031,159.212891 L131.707031,160.021484 L126.498047,160.021484 C126.826174,160.783207 127.248044,161.443357 127.763672,162.001953 C128.548832,161.611326 129.410152,161.095706 130.347656,160.455078 Z M132.363281,156.048828 L137.988281,156.048828 L137.622395,155.366535 C137.397569,154.956813 137.210938,154.637371 137.0625,154.408203 L137.964844,153.986328 L138.220052,154.392578 C138.414496,154.710286 138.657551,155.121742 138.949219,155.626953 L138.105469,156.048828 L143.613281,156.048828 L143.613281,156.916016 L141.451172,156.916016 C141.033201,159.146496 140.134773,160.939446 138.755859,162.294922 C139.794927,163.052738 141.445301,163.732419 143.707031,164.333984 C143.347654,164.740236 143.07422,165.080077 142.886719,165.353516 C140.683583,164.591793 139.056646,163.794926 138.005859,162.962891 C136.951167,163.783207 135.265637,164.611324 132.949219,165.447266 L132.621094,165.013672 C132.503907,164.861329 132.378907,164.701173 132.246094,164.533203 C134.48048,163.861325 136.162104,163.113285 137.291016,162.289062 C135.865227,160.765617 134.958986,158.97462 134.572266,156.916016 L132.363281,156.916016 L132.363281,156.048828 Z M140.449219,156.916016 L135.509766,156.916016 C135.86133,158.8379 136.701165,160.425775 138.029297,161.679688 C139.298834,160.499994 140.105467,158.912119 140.449219,156.916016 Z M144.785156,160.583984 L145.62461,160.482468 C147.10945,160.292032 148.29642,160.077826 149.185547,159.839844 C148.248042,159.589843 147.300786,159.345704 146.34375,159.107422 C146.664064,158.76367 146.96875,158.42383 147.257812,158.087891 L144.46875,158.087891 L144.46875,157.314453 L147.890625,157.314453 C148.187501,156.939451 148.460936,156.568361 148.710938,156.201172 L149.660156,156.470703 C149.449218,156.751955 149.224611,157.033202 148.986328,157.314453 L155.53125,157.314453 L155.53125,158.087891 L153.011719,158.087891 C152.640623,158.74805 152.138675,159.283201 151.505859,159.693359 L152.813673,160.039297 C153.451172,160.209453 154.06406,160.37539 154.652344,160.537109 L154.277344,161.322266 C153.039056,160.931639 151.779303,160.558596 150.498047,160.203125 C149.310541,160.671877 147.519543,161.056639 145.125,161.357422 C145.03125,161.107421 144.917969,160.849611 144.785156,160.583984 Z M155.847656,164.369141 C155.58203,164.681642 155.35547,164.974608 155.167969,165.248047 C153.105458,164.630856 151.523443,163.875004 150.421875,162.980469 L150.421875,165.623047 L149.578125,165.623047 L149.578125,162.998047 C148.394525,163.833989 146.820322,164.587887 144.855469,165.259766 C144.675781,165.033202 144.44922,164.76758 144.175781,164.462891 C146.191416,163.958982 147.787103,163.337894 148.962891,162.599609 L144.445312,162.599609 L144.445312,161.814453 L149.578125,161.814453 L149.578125,160.853516 L150.421875,160.853516 L150.421875,161.814453 L155.625,161.814453 L155.625,162.599609 L151.060547,162.599609 C152.294928,163.431645 153.890615,164.021483 155.847656,164.369141 Z M144.785156,155.123047 L149.695312,155.123047 C149.546874,154.853514 149.375001,154.576173 149.179688,154.291016 L150.011719,153.916016 C150.265626,154.314455 150.505858,154.716795 150.732422,155.123047 L155.203125,155.123047 L155.203125,156.892578 L154.3125,156.892578 L154.3125,155.896484 L145.675781,155.896484 L145.675781,156.892578 L144.785156,156.892578 L144.785156,155.123047 Z M147.679688,158.732422 L149.7583,159.249878 C149.981932,159.306274 150.203124,159.362304 150.421875,159.417969 C151.109378,159.11328 151.646482,158.669925 152.033203,158.087891 L148.300781,158.087891 C148.101562,158.302735 147.894532,158.517577 147.679688,158.732422 Z M161.449219,154.923828 L161.449219,160.736328 L162.609375,160.736328 L162.609375,161.644531 L161.449219,161.644531 L161.449219,164 L160.335938,164 L160.335938,161.644531 L156.105469,161.644531 L156.105469,160.900391 L160.119141,154.923828 L161.449219,154.923828 Z M160.359375,156.001953 L160.335938,156.001953 C160.28125,156.150391 160.166017,156.382811 159.990234,156.699219 L159.990234,156.699219 L157.289062,160.736328 L160.335938,160.736328 L160.335938,156.933594 C160.335938,156.798827 160.337891,156.653808 160.341797,156.498535 L160.341797,156.498535 L160.359375,156.001953 Z" id="列表文案列表文案列表文案4" fill="#5A6677" fill-rule="nonzero"></path>
                    <rect id="Rectangle" fill="#F1F1F1" x="0" y="178" width="410" height="1"></rect>
                    <rect id="Rectangle" fill="#F1F1F1" x="0" y="30" width="410" height="1"></rect>
                </g>
                <text id="样式一" font-family="MicrosoftYaHei, Microsoft YaHei" font-size="12" font-weight="normal" line-spacing="22" fill="#525A6E">
                    <tspan x="8" y="27">样式一</tspan>
                </text>
            </g>
        </g>
    </g>
</svg>