<?xml version="1.0" encoding="UTF-8"?>
<svg width="494px" height="52px" viewBox="0 0 494 52" version="1.1" xmlns="http://www.w3.org/2000/svg" xmlns:xlink="http://www.w3.org/1999/xlink">
    <!-- Generator: Sketch 58 (84663) - https://sketch.com -->
    <title>radiobutton/style1</title>
    <desc>Created with Sketch.</desc>
    <g id="页面-1" stroke="none" stroke-width="1" fill="none" fill-rule="evenodd">
        <g id="radiobutton/style1">
            <g id="编组-20">
                <rect id="矩形备份" fill-opacity="0.01" fill="#FAFAFA" x="0" y="0" width="494" height="52"></rect>
                <g id="编组-5" transform="translate(52.000000, 15.000000)">
                    <rect id="矩形" stroke="#4F7DE7" fill="#4F7DE7" x="0.5" y="0.5" width="61" height="21" rx="2"></rect>
                    <path d="M9,11.3164062 C9,10.2460884 9.29882514,9.40137028 9.89648438,8.78222656 C10.4941436,8.16308284 11.3046824,7.85351562 12.328125,7.85351562 C13.3007861,7.85351562 14.0634738,8.15136421 14.6162109,8.74707031 C15.1689481,9.34277642 15.4453125,10.1660104 15.4453125,11.2167969 C15.4453125,12.2402395 15.1503936,13.0664031 14.5605469,13.6953125 C13.9707002,14.3242219 13.1796925,14.6386719 12.1875,14.6386719 C11.2187452,14.6386719 10.4453154,14.3339874 9.8671875,13.7246094 C9.28905961,13.1152313 9,12.312505 9,11.3164062 Z M10.171875,11.28125 C10.171875,12.0273475 10.3603497,12.6152322 10.7373047,13.0449219 C11.1142597,13.4746115 11.6210906,13.6894531 12.2578125,13.6894531 C12.9140658,13.6894531 13.4140608,13.4794943 13.7578125,13.0595703 C14.1015642,12.6396463 14.2734375,12.0371133 14.2734375,11.2519531 C14.2734375,10.4628867 14.1015642,9.85742398 13.7578125,9.43554688 C13.4140608,9.01366977 12.9140658,8.80273438 12.2578125,8.80273438 C11.613278,8.80273438 11.1044941,9.02343529 10.7314453,9.46484375 C10.3583966,9.90625221 10.171875,10.5117149 10.171875,11.28125 Z M18.2109375,13.5722656 L18.2109375,17.46875 L17.0625,17.46875 L17.0625,8.00585938 L18.2109375,8.00585938 L18.2109375,9.125 L18.234375,9.125 C18.74219,8.27733951 19.4843701,7.85351562 20.4609375,7.85351562 C21.2890666,7.85351562 21.9384742,8.14355179 22.4091797,8.72363281 C22.8798852,9.30371384 23.1152344,10.0820264 23.1152344,11.0585938 C23.1152344,12.1367241 22.8486355,13.0029264 22.3154297,13.6572266 C21.7822239,14.3115267 21.0644576,14.6386719 20.1621094,14.6386719 C19.330074,14.6386719 18.6875023,14.2832067 18.234375,13.5722656 L18.2109375,13.5722656 Z M18.2050781,11.8144531 C18.2050781,12.3417995 18.3749983,12.786131 18.7148438,13.1474609 C19.0546892,13.5087909 19.4804662,13.6894531 19.9921875,13.6894531 C20.6015655,13.6894531 21.0781233,13.4550805 21.421875,12.9863281 C21.7656267,12.5175758 21.9375,11.8691448 21.9375,11.0410156 C21.9375,10.3417934 21.7773454,9.79394729 21.4570312,9.39746094 C21.1367171,9.00097458 20.6992215,8.80273438 20.1445312,8.80273438 C19.5781222,8.80273438 19.1132831,9.00390424 18.75,9.40625 C18.3867169,9.80859576 18.2050781,10.3242156 18.2050781,10.953125 L18.2050781,11.8144531 Z M27.8378906,14.421875 C27.5878894,14.5585944 27.2500021,14.6269531 26.8242188,14.6269531 C25.6640567,14.6269531 25.0839844,13.9843814 25.0839844,12.6992188 L25.0839844,8.95507812 L23.9707031,8.95507812 L23.9707031,8.00585938 L25.0839844,8.00585938 L25.0839844,6.44726562 L26.2265625,6.08398438 L26.2265625,8.00585938 L27.8378906,8.00585938 L27.8378906,8.95507812 L26.2265625,8.95507812 L26.2265625,12.4941406 C26.2265625,12.919924 26.2988274,13.2246085 26.4433594,13.4082031 C26.5878913,13.5917978 26.8281233,13.6835938 27.1640625,13.6835938 C27.4218763,13.6835938 27.6464834,13.6113288 27.8378906,13.4667969 L27.8378906,14.421875 Z M29.0566406,5.72070312 C29.0566406,5.51757711 29.1259759,5.34668038 29.2646484,5.20800781 C29.403321,5.06933524 29.5742177,5 29.7773438,5 C29.984376,5 30.159179,5.06835869 30.3017578,5.20507812 C30.4443367,5.34179756 30.515625,5.51367084 30.515625,5.72070312 C30.515625,5.92382914 30.4443367,6.09277276 30.3017578,6.22753906 C30.159179,6.36230536 29.984376,6.4296875 29.7773438,6.4296875 C29.5703115,6.4296875 29.3984382,6.36230536 29.2617188,6.22753906 C29.1249993,6.09277276 29.0566406,5.92382914 29.0566406,5.72070312 Z M29.1914062,14.4863281 L29.1914062,8.00585938 L30.3398438,8.00585938 L30.3398438,14.4863281 L29.1914062,14.4863281 Z M31.9570312,11.3164062 C31.9570312,10.2460884 32.2558564,9.40137028 32.8535156,8.78222656 C33.4511749,8.16308284 34.2617136,7.85351562 35.2851562,7.85351562 C36.2578174,7.85351562 37.020505,8.15136421 37.5732422,8.74707031 C38.1259793,9.34277642 38.4023438,10.1660104 38.4023438,11.2167969 C38.4023438,12.2402395 38.1074248,13.0664031 37.5175781,13.6953125 C36.9277314,14.3242219 36.1367237,14.6386719 35.1445312,14.6386719 C34.1757764,14.6386719 33.4023466,14.3339874 32.8242188,13.7246094 C32.2460909,13.1152313 31.9570312,12.312505 31.9570312,11.3164062 Z M33.1289062,11.28125 C33.1289062,12.0273475 33.3173809,12.6152322 33.6943359,13.0449219 C34.0712909,13.4746115 34.5781218,13.6894531 35.2148438,13.6894531 C35.871097,13.6894531 36.371092,13.4794943 36.7148438,13.0595703 C37.0585955,12.6396463 37.2304688,12.0371133 37.2304688,11.2519531 C37.2304688,10.4628867 37.0585955,9.85742398 36.7148438,9.43554688 C36.371092,9.01366977 35.871097,8.80273438 35.2148438,8.80273438 C34.5703093,8.80273438 34.0615253,9.02343529 33.6884766,9.46484375 C33.3154278,9.90625221 33.1289062,10.5117149 33.1289062,11.28125 Z M45.4980469,14.4863281 L44.3554688,14.4863281 L44.3554688,10.8007812 C44.3554688,9.46874334 43.8691455,8.80273438 42.8964844,8.80273438 C42.3925756,8.80273438 41.9785172,8.9902325 41.6542969,9.36523438 C41.3300765,9.74023625 41.1679688,10.2148409 41.1679688,10.7890625 L41.1679688,14.4863281 L40.0195312,14.4863281 L40.0195312,8.00585938 L41.1679688,8.00585938 L41.1679688,9.078125 L41.1914062,9.078125 C41.6796899,8.26171467 42.3886672,7.85351562 43.3183594,7.85351562 C44.0293004,7.85351562 44.5703106,8.08105241 44.9414062,8.53613281 C45.3125019,8.99121321 45.4980469,9.65429252 45.4980469,10.5253906 L45.4980469,14.4863281 Z M52.6992188,14.4863281 L47.4960938,14.4863281 L47.4960938,13.4960938 L49.5292969,13.4960938 L49.5292969,6.60546875 L47.4433594,7.20898438 L47.4433594,6.15429688 L50.671875,5.21679688 L50.671875,13.4960938 L52.6992188,13.4960938 L52.6992188,14.4863281 Z" id="option1" fill="#FFFFFF" fill-rule="nonzero"></path>
                </g>
                <g id="编组-5" transform="translate(130.000000, 15.000000)">
                    <rect id="矩形" stroke="#D5DAE0" x="0.5" y="0.5" width="61" height="21" rx="2"></rect>
                    <path d="M9,11.3164062 C9,10.2460884 9.29882514,9.40137028 9.89648438,8.78222656 C10.4941436,8.16308284 11.3046824,7.85351562 12.328125,7.85351562 C13.3007861,7.85351562 14.0634738,8.15136421 14.6162109,8.74707031 C15.1689481,9.34277642 15.4453125,10.1660104 15.4453125,11.2167969 C15.4453125,12.2402395 15.1503936,13.0664031 14.5605469,13.6953125 C13.9707002,14.3242219 13.1796925,14.6386719 12.1875,14.6386719 C11.2187452,14.6386719 10.4453154,14.3339874 9.8671875,13.7246094 C9.28905961,13.1152313 9,12.312505 9,11.3164062 Z M10.171875,11.28125 C10.171875,12.0273475 10.3603497,12.6152322 10.7373047,13.0449219 C11.1142597,13.4746115 11.6210906,13.6894531 12.2578125,13.6894531 C12.9140658,13.6894531 13.4140608,13.4794943 13.7578125,13.0595703 C14.1015642,12.6396463 14.2734375,12.0371133 14.2734375,11.2519531 C14.2734375,10.4628867 14.1015642,9.85742398 13.7578125,9.43554688 C13.4140608,9.01366977 12.9140658,8.80273438 12.2578125,8.80273438 C11.613278,8.80273438 11.1044941,9.02343529 10.7314453,9.46484375 C10.3583966,9.90625221 10.171875,10.5117149 10.171875,11.28125 Z M18.2109375,13.5722656 L18.2109375,17.46875 L17.0625,17.46875 L17.0625,8.00585938 L18.2109375,8.00585938 L18.2109375,9.125 L18.234375,9.125 C18.74219,8.27733951 19.4843701,7.85351562 20.4609375,7.85351562 C21.2890666,7.85351562 21.9384742,8.14355179 22.4091797,8.72363281 C22.8798852,9.30371384 23.1152344,10.0820264 23.1152344,11.0585938 C23.1152344,12.1367241 22.8486355,13.0029264 22.3154297,13.6572266 C21.7822239,14.3115267 21.0644576,14.6386719 20.1621094,14.6386719 C19.330074,14.6386719 18.6875023,14.2832067 18.234375,13.5722656 L18.2109375,13.5722656 Z M18.2050781,11.8144531 C18.2050781,12.3417995 18.3749983,12.786131 18.7148438,13.1474609 C19.0546892,13.5087909 19.4804662,13.6894531 19.9921875,13.6894531 C20.6015655,13.6894531 21.0781233,13.4550805 21.421875,12.9863281 C21.7656267,12.5175758 21.9375,11.8691448 21.9375,11.0410156 C21.9375,10.3417934 21.7773454,9.79394729 21.4570312,9.39746094 C21.1367171,9.00097458 20.6992215,8.80273438 20.1445312,8.80273438 C19.5781222,8.80273438 19.1132831,9.00390424 18.75,9.40625 C18.3867169,9.80859576 18.2050781,10.3242156 18.2050781,10.953125 L18.2050781,11.8144531 Z M27.8378906,14.421875 C27.5878894,14.5585944 27.2500021,14.6269531 26.8242188,14.6269531 C25.6640567,14.6269531 25.0839844,13.9843814 25.0839844,12.6992188 L25.0839844,8.95507812 L23.9707031,8.95507812 L23.9707031,8.00585938 L25.0839844,8.00585938 L25.0839844,6.44726562 L26.2265625,6.08398438 L26.2265625,8.00585938 L27.8378906,8.00585938 L27.8378906,8.95507812 L26.2265625,8.95507812 L26.2265625,12.4941406 C26.2265625,12.919924 26.2988274,13.2246085 26.4433594,13.4082031 C26.5878913,13.5917978 26.8281233,13.6835938 27.1640625,13.6835938 C27.4218763,13.6835938 27.6464834,13.6113288 27.8378906,13.4667969 L27.8378906,14.421875 Z M29.0566406,5.72070312 C29.0566406,5.51757711 29.1259759,5.34668038 29.2646484,5.20800781 C29.403321,5.06933524 29.5742177,5 29.7773438,5 C29.984376,5 30.159179,5.06835869 30.3017578,5.20507812 C30.4443367,5.34179756 30.515625,5.51367084 30.515625,5.72070312 C30.515625,5.92382914 30.4443367,6.09277276 30.3017578,6.22753906 C30.159179,6.36230536 29.984376,6.4296875 29.7773438,6.4296875 C29.5703115,6.4296875 29.3984382,6.36230536 29.2617188,6.22753906 C29.1249993,6.09277276 29.0566406,5.92382914 29.0566406,5.72070312 Z M29.1914062,14.4863281 L29.1914062,8.00585938 L30.3398438,8.00585938 L30.3398438,14.4863281 L29.1914062,14.4863281 Z M31.9570312,11.3164062 C31.9570312,10.2460884 32.2558564,9.40137028 32.8535156,8.78222656 C33.4511749,8.16308284 34.2617136,7.85351562 35.2851562,7.85351562 C36.2578174,7.85351562 37.020505,8.15136421 37.5732422,8.74707031 C38.1259793,9.34277642 38.4023438,10.1660104 38.4023438,11.2167969 C38.4023438,12.2402395 38.1074248,13.0664031 37.5175781,13.6953125 C36.9277314,14.3242219 36.1367237,14.6386719 35.1445312,14.6386719 C34.1757764,14.6386719 33.4023466,14.3339874 32.8242188,13.7246094 C32.2460909,13.1152313 31.9570312,12.312505 31.9570312,11.3164062 Z M33.1289062,11.28125 C33.1289062,12.0273475 33.3173809,12.6152322 33.6943359,13.0449219 C34.0712909,13.4746115 34.5781218,13.6894531 35.2148438,13.6894531 C35.871097,13.6894531 36.371092,13.4794943 36.7148438,13.0595703 C37.0585955,12.6396463 37.2304688,12.0371133 37.2304688,11.2519531 C37.2304688,10.4628867 37.0585955,9.85742398 36.7148438,9.43554688 C36.371092,9.01366977 35.871097,8.80273438 35.2148438,8.80273438 C34.5703093,8.80273438 34.0615253,9.02343529 33.6884766,9.46484375 C33.3154278,9.90625221 33.1289062,10.5117149 33.1289062,11.28125 Z M45.4980469,14.4863281 L44.3554688,14.4863281 L44.3554688,10.8007812 C44.3554688,9.46874334 43.8691455,8.80273438 42.8964844,8.80273438 C42.3925756,8.80273438 41.9785172,8.9902325 41.6542969,9.36523438 C41.3300765,9.74023625 41.1679688,10.2148409 41.1679688,10.7890625 L41.1679688,14.4863281 L40.0195312,14.4863281 L40.0195312,8.00585938 L41.1679688,8.00585938 L41.1679688,9.078125 L41.1914062,9.078125 C41.6796899,8.26171467 42.3886672,7.85351562 43.3183594,7.85351562 C44.0293004,7.85351562 44.5703106,8.08105241 44.9414062,8.53613281 C45.3125019,8.99121321 45.4980469,9.65429252 45.4980469,10.5253906 L45.4980469,14.4863281 Z M52.5292969,14.4863281 L47.0097656,14.4863281 L47.0097656,13.4902344 L49.6464844,10.859375 C50.3730505,10.1328089 50.8593738,9.55761931 51.1054688,9.13378906 C51.3515637,8.70995882 51.4746094,8.27148664 51.4746094,7.81835938 C51.4746094,7.3027318 51.3300796,6.90722794 51.0410156,6.63183594 C50.7519517,6.35644394 50.3339871,6.21875 49.7871094,6.21875 C48.9785116,6.21875 48.2070349,6.56249656 47.4726562,7.25 L47.4726562,6.08398438 C48.1875036,5.53320037 49.0195265,5.2578125 49.96875,5.2578125 C50.7851603,5.2578125 51.4296851,5.47851342 51.9023438,5.91992188 C52.3750024,6.36133033 52.6113281,6.95507439 52.6113281,7.70117188 C52.6113281,8.26367469 52.4599625,8.81542698 52.1572266,9.35644531 C51.8544907,9.89746364 51.2812542,10.5859333 50.4375,11.421875 L48.3691406,13.4433594 L48.3691406,13.4667969 L52.5292969,13.4667969 L52.5292969,14.4863281 Z" id="option2" fill="#5A6677" fill-rule="nonzero"></path>
                </g>
                <g id="编组-5" transform="translate(208.000000, 15.000000)">
                    <rect id="矩形" stroke="#E7EAED" fill="#F8F8F8" x="0.5" y="0.5" width="61" height="21" rx="2"></rect>
                    <path d="M9,11.3164062 C9,10.2460884 9.29882514,9.40137028 9.89648438,8.78222656 C10.4941436,8.16308284 11.3046824,7.85351562 12.328125,7.85351562 C13.3007861,7.85351562 14.0634738,8.15136421 14.6162109,8.74707031 C15.1689481,9.34277642 15.4453125,10.1660104 15.4453125,11.2167969 C15.4453125,12.2402395 15.1503936,13.0664031 14.5605469,13.6953125 C13.9707002,14.3242219 13.1796925,14.6386719 12.1875,14.6386719 C11.2187452,14.6386719 10.4453154,14.3339874 9.8671875,13.7246094 C9.28905961,13.1152313 9,12.312505 9,11.3164062 Z M10.171875,11.28125 C10.171875,12.0273475 10.3603497,12.6152322 10.7373047,13.0449219 C11.1142597,13.4746115 11.6210906,13.6894531 12.2578125,13.6894531 C12.9140658,13.6894531 13.4140608,13.4794943 13.7578125,13.0595703 C14.1015642,12.6396463 14.2734375,12.0371133 14.2734375,11.2519531 C14.2734375,10.4628867 14.1015642,9.85742398 13.7578125,9.43554688 C13.4140608,9.01366977 12.9140658,8.80273438 12.2578125,8.80273438 C11.613278,8.80273438 11.1044941,9.02343529 10.7314453,9.46484375 C10.3583966,9.90625221 10.171875,10.5117149 10.171875,11.28125 Z M18.2109375,13.5722656 L18.2109375,17.46875 L17.0625,17.46875 L17.0625,8.00585938 L18.2109375,8.00585938 L18.2109375,9.125 L18.234375,9.125 C18.74219,8.27733951 19.4843701,7.85351562 20.4609375,7.85351562 C21.2890666,7.85351562 21.9384742,8.14355179 22.4091797,8.72363281 C22.8798852,9.30371384 23.1152344,10.0820264 23.1152344,11.0585938 C23.1152344,12.1367241 22.8486355,13.0029264 22.3154297,13.6572266 C21.7822239,14.3115267 21.0644576,14.6386719 20.1621094,14.6386719 C19.330074,14.6386719 18.6875023,14.2832067 18.234375,13.5722656 L18.2109375,13.5722656 Z M18.2050781,11.8144531 C18.2050781,12.3417995 18.3749983,12.786131 18.7148438,13.1474609 C19.0546892,13.5087909 19.4804662,13.6894531 19.9921875,13.6894531 C20.6015655,13.6894531 21.0781233,13.4550805 21.421875,12.9863281 C21.7656267,12.5175758 21.9375,11.8691448 21.9375,11.0410156 C21.9375,10.3417934 21.7773454,9.79394729 21.4570312,9.39746094 C21.1367171,9.00097458 20.6992215,8.80273438 20.1445312,8.80273438 C19.5781222,8.80273438 19.1132831,9.00390424 18.75,9.40625 C18.3867169,9.80859576 18.2050781,10.3242156 18.2050781,10.953125 L18.2050781,11.8144531 Z M27.8378906,14.421875 C27.5878894,14.5585944 27.2500021,14.6269531 26.8242188,14.6269531 C25.6640567,14.6269531 25.0839844,13.9843814 25.0839844,12.6992188 L25.0839844,8.95507812 L23.9707031,8.95507812 L23.9707031,8.00585938 L25.0839844,8.00585938 L25.0839844,6.44726562 L26.2265625,6.08398438 L26.2265625,8.00585938 L27.8378906,8.00585938 L27.8378906,8.95507812 L26.2265625,8.95507812 L26.2265625,12.4941406 C26.2265625,12.919924 26.2988274,13.2246085 26.4433594,13.4082031 C26.5878913,13.5917978 26.8281233,13.6835938 27.1640625,13.6835938 C27.4218763,13.6835938 27.6464834,13.6113288 27.8378906,13.4667969 L27.8378906,14.421875 Z M29.0566406,5.72070312 C29.0566406,5.51757711 29.1259759,5.34668038 29.2646484,5.20800781 C29.403321,5.06933524 29.5742177,5 29.7773438,5 C29.984376,5 30.159179,5.06835869 30.3017578,5.20507812 C30.4443367,5.34179756 30.515625,5.51367084 30.515625,5.72070312 C30.515625,5.92382914 30.4443367,6.09277276 30.3017578,6.22753906 C30.159179,6.36230536 29.984376,6.4296875 29.7773438,6.4296875 C29.5703115,6.4296875 29.3984382,6.36230536 29.2617188,6.22753906 C29.1249993,6.09277276 29.0566406,5.92382914 29.0566406,5.72070312 Z M29.1914062,14.4863281 L29.1914062,8.00585938 L30.3398438,8.00585938 L30.3398438,14.4863281 L29.1914062,14.4863281 Z M31.9570312,11.3164062 C31.9570312,10.2460884 32.2558564,9.40137028 32.8535156,8.78222656 C33.4511749,8.16308284 34.2617136,7.85351562 35.2851562,7.85351562 C36.2578174,7.85351562 37.020505,8.15136421 37.5732422,8.74707031 C38.1259793,9.34277642 38.4023438,10.1660104 38.4023438,11.2167969 C38.4023438,12.2402395 38.1074248,13.0664031 37.5175781,13.6953125 C36.9277314,14.3242219 36.1367237,14.6386719 35.1445312,14.6386719 C34.1757764,14.6386719 33.4023466,14.3339874 32.8242188,13.7246094 C32.2460909,13.1152313 31.9570312,12.312505 31.9570312,11.3164062 Z M33.1289062,11.28125 C33.1289062,12.0273475 33.3173809,12.6152322 33.6943359,13.0449219 C34.0712909,13.4746115 34.5781218,13.6894531 35.2148438,13.6894531 C35.871097,13.6894531 36.371092,13.4794943 36.7148438,13.0595703 C37.0585955,12.6396463 37.2304688,12.0371133 37.2304688,11.2519531 C37.2304688,10.4628867 37.0585955,9.85742398 36.7148438,9.43554688 C36.371092,9.01366977 35.871097,8.80273438 35.2148438,8.80273438 C34.5703093,8.80273438 34.0615253,9.02343529 33.6884766,9.46484375 C33.3154278,9.90625221 33.1289062,10.5117149 33.1289062,11.28125 Z M45.4980469,14.4863281 L44.3554688,14.4863281 L44.3554688,10.8007812 C44.3554688,9.46874334 43.8691455,8.80273438 42.8964844,8.80273438 C42.3925756,8.80273438 41.9785172,8.9902325 41.6542969,9.36523438 C41.3300765,9.74023625 41.1679688,10.2148409 41.1679688,10.7890625 L41.1679688,14.4863281 L40.0195312,14.4863281 L40.0195312,8.00585938 L41.1679688,8.00585938 L41.1679688,9.078125 L41.1914062,9.078125 C41.6796899,8.26171467 42.3886672,7.85351562 43.3183594,7.85351562 C44.0293004,7.85351562 44.5703106,8.08105241 44.9414062,8.53613281 C45.3125019,8.99121321 45.4980469,9.65429252 45.4980469,10.5253906 L45.4980469,14.4863281 Z M52.5292969,14.4863281 L47.0097656,14.4863281 L47.0097656,13.4902344 L49.6464844,10.859375 C50.3730505,10.1328089 50.8593738,9.55761931 51.1054688,9.13378906 C51.3515637,8.70995882 51.4746094,8.27148664 51.4746094,7.81835938 C51.4746094,7.3027318 51.3300796,6.90722794 51.0410156,6.63183594 C50.7519517,6.35644394 50.3339871,6.21875 49.7871094,6.21875 C48.9785116,6.21875 48.2070349,6.56249656 47.4726562,7.25 L47.4726562,6.08398438 C48.1875036,5.53320037 49.0195265,5.2578125 49.96875,5.2578125 C50.7851603,5.2578125 51.4296851,5.47851342 51.9023438,5.91992188 C52.3750024,6.36133033 52.6113281,6.95507439 52.6113281,7.70117188 C52.6113281,8.26367469 52.4599625,8.81542698 52.1572266,9.35644531 C51.8544907,9.89746364 51.2812542,10.5859333 50.4375,11.421875 L48.3691406,13.4433594 L48.3691406,13.4667969 L52.5292969,13.4667969 L52.5292969,14.4863281 Z" id="option2" fill="#AAADBA" fill-rule="nonzero"></path>
                </g>
                <text id="样式一" font-family="MicrosoftYaHei, Microsoft YaHei" font-size="12" font-weight="normal" line-spacing="22" fill="#525A6E">
                    <tspan x="8" y="27">样式一</tspan>
                </text>
            </g>
        </g>
    </g>
</svg>