<?xml version="1.0" encoding="UTF-8"?>
<svg width="494px" height="218px" viewBox="0 0 494 218" version="1.1" xmlns="http://www.w3.org/2000/svg" xmlns:xlink="http://www.w3.org/1999/xlink">
    <!-- Generator: Sketch 58 (84663) - https://sketch.com -->
    <title>list-single/style3</title>
    <desc>Created with Sketch.</desc>
    <defs>
        <rect id="path-1" x="64" y="50" width="400" height="36" rx="1.5"></rect>
        <filter x="-1.2%" y="-11.1%" width="102.5%" height="127.8%" filterUnits="objectBoundingBox" id="filter-2">
            <feOffset dx="0" dy="1" in="SourceAlpha" result="shadowOffsetOuter1"></feOffset>
            <feGaussianBlur stdDeviation="1.5" in="shadowOffsetOuter1" result="shadowBlurOuter1"></feGaussianBlur>
            <feColorMatrix values="0 0 0 0 0   0 0 0 0 0   0 0 0 0 0  0 0 0 0.2 0" type="matrix" in="shadowBlurOuter1"></feColorMatrix>
        </filter>
        <rect id="path-3" x="64" y="90" width="400" height="36" rx="1.5"></rect>
        <filter x="-1.2%" y="-11.1%" width="102.5%" height="127.8%" filterUnits="objectBoundingBox" id="filter-4">
            <feOffset dx="0" dy="1" in="SourceAlpha" result="shadowOffsetOuter1"></feOffset>
            <feGaussianBlur stdDeviation="1.5" in="shadowOffsetOuter1" result="shadowBlurOuter1"></feGaussianBlur>
            <feColorMatrix values="0 0 0 0 0   0 0 0 0 0   0 0 0 0 0  0 0 0 0.2 0" type="matrix" in="shadowBlurOuter1"></feColorMatrix>
        </filter>
        <rect id="path-5" x="64" y="130" width="400" height="36" rx="1.5"></rect>
        <filter x="-1.2%" y="-11.1%" width="102.5%" height="127.8%" filterUnits="objectBoundingBox" id="filter-6">
            <feOffset dx="0" dy="1" in="SourceAlpha" result="shadowOffsetOuter1"></feOffset>
            <feGaussianBlur stdDeviation="1.5" in="shadowOffsetOuter1" result="shadowBlurOuter1"></feGaussianBlur>
            <feColorMatrix values="0 0 0 0 0   0 0 0 0 0   0 0 0 0 0  0 0 0 0.2 0" type="matrix" in="shadowBlurOuter1"></feColorMatrix>
        </filter>
        <rect id="path-7" x="64" y="170" width="400" height="36" rx="1.5"></rect>
        <filter x="-1.2%" y="-11.1%" width="102.5%" height="127.8%" filterUnits="objectBoundingBox" id="filter-8">
            <feOffset dx="0" dy="1" in="SourceAlpha" result="shadowOffsetOuter1"></feOffset>
            <feGaussianBlur stdDeviation="1.5" in="shadowOffsetOuter1" result="shadowBlurOuter1"></feGaussianBlur>
            <feColorMatrix values="0 0 0 0 0   0 0 0 0 0   0 0 0 0 0  0 0 0 0.2 0" type="matrix" in="shadowBlurOuter1"></feColorMatrix>
        </filter>
    </defs>
    <g id="页面-1" stroke="none" stroke-width="1" fill="none" fill-rule="evenodd">
        <g id="list-single/style3">
            <g id="编组-20">
                <rect id="矩形备份" fill-opacity="0.01" fill="#FFFFFF" x="0" y="0" width="494" height="218"></rect>
                <g id="编组-3" transform="translate(64.000000, 20.000000)" fill="#333333" font-family="MicrosoftYaHei, Microsoft YaHei" font-size="14" font-weight="normal" line-spacing="22">
                    <text id="标题文案">
                        <tspan x="0" y="15">标题文案</tspan>
                    </text>
                </g>
                <g id="矩形">
                    <use fill="black" fill-opacity="1" filter="url(#filter-2)" xlink:href="#path-1"></use>
                    <use fill="#FFFFFF" fill-rule="evenodd" xlink:href="#path-1"></use>
                </g>
                <path d="M74.1796875,68.5625 L74.7539062,67.90625 C75.3476592,68.3945337 75.8886694,68.8730445 76.3769531,69.3417969 C76.9003932,68.4355423 77.2695302,67.4531303 77.484375,66.3945312 L74.8476562,66.3945312 C74.2343719,67.8007883 73.4804732,69.0664006 72.5859375,70.1914062 C72.4140616,69.7929668 72.2578132,69.4804699 72.1171875,69.2539062 C73.2968809,67.6679608 74.2050749,65.8125106 74.8417969,63.6875 L72.5039062,63.6875 L72.5039062,62.84375 L79.078125,62.84375 L79.078125,63.6875 L75.8085938,63.6875 C75.6249991,64.3320345 75.419923,64.953122 75.1933594,65.5507812 L78.4453125,65.5507812 L78.4453125,66.40625 C77.8046843,69.609391 76.1211074,72.0820225 73.3945312,73.8242188 C73.1914052,73.5898426 72.9492202,73.3515637 72.6679688,73.109375 C74.0039129,72.2460894 75.0742147,71.2480525 75.8789062,70.1152344 C75.4335915,69.6777322 74.8671909,69.1601592 74.1796875,68.5625 Z M82.1601562,62.421875 L83.0976562,62.421875 L83.0976562,72.1015625 C83.0976562,73.093755 82.648442,73.59375 81.75,73.6015625 L81.43287,73.6050347 C81.0271028,73.6070602 80.496097,73.6019966 79.8398438,73.5898438 C79.8007811,73.230467 79.7382817,72.878908 79.6523438,72.5351562 L80.3867201,72.5937502 C80.829428,72.6250002 81.1783841,72.640625 81.4335938,72.640625 C81.9179712,72.640625 82.1601562,72.3789089 82.1601562,71.8554688 L82.1601562,62.421875 Z M80.4726562,70.8945312 L79.5703125,70.8945312 L79.5703125,63.7226562 L80.4726562,63.7226562 L80.4726562,70.8945312 Z M94.3476562,68.6796875 L94.9921875,69.4882812 L92.3730469,70.8007812 C93.2910202,71.550785 94.4413993,72.0468738 95.8242188,72.2890625 C95.5585924,72.6328142 95.3398446,72.9453111 95.1679688,73.2265625 C92.6484249,72.624997 90.8418023,71.0761844 89.7480469,68.5800781 C89.3496074,69.0878932 88.8945338,69.5703102 88.3828125,70.0273438 L88.3828125,72.5351562 C89.4140677,72.1992171 90.3710893,71.8476581 91.2539062,71.4804688 C91.2460937,71.8242205 91.2499999,72.1640625 91.265625,72.5 C90.3281203,72.8203141 89.35938,73.1718731 88.359375,73.5546875 C88.1484364,73.6406254 87.9414073,73.7421869 87.7382812,73.859375 L87.1875,73.0039062 C87.4062511,72.8476555 87.515625,72.6289077 87.515625,72.3476562 L87.515625,70.7363281 C86.7070272,71.3417999 85.7890676,71.8906225 84.7617188,72.3828125 C84.5898429,72.1093736 84.3906261,71.8398451 84.1640625,71.5742188 C86.1836038,70.7460896 87.7695255,69.6367257 88.921875,68.2460938 L84.2929688,68.2460938 L84.2929688,67.4375 L89.5429688,67.4375 L89.5429688,66.2421875 L85.125,66.2421875 L85.125,65.4335938 L89.5429688,65.4335938 L89.5429688,64.2851562 L84.65625,64.2851562 L84.65625,63.4765625 L89.5429688,63.4765625 L89.5429688,62.1640625 L90.46875,62.1640625 L90.46875,63.4765625 L95.3789062,63.4765625 L95.3789062,64.2851562 L90.46875,64.2851562 L90.46875,65.4335938 L94.875,65.4335938 L94.875,66.2421875 L90.46875,66.2421875 L90.46875,67.4375 L95.7070312,67.4375 L95.7070312,68.2460938 L90.4980469,68.2460938 C90.8261735,69.0078163 91.2480443,69.667966 91.7636719,70.2265625 C92.5488321,69.8359355 93.4101516,69.3203157 94.3476562,68.6796875 Z M96.3632812,64.2734375 L101.988281,64.2734375 L101.622395,63.5911445 C101.397569,63.1814227 101.210938,62.8619803 101.0625,62.6328125 L101.964844,62.2109375 L102.220052,62.6171874 C102.414496,62.9348949 102.657551,63.3463516 102.949219,63.8515625 L102.105469,64.2734375 L107.613281,64.2734375 L107.613281,65.140625 L105.451172,65.140625 C105.033201,67.3711049 104.134773,69.1640557 102.755859,70.5195312 C103.794927,71.2773475 105.445301,71.9570282 107.707031,72.5585938 C107.347654,72.9648458 107.07422,73.3046861 106.886719,73.578125 C104.683583,72.8164024 103.056646,72.0195354 102.005859,71.1875 C100.951167,72.0078166 99.2656366,72.8359333 96.9492188,73.671875 L96.6210942,73.2382814 C96.5039069,73.085938 96.3789069,72.9257821 96.2460938,72.7578125 C98.4804799,72.0859341 100.162104,71.3378947 101.291016,70.5136719 C99.8652272,68.9902268 98.9589863,67.199229 98.5722656,65.140625 L96.3632812,65.140625 L96.3632812,64.2734375 Z M104.449219,65.140625 L99.5097656,65.140625 C99.8613299,67.0625096 100.701165,68.6503844 102.029297,69.9042969 C103.298834,68.7246035 104.105467,67.1367287 104.449219,65.140625 Z M108.785156,68.8085938 L109.62461,68.7070772 C111.10945,68.5166416 112.29642,68.3024351 113.185547,68.0644531 C112.248042,67.8144519 111.300786,67.5703137 110.34375,67.3320312 C110.664064,66.9882795 110.96875,66.6484392 111.257812,66.3125 L108.46875,66.3125 L108.46875,65.5390625 L111.890625,65.5390625 C112.187501,65.1640606 112.460936,64.7929706 112.710938,64.4257812 L113.660156,64.6953125 C113.449218,64.9765639 113.224611,65.2578111 112.986328,65.5390625 L119.53125,65.5390625 L119.53125,66.3125 L117.011719,66.3125 C116.640623,66.9726596 116.138675,67.5078104 115.505859,67.9179688 L116.813673,68.2639065 C117.451172,68.4340624 118.06406,68.5999992 118.652344,68.7617188 L118.277344,69.546875 C117.039056,69.156248 115.779303,68.7832049 114.498047,68.4277344 C113.310541,68.8964867 111.519543,69.2812485 109.125,69.5820312 C109.03125,69.33203 108.917969,69.0742201 108.785156,68.8085938 Z M119.847656,72.59375 C119.58203,72.9062516 119.35547,73.1992174 119.167969,73.4726562 C117.105458,72.8554657 115.523443,72.0996138 114.421875,71.2050781 L114.421875,73.8476562 L113.578125,73.8476562 L113.578125,71.2226562 C112.394525,72.0585979 110.820322,72.8124966 108.855469,73.484375 C108.675781,73.2578114 108.44922,72.992189 108.175781,72.6875 C110.191416,72.1835912 111.787103,71.5625037 112.962891,70.8242188 L108.445312,70.8242188 L108.445312,70.0390625 L113.578125,70.0390625 L113.578125,69.078125 L114.421875,69.078125 L114.421875,70.0390625 L119.625,70.0390625 L119.625,70.8242188 L115.060547,70.8242188 C116.294928,71.6562542 117.890615,72.246092 119.847656,72.59375 Z M108.785156,63.3476562 L113.695312,63.3476562 C113.546874,63.0781237 113.375001,62.8007827 113.179688,62.515625 L114.011719,62.140625 C114.265626,62.5390645 114.505858,62.9414042 114.732422,63.3476562 L119.203125,63.3476562 L119.203125,65.1171875 L118.3125,65.1171875 L118.3125,64.1210938 L109.675781,64.1210938 L109.675781,65.1171875 L108.785156,65.1171875 L108.785156,63.3476562 Z M111.679688,66.9570312 L113.7583,67.474487 C113.981932,67.5308834 114.203124,67.5869138 114.421875,67.6425781 C115.109378,67.3378891 115.646482,66.8945342 116.033203,66.3125 L112.300781,66.3125 C112.101562,66.5273448 111.894532,66.7421864 111.679688,66.9570312 Z M122.179688,68.5625 L122.753906,67.90625 C123.347659,68.3945337 123.888669,68.8730445 124.376953,69.3417969 C124.900393,68.4355423 125.26953,67.4531303 125.484375,66.3945312 L122.847656,66.3945312 C122.234372,67.8007883 121.480473,69.0664006 120.585938,70.1914062 C120.414062,69.7929668 120.257813,69.4804699 120.117188,69.2539062 C121.296881,67.6679608 122.205075,65.8125106 122.841797,63.6875 L120.503906,63.6875 L120.503906,62.84375 L127.078125,62.84375 L127.078125,63.6875 L123.808594,63.6875 C123.624999,64.3320345 123.419923,64.953122 123.193359,65.5507812 L126.445312,65.5507812 L126.445312,66.40625 C125.804684,69.609391 124.121107,72.0820225 121.394531,73.8242188 C121.191405,73.5898426 120.94922,73.3515637 120.667969,73.109375 C122.003913,72.2460894 123.074215,71.2480525 123.878906,70.1152344 C123.433592,69.6777322 122.867191,69.1601592 122.179688,68.5625 Z M130.160156,62.421875 L131.097656,62.421875 L131.097656,72.1015625 C131.097656,73.093755 130.648442,73.59375 129.75,73.6015625 L129.43287,73.6050347 C129.027103,73.6070602 128.496097,73.6019966 127.839844,73.5898438 C127.800781,73.230467 127.738282,72.878908 127.652344,72.5351562 L128.38672,72.5937502 C128.829428,72.6250002 129.178384,72.640625 129.433594,72.640625 C129.917971,72.640625 130.160156,72.3789089 130.160156,71.8554688 L130.160156,62.421875 Z M128.472656,70.8945312 L127.570312,70.8945312 L127.570312,63.7226562 L128.472656,63.7226562 L128.472656,70.8945312 Z M142.347656,68.6796875 L142.992188,69.4882812 L140.373047,70.8007812 C141.29102,71.550785 142.441399,72.0468738 143.824219,72.2890625 C143.558592,72.6328142 143.339845,72.9453111 143.167969,73.2265625 C140.648425,72.624997 138.841802,71.0761844 137.748047,68.5800781 C137.349607,69.0878932 136.894534,69.5703102 136.382812,70.0273438 L136.382812,72.5351562 C137.414068,72.1992171 138.371089,71.8476581 139.253906,71.4804688 C139.246094,71.8242205 139.25,72.1640625 139.265625,72.5 C138.32812,72.8203141 137.35938,73.1718731 136.359375,73.5546875 C136.148436,73.6406254 135.941407,73.7421869 135.738281,73.859375 L135.1875,73.0039062 C135.406251,72.8476555 135.515625,72.6289077 135.515625,72.3476562 L135.515625,70.7363281 C134.707027,71.3417999 133.789068,71.8906225 132.761719,72.3828125 C132.589843,72.1093736 132.390626,71.8398451 132.164062,71.5742188 C134.183604,70.7460896 135.769525,69.6367257 136.921875,68.2460938 L132.292969,68.2460938 L132.292969,67.4375 L137.542969,67.4375 L137.542969,66.2421875 L133.125,66.2421875 L133.125,65.4335938 L137.542969,65.4335938 L137.542969,64.2851562 L132.65625,64.2851562 L132.65625,63.4765625 L137.542969,63.4765625 L137.542969,62.1640625 L138.46875,62.1640625 L138.46875,63.4765625 L143.378906,63.4765625 L143.378906,64.2851562 L138.46875,64.2851562 L138.46875,65.4335938 L142.875,65.4335938 L142.875,66.2421875 L138.46875,66.2421875 L138.46875,67.4375 L143.707031,67.4375 L143.707031,68.2460938 L138.498047,68.2460938 C138.826174,69.0078163 139.248044,69.667966 139.763672,70.2265625 C140.548832,69.8359355 141.410152,69.3203157 142.347656,68.6796875 Z M144.363281,64.2734375 L149.988281,64.2734375 L149.622395,63.5911445 C149.397569,63.1814227 149.210938,62.8619803 149.0625,62.6328125 L149.964844,62.2109375 L150.220052,62.6171874 C150.414496,62.9348949 150.657551,63.3463516 150.949219,63.8515625 L150.105469,64.2734375 L155.613281,64.2734375 L155.613281,65.140625 L153.451172,65.140625 C153.033201,67.3711049 152.134773,69.1640557 150.755859,70.5195312 C151.794927,71.2773475 153.445301,71.9570282 155.707031,72.5585938 C155.347654,72.9648458 155.07422,73.3046861 154.886719,73.578125 C152.683583,72.8164024 151.056646,72.0195354 150.005859,71.1875 C148.951167,72.0078166 147.265637,72.8359333 144.949219,73.671875 L144.621094,73.2382814 C144.503907,73.085938 144.378907,72.9257821 144.246094,72.7578125 C146.48048,72.0859341 148.162104,71.3378947 149.291016,70.5136719 C147.865227,68.9902268 146.958986,67.199229 146.572266,65.140625 L144.363281,65.140625 L144.363281,64.2734375 Z M152.449219,65.140625 L147.509766,65.140625 C147.86133,67.0625096 148.701165,68.6503844 150.029297,69.9042969 C151.298834,68.7246035 152.105467,67.1367287 152.449219,65.140625 Z M156.785156,68.8085938 L157.62461,68.7070772 C159.10945,68.5166416 160.29642,68.3024351 161.185547,68.0644531 C160.248042,67.8144519 159.300786,67.5703137 158.34375,67.3320312 C158.664064,66.9882795 158.96875,66.6484392 159.257812,66.3125 L156.46875,66.3125 L156.46875,65.5390625 L159.890625,65.5390625 C160.187501,65.1640606 160.460936,64.7929706 160.710938,64.4257812 L161.660156,64.6953125 C161.449218,64.9765639 161.224611,65.2578111 160.986328,65.5390625 L167.53125,65.5390625 L167.53125,66.3125 L165.011719,66.3125 C164.640623,66.9726596 164.138675,67.5078104 163.505859,67.9179688 L164.813673,68.2639065 C165.451172,68.4340624 166.06406,68.5999992 166.652344,68.7617188 L166.277344,69.546875 C165.039056,69.156248 163.779303,68.7832049 162.498047,68.4277344 C161.310541,68.8964867 159.519543,69.2812485 157.125,69.5820312 C157.03125,69.33203 156.917969,69.0742201 156.785156,68.8085938 Z M167.847656,72.59375 C167.58203,72.9062516 167.35547,73.1992174 167.167969,73.4726562 C165.105458,72.8554657 163.523443,72.0996138 162.421875,71.2050781 L162.421875,73.8476562 L161.578125,73.8476562 L161.578125,71.2226562 C160.394525,72.0585979 158.820322,72.8124966 156.855469,73.484375 C156.675781,73.2578114 156.44922,72.992189 156.175781,72.6875 C158.191416,72.1835912 159.787103,71.5625037 160.962891,70.8242188 L156.445312,70.8242188 L156.445312,70.0390625 L161.578125,70.0390625 L161.578125,69.078125 L162.421875,69.078125 L162.421875,70.0390625 L167.625,70.0390625 L167.625,70.8242188 L163.060547,70.8242188 C164.294928,71.6562542 165.890615,72.246092 167.847656,72.59375 Z M156.785156,63.3476562 L161.695312,63.3476562 C161.546874,63.0781237 161.375001,62.8007827 161.179688,62.515625 L162.011719,62.140625 C162.265626,62.5390645 162.505858,62.9414042 162.732422,63.3476562 L167.203125,63.3476562 L167.203125,65.1171875 L166.3125,65.1171875 L166.3125,64.1210938 L157.675781,64.1210938 L157.675781,65.1171875 L156.785156,65.1171875 L156.785156,63.3476562 Z M159.679688,66.9570312 L161.7583,67.474487 C161.981932,67.5308834 162.203124,67.5869138 162.421875,67.6425781 C163.109378,67.3378891 163.646482,66.8945342 164.033203,66.3125 L160.300781,66.3125 C160.101562,66.5273448 159.894532,66.7421864 159.679688,66.9570312 Z M174.310547,72.2246094 L169.107422,72.2246094 L169.107422,71.234375 L171.140625,71.234375 L171.140625,64.34375 L169.054688,64.9472656 L169.054688,63.8925781 L172.283203,62.9550781 L172.283203,71.234375 L174.310547,71.234375 L174.310547,72.2246094 Z" id="列表文案列表文案1" fill="#5A6677" fill-rule="nonzero"></path>
                <g id="矩形">
                    <use fill="black" fill-opacity="1" filter="url(#filter-4)" xlink:href="#path-3"></use>
                    <use fill="#FFFFFF" fill-rule="evenodd" xlink:href="#path-3"></use>
                </g>
                <path d="M74.1796875,108.5625 L74.7539062,107.90625 C75.3476592,108.394534 75.8886694,108.873045 76.3769531,109.341797 C76.9003932,108.435542 77.2695302,107.45313 77.484375,106.394531 L74.8476562,106.394531 C74.2343719,107.800788 73.4804732,109.066401 72.5859375,110.191406 C72.4140616,109.792967 72.2578132,109.48047 72.1171875,109.253906 C73.2968809,107.667961 74.2050749,105.812511 74.8417969,103.6875 L72.5039062,103.6875 L72.5039062,102.84375 L79.078125,102.84375 L79.078125,103.6875 L75.8085938,103.6875 C75.6249991,104.332034 75.419923,104.953122 75.1933594,105.550781 L78.4453125,105.550781 L78.4453125,106.40625 C77.8046843,109.609391 76.1211074,112.082023 73.3945312,113.824219 C73.1914052,113.589843 72.9492202,113.351564 72.6679688,113.109375 C74.0039129,112.246089 75.0742147,111.248053 75.8789062,110.115234 C75.4335915,109.677732 74.8671909,109.160159 74.1796875,108.5625 Z M82.1601562,102.421875 L83.0976562,102.421875 L83.0976562,112.101562 C83.0976562,113.093755 82.648442,113.59375 81.75,113.601562 L81.43287,113.605035 C81.0271028,113.60706 80.496097,113.601997 79.8398438,113.589844 C79.8007811,113.230467 79.7382817,112.878908 79.6523438,112.535156 L80.3867201,112.59375 C80.829428,112.625 81.1783841,112.640625 81.4335938,112.640625 C81.9179712,112.640625 82.1601562,112.378909 82.1601562,111.855469 L82.1601562,102.421875 Z M80.4726562,110.894531 L79.5703125,110.894531 L79.5703125,103.722656 L80.4726562,103.722656 L80.4726562,110.894531 Z M94.3476562,108.679687 L94.9921875,109.488281 L92.3730469,110.800781 C93.2910202,111.550785 94.4413993,112.046874 95.8242188,112.289062 C95.5585924,112.632814 95.3398446,112.945311 95.1679688,113.226562 C92.6484249,112.624997 90.8418023,111.076184 89.7480469,108.580078 C89.3496074,109.087893 88.8945338,109.57031 88.3828125,110.027344 L88.3828125,112.535156 C89.4140677,112.199217 90.3710893,111.847658 91.2539062,111.480469 C91.2460937,111.82422 91.2499999,112.164062 91.265625,112.5 C90.3281203,112.820314 89.35938,113.171873 88.359375,113.554687 C88.1484364,113.640625 87.9414073,113.742187 87.7382812,113.859375 L87.1875,113.003906 C87.4062511,112.847655 87.515625,112.628908 87.515625,112.347656 L87.515625,110.736328 C86.7070272,111.3418 85.7890676,111.890623 84.7617188,112.382812 C84.5898429,112.109374 84.3906261,111.839845 84.1640625,111.574219 C86.1836038,110.74609 87.7695255,109.636726 88.921875,108.246094 L84.2929688,108.246094 L84.2929688,107.4375 L89.5429688,107.4375 L89.5429688,106.242187 L85.125,106.242187 L85.125,105.433594 L89.5429688,105.433594 L89.5429688,104.285156 L84.65625,104.285156 L84.65625,103.476562 L89.5429688,103.476562 L89.5429688,102.164062 L90.46875,102.164062 L90.46875,103.476562 L95.3789062,103.476562 L95.3789062,104.285156 L90.46875,104.285156 L90.46875,105.433594 L94.875,105.433594 L94.875,106.242187 L90.46875,106.242187 L90.46875,107.4375 L95.7070312,107.4375 L95.7070312,108.246094 L90.4980469,108.246094 C90.8261735,109.007816 91.2480443,109.667966 91.7636719,110.226562 C92.5488321,109.835936 93.4101516,109.320316 94.3476562,108.679687 Z M96.3632812,104.273437 L101.988281,104.273437 L101.622395,103.591145 C101.397569,103.181423 101.210938,102.86198 101.0625,102.632812 L101.964844,102.210937 L102.220052,102.617187 C102.414496,102.934895 102.657551,103.346352 102.949219,103.851562 L102.105469,104.273437 L107.613281,104.273437 L107.613281,105.140625 L105.451172,105.140625 C105.033201,107.371105 104.134773,109.164056 102.755859,110.519531 C103.794927,111.277348 105.445301,111.957028 107.707031,112.558594 C107.347654,112.964846 107.07422,113.304686 106.886719,113.578125 C104.683583,112.816402 103.056646,112.019535 102.005859,111.1875 C100.951167,112.007817 99.2656366,112.835933 96.9492188,113.671875 L96.6210942,113.238281 C96.5039069,113.085938 96.3789069,112.925782 96.2460938,112.757812 C98.4804799,112.085934 100.162104,111.337895 101.291016,110.513672 C99.8652272,108.990227 98.9589863,107.199229 98.5722656,105.140625 L96.3632812,105.140625 L96.3632812,104.273437 Z M104.449219,105.140625 L99.5097656,105.140625 C99.8613299,107.06251 100.701165,108.650384 102.029297,109.904297 C103.298834,108.724603 104.105467,107.136729 104.449219,105.140625 Z M108.785156,108.808594 L109.62461,108.707077 C111.10945,108.516642 112.29642,108.302435 113.185547,108.064453 C112.248042,107.814452 111.300786,107.570314 110.34375,107.332031 C110.664064,106.98828 110.96875,106.648439 111.257812,106.3125 L108.46875,106.3125 L108.46875,105.539062 L111.890625,105.539062 C112.187501,105.164061 112.460936,104.792971 112.710938,104.425781 L113.660156,104.695312 C113.449218,104.976564 113.224611,105.257811 112.986328,105.539062 L119.53125,105.539062 L119.53125,106.3125 L117.011719,106.3125 C116.640623,106.97266 116.138675,107.50781 115.505859,107.917969 L116.813673,108.263906 C117.451172,108.434062 118.06406,108.599999 118.652344,108.761719 L118.277344,109.546875 C117.039056,109.156248 115.779303,108.783205 114.498047,108.427734 C113.310541,108.896487 111.519543,109.281248 109.125,109.582031 C109.03125,109.33203 108.917969,109.07422 108.785156,108.808594 Z M119.847656,112.59375 C119.58203,112.906252 119.35547,113.199217 119.167969,113.472656 C117.105458,112.855466 115.523443,112.099614 114.421875,111.205078 L114.421875,113.847656 L113.578125,113.847656 L113.578125,111.222656 C112.394525,112.058598 110.820322,112.812497 108.855469,113.484375 C108.675781,113.257811 108.44922,112.992189 108.175781,112.6875 C110.191416,112.183591 111.787103,111.562504 112.962891,110.824219 L108.445312,110.824219 L108.445312,110.039062 L113.578125,110.039062 L113.578125,109.078125 L114.421875,109.078125 L114.421875,110.039062 L119.625,110.039062 L119.625,110.824219 L115.060547,110.824219 C116.294928,111.656254 117.890615,112.246092 119.847656,112.59375 Z M108.785156,103.347656 L113.695312,103.347656 C113.546874,103.078124 113.375001,102.800783 113.179688,102.515625 L114.011719,102.140625 C114.265626,102.539064 114.505858,102.941404 114.732422,103.347656 L119.203125,103.347656 L119.203125,105.117187 L118.3125,105.117187 L118.3125,104.121094 L109.675781,104.121094 L109.675781,105.117187 L108.785156,105.117187 L108.785156,103.347656 Z M111.679688,106.957031 L113.7583,107.474487 C113.981932,107.530883 114.203124,107.586914 114.421875,107.642578 C115.109378,107.337889 115.646482,106.894534 116.033203,106.3125 L112.300781,106.3125 C112.101562,106.527345 111.894532,106.742186 111.679688,106.957031 Z M122.179688,108.5625 L122.753906,107.90625 C123.347659,108.394534 123.888669,108.873045 124.376953,109.341797 C124.900393,108.435542 125.26953,107.45313 125.484375,106.394531 L122.847656,106.394531 C122.234372,107.800788 121.480473,109.066401 120.585938,110.191406 C120.414062,109.792967 120.257813,109.48047 120.117188,109.253906 C121.296881,107.667961 122.205075,105.812511 122.841797,103.6875 L120.503906,103.6875 L120.503906,102.84375 L127.078125,102.84375 L127.078125,103.6875 L123.808594,103.6875 C123.624999,104.332034 123.419923,104.953122 123.193359,105.550781 L126.445312,105.550781 L126.445312,106.40625 C125.804684,109.609391 124.121107,112.082023 121.394531,113.824219 C121.191405,113.589843 120.94922,113.351564 120.667969,113.109375 C122.003913,112.246089 123.074215,111.248053 123.878906,110.115234 C123.433592,109.677732 122.867191,109.160159 122.179688,108.5625 Z M130.160156,102.421875 L131.097656,102.421875 L131.097656,112.101562 C131.097656,113.093755 130.648442,113.59375 129.75,113.601562 L129.43287,113.605035 C129.027103,113.60706 128.496097,113.601997 127.839844,113.589844 C127.800781,113.230467 127.738282,112.878908 127.652344,112.535156 L128.38672,112.59375 C128.829428,112.625 129.178384,112.640625 129.433594,112.640625 C129.917971,112.640625 130.160156,112.378909 130.160156,111.855469 L130.160156,102.421875 Z M128.472656,110.894531 L127.570312,110.894531 L127.570312,103.722656 L128.472656,103.722656 L128.472656,110.894531 Z M142.347656,108.679687 L142.992188,109.488281 L140.373047,110.800781 C141.29102,111.550785 142.441399,112.046874 143.824219,112.289062 C143.558592,112.632814 143.339845,112.945311 143.167969,113.226562 C140.648425,112.624997 138.841802,111.076184 137.748047,108.580078 C137.349607,109.087893 136.894534,109.57031 136.382812,110.027344 L136.382812,112.535156 C137.414068,112.199217 138.371089,111.847658 139.253906,111.480469 C139.246094,111.82422 139.25,112.164062 139.265625,112.5 C138.32812,112.820314 137.35938,113.171873 136.359375,113.554687 C136.148436,113.640625 135.941407,113.742187 135.738281,113.859375 L135.1875,113.003906 C135.406251,112.847655 135.515625,112.628908 135.515625,112.347656 L135.515625,110.736328 C134.707027,111.3418 133.789068,111.890623 132.761719,112.382812 C132.589843,112.109374 132.390626,111.839845 132.164062,111.574219 C134.183604,110.74609 135.769525,109.636726 136.921875,108.246094 L132.292969,108.246094 L132.292969,107.4375 L137.542969,107.4375 L137.542969,106.242187 L133.125,106.242187 L133.125,105.433594 L137.542969,105.433594 L137.542969,104.285156 L132.65625,104.285156 L132.65625,103.476562 L137.542969,103.476562 L137.542969,102.164062 L138.46875,102.164062 L138.46875,103.476562 L143.378906,103.476562 L143.378906,104.285156 L138.46875,104.285156 L138.46875,105.433594 L142.875,105.433594 L142.875,106.242187 L138.46875,106.242187 L138.46875,107.4375 L143.707031,107.4375 L143.707031,108.246094 L138.498047,108.246094 C138.826174,109.007816 139.248044,109.667966 139.763672,110.226562 C140.548832,109.835936 141.410152,109.320316 142.347656,108.679687 Z M144.363281,104.273437 L149.988281,104.273437 L149.622395,103.591145 C149.397569,103.181423 149.210938,102.86198 149.0625,102.632812 L149.964844,102.210937 L150.220052,102.617187 C150.414496,102.934895 150.657551,103.346352 150.949219,103.851562 L150.105469,104.273437 L155.613281,104.273437 L155.613281,105.140625 L153.451172,105.140625 C153.033201,107.371105 152.134773,109.164056 150.755859,110.519531 C151.794927,111.277348 153.445301,111.957028 155.707031,112.558594 C155.347654,112.964846 155.07422,113.304686 154.886719,113.578125 C152.683583,112.816402 151.056646,112.019535 150.005859,111.1875 C148.951167,112.007817 147.265637,112.835933 144.949219,113.671875 L144.621094,113.238281 C144.503907,113.085938 144.378907,112.925782 144.246094,112.757812 C146.48048,112.085934 148.162104,111.337895 149.291016,110.513672 C147.865227,108.990227 146.958986,107.199229 146.572266,105.140625 L144.363281,105.140625 L144.363281,104.273437 Z M152.449219,105.140625 L147.509766,105.140625 C147.86133,107.06251 148.701165,108.650384 150.029297,109.904297 C151.298834,108.724603 152.105467,107.136729 152.449219,105.140625 Z M156.785156,108.808594 L157.62461,108.707077 C159.10945,108.516642 160.29642,108.302435 161.185547,108.064453 C160.248042,107.814452 159.300786,107.570314 158.34375,107.332031 C158.664064,106.98828 158.96875,106.648439 159.257812,106.3125 L156.46875,106.3125 L156.46875,105.539062 L159.890625,105.539062 C160.187501,105.164061 160.460936,104.792971 160.710938,104.425781 L161.660156,104.695312 C161.449218,104.976564 161.224611,105.257811 160.986328,105.539062 L167.53125,105.539062 L167.53125,106.3125 L165.011719,106.3125 C164.640623,106.97266 164.138675,107.50781 163.505859,107.917969 L164.813673,108.263906 C165.451172,108.434062 166.06406,108.599999 166.652344,108.761719 L166.277344,109.546875 C165.039056,109.156248 163.779303,108.783205 162.498047,108.427734 C161.310541,108.896487 159.519543,109.281248 157.125,109.582031 C157.03125,109.33203 156.917969,109.07422 156.785156,108.808594 Z M167.847656,112.59375 C167.58203,112.906252 167.35547,113.199217 167.167969,113.472656 C165.105458,112.855466 163.523443,112.099614 162.421875,111.205078 L162.421875,113.847656 L161.578125,113.847656 L161.578125,111.222656 C160.394525,112.058598 158.820322,112.812497 156.855469,113.484375 C156.675781,113.257811 156.44922,112.992189 156.175781,112.6875 C158.191416,112.183591 159.787103,111.562504 160.962891,110.824219 L156.445312,110.824219 L156.445312,110.039062 L161.578125,110.039062 L161.578125,109.078125 L162.421875,109.078125 L162.421875,110.039062 L167.625,110.039062 L167.625,110.824219 L163.060547,110.824219 C164.294928,111.656254 165.890615,112.246092 167.847656,112.59375 Z M156.785156,103.347656 L161.695312,103.347656 C161.546874,103.078124 161.375001,102.800783 161.179688,102.515625 L162.011719,102.140625 C162.265626,102.539064 162.505858,102.941404 162.732422,103.347656 L167.203125,103.347656 L167.203125,105.117187 L166.3125,105.117187 L166.3125,104.121094 L157.675781,104.121094 L157.675781,105.117187 L156.785156,105.117187 L156.785156,103.347656 Z M159.679688,106.957031 L161.7583,107.474487 C161.981932,107.530883 162.203124,107.586914 162.421875,107.642578 C163.109378,107.337889 163.646482,106.894534 164.033203,106.3125 L160.300781,106.3125 C160.101562,106.527345 159.894532,106.742186 159.679688,106.957031 Z M174.140625,112.224609 L168.621094,112.224609 L168.621094,111.228516 L171.257812,108.597656 C171.984379,107.87109 172.470702,107.295901 172.716797,106.87207 C172.962892,106.44824 173.085938,106.009768 173.085938,105.556641 C173.085938,105.041013 172.941408,104.645509 172.652344,104.370117 C172.36328,104.094725 171.945315,103.957031 171.398438,103.957031 C170.58984,103.957031 169.818363,104.300778 169.083984,104.988281 L169.083984,103.822266 C169.798832,103.271482 170.630855,102.996094 171.580078,102.996094 C172.396488,102.996094 173.041013,103.216795 173.513672,103.658203 C173.98633,104.099612 174.222656,104.693356 174.222656,105.439453 C174.222656,106.001956 174.071291,106.553708 173.768555,107.094727 C173.465819,107.635745 172.892582,108.324215 172.048828,109.160156 L169.980469,111.181641 L169.980469,111.205078 L174.140625,111.205078 L174.140625,112.224609 Z" id="列表文案列表文案2" fill="#5A6677" fill-rule="nonzero"></path>
                <g id="矩形">
                    <use fill="black" fill-opacity="1" filter="url(#filter-6)" xlink:href="#path-5"></use>
                    <use fill="#FFFFFF" fill-rule="evenodd" xlink:href="#path-5"></use>
                </g>
                <path d="M74.1796875,148.5625 L74.7539062,147.90625 C75.3476592,148.394534 75.8886694,148.873045 76.3769531,149.341797 C76.9003932,148.435542 77.2695302,147.45313 77.484375,146.394531 L74.8476562,146.394531 C74.2343719,147.800788 73.4804732,149.066401 72.5859375,150.191406 C72.4140616,149.792967 72.2578132,149.48047 72.1171875,149.253906 C73.2968809,147.667961 74.2050749,145.812511 74.8417969,143.6875 L72.5039062,143.6875 L72.5039062,142.84375 L79.078125,142.84375 L79.078125,143.6875 L75.8085938,143.6875 C75.6249991,144.332034 75.419923,144.953122 75.1933594,145.550781 L78.4453125,145.550781 L78.4453125,146.40625 C77.8046843,149.609391 76.1211074,152.082023 73.3945312,153.824219 C73.1914052,153.589843 72.9492202,153.351564 72.6679688,153.109375 C74.0039129,152.246089 75.0742147,151.248053 75.8789062,150.115234 C75.4335915,149.677732 74.8671909,149.160159 74.1796875,148.5625 Z M82.1601562,142.421875 L83.0976562,142.421875 L83.0976562,152.101562 C83.0976562,153.093755 82.648442,153.59375 81.75,153.601562 L81.43287,153.605035 C81.0271028,153.60706 80.496097,153.601997 79.8398438,153.589844 C79.8007811,153.230467 79.7382817,152.878908 79.6523438,152.535156 L80.3867201,152.59375 C80.829428,152.625 81.1783841,152.640625 81.4335938,152.640625 C81.9179712,152.640625 82.1601562,152.378909 82.1601562,151.855469 L82.1601562,142.421875 Z M80.4726562,150.894531 L79.5703125,150.894531 L79.5703125,143.722656 L80.4726562,143.722656 L80.4726562,150.894531 Z M94.3476562,148.679687 L94.9921875,149.488281 L92.3730469,150.800781 C93.2910202,151.550785 94.4413993,152.046874 95.8242188,152.289062 C95.5585924,152.632814 95.3398446,152.945311 95.1679688,153.226562 C92.6484249,152.624997 90.8418023,151.076184 89.7480469,148.580078 C89.3496074,149.087893 88.8945338,149.57031 88.3828125,150.027344 L88.3828125,152.535156 C89.4140677,152.199217 90.3710893,151.847658 91.2539062,151.480469 C91.2460937,151.82422 91.2499999,152.164062 91.265625,152.5 C90.3281203,152.820314 89.35938,153.171873 88.359375,153.554687 C88.1484364,153.640625 87.9414073,153.742187 87.7382812,153.859375 L87.1875,153.003906 C87.4062511,152.847655 87.515625,152.628908 87.515625,152.347656 L87.515625,150.736328 C86.7070272,151.3418 85.7890676,151.890623 84.7617188,152.382812 C84.5898429,152.109374 84.3906261,151.839845 84.1640625,151.574219 C86.1836038,150.74609 87.7695255,149.636726 88.921875,148.246094 L84.2929688,148.246094 L84.2929688,147.4375 L89.5429688,147.4375 L89.5429688,146.242187 L85.125,146.242187 L85.125,145.433594 L89.5429688,145.433594 L89.5429688,144.285156 L84.65625,144.285156 L84.65625,143.476562 L89.5429688,143.476562 L89.5429688,142.164062 L90.46875,142.164062 L90.46875,143.476562 L95.3789062,143.476562 L95.3789062,144.285156 L90.46875,144.285156 L90.46875,145.433594 L94.875,145.433594 L94.875,146.242187 L90.46875,146.242187 L90.46875,147.4375 L95.7070312,147.4375 L95.7070312,148.246094 L90.4980469,148.246094 C90.8261735,149.007816 91.2480443,149.667966 91.7636719,150.226562 C92.5488321,149.835936 93.4101516,149.320316 94.3476562,148.679687 Z M96.3632812,144.273437 L101.988281,144.273437 L101.622395,143.591145 C101.397569,143.181423 101.210938,142.86198 101.0625,142.632812 L101.964844,142.210937 L102.220052,142.617187 C102.414496,142.934895 102.657551,143.346352 102.949219,143.851562 L102.105469,144.273437 L107.613281,144.273437 L107.613281,145.140625 L105.451172,145.140625 C105.033201,147.371105 104.134773,149.164056 102.755859,150.519531 C103.794927,151.277348 105.445301,151.957028 107.707031,152.558594 C107.347654,152.964846 107.07422,153.304686 106.886719,153.578125 C104.683583,152.816402 103.056646,152.019535 102.005859,151.1875 C100.951167,152.007817 99.2656366,152.835933 96.9492188,153.671875 L96.6210942,153.238281 C96.5039069,153.085938 96.3789069,152.925782 96.2460938,152.757812 C98.4804799,152.085934 100.162104,151.337895 101.291016,150.513672 C99.8652272,148.990227 98.9589863,147.199229 98.5722656,145.140625 L96.3632812,145.140625 L96.3632812,144.273437 Z M104.449219,145.140625 L99.5097656,145.140625 C99.8613299,147.06251 100.701165,148.650384 102.029297,149.904297 C103.298834,148.724603 104.105467,147.136729 104.449219,145.140625 Z M108.785156,148.808594 L109.62461,148.707077 C111.10945,148.516642 112.29642,148.302435 113.185547,148.064453 C112.248042,147.814452 111.300786,147.570314 110.34375,147.332031 C110.664064,146.98828 110.96875,146.648439 111.257812,146.3125 L108.46875,146.3125 L108.46875,145.539062 L111.890625,145.539062 C112.187501,145.164061 112.460936,144.792971 112.710938,144.425781 L113.660156,144.695312 C113.449218,144.976564 113.224611,145.257811 112.986328,145.539062 L119.53125,145.539062 L119.53125,146.3125 L117.011719,146.3125 C116.640623,146.97266 116.138675,147.50781 115.505859,147.917969 L116.813673,148.263906 C117.451172,148.434062 118.06406,148.599999 118.652344,148.761719 L118.277344,149.546875 C117.039056,149.156248 115.779303,148.783205 114.498047,148.427734 C113.310541,148.896487 111.519543,149.281248 109.125,149.582031 C109.03125,149.33203 108.917969,149.07422 108.785156,148.808594 Z M119.847656,152.59375 C119.58203,152.906252 119.35547,153.199217 119.167969,153.472656 C117.105458,152.855466 115.523443,152.099614 114.421875,151.205078 L114.421875,153.847656 L113.578125,153.847656 L113.578125,151.222656 C112.394525,152.058598 110.820322,152.812497 108.855469,153.484375 C108.675781,153.257811 108.44922,152.992189 108.175781,152.6875 C110.191416,152.183591 111.787103,151.562504 112.962891,150.824219 L108.445312,150.824219 L108.445312,150.039062 L113.578125,150.039062 L113.578125,149.078125 L114.421875,149.078125 L114.421875,150.039062 L119.625,150.039062 L119.625,150.824219 L115.060547,150.824219 C116.294928,151.656254 117.890615,152.246092 119.847656,152.59375 Z M108.785156,143.347656 L113.695312,143.347656 C113.546874,143.078124 113.375001,142.800783 113.179688,142.515625 L114.011719,142.140625 C114.265626,142.539064 114.505858,142.941404 114.732422,143.347656 L119.203125,143.347656 L119.203125,145.117187 L118.3125,145.117187 L118.3125,144.121094 L109.675781,144.121094 L109.675781,145.117187 L108.785156,145.117187 L108.785156,143.347656 Z M111.679688,146.957031 L113.7583,147.474487 C113.981932,147.530883 114.203124,147.586914 114.421875,147.642578 C115.109378,147.337889 115.646482,146.894534 116.033203,146.3125 L112.300781,146.3125 C112.101562,146.527345 111.894532,146.742186 111.679688,146.957031 Z M122.179688,148.5625 L122.753906,147.90625 C123.347659,148.394534 123.888669,148.873045 124.376953,149.341797 C124.900393,148.435542 125.26953,147.45313 125.484375,146.394531 L122.847656,146.394531 C122.234372,147.800788 121.480473,149.066401 120.585938,150.191406 C120.414062,149.792967 120.257813,149.48047 120.117188,149.253906 C121.296881,147.667961 122.205075,145.812511 122.841797,143.6875 L120.503906,143.6875 L120.503906,142.84375 L127.078125,142.84375 L127.078125,143.6875 L123.808594,143.6875 C123.624999,144.332034 123.419923,144.953122 123.193359,145.550781 L126.445312,145.550781 L126.445312,146.40625 C125.804684,149.609391 124.121107,152.082023 121.394531,153.824219 C121.191405,153.589843 120.94922,153.351564 120.667969,153.109375 C122.003913,152.246089 123.074215,151.248053 123.878906,150.115234 C123.433592,149.677732 122.867191,149.160159 122.179688,148.5625 Z M130.160156,142.421875 L131.097656,142.421875 L131.097656,152.101562 C131.097656,153.093755 130.648442,153.59375 129.75,153.601562 L129.43287,153.605035 C129.027103,153.60706 128.496097,153.601997 127.839844,153.589844 C127.800781,153.230467 127.738282,152.878908 127.652344,152.535156 L128.38672,152.59375 C128.829428,152.625 129.178384,152.640625 129.433594,152.640625 C129.917971,152.640625 130.160156,152.378909 130.160156,151.855469 L130.160156,142.421875 Z M128.472656,150.894531 L127.570312,150.894531 L127.570312,143.722656 L128.472656,143.722656 L128.472656,150.894531 Z M142.347656,148.679687 L142.992188,149.488281 L140.373047,150.800781 C141.29102,151.550785 142.441399,152.046874 143.824219,152.289062 C143.558592,152.632814 143.339845,152.945311 143.167969,153.226562 C140.648425,152.624997 138.841802,151.076184 137.748047,148.580078 C137.349607,149.087893 136.894534,149.57031 136.382812,150.027344 L136.382812,152.535156 C137.414068,152.199217 138.371089,151.847658 139.253906,151.480469 C139.246094,151.82422 139.25,152.164062 139.265625,152.5 C138.32812,152.820314 137.35938,153.171873 136.359375,153.554687 C136.148436,153.640625 135.941407,153.742187 135.738281,153.859375 L135.1875,153.003906 C135.406251,152.847655 135.515625,152.628908 135.515625,152.347656 L135.515625,150.736328 C134.707027,151.3418 133.789068,151.890623 132.761719,152.382812 C132.589843,152.109374 132.390626,151.839845 132.164062,151.574219 C134.183604,150.74609 135.769525,149.636726 136.921875,148.246094 L132.292969,148.246094 L132.292969,147.4375 L137.542969,147.4375 L137.542969,146.242187 L133.125,146.242187 L133.125,145.433594 L137.542969,145.433594 L137.542969,144.285156 L132.65625,144.285156 L132.65625,143.476562 L137.542969,143.476562 L137.542969,142.164062 L138.46875,142.164062 L138.46875,143.476562 L143.378906,143.476562 L143.378906,144.285156 L138.46875,144.285156 L138.46875,145.433594 L142.875,145.433594 L142.875,146.242187 L138.46875,146.242187 L138.46875,147.4375 L143.707031,147.4375 L143.707031,148.246094 L138.498047,148.246094 C138.826174,149.007816 139.248044,149.667966 139.763672,150.226562 C140.548832,149.835936 141.410152,149.320316 142.347656,148.679687 Z M144.363281,144.273437 L149.988281,144.273437 L149.622395,143.591145 C149.397569,143.181423 149.210938,142.86198 149.0625,142.632812 L149.964844,142.210937 L150.220052,142.617187 C150.414496,142.934895 150.657551,143.346352 150.949219,143.851562 L150.105469,144.273437 L155.613281,144.273437 L155.613281,145.140625 L153.451172,145.140625 C153.033201,147.371105 152.134773,149.164056 150.755859,150.519531 C151.794927,151.277348 153.445301,151.957028 155.707031,152.558594 C155.347654,152.964846 155.07422,153.304686 154.886719,153.578125 C152.683583,152.816402 151.056646,152.019535 150.005859,151.1875 C148.951167,152.007817 147.265637,152.835933 144.949219,153.671875 L144.621094,153.238281 C144.503907,153.085938 144.378907,152.925782 144.246094,152.757812 C146.48048,152.085934 148.162104,151.337895 149.291016,150.513672 C147.865227,148.990227 146.958986,147.199229 146.572266,145.140625 L144.363281,145.140625 L144.363281,144.273437 Z M152.449219,145.140625 L147.509766,145.140625 C147.86133,147.06251 148.701165,148.650384 150.029297,149.904297 C151.298834,148.724603 152.105467,147.136729 152.449219,145.140625 Z M156.785156,148.808594 L157.62461,148.707077 C159.10945,148.516642 160.29642,148.302435 161.185547,148.064453 C160.248042,147.814452 159.300786,147.570314 158.34375,147.332031 C158.664064,146.98828 158.96875,146.648439 159.257812,146.3125 L156.46875,146.3125 L156.46875,145.539062 L159.890625,145.539062 C160.187501,145.164061 160.460936,144.792971 160.710938,144.425781 L161.660156,144.695312 C161.449218,144.976564 161.224611,145.257811 160.986328,145.539062 L167.53125,145.539062 L167.53125,146.3125 L165.011719,146.3125 C164.640623,146.97266 164.138675,147.50781 163.505859,147.917969 L164.813673,148.263906 C165.451172,148.434062 166.06406,148.599999 166.652344,148.761719 L166.277344,149.546875 C165.039056,149.156248 163.779303,148.783205 162.498047,148.427734 C161.310541,148.896487 159.519543,149.281248 157.125,149.582031 C157.03125,149.33203 156.917969,149.07422 156.785156,148.808594 Z M167.847656,152.59375 C167.58203,152.906252 167.35547,153.199217 167.167969,153.472656 C165.105458,152.855466 163.523443,152.099614 162.421875,151.205078 L162.421875,153.847656 L161.578125,153.847656 L161.578125,151.222656 C160.394525,152.058598 158.820322,152.812497 156.855469,153.484375 C156.675781,153.257811 156.44922,152.992189 156.175781,152.6875 C158.191416,152.183591 159.787103,151.562504 160.962891,150.824219 L156.445312,150.824219 L156.445312,150.039062 L161.578125,150.039062 L161.578125,149.078125 L162.421875,149.078125 L162.421875,150.039062 L167.625,150.039062 L167.625,150.824219 L163.060547,150.824219 C164.294928,151.656254 165.890615,152.246092 167.847656,152.59375 Z M156.785156,143.347656 L161.695312,143.347656 C161.546874,143.078124 161.375001,142.800783 161.179688,142.515625 L162.011719,142.140625 C162.265626,142.539064 162.505858,142.941404 162.732422,143.347656 L167.203125,143.347656 L167.203125,145.117187 L166.3125,145.117187 L166.3125,144.121094 L157.675781,144.121094 L157.675781,145.117187 L156.785156,145.117187 L156.785156,143.347656 Z M159.679688,146.957031 L161.7583,147.474487 C161.981932,147.530883 162.203124,147.586914 162.421875,147.642578 C163.109378,147.337889 163.646482,146.894534 164.033203,146.3125 L160.300781,146.3125 C160.101562,146.527345 159.894532,146.742186 159.679688,146.957031 Z M168.837891,150.707031 C169.458987,151.187502 170.160152,151.427734 170.941406,151.427734 C171.566409,151.427734 172.061522,151.274416 172.426758,150.967773 C172.791994,150.661131 172.974609,150.250003 172.974609,149.734375 C172.974609,148.585932 172.152352,148.011719 170.507812,148.011719 L169.751953,148.011719 L169.751953,147.0625 L170.472656,147.0625 C171.929695,147.0625 172.658203,146.523443 172.658203,145.445312 C172.658203,144.449214 172.101568,143.951172 170.988281,143.951172 C170.351559,143.951172 169.751956,144.166013 169.189453,144.595703 L169.189453,143.511719 C169.783206,143.167967 170.476559,142.996094 171.269531,142.996094 C172.042973,142.996094 172.66406,143.19824 173.132812,143.602539 C173.601565,144.006838 173.835938,144.531247 173.835938,145.175781 C173.835938,146.363287 173.230475,147.126951 172.019531,147.466797 L172.019531,147.490234 C172.675785,147.560547 173.194334,147.79199 173.575195,148.18457 C173.956057,148.57715 174.146484,149.066403 174.146484,149.652344 C174.146484,150.468754 173.852542,151.126951 173.264648,151.626953 C172.676755,152.126956 171.894536,152.376953 170.917969,152.376953 C170.058589,152.376953 169.365237,152.216798 168.837891,151.896484 L168.837891,150.707031 Z" id="列表文案列表文案3" fill="#5A6677" fill-rule="nonzero"></path>
                <g id="矩形">
                    <use fill="black" fill-opacity="1" filter="url(#filter-8)" xlink:href="#path-7"></use>
                    <use fill="#FFFFFF" fill-rule="evenodd" xlink:href="#path-7"></use>
                </g>
                <path d="M74.1796875,188.5625 L74.7539062,187.90625 C75.3476592,188.394534 75.8886694,188.873045 76.3769531,189.341797 C76.9003932,188.435542 77.2695302,187.45313 77.484375,186.394531 L74.8476562,186.394531 C74.2343719,187.800788 73.4804732,189.066401 72.5859375,190.191406 C72.4140616,189.792967 72.2578132,189.48047 72.1171875,189.253906 C73.2968809,187.667961 74.2050749,185.812511 74.8417969,183.6875 L72.5039062,183.6875 L72.5039062,182.84375 L79.078125,182.84375 L79.078125,183.6875 L75.8085938,183.6875 C75.6249991,184.332034 75.419923,184.953122 75.1933594,185.550781 L78.4453125,185.550781 L78.4453125,186.40625 C77.8046843,189.609391 76.1211074,192.082023 73.3945312,193.824219 C73.1914052,193.589843 72.9492202,193.351564 72.6679688,193.109375 C74.0039129,192.246089 75.0742147,191.248053 75.8789062,190.115234 C75.4335915,189.677732 74.8671909,189.160159 74.1796875,188.5625 Z M82.1601562,182.421875 L83.0976562,182.421875 L83.0976562,192.101563 C83.0976562,193.093755 82.648442,193.59375 81.75,193.601563 L81.43287,193.605035 C81.0271028,193.60706 80.496097,193.601997 79.8398438,193.589844 C79.8007811,193.230467 79.7382817,192.878908 79.6523438,192.535156 L80.3867201,192.59375 C80.829428,192.625 81.1783841,192.640625 81.4335938,192.640625 C81.9179712,192.640625 82.1601562,192.378909 82.1601562,191.855469 L82.1601562,182.421875 Z M80.4726562,190.894531 L79.5703125,190.894531 L79.5703125,183.722656 L80.4726562,183.722656 L80.4726562,190.894531 Z M94.3476562,188.679688 L94.9921875,189.488281 L92.3730469,190.800781 C93.2910202,191.550785 94.4413993,192.046874 95.8242188,192.289063 C95.5585924,192.632814 95.3398446,192.945311 95.1679688,193.226563 C92.6484249,192.624997 90.8418023,191.076184 89.7480469,188.580078 C89.3496074,189.087893 88.8945338,189.57031 88.3828125,190.027344 L88.3828125,192.535156 C89.4140677,192.199217 90.3710893,191.847658 91.2539062,191.480469 C91.2460937,191.82422 91.2499999,192.164063 91.265625,192.5 C90.3281203,192.820314 89.35938,193.171873 88.359375,193.554688 C88.1484364,193.640625 87.9414073,193.742187 87.7382812,193.859375 L87.1875,193.003906 C87.4062511,192.847655 87.515625,192.628908 87.515625,192.347656 L87.515625,190.736328 C86.7070272,191.3418 85.7890676,191.890623 84.7617188,192.382813 C84.5898429,192.109374 84.3906261,191.839845 84.1640625,191.574219 C86.1836038,190.74609 87.7695255,189.636726 88.921875,188.246094 L84.2929688,188.246094 L84.2929688,187.4375 L89.5429688,187.4375 L89.5429688,186.242188 L85.125,186.242188 L85.125,185.433594 L89.5429688,185.433594 L89.5429688,184.285156 L84.65625,184.285156 L84.65625,183.476563 L89.5429688,183.476563 L89.5429688,182.164063 L90.46875,182.164063 L90.46875,183.476563 L95.3789062,183.476563 L95.3789062,184.285156 L90.46875,184.285156 L90.46875,185.433594 L94.875,185.433594 L94.875,186.242188 L90.46875,186.242188 L90.46875,187.4375 L95.7070312,187.4375 L95.7070312,188.246094 L90.4980469,188.246094 C90.8261735,189.007816 91.2480443,189.667966 91.7636719,190.226563 C92.5488321,189.835936 93.4101516,189.320316 94.3476562,188.679688 Z M96.3632812,184.273438 L101.988281,184.273438 L101.622395,183.591145 C101.397569,183.181423 101.210938,182.86198 101.0625,182.632813 L101.964844,182.210938 L102.220052,182.617187 C102.414496,182.934895 102.657551,183.346352 102.949219,183.851563 L102.105469,184.273438 L107.613281,184.273438 L107.613281,185.140625 L105.451172,185.140625 C105.033201,187.371105 104.134773,189.164056 102.755859,190.519531 C103.794927,191.277348 105.445301,191.957028 107.707031,192.558594 C107.347654,192.964846 107.07422,193.304686 106.886719,193.578125 C104.683583,192.816402 103.056646,192.019535 102.005859,191.1875 C100.951167,192.007817 99.2656366,192.835933 96.9492188,193.671875 L96.6210942,193.238281 C96.5039069,193.085938 96.3789069,192.925782 96.2460938,192.757813 C98.4804799,192.085934 100.162104,191.337895 101.291016,190.513672 C99.8652272,188.990227 98.9589863,187.199229 98.5722656,185.140625 L96.3632812,185.140625 L96.3632812,184.273438 Z M104.449219,185.140625 L99.5097656,185.140625 C99.8613299,187.06251 100.701165,188.650384 102.029297,189.904297 C103.298834,188.724603 104.105467,187.136729 104.449219,185.140625 Z M108.785156,188.808594 L109.62461,188.707077 C111.10945,188.516642 112.29642,188.302435 113.185547,188.064453 C112.248042,187.814452 111.300786,187.570314 110.34375,187.332031 C110.664064,186.98828 110.96875,186.648439 111.257812,186.3125 L108.46875,186.3125 L108.46875,185.539063 L111.890625,185.539063 C112.187501,185.164061 112.460936,184.792971 112.710938,184.425781 L113.660156,184.695313 C113.449218,184.976564 113.224611,185.257811 112.986328,185.539063 L119.53125,185.539063 L119.53125,186.3125 L117.011719,186.3125 C116.640623,186.97266 116.138675,187.50781 115.505859,187.917969 L116.813673,188.263906 C117.451172,188.434062 118.06406,188.599999 118.652344,188.761719 L118.277344,189.546875 C117.039056,189.156248 115.779303,188.783205 114.498047,188.427734 C113.310541,188.896487 111.519543,189.281248 109.125,189.582031 C109.03125,189.33203 108.917969,189.07422 108.785156,188.808594 Z M119.847656,192.59375 C119.58203,192.906252 119.35547,193.199217 119.167969,193.472656 C117.105458,192.855466 115.523443,192.099614 114.421875,191.205078 L114.421875,193.847656 L113.578125,193.847656 L113.578125,191.222656 C112.394525,192.058598 110.820322,192.812497 108.855469,193.484375 C108.675781,193.257811 108.44922,192.992189 108.175781,192.6875 C110.191416,192.183591 111.787103,191.562504 112.962891,190.824219 L108.445312,190.824219 L108.445312,190.039063 L113.578125,190.039063 L113.578125,189.078125 L114.421875,189.078125 L114.421875,190.039063 L119.625,190.039063 L119.625,190.824219 L115.060547,190.824219 C116.294928,191.656254 117.890615,192.246092 119.847656,192.59375 Z M108.785156,183.347656 L113.695312,183.347656 C113.546874,183.078124 113.375001,182.800783 113.179688,182.515625 L114.011719,182.140625 C114.265626,182.539064 114.505858,182.941404 114.732422,183.347656 L119.203125,183.347656 L119.203125,185.117188 L118.3125,185.117188 L118.3125,184.121094 L109.675781,184.121094 L109.675781,185.117188 L108.785156,185.117188 L108.785156,183.347656 Z M111.679688,186.957031 L113.7583,187.474487 C113.981932,187.530883 114.203124,187.586914 114.421875,187.642578 C115.109378,187.337889 115.646482,186.894534 116.033203,186.3125 L112.300781,186.3125 C112.101562,186.527345 111.894532,186.742186 111.679688,186.957031 Z M122.179688,188.5625 L122.753906,187.90625 C123.347659,188.394534 123.888669,188.873045 124.376953,189.341797 C124.900393,188.435542 125.26953,187.45313 125.484375,186.394531 L122.847656,186.394531 C122.234372,187.800788 121.480473,189.066401 120.585938,190.191406 C120.414062,189.792967 120.257813,189.48047 120.117188,189.253906 C121.296881,187.667961 122.205075,185.812511 122.841797,183.6875 L120.503906,183.6875 L120.503906,182.84375 L127.078125,182.84375 L127.078125,183.6875 L123.808594,183.6875 C123.624999,184.332034 123.419923,184.953122 123.193359,185.550781 L126.445312,185.550781 L126.445312,186.40625 C125.804684,189.609391 124.121107,192.082023 121.394531,193.824219 C121.191405,193.589843 120.94922,193.351564 120.667969,193.109375 C122.003913,192.246089 123.074215,191.248053 123.878906,190.115234 C123.433592,189.677732 122.867191,189.160159 122.179688,188.5625 Z M130.160156,182.421875 L131.097656,182.421875 L131.097656,192.101563 C131.097656,193.093755 130.648442,193.59375 129.75,193.601563 L129.43287,193.605035 C129.027103,193.60706 128.496097,193.601997 127.839844,193.589844 C127.800781,193.230467 127.738282,192.878908 127.652344,192.535156 L128.38672,192.59375 C128.829428,192.625 129.178384,192.640625 129.433594,192.640625 C129.917971,192.640625 130.160156,192.378909 130.160156,191.855469 L130.160156,182.421875 Z M128.472656,190.894531 L127.570312,190.894531 L127.570312,183.722656 L128.472656,183.722656 L128.472656,190.894531 Z M142.347656,188.679688 L142.992188,189.488281 L140.373047,190.800781 C141.29102,191.550785 142.441399,192.046874 143.824219,192.289063 C143.558592,192.632814 143.339845,192.945311 143.167969,193.226563 C140.648425,192.624997 138.841802,191.076184 137.748047,188.580078 C137.349607,189.087893 136.894534,189.57031 136.382812,190.027344 L136.382812,192.535156 C137.414068,192.199217 138.371089,191.847658 139.253906,191.480469 C139.246094,191.82422 139.25,192.164063 139.265625,192.5 C138.32812,192.820314 137.35938,193.171873 136.359375,193.554688 C136.148436,193.640625 135.941407,193.742187 135.738281,193.859375 L135.1875,193.003906 C135.406251,192.847655 135.515625,192.628908 135.515625,192.347656 L135.515625,190.736328 C134.707027,191.3418 133.789068,191.890623 132.761719,192.382813 C132.589843,192.109374 132.390626,191.839845 132.164062,191.574219 C134.183604,190.74609 135.769525,189.636726 136.921875,188.246094 L132.292969,188.246094 L132.292969,187.4375 L137.542969,187.4375 L137.542969,186.242188 L133.125,186.242188 L133.125,185.433594 L137.542969,185.433594 L137.542969,184.285156 L132.65625,184.285156 L132.65625,183.476563 L137.542969,183.476563 L137.542969,182.164063 L138.46875,182.164063 L138.46875,183.476563 L143.378906,183.476563 L143.378906,184.285156 L138.46875,184.285156 L138.46875,185.433594 L142.875,185.433594 L142.875,186.242188 L138.46875,186.242188 L138.46875,187.4375 L143.707031,187.4375 L143.707031,188.246094 L138.498047,188.246094 C138.826174,189.007816 139.248044,189.667966 139.763672,190.226563 C140.548832,189.835936 141.410152,189.320316 142.347656,188.679688 Z M144.363281,184.273438 L149.988281,184.273438 L149.622395,183.591145 C149.397569,183.181423 149.210938,182.86198 149.0625,182.632813 L149.964844,182.210938 L150.220052,182.617187 C150.414496,182.934895 150.657551,183.346352 150.949219,183.851563 L150.105469,184.273438 L155.613281,184.273438 L155.613281,185.140625 L153.451172,185.140625 C153.033201,187.371105 152.134773,189.164056 150.755859,190.519531 C151.794927,191.277348 153.445301,191.957028 155.707031,192.558594 C155.347654,192.964846 155.07422,193.304686 154.886719,193.578125 C152.683583,192.816402 151.056646,192.019535 150.005859,191.1875 C148.951167,192.007817 147.265637,192.835933 144.949219,193.671875 L144.621094,193.238281 C144.503907,193.085938 144.378907,192.925782 144.246094,192.757813 C146.48048,192.085934 148.162104,191.337895 149.291016,190.513672 C147.865227,188.990227 146.958986,187.199229 146.572266,185.140625 L144.363281,185.140625 L144.363281,184.273438 Z M152.449219,185.140625 L147.509766,185.140625 C147.86133,187.06251 148.701165,188.650384 150.029297,189.904297 C151.298834,188.724603 152.105467,187.136729 152.449219,185.140625 Z M156.785156,188.808594 L157.62461,188.707077 C159.10945,188.516642 160.29642,188.302435 161.185547,188.064453 C160.248042,187.814452 159.300786,187.570314 158.34375,187.332031 C158.664064,186.98828 158.96875,186.648439 159.257812,186.3125 L156.46875,186.3125 L156.46875,185.539063 L159.890625,185.539063 C160.187501,185.164061 160.460936,184.792971 160.710938,184.425781 L161.660156,184.695313 C161.449218,184.976564 161.224611,185.257811 160.986328,185.539063 L167.53125,185.539063 L167.53125,186.3125 L165.011719,186.3125 C164.640623,186.97266 164.138675,187.50781 163.505859,187.917969 L164.813673,188.263906 C165.451172,188.434062 166.06406,188.599999 166.652344,188.761719 L166.277344,189.546875 C165.039056,189.156248 163.779303,188.783205 162.498047,188.427734 C161.310541,188.896487 159.519543,189.281248 157.125,189.582031 C157.03125,189.33203 156.917969,189.07422 156.785156,188.808594 Z M167.847656,192.59375 C167.58203,192.906252 167.35547,193.199217 167.167969,193.472656 C165.105458,192.855466 163.523443,192.099614 162.421875,191.205078 L162.421875,193.847656 L161.578125,193.847656 L161.578125,191.222656 C160.394525,192.058598 158.820322,192.812497 156.855469,193.484375 C156.675781,193.257811 156.44922,192.992189 156.175781,192.6875 C158.191416,192.183591 159.787103,191.562504 160.962891,190.824219 L156.445312,190.824219 L156.445312,190.039063 L161.578125,190.039063 L161.578125,189.078125 L162.421875,189.078125 L162.421875,190.039063 L167.625,190.039063 L167.625,190.824219 L163.060547,190.824219 C164.294928,191.656254 165.890615,192.246092 167.847656,192.59375 Z M156.785156,183.347656 L161.695312,183.347656 C161.546874,183.078124 161.375001,182.800783 161.179688,182.515625 L162.011719,182.140625 C162.265626,182.539064 162.505858,182.941404 162.732422,183.347656 L167.203125,183.347656 L167.203125,185.117188 L166.3125,185.117188 L166.3125,184.121094 L157.675781,184.121094 L157.675781,185.117188 L156.785156,185.117188 L156.785156,183.347656 Z M159.679688,186.957031 L161.7583,187.474487 C161.981932,187.530883 162.203124,187.586914 162.421875,187.642578 C163.109378,187.337889 163.646482,186.894534 164.033203,186.3125 L160.300781,186.3125 C160.101562,186.527345 159.894532,186.742186 159.679688,186.957031 Z M170.179688,188.5625 L170.753906,187.90625 C171.347659,188.394534 171.888669,188.873045 172.376953,189.341797 C172.900393,188.435542 173.26953,187.45313 173.484375,186.394531 L170.847656,186.394531 C170.234372,187.800788 169.480473,189.066401 168.585938,190.191406 C168.414062,189.792967 168.257813,189.48047 168.117188,189.253906 C169.296881,187.667961 170.205075,185.812511 170.841797,183.6875 L168.503906,183.6875 L168.503906,182.84375 L175.078125,182.84375 L175.078125,183.6875 L171.808594,183.6875 C171.624999,184.332034 171.419923,184.953122 171.193359,185.550781 L174.445312,185.550781 L174.445312,186.40625 C173.804684,189.609391 172.121107,192.082023 169.394531,193.824219 C169.191405,193.589843 168.94922,193.351564 168.667969,193.109375 C170.003913,192.246089 171.074215,191.248053 171.878906,190.115234 C171.433592,189.677732 170.867191,189.160159 170.179688,188.5625 Z M178.160156,182.421875 L179.097656,182.421875 L179.097656,192.101563 C179.097656,193.093755 178.648442,193.59375 177.75,193.601563 L177.43287,193.605035 C177.027103,193.60706 176.496097,193.601997 175.839844,193.589844 C175.800781,193.230467 175.738282,192.878908 175.652344,192.535156 L176.38672,192.59375 C176.829428,192.625 177.178384,192.640625 177.433594,192.640625 C177.917971,192.640625 178.160156,192.378909 178.160156,191.855469 L178.160156,182.421875 Z M176.472656,190.894531 L175.570312,190.894531 L175.570312,183.722656 L176.472656,183.722656 L176.472656,190.894531 Z M190.347656,188.679688 L190.992188,189.488281 L188.373047,190.800781 C189.29102,191.550785 190.441399,192.046874 191.824219,192.289063 C191.558592,192.632814 191.339845,192.945311 191.167969,193.226563 C188.648425,192.624997 186.841802,191.076184 185.748047,188.580078 C185.349607,189.087893 184.894534,189.57031 184.382812,190.027344 L184.382812,192.535156 C185.414068,192.199217 186.371089,191.847658 187.253906,191.480469 C187.246094,191.82422 187.25,192.164063 187.265625,192.5 C186.32812,192.820314 185.35938,193.171873 184.359375,193.554688 C184.148436,193.640625 183.941407,193.742187 183.738281,193.859375 L183.1875,193.003906 C183.406251,192.847655 183.515625,192.628908 183.515625,192.347656 L183.515625,190.736328 C182.707027,191.3418 181.789068,191.890623 180.761719,192.382813 C180.589843,192.109374 180.390626,191.839845 180.164062,191.574219 C182.183604,190.74609 183.769525,189.636726 184.921875,188.246094 L180.292969,188.246094 L180.292969,187.4375 L185.542969,187.4375 L185.542969,186.242188 L181.125,186.242188 L181.125,185.433594 L185.542969,185.433594 L185.542969,184.285156 L180.65625,184.285156 L180.65625,183.476563 L185.542969,183.476563 L185.542969,182.164063 L186.46875,182.164063 L186.46875,183.476563 L191.378906,183.476563 L191.378906,184.285156 L186.46875,184.285156 L186.46875,185.433594 L190.875,185.433594 L190.875,186.242188 L186.46875,186.242188 L186.46875,187.4375 L191.707031,187.4375 L191.707031,188.246094 L186.498047,188.246094 C186.826174,189.007816 187.248044,189.667966 187.763672,190.226563 C188.548832,189.835936 189.410152,189.320316 190.347656,188.679688 Z M192.363281,184.273438 L197.988281,184.273438 L197.622395,183.591145 C197.397569,183.181423 197.210938,182.86198 197.0625,182.632813 L197.964844,182.210938 L198.220052,182.617187 C198.414496,182.934895 198.657551,183.346352 198.949219,183.851563 L198.105469,184.273438 L203.613281,184.273438 L203.613281,185.140625 L201.451172,185.140625 C201.033201,187.371105 200.134773,189.164056 198.755859,190.519531 C199.794927,191.277348 201.445301,191.957028 203.707031,192.558594 C203.347654,192.964846 203.07422,193.304686 202.886719,193.578125 C200.683583,192.816402 199.056646,192.019535 198.005859,191.1875 C196.951167,192.007817 195.265637,192.835933 192.949219,193.671875 L192.621094,193.238281 C192.503907,193.085938 192.378907,192.925782 192.246094,192.757813 C194.48048,192.085934 196.162104,191.337895 197.291016,190.513672 C195.865227,188.990227 194.958986,187.199229 194.572266,185.140625 L192.363281,185.140625 L192.363281,184.273438 Z M200.449219,185.140625 L195.509766,185.140625 C195.86133,187.06251 196.701165,188.650384 198.029297,189.904297 C199.298834,188.724603 200.105467,187.136729 200.449219,185.140625 Z M204.785156,188.808594 L205.62461,188.707077 C207.10945,188.516642 208.29642,188.302435 209.185547,188.064453 C208.248042,187.814452 207.300786,187.570314 206.34375,187.332031 C206.664064,186.98828 206.96875,186.648439 207.257812,186.3125 L204.46875,186.3125 L204.46875,185.539063 L207.890625,185.539063 C208.187501,185.164061 208.460936,184.792971 208.710938,184.425781 L209.660156,184.695313 C209.449218,184.976564 209.224611,185.257811 208.986328,185.539063 L215.53125,185.539063 L215.53125,186.3125 L213.011719,186.3125 C212.640623,186.97266 212.138675,187.50781 211.505859,187.917969 L212.813673,188.263906 C213.451172,188.434062 214.06406,188.599999 214.652344,188.761719 L214.277344,189.546875 C213.039056,189.156248 211.779303,188.783205 210.498047,188.427734 C209.310541,188.896487 207.519543,189.281248 205.125,189.582031 C205.03125,189.33203 204.917969,189.07422 204.785156,188.808594 Z M215.847656,192.59375 C215.58203,192.906252 215.35547,193.199217 215.167969,193.472656 C213.105458,192.855466 211.523443,192.099614 210.421875,191.205078 L210.421875,193.847656 L209.578125,193.847656 L209.578125,191.222656 C208.394525,192.058598 206.820322,192.812497 204.855469,193.484375 C204.675781,193.257811 204.44922,192.992189 204.175781,192.6875 C206.191416,192.183591 207.787103,191.562504 208.962891,190.824219 L204.445312,190.824219 L204.445312,190.039063 L209.578125,190.039063 L209.578125,189.078125 L210.421875,189.078125 L210.421875,190.039063 L215.625,190.039063 L215.625,190.824219 L211.060547,190.824219 C212.294928,191.656254 213.890615,192.246092 215.847656,192.59375 Z M204.785156,183.347656 L209.695312,183.347656 C209.546874,183.078124 209.375001,182.800783 209.179688,182.515625 L210.011719,182.140625 C210.265626,182.539064 210.505858,182.941404 210.732422,183.347656 L215.203125,183.347656 L215.203125,185.117188 L214.3125,185.117188 L214.3125,184.121094 L205.675781,184.121094 L205.675781,185.117188 L204.785156,185.117188 L204.785156,183.347656 Z M207.679688,186.957031 L209.7583,187.474487 C209.981932,187.530883 210.203124,187.586914 210.421875,187.642578 C211.109378,187.337889 211.646482,186.894534 212.033203,186.3125 L208.300781,186.3125 C208.101562,186.527345 207.894532,186.742186 207.679688,186.957031 Z M223.394531,191.609375 C223.394531,191.398436 223.468749,191.219727 223.617188,191.073242 C223.765626,190.926757 223.939452,190.853516 224.138672,190.853516 C224.345704,190.853516 224.52246,190.92871 224.668945,191.079102 C224.81543,191.229493 224.888672,191.406249 224.888672,191.609375 C224.888672,191.812501 224.816407,191.985351 224.671875,192.12793 C224.527343,192.270509 224.34961,192.341797 224.138672,192.341797 C223.923827,192.341797 223.746094,192.269532 223.605469,192.125 C223.464843,191.980468 223.394531,191.808595 223.394531,191.609375 Z M220.125,191.609375 C220.125,191.398436 220.198241,191.219727 220.344727,191.073242 C220.491212,190.926757 220.669921,190.853516 220.880859,190.853516 C221.083985,190.853516 221.258788,190.92871 221.405273,191.079102 C221.551759,191.229493 221.625,191.406249 221.625,191.609375 C221.625,191.812501 221.552735,191.985351 221.408203,192.12793 C221.263671,192.270509 221.085939,192.341797 220.875,192.341797 C220.664061,192.341797 220.486329,192.270509 220.341797,192.12793 C220.197265,191.985351 220.125,191.812501 220.125,191.609375 Z M216.878906,191.609375 C216.878906,191.398436 216.950195,191.219727 217.092773,191.073242 C217.235352,190.926757 217.410155,190.853516 217.617188,190.853516 C217.816407,190.853516 217.99121,190.927734 218.141602,191.076172 C218.291993,191.22461 218.367188,191.402343 218.367188,191.609375 C218.367188,191.812501 218.294923,191.985351 218.150391,192.12793 C218.005859,192.270509 217.826173,192.341797 217.611328,192.341797 C217.404296,192.341797 217.230469,192.271485 217.089844,192.130859 C216.949218,191.990234 216.878906,191.816407 216.878906,191.609375 Z M231.210938,183.148438 L231.210938,188.960938 L232.371094,188.960938 L232.371094,189.869141 L231.210938,189.869141 L231.210938,192.224609 L230.097656,192.224609 L230.097656,189.869141 L225.867188,189.869141 L225.867188,189.125 L229.880859,183.148438 L231.210938,183.148438 Z M230.121094,184.226563 L230.097656,184.226563 C230.061198,184.325521 229.99783,184.461805 229.907552,184.635416 L229.907552,184.635416 L229.751953,184.923828 L227.050781,188.960938 L230.097656,188.960938 L230.097656,185.158203 C230.097656,184.888671 230.105469,184.578127 230.121094,184.226563 L230.121094,184.226563 Z" id="列表文案列表文案列表文案…4" fill="#5A6677" fill-rule="nonzero"></path>
                <text id="样式三" font-family="MicrosoftYaHei, Microsoft YaHei" font-size="12" font-weight="normal" line-spacing="22" fill="#525A6E">
                    <tspan x="8" y="27">样式三</tspan>
                </text>
            </g>
        </g>
    </g>
</svg>