<?xml version="1.0" encoding="UTF-8"?>
<svg width="241px" height="68px" viewBox="0 0 241 68" version="1.1" xmlns="http://www.w3.org/2000/svg" xmlns:xlink="http://www.w3.org/1999/xlink">
    <!-- Generator: Sketch 58 (84663) - https://sketch.com -->
    <title>email-input/style2</title>
    <desc>Created with Sketch.</desc>
    <g id="页面-1" stroke="none" stroke-width="1" fill="none" fill-rule="evenodd">
        <g id="email-input/style2">
            <rect id="矩形备份" fill-opacity="0.01" fill="#F6F6F6" x="0" y="0" width="241" height="68"></rect>
            <rect id="矩形备份-4" stroke-opacity="0.15" stroke="#000000" fill="#FFFFFF" x="8.5" y="32.5" width="224" height="27" rx="2"></rect>
            <path d="M25.328125,42.7363281 L23.3945312,49.2167969 L22.1992188,49.2167969 L20.9101562,44.6699219 C20.8554685,44.4746084 20.8203126,44.2675792 20.8046875,44.0488281 L20.78125,44.0488281 C20.7724609,44.1718756 20.7449953,44.3168942 20.6988527,44.4838863 L19.2519531,49.2167969 L18.0917969,49.2167969 L16.1464844,42.7363281 L17.3417969,42.7363281 L18.6367188,47.5410156 C18.6757814,47.6855476 18.705078,47.8828113 18.7246094,48.1328125 L18.7714844,48.1328125 C18.7871095,47.9179677 18.8242185,47.7148447 18.8828125,47.5234375 L20.2773438,42.7363281 L21.3378906,42.7363281 L22.6972656,47.546875 C22.7363283,47.6875007 22.767578,47.8867175 22.7910156,48.1445312 L22.84375,48.1445312 C22.8496094,48.0156244 22.8708494,47.8713382 22.9074706,47.7116703 L24.2148438,42.7363281 L25.328125,42.7363281 Z M26.6523438,43.1875 C27.2968782,42.7851542 28.0410114,42.5839844 28.8847656,42.5839844 C30.4472734,42.5839844 31.2285156,43.4042887 31.2285156,45.0449219 L31.2285156,49.2167969 L30.0917969,49.2167969 L30.0917969,48.2148438 L30.0625,48.2148438 C29.613279,48.9843788 28.9511762,49.3691406 28.0761719,49.3691406 C27.4472625,49.3691406 26.9472675,49.1992204 26.5761719,48.859375 C26.2050763,48.5195296 26.0195312,48.0605498 26.0195312,47.4824219 C26.0195312,46.2714783 26.736321,45.5664072 28.1699219,45.3671875 L30.0917969,45.0976562 C30.0917969,44.0390572 29.6543012,43.5097656 28.7792969,43.5097656 C28.0019492,43.5097656 27.292972,43.7714818 26.6523438,44.2949219 L26.6523438,43.1875 Z M28.5742188,46.1699219 C28.0429661,46.2402347 27.6767588,46.3730459 27.4755859,46.5683594 C27.2744131,46.7636729 27.1738281,47.0371076 27.1738281,47.3886719 C27.1738281,47.6972672 27.283202,47.9492178 27.5019531,48.1445312 C27.7207042,48.3398447 28.0097638,48.4375 28.3691406,48.4375 C28.8691431,48.4375 29.2812484,48.2617205 29.6054688,47.9101562 C29.9296891,47.558592 30.0917969,47.1171902 30.0917969,46.5859375 L30.0917969,45.9648438 L28.5742188,46.1699219 Z M38.6113281,49.2167969 L37.46875,49.2167969 L37.46875,45.53125 C37.46875,44.1992121 36.9824267,43.5332031 36.0097656,43.5332031 C35.5058569,43.5332031 35.0917985,43.7207013 34.7675781,44.0957031 C34.4433578,44.470705 34.28125,44.9453096 34.28125,45.5195312 L34.28125,49.2167969 L33.1328125,49.2167969 L33.1328125,42.7363281 L34.28125,42.7363281 L34.28125,43.8085938 L34.3046875,43.8085938 C34.7929712,42.9921834 35.5019485,42.5839844 36.4316406,42.5839844 C37.1425817,42.5839844 37.6835919,42.8115212 38.0546875,43.2666016 C38.4257831,43.721682 38.6113281,44.3847613 38.6113281,45.2558594 L38.6113281,49.2167969 Z M46.1523438,48.671875 C46.1523438,51.0703245 44.9882929,52.2695312 42.6601562,52.2695312 C41.8554647,52.2695312 41.156253,52.1191421 40.5625,51.8183594 L40.5625,50.7109375 C41.2851599,51.1132833 41.9785123,51.3144531 42.6425781,51.3144531 C44.2168047,51.3144531 45.0039062,50.4863364 45.0039062,48.8300781 L45.0039062,48.1445312 L44.9804688,48.1445312 C44.4882788,48.9609416 43.7539111,49.3691406 42.7773438,49.3691406 C41.9648397,49.3691406 41.3144556,49.0781279 40.8261719,48.4960938 C40.3378882,47.9140596 40.09375,47.1425829 40.09375,46.1816406 C40.09375,45.0761663 40.3632786,44.2001985 40.9023438,43.5537109 C41.4414089,42.9072233 42.1601518,42.5839844 43.0585938,42.5839844 C43.9218793,42.5839844 44.5624979,42.9277309 44.9804688,43.6152344 L45.0039062,43.6152344 L45.0039062,42.7363281 L46.1523438,42.7363281 L46.1523438,48.671875 Z M45.0039062,45.3613281 C45.0078125,44.8613256 44.8398454,44.4316424 44.5,44.0722656 C44.1601546,43.7128888 43.74219,43.5332031 43.2460938,43.5332031 C42.6210906,43.5332031 42.1347674,43.762693 41.7871094,44.2216797 C41.4394514,44.6806664 41.265625,45.3105429 41.265625,46.1113281 C41.265625,46.7988316 41.4335921,47.3554666 41.7695312,47.78125 C42.1054704,48.2070334 42.5507785,48.4199219 43.1054688,48.4199219 C43.6640653,48.4199219 44.121092,48.2167989 44.4765625,47.8105469 C44.832033,47.4042948 45.0078125,46.888675 45.0039062,46.2636719 L45.0039062,45.3613281 Z M48.0683594,40.4511719 C48.0683594,40.2480459 48.1367181,40.0771491 48.2734375,39.9384766 C48.4101569,39.799804 48.5820302,39.7304688 48.7890625,39.7304688 C49.0000011,39.7304688 49.1757805,39.7988274 49.3164062,39.9355469 C49.457032,40.0722663 49.5273438,40.2441396 49.5273438,40.4511719 C49.5273438,40.6503916 49.4560554,40.8183587 49.3134766,40.9550781 C49.1708977,41.0917976 48.9960948,41.1601562 48.7890625,41.1601562 C48.5820302,41.1601562 48.4101569,41.090821 48.2734375,40.9521484 C48.1367181,40.8134759 48.0683594,40.6464854 48.0683594,40.4511719 Z M49.3515625,48.9648438 C49.3515625,50.0156303 49.1337912,50.8290987 48.6982422,51.4052734 C48.2626931,51.9814482 47.6445353,52.2695312 46.84375,52.2695312 C46.5468735,52.2695312 46.2558608,52.2011726 45.9707031,52.0644531 L45.9707031,51.0273438 C46.2753921,51.2148447 46.5644518,51.3085938 46.8378906,51.3085938 C47.7480514,51.3085938 48.203125,50.5839916 48.203125,49.1347656 L48.203125,42.7363281 L49.3515625,42.7363281 L49.3515625,48.9648438 Z M51.2675781,40.4511719 C51.2675781,40.2480459 51.3369134,40.0771491 51.4755859,39.9384766 C51.6142585,39.799804 51.7851552,39.7304688 51.9882812,39.7304688 C52.1953135,39.7304688 52.3701165,39.7988274 52.5126953,39.9355469 C52.6552742,40.0722663 52.7265625,40.2441396 52.7265625,40.4511719 C52.7265625,40.6542979 52.6552742,40.8232415 52.5126953,40.9580078 C52.3701165,41.0927741 52.1953135,41.1601562 51.9882812,41.1601562 C51.781249,41.1601562 51.6093757,41.0927741 51.4726562,40.9580078 C51.3359368,40.8232415 51.2675781,40.6542979 51.2675781,40.4511719 Z M51.4023438,49.2167969 L51.4023438,42.7363281 L52.5507812,42.7363281 L52.5507812,49.2167969 L51.4023438,49.2167969 Z M59.8808594,46.2695312 L55.3457031,46.2695312 C55.3652345,46.960941 55.5546857,47.4951153 55.9140625,47.8720703 C56.2734393,48.2490253 56.7753874,48.4375 57.4199219,48.4375 C58.146488,48.4375 58.812497,48.2050804 59.4179688,47.7402344 L59.4179688,48.765625 C58.8476534,49.1679708 58.0918016,49.3691406 57.1503906,49.3691406 C56.2128859,49.3691406 55.4814479,49.0722686 54.9560547,48.4785156 C54.4306614,47.8847627 54.1679688,47.0605521 54.1679688,46.0058594 C54.1679688,45.0136669 54.4560518,44.1953157 55.0322266,43.5507812 C55.6084013,42.9062468 56.3242145,42.5839844 57.1796875,42.5839844 C58.027348,42.5839844 58.6894507,42.8564426 59.1660156,43.4013672 C59.6425805,43.9462918 59.8808594,44.7089795 59.8808594,45.6894531 L59.8808594,46.2695312 Z M58.7324219,45.3496094 C58.7285156,44.7636689 58.5898451,44.3105485 58.3164062,43.9902344 C58.0429674,43.6699203 57.6582056,43.5097656 57.1621094,43.5097656 C56.7050758,43.5097656 56.309572,43.6796858 55.9755859,44.0195312 C55.6415999,44.3593767 55.4316411,44.8027316 55.3457031,45.3496094 L58.7324219,45.3496094 Z M67.9550781,42.484375 L68.8164062,42.484375 L68.5234375,46.0351562 L68.5234375,46.0351562 C68.5234375,46.8750042 68.7636695,47.2949219 69.2441406,47.2949219 C69.6894554,47.2949219 70.0576157,47.0517602 70.3486328,46.5654297 C70.6396499,46.0790991 70.7851562,45.4453164 70.7851562,44.6640625 C70.7851562,43.5234318 70.4238317,42.5918005 69.7011719,41.8691406 C68.978512,41.1464808 67.978522,40.7851562 66.7011719,40.7851562 C65.4550719,40.7851562 64.4238322,41.2206988 63.6074219,42.0917969 C62.7910115,42.962895 62.3828125,44.0527278 62.3828125,45.3613281 C62.3828125,46.6425845 62.7656212,47.6738242 63.53125,48.4550781 C64.2968788,49.236332 65.3398371,49.6269531 66.6601562,49.6269531 C67.6835989,49.6269531 68.5703087,49.4531267 69.3203125,49.1054688 L69.3203125,49.9375 C68.5898401,50.2500016 67.6757867,50.40625 66.578125,50.40625 C65.0429611,50.40625 63.8037157,49.9443406 62.8603516,49.0205078 C61.9169875,48.0966751 61.4453125,46.8886793 61.4453125,45.3964844 C61.4453125,43.8535079 61.9404247,42.5712942 62.9306641,41.5498047 C63.9209034,40.5283152 65.1894454,40.0175781 66.7363281,40.0175781 C68.1816479,40.0175781 69.3740187,40.4423786 70.3134766,41.2919922 C71.2529344,42.1416058 71.7226562,43.2480401 71.7226562,44.6113281 C71.7226562,45.6269582 71.4707056,46.4560515 70.9667969,47.0986328 C70.4628881,47.7412142 69.8476599,48.0625 69.1210938,48.0625 C68.1953079,48.0625 67.7285157,47.5722705 67.7207031,46.5917969 L67.6914062,46.5917969 C67.3789047,47.5722705 66.7812544,48.0625 65.8984375,48.0625 C65.3242159,48.0625 64.8584002,47.8515646 64.5009766,47.4296875 C64.1435529,47.0078104 63.9648438,46.4335974 63.9648438,45.7070312 C63.9648438,44.7539015 64.210935,43.9628938 64.703125,43.3339844 C65.195315,42.705075 65.8300742,42.390625 66.6074219,42.390625 C66.9121109,42.390625 67.182616,42.4677727 67.4189453,42.6220703 C67.6552746,42.776368 67.8046872,42.9687488 67.8671875,43.1992188 L67.890625,43.1992188 L67.9550781,42.484375 L67.9550781,42.484375 Z M64.9199219,45.7128906 C64.9199219,46.1855492 65.0205068,46.5654283 65.2216797,46.8525391 C65.4228526,47.1396499 65.7089825,47.2832031 66.0800781,47.2832031 C66.5917994,47.2832031 66.9951157,47.0273463 67.2900391,46.515625 C67.5849624,46.0039037 67.7324219,45.3281292 67.7324219,44.4882812 C67.7324219,43.6054643 67.3613318,43.1640625 66.6191406,43.1640625 C66.1152319,43.1640625 65.7060563,43.4101538 65.3916016,43.9023438 C65.0771469,44.3945337 64.9199219,44.9980433 64.9199219,45.7128906 Z M79.0703125,49.2167969 L73.8671875,49.2167969 L73.8671875,48.2265625 L75.9003906,48.2265625 L75.9003906,41.3359375 L73.8144531,41.9394531 L73.8144531,40.8847656 L77.0429688,39.9472656 L77.0429688,48.2265625 L79.0703125,48.2265625 L79.0703125,49.2167969 Z M85.9375,49.2167969 L80.4179688,49.2167969 L80.4179688,48.2207031 L83.0546875,45.5898438 C83.7812536,44.8632776 84.2675769,44.2880881 84.5136719,43.8642578 C84.7597669,43.4404276 84.8828125,43.0019554 84.8828125,42.5488281 C84.8828125,42.0332005 84.7382827,41.6376967 84.4492188,41.3623047 C84.1601548,41.0869127 83.7421902,40.9492188 83.1953125,40.9492188 C82.3867147,40.9492188 81.615238,41.2929653 80.8808594,41.9804688 L80.8808594,40.8144531 C81.5957067,40.2636691 82.4277296,39.9882812 83.3769531,39.9882812 C84.1933635,39.9882812 84.8378883,40.2089822 85.3105469,40.6503906 C85.7832055,41.0917991 86.0195312,41.6855431 86.0195312,42.4316406 C86.0195312,42.9941434 85.8681656,43.5458957 85.5654297,44.0869141 C85.2626938,44.6279324 84.6894573,45.3164021 83.8457031,46.1523438 L81.7773438,48.1738281 L81.7773438,48.1972656 L85.9375,48.1972656 L85.9375,49.2167969 Z M87.671875,47.6992188 C88.2929719,48.1796899 88.9941367,48.4199219 89.7753906,48.4199219 C90.4003938,48.4199219 90.895506,48.2666031 91.2607422,47.9599609 C91.6259784,47.6533188 91.8085938,47.2421901 91.8085938,46.7265625 C91.8085938,45.5781193 90.9863363,45.0039062 89.3417969,45.0039062 L88.5859375,45.0039062 L88.5859375,44.0546875 L89.3066406,44.0546875 C90.7636792,44.0546875 91.4921875,43.5156304 91.4921875,42.4375 C91.4921875,41.4414013 90.9355524,40.9433594 89.8222656,40.9433594 C89.1855437,40.9433594 88.5859403,41.158201 88.0234375,41.5878906 L88.0234375,40.5039062 C88.6171905,40.1601545 89.3105429,39.9882812 90.1035156,39.9882812 C90.876957,39.9882812 91.4980445,40.1904277 91.9667969,40.5947266 C92.4355492,40.9990255 92.6699219,41.5234343 92.6699219,42.1679688 C92.6699219,43.3554747 92.0644592,44.1191389 90.8535156,44.4589844 L90.8535156,44.4824219 C91.5097689,44.5527347 92.0283184,44.7841777 92.4091797,45.1767578 C92.790041,45.5693379 92.9804688,46.0585908 92.9804688,46.6445312 C92.9804688,47.4609416 92.6865264,48.1191381 92.0986328,48.6191406 C91.5107392,49.1191431 90.7285205,49.3691406 89.7519531,49.3691406 C88.8925738,49.3691406 88.1992214,49.208986 87.671875,48.8886719 L87.671875,47.6992188 Z M94.5683594,48.6132812 C94.5683594,48.4023427 94.6406243,48.2246101 94.7851562,48.0800781 C94.9296882,47.9355462 95.1093739,47.8632812 95.3242188,47.8632812 C95.5429698,47.8632812 95.7246087,47.9365227 95.8691406,48.0830078 C96.0136726,48.2294929 96.0859375,48.406249 96.0859375,48.6132812 C96.0859375,48.8164073 96.0136726,48.9912102 95.8691406,49.1376953 C95.7246087,49.2841804 95.5410167,49.3574219 95.3183594,49.3574219 C95.1035146,49.3574219 94.9248054,49.2841804 94.7822266,49.1376953 C94.6396477,48.9912102 94.5683594,48.8164073 94.5683594,48.6132812 Z M102.261719,48.9238281 C101.765623,49.2207046 101.167972,49.3691406 100.46875,49.3691406 C99.5312453,49.3691406 98.7773466,49.0683624 98.2070312,48.4667969 C97.6367159,47.8652314 97.3515625,47.0859423 97.3515625,46.1289062 C97.3515625,45.0664009 97.6591766,44.2099642 98.2744141,43.5595703 C98.8896515,42.9091764 99.7128855,42.5839844 100.744141,42.5839844 C101.337894,42.5839844 101.845701,42.6894521 102.267578,42.9003906 L102.267578,44.0371094 C101.810545,43.7011702 101.302737,43.5332031 100.744141,43.5332031 C100.087887,43.5332031 99.553713,43.7607399 99.1416016,44.2158203 C98.7294901,44.6709007 98.5234375,45.27734 98.5234375,46.0351562 C98.5234375,46.7812537 98.7177715,47.3652323 99.1064453,47.7871094 C99.4951191,48.2089865 100.019528,48.4199219 100.679688,48.4199219 C101.238284,48.4199219 101.765623,48.23633 102.261719,47.8691406 L102.261719,48.9238281 Z M103.369141,46.046875 C103.369141,44.9765571 103.667966,44.131839 104.265625,43.5126953 C104.863284,42.8935516 105.673823,42.5839844 106.697266,42.5839844 C107.669927,42.5839844 108.432614,42.881833 108.985352,43.4775391 C109.538089,44.0732452 109.814453,44.8964791 109.814453,45.9472656 C109.814453,46.9707082 109.519534,47.7968719 108.929688,48.4257812 C108.339841,49.0546906 107.548833,49.3691406 106.556641,49.3691406 C105.587886,49.3691406 104.814456,49.0644562 104.236328,48.4550781 C103.6582,47.8457001 103.369141,47.0429737 103.369141,46.046875 Z M104.541016,46.0117188 C104.541016,46.7578162 104.72949,47.345701 105.106445,47.7753906 C105.4834,48.2050803 105.990231,48.4199219 106.626953,48.4199219 C107.283206,48.4199219 107.783201,48.209963 108.126953,47.7900391 C108.470705,47.3701151 108.642578,46.7675821 108.642578,45.9824219 C108.642578,45.1933554 108.470705,44.5878927 108.126953,44.1660156 C107.783201,43.7441385 107.283206,43.5332031 106.626953,43.5332031 C105.982419,43.5332031 105.473635,43.753904 105.100586,44.1953125 C104.727537,44.636721 104.541016,45.2421837 104.541016,46.0117188 Z M120.759766,49.2167969 L119.611328,49.2167969 L119.611328,45.4960938 C119.611328,44.7929652 119.501954,44.2900406 119.283203,43.9873047 C119.064452,43.6845688 118.705081,43.5332031 118.205078,43.5332031 C117.783201,43.5332031 117.421877,43.7304668 117.121094,44.125 C116.820311,44.5195332 116.669922,44.9863254 116.669922,45.5253906 L116.669922,49.2167969 L115.521484,49.2167969 L115.521484,45.3789062 C115.521484,44.1484313 115.04688,43.5332031 114.097656,43.5332031 C113.660154,43.5332031 113.297853,43.7207013 113.010742,44.0957031 C112.723631,44.470705 112.580078,44.9492158 112.580078,45.53125 L112.580078,49.2167969 L111.431641,49.2167969 L111.431641,42.7363281 L112.580078,42.7363281 L112.580078,43.7617188 L112.603516,43.7617188 C113.064455,42.9765586 113.738277,42.5839844 114.625,42.5839844 C115.058596,42.5839844 115.441405,42.7031238 115.773438,42.9414062 C116.10547,43.1796887 116.335937,43.5019511 116.464844,43.9082031 C116.945315,43.0253862 117.664058,42.5839844 118.621094,42.5839844 C120.046882,42.5839844 120.759766,43.4628818 120.759766,45.2207031 L120.759766,49.2167969 Z" id="wangjie@123.com" fill="#333333" fill-rule="nonzero"></path>
            <text id="样式二" font-family="MicrosoftYaHei, Microsoft YaHei" font-size="12" font-weight="normal" line-spacing="22" fill="#525A6E">
                <tspan x="8" y="19">样式二</tspan>
            </text>
        </g>
    </g>
</svg>