<?xml version="1.0" encoding="UTF-8"?>
<svg width="241px" height="68px" viewBox="0 0 241 68" version="1.1" xmlns="http://www.w3.org/2000/svg" xmlns:xlink="http://www.w3.org/1999/xlink">
    <!-- Generator: Sketch 58 (84663) - https://sketch.com -->
    <title>email-input/style1</title>
    <desc>Created with Sketch.</desc>
    <g id="页面-1" stroke="none" stroke-width="1" fill="none" fill-rule="evenodd">
        <g id="email-input/style1">
            <rect id="矩形备份" fill-opacity="0.01" fill="#FAFAFA" x="0" y="0" width="241" height="68"></rect>
            <rect id="矩形备份-4" stroke-opacity="0.15" stroke="#000000" fill="#FFFFFF" x="52.5" y="20.5" width="176" height="27" rx="2"></rect>
            <path d="M69.328125,30.7363281 L67.3945312,37.2167969 L66.1992188,37.2167969 L64.9101562,32.6699219 C64.8554685,32.4746084 64.8203126,32.2675792 64.8046875,32.0488281 L64.78125,32.0488281 C64.7724609,32.1718756 64.7449953,32.3168942 64.6988527,32.4838863 L63.2519531,37.2167969 L62.0917969,37.2167969 L60.1464844,30.7363281 L61.3417969,30.7363281 L62.6367188,35.5410156 C62.6757814,35.6855476 62.705078,35.8828113 62.7246094,36.1328125 L62.7714844,36.1328125 C62.7871095,35.9179677 62.8242185,35.7148447 62.8828125,35.5234375 L64.2773438,30.7363281 L65.3378906,30.7363281 L66.6972656,35.546875 C66.7363283,35.6875007 66.767578,35.8867175 66.7910156,36.1445312 L66.84375,36.1445312 C66.8496094,36.0156244 66.8708494,35.8713382 66.9074706,35.7116703 L68.2148438,30.7363281 L69.328125,30.7363281 Z M70.6523438,31.1875 C71.2968782,30.7851542 72.0410114,30.5839844 72.8847656,30.5839844 C74.4472734,30.5839844 75.2285156,31.4042887 75.2285156,33.0449219 L75.2285156,37.2167969 L74.0917969,37.2167969 L74.0917969,36.2148438 L74.0625,36.2148438 C73.613279,36.9843788 72.9511763,37.3691406 72.0761719,37.3691406 C71.4472625,37.3691406 70.9472675,37.1992204 70.5761719,36.859375 C70.2050763,36.5195296 70.0195312,36.0605498 70.0195312,35.4824219 C70.0195312,34.2714783 70.736321,33.5664072 72.1699219,33.3671875 L74.0917969,33.0976562 C74.0917969,32.0390572 73.6543013,31.5097656 72.7792969,31.5097656 C72.0019492,31.5097656 71.292972,31.7714818 70.6523438,32.2949219 L70.6523438,31.1875 Z M72.5742188,34.1699219 C72.0429661,34.2402347 71.6767588,34.3730459 71.4755859,34.5683594 C71.2744131,34.7636729 71.1738281,35.0371076 71.1738281,35.3886719 C71.1738281,35.6972672 71.283202,35.9492178 71.5019531,36.1445312 C71.7207042,36.3398447 72.0097638,36.4375 72.3691406,36.4375 C72.8691431,36.4375 73.2812484,36.2617205 73.6054688,35.9101562 C73.9296891,35.558592 74.0917969,35.1171902 74.0917969,34.5859375 L74.0917969,33.9648438 L72.5742188,34.1699219 Z M82.6113281,37.2167969 L81.46875,37.2167969 L81.46875,33.53125 C81.46875,32.1992121 80.9824267,31.5332031 80.0097656,31.5332031 C79.5058569,31.5332031 79.0917985,31.7207013 78.7675781,32.0957031 C78.4433578,32.470705 78.28125,32.9453096 78.28125,33.5195312 L78.28125,37.2167969 L77.1328125,37.2167969 L77.1328125,30.7363281 L78.28125,30.7363281 L78.28125,31.8085938 L78.3046875,31.8085938 C78.7929712,30.9921834 79.5019485,30.5839844 80.4316406,30.5839844 C81.1425817,30.5839844 81.6835919,30.8115212 82.0546875,31.2666016 C82.4257831,31.721682 82.6113281,32.3847613 82.6113281,33.2558594 L82.6113281,37.2167969 Z M90.1523438,36.671875 C90.1523438,39.0703245 88.9882929,40.2695312 86.6601562,40.2695312 C85.8554647,40.2695312 85.156253,40.1191421 84.5625,39.8183594 L84.5625,38.7109375 C85.2851599,39.1132833 85.9785123,39.3144531 86.6425781,39.3144531 C88.2168047,39.3144531 89.0039062,38.4863364 89.0039062,36.8300781 L89.0039062,36.1445312 L88.9804688,36.1445312 C88.4882788,36.9609416 87.7539111,37.3691406 86.7773438,37.3691406 C85.9648397,37.3691406 85.3144556,37.0781279 84.8261719,36.4960938 C84.3378882,35.9140596 84.09375,35.1425829 84.09375,34.1816406 C84.09375,33.0761663 84.3632786,32.2001985 84.9023438,31.5537109 C85.4414089,30.9072233 86.1601518,30.5839844 87.0585938,30.5839844 C87.9218793,30.5839844 88.5624979,30.9277309 88.9804688,31.6152344 L89.0039062,31.6152344 L89.0039062,30.7363281 L90.1523438,30.7363281 L90.1523438,36.671875 Z M89.0039062,33.3613281 C89.0078125,32.8613256 88.8398454,32.4316424 88.5,32.0722656 C88.1601546,31.7128888 87.74219,31.5332031 87.2460938,31.5332031 C86.6210906,31.5332031 86.1347674,31.762693 85.7871094,32.2216797 C85.4394514,32.6806664 85.265625,33.3105429 85.265625,34.1113281 C85.265625,34.7988316 85.4335921,35.3554666 85.7695312,35.78125 C86.1054704,36.2070334 86.5507785,36.4199219 87.1054688,36.4199219 C87.6640653,36.4199219 88.121092,36.2167989 88.4765625,35.8105469 C88.832033,35.4042948 89.0078125,34.888675 89.0039062,34.2636719 L89.0039062,33.3613281 Z M92.0683594,28.4511719 C92.0683594,28.2480459 92.1367181,28.0771491 92.2734375,27.9384766 C92.4101569,27.799804 92.5820302,27.7304688 92.7890625,27.7304688 C93.0000011,27.7304688 93.1757805,27.7988274 93.3164062,27.9355469 C93.457032,28.0722663 93.5273438,28.2441396 93.5273438,28.4511719 C93.5273438,28.6503916 93.4560554,28.8183587 93.3134766,28.9550781 C93.1708977,29.0917976 92.9960948,29.1601562 92.7890625,29.1601562 C92.5820302,29.1601562 92.4101569,29.090821 92.2734375,28.9521484 C92.1367181,28.8134759 92.0683594,28.6464854 92.0683594,28.4511719 Z M93.3515625,36.9648438 C93.3515625,38.0156303 93.1337912,38.8290987 92.6982422,39.4052734 C92.2626931,39.9814482 91.6445353,40.2695312 90.84375,40.2695312 C90.5468735,40.2695312 90.2558608,40.2011726 89.9707031,40.0644531 L89.9707031,39.0273438 C90.2753921,39.2148447 90.5644518,39.3085938 90.8378906,39.3085938 C91.7480514,39.3085938 92.203125,38.5839916 92.203125,37.1347656 L92.203125,30.7363281 L93.3515625,30.7363281 L93.3515625,36.9648438 Z M95.2675781,28.4511719 C95.2675781,28.2480459 95.3369134,28.0771491 95.4755859,27.9384766 C95.6142585,27.799804 95.7851552,27.7304688 95.9882812,27.7304688 C96.1953135,27.7304688 96.3701165,27.7988274 96.5126953,27.9355469 C96.6552742,28.0722663 96.7265625,28.2441396 96.7265625,28.4511719 C96.7265625,28.6542979 96.6552742,28.8232415 96.5126953,28.9580078 C96.3701165,29.0927741 96.1953135,29.1601562 95.9882812,29.1601562 C95.781249,29.1601562 95.6093757,29.0927741 95.4726562,28.9580078 C95.3359368,28.8232415 95.2675781,28.6542979 95.2675781,28.4511719 Z M95.4023438,37.2167969 L95.4023438,30.7363281 L96.5507812,30.7363281 L96.5507812,37.2167969 L95.4023438,37.2167969 Z M103.880859,34.2695312 L99.3457031,34.2695312 C99.3652345,34.960941 99.5546857,35.4951153 99.9140625,35.8720703 C100.273439,36.2490253 100.775387,36.4375 101.419922,36.4375 C102.146488,36.4375 102.812497,36.2050804 103.417969,35.7402344 L103.417969,36.765625 C102.847653,37.1679708 102.091802,37.3691406 101.150391,37.3691406 C100.212886,37.3691406 99.4814479,37.0722686 98.9560547,36.4785156 C98.4306614,35.8847627 98.1679688,35.0605521 98.1679688,34.0058594 C98.1679688,33.0136669 98.4560518,32.1953157 99.0322266,31.5507812 C99.6084013,30.9062468 100.324214,30.5839844 101.179688,30.5839844 C102.027348,30.5839844 102.689451,30.8564426 103.166016,31.4013672 C103.642581,31.9462918 103.880859,32.7089795 103.880859,33.6894531 L103.880859,34.2695312 Z M102.732422,33.3496094 C102.728516,32.7636689 102.589845,32.3105485 102.316406,31.9902344 C102.042967,31.6699203 101.658206,31.5097656 101.162109,31.5097656 C100.705076,31.5097656 100.309572,31.6796858 99.9755859,32.0195312 C99.6415999,32.3593767 99.4316411,32.8027316 99.3457031,33.3496094 L102.732422,33.3496094 Z M111.955078,30.484375 L112.816406,30.484375 L112.523438,34.0351562 L112.523438,34.0351562 C112.523438,34.8750042 112.763669,35.2949219 113.244141,35.2949219 C113.689455,35.2949219 114.057616,35.0517602 114.348633,34.5654297 C114.63965,34.0790991 114.785156,33.4453164 114.785156,32.6640625 C114.785156,31.5234318 114.423832,30.5918005 113.701172,29.8691406 C112.978512,29.1464808 111.978522,28.7851562 110.701172,28.7851562 C109.455072,28.7851562 108.423832,29.2206988 107.607422,30.0917969 C106.791012,30.962895 106.382812,32.0527278 106.382812,33.3613281 C106.382812,34.6425845 106.765621,35.6738242 107.53125,36.4550781 C108.296879,37.236332 109.339837,37.6269531 110.660156,37.6269531 C111.683599,37.6269531 112.570309,37.4531267 113.320312,37.1054688 L113.320312,37.9375 C112.58984,38.2500016 111.675787,38.40625 110.578125,38.40625 C109.042961,38.40625 107.803716,37.9443406 106.860352,37.0205078 C105.916987,36.0966751 105.445312,34.8886793 105.445312,33.3964844 C105.445312,31.8535079 105.940425,30.5712942 106.930664,29.5498047 C107.920903,28.5283152 109.189445,28.0175781 110.736328,28.0175781 C112.181648,28.0175781 113.374019,28.4423786 114.313477,29.2919922 C115.252934,30.1416058 115.722656,31.2480401 115.722656,32.6113281 C115.722656,33.6269582 115.470706,34.4560515 114.966797,35.0986328 C114.462888,35.7412142 113.84766,36.0625 113.121094,36.0625 C112.195308,36.0625 111.728516,35.5722705 111.720703,34.5917969 L111.691406,34.5917969 C111.378905,35.5722705 110.781254,36.0625 109.898438,36.0625 C109.324216,36.0625 108.8584,35.8515646 108.500977,35.4296875 C108.143553,35.0078104 107.964844,34.4335974 107.964844,33.7070312 C107.964844,32.7539015 108.210935,31.9628938 108.703125,31.3339844 C109.195315,30.705075 109.830074,30.390625 110.607422,30.390625 C110.912111,30.390625 111.182616,30.4677727 111.418945,30.6220703 C111.655275,30.776368 111.804687,30.9687488 111.867188,31.1992188 L111.890625,31.1992188 L111.955078,30.484375 L111.955078,30.484375 Z M108.919922,33.7128906 C108.919922,34.1855492 109.020507,34.5654283 109.22168,34.8525391 C109.422853,35.1396499 109.708983,35.2832031 110.080078,35.2832031 C110.591799,35.2832031 110.995116,35.0273463 111.290039,34.515625 C111.584962,34.0039037 111.732422,33.3281292 111.732422,32.4882812 C111.732422,31.6054643 111.361332,31.1640625 110.619141,31.1640625 C110.115232,31.1640625 109.706056,31.4101538 109.391602,31.9023438 C109.077147,32.3945337 108.919922,32.9980433 108.919922,33.7128906 Z M123.070312,37.2167969 L117.867188,37.2167969 L117.867188,36.2265625 L119.900391,36.2265625 L119.900391,29.3359375 L117.814453,29.9394531 L117.814453,28.8847656 L121.042969,27.9472656 L121.042969,36.2265625 L123.070312,36.2265625 L123.070312,37.2167969 Z M129.9375,37.2167969 L124.417969,37.2167969 L124.417969,36.2207031 L127.054688,33.5898438 C127.781254,32.8632776 128.267577,32.2880881 128.513672,31.8642578 C128.759767,31.4404276 128.882812,31.0019554 128.882812,30.5488281 C128.882812,30.0332005 128.738283,29.6376967 128.449219,29.3623047 C128.160155,29.0869127 127.74219,28.9492188 127.195312,28.9492188 C126.386715,28.9492188 125.615238,29.2929653 124.880859,29.9804688 L124.880859,28.8144531 C125.595707,28.2636691 126.42773,27.9882812 127.376953,27.9882812 C128.193363,27.9882812 128.837888,28.2089822 129.310547,28.6503906 C129.783205,29.0917991 130.019531,29.6855431 130.019531,30.4316406 C130.019531,30.9941434 129.868166,31.5458957 129.56543,32.0869141 C129.262694,32.6279324 128.689457,33.3164021 127.845703,34.1523438 L125.777344,36.1738281 L125.777344,36.1972656 L129.9375,36.1972656 L129.9375,37.2167969 Z M131.671875,35.6992188 C132.292972,36.1796899 132.994137,36.4199219 133.775391,36.4199219 C134.400394,36.4199219 134.895506,36.2666031 135.260742,35.9599609 C135.625978,35.6533188 135.808594,35.2421901 135.808594,34.7265625 C135.808594,33.5781193 134.986336,33.0039062 133.341797,33.0039062 L132.585938,33.0039062 L132.585938,32.0546875 L133.306641,32.0546875 C134.763679,32.0546875 135.492188,31.5156304 135.492188,30.4375 C135.492188,29.4414013 134.935552,28.9433594 133.822266,28.9433594 C133.185544,28.9433594 132.58594,29.158201 132.023438,29.5878906 L132.023438,28.5039062 C132.61719,28.1601545 133.310543,27.9882812 134.103516,27.9882812 C134.876957,27.9882812 135.498045,28.1904277 135.966797,28.5947266 C136.435549,28.9990255 136.669922,29.5234343 136.669922,30.1679688 C136.669922,31.3554747 136.064459,32.1191389 134.853516,32.4589844 L134.853516,32.4824219 C135.509769,32.5527347 136.028318,32.7841777 136.40918,33.1767578 C136.790041,33.5693379 136.980469,34.0585908 136.980469,34.6445312 C136.980469,35.4609416 136.686526,36.1191381 136.098633,36.6191406 C135.510739,37.1191431 134.728521,37.3691406 133.751953,37.3691406 C132.892574,37.3691406 132.199221,37.208986 131.671875,36.8886719 L131.671875,35.6992188 Z M138.568359,36.6132812 C138.568359,36.4023427 138.640624,36.2246101 138.785156,36.0800781 C138.929688,35.9355462 139.109374,35.8632812 139.324219,35.8632812 C139.54297,35.8632812 139.724609,35.9365227 139.869141,36.0830078 C140.013673,36.2294929 140.085938,36.406249 140.085938,36.6132812 C140.085938,36.8164073 140.013673,36.9912102 139.869141,37.1376953 C139.724609,37.2841804 139.541017,37.3574219 139.318359,37.3574219 C139.103515,37.3574219 138.924805,37.2841804 138.782227,37.1376953 C138.639648,36.9912102 138.568359,36.8164073 138.568359,36.6132812 Z M146.261719,36.9238281 C145.765623,37.2207046 145.167972,37.3691406 144.46875,37.3691406 C143.531245,37.3691406 142.777347,37.0683624 142.207031,36.4667969 C141.636716,35.8652314 141.351562,35.0859423 141.351562,34.1289062 C141.351562,33.0664009 141.659177,32.2099642 142.274414,31.5595703 C142.889652,30.9091764 143.712885,30.5839844 144.744141,30.5839844 C145.337894,30.5839844 145.845701,30.6894521 146.267578,30.9003906 L146.267578,32.0371094 C145.810545,31.7011702 145.302737,31.5332031 144.744141,31.5332031 C144.087887,31.5332031 143.553713,31.7607399 143.141602,32.2158203 C142.72949,32.6709007 142.523438,33.27734 142.523438,34.0351562 C142.523438,34.7812537 142.717771,35.3652323 143.106445,35.7871094 C143.495119,36.2089865 144.019528,36.4199219 144.679688,36.4199219 C145.238284,36.4199219 145.765623,36.23633 146.261719,35.8691406 L146.261719,36.9238281 Z M147.369141,34.046875 C147.369141,32.9765571 147.667966,32.131839 148.265625,31.5126953 C148.863284,30.8935516 149.673823,30.5839844 150.697266,30.5839844 C151.669927,30.5839844 152.432614,30.881833 152.985352,31.4775391 C153.538089,32.0732452 153.814453,32.8964791 153.814453,33.9472656 C153.814453,34.9707082 153.519534,35.7968719 152.929688,36.4257812 C152.339841,37.0546906 151.548833,37.3691406 150.556641,37.3691406 C149.587886,37.3691406 148.814456,37.0644562 148.236328,36.4550781 C147.6582,35.8457001 147.369141,35.0429737 147.369141,34.046875 Z M148.541016,34.0117188 C148.541016,34.7578162 148.72949,35.345701 149.106445,35.7753906 C149.4834,36.2050803 149.990231,36.4199219 150.626953,36.4199219 C151.283206,36.4199219 151.783201,36.209963 152.126953,35.7900391 C152.470705,35.3701151 152.642578,34.7675821 152.642578,33.9824219 C152.642578,33.1933554 152.470705,32.5878927 152.126953,32.1660156 C151.783201,31.7441385 151.283206,31.5332031 150.626953,31.5332031 C149.982419,31.5332031 149.473635,31.753904 149.100586,32.1953125 C148.727537,32.636721 148.541016,33.2421837 148.541016,34.0117188 Z M164.759766,37.2167969 L163.611328,37.2167969 L163.611328,33.4960938 C163.611328,32.7929652 163.501954,32.2900406 163.283203,31.9873047 C163.064452,31.6845688 162.705081,31.5332031 162.205078,31.5332031 C161.783201,31.5332031 161.421877,31.7304668 161.121094,32.125 C160.820311,32.5195332 160.669922,32.9863254 160.669922,33.5253906 L160.669922,37.2167969 L159.521484,37.2167969 L159.521484,33.3789062 C159.521484,32.1484313 159.04688,31.5332031 158.097656,31.5332031 C157.660154,31.5332031 157.297853,31.7207013 157.010742,32.0957031 C156.723631,32.470705 156.580078,32.9492158 156.580078,33.53125 L156.580078,37.2167969 L155.431641,37.2167969 L155.431641,30.7363281 L156.580078,30.7363281 L156.580078,31.7617188 L156.603516,31.7617188 C157.064455,30.9765586 157.738277,30.5839844 158.625,30.5839844 C159.058596,30.5839844 159.441405,30.7031238 159.773438,30.9414062 C160.10547,31.1796887 160.335937,31.5019511 160.464844,31.9082031 C160.945315,31.0253862 161.664058,30.5839844 162.621094,30.5839844 C164.046882,30.5839844 164.759766,31.4628818 164.759766,33.2207031 L164.759766,37.2167969 Z" id="wangjie@123.com" fill="#333333" fill-rule="nonzero"></path>
            <text id="样式一" font-family="MicrosoftYaHei, Microsoft YaHei" font-size="12" font-weight="normal" line-spacing="22" fill="#525A6E">
                <tspan x="8" y="35">样式一</tspan>
            </text>
        </g>
    </g>
</svg>