<?xml version="1.0" encoding="UTF-8"?>
<svg width="494px" height="218px" viewBox="0 0 494 218" version="1.1" xmlns="http://www.w3.org/2000/svg" xmlns:xlink="http://www.w3.org/1999/xlink">
    <!-- Generator: Sketch 58 (84663) - https://sketch.com -->
    <title>list-double/style2</title>
    <desc>Created with Sketch.</desc>
    <g id="页面-1" stroke="none" stroke-width="1" fill="none" fill-rule="evenodd">
        <g id="list-double/style2">
            <g id="编组-20">
                <rect id="矩形备份" fill-opacity="0.01" fill="#FFFFFF" x="0" y="0" width="494" height="218"></rect>
                <g id="编组-2" transform="translate(64.000000, 18.000000)">
                    <text id="标题文案" font-family="MicrosoftYaHei, Microsoft YaHei" font-size="14" font-weight="normal" line-spacing="22" fill="#333333">
                        <tspan x="0" y="15">标题文案</tspan>
                    </text>
                    <path d="M2.1796875,49.3378906 L2.75390625,48.6816406 C3.34765922,49.1699243 3.88866943,49.6484352 4.37695312,50.1171875 C4.90039324,49.210933 5.26953018,48.2285209 5.484375,47.1699219 L2.84765625,47.1699219 C2.23437193,48.5761789 1.48047322,49.8417912 0.5859375,50.9667969 C0.414061641,50.5683574 0.257813203,50.2558605 0.1171875,50.0292969 C1.2968809,48.4433514 2.20507494,46.5879013 2.84179688,44.4628906 L0.50390625,44.4628906 L0.50390625,43.6191406 L7.078125,43.6191406 L7.078125,44.4628906 L3.80859375,44.4628906 C3.62499908,45.1074251 3.41992301,45.7285126 3.19335938,46.3261719 L6.4453125,46.3261719 L6.4453125,47.1816406 C5.8046843,50.3847816 4.12110738,52.8574132 1.39453125,54.5996094 C1.19140523,54.3652332 0.949220156,54.1269543 0.66796875,53.8847656 C2.00391293,53.0214801 3.07421473,52.0234432 3.87890625,50.890625 C3.43359152,50.4531228 2.86719094,49.9355499 2.1796875,49.3378906 Z M10.1601562,43.1972656 L11.0976562,43.1972656 L11.0976562,52.8769531 C11.0976562,53.8691456 10.648442,54.3691406 9.75,54.3769531 L9.43286999,54.3804254 C9.02710278,54.3824508 8.49609703,54.3773872 7.83984375,54.3652344 C7.80078105,54.0058576 7.73828168,53.6542986 7.65234375,53.3105469 L8.38672011,53.3691408 C8.82942802,53.4003908 9.17838414,53.4160156 9.43359375,53.4160156 C9.91797117,53.4160156 10.1601562,53.1542995 10.1601562,52.6308594 L10.1601562,43.1972656 Z M8.47265625,51.6699219 L7.5703125,51.6699219 L7.5703125,44.4980469 L8.47265625,44.4980469 L8.47265625,51.6699219 Z M22.3476562,49.4550781 L22.9921875,50.2636719 L20.3730469,51.5761719 C21.2910202,52.3261756 22.4413993,52.8222644 23.8242188,53.0644531 C23.5585924,53.4082048 23.3398446,53.7207017 23.1679688,54.0019531 C20.6484249,53.4003876 18.8418023,51.851575 17.7480469,49.3554688 C17.3496074,49.8632838 16.8945338,50.3457008 16.3828125,50.8027344 L16.3828125,53.3105469 C17.4140677,52.9746077 18.3710893,52.6230487 19.2539062,52.2558594 C19.2460937,52.5996111 19.2499999,52.9394531 19.265625,53.2753906 C18.3281203,53.5957047 17.35938,53.9472637 16.359375,54.3300781 C16.1484364,54.4160161 15.9414073,54.5175775 15.7382812,54.6347656 L15.1875,53.7792969 C15.4062511,53.6230461 15.515625,53.4042983 15.515625,53.1230469 L15.515625,51.5117188 C14.7070272,52.1171905 13.7890676,52.6660132 12.7617188,53.1582031 C12.5898429,52.8847643 12.3906261,52.6152357 12.1640625,52.3496094 C14.1836038,51.5214802 15.7695255,50.4121163 16.921875,49.0214844 L12.2929688,49.0214844 L12.2929688,48.2128906 L17.5429688,48.2128906 L17.5429688,47.0175781 L13.125,47.0175781 L13.125,46.2089844 L17.5429688,46.2089844 L17.5429688,45.0605469 L12.65625,45.0605469 L12.65625,44.2519531 L17.5429688,44.2519531 L17.5429688,42.9394531 L18.46875,42.9394531 L18.46875,44.2519531 L23.3789062,44.2519531 L23.3789062,45.0605469 L18.46875,45.0605469 L18.46875,46.2089844 L22.875,46.2089844 L22.875,47.0175781 L18.46875,47.0175781 L18.46875,48.2128906 L23.7070312,48.2128906 L23.7070312,49.0214844 L18.4980469,49.0214844 C18.8261735,49.7832069 19.2480443,50.4433566 19.7636719,51.0019531 C20.5488321,50.6113262 21.4101516,50.0957063 22.3476562,49.4550781 Z M24.3632812,45.0488281 L29.9882812,45.0488281 L29.6223952,44.3665352 C29.3975691,43.9568133 29.2109382,43.6373709 29.0625,43.4082031 L29.9648438,42.9863281 L30.2200521,43.392578 C30.414496,43.7102855 30.6575506,44.1217423 30.9492188,44.6269531 L30.1054688,45.0488281 L35.6132812,45.0488281 L35.6132812,45.9160156 L33.4511719,45.9160156 C33.033201,48.1464955 32.1347725,49.9394463 30.7558594,51.2949219 C31.7949271,52.0527382 33.4453012,52.7324189 35.7070312,53.3339844 C35.3476545,53.7402364 35.0742197,54.0800768 34.8867188,54.3535156 C32.6835827,53.5917931 31.0566459,52.794926 30.0058594,51.9628906 C28.9511666,52.7832072 27.2656366,53.6113239 24.9492188,54.4472656 L24.6210942,54.013672 C24.5039069,53.8613286 24.3789069,53.7011727 24.2460938,53.5332031 C26.4804799,52.8613248 28.1621037,52.1132854 29.2910156,51.2890625 C27.8652272,49.7656174 26.9589863,47.9746197 26.5722656,45.9160156 L24.3632812,45.9160156 L24.3632812,45.0488281 Z M32.4492188,45.9160156 L27.5097656,45.9160156 C27.8613299,47.8379002 28.7011652,49.425775 30.0292969,50.6796875 C31.2988345,49.4999941 32.105467,47.9121194 32.4492188,45.9160156 Z M36.7851562,49.5839844 L37.6246099,49.4824678 C39.1094497,49.2920322 40.2964198,49.0778257 41.1855469,48.8398438 C40.2480422,48.5898425 39.300786,48.3457043 38.34375,48.1074219 C38.6640641,47.7636702 38.96875,47.4238298 39.2578125,47.0878906 L36.46875,47.0878906 L36.46875,46.3144531 L39.890625,46.3144531 C40.1875015,45.9394512 40.4609363,45.5683612 40.7109375,45.2011719 L41.6601562,45.4707031 C41.4492177,45.7519545 41.2246106,46.0332017 40.9863281,46.3144531 L47.53125,46.3144531 L47.53125,47.0878906 L45.0117188,47.0878906 C44.6406231,47.7480502 44.138675,48.2832011 43.5058594,48.6933594 L44.8136729,49.0392971 C45.4511715,49.209453 46.0640596,49.3753898 46.6523438,49.5371094 L46.2773438,50.3222656 C45.0390563,49.9316387 43.7793033,49.5585955 42.4980469,49.203125 C41.3105409,49.6718773 39.5195432,50.0566391 37.125,50.3574219 C37.0312495,50.1074206 36.9179694,49.8496107 36.7851562,49.5839844 Z M47.8476562,53.3691406 C47.5820299,53.6816422 47.3554697,53.974608 47.1679688,54.2480469 C45.1054584,53.6308563 43.523443,52.8750045 42.421875,51.9804688 L42.421875,54.6230469 L41.578125,54.6230469 L41.578125,51.9980469 C40.3945253,52.8339886 38.8203223,53.5878873 36.8554688,54.2597656 C36.6757812,54.033202 36.4492201,53.7675796 36.1757812,53.4628906 C38.1914163,52.9589819 39.7871035,52.3378943 40.9628906,51.5996094 L36.4453125,51.5996094 L36.4453125,50.8144531 L41.578125,50.8144531 L41.578125,49.8535156 L42.421875,49.8535156 L42.421875,50.8144531 L47.625,50.8144531 L47.625,51.5996094 L43.0605469,51.5996094 C44.294928,52.4316448 45.8906152,53.0214826 47.8476562,53.3691406 Z M36.7851562,44.1230469 L41.6953125,44.1230469 C41.5468743,43.8535143 41.375001,43.5761733 41.1796875,43.2910156 L42.0117188,42.9160156 C42.2656263,43.3144551 42.5058582,43.7167948 42.7324219,44.1230469 L47.203125,44.1230469 L47.203125,45.8925781 L46.3125,45.8925781 L46.3125,44.8964844 L37.6757812,44.8964844 L37.6757812,45.8925781 L36.7851562,45.8925781 L36.7851562,44.1230469 Z M39.6796875,47.7324219 L41.7582996,48.2498776 C41.9819323,48.3062741 42.2031239,48.3623044 42.421875,48.4179688 C43.1093784,48.1132797 43.6464824,47.6699248 44.0332031,47.0878906 L40.3007812,47.0878906 C40.1015615,47.3027354 39.8945323,47.5175771 39.6796875,47.7324219 Z M50.1796875,49.3378906 L50.7539062,48.6816406 C51.3476592,49.1699243 51.8886694,49.6484352 52.3769531,50.1171875 C52.9003932,49.210933 53.2695302,48.2285209 53.484375,47.1699219 L50.8476562,47.1699219 C50.2343719,48.5761789 49.4804732,49.8417912 48.5859375,50.9667969 C48.4140616,50.5683574 48.2578132,50.2558605 48.1171875,50.0292969 C49.2968809,48.4433514 50.2050749,46.5879013 50.8417969,44.4628906 L48.5039062,44.4628906 L48.5039062,43.6191406 L55.078125,43.6191406 L55.078125,44.4628906 L51.8085938,44.4628906 C51.6249991,45.1074251 51.419923,45.7285126 51.1933594,46.3261719 L54.4453125,46.3261719 L54.4453125,47.1816406 C53.8046843,50.3847816 52.1211074,52.8574132 49.3945312,54.5996094 C49.1914052,54.3652332 48.9492202,54.1269543 48.6679688,53.8847656 C50.0039129,53.0214801 51.0742147,52.0234432 51.8789062,50.890625 C51.4335915,50.4531228 50.8671909,49.9355499 50.1796875,49.3378906 Z M58.1601562,43.1972656 L59.0976562,43.1972656 L59.0976562,52.8769531 C59.0976562,53.8691456 58.648442,54.3691406 57.75,54.3769531 L57.43287,54.3804254 C57.0271028,54.3824508 56.496097,54.3773872 55.8398438,54.3652344 C55.8007811,54.0058576 55.7382817,53.6542986 55.6523438,53.3105469 L56.3867201,53.3691408 C56.829428,53.4003908 57.1783841,53.4160156 57.4335938,53.4160156 C57.9179712,53.4160156 58.1601562,53.1542995 58.1601562,52.6308594 L58.1601562,43.1972656 Z M56.4726562,51.6699219 L55.5703125,51.6699219 L55.5703125,44.4980469 L56.4726562,44.4980469 L56.4726562,51.6699219 Z M70.3476562,49.4550781 L70.9921875,50.2636719 L68.3730469,51.5761719 C69.2910202,52.3261756 70.4413993,52.8222644 71.8242188,53.0644531 C71.5585924,53.4082048 71.3398446,53.7207017 71.1679688,54.0019531 C68.6484249,53.4003876 66.8418023,51.851575 65.7480469,49.3554688 C65.3496074,49.8632838 64.8945338,50.3457008 64.3828125,50.8027344 L64.3828125,53.3105469 C65.4140677,52.9746077 66.3710893,52.6230487 67.2539062,52.2558594 C67.2460937,52.5996111 67.2499999,52.9394531 67.265625,53.2753906 C66.3281203,53.5957047 65.35938,53.9472637 64.359375,54.3300781 C64.1484364,54.4160161 63.9414073,54.5175775 63.7382812,54.6347656 L63.1875,53.7792969 C63.4062511,53.6230461 63.515625,53.4042983 63.515625,53.1230469 L63.515625,51.5117188 C62.7070272,52.1171905 61.7890676,52.6660132 60.7617188,53.1582031 C60.5898429,52.8847643 60.3906261,52.6152357 60.1640625,52.3496094 C62.1836038,51.5214802 63.7695255,50.4121163 64.921875,49.0214844 L60.2929688,49.0214844 L60.2929688,48.2128906 L65.5429688,48.2128906 L65.5429688,47.0175781 L61.125,47.0175781 L61.125,46.2089844 L65.5429688,46.2089844 L65.5429688,45.0605469 L60.65625,45.0605469 L60.65625,44.2519531 L65.5429688,44.2519531 L65.5429688,42.9394531 L66.46875,42.9394531 L66.46875,44.2519531 L71.3789062,44.2519531 L71.3789062,45.0605469 L66.46875,45.0605469 L66.46875,46.2089844 L70.875,46.2089844 L70.875,47.0175781 L66.46875,47.0175781 L66.46875,48.2128906 L71.7070312,48.2128906 L71.7070312,49.0214844 L66.4980469,49.0214844 C66.8261735,49.7832069 67.2480443,50.4433566 67.7636719,51.0019531 C68.5488321,50.6113262 69.4101516,50.0957063 70.3476562,49.4550781 Z M72.3632812,45.0488281 L77.9882812,45.0488281 L77.6223952,44.3665352 C77.3975691,43.9568133 77.2109382,43.6373709 77.0625,43.4082031 L77.9648438,42.9863281 L78.2200521,43.392578 C78.414496,43.7102855 78.6575506,44.1217423 78.9492188,44.6269531 L78.1054688,45.0488281 L83.6132812,45.0488281 L83.6132812,45.9160156 L81.4511719,45.9160156 C81.033201,48.1464955 80.1347725,49.9394463 78.7558594,51.2949219 C79.7949271,52.0527382 81.4453012,52.7324189 83.7070312,53.3339844 C83.3476545,53.7402364 83.0742197,54.0800768 82.8867188,54.3535156 C80.6835827,53.5917931 79.0566459,52.794926 78.0058594,51.9628906 C76.9511666,52.7832072 75.2656366,53.6113239 72.9492188,54.4472656 L72.6210942,54.013672 C72.5039069,53.8613286 72.3789069,53.7011727 72.2460938,53.5332031 C74.4804799,52.8613248 76.1621037,52.1132854 77.2910156,51.2890625 C75.8652272,49.7656174 74.9589863,47.9746197 74.5722656,45.9160156 L72.3632812,45.9160156 L72.3632812,45.0488281 Z M80.4492188,45.9160156 L75.5097656,45.9160156 C75.8613299,47.8379002 76.7011652,49.425775 78.0292969,50.6796875 C79.2988345,49.4999941 80.105467,47.9121194 80.4492188,45.9160156 Z M95.8476562,53.3691406 C95.5820299,53.6816422 95.3554697,53.974608 95.1679688,54.2480469 C93.1054584,53.6308563 91.523443,52.8750045 90.421875,51.9804688 L90.421875,54.6230469 L89.578125,54.6230469 L89.578125,51.9980469 C88.3945253,52.8339886 86.8203223,53.5878873 84.8554688,54.2597656 C84.6757812,54.033202 84.4492201,53.7675796 84.1757812,53.4628906 C86.1914163,52.9589819 87.7871035,52.3378943 88.9628906,51.5996094 L84.4453125,51.5996094 L84.4453125,50.8144531 L89.578125,50.8144531 L89.578125,49.8535156 L90.421875,49.8535156 L90.421875,50.8144531 L95.625,50.8144531 L95.625,51.5996094 L91.0605469,51.5996094 C92.294928,52.4316448 93.8906152,53.0214826 95.8476562,53.3691406 Z M84.7851562,44.1230469 L89.6953125,44.1230469 C89.5468743,43.8535143 89.375001,43.5761733 89.1796875,43.2910156 L90.0117188,42.9160156 C90.2656263,43.3144551 90.5058582,43.7167948 90.7324219,44.1230469 L95.203125,44.1230469 L95.203125,45.8925781 L94.3125,45.8925781 L94.3125,44.8964844 L85.6757812,44.8964844 L85.6757812,45.8925781 L84.7851562,45.8925781 L84.7851562,44.1230469 Z" id="列表文案列表文案" fill="#5A6677" fill-rule="nonzero"></path>
                    <path d="M88.7109375,45.2011719 L89.6601562,45.4707031 C89.4492177,45.7519545 89.2246106,46.0332017 88.9863281,46.3144531 L95.53125,46.3144531 L95.53125,47.0878906 L93.0117188,47.0878906 C92.6406231,47.7480502 92.138675,48.2832011 91.5058594,48.6933594 L92.8136729,49.0392971 C93.4511715,49.209453 94.0640596,49.3753898 94.6523438,49.5371094 L94.2773438,50.3222656 C93.0390563,49.9316387 91.7793033,49.5585955 90.4980469,49.203125 C89.3105409,49.6718773 87.5195432,50.0566391 85.125,50.3574219 C85.0312495,50.1074206 84.9179694,49.8496107 84.7851562,49.5839844 L85.6246099,49.4824678 C87.1094497,49.2920322 88.2964198,49.0778257 89.1855469,48.8398438 C88.2480422,48.5898425 87.300786,48.3457043 86.34375,48.1074219 C86.6640641,47.7636702 86.96875,47.4238298 87.2578125,47.0878906 L84.46875,47.0878906 L84.46875,46.3144531 L87.890625,46.3144531 C88.1875015,45.9394512 88.4609363,45.5683612 88.7109375,45.2011719 Z M92.0332031,47.0878906 L88.3007812,47.0878906 C88.1015615,47.3027354 87.8945323,47.5175771 87.6796875,47.7324219 C88.1562524,47.84961 88.6230482,47.9653323 89.0800783,48.0795899 L89.0800783,48.0795899 L90.421875,48.4179688 C91.1093784,48.1132797 91.6464824,47.6699248 92.0332031,47.0878906 L92.0332031,47.0878906 Z" id="形状结合" fill="#5A6677" fill-rule="nonzero"></path>
                    <path d="M4.21875,71.2988281 L11.2148438,71.2988281 L11.2148438,78.5175781 L10.3242188,78.5175781 L10.3242188,77.7910156 L5.109375,77.7910156 L5.109375,78.5175781 L4.21875,78.5175781 L4.21875,71.2988281 Z M0.1640625,73.2441406 C0.632814844,73.1035149 1.13280984,72.9414072 1.6640625,72.7578125 L1.6640625,70.0683594 L0.26953125,70.0683594 L0.26953125,69.2714844 L1.6640625,69.2714844 L1.6640625,67.0917969 L2.5546875,67.0917969 L2.5546875,69.2714844 L3.75,69.2714844 L3.75,70.0683594 L2.5546875,70.0683594 L2.5546875,72.4472656 L3.30468704,72.1712241 C3.432291,72.1234812 3.56119727,72.07487 3.69140625,72.0253906 L3.71484375,72.9511719 L3.71484375,72.9511719 L2.5546875,73.3789062 L2.5546875,73.3789062 L2.5546875,77.2167969 C2.5546875,78.0136759 2.17578504,78.4199218 1.41796875,78.4355469 L1.0392188,78.4411719 C0.829219331,78.4421094 0.588282609,78.4402344 0.31640625,78.4355469 C0.269531016,78.1074202 0.218750273,77.7832047 0.1640625,77.4628906 C0.593752148,77.5097659 0.941404922,77.5332031 1.20703125,77.5332031 C1.51172027,77.5332031 1.6640625,77.3730485 1.6640625,77.0527344 L1.6640625,73.7070312 L0.29296875,74.2285156 L0.29296875,74.2285156 L0.1640625,73.2441406 Z M8.8125,67.0800781 L9.66796875,67.0800781 L9.66796875,68.5566406 L11.8125,68.5566406 L11.8125,69.3769531 L9.66796875,69.3769531 L9.66796875,70.8183594 L8.8125,70.8183594 L8.8125,69.3769531 L6.609375,69.3769531 L6.609375,70.8183594 L5.75390625,70.8183594 L5.75390625,69.3769531 L3.890625,69.3769531 L3.890625,68.5566406 L5.75390625,68.5566406 L5.75390625,67.0917969 L6.609375,67.0917969 L6.609375,68.5566406 L8.8125,68.5566406 L8.8125,67.0800781 Z M8.14453125,77.0175781 L10.3242188,77.0175781 L10.3242188,74.9199219 L8.14453125,74.9199219 L8.14453125,77.0175781 Z M5.109375,77.0175781 L7.27734375,77.0175781 L7.27734375,74.9199219 L5.109375,74.9199219 L5.109375,77.0175781 Z M10.3242188,72.0957031 L8.14453125,72.0957031 L8.14453125,74.1699219 L10.3242188,74.1699219 L10.3242188,72.0957031 Z M5.109375,74.1699219 L7.27734375,74.1699219 L7.27734375,72.0957031 L5.109375,72.0957031 L5.109375,74.1699219 Z M15.6679688,69.6230469 L18.9140625,69.6230469 L18.9140625,67.0800781 L19.828125,67.0800781 L19.828125,69.6230469 L23.34375,69.6230469 L23.34375,70.4667969 L19.828125,70.4667969 L19.828125,72.0019531 L20.2265625,71.5449219 C21.4140684,72.4980516 22.5859317,73.4941354 23.7421875,74.5332031 L23.0625,75.2949219 C22.1015577,74.3339796 21.0234435,73.341802 19.828125,72.3183594 L19.828125,76.9238281 L18.9140625,76.9238281 L18.9140625,71.6269531 C18.0390581,73.1425857 16.9882874,74.4941347 15.7617188,75.6816406 C15.5429677,75.4628895 15.2929702,75.2402355 15.0117188,75.0136719 C16.4882886,73.6699152 17.7031202,72.1543053 18.65625,70.4667969 L15.6679688,70.4667969 L15.6679688,69.6230469 Z M17.0742188,77.4511719 L18.1664082,77.468047 C19.7101572,77.4817971 21.603895,77.4605472 23.8476562,77.4042969 L23.4609375,78.3066406 L23.4609375,78.3066406 L21.84823,78.3258332 C19.9501503,78.3420562 18.3197613,78.3317524 16.9570312,78.2949219 C15.605462,78.2714843 14.6328155,77.8261762 14.0390625,76.9589844 C13.8124989,77.1386728 13.3554722,77.6386678 12.6679688,78.4589844 L12.1640625,77.4628906 L12.8557085,76.8516018 C13.1401467,76.6028778 13.3939721,76.3847666 13.6171875,76.1972656 L13.6171875,72.0957031 L12.28125,72.0957031 L12.28125,71.2402344 L14.53125,71.2402344 L14.53125,76.3613281 C15.1015654,77.0488316 15.9492131,77.4121092 17.0742188,77.4511719 Z M13.3710938,67.1738281 C13.8945339,67.7832062 14.4765593,68.5175738 15.1171875,69.3769531 L14.3085938,69.9863281 C13.7851536,69.1816366 13.2304717,68.4199255 12.6445312,67.7011719 L13.3710938,67.1738281 Z M20.6015625,67.8769531 L21.140625,67.2207031 L21.8114078,67.6689463 C22.2806263,67.988868 22.6273426,68.2417959 22.8515625,68.4277344 L22.2539062,69.1777344 C21.8164041,68.7871074 21.2656283,68.353518 20.6015625,67.8769531 Z M24.3632812,69.0488281 L29.9882812,69.0488281 L29.6223952,68.3665352 C29.3975691,67.9568133 29.2109382,67.6373709 29.0625,67.4082031 L29.9648438,66.9863281 L30.2200521,67.392578 C30.414496,67.7102855 30.6575506,68.1217423 30.9492188,68.6269531 L30.1054688,69.0488281 L35.6132812,69.0488281 L35.6132812,69.9160156 L33.4511719,69.9160156 C33.033201,72.1464955 32.1347725,73.9394463 30.7558594,75.2949219 C31.7949271,76.0527382 33.4453012,76.7324189 35.7070312,77.3339844 C35.3476545,77.7402364 35.0742197,78.0800768 34.8867188,78.3535156 C32.6835827,77.5917931 31.0566459,76.794926 30.0058594,75.9628906 C28.9511666,76.7832072 27.2656366,77.6113239 24.9492188,78.4472656 L24.6210942,78.013672 C24.5039069,77.8613286 24.3789069,77.7011727 24.2460938,77.5332031 C26.4804799,76.8613248 28.1621037,76.1132854 29.2910156,75.2890625 C27.8652272,73.7656174 26.9589863,71.9746197 26.5722656,69.9160156 L24.3632812,69.9160156 L24.3632812,69.0488281 Z M32.4492188,69.9160156 L27.5097656,69.9160156 C27.8613299,71.8379002 28.7011652,73.425775 30.0292969,74.6796875 C31.2988345,73.4999941 32.105467,71.9121194 32.4492188,69.9160156 Z M36.7851562,73.5839844 L37.6246099,73.4824678 C39.1094497,73.2920322 40.2964198,73.0778257 41.1855469,72.8398438 C40.2480422,72.5898425 39.300786,72.3457043 38.34375,72.1074219 C38.6640641,71.7636702 38.96875,71.4238298 39.2578125,71.0878906 L36.46875,71.0878906 L36.46875,70.3144531 L39.890625,70.3144531 C40.1875015,69.9394513 40.4609363,69.5683612 40.7109375,69.2011719 L41.6601562,69.4707031 C41.4492177,69.7519545 41.2246106,70.0332017 40.9863281,70.3144531 L47.53125,70.3144531 L47.53125,71.0878906 L45.0117188,71.0878906 C44.6406231,71.7480502 44.138675,72.2832011 43.5058594,72.6933594 L44.8136729,73.0392971 C45.4511715,73.209453 46.0640596,73.3753898 46.6523438,73.5371094 L46.2773438,74.3222656 C45.0390563,73.9316387 43.7793033,73.5585955 42.4980469,73.203125 C41.3105409,73.6718773 39.5195432,74.0566391 37.125,74.3574219 C37.0312495,74.1074206 36.9179694,73.8496107 36.7851562,73.5839844 Z M47.8476562,77.3691406 C47.5820299,77.6816422 47.3554697,77.974608 47.1679688,78.2480469 C45.1054584,77.6308563 43.523443,76.8750045 42.421875,75.9804688 L42.421875,78.6230469 L41.578125,78.6230469 L41.578125,75.9980469 C40.3945253,76.8339886 38.8203223,77.5878873 36.8554688,78.2597656 C36.6757812,78.033202 36.4492201,77.7675796 36.1757812,77.4628906 C38.1914163,76.9589819 39.7871035,76.3378943 40.9628906,75.5996094 L36.4453125,75.5996094 L36.4453125,74.8144531 L41.578125,74.8144531 L41.578125,73.8535156 L42.421875,73.8535156 L42.421875,74.8144531 L47.625,74.8144531 L47.625,75.5996094 L43.0605469,75.5996094 C44.294928,76.4316448 45.8906152,77.0214826 47.8476562,77.3691406 Z M36.7851562,68.1230469 L41.6953125,68.1230469 C41.5468743,67.8535143 41.375001,67.5761733 41.1796875,67.2910156 L42.0117188,66.9160156 C42.2656263,67.3144551 42.5058582,67.7167948 42.7324219,68.1230469 L47.203125,68.1230469 L47.203125,69.8925781 L46.3125,69.8925781 L46.3125,68.8964844 L37.6757812,68.8964844 L37.6757812,69.8925781 L36.7851562,69.8925781 L36.7851562,68.1230469 Z M39.6796875,71.7324219 L41.7582996,72.2498776 C41.9819323,72.3062741 42.2031239,72.3623044 42.421875,72.4179688 C43.1093784,72.1132797 43.6464824,71.6699248 44.0332031,71.0878906 L40.3007812,71.0878906 C40.1015615,71.3027354 39.8945323,71.5175771 39.6796875,71.7324219 Z M52.21875,71.2988281 L59.2148438,71.2988281 L59.2148438,78.5175781 L58.3242188,78.5175781 L58.3242188,77.7910156 L53.109375,77.7910156 L53.109375,78.5175781 L52.21875,78.5175781 L52.21875,71.2988281 Z M48.1640625,73.2441406 C48.6328148,73.1035149 49.1328098,72.9414072 49.6640625,72.7578125 L49.6640625,70.0683594 L48.2695312,70.0683594 L48.2695312,69.2714844 L49.6640625,69.2714844 L49.6640625,67.0917969 L50.5546875,67.0917969 L50.5546875,69.2714844 L51.75,69.2714844 L51.75,70.0683594 L50.5546875,70.0683594 L50.5546875,72.4472656 L51.304687,72.1712241 C51.432291,72.1234812 51.5611973,72.07487 51.6914062,72.0253906 L51.7148438,72.9511719 L51.7148438,72.9511719 L50.5546875,73.3789062 L50.5546875,73.3789062 L50.5546875,77.2167969 C50.5546875,78.0136759 50.175785,78.4199218 49.4179688,78.4355469 L49.0392188,78.4411719 C48.8292193,78.4421094 48.5882826,78.4402344 48.3164062,78.4355469 C48.269531,78.1074202 48.2187503,77.7832047 48.1640625,77.4628906 C48.5937521,77.5097659 48.9414049,77.5332031 49.2070312,77.5332031 C49.5117203,77.5332031 49.6640625,77.3730485 49.6640625,77.0527344 L49.6640625,73.7070312 L48.2929688,74.2285156 L48.2929688,74.2285156 L48.1640625,73.2441406 Z M56.8125,67.0800781 L57.6679688,67.0800781 L57.6679688,68.5566406 L59.8125,68.5566406 L59.8125,69.3769531 L57.6679688,69.3769531 L57.6679688,70.8183594 L56.8125,70.8183594 L56.8125,69.3769531 L54.609375,69.3769531 L54.609375,70.8183594 L53.7539062,70.8183594 L53.7539062,69.3769531 L51.890625,69.3769531 L51.890625,68.5566406 L53.7539062,68.5566406 L53.7539062,67.0917969 L54.609375,67.0917969 L54.609375,68.5566406 L56.8125,68.5566406 L56.8125,67.0800781 Z M56.1445312,77.0175781 L58.3242188,77.0175781 L58.3242188,74.9199219 L56.1445312,74.9199219 L56.1445312,77.0175781 Z M53.109375,77.0175781 L55.2773438,77.0175781 L55.2773438,74.9199219 L53.109375,74.9199219 L53.109375,77.0175781 Z M58.3242188,72.0957031 L56.1445312,72.0957031 L56.1445312,74.1699219 L58.3242188,74.1699219 L58.3242188,72.0957031 Z M53.109375,74.1699219 L55.2773438,74.1699219 L55.2773438,72.0957031 L53.109375,72.0957031 L53.109375,74.1699219 Z M63.6679688,69.6230469 L66.9140625,69.6230469 L66.9140625,67.0800781 L67.828125,67.0800781 L67.828125,69.6230469 L71.34375,69.6230469 L71.34375,70.4667969 L67.828125,70.4667969 L67.828125,72.0019531 L68.2265625,71.5449219 C69.4140684,72.4980516 70.5859317,73.4941354 71.7421875,74.5332031 L71.0625,75.2949219 C70.1015577,74.3339796 69.0234435,73.341802 67.828125,72.3183594 L67.828125,76.9238281 L66.9140625,76.9238281 L66.9140625,71.6269531 C66.0390581,73.1425857 64.9882874,74.4941347 63.7617188,75.6816406 C63.5429677,75.4628895 63.2929702,75.2402355 63.0117188,75.0136719 C64.4882886,73.6699152 65.7031202,72.1543053 66.65625,70.4667969 L63.6679688,70.4667969 L63.6679688,69.6230469 Z M65.0742188,77.4511719 L66.1664082,77.468047 C67.7101572,77.4817971 69.603895,77.4605472 71.8476562,77.4042969 L71.4609375,78.3066406 L71.4609375,78.3066406 L69.84823,78.3258332 C67.9501503,78.3420562 66.3197613,78.3317524 64.9570312,78.2949219 C63.605462,78.2714843 62.6328155,77.8261762 62.0390625,76.9589844 C61.8124989,77.1386728 61.3554722,77.6386678 60.6679688,78.4589844 L60.1640625,77.4628906 L60.8557085,76.8516018 C61.1401467,76.6028778 61.3939721,76.3847666 61.6171875,76.1972656 L61.6171875,72.0957031 L60.28125,72.0957031 L60.28125,71.2402344 L62.53125,71.2402344 L62.53125,76.3613281 C63.1015654,77.0488316 63.9492131,77.4121092 65.0742188,77.4511719 Z M61.3710938,67.1738281 C61.8945339,67.7832062 62.4765593,68.5175738 63.1171875,69.3769531 L62.3085938,69.9863281 C61.7851536,69.1816366 61.2304717,68.4199255 60.6445312,67.7011719 L61.3710938,67.1738281 Z M68.6015625,67.8769531 L69.140625,67.2207031 L69.8114078,67.6689463 C70.2806263,67.988868 70.6273426,68.2417959 70.8515625,68.4277344 L70.2539062,69.1777344 C69.8164041,68.7871074 69.2656283,68.353518 68.6015625,67.8769531 Z M72.3632812,69.0488281 L77.9882812,69.0488281 L77.6223952,68.3665352 C77.3975691,67.9568133 77.2109382,67.6373709 77.0625,67.4082031 L77.9648438,66.9863281 L78.2200521,67.392578 C78.414496,67.7102855 78.6575506,68.1217423 78.9492188,68.6269531 L78.1054688,69.0488281 L83.6132812,69.0488281 L83.6132812,69.9160156 L81.4511719,69.9160156 C81.033201,72.1464955 80.1347725,73.9394463 78.7558594,75.2949219 C79.7949271,76.0527382 81.4453012,76.7324189 83.7070312,77.3339844 C83.3476545,77.7402364 83.0742197,78.0800768 82.8867188,78.3535156 C80.6835827,77.5917931 79.0566459,76.794926 78.0058594,75.9628906 C76.9511666,76.7832072 75.2656366,77.6113239 72.9492188,78.4472656 L72.6210942,78.013672 C72.5039069,77.8613286 72.3789069,77.7011727 72.2460938,77.5332031 C74.4804799,76.8613248 76.1621037,76.1132854 77.2910156,75.2890625 C75.8652272,73.7656174 74.9589863,71.9746197 74.5722656,69.9160156 L72.3632812,69.9160156 L72.3632812,69.0488281 Z M80.4492188,69.9160156 L75.5097656,69.9160156 C75.8613299,71.8379002 76.7011652,73.425775 78.0292969,74.6796875 C79.2988345,73.4999941 80.105467,71.9121194 80.4492188,69.9160156 Z M84.7851562,73.5839844 L85.6246099,73.4824678 C87.1094497,73.2920322 88.2964198,73.0778257 89.1855469,72.8398438 C88.2480422,72.5898425 87.300786,72.3457043 86.34375,72.1074219 C86.6640641,71.7636702 86.96875,71.4238298 87.2578125,71.0878906 L84.46875,71.0878906 L84.46875,70.3144531 L87.890625,70.3144531 C88.1875015,69.9394513 88.4609363,69.5683612 88.7109375,69.2011719 L89.6601562,69.4707031 C89.4492177,69.7519545 89.2246106,70.0332017 88.9863281,70.3144531 L95.53125,70.3144531 L95.53125,71.0878906 L93.0117188,71.0878906 C92.6406231,71.7480502 92.138675,72.2832011 91.5058594,72.6933594 L92.8136729,73.0392971 C93.4511715,73.209453 94.0640596,73.3753898 94.6523438,73.5371094 L94.2773438,74.3222656 C93.0390563,73.9316387 91.7793033,73.5585955 90.4980469,73.203125 C89.3105409,73.6718773 87.5195432,74.0566391 85.125,74.3574219 C85.0312495,74.1074206 84.9179694,73.8496107 84.7851562,73.5839844 Z M95.8476562,77.3691406 C95.5820299,77.6816422 95.3554697,77.974608 95.1679688,78.2480469 C93.1054584,77.6308563 91.523443,76.8750045 90.421875,75.9804688 L90.421875,78.6230469 L89.578125,78.6230469 L89.578125,75.9980469 C88.3945253,76.8339886 86.8203223,77.5878873 84.8554688,78.2597656 C84.6757812,78.033202 84.4492201,77.7675796 84.1757812,77.4628906 C86.1914163,76.9589819 87.7871035,76.3378943 88.9628906,75.5996094 L84.4453125,75.5996094 L84.4453125,74.8144531 L89.578125,74.8144531 L89.578125,73.8535156 L90.421875,73.8535156 L90.421875,74.8144531 L95.625,74.8144531 L95.625,75.5996094 L91.0605469,75.5996094 C92.294928,76.4316448 93.8906152,77.0214826 95.8476562,77.3691406 Z M84.7851562,68.1230469 L89.6953125,68.1230469 C89.5468743,67.8535143 89.375001,67.5761733 89.1796875,67.2910156 L90.0117188,66.9160156 C90.2656263,67.3144551 90.5058582,67.7167948 90.7324219,68.1230469 L95.203125,68.1230469 L95.203125,69.8925781 L94.3125,69.8925781 L94.3125,68.8964844 L85.6757812,68.8964844 L85.6757812,69.8925781 L84.7851562,69.8925781 L84.7851562,68.1230469 Z M87.6796875,71.7324219 L89.7582996,72.2498776 C89.9819323,72.3062741 90.2031239,72.3623044 90.421875,72.4179688 C91.1093784,72.1132797 91.6464824,71.6699248 92.0332031,71.0878906 L88.3007812,71.0878906 C88.1015615,71.3027354 87.8945323,71.5175771 87.6796875,71.7324219 Z M100.21875,71.2988281 L107.214844,71.2988281 L107.214844,78.5175781 L106.324219,78.5175781 L106.324219,77.7910156 L101.109375,77.7910156 L101.109375,78.5175781 L100.21875,78.5175781 L100.21875,71.2988281 Z M96.1640625,73.2441406 C96.6328148,73.1035149 97.1328098,72.9414072 97.6640625,72.7578125 L97.6640625,70.0683594 L96.2695312,70.0683594 L96.2695312,69.2714844 L97.6640625,69.2714844 L97.6640625,67.0917969 L98.5546875,67.0917969 L98.5546875,69.2714844 L99.75,69.2714844 L99.75,70.0683594 L98.5546875,70.0683594 L98.5546875,72.4472656 L99.304687,72.1712241 C99.432291,72.1234812 99.5611973,72.07487 99.6914062,72.0253906 L99.7148438,72.9511719 L99.7148438,72.9511719 L98.5546875,73.3789062 L98.5546875,73.3789062 L98.5546875,77.2167969 C98.5546875,78.0136759 98.175785,78.4199218 97.4179688,78.4355469 L97.0392188,78.4411719 C96.8292193,78.4421094 96.5882826,78.4402344 96.3164062,78.4355469 C96.269531,78.1074202 96.2187503,77.7832047 96.1640625,77.4628906 C96.5937521,77.5097659 96.9414049,77.5332031 97.2070312,77.5332031 C97.5117203,77.5332031 97.6640625,77.3730485 97.6640625,77.0527344 L97.6640625,73.7070312 L96.2929688,74.2285156 L96.2929688,74.2285156 L96.1640625,73.2441406 Z M104.8125,67.0800781 L105.667969,67.0800781 L105.667969,68.5566406 L107.8125,68.5566406 L107.8125,69.3769531 L105.667969,69.3769531 L105.667969,70.8183594 L104.8125,70.8183594 L104.8125,69.3769531 L102.609375,69.3769531 L102.609375,70.8183594 L101.753906,70.8183594 L101.753906,69.3769531 L99.890625,69.3769531 L99.890625,68.5566406 L101.753906,68.5566406 L101.753906,67.0917969 L102.609375,67.0917969 L102.609375,68.5566406 L104.8125,68.5566406 L104.8125,67.0800781 Z M104.144531,77.0175781 L106.324219,77.0175781 L106.324219,74.9199219 L104.144531,74.9199219 L104.144531,77.0175781 Z M101.109375,77.0175781 L103.277344,77.0175781 L103.277344,74.9199219 L101.109375,74.9199219 L101.109375,77.0175781 Z M106.324219,72.0957031 L104.144531,72.0957031 L104.144531,74.1699219 L106.324219,74.1699219 L106.324219,72.0957031 Z M101.109375,74.1699219 L103.277344,74.1699219 L103.277344,72.0957031 L101.109375,72.0957031 L101.109375,74.1699219 Z M111.667969,69.6230469 L114.914062,69.6230469 L114.914062,67.0800781 L115.828125,67.0800781 L115.828125,69.6230469 L119.34375,69.6230469 L119.34375,70.4667969 L115.828125,70.4667969 L115.828125,72.0019531 L116.226562,71.5449219 C117.414068,72.4980516 118.585932,73.4941354 119.742188,74.5332031 L119.0625,75.2949219 C118.101558,74.3339796 117.023443,73.341802 115.828125,72.3183594 L115.828125,76.9238281 L114.914062,76.9238281 L114.914062,71.6269531 C114.039058,73.1425857 112.988287,74.4941347 111.761719,75.6816406 C111.542968,75.4628895 111.29297,75.2402355 111.011719,75.0136719 C112.488289,73.6699152 113.70312,72.1543053 114.65625,70.4667969 L111.667969,70.4667969 L111.667969,69.6230469 Z M113.074219,77.4511719 L114.166408,77.468047 C115.710157,77.4817971 117.603895,77.4605472 119.847656,77.4042969 L119.460938,78.3066406 L119.460938,78.3066406 L117.84823,78.3258332 C115.95015,78.3420562 114.319761,78.3317524 112.957031,78.2949219 C111.605462,78.2714843 110.632815,77.8261762 110.039062,76.9589844 C109.812499,77.1386728 109.355472,77.6386678 108.667969,78.4589844 L108.164062,77.4628906 L108.855709,76.8516018 C109.140147,76.6028778 109.393972,76.3847666 109.617188,76.1972656 L109.617188,72.0957031 L108.28125,72.0957031 L108.28125,71.2402344 L110.53125,71.2402344 L110.53125,76.3613281 C111.101565,77.0488316 111.949213,77.4121092 113.074219,77.4511719 Z M109.371094,67.1738281 C109.894534,67.7832062 110.476559,68.5175738 111.117188,69.3769531 L110.308594,69.9863281 C109.785154,69.1816366 109.230472,68.4199255 108.644531,67.7011719 L109.371094,67.1738281 Z M116.601562,67.8769531 L117.140625,67.2207031 L117.811408,67.6689463 C118.280626,67.988868 118.627343,68.2417959 118.851562,68.4277344 L118.253906,69.1777344 C117.816404,68.7871074 117.265628,68.353518 116.601562,67.8769531 Z M120.363281,69.0488281 L125.988281,69.0488281 L125.622395,68.3665352 C125.397569,67.9568133 125.210938,67.6373709 125.0625,67.4082031 L125.964844,66.9863281 L126.220052,67.392578 C126.414496,67.7102855 126.657551,68.1217423 126.949219,68.6269531 L126.105469,69.0488281 L131.613281,69.0488281 L131.613281,69.9160156 L129.451172,69.9160156 C129.033201,72.1464955 128.134773,73.9394463 126.755859,75.2949219 C127.794927,76.0527382 129.445301,76.7324189 131.707031,77.3339844 C131.347654,77.7402364 131.07422,78.0800768 130.886719,78.3535156 C128.683583,77.5917931 127.056646,76.794926 126.005859,75.9628906 C124.951167,76.7832072 123.265637,77.6113239 120.949219,78.4472656 L120.621094,78.013672 C120.503907,77.8613286 120.378907,77.7011727 120.246094,77.5332031 C122.48048,76.8613248 124.162104,76.1132854 125.291016,75.2890625 C123.865227,73.7656174 122.958986,71.9746197 122.572266,69.9160156 L120.363281,69.9160156 L120.363281,69.0488281 Z M128.449219,69.9160156 L123.509766,69.9160156 C123.86133,71.8379002 124.701165,73.425775 126.029297,74.6796875 C127.298834,73.4999941 128.105467,71.9121194 128.449219,69.9160156 Z M132.785156,73.5839844 L133.62461,73.4824678 C135.10945,73.2920322 136.29642,73.0778257 137.185547,72.8398438 C136.248042,72.5898425 135.300786,72.3457043 134.34375,72.1074219 C134.664064,71.7636702 134.96875,71.4238298 135.257812,71.0878906 L132.46875,71.0878906 L132.46875,70.3144531 L135.890625,70.3144531 C136.187501,69.9394513 136.460936,69.5683612 136.710938,69.2011719 L137.660156,69.4707031 C137.449218,69.7519545 137.224611,70.0332017 136.986328,70.3144531 L143.53125,70.3144531 L143.53125,71.0878906 L141.011719,71.0878906 C140.640623,71.7480502 140.138675,72.2832011 139.505859,72.6933594 L140.813673,73.0392971 C141.451172,73.209453 142.06406,73.3753898 142.652344,73.5371094 L142.277344,74.3222656 C141.039056,73.9316387 139.779303,73.5585955 138.498047,73.203125 C137.310541,73.6718773 135.519543,74.0566391 133.125,74.3574219 C133.03125,74.1074206 132.917969,73.8496107 132.785156,73.5839844 Z M143.847656,77.3691406 C143.58203,77.6816422 143.35547,77.974608 143.167969,78.2480469 C141.105458,77.6308563 139.523443,76.8750045 138.421875,75.9804688 L138.421875,78.6230469 L137.578125,78.6230469 L137.578125,75.9980469 C136.394525,76.8339886 134.820322,77.5878873 132.855469,78.2597656 C132.675781,78.033202 132.44922,77.7675796 132.175781,77.4628906 C134.191416,76.9589819 135.787103,76.3378943 136.962891,75.5996094 L132.445312,75.5996094 L132.445312,74.8144531 L137.578125,74.8144531 L137.578125,73.8535156 L138.421875,73.8535156 L138.421875,74.8144531 L143.625,74.8144531 L143.625,75.5996094 L139.060547,75.5996094 C140.294928,76.4316448 141.890615,77.0214826 143.847656,77.3691406 Z M132.785156,68.1230469 L137.695312,68.1230469 C137.546874,67.8535143 137.375001,67.5761733 137.179688,67.2910156 L138.011719,66.9160156 C138.265626,67.3144551 138.505858,67.7167948 138.732422,68.1230469 L143.203125,68.1230469 L143.203125,69.8925781 L142.3125,69.8925781 L142.3125,68.8964844 L133.675781,68.8964844 L133.675781,69.8925781 L132.785156,69.8925781 L132.785156,68.1230469 Z M135.679688,71.7324219 L137.7583,72.2498776 C137.981932,72.3062741 138.203124,72.3623044 138.421875,72.4179688 C139.109378,72.1132797 139.646482,71.6699248 140.033203,71.0878906 L136.300781,71.0878906 C136.101562,71.3027354 135.894532,71.5175771 135.679688,71.7324219 Z M144.697266,76.3964844 C144.697266,76.1855458 144.769531,76.0078132 144.914062,75.8632812 C145.058594,75.7187493 145.23828,75.6464844 145.453125,75.6464844 C145.671876,75.6464844 145.853515,75.7197258 145.998047,75.8662109 C146.142579,76.012696 146.214844,76.1894521 146.214844,76.3964844 C146.214844,76.5996104 146.142579,76.7744133 145.998047,76.9208984 C145.853515,77.0673835 145.669923,77.140625 145.447266,77.140625 C145.232421,77.140625 145.053712,77.0673835 144.911133,76.9208984 C144.768554,76.7744133 144.697266,76.5996104 144.697266,76.3964844 Z M147.585938,76.3964844 C147.585938,76.1855458 147.658202,76.0078132 147.802734,75.8632812 C147.947266,75.7187493 148.126952,75.6464844 148.341797,75.6464844 C148.560548,75.6464844 148.742187,75.7197258 148.886719,75.8662109 C149.031251,76.012696 149.103516,76.1894521 149.103516,76.3964844 C149.103516,76.5996104 149.031251,76.7744133 148.886719,76.9208984 C148.742187,77.0673835 148.558595,77.140625 148.335938,77.140625 C148.121093,77.140625 147.942384,77.0673835 147.799805,76.9208984 C147.657226,76.7744133 147.585938,76.5996104 147.585938,76.3964844 Z M150.474609,76.3964844 C150.474609,76.1855458 150.546874,76.0078132 150.691406,75.8632812 C150.835938,75.7187493 151.015624,75.6464844 151.230469,75.6464844 C151.44922,75.6464844 151.630859,75.7197258 151.775391,75.8662109 C151.919923,76.012696 151.992188,76.1894521 151.992188,76.3964844 C151.992188,76.5996104 151.919923,76.7744133 151.775391,76.9208984 C151.630859,77.0673835 151.447267,77.140625 151.224609,77.140625 C151.009765,77.140625 150.831055,77.0673835 150.688477,76.9208984 C150.545898,76.7744133 150.474609,76.5996104 150.474609,76.3964844 Z" id="描述文案描述文案描述文案..." fill="#9B9B9B" fill-rule="nonzero"></path>
                    <path d="M2.1796875,109.337891 L2.75390625,108.681641 C3.34765922,109.169924 3.88866943,109.648435 4.37695312,110.117188 C4.90039324,109.210933 5.26953018,108.228521 5.484375,107.169922 L2.84765625,107.169922 C2.23437193,108.576179 1.48047322,109.841791 0.5859375,110.966797 C0.414061641,110.568357 0.257813203,110.255861 0.1171875,110.029297 C1.2968809,108.443351 2.20507494,106.587901 2.84179688,104.462891 L0.50390625,104.462891 L0.50390625,103.619141 L7.078125,103.619141 L7.078125,104.462891 L3.80859375,104.462891 C3.62499908,105.107425 3.41992301,105.728513 3.19335938,106.326172 L6.4453125,106.326172 L6.4453125,107.181641 C5.8046843,110.384782 4.12110738,112.857413 1.39453125,114.599609 C1.19140523,114.365233 0.949220156,114.126954 0.66796875,113.884766 C2.00391293,113.02148 3.07421473,112.023443 3.87890625,110.890625 C3.43359152,110.453123 2.86719094,109.93555 2.1796875,109.337891 Z M10.1601562,103.197266 L11.0976562,103.197266 L11.0976562,112.876953 C11.0976562,113.869146 10.648442,114.369141 9.75,114.376953 L9.43286999,114.380425 C9.02710278,114.382451 8.49609703,114.377387 7.83984375,114.365234 C7.80078105,114.005858 7.73828168,113.654299 7.65234375,113.310547 L8.38672011,113.369141 C8.82942802,113.400391 9.17838414,113.416016 9.43359375,113.416016 C9.91797117,113.416016 10.1601562,113.154299 10.1601562,112.630859 L10.1601562,103.197266 Z M8.47265625,111.669922 L7.5703125,111.669922 L7.5703125,104.498047 L8.47265625,104.498047 L8.47265625,111.669922 Z M22.3476562,109.455078 L22.9921875,110.263672 L20.3730469,111.576172 C21.2910202,112.326176 22.4413993,112.822264 23.8242188,113.064453 C23.5585924,113.408205 23.3398446,113.720702 23.1679688,114.001953 C20.6484249,113.400388 18.8418023,111.851575 17.7480469,109.355469 C17.3496074,109.863284 16.8945338,110.345701 16.3828125,110.802734 L16.3828125,113.310547 C17.4140677,112.974608 18.3710893,112.623049 19.2539062,112.255859 C19.2460937,112.599611 19.2499999,112.939453 19.265625,113.275391 C18.3281203,113.595705 17.35938,113.947264 16.359375,114.330078 C16.1484364,114.416016 15.9414073,114.517578 15.7382812,114.634766 L15.1875,113.779297 C15.4062511,113.623046 15.515625,113.404298 15.515625,113.123047 L15.515625,111.511719 C14.7070272,112.117191 13.7890676,112.666013 12.7617188,113.158203 C12.5898429,112.884764 12.3906261,112.615236 12.1640625,112.349609 C14.1836038,111.52148 15.7695255,110.412116 16.921875,109.021484 L12.2929688,109.021484 L12.2929688,108.212891 L17.5429688,108.212891 L17.5429688,107.017578 L13.125,107.017578 L13.125,106.208984 L17.5429688,106.208984 L17.5429688,105.060547 L12.65625,105.060547 L12.65625,104.251953 L17.5429688,104.251953 L17.5429688,102.939453 L18.46875,102.939453 L18.46875,104.251953 L23.3789062,104.251953 L23.3789062,105.060547 L18.46875,105.060547 L18.46875,106.208984 L22.875,106.208984 L22.875,107.017578 L18.46875,107.017578 L18.46875,108.212891 L23.7070312,108.212891 L23.7070312,109.021484 L18.4980469,109.021484 C18.8261735,109.783207 19.2480443,110.443357 19.7636719,111.001953 C20.5488321,110.611326 21.4101516,110.095706 22.3476562,109.455078 Z M24.3632812,105.048828 L29.9882812,105.048828 L29.6223952,104.366535 C29.3975691,103.956813 29.2109382,103.637371 29.0625,103.408203 L29.9648438,102.986328 L30.2200521,103.392578 C30.414496,103.710286 30.6575506,104.121742 30.9492188,104.626953 L30.1054688,105.048828 L35.6132812,105.048828 L35.6132812,105.916016 L33.4511719,105.916016 C33.033201,108.146496 32.1347725,109.939446 30.7558594,111.294922 C31.7949271,112.052738 33.4453012,112.732419 35.7070312,113.333984 C35.3476545,113.740236 35.0742197,114.080077 34.8867188,114.353516 C32.6835827,113.591793 31.0566459,112.794926 30.0058594,111.962891 C28.9511666,112.783207 27.2656366,113.611324 24.9492188,114.447266 L24.6210942,114.013672 C24.5039069,113.861329 24.3789069,113.701173 24.2460938,113.533203 C26.4804799,112.861325 28.1621037,112.113285 29.2910156,111.289062 C27.8652272,109.765617 26.9589863,107.97462 26.5722656,105.916016 L24.3632812,105.916016 L24.3632812,105.048828 Z M32.4492188,105.916016 L27.5097656,105.916016 C27.8613299,107.8379 28.7011652,109.425775 30.0292969,110.679688 C31.2988345,109.499994 32.105467,107.912119 32.4492188,105.916016 Z M36.7851562,109.583984 L37.6246099,109.482468 C39.1094497,109.292032 40.2964198,109.077826 41.1855469,108.839844 C40.2480422,108.589843 39.300786,108.345704 38.34375,108.107422 C38.6640641,107.76367 38.96875,107.42383 39.2578125,107.087891 L36.46875,107.087891 L36.46875,106.314453 L39.890625,106.314453 C40.1875015,105.939451 40.4609363,105.568361 40.7109375,105.201172 L41.6601562,105.470703 C41.4492177,105.751955 41.2246106,106.033202 40.9863281,106.314453 L47.53125,106.314453 L47.53125,107.087891 L45.0117188,107.087891 C44.6406231,107.74805 44.138675,108.283201 43.5058594,108.693359 L44.8136729,109.039297 C45.4511715,109.209453 46.0640596,109.37539 46.6523438,109.537109 L46.2773438,110.322266 C45.0390563,109.931639 43.7793033,109.558596 42.4980469,109.203125 C41.3105409,109.671877 39.5195432,110.056639 37.125,110.357422 C37.0312495,110.107421 36.9179694,109.849611 36.7851562,109.583984 Z M47.8476562,113.369141 C47.5820299,113.681642 47.3554697,113.974608 47.1679688,114.248047 C45.1054584,113.630856 43.523443,112.875004 42.421875,111.980469 L42.421875,114.623047 L41.578125,114.623047 L41.578125,111.998047 C40.3945253,112.833989 38.8203223,113.587887 36.8554688,114.259766 C36.6757812,114.033202 36.4492201,113.76758 36.1757812,113.462891 C38.1914163,112.958982 39.7871035,112.337894 40.9628906,111.599609 L36.4453125,111.599609 L36.4453125,110.814453 L41.578125,110.814453 L41.578125,109.853516 L42.421875,109.853516 L42.421875,110.814453 L47.625,110.814453 L47.625,111.599609 L43.0605469,111.599609 C44.294928,112.431645 45.8906152,113.021483 47.8476562,113.369141 Z M36.7851562,104.123047 L41.6953125,104.123047 C41.5468743,103.853514 41.375001,103.576173 41.1796875,103.291016 L42.0117188,102.916016 C42.2656263,103.314455 42.5058582,103.716795 42.7324219,104.123047 L47.203125,104.123047 L47.203125,105.892578 L46.3125,105.892578 L46.3125,104.896484 L37.6757812,104.896484 L37.6757812,105.892578 L36.7851562,105.892578 L36.7851562,104.123047 Z M39.6796875,107.732422 L41.7582996,108.249878 C41.9819323,108.306274 42.2031239,108.362304 42.421875,108.417969 C43.1093784,108.11328 43.6464824,107.669925 44.0332031,107.087891 L40.3007812,107.087891 C40.1015615,107.302735 39.8945323,107.517577 39.6796875,107.732422 Z M50.1796875,109.337891 L50.7539062,108.681641 C51.3476592,109.169924 51.8886694,109.648435 52.3769531,110.117188 C52.9003932,109.210933 53.2695302,108.228521 53.484375,107.169922 L50.8476562,107.169922 C50.2343719,108.576179 49.4804732,109.841791 48.5859375,110.966797 C48.4140616,110.568357 48.2578132,110.255861 48.1171875,110.029297 C49.2968809,108.443351 50.2050749,106.587901 50.8417969,104.462891 L48.5039062,104.462891 L48.5039062,103.619141 L55.078125,103.619141 L55.078125,104.462891 L51.8085938,104.462891 C51.6249991,105.107425 51.419923,105.728513 51.1933594,106.326172 L54.4453125,106.326172 L54.4453125,107.181641 C53.8046843,110.384782 52.1211074,112.857413 49.3945312,114.599609 C49.1914052,114.365233 48.9492202,114.126954 48.6679688,113.884766 C50.0039129,113.02148 51.0742147,112.023443 51.8789062,110.890625 C51.4335915,110.453123 50.8671909,109.93555 50.1796875,109.337891 Z M58.1601562,103.197266 L59.0976562,103.197266 L59.0976562,112.876953 C59.0976562,113.869146 58.648442,114.369141 57.75,114.376953 L57.43287,114.380425 C57.0271028,114.382451 56.496097,114.377387 55.8398438,114.365234 C55.8007811,114.005858 55.7382817,113.654299 55.6523438,113.310547 L56.3867201,113.369141 C56.829428,113.400391 57.1783841,113.416016 57.4335938,113.416016 C57.9179712,113.416016 58.1601562,113.154299 58.1601562,112.630859 L58.1601562,103.197266 Z M56.4726562,111.669922 L55.5703125,111.669922 L55.5703125,104.498047 L56.4726562,104.498047 L56.4726562,111.669922 Z M70.3476562,109.455078 L70.9921875,110.263672 L68.3730469,111.576172 C69.2910202,112.326176 70.4413993,112.822264 71.8242188,113.064453 C71.5585924,113.408205 71.3398446,113.720702 71.1679688,114.001953 C68.6484249,113.400388 66.8418023,111.851575 65.7480469,109.355469 C65.3496074,109.863284 64.8945338,110.345701 64.3828125,110.802734 L64.3828125,113.310547 C65.4140677,112.974608 66.3710893,112.623049 67.2539062,112.255859 C67.2460937,112.599611 67.2499999,112.939453 67.265625,113.275391 C66.3281203,113.595705 65.35938,113.947264 64.359375,114.330078 C64.1484364,114.416016 63.9414073,114.517578 63.7382812,114.634766 L63.1875,113.779297 C63.4062511,113.623046 63.515625,113.404298 63.515625,113.123047 L63.515625,111.511719 C62.7070272,112.117191 61.7890676,112.666013 60.7617188,113.158203 C60.5898429,112.884764 60.3906261,112.615236 60.1640625,112.349609 C62.1836038,111.52148 63.7695255,110.412116 64.921875,109.021484 L60.2929688,109.021484 L60.2929688,108.212891 L65.5429688,108.212891 L65.5429688,107.017578 L61.125,107.017578 L61.125,106.208984 L65.5429688,106.208984 L65.5429688,105.060547 L60.65625,105.060547 L60.65625,104.251953 L65.5429688,104.251953 L65.5429688,102.939453 L66.46875,102.939453 L66.46875,104.251953 L71.3789062,104.251953 L71.3789062,105.060547 L66.46875,105.060547 L66.46875,106.208984 L70.875,106.208984 L70.875,107.017578 L66.46875,107.017578 L66.46875,108.212891 L71.7070312,108.212891 L71.7070312,109.021484 L66.4980469,109.021484 C66.8261735,109.783207 67.2480443,110.443357 67.7636719,111.001953 C68.5488321,110.611326 69.4101516,110.095706 70.3476562,109.455078 Z M72.3632812,105.048828 L77.9882812,105.048828 L77.6223952,104.366535 C77.3975691,103.956813 77.2109382,103.637371 77.0625,103.408203 L77.9648438,102.986328 L78.2200521,103.392578 C78.414496,103.710286 78.6575506,104.121742 78.9492188,104.626953 L78.1054688,105.048828 L83.6132812,105.048828 L83.6132812,105.916016 L81.4511719,105.916016 C81.033201,108.146496 80.1347725,109.939446 78.7558594,111.294922 C79.7949271,112.052738 81.4453012,112.732419 83.7070312,113.333984 C83.3476545,113.740236 83.0742197,114.080077 82.8867188,114.353516 C80.6835827,113.591793 79.0566459,112.794926 78.0058594,111.962891 C76.9511666,112.783207 75.2656366,113.611324 72.9492188,114.447266 L72.6210942,114.013672 C72.5039069,113.861329 72.3789069,113.701173 72.2460938,113.533203 C74.4804799,112.861325 76.1621037,112.113285 77.2910156,111.289062 C75.8652272,109.765617 74.9589863,107.97462 74.5722656,105.916016 L72.3632812,105.916016 L72.3632812,105.048828 Z M80.4492188,105.916016 L75.5097656,105.916016 C75.8613299,107.8379 76.7011652,109.425775 78.0292969,110.679688 C79.2988345,109.499994 80.105467,107.912119 80.4492188,105.916016 Z M95.8476562,113.369141 C95.5820299,113.681642 95.3554697,113.974608 95.1679688,114.248047 C93.1054584,113.630856 91.523443,112.875004 90.421875,111.980469 L90.421875,114.623047 L89.578125,114.623047 L89.578125,111.998047 C88.3945253,112.833989 86.8203223,113.587887 84.8554688,114.259766 C84.6757812,114.033202 84.4492201,113.76758 84.1757812,113.462891 C86.1914163,112.958982 87.7871035,112.337894 88.9628906,111.599609 L84.4453125,111.599609 L84.4453125,110.814453 L89.578125,110.814453 L89.578125,109.853516 L90.421875,109.853516 L90.421875,110.814453 L95.625,110.814453 L95.625,111.599609 L91.0605469,111.599609 C92.294928,112.431645 93.8906152,113.021483 95.8476562,113.369141 Z M84.7851562,104.123047 L89.6953125,104.123047 C89.5468743,103.853514 89.375001,103.576173 89.1796875,103.291016 L90.0117188,102.916016 C90.2656263,103.314455 90.5058582,103.716795 90.7324219,104.123047 L95.203125,104.123047 L95.203125,105.892578 L94.3125,105.892578 L94.3125,104.896484 L85.6757812,104.896484 L85.6757812,105.892578 L84.7851562,105.892578 L84.7851562,104.123047 Z" id="列表文案列表文案" fill="#5A6677" fill-rule="nonzero"></path>
                    <path d="M88.7109375,105.201172 L89.6601562,105.470703 C89.4492177,105.751955 89.2246106,106.033202 88.9863281,106.314453 L95.53125,106.314453 L95.53125,107.087891 L93.0117188,107.087891 C92.6406231,107.74805 92.138675,108.283201 91.5058594,108.693359 L92.8136729,109.039297 C93.4511715,109.209453 94.0640596,109.37539 94.6523438,109.537109 L94.2773438,110.322266 C93.0390563,109.931639 91.7793033,109.558596 90.4980469,109.203125 C89.3105409,109.671877 87.5195432,110.056639 85.125,110.357422 C85.0312495,110.107421 84.9179694,109.849611 84.7851562,109.583984 L85.6246099,109.482468 C87.1094497,109.292032 88.2964198,109.077826 89.1855469,108.839844 C88.2480422,108.589843 87.300786,108.345704 86.34375,108.107422 C86.6640641,107.76367 86.96875,107.42383 87.2578125,107.087891 L84.46875,107.087891 L84.46875,106.314453 L87.890625,106.314453 C88.1875015,105.939451 88.4609363,105.568361 88.7109375,105.201172 Z M92.0332031,107.087891 L88.3007812,107.087891 C88.1015615,107.302735 87.8945323,107.517577 87.6796875,107.732422 C88.1562524,107.84961 88.6230482,107.965332 89.0800783,108.07959 L89.0800783,108.07959 L90.421875,108.417969 C91.1093784,108.11328 91.6464824,107.669925 92.0332031,107.087891 L92.0332031,107.087891 Z" id="形状结合" fill="#5A6677" fill-rule="nonzero"></path>
                    <path d="M4.21875,131.298828 L11.2148438,131.298828 L11.2148438,138.517578 L10.3242188,138.517578 L10.3242188,137.791016 L5.109375,137.791016 L5.109375,138.517578 L4.21875,138.517578 L4.21875,131.298828 Z M0.1640625,133.244141 C0.632814844,133.103515 1.13280984,132.941407 1.6640625,132.757812 L1.6640625,130.068359 L0.26953125,130.068359 L0.26953125,129.271484 L1.6640625,129.271484 L1.6640625,127.091797 L2.5546875,127.091797 L2.5546875,129.271484 L3.75,129.271484 L3.75,130.068359 L2.5546875,130.068359 L2.5546875,132.447266 L3.30468704,132.171224 C3.432291,132.123481 3.56119727,132.07487 3.69140625,132.025391 L3.71484375,132.951172 L3.71484375,132.951172 L2.5546875,133.378906 L2.5546875,133.378906 L2.5546875,137.216797 C2.5546875,138.013676 2.17578504,138.419922 1.41796875,138.435547 L1.0392188,138.441172 C0.829219331,138.442109 0.588282609,138.440234 0.31640625,138.435547 C0.269531016,138.10742 0.218750273,137.783205 0.1640625,137.462891 C0.593752148,137.509766 0.941404922,137.533203 1.20703125,137.533203 C1.51172027,137.533203 1.6640625,137.373048 1.6640625,137.052734 L1.6640625,133.707031 L0.29296875,134.228516 L0.29296875,134.228516 L0.1640625,133.244141 Z M8.8125,127.080078 L9.66796875,127.080078 L9.66796875,128.556641 L11.8125,128.556641 L11.8125,129.376953 L9.66796875,129.376953 L9.66796875,130.818359 L8.8125,130.818359 L8.8125,129.376953 L6.609375,129.376953 L6.609375,130.818359 L5.75390625,130.818359 L5.75390625,129.376953 L3.890625,129.376953 L3.890625,128.556641 L5.75390625,128.556641 L5.75390625,127.091797 L6.609375,127.091797 L6.609375,128.556641 L8.8125,128.556641 L8.8125,127.080078 Z M8.14453125,137.017578 L10.3242188,137.017578 L10.3242188,134.919922 L8.14453125,134.919922 L8.14453125,137.017578 Z M5.109375,137.017578 L7.27734375,137.017578 L7.27734375,134.919922 L5.109375,134.919922 L5.109375,137.017578 Z M10.3242188,132.095703 L8.14453125,132.095703 L8.14453125,134.169922 L10.3242188,134.169922 L10.3242188,132.095703 Z M5.109375,134.169922 L7.27734375,134.169922 L7.27734375,132.095703 L5.109375,132.095703 L5.109375,134.169922 Z M15.6679688,129.623047 L18.9140625,129.623047 L18.9140625,127.080078 L19.828125,127.080078 L19.828125,129.623047 L23.34375,129.623047 L23.34375,130.466797 L19.828125,130.466797 L19.828125,132.001953 L20.2265625,131.544922 C21.4140684,132.498052 22.5859317,133.494135 23.7421875,134.533203 L23.0625,135.294922 C22.1015577,134.33398 21.0234435,133.341802 19.828125,132.318359 L19.828125,136.923828 L18.9140625,136.923828 L18.9140625,131.626953 C18.0390581,133.142586 16.9882874,134.494135 15.7617188,135.681641 C15.5429677,135.46289 15.2929702,135.240236 15.0117188,135.013672 C16.4882886,133.669915 17.7031202,132.154305 18.65625,130.466797 L15.6679688,130.466797 L15.6679688,129.623047 Z M17.0742188,137.451172 L18.1664082,137.468047 C19.7101572,137.481797 21.603895,137.460547 23.8476562,137.404297 L23.4609375,138.306641 L23.4609375,138.306641 L21.84823,138.325833 C19.9501503,138.342056 18.3197613,138.331752 16.9570312,138.294922 C15.605462,138.271484 14.6328155,137.826176 14.0390625,136.958984 C13.8124989,137.138673 13.3554722,137.638668 12.6679688,138.458984 L12.1640625,137.462891 L12.8557085,136.851602 C13.1401467,136.602878 13.3939721,136.384767 13.6171875,136.197266 L13.6171875,132.095703 L12.28125,132.095703 L12.28125,131.240234 L14.53125,131.240234 L14.53125,136.361328 C15.1015654,137.048832 15.9492131,137.412109 17.0742188,137.451172 Z M13.3710938,127.173828 C13.8945339,127.783206 14.4765593,128.517574 15.1171875,129.376953 L14.3085938,129.986328 C13.7851536,129.181637 13.2304717,128.419925 12.6445312,127.701172 L13.3710938,127.173828 Z M20.6015625,127.876953 L21.140625,127.220703 L21.8114078,127.668946 C22.2806263,127.988868 22.6273426,128.241796 22.8515625,128.427734 L22.2539062,129.177734 C21.8164041,128.787107 21.2656283,128.353518 20.6015625,127.876953 Z M24.3632812,129.048828 L29.9882812,129.048828 L29.6223952,128.366535 C29.3975691,127.956813 29.2109382,127.637371 29.0625,127.408203 L29.9648438,126.986328 L30.2200521,127.392578 C30.414496,127.710286 30.6575506,128.121742 30.9492188,128.626953 L30.1054688,129.048828 L35.6132812,129.048828 L35.6132812,129.916016 L33.4511719,129.916016 C33.033201,132.146496 32.1347725,133.939446 30.7558594,135.294922 C31.7949271,136.052738 33.4453012,136.732419 35.7070312,137.333984 C35.3476545,137.740236 35.0742197,138.080077 34.8867188,138.353516 C32.6835827,137.591793 31.0566459,136.794926 30.0058594,135.962891 C28.9511666,136.783207 27.2656366,137.611324 24.9492188,138.447266 L24.6210942,138.013672 C24.5039069,137.861329 24.3789069,137.701173 24.2460938,137.533203 C26.4804799,136.861325 28.1621037,136.113285 29.2910156,135.289062 C27.8652272,133.765617 26.9589863,131.97462 26.5722656,129.916016 L24.3632812,129.916016 L24.3632812,129.048828 Z M32.4492188,129.916016 L27.5097656,129.916016 C27.8613299,131.8379 28.7011652,133.425775 30.0292969,134.679688 C31.2988345,133.499994 32.105467,131.912119 32.4492188,129.916016 Z M36.7851562,133.583984 L37.6246099,133.482468 C39.1094497,133.292032 40.2964198,133.077826 41.1855469,132.839844 C40.2480422,132.589843 39.300786,132.345704 38.34375,132.107422 C38.6640641,131.76367 38.96875,131.42383 39.2578125,131.087891 L36.46875,131.087891 L36.46875,130.314453 L39.890625,130.314453 C40.1875015,129.939451 40.4609363,129.568361 40.7109375,129.201172 L41.6601562,129.470703 C41.4492177,129.751955 41.2246106,130.033202 40.9863281,130.314453 L47.53125,130.314453 L47.53125,131.087891 L45.0117188,131.087891 C44.6406231,131.74805 44.138675,132.283201 43.5058594,132.693359 L44.8136729,133.039297 C45.4511715,133.209453 46.0640596,133.37539 46.6523438,133.537109 L46.2773438,134.322266 C45.0390563,133.931639 43.7793033,133.558596 42.4980469,133.203125 C41.3105409,133.671877 39.5195432,134.056639 37.125,134.357422 C37.0312495,134.107421 36.9179694,133.849611 36.7851562,133.583984 Z M47.8476562,137.369141 C47.5820299,137.681642 47.3554697,137.974608 47.1679688,138.248047 C45.1054584,137.630856 43.523443,136.875004 42.421875,135.980469 L42.421875,138.623047 L41.578125,138.623047 L41.578125,135.998047 C40.3945253,136.833989 38.8203223,137.587887 36.8554688,138.259766 C36.6757812,138.033202 36.4492201,137.76758 36.1757812,137.462891 C38.1914163,136.958982 39.7871035,136.337894 40.9628906,135.599609 L36.4453125,135.599609 L36.4453125,134.814453 L41.578125,134.814453 L41.578125,133.853516 L42.421875,133.853516 L42.421875,134.814453 L47.625,134.814453 L47.625,135.599609 L43.0605469,135.599609 C44.294928,136.431645 45.8906152,137.021483 47.8476562,137.369141 Z M36.7851562,128.123047 L41.6953125,128.123047 C41.5468743,127.853514 41.375001,127.576173 41.1796875,127.291016 L42.0117188,126.916016 C42.2656263,127.314455 42.5058582,127.716795 42.7324219,128.123047 L47.203125,128.123047 L47.203125,129.892578 L46.3125,129.892578 L46.3125,128.896484 L37.6757812,128.896484 L37.6757812,129.892578 L36.7851562,129.892578 L36.7851562,128.123047 Z M39.6796875,131.732422 L41.7582996,132.249878 C41.9819323,132.306274 42.2031239,132.362304 42.421875,132.417969 C43.1093784,132.11328 43.6464824,131.669925 44.0332031,131.087891 L40.3007812,131.087891 C40.1015615,131.302735 39.8945323,131.517577 39.6796875,131.732422 Z M52.21875,131.298828 L59.2148438,131.298828 L59.2148438,138.517578 L58.3242188,138.517578 L58.3242188,137.791016 L53.109375,137.791016 L53.109375,138.517578 L52.21875,138.517578 L52.21875,131.298828 Z M48.1640625,133.244141 C48.6328148,133.103515 49.1328098,132.941407 49.6640625,132.757812 L49.6640625,130.068359 L48.2695312,130.068359 L48.2695312,129.271484 L49.6640625,129.271484 L49.6640625,127.091797 L50.5546875,127.091797 L50.5546875,129.271484 L51.75,129.271484 L51.75,130.068359 L50.5546875,130.068359 L50.5546875,132.447266 L51.304687,132.171224 C51.432291,132.123481 51.5611973,132.07487 51.6914062,132.025391 L51.7148438,132.951172 L51.7148438,132.951172 L50.5546875,133.378906 L50.5546875,133.378906 L50.5546875,137.216797 C50.5546875,138.013676 50.175785,138.419922 49.4179688,138.435547 L49.0392188,138.441172 C48.8292193,138.442109 48.5882826,138.440234 48.3164062,138.435547 C48.269531,138.10742 48.2187503,137.783205 48.1640625,137.462891 C48.5937521,137.509766 48.9414049,137.533203 49.2070312,137.533203 C49.5117203,137.533203 49.6640625,137.373048 49.6640625,137.052734 L49.6640625,133.707031 L48.2929688,134.228516 L48.2929688,134.228516 L48.1640625,133.244141 Z M56.8125,127.080078 L57.6679688,127.080078 L57.6679688,128.556641 L59.8125,128.556641 L59.8125,129.376953 L57.6679688,129.376953 L57.6679688,130.818359 L56.8125,130.818359 L56.8125,129.376953 L54.609375,129.376953 L54.609375,130.818359 L53.7539062,130.818359 L53.7539062,129.376953 L51.890625,129.376953 L51.890625,128.556641 L53.7539062,128.556641 L53.7539062,127.091797 L54.609375,127.091797 L54.609375,128.556641 L56.8125,128.556641 L56.8125,127.080078 Z M56.1445312,137.017578 L58.3242188,137.017578 L58.3242188,134.919922 L56.1445312,134.919922 L56.1445312,137.017578 Z M53.109375,137.017578 L55.2773438,137.017578 L55.2773438,134.919922 L53.109375,134.919922 L53.109375,137.017578 Z M58.3242188,132.095703 L56.1445312,132.095703 L56.1445312,134.169922 L58.3242188,134.169922 L58.3242188,132.095703 Z M53.109375,134.169922 L55.2773438,134.169922 L55.2773438,132.095703 L53.109375,132.095703 L53.109375,134.169922 Z M63.6679688,129.623047 L66.9140625,129.623047 L66.9140625,127.080078 L67.828125,127.080078 L67.828125,129.623047 L71.34375,129.623047 L71.34375,130.466797 L67.828125,130.466797 L67.828125,132.001953 L68.2265625,131.544922 C69.4140684,132.498052 70.5859317,133.494135 71.7421875,134.533203 L71.0625,135.294922 C70.1015577,134.33398 69.0234435,133.341802 67.828125,132.318359 L67.828125,136.923828 L66.9140625,136.923828 L66.9140625,131.626953 C66.0390581,133.142586 64.9882874,134.494135 63.7617188,135.681641 C63.5429677,135.46289 63.2929702,135.240236 63.0117188,135.013672 C64.4882886,133.669915 65.7031202,132.154305 66.65625,130.466797 L63.6679688,130.466797 L63.6679688,129.623047 Z M65.0742188,137.451172 L66.1664082,137.468047 C67.7101572,137.481797 69.603895,137.460547 71.8476562,137.404297 L71.4609375,138.306641 L71.4609375,138.306641 L69.84823,138.325833 C67.9501503,138.342056 66.3197613,138.331752 64.9570312,138.294922 C63.605462,138.271484 62.6328155,137.826176 62.0390625,136.958984 C61.8124989,137.138673 61.3554722,137.638668 60.6679688,138.458984 L60.1640625,137.462891 L60.8557085,136.851602 C61.1401467,136.602878 61.3939721,136.384767 61.6171875,136.197266 L61.6171875,132.095703 L60.28125,132.095703 L60.28125,131.240234 L62.53125,131.240234 L62.53125,136.361328 C63.1015654,137.048832 63.9492131,137.412109 65.0742188,137.451172 Z M61.3710938,127.173828 C61.8945339,127.783206 62.4765593,128.517574 63.1171875,129.376953 L62.3085938,129.986328 C61.7851536,129.181637 61.2304717,128.419925 60.6445312,127.701172 L61.3710938,127.173828 Z M68.6015625,127.876953 L69.140625,127.220703 L69.8114078,127.668946 C70.2806263,127.988868 70.6273426,128.241796 70.8515625,128.427734 L70.2539062,129.177734 C69.8164041,128.787107 69.2656283,128.353518 68.6015625,127.876953 Z M72.3632812,129.048828 L77.9882812,129.048828 L77.6223952,128.366535 C77.3975691,127.956813 77.2109382,127.637371 77.0625,127.408203 L77.9648438,126.986328 L78.2200521,127.392578 C78.414496,127.710286 78.6575506,128.121742 78.9492188,128.626953 L78.1054688,129.048828 L83.6132812,129.048828 L83.6132812,129.916016 L81.4511719,129.916016 C81.033201,132.146496 80.1347725,133.939446 78.7558594,135.294922 C79.7949271,136.052738 81.4453012,136.732419 83.7070312,137.333984 C83.3476545,137.740236 83.0742197,138.080077 82.8867188,138.353516 C80.6835827,137.591793 79.0566459,136.794926 78.0058594,135.962891 C76.9511666,136.783207 75.2656366,137.611324 72.9492188,138.447266 L72.6210942,138.013672 C72.5039069,137.861329 72.3789069,137.701173 72.2460938,137.533203 C74.4804799,136.861325 76.1621037,136.113285 77.2910156,135.289062 C75.8652272,133.765617 74.9589863,131.97462 74.5722656,129.916016 L72.3632812,129.916016 L72.3632812,129.048828 Z M80.4492188,129.916016 L75.5097656,129.916016 C75.8613299,131.8379 76.7011652,133.425775 78.0292969,134.679688 C79.2988345,133.499994 80.105467,131.912119 80.4492188,129.916016 Z M84.7851562,133.583984 L85.6246099,133.482468 C87.1094497,133.292032 88.2964198,133.077826 89.1855469,132.839844 C88.2480422,132.589843 87.300786,132.345704 86.34375,132.107422 C86.6640641,131.76367 86.96875,131.42383 87.2578125,131.087891 L84.46875,131.087891 L84.46875,130.314453 L87.890625,130.314453 C88.1875015,129.939451 88.4609363,129.568361 88.7109375,129.201172 L89.6601562,129.470703 C89.4492177,129.751955 89.2246106,130.033202 88.9863281,130.314453 L95.53125,130.314453 L95.53125,131.087891 L93.0117188,131.087891 C92.6406231,131.74805 92.138675,132.283201 91.5058594,132.693359 L92.8136729,133.039297 C93.4511715,133.209453 94.0640596,133.37539 94.6523438,133.537109 L94.2773438,134.322266 C93.0390563,133.931639 91.7793033,133.558596 90.4980469,133.203125 C89.3105409,133.671877 87.5195432,134.056639 85.125,134.357422 C85.0312495,134.107421 84.9179694,133.849611 84.7851562,133.583984 Z M95.8476562,137.369141 C95.5820299,137.681642 95.3554697,137.974608 95.1679688,138.248047 C93.1054584,137.630856 91.523443,136.875004 90.421875,135.980469 L90.421875,138.623047 L89.578125,138.623047 L89.578125,135.998047 C88.3945253,136.833989 86.8203223,137.587887 84.8554688,138.259766 C84.6757812,138.033202 84.4492201,137.76758 84.1757812,137.462891 C86.1914163,136.958982 87.7871035,136.337894 88.9628906,135.599609 L84.4453125,135.599609 L84.4453125,134.814453 L89.578125,134.814453 L89.578125,133.853516 L90.421875,133.853516 L90.421875,134.814453 L95.625,134.814453 L95.625,135.599609 L91.0605469,135.599609 C92.294928,136.431645 93.8906152,137.021483 95.8476562,137.369141 Z M84.7851562,128.123047 L89.6953125,128.123047 C89.5468743,127.853514 89.375001,127.576173 89.1796875,127.291016 L90.0117188,126.916016 C90.2656263,127.314455 90.5058582,127.716795 90.7324219,128.123047 L95.203125,128.123047 L95.203125,129.892578 L94.3125,129.892578 L94.3125,128.896484 L85.6757812,128.896484 L85.6757812,129.892578 L84.7851562,129.892578 L84.7851562,128.123047 Z M87.6796875,131.732422 L89.7582996,132.249878 C89.9819323,132.306274 90.2031239,132.362304 90.421875,132.417969 C91.1093784,132.11328 91.6464824,131.669925 92.0332031,131.087891 L88.3007812,131.087891 C88.1015615,131.302735 87.8945323,131.517577 87.6796875,131.732422 Z M100.21875,131.298828 L107.214844,131.298828 L107.214844,138.517578 L106.324219,138.517578 L106.324219,137.791016 L101.109375,137.791016 L101.109375,138.517578 L100.21875,138.517578 L100.21875,131.298828 Z M96.1640625,133.244141 C96.6328148,133.103515 97.1328098,132.941407 97.6640625,132.757812 L97.6640625,130.068359 L96.2695312,130.068359 L96.2695312,129.271484 L97.6640625,129.271484 L97.6640625,127.091797 L98.5546875,127.091797 L98.5546875,129.271484 L99.75,129.271484 L99.75,130.068359 L98.5546875,130.068359 L98.5546875,132.447266 L99.304687,132.171224 C99.432291,132.123481 99.5611973,132.07487 99.6914062,132.025391 L99.7148438,132.951172 L99.7148438,132.951172 L98.5546875,133.378906 L98.5546875,133.378906 L98.5546875,137.216797 C98.5546875,138.013676 98.175785,138.419922 97.4179688,138.435547 L97.0392188,138.441172 C96.8292193,138.442109 96.5882826,138.440234 96.3164062,138.435547 C96.269531,138.10742 96.2187503,137.783205 96.1640625,137.462891 C96.5937521,137.509766 96.9414049,137.533203 97.2070312,137.533203 C97.5117203,137.533203 97.6640625,137.373048 97.6640625,137.052734 L97.6640625,133.707031 L96.2929688,134.228516 L96.2929688,134.228516 L96.1640625,133.244141 Z M104.8125,127.080078 L105.667969,127.080078 L105.667969,128.556641 L107.8125,128.556641 L107.8125,129.376953 L105.667969,129.376953 L105.667969,130.818359 L104.8125,130.818359 L104.8125,129.376953 L102.609375,129.376953 L102.609375,130.818359 L101.753906,130.818359 L101.753906,129.376953 L99.890625,129.376953 L99.890625,128.556641 L101.753906,128.556641 L101.753906,127.091797 L102.609375,127.091797 L102.609375,128.556641 L104.8125,128.556641 L104.8125,127.080078 Z M104.144531,137.017578 L106.324219,137.017578 L106.324219,134.919922 L104.144531,134.919922 L104.144531,137.017578 Z M101.109375,137.017578 L103.277344,137.017578 L103.277344,134.919922 L101.109375,134.919922 L101.109375,137.017578 Z M106.324219,132.095703 L104.144531,132.095703 L104.144531,134.169922 L106.324219,134.169922 L106.324219,132.095703 Z M101.109375,134.169922 L103.277344,134.169922 L103.277344,132.095703 L101.109375,132.095703 L101.109375,134.169922 Z M111.667969,129.623047 L114.914062,129.623047 L114.914062,127.080078 L115.828125,127.080078 L115.828125,129.623047 L119.34375,129.623047 L119.34375,130.466797 L115.828125,130.466797 L115.828125,132.001953 L116.226562,131.544922 C117.414068,132.498052 118.585932,133.494135 119.742188,134.533203 L119.0625,135.294922 C118.101558,134.33398 117.023443,133.341802 115.828125,132.318359 L115.828125,136.923828 L114.914062,136.923828 L114.914062,131.626953 C114.039058,133.142586 112.988287,134.494135 111.761719,135.681641 C111.542968,135.46289 111.29297,135.240236 111.011719,135.013672 C112.488289,133.669915 113.70312,132.154305 114.65625,130.466797 L111.667969,130.466797 L111.667969,129.623047 Z M113.074219,137.451172 L114.166408,137.468047 C115.710157,137.481797 117.603895,137.460547 119.847656,137.404297 L119.460938,138.306641 L119.460938,138.306641 L117.84823,138.325833 C115.95015,138.342056 114.319761,138.331752 112.957031,138.294922 C111.605462,138.271484 110.632815,137.826176 110.039062,136.958984 C109.812499,137.138673 109.355472,137.638668 108.667969,138.458984 L108.164062,137.462891 L108.855709,136.851602 C109.140147,136.602878 109.393972,136.384767 109.617188,136.197266 L109.617188,132.095703 L108.28125,132.095703 L108.28125,131.240234 L110.53125,131.240234 L110.53125,136.361328 C111.101565,137.048832 111.949213,137.412109 113.074219,137.451172 Z M109.371094,127.173828 C109.894534,127.783206 110.476559,128.517574 111.117188,129.376953 L110.308594,129.986328 C109.785154,129.181637 109.230472,128.419925 108.644531,127.701172 L109.371094,127.173828 Z M116.601562,127.876953 L117.140625,127.220703 L117.811408,127.668946 C118.280626,127.988868 118.627343,128.241796 118.851562,128.427734 L118.253906,129.177734 C117.816404,128.787107 117.265628,128.353518 116.601562,127.876953 Z M120.363281,129.048828 L125.988281,129.048828 L125.622395,128.366535 C125.397569,127.956813 125.210938,127.637371 125.0625,127.408203 L125.964844,126.986328 L126.220052,127.392578 C126.414496,127.710286 126.657551,128.121742 126.949219,128.626953 L126.105469,129.048828 L131.613281,129.048828 L131.613281,129.916016 L129.451172,129.916016 C129.033201,132.146496 128.134773,133.939446 126.755859,135.294922 C127.794927,136.052738 129.445301,136.732419 131.707031,137.333984 C131.347654,137.740236 131.07422,138.080077 130.886719,138.353516 C128.683583,137.591793 127.056646,136.794926 126.005859,135.962891 C124.951167,136.783207 123.265637,137.611324 120.949219,138.447266 L120.621094,138.013672 C120.503907,137.861329 120.378907,137.701173 120.246094,137.533203 C122.48048,136.861325 124.162104,136.113285 125.291016,135.289062 C123.865227,133.765617 122.958986,131.97462 122.572266,129.916016 L120.363281,129.916016 L120.363281,129.048828 Z M128.449219,129.916016 L123.509766,129.916016 C123.86133,131.8379 124.701165,133.425775 126.029297,134.679688 C127.298834,133.499994 128.105467,131.912119 128.449219,129.916016 Z M132.785156,133.583984 L133.62461,133.482468 C135.10945,133.292032 136.29642,133.077826 137.185547,132.839844 C136.248042,132.589843 135.300786,132.345704 134.34375,132.107422 C134.664064,131.76367 134.96875,131.42383 135.257812,131.087891 L132.46875,131.087891 L132.46875,130.314453 L135.890625,130.314453 C136.187501,129.939451 136.460936,129.568361 136.710938,129.201172 L137.660156,129.470703 C137.449218,129.751955 137.224611,130.033202 136.986328,130.314453 L143.53125,130.314453 L143.53125,131.087891 L141.011719,131.087891 C140.640623,131.74805 140.138675,132.283201 139.505859,132.693359 L140.813673,133.039297 C141.451172,133.209453 142.06406,133.37539 142.652344,133.537109 L142.277344,134.322266 C141.039056,133.931639 139.779303,133.558596 138.498047,133.203125 C137.310541,133.671877 135.519543,134.056639 133.125,134.357422 C133.03125,134.107421 132.917969,133.849611 132.785156,133.583984 Z M143.847656,137.369141 C143.58203,137.681642 143.35547,137.974608 143.167969,138.248047 C141.105458,137.630856 139.523443,136.875004 138.421875,135.980469 L138.421875,138.623047 L137.578125,138.623047 L137.578125,135.998047 C136.394525,136.833989 134.820322,137.587887 132.855469,138.259766 C132.675781,138.033202 132.44922,137.76758 132.175781,137.462891 C134.191416,136.958982 135.787103,136.337894 136.962891,135.599609 L132.445312,135.599609 L132.445312,134.814453 L137.578125,134.814453 L137.578125,133.853516 L138.421875,133.853516 L138.421875,134.814453 L143.625,134.814453 L143.625,135.599609 L139.060547,135.599609 C140.294928,136.431645 141.890615,137.021483 143.847656,137.369141 Z M132.785156,128.123047 L137.695312,128.123047 C137.546874,127.853514 137.375001,127.576173 137.179688,127.291016 L138.011719,126.916016 C138.265626,127.314455 138.505858,127.716795 138.732422,128.123047 L143.203125,128.123047 L143.203125,129.892578 L142.3125,129.892578 L142.3125,128.896484 L133.675781,128.896484 L133.675781,129.892578 L132.785156,129.892578 L132.785156,128.123047 Z M135.679688,131.732422 L137.7583,132.249878 C137.981932,132.306274 138.203124,132.362304 138.421875,132.417969 C139.109378,132.11328 139.646482,131.669925 140.033203,131.087891 L136.300781,131.087891 C136.101562,131.302735 135.894532,131.517577 135.679688,131.732422 Z M144.697266,136.396484 C144.697266,136.185546 144.769531,136.007813 144.914062,135.863281 C145.058594,135.718749 145.23828,135.646484 145.453125,135.646484 C145.671876,135.646484 145.853515,135.719726 145.998047,135.866211 C146.142579,136.012696 146.214844,136.189452 146.214844,136.396484 C146.214844,136.59961 146.142579,136.774413 145.998047,136.920898 C145.853515,137.067384 145.669923,137.140625 145.447266,137.140625 C145.232421,137.140625 145.053712,137.067384 144.911133,136.920898 C144.768554,136.774413 144.697266,136.59961 144.697266,136.396484 Z M147.585938,136.396484 C147.585938,136.185546 147.658202,136.007813 147.802734,135.863281 C147.947266,135.718749 148.126952,135.646484 148.341797,135.646484 C148.560548,135.646484 148.742187,135.719726 148.886719,135.866211 C149.031251,136.012696 149.103516,136.189452 149.103516,136.396484 C149.103516,136.59961 149.031251,136.774413 148.886719,136.920898 C148.742187,137.067384 148.558595,137.140625 148.335938,137.140625 C148.121093,137.140625 147.942384,137.067384 147.799805,136.920898 C147.657226,136.774413 147.585938,136.59961 147.585938,136.396484 Z M150.474609,136.396484 C150.474609,136.185546 150.546874,136.007813 150.691406,135.863281 C150.835938,135.718749 151.015624,135.646484 151.230469,135.646484 C151.44922,135.646484 151.630859,135.719726 151.775391,135.866211 C151.919923,136.012696 151.992188,136.189452 151.992188,136.396484 C151.992188,136.59961 151.919923,136.774413 151.775391,136.920898 C151.630859,137.067384 151.447267,137.140625 151.224609,137.140625 C151.009765,137.140625 150.831055,137.067384 150.688477,136.920898 C150.545898,136.774413 150.474609,136.59961 150.474609,136.396484 Z" id="描述文案描述文案描述文案..." fill="#9B9B9B" fill-rule="nonzero"></path>
                </g>
                <text id="样式二" font-family="MicrosoftYaHei, Microsoft YaHei" font-size="12" font-weight="normal" line-spacing="22" fill="#525A6E">
                    <tspan x="8" y="27">样式二</tspan>
                </text>
            </g>
        </g>
    </g>
</svg>