<?xml version="1.0" encoding="UTF-8"?>
<svg width="241px" height="197px" viewBox="0 0 241 197" version="1.1" xmlns="http://www.w3.org/2000/svg" xmlns:xlink="http://www.w3.org/1999/xlink">
    <!-- Generator: Sketch 58 (84663) - https://sketch.com -->
    <title>tree-check/style2</title>
    <desc>Created with Sketch.</desc>
    <defs>
        <polygon id="path-1" points="5 7.68048012 0.123236337 2.89238489 0.908910539 2.12099568 5.00284025 6.13491308 9.05160734 2.15975994 9.83728155 2.93114915"></polygon>
        <polygon id="path-3" points="5 7.68048012 0.123236337 2.89238489 0.908910539 2.12099568 5.00284025 6.13491308 9.05160734 2.15975994 9.83728155 2.93114915"></polygon>
        <polygon id="path-5" points="5 7.68048012 0.123236337 2.89238489 0.908910539 2.12099568 5.00284025 6.13491308 9.05160734 2.15975994 9.83728155 2.93114915"></polygon>
    </defs>
    <g id="页面-1" stroke="none" stroke-width="1" fill="none" fill-rule="evenodd">
        <g id="tree-check/style2">
            <g id="编组-20">
                <rect id="矩形备份" fill-opacity="0.01" fill="#FAFAFA" x="0" y="0" width="241" height="197"></rect>
                <path d="M80.1875,26.9316406 L91.8359375,26.9316406 L91.8359375,27.9628906 L80.1875,27.9628906 L80.1875,26.9316406 Z M98.1347656,27.2714844 C98.0136713,29.8418097 97.2148511,31.9199139 95.7382812,33.5058594 C95.4570298,33.224608 95.2070323,33.0058602 94.9882812,32.8496094 C95.9049479,31.8828077 96.5262032,30.8142679 96.8520505,29.6439629 L96.9335938,29.3222656 C97.2187514,28.2050725 97.3515626,26.287123 97.3320312,23.5683594 L96.2890625,23.5683594 L96.2890625,22.7363281 L102.136719,22.7363281 L102.136719,23.6152344 L101,25.9707031 L102.945312,25.9707031 L102.945312,26.8378906 C102.492185,28.2519602 101.876957,29.488276 101.099609,30.546875 C101.853519,31.3125038 102.777338,31.9785128 103.871094,32.5449219 C103.636718,32.7714855 103.375001,33.0605451 103.085938,33.4121094 C102.054682,32.7597624 101.18555,32.0644568 100.478516,31.3261719 C99.6777304,32.2324264 98.7343804,32.9863251 97.6484375,33.5878906 C97.4296864,33.2988267 97.2109386,33.0488292 96.9921875,32.8378906 C98.1171931,32.2011687 99.0703086,31.4492231 99.8515625,30.5820312 C99.148434,29.6523391 98.5761741,28.5488345 98.1347656,27.2714844 Z M100.027344,25.9472656 L101.152344,23.5683594 L98.2226562,23.5683594 L98.2241211,24.3828126 C98.2231446,24.6464838 98.2207031,24.9023425 98.2167969,25.1503906 C98.8144561,27.1738382 99.5624955,28.7363226 100.460938,29.8378906 C101.125003,28.9316361 101.628905,27.9199275 101.972656,26.8027344 L100.027344,26.8027344 L100.027344,25.9472656 Z M93.7578125,28.4433594 C94.5703166,28.3574214 95.3984333,28.2597662 96.2421875,28.1503906 L96.1484375,28.9121094 L96.1484375,28.9121094 L95.0932698,29.0469948 C94.2442589,29.1601962 93.4709856,29.27539 92.7734375,29.3925781 L92.5625,28.5605469 C93.0273461,28.1503886 93.6113246,27.4043023 94.3144531,26.3222656 C93.7128876,26.3652346 93.0937532,26.4199215 92.4570312,26.4863281 L92.234375,25.7480469 C92.8828157,25.0292933 93.6367145,23.7793058 94.4960938,21.9980469 L95.3867188,22.3847656 L94.9160925,23.1694553 C94.3048421,24.1744561 93.7585962,25.0144498 93.2773438,25.6894531 L94.7539062,25.6308594 L94.7539062,25.6308594 C95.0351577,25.1699196 95.3359359,24.6621121 95.65625,24.1074219 L96.5,24.5058594 L95.8240605,25.5221124 C94.9653098,26.8008638 94.2765651,27.774606 93.7578125,28.4433594 Z M92.1875,31.1738281 C93.4375062,30.8769516 94.7070248,30.5527361 95.9960938,30.2011719 C96.0039063,30.4746107 96.0156249,30.7441393 96.03125,31.0097656 L94.608519,31.4025276 C93.8529051,31.6143195 93.1552766,31.8154297 92.515625,32.0058594 L92.1875,31.1738281 Z M115.835938,32.2050781 C115.539061,32.5253922 115.296876,32.8222643 115.109375,33.0957031 C113.117178,32.4316373 111.542975,31.3652417 110.386719,29.8964844 L110.386719,33.6816406 L109.484375,33.6816406 L109.484375,29.8964844 C108.359369,31.224616 106.81251,32.3378861 104.84375,33.2363281 C104.664062,33.001952 104.437501,32.7363296 104.164062,32.4394531 C105.820321,31.8769503 107.249994,31.0253963 108.453125,29.8847656 L104.375,29.8847656 L104.375,29.0644531 L109.484375,29.0644531 L109.484375,28.1738281 L110.386719,28.1738281 L110.386719,29.0644531 L115.683594,29.0644531 L115.683594,29.8847656 L111.324219,29.8847656 C112.457037,31.0332089 113.960928,31.8066386 115.835938,32.2050781 Z M104.28125,23.1582031 L107.5625,23.1582031 L107.5625,22.0566406 L108.476562,22.0566406 L108.476562,23.1582031 L111.523438,23.1582031 L111.523438,22.0566406 L112.4375,22.0566406 L112.4375,23.1582031 L115.753906,23.1582031 L115.753906,23.9902344 L112.4375,23.9902344 L112.4375,24.6582031 L111.523438,24.6582031 L111.523438,23.9902344 L108.476562,23.9902344 L108.476562,24.7636719 L107.5625,24.7636719 L107.5625,23.9902344 L104.28125,23.9902344 L104.28125,23.1582031 Z M105.089844,26.0410156 L104.985677,25.509766 C104.96658,25.4160161 104.946615,25.319662 104.925781,25.2207031 C108.535174,25.1816404 111.726549,25.0605479 114.5,24.8574219 L114.640625,25.6777344 C111.781236,25.8574219 108.597674,25.9785153 105.089844,26.0410156 Z M111.664062,27.9628906 C112.195315,27.4863257 112.792965,26.8496134 113.457031,26.0527344 L114.230469,26.6621094 L113.282566,27.6086254 C112.843587,28.0413171 112.511119,28.3586228 112.285156,28.5605469 L111.664062,27.9628906 Z M105.734375,26.7675781 L106.449219,26.3222656 L106.671441,26.6110391 C106.946904,26.9810232 107.279078,27.4667939 107.667969,28.0683594 L106.859375,28.5839844 C106.507811,27.9589813 106.132814,27.3535186 105.734375,26.7675781 Z M108.945312,26.3925781 L109.683594,26.0292969 C110.058596,26.5761746 110.382811,27.1035131 110.65625,27.6113281 L109.824219,28.0566406 C109.660155,27.6347635 109.36719,27.0800816 108.945312,26.3925781 Z M119.292969,21.9394531 C119.871097,22.4941434 120.378904,23.005857 120.816406,23.4746094 L120.382812,23.8378906 L123.130859,23.8378906 C123.560549,23.2675753 123.996092,22.6464877 124.4375,21.9746094 L125.375,22.4785156 C124.972654,22.9667993 124.583986,23.4199198 124.208984,23.8378906 L126.605469,23.8378906 L126.605469,29.5214844 L125.714844,29.5214844 L125.714844,28.9707031 L122.457031,28.9707031 L122.457031,30.2949219 L127.765625,30.2949219 L127.765625,31.1386719 L122.457031,31.1386719 L122.457031,33.6113281 L121.542969,33.6113281 L121.542969,31.1386719 L116.234375,31.1386719 L116.234375,30.2949219 L121.542969,30.2949219 L121.542969,28.9707031 L118.296875,28.9707031 L118.296875,29.5214844 L117.40625,29.5214844 L117.40625,23.8378906 L119.837891,23.8378906 C119.462889,23.4003884 119.058596,22.9511742 118.625,22.4902344 L119.292969,21.9394531 Z M125.714844,26.7910156 L122.457031,26.7910156 L122.457031,28.1503906 L125.714844,28.1503906 L125.714844,26.7910156 Z M121.542969,26.7910156 L118.296875,26.7910156 L118.296875,28.1503906 L121.542969,28.1503906 L121.542969,26.7910156 Z M125.714844,24.6582031 L122.457031,24.6582031 L122.457031,25.9941406 L125.714844,25.9941406 L125.714844,24.6582031 Z M121.542969,24.6582031 L118.296875,24.6582031 L118.296875,25.9941406 L121.542969,25.9941406 L121.542969,24.6582031 Z" id="一级菜单" fill="#333333" fill-rule="nonzero"></path>
                <g id="编组-6" transform="translate(192.000000, 20.000000)">
                    <rect id="Rectangle" stroke="#4F7DE7" x="0.5" y="0.5" width="13" height="13" rx="2"></rect>
                    <rect id="矩形" fill="#4F7DE7" x="4" y="6.5" width="6" height="1" rx="0.5"></rect>
                </g>
                <path d="M80.1875,130.931641 L91.8359375,130.931641 L91.8359375,131.962891 L80.1875,131.962891 L80.1875,130.931641 Z M98.1347656,131.271484 C98.0136713,133.84181 97.2148511,135.919914 95.7382812,137.505859 C95.4570298,137.224608 95.2070323,137.00586 94.9882812,136.849609 C95.9049479,135.882808 96.5262032,134.814268 96.8520505,133.643963 L96.9335938,133.322266 C97.2187514,132.205073 97.3515626,130.287123 97.3320312,127.568359 L96.2890625,127.568359 L96.2890625,126.736328 L102.136719,126.736328 L102.136719,127.615234 L101,129.970703 L102.945312,129.970703 L102.945312,130.837891 C102.492185,132.25196 101.876957,133.488276 101.099609,134.546875 C101.853519,135.312504 102.777338,135.978513 103.871094,136.544922 C103.636718,136.771486 103.375001,137.060545 103.085938,137.412109 C102.054682,136.759762 101.18555,136.064457 100.478516,135.326172 C99.6777304,136.232426 98.7343804,136.986325 97.6484375,137.587891 C97.4296864,137.298827 97.2109386,137.048829 96.9921875,136.837891 C98.1171931,136.201169 99.0703086,135.449223 99.8515625,134.582031 C99.148434,133.652339 98.5761741,132.548835 98.1347656,131.271484 Z M100.027344,129.947266 L101.152344,127.568359 L98.2226562,127.568359 L98.2241211,128.382813 C98.2231446,128.646484 98.2207031,128.902343 98.2167969,129.150391 C98.8144561,131.173838 99.5624955,132.736323 100.460938,133.837891 C101.125003,132.931636 101.628905,131.919927 101.972656,130.802734 L100.027344,130.802734 L100.027344,129.947266 Z M93.7578125,132.443359 C94.5703166,132.357421 95.3984333,132.259766 96.2421875,132.150391 L96.1484375,132.912109 L96.1484375,132.912109 L95.0932698,133.046995 C94.2442589,133.160196 93.4709856,133.27539 92.7734375,133.392578 L92.5625,132.560547 C93.0273461,132.150389 93.6113246,131.404302 94.3144531,130.322266 C93.7128876,130.365235 93.0937532,130.419922 92.4570312,130.486328 L92.234375,129.748047 C92.8828157,129.029293 93.6367145,127.779306 94.4960938,125.998047 L95.3867188,126.384766 L94.9160925,127.169455 C94.3048421,128.174456 93.7585962,129.01445 93.2773438,129.689453 L94.7539062,129.630859 L94.7539062,129.630859 C95.0351577,129.16992 95.3359359,128.662112 95.65625,128.107422 L96.5,128.505859 L95.8240605,129.522112 C94.9653098,130.800864 94.2765651,131.774606 93.7578125,132.443359 Z M92.1875,135.173828 C93.4375062,134.876952 94.7070248,134.552736 95.9960938,134.201172 C96.0039063,134.474611 96.0156249,134.744139 96.03125,135.009766 L94.608519,135.402528 C93.8529051,135.61432 93.1552766,135.81543 92.515625,136.005859 L92.1875,135.173828 Z M115.835938,136.205078 C115.539061,136.525392 115.296876,136.822264 115.109375,137.095703 C113.117178,136.431637 111.542975,135.365242 110.386719,133.896484 L110.386719,137.681641 L109.484375,137.681641 L109.484375,133.896484 C108.359369,135.224616 106.81251,136.337886 104.84375,137.236328 C104.664062,137.001952 104.437501,136.73633 104.164062,136.439453 C105.820321,135.87695 107.249994,135.025396 108.453125,133.884766 L104.375,133.884766 L104.375,133.064453 L109.484375,133.064453 L109.484375,132.173828 L110.386719,132.173828 L110.386719,133.064453 L115.683594,133.064453 L115.683594,133.884766 L111.324219,133.884766 C112.457037,135.033209 113.960928,135.806639 115.835938,136.205078 Z M104.28125,127.158203 L107.5625,127.158203 L107.5625,126.056641 L108.476562,126.056641 L108.476562,127.158203 L111.523438,127.158203 L111.523438,126.056641 L112.4375,126.056641 L112.4375,127.158203 L115.753906,127.158203 L115.753906,127.990234 L112.4375,127.990234 L112.4375,128.658203 L111.523438,128.658203 L111.523438,127.990234 L108.476562,127.990234 L108.476562,128.763672 L107.5625,128.763672 L107.5625,127.990234 L104.28125,127.990234 L104.28125,127.158203 Z M105.089844,130.041016 L104.985677,129.509766 C104.96658,129.416016 104.946615,129.319662 104.925781,129.220703 C108.535174,129.18164 111.726549,129.060548 114.5,128.857422 L114.640625,129.677734 C111.781236,129.857422 108.597674,129.978515 105.089844,130.041016 Z M111.664062,131.962891 C112.195315,131.486326 112.792965,130.849613 113.457031,130.052734 L114.230469,130.662109 L113.282566,131.608625 C112.843587,132.041317 112.511119,132.358623 112.285156,132.560547 L111.664062,131.962891 Z M105.734375,130.767578 L106.449219,130.322266 L106.671441,130.611039 C106.946904,130.981023 107.279078,131.466794 107.667969,132.068359 L106.859375,132.583984 C106.507811,131.958981 106.132814,131.353519 105.734375,130.767578 Z M108.945312,130.392578 L109.683594,130.029297 C110.058596,130.576175 110.382811,131.103513 110.65625,131.611328 L109.824219,132.056641 C109.660155,131.634764 109.36719,131.080082 108.945312,130.392578 Z M116.234375,134.294922 L121.542969,134.294922 L121.542969,132.970703 L118.296875,132.970703 L118.296875,133.521484 L117.40625,133.521484 L117.40625,127.837891 L119.837891,127.837891 C119.462889,127.400388 119.058596,126.951174 118.625,126.490234 L119.292969,125.939453 C119.871097,126.494143 120.378904,127.005857 120.816406,127.474609 L120.382812,127.837891 L123.130859,127.837891 C123.560549,127.267575 123.996092,126.646488 124.4375,125.974609 L125.375,126.478516 C124.972654,126.966799 124.583986,127.41992 124.208984,127.837891 L126.605469,127.837891 L126.605469,133.521484 L125.714844,133.521484 L125.714844,132.970703 L122.457031,132.970703 L122.457031,134.294922 L127.765625,134.294922 L127.765625,135.138672 L122.457031,135.138672 L122.457031,137.611328 L121.542969,137.611328 L121.542969,135.138672 L116.234375,135.138672 L116.234375,134.294922 Z M122.457031,132.150391 L125.714844,132.150391 L125.714844,130.791016 L122.457031,130.791016 L122.457031,132.150391 Z M118.296875,132.150391 L121.542969,132.150391 L121.542969,130.791016 L118.296875,130.791016 L118.296875,132.150391 Z M125.714844,128.658203 L122.457031,128.658203 L122.457031,129.994141 L125.714844,129.994141 L125.714844,128.658203 Z M118.296875,129.994141 L121.542969,129.994141 L121.542969,128.658203 L118.296875,128.658203 L118.296875,129.994141 Z M134.140625,136 L128.621094,136 L128.621094,135.003906 L131.257812,132.373047 C131.984379,131.646481 132.470702,131.071291 132.716797,130.647461 C132.962892,130.223631 133.085938,129.785159 133.085938,129.332031 C133.085938,128.816404 132.941408,128.4209 132.652344,128.145508 C132.36328,127.870116 131.945315,127.732422 131.398438,127.732422 C130.58984,127.732422 129.818363,128.076168 129.083984,128.763672 L129.083984,127.597656 C129.798832,127.046872 130.630855,126.771484 131.580078,126.771484 C132.396488,126.771484 133.041013,126.992185 133.513672,127.433594 C133.98633,127.875002 134.222656,128.468746 134.222656,129.214844 C134.222656,129.777347 134.071291,130.329099 133.768555,130.870117 C133.465819,131.411136 132.892582,132.099605 132.048828,132.935547 L129.980469,134.957031 L129.980469,134.980469 L134.140625,134.980469 L134.140625,136 Z" id="一级菜单2" fill="#4F7DE7" fill-rule="nonzero"></path>
                <g id="arrow-down" transform="translate(67.000000, 165.000000) rotate(-90.000000) translate(-67.000000, -165.000000) translate(62.000000, 160.000000)">
                    <rect id="Rectangle" fill="#D8D8D8" opacity="0.01" x="0" y="0" width="10" height="10"></rect>
                    <mask id="mask-2" fill="white">
                        <use xlink:href="#path-1"></use>
                    </mask>
                    <use id="Path-2" fill="#333333" fill-rule="nonzero" xlink:href="#path-1"></use>
                </g>
                <path d="M80.1875,164.931641 L91.8359375,164.931641 L91.8359375,165.962891 L80.1875,165.962891 L80.1875,164.931641 Z M98.1347656,165.271484 C98.0136713,167.84181 97.2148511,169.919914 95.7382812,171.505859 C95.4570298,171.224608 95.2070323,171.00586 94.9882812,170.849609 C95.9049479,169.882808 96.5262032,168.814268 96.8520505,167.643963 L96.9335938,167.322266 C97.2187514,166.205073 97.3515626,164.287123 97.3320312,161.568359 L96.2890625,161.568359 L96.2890625,160.736328 L102.136719,160.736328 L102.136719,161.615234 L101,163.970703 L102.945312,163.970703 L102.945312,164.837891 C102.492185,166.25196 101.876957,167.488276 101.099609,168.546875 C101.853519,169.312504 102.777338,169.978513 103.871094,170.544922 C103.636718,170.771486 103.375001,171.060545 103.085938,171.412109 C102.054682,170.759762 101.18555,170.064457 100.478516,169.326172 C99.6777304,170.232426 98.7343804,170.986325 97.6484375,171.587891 C97.4296864,171.298827 97.2109386,171.048829 96.9921875,170.837891 C98.1171931,170.201169 99.0703086,169.449223 99.8515625,168.582031 C99.148434,167.652339 98.5761741,166.548835 98.1347656,165.271484 Z M100.027344,163.947266 L101.152344,161.568359 L98.2226562,161.568359 L98.2241211,162.382813 C98.2231446,162.646484 98.2207031,162.902343 98.2167969,163.150391 C98.8144561,165.173838 99.5624955,166.736323 100.460938,167.837891 C101.125003,166.931636 101.628905,165.919927 101.972656,164.802734 L100.027344,164.802734 L100.027344,163.947266 Z M93.7578125,166.443359 C94.5703166,166.357421 95.3984333,166.259766 96.2421875,166.150391 L96.1484375,166.912109 L96.1484375,166.912109 L95.0932698,167.046995 C94.2442589,167.160196 93.4709856,167.27539 92.7734375,167.392578 L92.5625,166.560547 C93.0273461,166.150389 93.6113246,165.404302 94.3144531,164.322266 C93.7128876,164.365235 93.0937532,164.419922 92.4570312,164.486328 L92.234375,163.748047 C92.8828157,163.029293 93.6367145,161.779306 94.4960938,159.998047 L95.3867188,160.384766 L94.9160925,161.169455 C94.3048421,162.174456 93.7585962,163.01445 93.2773438,163.689453 L94.7539062,163.630859 L94.7539062,163.630859 C95.0351577,163.16992 95.3359359,162.662112 95.65625,162.107422 L96.5,162.505859 L95.8240605,163.522112 C94.9653098,164.800864 94.2765651,165.774606 93.7578125,166.443359 Z M92.1875,169.173828 C93.4375062,168.876952 94.7070248,168.552736 95.9960938,168.201172 C96.0039063,168.474611 96.0156249,168.744139 96.03125,169.009766 L94.608519,169.402528 C93.8529051,169.61432 93.1552766,169.81543 92.515625,170.005859 L92.1875,169.173828 Z M115.835938,170.205078 C115.539061,170.525392 115.296876,170.822264 115.109375,171.095703 C113.117178,170.431637 111.542975,169.365242 110.386719,167.896484 L110.386719,171.681641 L109.484375,171.681641 L109.484375,167.896484 C108.359369,169.224616 106.81251,170.337886 104.84375,171.236328 C104.664062,171.001952 104.437501,170.73633 104.164062,170.439453 C105.820321,169.87695 107.249994,169.025396 108.453125,167.884766 L104.375,167.884766 L104.375,167.064453 L109.484375,167.064453 L109.484375,166.173828 L110.386719,166.173828 L110.386719,167.064453 L115.683594,167.064453 L115.683594,167.884766 L111.324219,167.884766 C112.457037,169.033209 113.960928,169.806639 115.835938,170.205078 Z M104.28125,161.158203 L107.5625,161.158203 L107.5625,160.056641 L108.476562,160.056641 L108.476562,161.158203 L111.523438,161.158203 L111.523438,160.056641 L112.4375,160.056641 L112.4375,161.158203 L115.753906,161.158203 L115.753906,161.990234 L112.4375,161.990234 L112.4375,162.658203 L111.523438,162.658203 L111.523438,161.990234 L108.476562,161.990234 L108.476562,162.763672 L107.5625,162.763672 L107.5625,161.990234 L104.28125,161.990234 L104.28125,161.158203 Z M105.089844,164.041016 L104.985677,163.509766 C104.96658,163.416016 104.946615,163.319662 104.925781,163.220703 C108.535174,163.18164 111.726549,163.060548 114.5,162.857422 L114.640625,163.677734 C111.781236,163.857422 108.597674,163.978515 105.089844,164.041016 Z M111.664062,165.962891 C112.195315,165.486326 112.792965,164.849613 113.457031,164.052734 L114.230469,164.662109 L113.282566,165.608625 C112.843587,166.041317 112.511119,166.358623 112.285156,166.560547 L111.664062,165.962891 Z M105.734375,164.767578 L106.449219,164.322266 L106.671441,164.611039 C106.946904,164.981023 107.279078,165.466794 107.667969,166.068359 L106.859375,166.583984 C106.507811,165.958981 106.132814,165.353519 105.734375,164.767578 Z M108.945312,164.392578 L109.683594,164.029297 C110.058596,164.576175 110.382811,165.103513 110.65625,165.611328 L109.824219,166.056641 C109.660155,165.634764 109.36719,165.080082 108.945312,164.392578 Z M116.234375,168.294922 L121.542969,168.294922 L121.542969,166.970703 L118.296875,166.970703 L118.296875,167.521484 L117.40625,167.521484 L117.40625,161.837891 L119.837891,161.837891 C119.462889,161.400388 119.058596,160.951174 118.625,160.490234 L119.292969,159.939453 C119.871097,160.494143 120.378904,161.005857 120.816406,161.474609 L120.382812,161.837891 L123.130859,161.837891 C123.560549,161.267575 123.996092,160.646488 124.4375,159.974609 L125.375,160.478516 C124.972654,160.966799 124.583986,161.41992 124.208984,161.837891 L126.605469,161.837891 L126.605469,167.521484 L125.714844,167.521484 L125.714844,166.970703 L122.457031,166.970703 L122.457031,168.294922 L127.765625,168.294922 L127.765625,169.138672 L122.457031,169.138672 L122.457031,171.611328 L121.542969,171.611328 L121.542969,169.138672 L116.234375,169.138672 L116.234375,168.294922 Z M122.457031,166.150391 L125.714844,166.150391 L125.714844,164.791016 L122.457031,164.791016 L122.457031,166.150391 Z M118.296875,166.150391 L121.542969,166.150391 L121.542969,164.791016 L118.296875,164.791016 L118.296875,166.150391 Z M125.714844,162.658203 L122.457031,162.658203 L122.457031,163.994141 L125.714844,163.994141 L125.714844,162.658203 Z M118.296875,163.994141 L121.542969,163.994141 L121.542969,162.658203 L118.296875,162.658203 L118.296875,163.994141 Z M128.837891,168.482422 C129.458987,168.962893 130.160152,169.203125 130.941406,169.203125 C131.566409,169.203125 132.061522,169.049806 132.426758,168.743164 C132.791994,168.436522 132.974609,168.025393 132.974609,167.509766 C132.974609,166.361322 132.152352,165.787109 130.507812,165.787109 L129.751953,165.787109 L129.751953,164.837891 L130.472656,164.837891 C131.929695,164.837891 132.658203,164.298834 132.658203,163.220703 C132.658203,162.224604 132.101568,161.726562 130.988281,161.726562 C130.351559,161.726562 129.751956,161.941404 129.189453,162.371094 L129.189453,161.287109 C129.783206,160.943358 130.476559,160.771484 131.269531,160.771484 C132.042973,160.771484 132.66406,160.973631 133.132812,161.37793 C133.601565,161.782229 133.835938,162.306637 133.835938,162.951172 C133.835938,164.138678 133.230475,164.902342 132.019531,165.242188 L132.019531,165.265625 C132.675785,165.335938 133.194334,165.567381 133.575195,165.959961 C133.956057,166.352541 134.146484,166.841794 134.146484,167.427734 C134.146484,168.244145 133.852542,168.902341 133.264648,169.402344 C132.676755,169.902346 131.894536,170.152344 130.917969,170.152344 C130.058589,170.152344 129.365237,169.992189 128.837891,169.671875 L128.837891,168.482422 Z" id="一级菜单3" fill="#333333" fill-rule="nonzero"></path>
                <path d="M91.21875,59.5332031 L100.78125,59.5332031 L100.78125,60.5410156 L91.21875,60.5410156 L91.21875,59.5332031 Z M90.3515625,67.2089844 L101.613281,67.2089844 L101.613281,68.1933594 L90.3515625,68.1933594 L90.3515625,67.2089844 Z M108.134766,63.2714844 C108.013671,65.8418097 107.214851,67.9199139 105.738281,69.5058594 C105.45703,69.224608 105.207032,69.0058602 104.988281,68.8496094 C105.904948,67.8828077 106.526203,66.8142679 106.85205,65.6439629 L106.933594,65.3222656 C107.218751,64.2050725 107.351563,62.287123 107.332031,59.5683594 L106.289062,59.5683594 L106.289062,58.7363281 L112.136719,58.7363281 L112.136719,59.6152344 L111,61.9707031 L112.945312,61.9707031 L112.945312,62.8378906 C112.492185,64.2519602 111.876957,65.488276 111.099609,66.546875 C111.853519,67.3125038 112.777338,67.9785128 113.871094,68.5449219 C113.636718,68.7714855 113.375001,69.0605451 113.085938,69.4121094 C112.054682,68.7597624 111.18555,68.0644568 110.478516,67.3261719 C109.67773,68.2324264 108.73438,68.9863251 107.648438,69.5878906 C107.429686,69.2988267 107.210939,69.0488292 106.992188,68.8378906 C108.117193,68.2011687 109.070309,67.4492231 109.851562,66.5820312 C109.148434,65.6523391 108.576174,64.5488345 108.134766,63.2714844 Z M110.027344,61.9472656 L111.152344,59.5683594 L108.222656,59.5683594 L108.224121,60.3828126 C108.223145,60.6464838 108.220703,60.9023425 108.216797,61.1503906 C108.814456,63.1738382 109.562496,64.7363226 110.460938,65.8378906 C111.125003,64.9316361 111.628905,63.9199275 111.972656,62.8027344 L110.027344,62.8027344 L110.027344,61.9472656 Z M103.757812,64.4433594 C104.570317,64.3574214 105.398433,64.2597662 106.242188,64.1503906 L106.148438,64.9121094 L106.148438,64.9121094 L105.09327,65.0469948 C104.244259,65.1601962 103.470986,65.27539 102.773438,65.3925781 L102.5625,64.5605469 C103.027346,64.1503886 103.611325,63.4043023 104.314453,62.3222656 C103.712888,62.3652346 103.093753,62.4199215 102.457031,62.4863281 L102.234375,61.7480469 C102.882816,61.0292933 103.636714,59.7793058 104.496094,57.9980469 L105.386719,58.3847656 L104.916092,59.1694553 C104.304842,60.1744561 103.758596,61.0144498 103.277344,61.6894531 L104.753906,61.6308594 L104.753906,61.6308594 C105.035158,61.1699196 105.335936,60.6621121 105.65625,60.1074219 L106.5,60.5058594 L105.824061,61.5221124 C104.96531,62.8008638 104.276565,63.774606 103.757812,64.4433594 Z M102.1875,67.1738281 C103.437506,66.8769516 104.707025,66.5527361 105.996094,66.2011719 C106.003906,66.4746107 106.015625,66.7441393 106.03125,67.0097656 L104.608519,67.4025276 C103.852905,67.6143195 103.155277,67.8154297 102.515625,68.0058594 L102.1875,67.1738281 Z M125.835938,68.2050781 C125.539061,68.5253922 125.296876,68.8222643 125.109375,69.0957031 C123.117178,68.4316373 121.542975,67.3652417 120.386719,65.8964844 L120.386719,69.6816406 L119.484375,69.6816406 L119.484375,65.8964844 C118.359369,67.224616 116.81251,68.3378861 114.84375,69.2363281 C114.664062,69.001952 114.437501,68.7363296 114.164062,68.4394531 C115.820321,67.8769503 117.249994,67.0253963 118.453125,65.8847656 L114.375,65.8847656 L114.375,65.0644531 L119.484375,65.0644531 L119.484375,64.1738281 L120.386719,64.1738281 L120.386719,65.0644531 L125.683594,65.0644531 L125.683594,65.8847656 L121.324219,65.8847656 C122.457037,67.0332089 123.960928,67.8066386 125.835938,68.2050781 Z M114.28125,59.1582031 L117.5625,59.1582031 L117.5625,58.0566406 L118.476562,58.0566406 L118.476562,59.1582031 L121.523438,59.1582031 L121.523438,58.0566406 L122.4375,58.0566406 L122.4375,59.1582031 L125.753906,59.1582031 L125.753906,59.9902344 L122.4375,59.9902344 L122.4375,60.6582031 L121.523438,60.6582031 L121.523438,59.9902344 L118.476562,59.9902344 L118.476562,60.7636719 L117.5625,60.7636719 L117.5625,59.9902344 L114.28125,59.9902344 L114.28125,59.1582031 Z M115.089844,62.0410156 L114.985677,61.509766 C114.96658,61.4160161 114.946615,61.319662 114.925781,61.2207031 C118.535174,61.1816404 121.726549,61.0605479 124.5,60.8574219 L124.640625,61.6777344 C121.781236,61.8574219 118.597674,61.9785153 115.089844,62.0410156 Z M121.664062,63.9628906 C122.195315,63.4863257 122.792965,62.8496134 123.457031,62.0527344 L124.230469,62.6621094 L123.282566,63.6086254 C122.843587,64.0413171 122.511119,64.3586228 122.285156,64.5605469 L121.664062,63.9628906 Z M115.734375,62.7675781 L116.449219,62.3222656 L116.671441,62.6110391 C116.946904,62.9810232 117.279078,63.4667939 117.667969,64.0683594 L116.859375,64.5839844 C116.507811,63.9589813 116.132814,63.3535186 115.734375,62.7675781 Z M118.945312,62.3925781 L119.683594,62.0292969 C120.058596,62.5761746 120.382811,63.1035131 120.65625,63.6113281 L119.824219,64.0566406 C119.660155,63.6347635 119.36719,63.0800816 118.945312,62.3925781 Z M126.234375,66.2949219 L131.542969,66.2949219 L131.542969,64.9707031 L128.296875,64.9707031 L128.296875,65.5214844 L127.40625,65.5214844 L127.40625,59.8378906 L129.837891,59.8378906 C129.462889,59.4003884 129.058596,58.9511742 128.625,58.4902344 L129.292969,57.9394531 C129.871097,58.4941434 130.378904,59.005857 130.816406,59.4746094 L130.382812,59.8378906 L133.130859,59.8378906 C133.560549,59.2675753 133.996092,58.6464877 134.4375,57.9746094 L135.375,58.4785156 C134.972654,58.9667993 134.583986,59.4199198 134.208984,59.8378906 L136.605469,59.8378906 L136.605469,65.5214844 L135.714844,65.5214844 L135.714844,64.9707031 L132.457031,64.9707031 L132.457031,66.2949219 L137.765625,66.2949219 L137.765625,67.1386719 L132.457031,67.1386719 L132.457031,69.6113281 L131.542969,69.6113281 L131.542969,67.1386719 L126.234375,67.1386719 L126.234375,66.2949219 Z M132.457031,64.1503906 L135.714844,64.1503906 L135.714844,62.7910156 L132.457031,62.7910156 L132.457031,64.1503906 Z M128.296875,64.1503906 L131.542969,64.1503906 L131.542969,62.7910156 L128.296875,62.7910156 L128.296875,64.1503906 Z M135.714844,60.6582031 L132.457031,60.6582031 L132.457031,61.9941406 L135.714844,61.9941406 L135.714844,60.6582031 Z M128.296875,61.9941406 L131.542969,61.9941406 L131.542969,60.6582031 L128.296875,60.6582031 L128.296875,61.9941406 Z M144.310547,68 L139.107422,68 L139.107422,67.0097656 L141.140625,67.0097656 L141.140625,60.1191406 L139.054688,60.7226562 L139.054688,59.6679688 L142.283203,58.7304688 L142.283203,67.0097656 L144.310547,67.0097656 L144.310547,68 Z" id="二级菜单1" fill="#4F7DE7" fill-rule="nonzero"></path>
                <g id="勾选备份-26" transform="translate(191.000000, 55.000000)">
                    <g id="编组-4">
                        <rect id="矩形" fill-opacity="0.01" fill="#FFFFFF" x="0" y="0" width="16" height="16"></rect>
                        <path d="M4.22066539,4.55425032 C4.58885523,4.55425032 4.88733206,4.85272716 4.88733206,5.22091699 L4.88699873,8.55325032 L12.2206654,8.55425032 C12.5888552,8.55425032 12.8873321,8.85272716 12.8873321,9.22091699 C12.8873321,9.58910682 12.5888552,9.88758366 12.2206654,9.88758366 L4.22066539,9.88758366 L4.22066539,9.88758366 C3.85247556,9.88758366 3.55399873,9.58910682 3.55399873,9.22091699 L3.55399873,5.22091699 C3.55399873,4.85272716 3.85247556,4.55425032 4.22066539,4.55425032 Z" id="矩形-2" fill="#4F7DE7" transform="translate(8.220665, 7.220917) rotate(-45.000000) translate(-8.220665, -7.220917) "></path>
                    </g>
                </g>
                <g id="勾选备份-26" transform="translate(191.000000, 123.000000)">
                    <g id="编组-4">
                        <rect id="矩形" fill-opacity="0.01" fill="#FFFFFF" x="0" y="0" width="16" height="16"></rect>
                        <path d="M4.22066539,4.55425032 C4.58885523,4.55425032 4.88733206,4.85272716 4.88733206,5.22091699 L4.88699873,8.55325032 L12.2206654,8.55425032 C12.5888552,8.55425032 12.8873321,8.85272716 12.8873321,9.22091699 C12.8873321,9.58910682 12.5888552,9.88758366 12.2206654,9.88758366 L4.22066539,9.88758366 L4.22066539,9.88758366 C3.85247556,9.88758366 3.55399873,9.58910682 3.55399873,9.22091699 L3.55399873,5.22091699 C3.55399873,4.85272716 3.85247556,4.55425032 4.22066539,4.55425032 Z" id="矩形-2" fill="#4F7DE7" transform="translate(8.220665, 7.220917) rotate(-45.000000) translate(-8.220665, -7.220917) "></path>
                    </g>
                </g>
                <path d="M91.21875,91.5332031 L100.78125,91.5332031 L100.78125,92.5410156 L91.21875,92.5410156 L91.21875,91.5332031 Z M90.3515625,99.2089844 L101.613281,99.2089844 L101.613281,100.193359 L90.3515625,100.193359 L90.3515625,99.2089844 Z M108.134766,95.2714844 C108.013671,97.8418097 107.214851,99.9199139 105.738281,101.505859 C105.45703,101.224608 105.207032,101.00586 104.988281,100.849609 C105.904948,99.8828077 106.526203,98.8142679 106.85205,97.6439629 L106.933594,97.3222656 C107.218751,96.2050725 107.351563,94.287123 107.332031,91.5683594 L106.289062,91.5683594 L106.289062,90.7363281 L112.136719,90.7363281 L112.136719,91.6152344 L111,93.9707031 L112.945312,93.9707031 L112.945312,94.8378906 C112.492185,96.2519602 111.876957,97.488276 111.099609,98.546875 C111.853519,99.3125038 112.777338,99.9785128 113.871094,100.544922 C113.636718,100.771486 113.375001,101.060545 113.085938,101.412109 C112.054682,100.759762 111.18555,100.064457 110.478516,99.3261719 C109.67773,100.232426 108.73438,100.986325 107.648438,101.587891 C107.429686,101.298827 107.210939,101.048829 106.992188,100.837891 C108.117193,100.201169 109.070309,99.4492231 109.851562,98.5820312 C109.148434,97.6523391 108.576174,96.5488345 108.134766,95.2714844 Z M110.027344,93.9472656 L111.152344,91.5683594 L108.222656,91.5683594 L108.224121,92.3828126 C108.223145,92.6464838 108.220703,92.9023425 108.216797,93.1503906 C108.814456,95.1738382 109.562496,96.7363226 110.460938,97.8378906 C111.125003,96.9316361 111.628905,95.9199275 111.972656,94.8027344 L110.027344,94.8027344 L110.027344,93.9472656 Z M103.757812,96.4433594 C104.570317,96.3574214 105.398433,96.2597662 106.242188,96.1503906 L106.148438,96.9121094 L106.148438,96.9121094 L105.09327,97.0469948 C104.244259,97.1601962 103.470986,97.27539 102.773438,97.3925781 L102.5625,96.5605469 C103.027346,96.1503886 103.611325,95.4043023 104.314453,94.3222656 C103.712888,94.3652346 103.093753,94.4199215 102.457031,94.4863281 L102.234375,93.7480469 C102.882816,93.0292933 103.636714,91.7793058 104.496094,89.9980469 L105.386719,90.3847656 L104.916092,91.1694553 C104.304842,92.1744561 103.758596,93.0144497 103.277344,93.6894531 L104.753906,93.6308594 L104.753906,93.6308594 C105.035158,93.1699196 105.335936,92.6621121 105.65625,92.1074219 L106.5,92.5058594 L105.824061,93.5221124 C104.96531,94.8008638 104.276565,95.774606 103.757812,96.4433594 Z M102.1875,99.1738281 C103.437506,98.8769516 104.707025,98.5527361 105.996094,98.2011719 C106.003906,98.4746107 106.015625,98.7441393 106.03125,99.0097656 L104.608519,99.4025276 C103.852905,99.6143195 103.155277,99.8154297 102.515625,100.005859 L102.1875,99.1738281 Z M125.835938,100.205078 C125.539061,100.525392 125.296876,100.822264 125.109375,101.095703 C123.117178,100.431637 121.542975,99.3652417 120.386719,97.8964844 L120.386719,101.681641 L119.484375,101.681641 L119.484375,97.8964844 C118.359369,99.224616 116.81251,100.337886 114.84375,101.236328 C114.664062,101.001952 114.437501,100.73633 114.164062,100.439453 C115.820321,99.8769503 117.249994,99.0253963 118.453125,97.8847656 L114.375,97.8847656 L114.375,97.0644531 L119.484375,97.0644531 L119.484375,96.1738281 L120.386719,96.1738281 L120.386719,97.0644531 L125.683594,97.0644531 L125.683594,97.8847656 L121.324219,97.8847656 C122.457037,99.0332089 123.960928,99.8066386 125.835938,100.205078 Z M114.28125,91.1582031 L117.5625,91.1582031 L117.5625,90.0566406 L118.476562,90.0566406 L118.476562,91.1582031 L121.523438,91.1582031 L121.523438,90.0566406 L122.4375,90.0566406 L122.4375,91.1582031 L125.753906,91.1582031 L125.753906,91.9902344 L122.4375,91.9902344 L122.4375,92.6582031 L121.523438,92.6582031 L121.523438,91.9902344 L118.476562,91.9902344 L118.476562,92.7636719 L117.5625,92.7636719 L117.5625,91.9902344 L114.28125,91.9902344 L114.28125,91.1582031 Z M115.089844,94.0410156 L114.985677,93.509766 C114.96658,93.4160161 114.946615,93.319662 114.925781,93.2207031 C118.535174,93.1816404 121.726549,93.0605479 124.5,92.8574219 L124.640625,93.6777344 C121.781236,93.8574219 118.597674,93.9785153 115.089844,94.0410156 Z M121.664062,95.9628906 C122.195315,95.4863257 122.792965,94.8496134 123.457031,94.0527344 L124.230469,94.6621094 L123.282566,95.6086254 C122.843587,96.0413171 122.511119,96.3586228 122.285156,96.5605469 L121.664062,95.9628906 Z M115.734375,94.7675781 L116.449219,94.3222656 L116.671441,94.6110391 C116.946904,94.9810232 117.279078,95.4667939 117.667969,96.0683594 L116.859375,96.5839844 C116.507811,95.9589812 116.132814,95.3535186 115.734375,94.7675781 Z M118.945312,94.3925781 L119.683594,94.0292969 C120.058596,94.5761746 120.382811,95.1035131 120.65625,95.6113281 L119.824219,96.0566406 C119.660155,95.6347635 119.36719,95.0800816 118.945312,94.3925781 Z M126.234375,98.2949219 L131.542969,98.2949219 L131.542969,96.9707031 L128.296875,96.9707031 L128.296875,97.5214844 L127.40625,97.5214844 L127.40625,91.8378906 L129.837891,91.8378906 C129.462889,91.4003884 129.058596,90.9511742 128.625,90.4902344 L129.292969,89.9394531 C129.871097,90.4941434 130.378904,91.005857 130.816406,91.4746094 L130.382812,91.8378906 L133.130859,91.8378906 C133.560549,91.2675753 133.996092,90.6464877 134.4375,89.9746094 L135.375,90.4785156 C134.972654,90.9667993 134.583986,91.4199198 134.208984,91.8378906 L136.605469,91.8378906 L136.605469,97.5214844 L135.714844,97.5214844 L135.714844,96.9707031 L132.457031,96.9707031 L132.457031,98.2949219 L137.765625,98.2949219 L137.765625,99.1386719 L132.457031,99.1386719 L132.457031,101.611328 L131.542969,101.611328 L131.542969,99.1386719 L126.234375,99.1386719 L126.234375,98.2949219 Z M132.457031,96.1503906 L135.714844,96.1503906 L135.714844,94.7910156 L132.457031,94.7910156 L132.457031,96.1503906 Z M128.296875,96.1503906 L131.542969,96.1503906 L131.542969,94.7910156 L128.296875,94.7910156 L128.296875,96.1503906 Z M135.714844,92.6582031 L132.457031,92.6582031 L132.457031,93.9941406 L135.714844,93.9941406 L135.714844,92.6582031 Z M128.296875,93.9941406 L131.542969,93.9941406 L131.542969,92.6582031 L128.296875,92.6582031 L128.296875,93.9941406 Z M144.140625,100 L138.621094,100 L138.621094,99.0039062 L141.257812,96.3730469 C141.984379,95.6464807 142.470702,95.0712912 142.716797,94.6474609 C142.962892,94.2236307 143.085938,93.7851585 143.085938,93.3320312 C143.085938,92.8164037 142.941408,92.4208998 142.652344,92.1455078 C142.36328,91.8701158 141.945315,91.7324219 141.398438,91.7324219 C140.58984,91.7324219 139.818363,92.0761684 139.083984,92.7636719 L139.083984,91.5976562 C139.798832,91.0468722 140.630855,90.7714844 141.580078,90.7714844 C142.396488,90.7714844 143.041013,90.9921853 143.513672,91.4335938 C143.98633,91.8750022 144.222656,92.4687463 144.222656,93.2148438 C144.222656,93.7773466 144.071291,94.3290989 143.768555,94.8701172 C143.465819,95.4111355 142.892582,96.0996052 142.048828,96.9355469 L139.980469,98.9570312 L139.980469,98.9804688 L144.140625,98.9804688 L144.140625,100 Z" id="二级菜单2" fill="#5A6677" fill-rule="nonzero"></path>
                <g id="arrow-down" transform="translate(62.000000, 22.000000)">
                    <rect id="Rectangle" fill="#D8D8D8" opacity="0.01" x="0" y="0" width="10" height="10"></rect>
                    <mask id="mask-4" fill="white">
                        <use xlink:href="#path-3"></use>
                    </mask>
                    <use id="Path-2" fill="#333333" fill-rule="nonzero" xlink:href="#path-3"></use>
                </g>
                <g id="arrow-down" transform="translate(67.000000, 131.000000) rotate(-90.000000) translate(-67.000000, -131.000000) translate(62.000000, 126.000000)">
                    <rect id="Rectangle" fill="#D8D8D8" opacity="0.01" x="0" y="0" width="10" height="10"></rect>
                    <mask id="mask-6" fill="white">
                        <use xlink:href="#path-5"></use>
                    </mask>
                    <use id="Path-2" fill="#333333" fill-rule="nonzero" xlink:href="#path-5"></use>
                </g>
                <text id="样式二" font-family="MicrosoftYaHei, Microsoft YaHei" font-size="12" font-weight="normal" line-spacing="22" fill="#525A6E">
                    <tspan x="8" y="27">样式二</tspan>
                </text>
            </g>
        </g>
    </g>
</svg>