<?xml version="1.0" encoding="UTF-8"?>
<svg width="494px" height="52px" viewBox="0 0 494 52" version="1.1" xmlns="http://www.w3.org/2000/svg" xmlns:xlink="http://www.w3.org/1999/xlink">
    <!-- Generator: Sketch 58 (84663) - https://sketch.com -->
    <title>paging/style1</title>
    <desc>Created with Sketch.</desc>
    <g id="页面-1" stroke="none" stroke-width="1" fill="none" fill-rule="evenodd">
        <g id="编组-26备份" transform="translate(0.000000, -54.000000)">
            <g id="paging/style1" transform="translate(0.000000, 54.000000)">
                <rect id="矩形" fill-opacity="0.01" fill="#FAFAFA" x="0" y="0" width="494" height="52"></rect>
                <g id="page" transform="translate(52.000000, 14.000000)">
                    <g id="turnpage-left-no" transform="translate(39.000000, 7.000000)" stroke="#B7B7B7">
                        <polyline id="路径" points="5.11904982 0 0 4.5251749 5.11904982 8.69994188"></polyline>
                    </g>
                    <g id="turnpage-right" transform="translate(291.000000, 7.000000)" stroke="#666666">
                        <polyline id="路径" transform="translate(2.559525, 4.349971) rotate(180.000000) translate(-2.559525, -4.349971) " points="5.11904982 0 0 4.5251749 5.11904982 8.69994188"></polyline>
                    </g>
                    <g id="turnpage-right" transform="translate(325.000000, 7.000000)" stroke="#666666">
                        <polyline id="路径" transform="translate(2.559525, 4.349971) rotate(180.000000) translate(-2.559525, -4.349971) " points="5.11904982 0 0 4.5251749 5.11904982 8.69994188"></polyline>
                        <polyline id="路径" transform="translate(7.559525, 4.349971) rotate(180.000000) translate(-7.559525, -4.349971) " points="10.1190498 0 5 4.5251749 10.1190498 8.69994188"></polyline>
                    </g>
                    <g id="turnpage-right" transform="translate(5.500000, 11.500000) scale(-1, 1) translate(-5.500000, -11.500000) translate(0.000000, 7.000000)" stroke="#B7B7B7">
                        <polyline id="路径" transform="translate(2.559525, 4.349971) rotate(180.000000) translate(-2.559525, -4.349971) " points="5.11904982 0 0 4.5251749 5.11904982 8.69994188"></polyline>
                        <polyline id="路径" transform="translate(7.559525, 4.349971) rotate(180.000000) translate(-7.559525, -4.349971) " points="10.1190498 0 5 4.5251749 10.1190498 8.69994188"></polyline>
                    </g>
                    <g id="分组-3-copy-2" transform="translate(369.000000, 6.000000)">
                        <g id="路径-2" transform="translate(47.000000, 2.000000)">
                            <polyline id="路径" stroke="#666666" transform="translate(4.959525, 3.349971) rotate(270.000000) translate(-4.959525, -3.349971) " points="7.51904985 -1 2.40000003 3.5251749 7.51904985 7.69994188"></polyline>
                            <rect id="矩形" x="0" y="0" width="10" height="6"></rect>
                        </g>
                        <path d="M5.31054688,10.1542969 L0.107421875,10.1542969 L0.107421875,9.1640625 L2.140625,9.1640625 L2.140625,2.2734375 L0.0546875,2.87695312 L0.0546875,1.82226562 L3.28320312,0.884765625 L3.28320312,9.1640625 L5.31054688,9.1640625 L5.31054688,10.1542969 Z M6.5703125,5.79492188 C6.5703125,4.19335137 6.83593484,2.98144942 7.3671875,2.15917969 C7.89844016,1.33690995 8.66796371,0.92578125 9.67578125,0.92578125 C11.5976659,0.92578125 12.5585938,2.47654699 12.5585938,5.578125 C12.5585938,7.10938266 12.2880886,8.28026938 11.7470703,9.09082031 C11.206052,9.90137124 10.4472705,10.3066406 9.47070312,10.3066406 C8.54882352,10.3066406 7.83496347,9.92187885 7.32910156,9.15234375 C6.82323966,8.38280865 6.5703125,7.26367922 6.5703125,5.79492188 Z M7.7421875,5.7421875 C7.7421875,8.1523558 8.35350951,9.35742188 9.57617188,9.35742188 C10.7793029,9.35742188 11.3808594,8.13282475 11.3808594,5.68359375 C11.3808594,3.14842482 10.7910215,1.88085938 9.61132812,1.88085938 C8.36522814,1.88085938 7.7421875,3.16795588 7.7421875,5.7421875 Z M13.7773438,3.87890625 C15.0429751,2.83983855 16.1289017,1.60156969 17.0351562,0.1640625 L18.1015625,0.1640625 C17.8593738,0.554689453 17.6113294,0.929685703 17.3574219,1.2890625 L23.09375,1.2890625 L23.09375,2.12109375 C22.1718704,3.0117232 21.2050832,3.7597626 20.1933594,4.36523438 C21.3808653,4.80664283 22.9531152,5.12109281 24.9101562,5.30859375 C24.6445299,5.67578309 24.4726566,6.01562344 24.3945312,6.328125 C22.1640513,5.94531059 20.435553,5.46679975 19.2089844,4.89257812 C17.8144462,5.54492514 15.9609491,6.11327883 13.6484375,6.59765625 C13.5312494,6.31640484 13.3906258,6.03515766 13.2265625,5.75390625 C15.3906358,5.35546676 17.0722596,4.90429939 18.2714844,4.40039062 C17.5605433,3.96679471 16.8906281,3.39844102 16.2617188,2.6953125 C15.6992159,3.35156578 15.1054719,3.95312227 14.4804688,4.5 C14.1992173,4.21874859 13.9648447,4.01171941 13.7773438,3.87890625 Z M14.375,6.85546875 L18.7226562,6.85546875 L18.7226562,5.6953125 L19.6484375,5.6953125 L19.6484375,6.85546875 L23.7148438,6.85546875 L23.7148438,7.6875 L19.6484375,7.6875 L19.6484375,10.1484375 C19.6484375,11.0625046 19.1679736,11.5195312 18.2070312,11.5195312 L17.3717194,11.5153125 C17.1692198,11.5134375 16.9554699,11.5109375 16.7304688,11.5078125 C16.6835935,11.1874984 16.6250004,10.8437518 16.5546875,10.4765625 L17.0716154,10.528646 C17.3962678,10.5564238 17.6809884,10.5703125 17.9257812,10.5703125 C18.4570339,10.5703125 18.7226562,10.2851591 18.7226562,9.71484375 L18.7226562,7.6875 L14.375,7.6875 L14.375,6.85546875 Z M21.8984375,2.07421875 L16.7890625,2.07421875 C17.4765659,2.81250369 18.2949171,3.43163812 19.2441406,3.93164062 C20.1699265,3.42773186 21.0546833,2.80859742 21.8984375,2.07421875 Z M20.75,8.90625 L21.2890625,8.23828125 C22.5781314,8.94140977 23.7148388,9.61327805 24.6992188,10.2539062 L24.1367188,11.0742188 C23.1992141,10.4023404 22.0703191,9.67969137 20.75,8.90625 Z M16.5898438,8.12109375 L17.28125,8.765625 C16.3281202,9.5859416 15.2812557,10.3867148 14.140625,11.1679688 C13.9609366,10.9335926 13.7617198,10.6953137 13.5429688,10.453125 C14.6210991,9.78905918 15.636714,9.0117232 16.5898438,8.12109375 Z M30.3066406,1.078125 L25.953125,11.6601562 L24.8808594,11.6601562 L29.234375,1.078125 L30.3066406,1.078125 Z M31.9355469,3.2109375 L35.2636719,3.2109375 L35.3545521,2.83402391 C35.4334742,2.4960143 35.5203678,2.09821657 35.6152344,1.640625 L30.6113281,1.640625 L30.6113281,0.7734375 L41.8378906,0.7734375 L41.8378906,1.640625 L36.6582031,1.640625 L36.465078,2.33062632 C36.3703907,2.6550011 36.2785161,2.9484375 36.1894531,3.2109375 L40.6074219,3.2109375 L40.6074219,8.7890625 L39.6582031,8.7890625 L39.6582031,4.078125 L32.8847656,4.078125 L32.8847656,8.8359375 L31.9355469,8.8359375 L31.9355469,3.2109375 Z M30.3886719,10.9101562 C32.3808693,10.4726541 33.7519494,9.93359695 34.5019531,9.29296875 C35.3613324,8.58984023 35.7910156,7.50391359 35.7910156,6.03515625 L35.7910156,4.72265625 L36.7402344,4.72265625 L36.7402344,6.08203125 C36.7402344,6.8710977 36.6386729,7.57030945 36.4355469,8.1796875 C38.4043067,9.0390668 40.1972575,9.92577668 41.8144531,10.8398438 L41.2167969,11.71875 C39.7167894,10.7968704 38.005869,9.88281703 36.0839844,8.9765625 C35.8105455,9.45312738 35.4550803,9.85546711 35.0175781,10.1835938 C34.1035111,10.8789097 32.7636807,11.4296855 30.9980469,11.8359375 C30.8574212,11.5781237 30.6542982,11.269533 30.3886719,10.9101562 Z" id="10条/页" fill="#666666" fill-rule="nonzero"></path>
                    </g>
                    <g id="分组-3-copy" transform="translate(66.000000, 0.000000)">
                        <circle id="椭圆形" fill="#E4EFFF" cx="12" cy="12" r="12"></circle>
                        <path d="M12.336,7.716 L13.32,7.716 L13.32,16.284 L12.012,16.284 L12.012,9.288 C11.496,9.78 10.836,10.14 10.044,10.368 L10.044,9.072 C10.428,8.976 10.824,8.808 11.256,8.568 C11.688,8.304 12.048,8.028 12.336,7.716 Z" id="1" fill="#4F7DE7" fill-rule="nonzero"></path>
                    </g>
                    <g id="分组-3-copy" transform="translate(111.000000, 7.000000)" fill="#666666" fill-rule="nonzero">
                        <path d="M5.70410156,8.29882812 L5.70410156,9.3125 L0.0263671875,9.3125 C0.0185546484,9.05859248 0.0595698633,8.8144543 0.149414062,8.58007812 C0.293946035,8.19335744 0.525389033,7.81250188 0.84375,7.4375 C1.12231585,7.10937336 1.50929065,6.73639063 2.00468365,6.31854311 L2.22363281,6.13671875 C3.15723123,5.37108992 3.7880843,4.76465067 4.11621094,4.31738281 C4.44433758,3.87011495 4.60839844,3.44726762 4.60839844,3.04882812 C4.60839844,2.63085729 4.45898587,2.27832175 4.16015625,1.99121094 C3.86132663,1.70410013 3.47168209,1.56054688 2.99121094,1.56054688 C2.4833959,1.56054688 2.07714996,1.7128891 1.77246094,2.01757812 C1.46777191,2.32226715 1.31347658,2.74413793 1.30957031,3.28320312 L0.225585937,3.171875 C0.299805059,2.36327721 0.579099141,1.74707243 1.06347656,1.32324219 C1.54785398,0.899411943 2.19823811,0.6875 3.01464844,0.6875 C3.83887131,0.6875 4.49120854,0.91601334 4.97167969,1.37304688 C5.45215084,1.83008041 5.69238281,2.396481 5.69238281,3.07226562 C5.69238281,3.41601734 5.62207102,3.75390459 5.48144531,4.0859375 C5.34081961,4.41797041 5.10742351,4.76757629 4.78125,5.13476562 C4.5203112,5.42851709 4.1212519,5.80976416 3.5840638,6.27851457 L2.64691284,7.07846779 C2.29910039,7.37856536 2.06230532,7.59492121 1.93652344,7.72753906 C1.75683504,7.91699313 1.60839902,8.10742092 1.49121094,8.29882812 L5.70410156,8.29882812 Z" id="2"></path>
                    </g>
                    <g id="分组-3-copy" transform="translate(147.000000, 7.000000)" fill="#666666" fill-rule="nonzero">
                        <path d="M0.166992188,6.96875 L1.22167969,6.828125 C1.34277404,7.42578424 1.54882667,7.85644399 1.83984375,8.12011719 C2.13086083,8.38379038 2.48534947,8.515625 2.90332031,8.515625 C3.39941654,8.515625 3.81835767,8.34375172 4.16015625,8 C4.50195483,7.65624828 4.67285156,7.23047129 4.67285156,6.72265625 C4.67285156,6.23827883 4.51465002,5.83886876 4.19824219,5.52441406 C3.88183436,5.20995937 3.47949463,5.05273438 2.99121094,5.05273438 C2.79199119,5.05273438 2.5439468,5.09179648 2.24707031,5.16992188 L2.36425781,4.24414062 L2.48665363,4.2545573 C2.5040147,4.25542535 2.5198567,4.25585938 2.53417969,4.25585938 C2.98340068,4.25585938 3.38769352,4.13867305 3.74707031,3.90429688 C4.10644711,3.6699207 4.28613281,3.30859619 4.28613281,2.8203125 C4.28613281,2.43359182 4.15527475,2.11328252 3.89355469,1.859375 C3.63183463,1.60546748 3.29394738,1.47851562 2.87988281,1.47851562 C2.46972451,1.47851562 2.12793105,1.60742059 1.85449219,1.86523438 C1.58105332,2.12304816 1.40527383,2.50976305 1.32714844,3.02539062 L0.272460938,2.83789062 C0.401367832,2.13085584 0.694333652,1.58300976 1.15136719,1.19433594 C1.60840072,0.805662119 2.17675441,0.611328125 2.85644531,0.611328125 C3.32519766,0.611328125 3.75683396,0.711913057 4.15136719,0.913085938 C4.54590041,1.11425882 4.84765521,1.38867014 5.05664062,1.73632812 C5.26562604,2.08398611 5.37011719,2.45312305 5.37011719,2.84375 C5.37011719,3.21484561 5.27050881,3.55273285 5.07128906,3.85742188 C4.87206932,4.1621109 4.57715039,4.40429598 4.18652344,4.58398438 C4.69433848,4.70117246 5.08886578,4.94433409 5.37011719,5.31347656 C5.65136859,5.68261903 5.79199219,6.14452848 5.79199219,6.69921875 C5.79199219,7.4492225 5.51855742,8.08495833 4.97167969,8.60644531 C4.42480195,9.12793229 3.73340262,9.38867188 2.89746094,9.38867188 C2.14355092,9.38867188 1.51758062,9.16406475 1.01953125,8.71484375 C0.521481885,8.26562275 0.237305039,7.68359732 0.166992188,6.96875 Z" id="3"></path>
                    </g>
                    <g id="分组-3-copy备份" transform="translate(182.000000, 7.000000)" fill="#666666" fill-rule="nonzero">
                        <path d="M5.59667969,0.705078125 L5.59667969,6.27148438 L6.75683594,6.27148438 L6.75683594,7.23828125 L5.59667969,7.23828125 L5.59667969,9.29492188 L4.54199219,9.29492188 L4.54199219,7.23828125 L0.815429688,7.23828125 L0.815429688,6.27148438 L4.73535156,0.705078125 L5.59667969,0.705078125 Z M4.54199219,2.3984375 L1.85253906,6.27148438 L4.54199219,6.27148438 L4.54199219,2.3984375 Z" id="4"></path>
                    </g>
                    <g id="分组-3-copy备份-2" transform="translate(251.000000, 7.000000)" fill="#666666" fill-rule="nonzero">
                        <path d="M6.3671875,8.22558594 L6.3671875,9.23925781 L0.689453125,9.23925781 C0.681640586,8.98535029 0.722655801,8.74121211 0.8125,8.50683594 C0.957031973,8.12011525 1.18847497,7.73925969 1.50683594,7.36425781 C1.78540178,7.03613117 2.17237659,6.66314845 2.66776959,6.24530092 L2.88671875,6.06347656 C3.82031717,5.29784773 4.45117023,4.69140849 4.77929687,4.24414062 C5.10742352,3.79687276 5.27148437,3.37402543 5.27148437,2.97558594 C5.27148437,2.5576151 5.12207181,2.20507956 4.82324219,1.91796875 C4.52441257,1.63085794 4.13476803,1.48730469 3.65429687,1.48730469 C3.14648184,1.48730469 2.7402359,1.63964691 2.43554687,1.94433594 C2.13085785,2.24902496 1.97656252,2.67089574 1.97265625,3.20996094 L0.888671875,3.09863281 C0.962890996,2.29003502 1.24218508,1.67383024 1.7265625,1.25 C2.21093992,0.826169756 2.86132404,0.614257812 3.67773437,0.614257812 C4.50195725,0.614257812 5.15429447,0.842771152 5.63476562,1.29980469 C6.11523678,1.75683822 6.35546875,2.32323881 6.35546875,2.99902344 C6.35546875,3.34277516 6.28515695,3.6806624 6.14453125,4.01269531 C6.00390555,4.34472822 5.77050944,4.6943341 5.44433594,5.06152344 C5.18339713,5.35527491 4.78433784,5.73652198 4.24714974,6.20527238 L3.30999877,7.0052256 C2.96218633,7.30532317 2.72539125,7.52167902 2.59960937,7.65429688 C2.41992098,7.84375095 2.27148496,8.03417873 2.15429687,8.22558594 L6.3671875,8.22558594 Z M10.2988281,0.614257812 C10.7597679,0.614257812 11.1640608,0.707030322 11.5117187,0.892578125 C11.8593767,1.07812593 12.1464832,1.34570138 12.3730469,1.6953125 C12.5996105,2.04492362 12.7773431,2.47070062 12.90625,2.97265625 C13.0351569,3.47461188 13.0996094,4.15136293 13.0996094,5.00292969 C13.0996094,6.01074723 12.9960948,6.82421565 12.7890625,7.44335937 C12.5820302,8.0625031 12.272463,8.54101394 11.8603516,8.87890625 C11.4482401,9.21679856 10.9277375,9.38574219 10.2988281,9.38574219 C9.47069898,9.38574219 8.82031486,9.08887016 8.34765625,8.49511719 C7.78124717,7.78026986 7.49804687,6.616219 7.49804687,5.00292969 C7.49804687,3.98729961 7.60253802,3.16992497 7.81152344,2.55078125 C8.02050886,1.93163753 8.33105263,1.45410324 8.74316406,1.11816406 C9.1552755,0.782224883 9.673825,0.614257812 10.2988281,0.614257812 Z M10.2871094,1.48730469 C9.80273195,1.48730469 9.41601707,1.69238076 9.12695312,2.10253906 C8.76367006,2.62597918 8.58203125,3.59276639 8.58203125,5.00292969 C8.58203125,6.41309299 8.74706866,7.35156017 9.07714844,7.81835938 C9.40722821,8.28515858 9.8144507,8.51855469 10.2988281,8.51855469 C10.7832055,8.51855469 11.190428,8.28418203 11.5205078,7.81542969 C11.8505876,7.34667734 12.015625,6.40918672 12.015625,5.00292969 C12.015625,3.58886012 11.8505876,2.64941639 11.5205078,2.18457031 C11.190428,1.71972424 10.7792993,1.48730469 10.2871094,1.48730469 Z" id="20"></path>
                    </g>
                    <g id="分组-3-copy备份-3" transform="translate(215.000000, 10.000000)" fill="#666666">
                        <path d="M1.5,0 C2.32842712,0 3,0.671572875 3,1.5 C3,2.32842712 2.32842712,3 1.5,3 C0.671572875,3 0,2.32842712 0,1.5 C0,0.671572875 0.671572875,0 1.5,0 Z M7.5,0 C8.32842712,0 9,0.671572875 9,1.5 C9,2.32842712 8.32842712,3 7.5,3 C6.67157288,3 6,2.32842712 6,1.5 C6,0.671572875 6.67157288,0 7.5,0 Z M13.5,0 C14.3284271,0 15,0.671572875 15,1.5 C15,2.32842712 14.3284271,3 13.5,3 C12.6715729,3 12,2.32842712 12,1.5 C12,0.671572875 12.6715729,0 13.5,0 Z" id="椭圆形-2"></path>
                    </g>
                </g>
                <text id="样式一" font-family="MicrosoftYaHei, Microsoft YaHei" font-size="12" font-weight="normal" line-spacing="22" fill="#525A6E">
                    <tspan x="8" y="27">样式一</tspan>
                </text>
            </g>
        </g>
    </g>
</svg>