<?xml version="1.0" encoding="UTF-8"?>
<svg width="494px" height="218px" viewBox="0 0 494 218" version="1.1" xmlns="http://www.w3.org/2000/svg" xmlns:xlink="http://www.w3.org/1999/xlink">
    <!-- Generator: Sketch 58 (84663) - https://sketch.com -->
    <title>list-double+operate/style3</title>
    <desc>Created with Sketch.</desc>
    <defs>
        <rect id="path-1" x="64" y="50" width="400" height="60" rx="1.5"></rect>
        <filter x="-1.2%" y="-6.7%" width="102.5%" height="116.7%" filterUnits="objectBoundingBox" id="filter-2">
            <feOffset dx="0" dy="1" in="SourceAlpha" result="shadowOffsetOuter1"></feOffset>
            <feGaussianBlur stdDeviation="1.5" in="shadowOffsetOuter1" result="shadowBlurOuter1"></feGaussianBlur>
            <feColorMatrix values="0 0 0 0 0   0 0 0 0 0   0 0 0 0 0  0 0 0 0.2 0" type="matrix" in="shadowBlurOuter1"></feColorMatrix>
        </filter>
        <rect id="path-3" x="64" y="114" width="400" height="60" rx="1.5"></rect>
        <filter x="-1.2%" y="-6.7%" width="102.5%" height="116.7%" filterUnits="objectBoundingBox" id="filter-4">
            <feOffset dx="0" dy="1" in="SourceAlpha" result="shadowOffsetOuter1"></feOffset>
            <feGaussianBlur stdDeviation="1.5" in="shadowOffsetOuter1" result="shadowBlurOuter1"></feGaussianBlur>
            <feColorMatrix values="0 0 0 0 0   0 0 0 0 0   0 0 0 0 0  0 0 0 0.2 0" type="matrix" in="shadowBlurOuter1"></feColorMatrix>
        </filter>
    </defs>
    <g id="页面-1" stroke="none" stroke-width="1" fill="none" fill-rule="evenodd">
        <g id="list-double+operate/style3">
            <g id="编组-20">
                <rect id="矩形备份" fill-opacity="0.01" fill="#FFFFFF" x="0" y="0" width="494" height="218"></rect>
                <text id="标题文案" font-family="MicrosoftYaHei, Microsoft YaHei" font-size="14" font-weight="normal" line-spacing="22" fill="#333333">
                    <tspan x="64" y="35">标题文案</tspan>
                </text>
                <g id="矩形">
                    <use fill="black" fill-opacity="1" filter="url(#filter-2)" xlink:href="#path-1"></use>
                    <use fill="#FFFFFF" fill-rule="evenodd" xlink:href="#path-1"></use>
                </g>
                <g id="编组-15" transform="translate(392.000000, 66.000000)">
                    <rect id="矩形" stroke="#D5DAE0" fill="#FFFFFF" x="0.5" y="0.5" width="55" height="27" rx="1.5"></rect>
                    <path d="M27.9179688,18.5878906 C27.6992177,18.869142 27.5078133,19.1347644 27.34375,19.3847656 C25.8554613,18.7988252 24.6953167,18.0234423 23.8632812,17.0585938 L23.8632812,19.7832031 L23.0898438,19.7832031 L23.0898438,17.0585938 C22.1132764,18.0156298 20.9062572,18.8066375 19.46875,19.4316406 C19.3359368,19.1972645 19.1562511,18.947267 18.9296875,18.6816406 C20.4492263,18.1464817 21.6894483,17.4355513 22.6503906,16.5488281 L19.4335938,16.5488281 L19.4335938,15.8222656 L23.0898438,15.8222656 L23.0898438,15.1074219 L23.8632812,15.1074219 L23.8632812,15.8222656 L27.6835938,15.8222656 L27.6835938,16.5488281 L24.2441406,16.5488281 C25.1152387,17.4550827 26.3398359,18.1347634 27.9179688,18.5878906 Z M16.2929688,15.4003906 L16.1640625,14.4160156 L16.7040627,14.2425781 C16.9862495,14.1488283 17.2867172,14.0445318 17.6054688,13.9296875 L17.6054688,11.2636719 L16.2695312,11.2636719 L16.2695312,10.4667969 L17.6054688,10.4667969 L17.6054688,8.28710938 L18.4726562,8.28710938 L18.4726562,10.4667969 L19.7734375,10.4667969 L19.7734375,11.2636719 L18.4726562,11.2636719 L18.4726562,13.6074219 L19.1940099,13.3261721 C19.3185757,13.276693 19.4453119,13.2259117 19.5742188,13.1738281 L19.5976562,14.0996094 L19.5976562,14.0996094 L18.4726562,14.5332031 L18.4726562,14.5332031 L18.4726562,18.4238281 C18.4726562,19.205082 18.1054688,19.6074218 17.3710938,19.6308594 C17.0742173,19.6464845 16.7031272,19.6464845 16.2578125,19.6308594 C16.2187498,19.3183578 16.1679691,19.0058609 16.1054688,18.6933594 C16.5429709,18.7402346 16.9023423,18.7636719 17.1835938,18.7636719 C17.4648452,18.7636719 17.6054688,18.6152359 17.6054688,18.3183594 L17.6054688,14.8789062 L16.6408699,15.2601315 C16.5271004,15.3057858 16.4111334,15.3525388 16.2929688,15.4003906 Z M20.7578125,8.74414062 L26.3125,8.74414062 L26.3125,11.6152344 L25.46875,11.6152344 L25.46875,11.2988281 L21.6015625,11.2988281 L21.6015625,11.6152344 L20.7578125,11.6152344 L20.7578125,8.74414062 Z M23.9921875,12.0957031 L27.15625,12.0957031 L27.15625,14.9785156 L26.4296875,14.9785156 L26.4296875,14.6152344 L24.71875,14.6152344 L24.71875,14.9433594 L23.9921875,14.9433594 L23.9921875,12.0957031 Z M19.9257812,12.1191406 L23.0195312,12.1191406 L23.0195312,14.9433594 L22.2929688,14.9433594 L22.2929688,14.6269531 L20.6523438,14.6269531 L20.6523438,14.9785156 L19.9257812,14.9785156 L19.9257812,12.1191406 Z M25.46875,9.44726562 L21.6015625,9.44726562 L21.6015625,10.5957031 L25.46875,10.5957031 L25.46875,9.44726562 Z M26.4296875,12.7753906 L24.71875,12.7753906 L24.71875,13.9355469 L26.4296875,13.9355469 L26.4296875,12.7753906 Z M22.2929688,12.7988281 L20.6523438,12.7988281 L20.6523438,13.9472656 L22.2929688,13.9472656 L22.2929688,12.7988281 Z M31.3867188,12.9746094 C32.4257864,11.5527273 33.1914038,9.96680562 33.6835938,8.21679688 L34.6445312,8.39257812 C34.4609366,8.99414363 34.2539074,9.57616906 34.0234375,10.1386719 L39.8007812,10.1386719 L39.8007812,10.9589844 L35.5351562,10.9589844 L35.5351562,13.0097656 L39.3320312,13.0097656 L39.3320312,13.8300781 L35.5351562,13.8300781 L35.5351562,15.9628906 L39.484375,15.9628906 L39.484375,16.7832031 L35.5351562,16.7832031 L35.5351562,19.7363281 L34.6210938,19.7363281 L34.6210938,10.9589844 L33.6660156,10.9589844 C33.2246072,11.9121141 32.7109404,12.8066364 32.125,13.6425781 C31.9062489,13.4316396 31.6601576,13.2089855 31.3867188,12.9746094 Z M28.1289062,14.0527344 C29.2304743,12.4199137 30.1015593,10.4863393 30.7421875,8.25195312 L31.703125,8.53320312 C31.4023422,9.45508273 31.0820329,10.3203085 30.7421875,11.1289062 L30.7421875,19.7363281 L29.828125,19.7363281 L29.828125,13.0390625 C29.4335918,13.7773474 29.0156272,14.4511688 28.5742188,15.0605469 C28.4570307,14.7636704 28.3085946,14.4277363 28.1289062,14.0527344 Z" id="操作" fill="#333333" fill-rule="nonzero"></path>
                </g>
                <path d="M74.1796875,69.3378906 L74.7539062,68.6816406 C75.3476592,69.1699243 75.8886694,69.6484352 76.3769531,70.1171875 C76.9003932,69.210933 77.2695302,68.2285209 77.484375,67.1699219 L74.8476562,67.1699219 C74.2343719,68.5761789 73.4804732,69.8417912 72.5859375,70.9667969 C72.4140616,70.5683574 72.2578132,70.2558605 72.1171875,70.0292969 C73.2968809,68.4433514 74.2050749,66.5879013 74.8417969,64.4628906 L72.5039062,64.4628906 L72.5039062,63.6191406 L79.078125,63.6191406 L79.078125,64.4628906 L75.8085938,64.4628906 C75.6249991,65.1074251 75.419923,65.7285126 75.1933594,66.3261719 L78.4453125,66.3261719 L78.4453125,67.1816406 C77.8046843,70.3847816 76.1211074,72.8574132 73.3945312,74.5996094 C73.1914052,74.3652332 72.9492202,74.1269543 72.6679688,73.8847656 C74.0039129,73.0214801 75.0742147,72.0234432 75.8789062,70.890625 C75.4335915,70.4531228 74.8671909,69.9355499 74.1796875,69.3378906 Z M82.1601562,63.1972656 L83.0976562,63.1972656 L83.0976562,72.8769531 C83.0976562,73.8691456 82.648442,74.3691406 81.75,74.3769531 L81.43287,74.3804254 C81.0271028,74.3824508 80.496097,74.3773872 79.8398438,74.3652344 C79.8007811,74.0058576 79.7382817,73.6542986 79.6523438,73.3105469 L80.3867201,73.3691408 C80.829428,73.4003908 81.1783841,73.4160156 81.4335938,73.4160156 C81.9179712,73.4160156 82.1601562,73.1542995 82.1601562,72.6308594 L82.1601562,63.1972656 Z M80.4726562,71.6699219 L79.5703125,71.6699219 L79.5703125,64.4980469 L80.4726562,64.4980469 L80.4726562,71.6699219 Z M94.3476562,69.4550781 L94.9921875,70.2636719 L92.3730469,71.5761719 C93.2910202,72.3261756 94.4413993,72.8222644 95.8242188,73.0644531 C95.5585924,73.4082048 95.3398446,73.7207017 95.1679688,74.0019531 C92.6484249,73.4003876 90.8418023,71.851575 89.7480469,69.3554688 C89.3496074,69.8632838 88.8945338,70.3457008 88.3828125,70.8027344 L88.3828125,73.3105469 C89.4140677,72.9746077 90.3710893,72.6230487 91.2539062,72.2558594 C91.2460937,72.5996111 91.2499999,72.9394531 91.265625,73.2753906 C90.3281203,73.5957047 89.35938,73.9472637 88.359375,74.3300781 C88.1484364,74.4160161 87.9414073,74.5175775 87.7382812,74.6347656 L87.1875,73.7792969 C87.4062511,73.6230461 87.515625,73.4042983 87.515625,73.1230469 L87.515625,71.5117188 C86.7070272,72.1171905 85.7890676,72.6660132 84.7617188,73.1582031 C84.5898429,72.8847643 84.3906261,72.6152357 84.1640625,72.3496094 C86.1836038,71.5214802 87.7695255,70.4121163 88.921875,69.0214844 L84.2929688,69.0214844 L84.2929688,68.2128906 L89.5429688,68.2128906 L89.5429688,67.0175781 L85.125,67.0175781 L85.125,66.2089844 L89.5429688,66.2089844 L89.5429688,65.0605469 L84.65625,65.0605469 L84.65625,64.2519531 L89.5429688,64.2519531 L89.5429688,62.9394531 L90.46875,62.9394531 L90.46875,64.2519531 L95.3789062,64.2519531 L95.3789062,65.0605469 L90.46875,65.0605469 L90.46875,66.2089844 L94.875,66.2089844 L94.875,67.0175781 L90.46875,67.0175781 L90.46875,68.2128906 L95.7070312,68.2128906 L95.7070312,69.0214844 L90.4980469,69.0214844 C90.8261735,69.7832069 91.2480443,70.4433566 91.7636719,71.0019531 C92.5488321,70.6113262 93.4101516,70.0957063 94.3476562,69.4550781 Z M96.3632812,65.0488281 L101.988281,65.0488281 L101.622395,64.3665352 C101.397569,63.9568133 101.210938,63.6373709 101.0625,63.4082031 L101.964844,62.9863281 L102.220052,63.392578 C102.414496,63.7102855 102.657551,64.1217423 102.949219,64.6269531 L102.105469,65.0488281 L107.613281,65.0488281 L107.613281,65.9160156 L105.451172,65.9160156 C105.033201,68.1464955 104.134773,69.9394463 102.755859,71.2949219 C103.794927,72.0527382 105.445301,72.7324189 107.707031,73.3339844 C107.347654,73.7402364 107.07422,74.0800768 106.886719,74.3535156 C104.683583,73.5917931 103.056646,72.794926 102.005859,71.9628906 C100.951167,72.7832072 99.2656366,73.6113239 96.9492188,74.4472656 L96.6210942,74.013672 C96.5039069,73.8613286 96.3789069,73.7011727 96.2460938,73.5332031 C98.4804799,72.8613248 100.162104,72.1132854 101.291016,71.2890625 C99.8652272,69.7656174 98.9589863,67.9746197 98.5722656,65.9160156 L96.3632812,65.9160156 L96.3632812,65.0488281 Z M104.449219,65.9160156 L99.5097656,65.9160156 C99.8613299,67.8379002 100.701165,69.425775 102.029297,70.6796875 C103.298834,69.4999941 104.105467,67.9121194 104.449219,65.9160156 Z M108.785156,69.5839844 L109.62461,69.4824678 C111.10945,69.2920322 112.29642,69.0778257 113.185547,68.8398438 C112.248042,68.5898425 111.300786,68.3457043 110.34375,68.1074219 C110.664064,67.7636702 110.96875,67.4238298 111.257812,67.0878906 L108.46875,67.0878906 L108.46875,66.3144531 L111.890625,66.3144531 C112.187501,65.9394513 112.460936,65.5683612 112.710938,65.2011719 L113.660156,65.4707031 C113.449218,65.7519545 113.224611,66.0332017 112.986328,66.3144531 L119.53125,66.3144531 L119.53125,67.0878906 L117.011719,67.0878906 C116.640623,67.7480502 116.138675,68.2832011 115.505859,68.6933594 L116.813673,69.0392971 C117.451172,69.209453 118.06406,69.3753898 118.652344,69.5371094 L118.277344,70.3222656 C117.039056,69.9316387 115.779303,69.5585955 114.498047,69.203125 C113.310541,69.6718773 111.519543,70.0566391 109.125,70.3574219 C109.03125,70.1074206 108.917969,69.8496107 108.785156,69.5839844 Z M119.847656,73.3691406 C119.58203,73.6816422 119.35547,73.974608 119.167969,74.2480469 C117.105458,73.6308563 115.523443,72.8750045 114.421875,71.9804688 L114.421875,74.6230469 L113.578125,74.6230469 L113.578125,71.9980469 C112.394525,72.8339886 110.820322,73.5878873 108.855469,74.2597656 C108.675781,74.033202 108.44922,73.7675796 108.175781,73.4628906 C110.191416,72.9589819 111.787103,72.3378943 112.962891,71.5996094 L108.445312,71.5996094 L108.445312,70.8144531 L113.578125,70.8144531 L113.578125,69.8535156 L114.421875,69.8535156 L114.421875,70.8144531 L119.625,70.8144531 L119.625,71.5996094 L115.060547,71.5996094 C116.294928,72.4316448 117.890615,73.0214826 119.847656,73.3691406 Z M108.785156,64.1230469 L113.695312,64.1230469 C113.546874,63.8535143 113.375001,63.5761733 113.179688,63.2910156 L114.011719,62.9160156 C114.265626,63.3144551 114.505858,63.7167948 114.732422,64.1230469 L119.203125,64.1230469 L119.203125,65.8925781 L118.3125,65.8925781 L118.3125,64.8964844 L109.675781,64.8964844 L109.675781,65.8925781 L108.785156,65.8925781 L108.785156,64.1230469 Z M111.679688,67.7324219 L113.7583,68.2498776 C113.981932,68.3062741 114.203124,68.3623044 114.421875,68.4179688 C115.109378,68.1132797 115.646482,67.6699248 116.033203,67.0878906 L112.300781,67.0878906 C112.101562,67.3027354 111.894532,67.5175771 111.679688,67.7324219 Z M122.179688,69.3378906 L122.753906,68.6816406 C123.347659,69.1699243 123.888669,69.6484352 124.376953,70.1171875 C124.900393,69.210933 125.26953,68.2285209 125.484375,67.1699219 L122.847656,67.1699219 C122.234372,68.5761789 121.480473,69.8417912 120.585938,70.9667969 C120.414062,70.5683574 120.257813,70.2558605 120.117188,70.0292969 C121.296881,68.4433514 122.205075,66.5879013 122.841797,64.4628906 L120.503906,64.4628906 L120.503906,63.6191406 L127.078125,63.6191406 L127.078125,64.4628906 L123.808594,64.4628906 C123.624999,65.1074251 123.419923,65.7285126 123.193359,66.3261719 L126.445312,66.3261719 L126.445312,67.1816406 C125.804684,70.3847816 124.121107,72.8574132 121.394531,74.5996094 C121.191405,74.3652332 120.94922,74.1269543 120.667969,73.8847656 C122.003913,73.0214801 123.074215,72.0234432 123.878906,70.890625 C123.433592,70.4531228 122.867191,69.9355499 122.179688,69.3378906 Z M130.160156,63.1972656 L131.097656,63.1972656 L131.097656,72.8769531 C131.097656,73.8691456 130.648442,74.3691406 129.75,74.3769531 L129.43287,74.3804254 C129.027103,74.3824508 128.496097,74.3773872 127.839844,74.3652344 C127.800781,74.0058576 127.738282,73.6542986 127.652344,73.3105469 L128.38672,73.3691408 C128.829428,73.4003908 129.178384,73.4160156 129.433594,73.4160156 C129.917971,73.4160156 130.160156,73.1542995 130.160156,72.6308594 L130.160156,63.1972656 Z M128.472656,71.6699219 L127.570312,71.6699219 L127.570312,64.4980469 L128.472656,64.4980469 L128.472656,71.6699219 Z M142.347656,69.4550781 L142.992188,70.2636719 L140.373047,71.5761719 C141.29102,72.3261756 142.441399,72.8222644 143.824219,73.0644531 C143.558592,73.4082048 143.339845,73.7207017 143.167969,74.0019531 C140.648425,73.4003876 138.841802,71.851575 137.748047,69.3554688 C137.349607,69.8632838 136.894534,70.3457008 136.382812,70.8027344 L136.382812,73.3105469 C137.414068,72.9746077 138.371089,72.6230487 139.253906,72.2558594 C139.246094,72.5996111 139.25,72.9394531 139.265625,73.2753906 C138.32812,73.5957047 137.35938,73.9472637 136.359375,74.3300781 C136.148436,74.4160161 135.941407,74.5175775 135.738281,74.6347656 L135.1875,73.7792969 C135.406251,73.6230461 135.515625,73.4042983 135.515625,73.1230469 L135.515625,71.5117188 C134.707027,72.1171905 133.789068,72.6660132 132.761719,73.1582031 C132.589843,72.8847643 132.390626,72.6152357 132.164062,72.3496094 C134.183604,71.5214802 135.769525,70.4121163 136.921875,69.0214844 L132.292969,69.0214844 L132.292969,68.2128906 L137.542969,68.2128906 L137.542969,67.0175781 L133.125,67.0175781 L133.125,66.2089844 L137.542969,66.2089844 L137.542969,65.0605469 L132.65625,65.0605469 L132.65625,64.2519531 L137.542969,64.2519531 L137.542969,62.9394531 L138.46875,62.9394531 L138.46875,64.2519531 L143.378906,64.2519531 L143.378906,65.0605469 L138.46875,65.0605469 L138.46875,66.2089844 L142.875,66.2089844 L142.875,67.0175781 L138.46875,67.0175781 L138.46875,68.2128906 L143.707031,68.2128906 L143.707031,69.0214844 L138.498047,69.0214844 C138.826174,69.7832069 139.248044,70.4433566 139.763672,71.0019531 C140.548832,70.6113262 141.410152,70.0957063 142.347656,69.4550781 Z M144.363281,65.0488281 L149.988281,65.0488281 L149.622395,64.3665352 C149.397569,63.9568133 149.210938,63.6373709 149.0625,63.4082031 L149.964844,62.9863281 L150.220052,63.392578 C150.414496,63.7102855 150.657551,64.1217423 150.949219,64.6269531 L150.105469,65.0488281 L155.613281,65.0488281 L155.613281,65.9160156 L153.451172,65.9160156 C153.033201,68.1464955 152.134773,69.9394463 150.755859,71.2949219 C151.794927,72.0527382 153.445301,72.7324189 155.707031,73.3339844 C155.347654,73.7402364 155.07422,74.0800768 154.886719,74.3535156 C152.683583,73.5917931 151.056646,72.794926 150.005859,71.9628906 C148.951167,72.7832072 147.265637,73.6113239 144.949219,74.4472656 L144.621094,74.013672 C144.503907,73.8613286 144.378907,73.7011727 144.246094,73.5332031 C146.48048,72.8613248 148.162104,72.1132854 149.291016,71.2890625 C147.865227,69.7656174 146.958986,67.9746197 146.572266,65.9160156 L144.363281,65.9160156 L144.363281,65.0488281 Z M152.449219,65.9160156 L147.509766,65.9160156 C147.86133,67.8379002 148.701165,69.425775 150.029297,70.6796875 C151.298834,69.4999941 152.105467,67.9121194 152.449219,65.9160156 Z M156.785156,69.5839844 L157.62461,69.4824678 C159.10945,69.2920322 160.29642,69.0778257 161.185547,68.8398438 C160.248042,68.5898425 159.300786,68.3457043 158.34375,68.1074219 C158.664064,67.7636702 158.96875,67.4238298 159.257812,67.0878906 L156.46875,67.0878906 L156.46875,66.3144531 L159.890625,66.3144531 C160.187501,65.9394513 160.460936,65.5683612 160.710938,65.2011719 L161.660156,65.4707031 C161.449218,65.7519545 161.224611,66.0332017 160.986328,66.3144531 L167.53125,66.3144531 L167.53125,67.0878906 L165.011719,67.0878906 C164.640623,67.7480502 164.138675,68.2832011 163.505859,68.6933594 L164.813673,69.0392971 C165.451172,69.209453 166.06406,69.3753898 166.652344,69.5371094 L166.277344,70.3222656 C165.039056,69.9316387 163.779303,69.5585955 162.498047,69.203125 C161.310541,69.6718773 159.519543,70.0566391 157.125,70.3574219 C157.03125,70.1074206 156.917969,69.8496107 156.785156,69.5839844 Z M167.847656,73.3691406 C167.58203,73.6816422 167.35547,73.974608 167.167969,74.2480469 C165.105458,73.6308563 163.523443,72.8750045 162.421875,71.9804688 L162.421875,74.6230469 L161.578125,74.6230469 L161.578125,71.9980469 C160.394525,72.8339886 158.820322,73.5878873 156.855469,74.2597656 C156.675781,74.033202 156.44922,73.7675796 156.175781,73.4628906 C158.191416,72.9589819 159.787103,72.3378943 160.962891,71.5996094 L156.445312,71.5996094 L156.445312,70.8144531 L161.578125,70.8144531 L161.578125,69.8535156 L162.421875,69.8535156 L162.421875,70.8144531 L167.625,70.8144531 L167.625,71.5996094 L163.060547,71.5996094 C164.294928,72.4316448 165.890615,73.0214826 167.847656,73.3691406 Z M156.785156,64.1230469 L161.695312,64.1230469 C161.546874,63.8535143 161.375001,63.5761733 161.179688,63.2910156 L162.011719,62.9160156 C162.265626,63.3144551 162.505858,63.7167948 162.732422,64.1230469 L167.203125,64.1230469 L167.203125,65.8925781 L166.3125,65.8925781 L166.3125,64.8964844 L157.675781,64.8964844 L157.675781,65.8925781 L156.785156,65.8925781 L156.785156,64.1230469 Z M159.679688,67.7324219 L161.7583,68.2498776 C161.981932,68.3062741 162.203124,68.3623044 162.421875,68.4179688 C163.109378,68.1132797 163.646482,67.6699248 164.033203,67.0878906 L160.300781,67.0878906 C160.101562,67.3027354 159.894532,67.5175771 159.679688,67.7324219 Z M174.310547,73 L169.107422,73 L169.107422,72.0097656 L171.140625,72.0097656 L171.140625,65.1191406 L169.054688,65.7226562 L169.054688,64.6679688 L172.283203,63.7304688 L172.283203,72.0097656 L174.310547,72.0097656 L174.310547,73 Z" id="列表文案列表文案1" fill="#5A6677" fill-rule="nonzero"></path>
                <path d="M76.21875,91.2988281 L83.2148438,91.2988281 L83.2148438,98.5175781 L82.3242188,98.5175781 L82.3242188,97.7910156 L77.109375,97.7910156 L77.109375,98.5175781 L76.21875,98.5175781 L76.21875,91.2988281 Z M72.1640625,93.2441406 C72.6328148,93.1035149 73.1328098,92.9414072 73.6640625,92.7578125 L73.6640625,90.0683594 L72.2695312,90.0683594 L72.2695312,89.2714844 L73.6640625,89.2714844 L73.6640625,87.0917969 L74.5546875,87.0917969 L74.5546875,89.2714844 L75.75,89.2714844 L75.75,90.0683594 L74.5546875,90.0683594 L74.5546875,92.4472656 L75.304687,92.1712241 C75.432291,92.1234812 75.5611973,92.07487 75.6914062,92.0253906 L75.7148438,92.9511719 L75.7148438,92.9511719 L74.5546875,93.3789062 L74.5546875,93.3789062 L74.5546875,97.2167969 C74.5546875,98.0136759 74.175785,98.4199218 73.4179688,98.4355469 L73.0392188,98.4411719 C72.8292193,98.4421094 72.5882826,98.4402344 72.3164062,98.4355469 C72.269531,98.1074202 72.2187503,97.7832047 72.1640625,97.4628906 C72.5937521,97.5097659 72.9414049,97.5332031 73.2070312,97.5332031 C73.5117203,97.5332031 73.6640625,97.3730485 73.6640625,97.0527344 L73.6640625,93.7070312 L72.2929688,94.2285156 L72.2929688,94.2285156 L72.1640625,93.2441406 Z M80.8125,87.0800781 L81.6679688,87.0800781 L81.6679688,88.5566406 L83.8125,88.5566406 L83.8125,89.3769531 L81.6679688,89.3769531 L81.6679688,90.8183594 L80.8125,90.8183594 L80.8125,89.3769531 L78.609375,89.3769531 L78.609375,90.8183594 L77.7539062,90.8183594 L77.7539062,89.3769531 L75.890625,89.3769531 L75.890625,88.5566406 L77.7539062,88.5566406 L77.7539062,87.0917969 L78.609375,87.0917969 L78.609375,88.5566406 L80.8125,88.5566406 L80.8125,87.0800781 Z M80.1445312,97.0175781 L82.3242188,97.0175781 L82.3242188,94.9199219 L80.1445312,94.9199219 L80.1445312,97.0175781 Z M77.109375,97.0175781 L79.2773438,97.0175781 L79.2773438,94.9199219 L77.109375,94.9199219 L77.109375,97.0175781 Z M82.3242188,92.0957031 L80.1445312,92.0957031 L80.1445312,94.1699219 L82.3242188,94.1699219 L82.3242188,92.0957031 Z M77.109375,94.1699219 L79.2773438,94.1699219 L79.2773438,92.0957031 L77.109375,92.0957031 L77.109375,94.1699219 Z M87.6679688,89.6230469 L90.9140625,89.6230469 L90.9140625,87.0800781 L91.828125,87.0800781 L91.828125,89.6230469 L95.34375,89.6230469 L95.34375,90.4667969 L91.828125,90.4667969 L91.828125,92.0019531 L92.2265625,91.5449219 C93.4140684,92.4980516 94.5859317,93.4941354 95.7421875,94.5332031 L95.0625,95.2949219 C94.1015577,94.3339796 93.0234435,93.341802 91.828125,92.3183594 L91.828125,96.9238281 L90.9140625,96.9238281 L90.9140625,91.6269531 C90.0390581,93.1425857 88.9882874,94.4941347 87.7617188,95.6816406 C87.5429677,95.4628895 87.2929702,95.2402355 87.0117188,95.0136719 C88.4882886,93.6699152 89.7031202,92.1543053 90.65625,90.4667969 L87.6679688,90.4667969 L87.6679688,89.6230469 Z M89.0742188,97.4511719 L90.1664082,97.468047 C91.7101572,97.4817971 93.603895,97.4605472 95.8476562,97.4042969 L95.4609375,98.3066406 L95.4609375,98.3066406 L93.84823,98.3258332 C91.9501503,98.3420562 90.3197613,98.3317524 88.9570312,98.2949219 C87.605462,98.2714843 86.6328155,97.8261762 86.0390625,96.9589844 C85.8124989,97.1386728 85.3554722,97.6386678 84.6679688,98.4589844 L84.1640625,97.4628906 L84.8557085,96.8516018 C85.1401467,96.6028778 85.3939721,96.3847666 85.6171875,96.1972656 L85.6171875,92.0957031 L84.28125,92.0957031 L84.28125,91.2402344 L86.53125,91.2402344 L86.53125,96.3613281 C87.1015654,97.0488316 87.9492131,97.4121092 89.0742188,97.4511719 Z M85.3710938,87.1738281 C85.8945339,87.7832062 86.4765593,88.5175738 87.1171875,89.3769531 L86.3085938,89.9863281 C85.7851536,89.1816366 85.2304717,88.4199255 84.6445312,87.7011719 L85.3710938,87.1738281 Z M92.6015625,87.8769531 L93.140625,87.2207031 L93.8114078,87.6689463 C94.2806263,87.988868 94.6273426,88.2417959 94.8515625,88.4277344 L94.2539062,89.1777344 C93.8164041,88.7871074 93.2656283,88.353518 92.6015625,87.8769531 Z M96.3632812,89.0488281 L101.988281,89.0488281 L101.622395,88.3665352 C101.397569,87.9568133 101.210938,87.6373709 101.0625,87.4082031 L101.964844,86.9863281 L102.220052,87.392578 C102.414496,87.7102855 102.657551,88.1217423 102.949219,88.6269531 L102.105469,89.0488281 L107.613281,89.0488281 L107.613281,89.9160156 L105.451172,89.9160156 C105.033201,92.1464955 104.134773,93.9394463 102.755859,95.2949219 C103.794927,96.0527382 105.445301,96.7324189 107.707031,97.3339844 C107.347654,97.7402364 107.07422,98.0800768 106.886719,98.3535156 C104.683583,97.5917931 103.056646,96.794926 102.005859,95.9628906 C100.951167,96.7832072 99.2656366,97.6113239 96.9492188,98.4472656 L96.6210942,98.013672 C96.5039069,97.8613286 96.3789069,97.7011727 96.2460938,97.5332031 C98.4804799,96.8613248 100.162104,96.1132854 101.291016,95.2890625 C99.8652272,93.7656174 98.9589863,91.9746197 98.5722656,89.9160156 L96.3632812,89.9160156 L96.3632812,89.0488281 Z M104.449219,89.9160156 L99.5097656,89.9160156 C99.8613299,91.8379002 100.701165,93.425775 102.029297,94.6796875 C103.298834,93.4999941 104.105467,91.9121194 104.449219,89.9160156 Z M108.785156,93.5839844 L109.62461,93.4824678 C111.10945,93.2920322 112.29642,93.0778257 113.185547,92.8398438 C112.248042,92.5898425 111.300786,92.3457043 110.34375,92.1074219 C110.664064,91.7636702 110.96875,91.4238298 111.257812,91.0878906 L108.46875,91.0878906 L108.46875,90.3144531 L111.890625,90.3144531 C112.187501,89.9394513 112.460936,89.5683612 112.710938,89.2011719 L113.660156,89.4707031 C113.449218,89.7519545 113.224611,90.0332017 112.986328,90.3144531 L119.53125,90.3144531 L119.53125,91.0878906 L117.011719,91.0878906 C116.640623,91.7480502 116.138675,92.2832011 115.505859,92.6933594 L116.813673,93.0392971 C117.451172,93.209453 118.06406,93.3753898 118.652344,93.5371094 L118.277344,94.3222656 C117.039056,93.9316387 115.779303,93.5585955 114.498047,93.203125 C113.310541,93.6718773 111.519543,94.0566391 109.125,94.3574219 C109.03125,94.1074206 108.917969,93.8496107 108.785156,93.5839844 Z M119.847656,97.3691406 C119.58203,97.6816422 119.35547,97.974608 119.167969,98.2480469 C117.105458,97.6308563 115.523443,96.8750045 114.421875,95.9804688 L114.421875,98.6230469 L113.578125,98.6230469 L113.578125,95.9980469 C112.394525,96.8339886 110.820322,97.5878873 108.855469,98.2597656 C108.675781,98.033202 108.44922,97.7675796 108.175781,97.4628906 C110.191416,96.9589819 111.787103,96.3378943 112.962891,95.5996094 L108.445312,95.5996094 L108.445312,94.8144531 L113.578125,94.8144531 L113.578125,93.8535156 L114.421875,93.8535156 L114.421875,94.8144531 L119.625,94.8144531 L119.625,95.5996094 L115.060547,95.5996094 C116.294928,96.4316448 117.890615,97.0214826 119.847656,97.3691406 Z M108.785156,88.1230469 L113.695312,88.1230469 C113.546874,87.8535143 113.375001,87.5761733 113.179688,87.2910156 L114.011719,86.9160156 C114.265626,87.3144551 114.505858,87.7167948 114.732422,88.1230469 L119.203125,88.1230469 L119.203125,89.8925781 L118.3125,89.8925781 L118.3125,88.8964844 L109.675781,88.8964844 L109.675781,89.8925781 L108.785156,89.8925781 L108.785156,88.1230469 Z M111.679688,91.7324219 L113.7583,92.2498776 C113.981932,92.3062741 114.203124,92.3623044 114.421875,92.4179688 C115.109378,92.1132797 115.646482,91.6699248 116.033203,91.0878906 L112.300781,91.0878906 C112.101562,91.3027354 111.894532,91.5175771 111.679688,91.7324219 Z M124.21875,91.2988281 L131.214844,91.2988281 L131.214844,98.5175781 L130.324219,98.5175781 L130.324219,97.7910156 L125.109375,97.7910156 L125.109375,98.5175781 L124.21875,98.5175781 L124.21875,91.2988281 Z M120.164062,93.2441406 C120.632815,93.1035149 121.13281,92.9414072 121.664062,92.7578125 L121.664062,90.0683594 L120.269531,90.0683594 L120.269531,89.2714844 L121.664062,89.2714844 L121.664062,87.0917969 L122.554688,87.0917969 L122.554688,89.2714844 L123.75,89.2714844 L123.75,90.0683594 L122.554688,90.0683594 L122.554688,92.4472656 L123.304687,92.1712241 C123.432291,92.1234812 123.561197,92.07487 123.691406,92.0253906 L123.714844,92.9511719 L123.714844,92.9511719 L122.554688,93.3789062 L122.554688,93.3789062 L122.554688,97.2167969 C122.554688,98.0136759 122.175785,98.4199218 121.417969,98.4355469 L121.039219,98.4411719 C120.829219,98.4421094 120.588283,98.4402344 120.316406,98.4355469 C120.269531,98.1074202 120.21875,97.7832047 120.164062,97.4628906 C120.593752,97.5097659 120.941405,97.5332031 121.207031,97.5332031 C121.51172,97.5332031 121.664062,97.3730485 121.664062,97.0527344 L121.664062,93.7070312 L120.292969,94.2285156 L120.292969,94.2285156 L120.164062,93.2441406 Z M128.8125,87.0800781 L129.667969,87.0800781 L129.667969,88.5566406 L131.8125,88.5566406 L131.8125,89.3769531 L129.667969,89.3769531 L129.667969,90.8183594 L128.8125,90.8183594 L128.8125,89.3769531 L126.609375,89.3769531 L126.609375,90.8183594 L125.753906,90.8183594 L125.753906,89.3769531 L123.890625,89.3769531 L123.890625,88.5566406 L125.753906,88.5566406 L125.753906,87.0917969 L126.609375,87.0917969 L126.609375,88.5566406 L128.8125,88.5566406 L128.8125,87.0800781 Z M128.144531,97.0175781 L130.324219,97.0175781 L130.324219,94.9199219 L128.144531,94.9199219 L128.144531,97.0175781 Z M125.109375,97.0175781 L127.277344,97.0175781 L127.277344,94.9199219 L125.109375,94.9199219 L125.109375,97.0175781 Z M130.324219,92.0957031 L128.144531,92.0957031 L128.144531,94.1699219 L130.324219,94.1699219 L130.324219,92.0957031 Z M125.109375,94.1699219 L127.277344,94.1699219 L127.277344,92.0957031 L125.109375,92.0957031 L125.109375,94.1699219 Z M135.667969,89.6230469 L138.914062,89.6230469 L138.914062,87.0800781 L139.828125,87.0800781 L139.828125,89.6230469 L143.34375,89.6230469 L143.34375,90.4667969 L139.828125,90.4667969 L139.828125,92.0019531 L140.226562,91.5449219 C141.414068,92.4980516 142.585932,93.4941354 143.742188,94.5332031 L143.0625,95.2949219 C142.101558,94.3339796 141.023443,93.341802 139.828125,92.3183594 L139.828125,96.9238281 L138.914062,96.9238281 L138.914062,91.6269531 C138.039058,93.1425857 136.988287,94.4941347 135.761719,95.6816406 C135.542968,95.4628895 135.29297,95.2402355 135.011719,95.0136719 C136.488289,93.6699152 137.70312,92.1543053 138.65625,90.4667969 L135.667969,90.4667969 L135.667969,89.6230469 Z M137.074219,97.4511719 L138.166408,97.468047 C139.710157,97.4817971 141.603895,97.4605472 143.847656,97.4042969 L143.460938,98.3066406 L143.460938,98.3066406 L141.84823,98.3258332 C139.95015,98.3420562 138.319761,98.3317524 136.957031,98.2949219 C135.605462,98.2714843 134.632815,97.8261762 134.039062,96.9589844 C133.812499,97.1386728 133.355472,97.6386678 132.667969,98.4589844 L132.164062,97.4628906 L132.855709,96.8516018 C133.140147,96.6028778 133.393972,96.3847666 133.617188,96.1972656 L133.617188,92.0957031 L132.28125,92.0957031 L132.28125,91.2402344 L134.53125,91.2402344 L134.53125,96.3613281 C135.101565,97.0488316 135.949213,97.4121092 137.074219,97.4511719 Z M133.371094,87.1738281 C133.894534,87.7832062 134.476559,88.5175738 135.117188,89.3769531 L134.308594,89.9863281 C133.785154,89.1816366 133.230472,88.4199255 132.644531,87.7011719 L133.371094,87.1738281 Z M140.601562,87.8769531 L141.140625,87.2207031 L141.811408,87.6689463 C142.280626,87.988868 142.627343,88.2417959 142.851562,88.4277344 L142.253906,89.1777344 C141.816404,88.7871074 141.265628,88.353518 140.601562,87.8769531 Z M144.363281,89.0488281 L149.988281,89.0488281 L149.622395,88.3665352 C149.397569,87.9568133 149.210938,87.6373709 149.0625,87.4082031 L149.964844,86.9863281 L150.220052,87.392578 C150.414496,87.7102855 150.657551,88.1217423 150.949219,88.6269531 L150.105469,89.0488281 L155.613281,89.0488281 L155.613281,89.9160156 L153.451172,89.9160156 C153.033201,92.1464955 152.134773,93.9394463 150.755859,95.2949219 C151.794927,96.0527382 153.445301,96.7324189 155.707031,97.3339844 C155.347654,97.7402364 155.07422,98.0800768 154.886719,98.3535156 C152.683583,97.5917931 151.056646,96.794926 150.005859,95.9628906 C148.951167,96.7832072 147.265637,97.6113239 144.949219,98.4472656 L144.621094,98.013672 C144.503907,97.8613286 144.378907,97.7011727 144.246094,97.5332031 C146.48048,96.8613248 148.162104,96.1132854 149.291016,95.2890625 C147.865227,93.7656174 146.958986,91.9746197 146.572266,89.9160156 L144.363281,89.9160156 L144.363281,89.0488281 Z M152.449219,89.9160156 L147.509766,89.9160156 C147.86133,91.8379002 148.701165,93.425775 150.029297,94.6796875 C151.298834,93.4999941 152.105467,91.9121194 152.449219,89.9160156 Z M156.785156,93.5839844 L157.62461,93.4824678 C159.10945,93.2920322 160.29642,93.0778257 161.185547,92.8398438 C160.248042,92.5898425 159.300786,92.3457043 158.34375,92.1074219 C158.664064,91.7636702 158.96875,91.4238298 159.257812,91.0878906 L156.46875,91.0878906 L156.46875,90.3144531 L159.890625,90.3144531 C160.187501,89.9394513 160.460936,89.5683612 160.710938,89.2011719 L161.660156,89.4707031 C161.449218,89.7519545 161.224611,90.0332017 160.986328,90.3144531 L167.53125,90.3144531 L167.53125,91.0878906 L165.011719,91.0878906 C164.640623,91.7480502 164.138675,92.2832011 163.505859,92.6933594 L164.813673,93.0392971 C165.451172,93.209453 166.06406,93.3753898 166.652344,93.5371094 L166.277344,94.3222656 C165.039056,93.9316387 163.779303,93.5585955 162.498047,93.203125 C161.310541,93.6718773 159.519543,94.0566391 157.125,94.3574219 C157.03125,94.1074206 156.917969,93.8496107 156.785156,93.5839844 Z M167.847656,97.3691406 C167.58203,97.6816422 167.35547,97.974608 167.167969,98.2480469 C165.105458,97.6308563 163.523443,96.8750045 162.421875,95.9804688 L162.421875,98.6230469 L161.578125,98.6230469 L161.578125,95.9980469 C160.394525,96.8339886 158.820322,97.5878873 156.855469,98.2597656 C156.675781,98.033202 156.44922,97.7675796 156.175781,97.4628906 C158.191416,96.9589819 159.787103,96.3378943 160.962891,95.5996094 L156.445312,95.5996094 L156.445312,94.8144531 L161.578125,94.8144531 L161.578125,93.8535156 L162.421875,93.8535156 L162.421875,94.8144531 L167.625,94.8144531 L167.625,95.5996094 L163.060547,95.5996094 C164.294928,96.4316448 165.890615,97.0214826 167.847656,97.3691406 Z M156.785156,88.1230469 L161.695312,88.1230469 C161.546874,87.8535143 161.375001,87.5761733 161.179688,87.2910156 L162.011719,86.9160156 C162.265626,87.3144551 162.505858,87.7167948 162.732422,88.1230469 L167.203125,88.1230469 L167.203125,89.8925781 L166.3125,89.8925781 L166.3125,88.8964844 L157.675781,88.8964844 L157.675781,89.8925781 L156.785156,89.8925781 L156.785156,88.1230469 Z M159.679688,91.7324219 L161.7583,92.2498776 C161.981932,92.3062741 162.203124,92.3623044 162.421875,92.4179688 C163.109378,92.1132797 163.646482,91.6699248 164.033203,91.0878906 L160.300781,91.0878906 C160.101562,91.3027354 159.894532,91.5175771 159.679688,91.7324219 Z M172.21875,91.2988281 L179.214844,91.2988281 L179.214844,98.5175781 L178.324219,98.5175781 L178.324219,97.7910156 L173.109375,97.7910156 L173.109375,98.5175781 L172.21875,98.5175781 L172.21875,91.2988281 Z M168.164062,93.2441406 C168.632815,93.1035149 169.13281,92.9414072 169.664062,92.7578125 L169.664062,90.0683594 L168.269531,90.0683594 L168.269531,89.2714844 L169.664062,89.2714844 L169.664062,87.0917969 L170.554688,87.0917969 L170.554688,89.2714844 L171.75,89.2714844 L171.75,90.0683594 L170.554688,90.0683594 L170.554688,92.4472656 L171.304687,92.1712241 C171.432291,92.1234812 171.561197,92.07487 171.691406,92.0253906 L171.714844,92.9511719 L171.714844,92.9511719 L170.554688,93.3789062 L170.554688,93.3789062 L170.554688,97.2167969 C170.554688,98.0136759 170.175785,98.4199218 169.417969,98.4355469 L169.039219,98.4411719 C168.829219,98.4421094 168.588283,98.4402344 168.316406,98.4355469 C168.269531,98.1074202 168.21875,97.7832047 168.164062,97.4628906 C168.593752,97.5097659 168.941405,97.5332031 169.207031,97.5332031 C169.51172,97.5332031 169.664062,97.3730485 169.664062,97.0527344 L169.664062,93.7070312 L168.292969,94.2285156 L168.292969,94.2285156 L168.164062,93.2441406 Z M176.8125,87.0800781 L177.667969,87.0800781 L177.667969,88.5566406 L179.8125,88.5566406 L179.8125,89.3769531 L177.667969,89.3769531 L177.667969,90.8183594 L176.8125,90.8183594 L176.8125,89.3769531 L174.609375,89.3769531 L174.609375,90.8183594 L173.753906,90.8183594 L173.753906,89.3769531 L171.890625,89.3769531 L171.890625,88.5566406 L173.753906,88.5566406 L173.753906,87.0917969 L174.609375,87.0917969 L174.609375,88.5566406 L176.8125,88.5566406 L176.8125,87.0800781 Z M176.144531,97.0175781 L178.324219,97.0175781 L178.324219,94.9199219 L176.144531,94.9199219 L176.144531,97.0175781 Z M173.109375,97.0175781 L175.277344,97.0175781 L175.277344,94.9199219 L173.109375,94.9199219 L173.109375,97.0175781 Z M178.324219,92.0957031 L176.144531,92.0957031 L176.144531,94.1699219 L178.324219,94.1699219 L178.324219,92.0957031 Z M173.109375,94.1699219 L175.277344,94.1699219 L175.277344,92.0957031 L173.109375,92.0957031 L173.109375,94.1699219 Z M183.667969,89.6230469 L186.914062,89.6230469 L186.914062,87.0800781 L187.828125,87.0800781 L187.828125,89.6230469 L191.34375,89.6230469 L191.34375,90.4667969 L187.828125,90.4667969 L187.828125,92.0019531 L188.226562,91.5449219 C189.414068,92.4980516 190.585932,93.4941354 191.742188,94.5332031 L191.0625,95.2949219 C190.101558,94.3339796 189.023443,93.341802 187.828125,92.3183594 L187.828125,96.9238281 L186.914062,96.9238281 L186.914062,91.6269531 C186.039058,93.1425857 184.988287,94.4941347 183.761719,95.6816406 C183.542968,95.4628895 183.29297,95.2402355 183.011719,95.0136719 C184.488289,93.6699152 185.70312,92.1543053 186.65625,90.4667969 L183.667969,90.4667969 L183.667969,89.6230469 Z M185.074219,97.4511719 L186.166408,97.468047 C187.710157,97.4817971 189.603895,97.4605472 191.847656,97.4042969 L191.460938,98.3066406 L191.460938,98.3066406 L189.84823,98.3258332 C187.95015,98.3420562 186.319761,98.3317524 184.957031,98.2949219 C183.605462,98.2714843 182.632815,97.8261762 182.039062,96.9589844 C181.812499,97.1386728 181.355472,97.6386678 180.667969,98.4589844 L180.164062,97.4628906 L180.855709,96.8516018 C181.140147,96.6028778 181.393972,96.3847666 181.617188,96.1972656 L181.617188,92.0957031 L180.28125,92.0957031 L180.28125,91.2402344 L182.53125,91.2402344 L182.53125,96.3613281 C183.101565,97.0488316 183.949213,97.4121092 185.074219,97.4511719 Z M181.371094,87.1738281 C181.894534,87.7832062 182.476559,88.5175738 183.117188,89.3769531 L182.308594,89.9863281 C181.785154,89.1816366 181.230472,88.4199255 180.644531,87.7011719 L181.371094,87.1738281 Z M188.601562,87.8769531 L189.140625,87.2207031 L189.811408,87.6689463 C190.280626,87.988868 190.627343,88.2417959 190.851562,88.4277344 L190.253906,89.1777344 C189.816404,88.7871074 189.265628,88.353518 188.601562,87.8769531 Z M192.363281,89.0488281 L197.988281,89.0488281 L197.622395,88.3665352 C197.397569,87.9568133 197.210938,87.6373709 197.0625,87.4082031 L197.964844,86.9863281 L198.220052,87.392578 C198.414496,87.7102855 198.657551,88.1217423 198.949219,88.6269531 L198.105469,89.0488281 L203.613281,89.0488281 L203.613281,89.9160156 L201.451172,89.9160156 C201.033201,92.1464955 200.134773,93.9394463 198.755859,95.2949219 C199.794927,96.0527382 201.445301,96.7324189 203.707031,97.3339844 C203.347654,97.7402364 203.07422,98.0800768 202.886719,98.3535156 C200.683583,97.5917931 199.056646,96.794926 198.005859,95.9628906 C196.951167,96.7832072 195.265637,97.6113239 192.949219,98.4472656 L192.621094,98.013672 C192.503907,97.8613286 192.378907,97.7011727 192.246094,97.5332031 C194.48048,96.8613248 196.162104,96.1132854 197.291016,95.2890625 C195.865227,93.7656174 194.958986,91.9746197 194.572266,89.9160156 L192.363281,89.9160156 L192.363281,89.0488281 Z M200.449219,89.9160156 L195.509766,89.9160156 C195.86133,91.8379002 196.701165,93.425775 198.029297,94.6796875 C199.298834,93.4999941 200.105467,91.9121194 200.449219,89.9160156 Z M204.785156,93.5839844 L205.62461,93.4824678 C207.10945,93.2920322 208.29642,93.0778257 209.185547,92.8398438 C208.248042,92.5898425 207.300786,92.3457043 206.34375,92.1074219 C206.664064,91.7636702 206.96875,91.4238298 207.257812,91.0878906 L204.46875,91.0878906 L204.46875,90.3144531 L207.890625,90.3144531 C208.187501,89.9394513 208.460936,89.5683612 208.710938,89.2011719 L209.660156,89.4707031 C209.449218,89.7519545 209.224611,90.0332017 208.986328,90.3144531 L215.53125,90.3144531 L215.53125,91.0878906 L213.011719,91.0878906 C212.640623,91.7480502 212.138675,92.2832011 211.505859,92.6933594 L212.813673,93.0392971 C213.451172,93.209453 214.06406,93.3753898 214.652344,93.5371094 L214.277344,94.3222656 C213.039056,93.9316387 211.779303,93.5585955 210.498047,93.203125 C209.310541,93.6718773 207.519543,94.0566391 205.125,94.3574219 C205.03125,94.1074206 204.917969,93.8496107 204.785156,93.5839844 Z M215.847656,97.3691406 C215.58203,97.6816422 215.35547,97.974608 215.167969,98.2480469 C213.105458,97.6308563 211.523443,96.8750045 210.421875,95.9804688 L210.421875,98.6230469 L209.578125,98.6230469 L209.578125,95.9980469 C208.394525,96.8339886 206.820322,97.5878873 204.855469,98.2597656 C204.675781,98.033202 204.44922,97.7675796 204.175781,97.4628906 C206.191416,96.9589819 207.787103,96.3378943 208.962891,95.5996094 L204.445312,95.5996094 L204.445312,94.8144531 L209.578125,94.8144531 L209.578125,93.8535156 L210.421875,93.8535156 L210.421875,94.8144531 L215.625,94.8144531 L215.625,95.5996094 L211.060547,95.5996094 C212.294928,96.4316448 213.890615,97.0214826 215.847656,97.3691406 Z M204.785156,88.1230469 L209.695312,88.1230469 C209.546874,87.8535143 209.375001,87.5761733 209.179688,87.2910156 L210.011719,86.9160156 C210.265626,87.3144551 210.505858,87.7167948 210.732422,88.1230469 L215.203125,88.1230469 L215.203125,89.8925781 L214.3125,89.8925781 L214.3125,88.8964844 L205.675781,88.8964844 L205.675781,89.8925781 L204.785156,89.8925781 L204.785156,88.1230469 Z M207.679688,91.7324219 L209.7583,92.2498776 C209.981932,92.3062741 210.203124,92.3623044 210.421875,92.4179688 C211.109378,92.1132797 211.646482,91.6699248 212.033203,91.0878906 L208.300781,91.0878906 C208.101562,91.3027354 207.894532,91.5175771 207.679688,91.7324219 Z M216.697266,96.3964844 C216.697266,96.1855458 216.769531,96.0078132 216.914062,95.8632812 C217.058594,95.7187493 217.23828,95.6464844 217.453125,95.6464844 C217.671876,95.6464844 217.853515,95.7197258 217.998047,95.8662109 C218.142579,96.012696 218.214844,96.1894521 218.214844,96.3964844 C218.214844,96.5996104 218.142579,96.7744133 217.998047,96.9208984 C217.853515,97.0673835 217.669923,97.140625 217.447266,97.140625 C217.232421,97.140625 217.053712,97.0673835 216.911133,96.9208984 C216.768554,96.7744133 216.697266,96.5996104 216.697266,96.3964844 Z M219.585938,96.3964844 C219.585938,96.1855458 219.658202,96.0078132 219.802734,95.8632812 C219.947266,95.7187493 220.126952,95.6464844 220.341797,95.6464844 C220.560548,95.6464844 220.742187,95.7197258 220.886719,95.8662109 C221.031251,96.012696 221.103516,96.1894521 221.103516,96.3964844 C221.103516,96.5996104 221.031251,96.7744133 220.886719,96.9208984 C220.742187,97.0673835 220.558595,97.140625 220.335938,97.140625 C220.121093,97.140625 219.942384,97.0673835 219.799805,96.9208984 C219.657226,96.7744133 219.585938,96.5996104 219.585938,96.3964844 Z M222.474609,96.3964844 C222.474609,96.1855458 222.546874,96.0078132 222.691406,95.8632812 C222.835938,95.7187493 223.015624,95.6464844 223.230469,95.6464844 C223.44922,95.6464844 223.630859,95.7197258 223.775391,95.8662109 C223.919923,96.012696 223.992188,96.1894521 223.992188,96.3964844 C223.992188,96.5996104 223.919923,96.7744133 223.775391,96.9208984 C223.630859,97.0673835 223.447267,97.140625 223.224609,97.140625 C223.009765,97.140625 222.831055,97.0673835 222.688477,96.9208984 C222.545898,96.7744133 222.474609,96.5996104 222.474609,96.3964844 Z" id="描述文案描述文案描述文案..." fill="#9B9B9B" fill-rule="nonzero"></path>
                <g id="矩形">
                    <use fill="black" fill-opacity="1" filter="url(#filter-4)" xlink:href="#path-3"></use>
                    <use fill="#FFFFFF" fill-rule="evenodd" xlink:href="#path-3"></use>
                </g>
                <g id="编组-15" transform="translate(392.000000, 130.000000)">
                    <rect id="矩形" stroke="#D5DAE0" fill="#FFFFFF" x="0.5" y="0.5" width="55" height="27" rx="1.5"></rect>
                    <path d="M27.9179688,18.5878906 C27.6992177,18.869142 27.5078133,19.1347644 27.34375,19.3847656 C25.8554613,18.7988252 24.6953167,18.0234423 23.8632812,17.0585938 L23.8632812,19.7832031 L23.0898438,19.7832031 L23.0898438,17.0585938 C22.1132764,18.0156298 20.9062572,18.8066375 19.46875,19.4316406 C19.3359368,19.1972645 19.1562511,18.947267 18.9296875,18.6816406 C20.4492263,18.1464817 21.6894483,17.4355513 22.6503906,16.5488281 L19.4335938,16.5488281 L19.4335938,15.8222656 L23.0898438,15.8222656 L23.0898438,15.1074219 L23.8632812,15.1074219 L23.8632812,15.8222656 L27.6835938,15.8222656 L27.6835938,16.5488281 L24.2441406,16.5488281 C25.1152387,17.4550827 26.3398359,18.1347634 27.9179688,18.5878906 Z M16.2929688,15.4003906 L16.1640625,14.4160156 L16.7040627,14.2425781 C16.9862495,14.1488283 17.2867172,14.0445318 17.6054688,13.9296875 L17.6054688,11.2636719 L16.2695312,11.2636719 L16.2695312,10.4667969 L17.6054688,10.4667969 L17.6054688,8.28710938 L18.4726562,8.28710938 L18.4726562,10.4667969 L19.7734375,10.4667969 L19.7734375,11.2636719 L18.4726562,11.2636719 L18.4726562,13.6074219 L19.1940099,13.3261721 C19.3185757,13.276693 19.4453119,13.2259117 19.5742188,13.1738281 L19.5976562,14.0996094 L19.5976562,14.0996094 L18.4726562,14.5332031 L18.4726562,14.5332031 L18.4726562,18.4238281 C18.4726562,19.205082 18.1054688,19.6074218 17.3710938,19.6308594 C17.0742173,19.6464845 16.7031272,19.6464845 16.2578125,19.6308594 C16.2187498,19.3183578 16.1679691,19.0058609 16.1054688,18.6933594 C16.5429709,18.7402346 16.9023423,18.7636719 17.1835938,18.7636719 C17.4648452,18.7636719 17.6054688,18.6152359 17.6054688,18.3183594 L17.6054688,14.8789062 L16.6408699,15.2601315 C16.5271004,15.3057858 16.4111334,15.3525388 16.2929688,15.4003906 Z M20.7578125,8.74414062 L26.3125,8.74414062 L26.3125,11.6152344 L25.46875,11.6152344 L25.46875,11.2988281 L21.6015625,11.2988281 L21.6015625,11.6152344 L20.7578125,11.6152344 L20.7578125,8.74414062 Z M23.9921875,12.0957031 L27.15625,12.0957031 L27.15625,14.9785156 L26.4296875,14.9785156 L26.4296875,14.6152344 L24.71875,14.6152344 L24.71875,14.9433594 L23.9921875,14.9433594 L23.9921875,12.0957031 Z M19.9257812,12.1191406 L23.0195312,12.1191406 L23.0195312,14.9433594 L22.2929688,14.9433594 L22.2929688,14.6269531 L20.6523438,14.6269531 L20.6523438,14.9785156 L19.9257812,14.9785156 L19.9257812,12.1191406 Z M25.46875,9.44726562 L21.6015625,9.44726562 L21.6015625,10.5957031 L25.46875,10.5957031 L25.46875,9.44726562 Z M26.4296875,12.7753906 L24.71875,12.7753906 L24.71875,13.9355469 L26.4296875,13.9355469 L26.4296875,12.7753906 Z M22.2929688,12.7988281 L20.6523438,12.7988281 L20.6523438,13.9472656 L22.2929688,13.9472656 L22.2929688,12.7988281 Z M31.3867188,12.9746094 C32.4257864,11.5527273 33.1914038,9.96680562 33.6835938,8.21679688 L34.6445312,8.39257812 C34.4609366,8.99414363 34.2539074,9.57616906 34.0234375,10.1386719 L39.8007812,10.1386719 L39.8007812,10.9589844 L35.5351562,10.9589844 L35.5351562,13.0097656 L39.3320312,13.0097656 L39.3320312,13.8300781 L35.5351562,13.8300781 L35.5351562,15.9628906 L39.484375,15.9628906 L39.484375,16.7832031 L35.5351562,16.7832031 L35.5351562,19.7363281 L34.6210938,19.7363281 L34.6210938,10.9589844 L33.6660156,10.9589844 C33.2246072,11.9121141 32.7109404,12.8066364 32.125,13.6425781 C31.9062489,13.4316396 31.6601576,13.2089855 31.3867188,12.9746094 Z M28.1289062,14.0527344 C29.2304743,12.4199137 30.1015593,10.4863393 30.7421875,8.25195312 L31.703125,8.53320312 C31.4023422,9.45508273 31.0820329,10.3203085 30.7421875,11.1289062 L30.7421875,19.7363281 L29.828125,19.7363281 L29.828125,13.0390625 C29.4335918,13.7773474 29.0156272,14.4511688 28.5742188,15.0605469 C28.4570307,14.7636704 28.3085946,14.4277363 28.1289062,14.0527344 Z" id="操作" fill="#333333" fill-rule="nonzero"></path>
                </g>
                <path d="M74.1796875,133.337891 L74.7539062,132.681641 C75.3476592,133.169924 75.8886694,133.648435 76.3769531,134.117188 C76.9003932,133.210933 77.2695302,132.228521 77.484375,131.169922 L74.8476562,131.169922 C74.2343719,132.576179 73.4804732,133.841791 72.5859375,134.966797 C72.4140616,134.568357 72.2578132,134.255861 72.1171875,134.029297 C73.2968809,132.443351 74.2050749,130.587901 74.8417969,128.462891 L72.5039062,128.462891 L72.5039062,127.619141 L79.078125,127.619141 L79.078125,128.462891 L75.8085938,128.462891 C75.6249991,129.107425 75.419923,129.728513 75.1933594,130.326172 L78.4453125,130.326172 L78.4453125,131.181641 C77.8046843,134.384782 76.1211074,136.857413 73.3945312,138.599609 C73.1914052,138.365233 72.9492202,138.126954 72.6679688,137.884766 C74.0039129,137.02148 75.0742147,136.023443 75.8789062,134.890625 C75.4335915,134.453123 74.8671909,133.93555 74.1796875,133.337891 Z M82.1601562,127.197266 L83.0976562,127.197266 L83.0976562,136.876953 C83.0976562,137.869146 82.648442,138.369141 81.75,138.376953 L81.43287,138.380425 C81.0271028,138.382451 80.496097,138.377387 79.8398438,138.365234 C79.8007811,138.005858 79.7382817,137.654299 79.6523438,137.310547 L80.3867201,137.369141 C80.829428,137.400391 81.1783841,137.416016 81.4335938,137.416016 C81.9179712,137.416016 82.1601562,137.154299 82.1601562,136.630859 L82.1601562,127.197266 Z M80.4726562,135.669922 L79.5703125,135.669922 L79.5703125,128.498047 L80.4726562,128.498047 L80.4726562,135.669922 Z M94.3476562,133.455078 L94.9921875,134.263672 L92.3730469,135.576172 C93.2910202,136.326176 94.4413993,136.822264 95.8242188,137.064453 C95.5585924,137.408205 95.3398446,137.720702 95.1679688,138.001953 C92.6484249,137.400388 90.8418023,135.851575 89.7480469,133.355469 C89.3496074,133.863284 88.8945338,134.345701 88.3828125,134.802734 L88.3828125,137.310547 C89.4140677,136.974608 90.3710893,136.623049 91.2539062,136.255859 C91.2460937,136.599611 91.2499999,136.939453 91.265625,137.275391 C90.3281203,137.595705 89.35938,137.947264 88.359375,138.330078 C88.1484364,138.416016 87.9414073,138.517578 87.7382812,138.634766 L87.1875,137.779297 C87.4062511,137.623046 87.515625,137.404298 87.515625,137.123047 L87.515625,135.511719 C86.7070272,136.117191 85.7890676,136.666013 84.7617188,137.158203 C84.5898429,136.884764 84.3906261,136.615236 84.1640625,136.349609 C86.1836038,135.52148 87.7695255,134.412116 88.921875,133.021484 L84.2929688,133.021484 L84.2929688,132.212891 L89.5429688,132.212891 L89.5429688,131.017578 L85.125,131.017578 L85.125,130.208984 L89.5429688,130.208984 L89.5429688,129.060547 L84.65625,129.060547 L84.65625,128.251953 L89.5429688,128.251953 L89.5429688,126.939453 L90.46875,126.939453 L90.46875,128.251953 L95.3789062,128.251953 L95.3789062,129.060547 L90.46875,129.060547 L90.46875,130.208984 L94.875,130.208984 L94.875,131.017578 L90.46875,131.017578 L90.46875,132.212891 L95.7070312,132.212891 L95.7070312,133.021484 L90.4980469,133.021484 C90.8261735,133.783207 91.2480443,134.443357 91.7636719,135.001953 C92.5488321,134.611326 93.4101516,134.095706 94.3476562,133.455078 Z M96.3632812,129.048828 L101.988281,129.048828 L101.622395,128.366535 C101.397569,127.956813 101.210938,127.637371 101.0625,127.408203 L101.964844,126.986328 L102.220052,127.392578 C102.414496,127.710286 102.657551,128.121742 102.949219,128.626953 L102.105469,129.048828 L107.613281,129.048828 L107.613281,129.916016 L105.451172,129.916016 C105.033201,132.146496 104.134773,133.939446 102.755859,135.294922 C103.794927,136.052738 105.445301,136.732419 107.707031,137.333984 C107.347654,137.740236 107.07422,138.080077 106.886719,138.353516 C104.683583,137.591793 103.056646,136.794926 102.005859,135.962891 C100.951167,136.783207 99.2656366,137.611324 96.9492188,138.447266 L96.6210942,138.013672 C96.5039069,137.861329 96.3789069,137.701173 96.2460938,137.533203 C98.4804799,136.861325 100.162104,136.113285 101.291016,135.289062 C99.8652272,133.765617 98.9589863,131.97462 98.5722656,129.916016 L96.3632812,129.916016 L96.3632812,129.048828 Z M104.449219,129.916016 L99.5097656,129.916016 C99.8613299,131.8379 100.701165,133.425775 102.029297,134.679688 C103.298834,133.499994 104.105467,131.912119 104.449219,129.916016 Z M108.785156,133.583984 L109.62461,133.482468 C111.10945,133.292032 112.29642,133.077826 113.185547,132.839844 C112.248042,132.589843 111.300786,132.345704 110.34375,132.107422 C110.664064,131.76367 110.96875,131.42383 111.257812,131.087891 L108.46875,131.087891 L108.46875,130.314453 L111.890625,130.314453 C112.187501,129.939451 112.460936,129.568361 112.710938,129.201172 L113.660156,129.470703 C113.449218,129.751955 113.224611,130.033202 112.986328,130.314453 L119.53125,130.314453 L119.53125,131.087891 L117.011719,131.087891 C116.640623,131.74805 116.138675,132.283201 115.505859,132.693359 L116.813673,133.039297 C117.451172,133.209453 118.06406,133.37539 118.652344,133.537109 L118.277344,134.322266 C117.039056,133.931639 115.779303,133.558596 114.498047,133.203125 C113.310541,133.671877 111.519543,134.056639 109.125,134.357422 C109.03125,134.107421 108.917969,133.849611 108.785156,133.583984 Z M119.847656,137.369141 C119.58203,137.681642 119.35547,137.974608 119.167969,138.248047 C117.105458,137.630856 115.523443,136.875004 114.421875,135.980469 L114.421875,138.623047 L113.578125,138.623047 L113.578125,135.998047 C112.394525,136.833989 110.820322,137.587887 108.855469,138.259766 C108.675781,138.033202 108.44922,137.76758 108.175781,137.462891 C110.191416,136.958982 111.787103,136.337894 112.962891,135.599609 L108.445312,135.599609 L108.445312,134.814453 L113.578125,134.814453 L113.578125,133.853516 L114.421875,133.853516 L114.421875,134.814453 L119.625,134.814453 L119.625,135.599609 L115.060547,135.599609 C116.294928,136.431645 117.890615,137.021483 119.847656,137.369141 Z M108.785156,128.123047 L113.695312,128.123047 C113.546874,127.853514 113.375001,127.576173 113.179688,127.291016 L114.011719,126.916016 C114.265626,127.314455 114.505858,127.716795 114.732422,128.123047 L119.203125,128.123047 L119.203125,129.892578 L118.3125,129.892578 L118.3125,128.896484 L109.675781,128.896484 L109.675781,129.892578 L108.785156,129.892578 L108.785156,128.123047 Z M111.679688,131.732422 L113.7583,132.249878 C113.981932,132.306274 114.203124,132.362304 114.421875,132.417969 C115.109378,132.11328 115.646482,131.669925 116.033203,131.087891 L112.300781,131.087891 C112.101562,131.302735 111.894532,131.517577 111.679688,131.732422 Z M122.179688,133.337891 L122.753906,132.681641 C123.347659,133.169924 123.888669,133.648435 124.376953,134.117188 C124.900393,133.210933 125.26953,132.228521 125.484375,131.169922 L122.847656,131.169922 C122.234372,132.576179 121.480473,133.841791 120.585938,134.966797 C120.414062,134.568357 120.257813,134.255861 120.117188,134.029297 C121.296881,132.443351 122.205075,130.587901 122.841797,128.462891 L120.503906,128.462891 L120.503906,127.619141 L127.078125,127.619141 L127.078125,128.462891 L123.808594,128.462891 C123.624999,129.107425 123.419923,129.728513 123.193359,130.326172 L126.445312,130.326172 L126.445312,131.181641 C125.804684,134.384782 124.121107,136.857413 121.394531,138.599609 C121.191405,138.365233 120.94922,138.126954 120.667969,137.884766 C122.003913,137.02148 123.074215,136.023443 123.878906,134.890625 C123.433592,134.453123 122.867191,133.93555 122.179688,133.337891 Z M130.160156,127.197266 L131.097656,127.197266 L131.097656,136.876953 C131.097656,137.869146 130.648442,138.369141 129.75,138.376953 L129.43287,138.380425 C129.027103,138.382451 128.496097,138.377387 127.839844,138.365234 C127.800781,138.005858 127.738282,137.654299 127.652344,137.310547 L128.38672,137.369141 C128.829428,137.400391 129.178384,137.416016 129.433594,137.416016 C129.917971,137.416016 130.160156,137.154299 130.160156,136.630859 L130.160156,127.197266 Z M128.472656,135.669922 L127.570312,135.669922 L127.570312,128.498047 L128.472656,128.498047 L128.472656,135.669922 Z M142.347656,133.455078 L142.992188,134.263672 L140.373047,135.576172 C141.29102,136.326176 142.441399,136.822264 143.824219,137.064453 C143.558592,137.408205 143.339845,137.720702 143.167969,138.001953 C140.648425,137.400388 138.841802,135.851575 137.748047,133.355469 C137.349607,133.863284 136.894534,134.345701 136.382812,134.802734 L136.382812,137.310547 C137.414068,136.974608 138.371089,136.623049 139.253906,136.255859 C139.246094,136.599611 139.25,136.939453 139.265625,137.275391 C138.32812,137.595705 137.35938,137.947264 136.359375,138.330078 C136.148436,138.416016 135.941407,138.517578 135.738281,138.634766 L135.1875,137.779297 C135.406251,137.623046 135.515625,137.404298 135.515625,137.123047 L135.515625,135.511719 C134.707027,136.117191 133.789068,136.666013 132.761719,137.158203 C132.589843,136.884764 132.390626,136.615236 132.164062,136.349609 C134.183604,135.52148 135.769525,134.412116 136.921875,133.021484 L132.292969,133.021484 L132.292969,132.212891 L137.542969,132.212891 L137.542969,131.017578 L133.125,131.017578 L133.125,130.208984 L137.542969,130.208984 L137.542969,129.060547 L132.65625,129.060547 L132.65625,128.251953 L137.542969,128.251953 L137.542969,126.939453 L138.46875,126.939453 L138.46875,128.251953 L143.378906,128.251953 L143.378906,129.060547 L138.46875,129.060547 L138.46875,130.208984 L142.875,130.208984 L142.875,131.017578 L138.46875,131.017578 L138.46875,132.212891 L143.707031,132.212891 L143.707031,133.021484 L138.498047,133.021484 C138.826174,133.783207 139.248044,134.443357 139.763672,135.001953 C140.548832,134.611326 141.410152,134.095706 142.347656,133.455078 Z M144.363281,129.048828 L149.988281,129.048828 L149.622395,128.366535 C149.397569,127.956813 149.210938,127.637371 149.0625,127.408203 L149.964844,126.986328 L150.220052,127.392578 C150.414496,127.710286 150.657551,128.121742 150.949219,128.626953 L150.105469,129.048828 L155.613281,129.048828 L155.613281,129.916016 L153.451172,129.916016 C153.033201,132.146496 152.134773,133.939446 150.755859,135.294922 C151.794927,136.052738 153.445301,136.732419 155.707031,137.333984 C155.347654,137.740236 155.07422,138.080077 154.886719,138.353516 C152.683583,137.591793 151.056646,136.794926 150.005859,135.962891 C148.951167,136.783207 147.265637,137.611324 144.949219,138.447266 L144.621094,138.013672 C144.503907,137.861329 144.378907,137.701173 144.246094,137.533203 C146.48048,136.861325 148.162104,136.113285 149.291016,135.289062 C147.865227,133.765617 146.958986,131.97462 146.572266,129.916016 L144.363281,129.916016 L144.363281,129.048828 Z M152.449219,129.916016 L147.509766,129.916016 C147.86133,131.8379 148.701165,133.425775 150.029297,134.679688 C151.298834,133.499994 152.105467,131.912119 152.449219,129.916016 Z M156.785156,133.583984 L157.62461,133.482468 C159.10945,133.292032 160.29642,133.077826 161.185547,132.839844 C160.248042,132.589843 159.300786,132.345704 158.34375,132.107422 C158.664064,131.76367 158.96875,131.42383 159.257812,131.087891 L156.46875,131.087891 L156.46875,130.314453 L159.890625,130.314453 C160.187501,129.939451 160.460936,129.568361 160.710938,129.201172 L161.660156,129.470703 C161.449218,129.751955 161.224611,130.033202 160.986328,130.314453 L167.53125,130.314453 L167.53125,131.087891 L165.011719,131.087891 C164.640623,131.74805 164.138675,132.283201 163.505859,132.693359 L164.813673,133.039297 C165.451172,133.209453 166.06406,133.37539 166.652344,133.537109 L166.277344,134.322266 C165.039056,133.931639 163.779303,133.558596 162.498047,133.203125 C161.310541,133.671877 159.519543,134.056639 157.125,134.357422 C157.03125,134.107421 156.917969,133.849611 156.785156,133.583984 Z M167.847656,137.369141 C167.58203,137.681642 167.35547,137.974608 167.167969,138.248047 C165.105458,137.630856 163.523443,136.875004 162.421875,135.980469 L162.421875,138.623047 L161.578125,138.623047 L161.578125,135.998047 C160.394525,136.833989 158.820322,137.587887 156.855469,138.259766 C156.675781,138.033202 156.44922,137.76758 156.175781,137.462891 C158.191416,136.958982 159.787103,136.337894 160.962891,135.599609 L156.445312,135.599609 L156.445312,134.814453 L161.578125,134.814453 L161.578125,133.853516 L162.421875,133.853516 L162.421875,134.814453 L167.625,134.814453 L167.625,135.599609 L163.060547,135.599609 C164.294928,136.431645 165.890615,137.021483 167.847656,137.369141 Z M156.785156,128.123047 L161.695312,128.123047 C161.546874,127.853514 161.375001,127.576173 161.179688,127.291016 L162.011719,126.916016 C162.265626,127.314455 162.505858,127.716795 162.732422,128.123047 L167.203125,128.123047 L167.203125,129.892578 L166.3125,129.892578 L166.3125,128.896484 L157.675781,128.896484 L157.675781,129.892578 L156.785156,129.892578 L156.785156,128.123047 Z M159.679688,131.732422 L161.7583,132.249878 C161.981932,132.306274 162.203124,132.362304 162.421875,132.417969 C163.109378,132.11328 163.646482,131.669925 164.033203,131.087891 L160.300781,131.087891 C160.101562,131.302735 159.894532,131.517577 159.679688,131.732422 Z M174.310547,137 L169.107422,137 L169.107422,136.009766 L171.140625,136.009766 L171.140625,129.119141 L169.054688,129.722656 L169.054688,128.667969 L172.283203,127.730469 L172.283203,136.009766 L174.310547,136.009766 L174.310547,137 Z" id="列表文案列表文案1" fill="#5A6677" fill-rule="nonzero"></path>
                <path d="M76.21875,155.298828 L83.2148438,155.298828 L83.2148438,162.517578 L82.3242188,162.517578 L82.3242188,161.791016 L77.109375,161.791016 L77.109375,162.517578 L76.21875,162.517578 L76.21875,155.298828 Z M72.1640625,157.244141 C72.6328148,157.103515 73.1328098,156.941407 73.6640625,156.757812 L73.6640625,154.068359 L72.2695312,154.068359 L72.2695312,153.271484 L73.6640625,153.271484 L73.6640625,151.091797 L74.5546875,151.091797 L74.5546875,153.271484 L75.75,153.271484 L75.75,154.068359 L74.5546875,154.068359 L74.5546875,156.447266 L75.304687,156.171224 C75.432291,156.123481 75.5611973,156.07487 75.6914062,156.025391 L75.7148438,156.951172 L75.7148438,156.951172 L74.5546875,157.378906 L74.5546875,157.378906 L74.5546875,161.216797 C74.5546875,162.013676 74.175785,162.419922 73.4179688,162.435547 L73.0392188,162.441172 C72.8292193,162.442109 72.5882826,162.440234 72.3164062,162.435547 C72.269531,162.10742 72.2187503,161.783205 72.1640625,161.462891 C72.5937521,161.509766 72.9414049,161.533203 73.2070312,161.533203 C73.5117203,161.533203 73.6640625,161.373048 73.6640625,161.052734 L73.6640625,157.707031 L72.2929688,158.228516 L72.2929688,158.228516 L72.1640625,157.244141 Z M80.8125,151.080078 L81.6679688,151.080078 L81.6679688,152.556641 L83.8125,152.556641 L83.8125,153.376953 L81.6679688,153.376953 L81.6679688,154.818359 L80.8125,154.818359 L80.8125,153.376953 L78.609375,153.376953 L78.609375,154.818359 L77.7539062,154.818359 L77.7539062,153.376953 L75.890625,153.376953 L75.890625,152.556641 L77.7539062,152.556641 L77.7539062,151.091797 L78.609375,151.091797 L78.609375,152.556641 L80.8125,152.556641 L80.8125,151.080078 Z M80.1445312,161.017578 L82.3242188,161.017578 L82.3242188,158.919922 L80.1445312,158.919922 L80.1445312,161.017578 Z M77.109375,161.017578 L79.2773438,161.017578 L79.2773438,158.919922 L77.109375,158.919922 L77.109375,161.017578 Z M82.3242188,156.095703 L80.1445312,156.095703 L80.1445312,158.169922 L82.3242188,158.169922 L82.3242188,156.095703 Z M77.109375,158.169922 L79.2773438,158.169922 L79.2773438,156.095703 L77.109375,156.095703 L77.109375,158.169922 Z M87.6679688,153.623047 L90.9140625,153.623047 L90.9140625,151.080078 L91.828125,151.080078 L91.828125,153.623047 L95.34375,153.623047 L95.34375,154.466797 L91.828125,154.466797 L91.828125,156.001953 L92.2265625,155.544922 C93.4140684,156.498052 94.5859317,157.494135 95.7421875,158.533203 L95.0625,159.294922 C94.1015577,158.33398 93.0234435,157.341802 91.828125,156.318359 L91.828125,160.923828 L90.9140625,160.923828 L90.9140625,155.626953 C90.0390581,157.142586 88.9882874,158.494135 87.7617188,159.681641 C87.5429677,159.46289 87.2929702,159.240236 87.0117188,159.013672 C88.4882886,157.669915 89.7031202,156.154305 90.65625,154.466797 L87.6679688,154.466797 L87.6679688,153.623047 Z M89.0742188,161.451172 L90.1664082,161.468047 C91.7101572,161.481797 93.603895,161.460547 95.8476562,161.404297 L95.4609375,162.306641 L95.4609375,162.306641 L93.84823,162.325833 C91.9501503,162.342056 90.3197613,162.331752 88.9570312,162.294922 C87.605462,162.271484 86.6328155,161.826176 86.0390625,160.958984 C85.8124989,161.138673 85.3554722,161.638668 84.6679688,162.458984 L84.1640625,161.462891 L84.8557085,160.851602 C85.1401467,160.602878 85.3939721,160.384767 85.6171875,160.197266 L85.6171875,156.095703 L84.28125,156.095703 L84.28125,155.240234 L86.53125,155.240234 L86.53125,160.361328 C87.1015654,161.048832 87.9492131,161.412109 89.0742188,161.451172 Z M85.3710938,151.173828 C85.8945339,151.783206 86.4765593,152.517574 87.1171875,153.376953 L86.3085938,153.986328 C85.7851536,153.181637 85.2304717,152.419925 84.6445312,151.701172 L85.3710938,151.173828 Z M92.6015625,151.876953 L93.140625,151.220703 L93.8114078,151.668946 C94.2806263,151.988868 94.6273426,152.241796 94.8515625,152.427734 L94.2539062,153.177734 C93.8164041,152.787107 93.2656283,152.353518 92.6015625,151.876953 Z M96.3632812,153.048828 L101.988281,153.048828 L101.622395,152.366535 C101.397569,151.956813 101.210938,151.637371 101.0625,151.408203 L101.964844,150.986328 L102.220052,151.392578 C102.414496,151.710286 102.657551,152.121742 102.949219,152.626953 L102.105469,153.048828 L107.613281,153.048828 L107.613281,153.916016 L105.451172,153.916016 C105.033201,156.146496 104.134773,157.939446 102.755859,159.294922 C103.794927,160.052738 105.445301,160.732419 107.707031,161.333984 C107.347654,161.740236 107.07422,162.080077 106.886719,162.353516 C104.683583,161.591793 103.056646,160.794926 102.005859,159.962891 C100.951167,160.783207 99.2656366,161.611324 96.9492188,162.447266 L96.6210942,162.013672 C96.5039069,161.861329 96.3789069,161.701173 96.2460938,161.533203 C98.4804799,160.861325 100.162104,160.113285 101.291016,159.289062 C99.8652272,157.765617 98.9589863,155.97462 98.5722656,153.916016 L96.3632812,153.916016 L96.3632812,153.048828 Z M104.449219,153.916016 L99.5097656,153.916016 C99.8613299,155.8379 100.701165,157.425775 102.029297,158.679688 C103.298834,157.499994 104.105467,155.912119 104.449219,153.916016 Z M108.785156,157.583984 L109.62461,157.482468 C111.10945,157.292032 112.29642,157.077826 113.185547,156.839844 C112.248042,156.589843 111.300786,156.345704 110.34375,156.107422 C110.664064,155.76367 110.96875,155.42383 111.257812,155.087891 L108.46875,155.087891 L108.46875,154.314453 L111.890625,154.314453 C112.187501,153.939451 112.460936,153.568361 112.710938,153.201172 L113.660156,153.470703 C113.449218,153.751955 113.224611,154.033202 112.986328,154.314453 L119.53125,154.314453 L119.53125,155.087891 L117.011719,155.087891 C116.640623,155.74805 116.138675,156.283201 115.505859,156.693359 L116.813673,157.039297 C117.451172,157.209453 118.06406,157.37539 118.652344,157.537109 L118.277344,158.322266 C117.039056,157.931639 115.779303,157.558596 114.498047,157.203125 C113.310541,157.671877 111.519543,158.056639 109.125,158.357422 C109.03125,158.107421 108.917969,157.849611 108.785156,157.583984 Z M119.847656,161.369141 C119.58203,161.681642 119.35547,161.974608 119.167969,162.248047 C117.105458,161.630856 115.523443,160.875004 114.421875,159.980469 L114.421875,162.623047 L113.578125,162.623047 L113.578125,159.998047 C112.394525,160.833989 110.820322,161.587887 108.855469,162.259766 C108.675781,162.033202 108.44922,161.76758 108.175781,161.462891 C110.191416,160.958982 111.787103,160.337894 112.962891,159.599609 L108.445312,159.599609 L108.445312,158.814453 L113.578125,158.814453 L113.578125,157.853516 L114.421875,157.853516 L114.421875,158.814453 L119.625,158.814453 L119.625,159.599609 L115.060547,159.599609 C116.294928,160.431645 117.890615,161.021483 119.847656,161.369141 Z M108.785156,152.123047 L113.695312,152.123047 C113.546874,151.853514 113.375001,151.576173 113.179688,151.291016 L114.011719,150.916016 C114.265626,151.314455 114.505858,151.716795 114.732422,152.123047 L119.203125,152.123047 L119.203125,153.892578 L118.3125,153.892578 L118.3125,152.896484 L109.675781,152.896484 L109.675781,153.892578 L108.785156,153.892578 L108.785156,152.123047 Z M111.679688,155.732422 L113.7583,156.249878 C113.981932,156.306274 114.203124,156.362304 114.421875,156.417969 C115.109378,156.11328 115.646482,155.669925 116.033203,155.087891 L112.300781,155.087891 C112.101562,155.302735 111.894532,155.517577 111.679688,155.732422 Z M124.21875,155.298828 L131.214844,155.298828 L131.214844,162.517578 L130.324219,162.517578 L130.324219,161.791016 L125.109375,161.791016 L125.109375,162.517578 L124.21875,162.517578 L124.21875,155.298828 Z M120.164062,157.244141 C120.632815,157.103515 121.13281,156.941407 121.664062,156.757812 L121.664062,154.068359 L120.269531,154.068359 L120.269531,153.271484 L121.664062,153.271484 L121.664062,151.091797 L122.554688,151.091797 L122.554688,153.271484 L123.75,153.271484 L123.75,154.068359 L122.554688,154.068359 L122.554688,156.447266 L123.304687,156.171224 C123.432291,156.123481 123.561197,156.07487 123.691406,156.025391 L123.714844,156.951172 L123.714844,156.951172 L122.554688,157.378906 L122.554688,157.378906 L122.554688,161.216797 C122.554688,162.013676 122.175785,162.419922 121.417969,162.435547 L121.039219,162.441172 C120.829219,162.442109 120.588283,162.440234 120.316406,162.435547 C120.269531,162.10742 120.21875,161.783205 120.164062,161.462891 C120.593752,161.509766 120.941405,161.533203 121.207031,161.533203 C121.51172,161.533203 121.664062,161.373048 121.664062,161.052734 L121.664062,157.707031 L120.292969,158.228516 L120.292969,158.228516 L120.164062,157.244141 Z M128.8125,151.080078 L129.667969,151.080078 L129.667969,152.556641 L131.8125,152.556641 L131.8125,153.376953 L129.667969,153.376953 L129.667969,154.818359 L128.8125,154.818359 L128.8125,153.376953 L126.609375,153.376953 L126.609375,154.818359 L125.753906,154.818359 L125.753906,153.376953 L123.890625,153.376953 L123.890625,152.556641 L125.753906,152.556641 L125.753906,151.091797 L126.609375,151.091797 L126.609375,152.556641 L128.8125,152.556641 L128.8125,151.080078 Z M128.144531,161.017578 L130.324219,161.017578 L130.324219,158.919922 L128.144531,158.919922 L128.144531,161.017578 Z M125.109375,161.017578 L127.277344,161.017578 L127.277344,158.919922 L125.109375,158.919922 L125.109375,161.017578 Z M130.324219,156.095703 L128.144531,156.095703 L128.144531,158.169922 L130.324219,158.169922 L130.324219,156.095703 Z M125.109375,158.169922 L127.277344,158.169922 L127.277344,156.095703 L125.109375,156.095703 L125.109375,158.169922 Z M135.667969,153.623047 L138.914062,153.623047 L138.914062,151.080078 L139.828125,151.080078 L139.828125,153.623047 L143.34375,153.623047 L143.34375,154.466797 L139.828125,154.466797 L139.828125,156.001953 L140.226562,155.544922 C141.414068,156.498052 142.585932,157.494135 143.742188,158.533203 L143.0625,159.294922 C142.101558,158.33398 141.023443,157.341802 139.828125,156.318359 L139.828125,160.923828 L138.914062,160.923828 L138.914062,155.626953 C138.039058,157.142586 136.988287,158.494135 135.761719,159.681641 C135.542968,159.46289 135.29297,159.240236 135.011719,159.013672 C136.488289,157.669915 137.70312,156.154305 138.65625,154.466797 L135.667969,154.466797 L135.667969,153.623047 Z M137.074219,161.451172 L138.166408,161.468047 C139.710157,161.481797 141.603895,161.460547 143.847656,161.404297 L143.460938,162.306641 L143.460938,162.306641 L141.84823,162.325833 C139.95015,162.342056 138.319761,162.331752 136.957031,162.294922 C135.605462,162.271484 134.632815,161.826176 134.039062,160.958984 C133.812499,161.138673 133.355472,161.638668 132.667969,162.458984 L132.164062,161.462891 L132.855709,160.851602 C133.140147,160.602878 133.393972,160.384767 133.617188,160.197266 L133.617188,156.095703 L132.28125,156.095703 L132.28125,155.240234 L134.53125,155.240234 L134.53125,160.361328 C135.101565,161.048832 135.949213,161.412109 137.074219,161.451172 Z M133.371094,151.173828 C133.894534,151.783206 134.476559,152.517574 135.117188,153.376953 L134.308594,153.986328 C133.785154,153.181637 133.230472,152.419925 132.644531,151.701172 L133.371094,151.173828 Z M140.601562,151.876953 L141.140625,151.220703 L141.811408,151.668946 C142.280626,151.988868 142.627343,152.241796 142.851562,152.427734 L142.253906,153.177734 C141.816404,152.787107 141.265628,152.353518 140.601562,151.876953 Z M144.363281,153.048828 L149.988281,153.048828 L149.622395,152.366535 C149.397569,151.956813 149.210938,151.637371 149.0625,151.408203 L149.964844,150.986328 L150.220052,151.392578 C150.414496,151.710286 150.657551,152.121742 150.949219,152.626953 L150.105469,153.048828 L155.613281,153.048828 L155.613281,153.916016 L153.451172,153.916016 C153.033201,156.146496 152.134773,157.939446 150.755859,159.294922 C151.794927,160.052738 153.445301,160.732419 155.707031,161.333984 C155.347654,161.740236 155.07422,162.080077 154.886719,162.353516 C152.683583,161.591793 151.056646,160.794926 150.005859,159.962891 C148.951167,160.783207 147.265637,161.611324 144.949219,162.447266 L144.621094,162.013672 C144.503907,161.861329 144.378907,161.701173 144.246094,161.533203 C146.48048,160.861325 148.162104,160.113285 149.291016,159.289062 C147.865227,157.765617 146.958986,155.97462 146.572266,153.916016 L144.363281,153.916016 L144.363281,153.048828 Z M152.449219,153.916016 L147.509766,153.916016 C147.86133,155.8379 148.701165,157.425775 150.029297,158.679688 C151.298834,157.499994 152.105467,155.912119 152.449219,153.916016 Z M156.785156,157.583984 L157.62461,157.482468 C159.10945,157.292032 160.29642,157.077826 161.185547,156.839844 C160.248042,156.589843 159.300786,156.345704 158.34375,156.107422 C158.664064,155.76367 158.96875,155.42383 159.257812,155.087891 L156.46875,155.087891 L156.46875,154.314453 L159.890625,154.314453 C160.187501,153.939451 160.460936,153.568361 160.710938,153.201172 L161.660156,153.470703 C161.449218,153.751955 161.224611,154.033202 160.986328,154.314453 L167.53125,154.314453 L167.53125,155.087891 L165.011719,155.087891 C164.640623,155.74805 164.138675,156.283201 163.505859,156.693359 L164.813673,157.039297 C165.451172,157.209453 166.06406,157.37539 166.652344,157.537109 L166.277344,158.322266 C165.039056,157.931639 163.779303,157.558596 162.498047,157.203125 C161.310541,157.671877 159.519543,158.056639 157.125,158.357422 C157.03125,158.107421 156.917969,157.849611 156.785156,157.583984 Z M167.847656,161.369141 C167.58203,161.681642 167.35547,161.974608 167.167969,162.248047 C165.105458,161.630856 163.523443,160.875004 162.421875,159.980469 L162.421875,162.623047 L161.578125,162.623047 L161.578125,159.998047 C160.394525,160.833989 158.820322,161.587887 156.855469,162.259766 C156.675781,162.033202 156.44922,161.76758 156.175781,161.462891 C158.191416,160.958982 159.787103,160.337894 160.962891,159.599609 L156.445312,159.599609 L156.445312,158.814453 L161.578125,158.814453 L161.578125,157.853516 L162.421875,157.853516 L162.421875,158.814453 L167.625,158.814453 L167.625,159.599609 L163.060547,159.599609 C164.294928,160.431645 165.890615,161.021483 167.847656,161.369141 Z M156.785156,152.123047 L161.695312,152.123047 C161.546874,151.853514 161.375001,151.576173 161.179688,151.291016 L162.011719,150.916016 C162.265626,151.314455 162.505858,151.716795 162.732422,152.123047 L167.203125,152.123047 L167.203125,153.892578 L166.3125,153.892578 L166.3125,152.896484 L157.675781,152.896484 L157.675781,153.892578 L156.785156,153.892578 L156.785156,152.123047 Z M159.679688,155.732422 L161.7583,156.249878 C161.981932,156.306274 162.203124,156.362304 162.421875,156.417969 C163.109378,156.11328 163.646482,155.669925 164.033203,155.087891 L160.300781,155.087891 C160.101562,155.302735 159.894532,155.517577 159.679688,155.732422 Z M172.21875,155.298828 L179.214844,155.298828 L179.214844,162.517578 L178.324219,162.517578 L178.324219,161.791016 L173.109375,161.791016 L173.109375,162.517578 L172.21875,162.517578 L172.21875,155.298828 Z M168.164062,157.244141 C168.632815,157.103515 169.13281,156.941407 169.664062,156.757812 L169.664062,154.068359 L168.269531,154.068359 L168.269531,153.271484 L169.664062,153.271484 L169.664062,151.091797 L170.554688,151.091797 L170.554688,153.271484 L171.75,153.271484 L171.75,154.068359 L170.554688,154.068359 L170.554688,156.447266 L171.304687,156.171224 C171.432291,156.123481 171.561197,156.07487 171.691406,156.025391 L171.714844,156.951172 L171.714844,156.951172 L170.554688,157.378906 L170.554688,157.378906 L170.554688,161.216797 C170.554688,162.013676 170.175785,162.419922 169.417969,162.435547 L169.039219,162.441172 C168.829219,162.442109 168.588283,162.440234 168.316406,162.435547 C168.269531,162.10742 168.21875,161.783205 168.164062,161.462891 C168.593752,161.509766 168.941405,161.533203 169.207031,161.533203 C169.51172,161.533203 169.664062,161.373048 169.664062,161.052734 L169.664062,157.707031 L168.292969,158.228516 L168.292969,158.228516 L168.164062,157.244141 Z M176.8125,151.080078 L177.667969,151.080078 L177.667969,152.556641 L179.8125,152.556641 L179.8125,153.376953 L177.667969,153.376953 L177.667969,154.818359 L176.8125,154.818359 L176.8125,153.376953 L174.609375,153.376953 L174.609375,154.818359 L173.753906,154.818359 L173.753906,153.376953 L171.890625,153.376953 L171.890625,152.556641 L173.753906,152.556641 L173.753906,151.091797 L174.609375,151.091797 L174.609375,152.556641 L176.8125,152.556641 L176.8125,151.080078 Z M176.144531,161.017578 L178.324219,161.017578 L178.324219,158.919922 L176.144531,158.919922 L176.144531,161.017578 Z M173.109375,161.017578 L175.277344,161.017578 L175.277344,158.919922 L173.109375,158.919922 L173.109375,161.017578 Z M178.324219,156.095703 L176.144531,156.095703 L176.144531,158.169922 L178.324219,158.169922 L178.324219,156.095703 Z M173.109375,158.169922 L175.277344,158.169922 L175.277344,156.095703 L173.109375,156.095703 L173.109375,158.169922 Z M183.667969,153.623047 L186.914062,153.623047 L186.914062,151.080078 L187.828125,151.080078 L187.828125,153.623047 L191.34375,153.623047 L191.34375,154.466797 L187.828125,154.466797 L187.828125,156.001953 L188.226562,155.544922 C189.414068,156.498052 190.585932,157.494135 191.742188,158.533203 L191.0625,159.294922 C190.101558,158.33398 189.023443,157.341802 187.828125,156.318359 L187.828125,160.923828 L186.914062,160.923828 L186.914062,155.626953 C186.039058,157.142586 184.988287,158.494135 183.761719,159.681641 C183.542968,159.46289 183.29297,159.240236 183.011719,159.013672 C184.488289,157.669915 185.70312,156.154305 186.65625,154.466797 L183.667969,154.466797 L183.667969,153.623047 Z M185.074219,161.451172 L186.166408,161.468047 C187.710157,161.481797 189.603895,161.460547 191.847656,161.404297 L191.460938,162.306641 L191.460938,162.306641 L189.84823,162.325833 C187.95015,162.342056 186.319761,162.331752 184.957031,162.294922 C183.605462,162.271484 182.632815,161.826176 182.039062,160.958984 C181.812499,161.138673 181.355472,161.638668 180.667969,162.458984 L180.164062,161.462891 L180.855709,160.851602 C181.140147,160.602878 181.393972,160.384767 181.617188,160.197266 L181.617188,156.095703 L180.28125,156.095703 L180.28125,155.240234 L182.53125,155.240234 L182.53125,160.361328 C183.101565,161.048832 183.949213,161.412109 185.074219,161.451172 Z M181.371094,151.173828 C181.894534,151.783206 182.476559,152.517574 183.117188,153.376953 L182.308594,153.986328 C181.785154,153.181637 181.230472,152.419925 180.644531,151.701172 L181.371094,151.173828 Z M188.601562,151.876953 L189.140625,151.220703 L189.811408,151.668946 C190.280626,151.988868 190.627343,152.241796 190.851562,152.427734 L190.253906,153.177734 C189.816404,152.787107 189.265628,152.353518 188.601562,151.876953 Z M192.363281,153.048828 L197.988281,153.048828 L197.622395,152.366535 C197.397569,151.956813 197.210938,151.637371 197.0625,151.408203 L197.964844,150.986328 L198.220052,151.392578 C198.414496,151.710286 198.657551,152.121742 198.949219,152.626953 L198.105469,153.048828 L203.613281,153.048828 L203.613281,153.916016 L201.451172,153.916016 C201.033201,156.146496 200.134773,157.939446 198.755859,159.294922 C199.794927,160.052738 201.445301,160.732419 203.707031,161.333984 C203.347654,161.740236 203.07422,162.080077 202.886719,162.353516 C200.683583,161.591793 199.056646,160.794926 198.005859,159.962891 C196.951167,160.783207 195.265637,161.611324 192.949219,162.447266 L192.621094,162.013672 C192.503907,161.861329 192.378907,161.701173 192.246094,161.533203 C194.48048,160.861325 196.162104,160.113285 197.291016,159.289062 C195.865227,157.765617 194.958986,155.97462 194.572266,153.916016 L192.363281,153.916016 L192.363281,153.048828 Z M200.449219,153.916016 L195.509766,153.916016 C195.86133,155.8379 196.701165,157.425775 198.029297,158.679688 C199.298834,157.499994 200.105467,155.912119 200.449219,153.916016 Z M204.785156,157.583984 L205.62461,157.482468 C207.10945,157.292032 208.29642,157.077826 209.185547,156.839844 C208.248042,156.589843 207.300786,156.345704 206.34375,156.107422 C206.664064,155.76367 206.96875,155.42383 207.257812,155.087891 L204.46875,155.087891 L204.46875,154.314453 L207.890625,154.314453 C208.187501,153.939451 208.460936,153.568361 208.710938,153.201172 L209.660156,153.470703 C209.449218,153.751955 209.224611,154.033202 208.986328,154.314453 L215.53125,154.314453 L215.53125,155.087891 L213.011719,155.087891 C212.640623,155.74805 212.138675,156.283201 211.505859,156.693359 L212.813673,157.039297 C213.451172,157.209453 214.06406,157.37539 214.652344,157.537109 L214.277344,158.322266 C213.039056,157.931639 211.779303,157.558596 210.498047,157.203125 C209.310541,157.671877 207.519543,158.056639 205.125,158.357422 C205.03125,158.107421 204.917969,157.849611 204.785156,157.583984 Z M215.847656,161.369141 C215.58203,161.681642 215.35547,161.974608 215.167969,162.248047 C213.105458,161.630856 211.523443,160.875004 210.421875,159.980469 L210.421875,162.623047 L209.578125,162.623047 L209.578125,159.998047 C208.394525,160.833989 206.820322,161.587887 204.855469,162.259766 C204.675781,162.033202 204.44922,161.76758 204.175781,161.462891 C206.191416,160.958982 207.787103,160.337894 208.962891,159.599609 L204.445312,159.599609 L204.445312,158.814453 L209.578125,158.814453 L209.578125,157.853516 L210.421875,157.853516 L210.421875,158.814453 L215.625,158.814453 L215.625,159.599609 L211.060547,159.599609 C212.294928,160.431645 213.890615,161.021483 215.847656,161.369141 Z M204.785156,152.123047 L209.695312,152.123047 C209.546874,151.853514 209.375001,151.576173 209.179688,151.291016 L210.011719,150.916016 C210.265626,151.314455 210.505858,151.716795 210.732422,152.123047 L215.203125,152.123047 L215.203125,153.892578 L214.3125,153.892578 L214.3125,152.896484 L205.675781,152.896484 L205.675781,153.892578 L204.785156,153.892578 L204.785156,152.123047 Z M207.679688,155.732422 L209.7583,156.249878 C209.981932,156.306274 210.203124,156.362304 210.421875,156.417969 C211.109378,156.11328 211.646482,155.669925 212.033203,155.087891 L208.300781,155.087891 C208.101562,155.302735 207.894532,155.517577 207.679688,155.732422 Z M216.697266,160.396484 C216.697266,160.185546 216.769531,160.007813 216.914062,159.863281 C217.058594,159.718749 217.23828,159.646484 217.453125,159.646484 C217.671876,159.646484 217.853515,159.719726 217.998047,159.866211 C218.142579,160.012696 218.214844,160.189452 218.214844,160.396484 C218.214844,160.59961 218.142579,160.774413 217.998047,160.920898 C217.853515,161.067384 217.669923,161.140625 217.447266,161.140625 C217.232421,161.140625 217.053712,161.067384 216.911133,160.920898 C216.768554,160.774413 216.697266,160.59961 216.697266,160.396484 Z M219.585938,160.396484 C219.585938,160.185546 219.658202,160.007813 219.802734,159.863281 C219.947266,159.718749 220.126952,159.646484 220.341797,159.646484 C220.560548,159.646484 220.742187,159.719726 220.886719,159.866211 C221.031251,160.012696 221.103516,160.189452 221.103516,160.396484 C221.103516,160.59961 221.031251,160.774413 220.886719,160.920898 C220.742187,161.067384 220.558595,161.140625 220.335938,161.140625 C220.121093,161.140625 219.942384,161.067384 219.799805,160.920898 C219.657226,160.774413 219.585938,160.59961 219.585938,160.396484 Z M222.474609,160.396484 C222.474609,160.185546 222.546874,160.007813 222.691406,159.863281 C222.835938,159.718749 223.015624,159.646484 223.230469,159.646484 C223.44922,159.646484 223.630859,159.719726 223.775391,159.866211 C223.919923,160.012696 223.992188,160.189452 223.992188,160.396484 C223.992188,160.59961 223.919923,160.774413 223.775391,160.920898 C223.630859,161.067384 223.447267,161.140625 223.224609,161.140625 C223.009765,161.140625 222.831055,161.067384 222.688477,160.920898 C222.545898,160.774413 222.474609,160.59961 222.474609,160.396484 Z" id="描述文案描述文案描述文案..." fill="#9B9B9B" fill-rule="nonzero"></path>
                <text id="样式三" font-family="MicrosoftYaHei, Microsoft YaHei" font-size="12" font-weight="normal" line-spacing="22" fill="#525A6E">
                    <tspan x="8" y="27">样式三</tspan>
                </text>
            </g>
        </g>
    </g>
</svg>