<?xml version="1.0" encoding="UTF-8"?>
<svg width="241px" height="192px" viewBox="0 0 241 192" version="1.1" xmlns="http://www.w3.org/2000/svg" xmlns:xlink="http://www.w3.org/1999/xlink">
    <!-- Generator: Sketch 58 (84663) - https://sketch.com -->
    <title>input-style2</title>
    <desc>Created with Sketch.</desc>
    <g id="页面-1" stroke="none" stroke-width="1" fill="none" fill-rule="evenodd">
        <g id="input-style2">
            <rect id="矩形备份" fill-opacity="0.01" fill="#FAFAFA" x="0" y="0" width="241" height="192"></rect>
            <rect id="矩形备份-4" stroke="#FD6868" fill="#FFFFFF" x="8.5" y="128.5" width="224" height="27" rx="2"></rect>
            <path d="M20.921875,142.181641 L26.8867188,142.181641 L26.8867188,147.841797 L25.9960938,147.841797 L25.9960938,147.162109 L21.8125,147.162109 L21.8125,147.841797 L20.921875,147.841797 L20.921875,142.181641 Z M20.1367188,140.388672 L21.859375,140.388672 L21.859375,138.818359 L20.4882812,138.818359 L20.4882812,138.021484 L21.859375,138.021484 L21.859375,136.333984 L22.75,136.333984 L22.75,138.021484 L24.8828125,138.021484 L24.8828125,136.333984 L25.7734375,136.333984 L25.7734375,138.021484 L27.4257812,138.021484 L27.4257812,138.818359 L25.7734375,138.818359 L25.7734375,140.388672 L27.765625,140.388672 L27.765625,141.185547 L20.1367188,141.185547 L20.1367188,140.388672 Z M19.9023438,144.666016 L19.9848438,145.059766 C20.0251562,145.242578 20.0640623,145.404296 20.1015625,145.544922 L19.4179676,146.197267 C18.9960931,146.603516 18.6419285,146.952472 18.3554688,147.244141 L18.2579688,147.369765 C18.197969,147.448515 18.1210942,147.551171 18.0273438,147.677734 L17.3828125,146.951172 C17.6015636,146.708983 17.7109375,146.353518 17.7109375,145.884766 L17.7109375,143.318359 L16.2109375,143.318359 L16.2109375,142.498047 L17.7109375,142.498047 L17.7109375,141.044922 L17.2070312,141.044922 L17.2070312,140.224609 L19.7148438,140.224609 L19.7148438,141.044922 L18.5664062,141.044922 L18.5664062,142.498047 L20.03125,142.498047 L20.03125,143.318359 L18.5664062,143.318359 L18.5664062,145.919922 C19.0585962,145.474607 19.5039043,145.056643 19.9023438,144.666016 Z M16.140625,140.318359 C16.8125034,139.224604 17.3164046,137.880867 17.6523438,136.287109 L18.53125,136.474609 C18.3945306,137.033206 18.2402352,137.568357 18.0683594,138.080078 L20.078125,138.080078 L20.078125,138.900391 L17.7695312,138.900391 C17.4414046,139.748051 17.0585959,140.525387 16.6210938,141.232422 C16.4726555,140.935545 16.3125009,140.630861 16.140625,140.318359 Z M21.8125,146.388672 L25.9960938,146.388672 L25.9960938,145.041016 L21.8125,145.041016 L21.8125,146.388672 Z M25.9960938,142.955078 L21.8125,142.955078 L21.8125,144.291016 L25.9960938,144.291016 L25.9960938,142.955078 Z M22.75,140.388672 L24.8828125,140.388672 L24.8828125,138.818359 L22.75,138.818359 L22.75,140.388672 Z M31.4101562,143.470703 L34.9492188,143.470703 C35.0039065,143.115233 35.0351562,142.6543 35.0429688,142.087891 L31.8320312,142.087891 L31.8320312,141.267578 L39.3789062,141.267578 L39.3789062,142.087891 L35.9570312,142.087891 L35.9436384,142.559512 C35.9296875,142.927018 35.9087613,143.230747 35.8808594,143.470703 L39.7890625,143.470703 L39.7890625,144.291016 L36.1679688,144.291016 C36.8632847,145.666022 38.1171784,146.54492 39.9296875,146.927734 L39.4698438,147.486016 C39.377969,147.599765 39.2929691,147.70664 39.2148438,147.806641 C37.4101472,147.279294 36.1621128,146.230477 35.4707031,144.660156 C34.9511693,146.062507 33.6914163,147.123043 31.6914062,147.841797 C31.5039053,147.599608 31.2929699,147.345704 31.0585938,147.080078 C33.003916,146.462888 34.22656,145.533209 34.7265625,144.291016 L31.4101562,144.291016 L31.4101562,143.470703 Z M32.359375,136.814453 L38.78125,136.814453 L38.78125,140.646484 L37.890625,140.646484 L37.890625,140.119141 L33.25,140.119141 L33.25,140.646484 L32.359375,140.646484 L32.359375,136.814453 Z M31.8320312,144.783203 C31.8554689,145.189455 31.8828123,145.525389 31.9140625,145.791016 C30.92187,146.439456 30.1953148,146.958982 29.734375,147.349609 L29.1835938,146.564453 C29.4492201,146.345702 29.5820312,146.005862 29.5820312,145.544922 L29.5820312,141.162109 L28.1875,141.162109 L28.1875,140.318359 L30.484375,140.318359 L30.484375,145.720703 L31.2314457,145.210937 C31.4560545,145.054688 31.6562491,144.91211 31.8320312,144.783203 Z M37.890625,137.599609 L33.25,137.599609 L33.25,139.333984 L37.890625,139.333984 L37.890625,137.599609 Z M29.5585938,136.591797 C30.1210966,137.162112 30.6796847,137.767575 31.234375,138.408203 L30.4257812,139.087891 C29.9101537,138.431637 29.3828152,137.806644 28.84375,137.212891 L29.5585938,136.591797 Z M40.3632812,138.302734 L45.9882812,138.302734 L45.6223952,137.620441 C45.3975691,137.21072 45.2109382,136.891277 45.0625,136.662109 L45.9648438,136.240234 L46.2200521,136.646484 C46.414496,136.964192 46.6575506,137.375649 46.9492188,137.880859 L46.1054688,138.302734 L51.6132812,138.302734 L51.6132812,139.169922 L49.4511719,139.169922 C49.033201,141.400402 48.1347725,143.193353 46.7558594,144.548828 C47.7949271,145.306644 49.4453012,145.986325 51.7070312,146.587891 C51.3476545,146.994143 51.0742197,147.333983 50.8867188,147.607422 C48.6835827,146.845699 47.0566459,146.048832 46.0058594,145.216797 C44.9511666,146.037113 43.2656366,146.86523 40.9492188,147.701172 L40.6210942,147.267578 C40.5039069,147.115235 40.3789069,146.955079 40.2460938,146.787109 C42.4804799,146.115231 44.1621037,145.367192 45.2910156,144.542969 C43.8652272,143.019524 42.9589863,141.228526 42.5722656,139.169922 L40.3632812,139.169922 L40.3632812,138.302734 Z M48.4492188,139.169922 L43.5097656,139.169922 C43.8613299,141.091806 44.7011652,142.679681 46.0292969,143.933594 C47.2988345,142.7539 48.105467,141.166026 48.4492188,139.169922 Z M52.234375,143.201172 L57.7304688,143.201172 L57.7304688,142.462891 L60.0390625,141.009766 L54.3671875,141.009766 L54.3671875,140.154297 L61.46875,140.154297 L61.46875,141.103516 L58.6914062,142.884766 L58.6914062,143.201172 L63.8125,143.201172 L63.8125,144.068359 L58.6914062,144.068359 L58.6914062,146.224609 C58.6914062,147.216802 58.1953175,147.712891 57.203125,147.712891 L56.4677741,147.707031 C56.1767592,147.703125 55.8398457,147.697266 55.4570312,147.689453 L55.3984376,147.206055 C55.3750001,147.032227 55.3476564,146.845704 55.3164062,146.646484 C55.9335968,146.732422 56.4804664,146.775391 56.9570312,146.775391 C57.4726588,146.775391 57.7304688,146.49805 57.7304688,145.943359 L57.7304688,144.068359 L52.234375,144.068359 L52.234375,143.201172 Z M52.6796875,138.033203 L58.0703125,138.033203 C57.7812486,137.623045 57.4335958,137.173831 57.0273438,136.685547 L57.8125,136.158203 C58.30469,136.697268 58.7109359,137.197263 59.03125,137.658203 L58.4746094,138.033203 L63.4140625,138.033203 L63.4140625,140.412109 L62.4648438,140.412109 L62.4648438,138.888672 L53.6171875,138.888672 L53.6171875,140.412109 L52.6796875,140.412109 L52.6796875,138.033203 Z" id="错误文字" fill="#333333" fill-rule="nonzero"></path>
            <path d="M12.1015625,167.606445 L17.0722656,167.606445 L17.0722656,172.323242 L16.3300781,172.323242 L16.3300781,171.756836 L12.84375,171.756836 L12.84375,172.323242 L12.1015625,172.323242 L12.1015625,167.606445 Z M11.4472656,166.112305 L12.8828125,166.112305 L12.8828125,164.803711 L11.7402344,164.803711 L11.7402344,164.139648 L12.8828125,164.139648 L12.8828125,162.733398 L13.625,162.733398 L13.625,164.139648 L15.4023438,164.139648 L15.4023438,162.733398 L16.1445312,162.733398 L16.1445312,164.139648 L17.5214844,164.139648 L17.5214844,164.803711 L16.1445312,164.803711 L16.1445312,166.112305 L17.8046875,166.112305 L17.8046875,166.776367 L11.4472656,166.776367 L11.4472656,166.112305 Z M11.2519531,169.676758 L11.3374024,170.07959 C11.3650716,170.20166 11.391927,170.311523 11.4179688,170.40918 L10.5952144,171.197754 C10.352702,171.433756 10.141928,171.642903 9.96289062,171.825195 L9.76289085,172.087695 C9.73997416,172.118424 9.71549492,172.151367 9.68945312,172.186523 L9.15234375,171.581055 C9.33463633,171.379231 9.42578125,171.08301 9.42578125,170.692383 L9.42578125,168.553711 L8.17578125,168.553711 L8.17578125,167.870117 L9.42578125,167.870117 L9.42578125,166.65918 L9.00585938,166.65918 L9.00585938,165.975586 L11.0957031,165.975586 L11.0957031,166.65918 L10.1386719,166.65918 L10.1386719,167.870117 L11.359375,167.870117 L11.359375,168.553711 L10.1386719,168.553711 L10.1386719,170.72168 C10.5488302,170.350584 10.9199202,170.00228 11.2519531,169.676758 Z M8.1171875,166.053711 C8.67708613,165.142248 9.09700381,164.022468 9.37695312,162.694336 L10.109375,162.850586 C9.99544214,163.316083 9.8668627,163.762042 9.72363281,164.188477 L11.3984375,164.188477 L11.3984375,164.87207 L9.47460938,164.87207 C9.20117051,165.578454 8.88216328,166.226234 8.51757812,166.81543 C8.39387959,166.568033 8.26041738,166.314129 8.1171875,166.053711 Z M12.84375,171.112305 L16.3300781,171.112305 L16.3300781,169.989258 L12.84375,169.989258 L12.84375,171.112305 Z M16.3300781,168.250977 L12.84375,168.250977 L12.84375,169.364258 L16.3300781,169.364258 L16.3300781,168.250977 Z M13.625,166.112305 L15.4023438,166.112305 L15.4023438,164.803711 L13.625,164.803711 L13.625,166.112305 Z M20.8417969,168.680664 L23.7910156,168.680664 C23.8365888,168.384439 23.8626302,168.000328 23.8691406,167.52832 L21.1933594,167.52832 L21.1933594,166.844727 L27.4824219,166.844727 L27.4824219,167.52832 L24.6308594,167.52832 C24.6210937,168.016604 24.5999351,168.400715 24.5673828,168.680664 L27.8242188,168.680664 L27.8242188,169.364258 L24.8066406,169.364258 C25.3860706,170.510097 26.430982,171.242511 27.9414062,171.561523 L27.6166991,171.95459 C27.5174155,172.07666 27.4270837,172.189778 27.3457031,172.293945 C25.8417894,171.85449 24.8017607,170.980475 24.2255859,169.671875 C23.7926411,170.840501 22.7428469,171.724281 21.0761719,172.323242 C20.9199211,172.121418 20.7441416,171.909832 20.5488281,171.688477 C22.16993,171.174151 23.1888,170.399419 23.6054688,169.364258 L20.8417969,169.364258 L20.8417969,168.680664 Z M21.6328125,163.133789 L26.984375,163.133789 L26.984375,166.327148 L26.2421875,166.327148 L26.2421875,165.887695 L22.375,165.887695 L22.375,166.327148 L21.6328125,166.327148 L21.6328125,163.133789 Z M21.1933594,169.774414 L21.2183594,170.152539 C21.2316406,170.327539 21.2460937,170.481445 21.2617188,170.614258 L20.7432952,170.958587 C20.1767278,171.341738 19.7440698,171.659902 19.4453125,171.913086 L18.9863281,171.258789 C19.2076834,171.076496 19.3183594,170.793296 19.3183594,170.40918 L19.3183594,166.756836 L18.15625,166.756836 L18.15625,166.053711 L20.0703125,166.053711 L20.0703125,170.555664 L20.6928714,170.130859 C20.8800454,170.000651 21.0468743,169.881836 21.1933594,169.774414 Z M26.2421875,163.788086 L22.375,163.788086 L22.375,165.233398 L26.2421875,165.233398 L26.2421875,163.788086 Z M19.2988281,162.948242 C19.7675805,163.423505 20.2330706,163.928057 20.6953125,164.461914 L20.0214844,165.02832 C19.5917947,164.481443 19.152346,163.960614 18.703125,163.46582 L19.2988281,162.948242 Z M32.0136719,163.124023 L36.8867188,163.124023 L36.8867188,166.981445 L36.1835938,166.981445 L36.1835938,166.698242 L32.7167969,166.698242 L32.7167969,166.981445 L32.0136719,166.981445 L32.0136719,163.124023 Z M30.4902344,171.874023 C31.4082077,171.10579 31.9225255,170.005541 32.0332031,168.573242 L32.765625,168.573242 C32.7330728,169.028974 32.6663417,169.455402 32.5654297,169.852539 C32.9788432,170.484053 33.5175748,170.910481 34.1816406,171.131836 L34.1816406,168.192383 L31.1640625,168.192383 L31.1640625,167.547852 L37.7460938,167.547852 L37.7460938,168.192383 L34.9140625,168.192383 L34.9140625,169.286133 L37.3652344,169.286133 L37.3652344,169.911133 L34.9140625,169.911133 L34.9140625,171.288086 L35.1199656,171.305968 C35.62853,171.338318 36.5429621,171.329102 37.8632812,171.27832 L37.6386719,172.000977 L37.6386719,172.000977 C37.0576143,172.015625 36.4600839,172.013794 35.8460705,171.995483 L35.2265625,171.97168 C33.9114518,171.955404 32.9446646,171.493169 32.3261719,170.584961 C32.052733,171.265303 31.6556016,171.847979 31.1347656,172.333008 C30.9394521,172.170247 30.7246105,172.017253 30.4902344,171.874023 Z M28.1269531,167.870117 C28.5436219,167.69108 28.9635396,167.50228 29.3867188,167.303711 L29.3867188,165.223633 L28.2050781,165.223633 L28.2050781,164.55957 L29.3867188,164.55957 L29.3867188,162.743164 L30.1289062,162.743164 L30.1289062,164.55957 L31.3789062,164.55957 L31.3789062,165.223633 L30.1289062,165.223633 L30.1289062,166.942383 C30.5032571,166.756835 30.8776023,166.561524 31.2519531,166.356445 C31.2714845,166.610353 31.2975259,166.870767 31.3300781,167.137695 L30.1289062,167.738281 L30.1289062,167.738281 L30.1289062,171.141602 C30.1289062,171.773115 29.8880232,172.114909 29.40625,172.166992 C29.0677066,172.199544 28.6868511,172.20931 28.2636719,172.196289 C28.2246092,171.92285 28.1822919,171.652671 28.1367188,171.385742 L28.5414067,171.423242 C28.73125,171.437305 28.902343,171.444336 29.0546875,171.444336 C29.2760428,171.444336 29.3867188,171.323894 29.3867188,171.083008 L29.3867188,168.119141 C28.9960918,168.320965 28.6087259,168.524413 28.2246094,168.729492 L28.1269531,167.870117 Z M32.7167969,166.073242 L36.1835938,166.073242 L36.1835938,165.213867 L32.7167969,165.213867 L32.7167969,166.073242 Z M36.1835938,163.749023 L32.7167969,163.749023 L32.7167969,164.598633 L36.1835938,164.598633 L36.1835938,163.749023 Z M38.15625,166.200195 L47.84375,166.200195 L47.84375,166.932617 L43.6542969,166.932617 L43.6542969,170.87793 C43.6542969,171.691736 43.2278688,172.101888 42.375,172.108398 L41.1828134,172.102148 C41.0746102,172.101107 40.9641933,172.099935 40.8515625,172.098633 L40.7856446,171.673828 C40.7612306,171.524089 40.7343751,171.366212 40.7050781,171.200195 C41.2194036,171.252279 41.7044248,171.27832 42.1601562,171.27832 C42.6028668,171.27832 42.8242188,171.060224 42.8242188,170.624023 L42.8242188,166.932617 L38.15625,166.932617 L38.15625,166.200195 Z M39.0546875,163.319336 L46.9746094,163.319336 L46.9746094,164.051758 L39.0546875,164.051758 L39.0546875,163.319336 Z M44.8945312,168.114258 L45.5488281,167.674805 C46.3496134,168.657883 47.1243452,169.683263 47.8730469,170.750977 L47.1601562,171.219727 L46.5644519,170.362791 C45.9785147,169.532713 45.4218776,168.783206 44.8945312,168.114258 Z M40.3144531,167.655273 L41.0273438,168.055664 C40.3437466,169.240566 39.6145872,170.366857 38.8398438,171.43457 C38.6380198,171.28483 38.4231782,171.131837 38.1953125,170.975586 C38.9244828,170.031571 39.630856,168.924811 40.3144531,167.655273 Z M48.3027344,164.374023 L52.9902344,164.374023 L52.7570795,163.937011 C52.5373529,163.531737 52.3579109,163.221681 52.21875,163.006836 L52.9707031,162.655273 L53.1833767,162.993815 C53.3454134,163.258571 53.5479589,163.601452 53.7910156,164.022461 L53.0878906,164.374023 L57.6777344,164.374023 L57.6777344,165.09668 L55.8759766,165.09668 C55.5276675,166.955413 54.7789771,168.449539 53.6298828,169.579102 C54.4957726,170.210615 55.8710843,170.777016 57.7558594,171.27832 C57.4563787,171.616864 57.2285164,171.900064 57.0722656,172.12793 C55.2363189,171.493161 53.8805382,170.829105 53.0048828,170.135742 C52.1259722,170.819339 50.7213638,171.509437 48.7910156,172.206055 L48.5175782,171.844727 C48.4199222,171.717774 48.3157558,171.584311 48.2050781,171.444336 C50.0670666,170.884437 51.4684198,170.261071 52.4091797,169.574219 C51.2210227,168.304681 50.4658219,166.812183 50.1435547,165.09668 L48.3027344,165.09668 L48.3027344,164.374023 Z M55.0410156,165.09668 L50.9248047,165.09668 C51.2177749,166.69825 51.9176377,168.021479 53.0244141,169.066406 C54.0823621,168.083328 54.7545559,166.760099 55.0410156,165.09668 Z M58.1953125,168.456055 L62.7753906,168.456055 L62.7753906,167.84082 L64.6992188,166.629883 L59.9726562,166.629883 L59.9726562,165.916992 L65.890625,165.916992 L65.890625,166.708008 L63.5761719,168.192383 L63.5761719,168.456055 L67.84375,168.456055 L67.84375,169.178711 L63.5761719,169.178711 L63.5761719,170.975586 C63.5761719,171.802413 63.1627646,172.21582 62.3359375,172.21582 L61.8978578,172.213074 C61.6186227,172.210022 61.2796244,172.204427 60.8808594,172.196289 L60.8320313,171.793457 C60.8125001,171.648601 60.7897137,171.493165 60.7636719,171.327148 C61.2779974,171.398763 61.733722,171.43457 62.1308594,171.43457 C62.560549,171.43457 62.7753906,171.203453 62.7753906,170.741211 L62.7753906,169.178711 L58.1953125,169.178711 L58.1953125,168.456055 Z M58.5664062,164.149414 L63.0585938,164.149414 C62.8177071,163.807615 62.5279965,163.43327 62.1894531,163.026367 L62.84375,162.586914 C63.2539083,163.036135 63.5924466,163.452798 63.859375,163.836914 L63.3955078,164.149414 L67.5117188,164.149414 L67.5117188,166.131836 L66.7207031,166.131836 L66.7207031,164.862305 L59.3476562,164.862305 L59.3476562,166.131836 L58.5664062,166.131836 L58.5664062,164.149414 Z" id="错误提示文字" fill="#FD6868" fill-rule="nonzero"></path>
            <rect id="矩形备份-4" stroke-opacity="0.15" stroke="#000000" fill="#FFFFFF" x="8.5" y="32.5" width="224" height="27" rx="2"></rect>
            <path d="M21.2265625,51.6894531 L20.3125,51.6894531 L20.3125,45.7480469 L26.828125,45.7480469 L26.828125,50.3066406 C26.828125,51.1503948 26.3945356,51.5761718 25.5273438,51.5839844 L24.6108905,51.5935507 C24.3502086,51.5949857 24.0658498,51.5957031 23.7578125,51.5957031 C23.7187498,51.3457019 23.6601566,51.0449236 23.5820312,50.6933594 L24.1340094,50.7277983 C24.5684798,50.7517141 24.9391726,50.7636719 25.2460938,50.7636719 C25.6914085,50.7636719 25.9140625,50.5605489 25.9140625,50.1542969 L25.9140625,49.5683594 L21.2265625,49.5683594 L21.2265625,51.6894531 Z M19.28125,44.2949219 L23.0664062,44.2949219 L23.0664062,43.4863281 L20.0664062,43.4863281 L20.0664062,42.7480469 L23.0664062,42.7480469 L23.0664062,41.9628906 L19.65625,41.9628906 L19.65625,41.2246094 L23.0664062,41.2246094 L23.0664062,40.1699219 L24.015625,40.1699219 L24.015625,41.2246094 L27.5898438,41.2246094 L27.5898438,41.9628906 L24.015625,41.9628906 L24.015625,42.7480469 L27.2851562,42.7480469 L27.2851562,43.4863281 L24.015625,43.4863281 L24.015625,44.2949219 L27.8242188,44.2949219 L27.8242188,45.0332031 L19.28125,45.0332031 L19.28125,44.2949219 Z M19.8554688,48.7949219 C19.8789064,49.1855488 19.9062498,49.5253892 19.9375,49.8144531 C19.0937458,50.3769559 18.3789092,50.8847634 17.7929688,51.3378906 L17.2539062,50.5644531 C17.5195326,50.3144519 17.6523438,49.9746115 17.6523438,49.5449219 L17.6523438,45.1152344 L16.2226562,45.1152344 L16.2226562,44.2597656 L18.5429688,44.2597656 L18.5429688,49.7207031 C18.9804709,49.4238266 19.4179666,49.115236 19.8554688,48.7949219 Z M25.9140625,46.4980469 L21.2265625,46.4980469 L21.2265625,47.3066406 L25.9140625,47.3066406 L25.9140625,46.4980469 Z M21.2265625,48.8417969 L25.9140625,48.8417969 L25.9140625,48.0332031 L21.2265625,48.0332031 L21.2265625,48.8417969 Z M17.546875,40.5683594 C18.1875032,41.201175 18.7539038,41.7910129 19.2460938,42.3378906 L18.4257812,43.0175781 C17.8867161,42.3222621 17.3593776,41.7050808 16.84375,41.1660156 L17.546875,40.5683594 Z M29.171875,46.0527344 L30.2265625,46.0527344 L30.2265625,43.9199219 L31,43.9199219 L31,46.0527344 L32.125,46.0527344 L32.125,46.8261719 L31,46.8261719 L31,48.4316406 C31.4140646,48.3769529 31.8359354,48.3144535 32.265625,48.2441406 C32.2265623,48.5410171 32.1992188,48.8105457 32.1835938,49.0527344 L31,49.2167969 L31,49.2167969 L31,51.8300781 L30.2265625,51.8300781 L30.2265625,49.3339844 C29.5937468,49.4277348 28.9570345,49.5253901 28.3164062,49.6269531 L28.1875,48.7714844 C28.8593784,48.7011715 29.5390591,48.6230473 30.2265625,48.5371094 L30.2265625,46.8261719 L28.3515625,46.8261719 L28.3515625,46.0175781 C28.648439,45.1816364 28.9570296,44.1191471 29.2773438,42.8300781 L28.2460938,42.8300781 L28.2460938,42.0800781 L29.4648438,42.0800781 C29.5976569,41.5175753 29.7343743,40.9160188 29.875,40.2753906 L30.71875,40.4628906 L30.296875,42.0800781 L30.296875,42.0800781 L32.4179688,42.0800781 L32.4179688,42.8300781 L30.0976562,42.8300781 L29.846435,43.7434103 C29.6018062,44.6208515 29.3769542,45.3906217 29.171875,46.0527344 Z M33.2734375,51.8066406 L32.5234375,51.8066406 L32.5234375,44.9042969 L35.640625,44.9042969 L35.640625,50.6699219 C35.640625,51.3574253 35.3242219,51.7011719 34.6914062,51.7011719 L33.7773438,51.6894531 L33.7773438,51.6894531 L33.6132812,50.9628906 L33.6132812,50.9628906 C33.9257828,50.9863282 34.2109362,50.9980469 34.46875,50.9980469 C34.7500014,50.9980469 34.890625,50.8417984 34.890625,50.5292969 L34.890625,49.1699219 L33.2734375,49.1699219 L33.2734375,51.8066406 Z M36.6601562,40.3574219 L36.4609375,40.6152344 C37.3750046,41.9902412 38.5195244,42.9746064 39.8945312,43.5683594 C39.6289049,43.8808609 39.425782,44.1503895 39.2851562,44.3769531 C38.7539036,44.0800766 38.261721,43.7441425 37.8085938,43.3691406 L37.8085938,43.9550781 L33.7421875,43.9550781 L33.7421875,43.4394531 C33.2812477,43.8222675 32.8007838,44.1738265 32.3007812,44.4941406 C32.0664051,44.1894516 31.8593759,43.9511727 31.6796875,43.7792969 C33.2343828,42.8730423 34.4882765,41.7324287 35.4414062,40.3574219 L36.6601562,40.3574219 Z M38.40625,44.6933594 L39.203125,44.6933594 L39.203125,50.4003906 C39.203125,51.2675825 38.8359412,51.7050781 38.1015625,51.7128906 C37.703123,51.7207032 37.2460963,51.7128907 36.7304688,51.6894531 C36.6914061,51.4003892 36.6367191,51.1074234 36.5664062,50.8105469 C37.0585962,50.8730472 37.480467,50.9042969 37.8320312,50.9042969 C38.2148457,50.9042969 38.40625,50.7011739 38.40625,50.2949219 L38.40625,44.6933594 Z M35.8867188,41.2246094 C35.3007783,41.958988 34.6679721,42.6230439 33.9882812,43.2167969 L37.6210938,43.2167969 C36.9570279,42.638669 36.3789087,41.9746131 35.8867188,41.2246094 Z M36.6132812,45.2558594 L37.3632812,45.2558594 L37.3632812,49.5214844 L36.6132812,49.5214844 L36.6132812,45.2558594 Z M33.2734375,48.5136719 L34.890625,48.5136719 L34.890625,47.3886719 L33.2734375,47.3886719 L33.2734375,48.5136719 Z M34.890625,45.6191406 L33.2734375,45.6191406 L33.2734375,46.7324219 L34.890625,46.7324219 L34.890625,45.6191406 Z M43.4335938,40.9316406 L44.2070312,40.3808594 C45.0820356,40.9199246 46.0429635,42.3027232 47.0898438,44.5292969 C48.5507886,47.7246254 50.1367102,49.6738246 51.8476562,50.3769531 L51.0273438,51.4082031 C49.3876871,50.434891 47.8664407,48.4284 46.4635628,45.3886737 L46.0494794,44.4785159 C46.011285,44.3964848 45.9733075,44.3157556 45.9355469,44.2363281 C45.0292923,47.3418124 43.3437623,49.7558508 40.8789062,51.4785156 C40.6679677,51.1660141 40.4296888,50.8730482 40.1640625,50.5996094 C42.6992314,49.0019451 44.4062456,46.4746267 45.2851562,43.0175781 C44.6718719,41.9941355 44.0546906,41.29883 43.4335938,40.9316406 Z" id="请输入" fill="#AAADBA" fill-rule="nonzero"></path>
            <rect id="矩形备份-4" stroke="#B8D7FF" fill="#EFF6FF" x="8.5" y="64.5" width="224" height="27" rx="2"></rect>
            <path d="M21.2265625,83.6894531 L20.3125,83.6894531 L20.3125,77.7480469 L26.828125,77.7480469 L26.828125,82.3066406 C26.828125,83.1503948 26.3945356,83.5761718 25.5273438,83.5839844 L24.6108905,83.5935507 C24.3502086,83.5949857 24.0658498,83.5957031 23.7578125,83.5957031 C23.7187498,83.3457019 23.6601566,83.0449236 23.5820312,82.6933594 L24.1340094,82.7277983 C24.5684798,82.7517141 24.9391726,82.7636719 25.2460938,82.7636719 C25.6914085,82.7636719 25.9140625,82.5605489 25.9140625,82.1542969 L25.9140625,81.5683594 L21.2265625,81.5683594 L21.2265625,83.6894531 Z M19.28125,76.2949219 L23.0664062,76.2949219 L23.0664062,75.4863281 L20.0664062,75.4863281 L20.0664062,74.7480469 L23.0664062,74.7480469 L23.0664062,73.9628906 L19.65625,73.9628906 L19.65625,73.2246094 L23.0664062,73.2246094 L23.0664062,72.1699219 L24.015625,72.1699219 L24.015625,73.2246094 L27.5898438,73.2246094 L27.5898438,73.9628906 L24.015625,73.9628906 L24.015625,74.7480469 L27.2851562,74.7480469 L27.2851562,75.4863281 L24.015625,75.4863281 L24.015625,76.2949219 L27.8242188,76.2949219 L27.8242188,77.0332031 L19.28125,77.0332031 L19.28125,76.2949219 Z M19.8554688,80.7949219 C19.8789064,81.1855488 19.9062498,81.5253892 19.9375,81.8144531 C19.0937458,82.3769559 18.3789092,82.8847634 17.7929688,83.3378906 L17.2539062,82.5644531 C17.5195326,82.3144519 17.6523438,81.9746115 17.6523438,81.5449219 L17.6523438,77.1152344 L16.2226562,77.1152344 L16.2226562,76.2597656 L18.5429688,76.2597656 L18.5429688,81.7207031 C18.9804709,81.4238266 19.4179666,81.115236 19.8554688,80.7949219 Z M25.9140625,78.4980469 L21.2265625,78.4980469 L21.2265625,79.3066406 L25.9140625,79.3066406 L25.9140625,78.4980469 Z M21.2265625,80.8417969 L25.9140625,80.8417969 L25.9140625,80.0332031 L21.2265625,80.0332031 L21.2265625,80.8417969 Z M17.546875,72.5683594 C18.1875032,73.201175 18.7539038,73.7910129 19.2460938,74.3378906 L18.4257812,75.0175781 C17.8867161,74.3222621 17.3593776,73.7050808 16.84375,73.1660156 L17.546875,72.5683594 Z M29.171875,78.0527344 L30.2265625,78.0527344 L30.2265625,75.9199219 L31,75.9199219 L31,78.0527344 L32.125,78.0527344 L32.125,78.8261719 L31,78.8261719 L31,80.4316406 C31.4140646,80.3769529 31.8359354,80.3144535 32.265625,80.2441406 C32.2265623,80.5410171 32.1992188,80.8105457 32.1835938,81.0527344 L31,81.2167969 L31,81.2167969 L31,83.8300781 L30.2265625,83.8300781 L30.2265625,81.3339844 C29.5937468,81.4277348 28.9570345,81.5253901 28.3164062,81.6269531 L28.1875,80.7714844 C28.8593784,80.7011715 29.5390591,80.6230473 30.2265625,80.5371094 L30.2265625,78.8261719 L28.3515625,78.8261719 L28.3515625,78.0175781 C28.648439,77.1816364 28.9570296,76.1191471 29.2773438,74.8300781 L28.2460938,74.8300781 L28.2460938,74.0800781 L29.4648438,74.0800781 C29.5976569,73.5175753 29.7343743,72.9160188 29.875,72.2753906 L30.71875,72.4628906 L30.296875,74.0800781 L30.296875,74.0800781 L32.4179688,74.0800781 L32.4179688,74.8300781 L30.0976562,74.8300781 L29.846435,75.7434103 C29.6018062,76.6208515 29.3769542,77.3906217 29.171875,78.0527344 Z M33.2734375,83.8066406 L32.5234375,83.8066406 L32.5234375,76.9042969 L35.640625,76.9042969 L35.640625,82.6699219 C35.640625,83.3574253 35.3242219,83.7011719 34.6914062,83.7011719 L33.7773438,83.6894531 L33.7773438,83.6894531 L33.6132812,82.9628906 L33.6132812,82.9628906 C33.9257828,82.9863282 34.2109362,82.9980469 34.46875,82.9980469 C34.7500014,82.9980469 34.890625,82.8417984 34.890625,82.5292969 L34.890625,81.1699219 L33.2734375,81.1699219 L33.2734375,83.8066406 Z M36.6601562,72.3574219 L36.4609375,72.6152344 C37.3750046,73.9902412 38.5195244,74.9746064 39.8945312,75.5683594 C39.6289049,75.8808609 39.425782,76.1503895 39.2851562,76.3769531 C38.7539036,76.0800766 38.261721,75.7441425 37.8085938,75.3691406 L37.8085938,75.9550781 L33.7421875,75.9550781 L33.7421875,75.4394531 C33.2812477,75.8222675 32.8007838,76.1738265 32.3007812,76.4941406 C32.0664051,76.1894516 31.8593759,75.9511727 31.6796875,75.7792969 C33.2343828,74.8730423 34.4882765,73.7324287 35.4414062,72.3574219 L36.6601562,72.3574219 Z M38.40625,76.6933594 L39.203125,76.6933594 L39.203125,82.4003906 C39.203125,83.2675825 38.8359412,83.7050781 38.1015625,83.7128906 C37.703123,83.7207032 37.2460963,83.7128907 36.7304688,83.6894531 C36.6914061,83.4003892 36.6367191,83.1074234 36.5664062,82.8105469 C37.0585962,82.8730472 37.480467,82.9042969 37.8320312,82.9042969 C38.2148457,82.9042969 38.40625,82.7011739 38.40625,82.2949219 L38.40625,76.6933594 Z M35.8867188,73.2246094 C35.3007783,73.958988 34.6679721,74.6230439 33.9882812,75.2167969 L37.6210938,75.2167969 C36.9570279,74.638669 36.3789087,73.9746131 35.8867188,73.2246094 Z M36.6132812,77.2558594 L37.3632812,77.2558594 L37.3632812,81.5214844 L36.6132812,81.5214844 L36.6132812,77.2558594 Z M33.2734375,80.5136719 L34.890625,80.5136719 L34.890625,79.3886719 L33.2734375,79.3886719 L33.2734375,80.5136719 Z M34.890625,77.6191406 L33.2734375,77.6191406 L33.2734375,78.7324219 L34.890625,78.7324219 L34.890625,77.6191406 Z M43.4335938,72.9316406 L44.2070312,72.3808594 C45.0820356,72.9199246 46.0429635,74.3027232 47.0898438,76.5292969 C48.5507886,79.7246254 50.1367102,81.6738246 51.8476562,82.3769531 L51.0273438,83.4082031 C49.3876871,82.434891 47.8664407,80.4284 46.4635628,77.3886737 L46.0494794,76.4785159 C46.011285,76.3964848 45.9733075,76.3157556 45.9355469,76.2363281 C45.0292923,79.3418124 43.3437623,81.7558508 40.8789062,83.4785156 C40.6679677,83.1660141 40.4296888,82.8730482 40.1640625,82.5996094 C42.6992314,81.0019451 44.4062456,78.4746267 45.2851562,75.0175781 C44.6718719,73.9941355 44.0546906,73.29883 43.4335938,72.9316406 Z" id="请输入" fill="#AAADBA" fill-rule="nonzero"></path>
            <rect id="矩形备份-4" stroke="#E7EAED" fill="#F8F8F8" x="8.5" y="96.5" width="224" height="27" rx="2"></rect>
            <path d="M21.2265625,115.689453 L20.3125,115.689453 L20.3125,109.748047 L26.828125,109.748047 L26.828125,114.306641 C26.828125,115.150395 26.3945356,115.576172 25.5273438,115.583984 L24.6108905,115.593551 C24.3502086,115.594986 24.0658498,115.595703 23.7578125,115.595703 C23.7187498,115.345702 23.6601566,115.044924 23.5820312,114.693359 L24.1340094,114.727798 C24.5684798,114.751714 24.9391726,114.763672 25.2460938,114.763672 C25.6914085,114.763672 25.9140625,114.560549 25.9140625,114.154297 L25.9140625,113.568359 L21.2265625,113.568359 L21.2265625,115.689453 Z M19.28125,108.294922 L23.0664062,108.294922 L23.0664062,107.486328 L20.0664062,107.486328 L20.0664062,106.748047 L23.0664062,106.748047 L23.0664062,105.962891 L19.65625,105.962891 L19.65625,105.224609 L23.0664062,105.224609 L23.0664062,104.169922 L24.015625,104.169922 L24.015625,105.224609 L27.5898438,105.224609 L27.5898438,105.962891 L24.015625,105.962891 L24.015625,106.748047 L27.2851562,106.748047 L27.2851562,107.486328 L24.015625,107.486328 L24.015625,108.294922 L27.8242188,108.294922 L27.8242188,109.033203 L19.28125,109.033203 L19.28125,108.294922 Z M19.8554688,112.794922 C19.8789064,113.185549 19.9062498,113.525389 19.9375,113.814453 C19.0937458,114.376956 18.3789092,114.884763 17.7929688,115.337891 L17.2539062,114.564453 C17.5195326,114.314452 17.6523438,113.974612 17.6523438,113.544922 L17.6523438,109.115234 L16.2226562,109.115234 L16.2226562,108.259766 L18.5429688,108.259766 L18.5429688,113.720703 C18.9804709,113.423827 19.4179666,113.115236 19.8554688,112.794922 Z M25.9140625,110.498047 L21.2265625,110.498047 L21.2265625,111.306641 L25.9140625,111.306641 L25.9140625,110.498047 Z M21.2265625,112.841797 L25.9140625,112.841797 L25.9140625,112.033203 L21.2265625,112.033203 L21.2265625,112.841797 Z M17.546875,104.568359 C18.1875032,105.201175 18.7539038,105.791013 19.2460938,106.337891 L18.4257812,107.017578 C17.8867161,106.322262 17.3593776,105.705081 16.84375,105.166016 L17.546875,104.568359 Z M29.171875,110.052734 L30.2265625,110.052734 L30.2265625,107.919922 L31,107.919922 L31,110.052734 L32.125,110.052734 L32.125,110.826172 L31,110.826172 L31,112.431641 C31.4140646,112.376953 31.8359354,112.314453 32.265625,112.244141 C32.2265623,112.541017 32.1992188,112.810546 32.1835938,113.052734 L31,113.216797 L31,113.216797 L31,115.830078 L30.2265625,115.830078 L30.2265625,113.333984 C29.5937468,113.427735 28.9570345,113.52539 28.3164062,113.626953 L28.1875,112.771484 C28.8593784,112.701172 29.5390591,112.623047 30.2265625,112.537109 L30.2265625,110.826172 L28.3515625,110.826172 L28.3515625,110.017578 C28.648439,109.181636 28.9570296,108.119147 29.2773438,106.830078 L28.2460938,106.830078 L28.2460938,106.080078 L29.4648438,106.080078 C29.5976569,105.517575 29.7343743,104.916019 29.875,104.275391 L30.71875,104.462891 L30.296875,106.080078 L30.296875,106.080078 L32.4179688,106.080078 L32.4179688,106.830078 L30.0976562,106.830078 L29.846435,107.74341 C29.6018062,108.620852 29.3769542,109.390622 29.171875,110.052734 Z M33.2734375,115.806641 L32.5234375,115.806641 L32.5234375,108.904297 L35.640625,108.904297 L35.640625,114.669922 C35.640625,115.357425 35.3242219,115.701172 34.6914062,115.701172 L33.7773438,115.689453 L33.7773438,115.689453 L33.6132812,114.962891 L33.6132812,114.962891 C33.9257828,114.986328 34.2109362,114.998047 34.46875,114.998047 C34.7500014,114.998047 34.890625,114.841798 34.890625,114.529297 L34.890625,113.169922 L33.2734375,113.169922 L33.2734375,115.806641 Z M36.6601562,104.357422 L36.4609375,104.615234 C37.3750046,105.990241 38.5195244,106.974606 39.8945312,107.568359 C39.6289049,107.880861 39.425782,108.150389 39.2851562,108.376953 C38.7539036,108.080077 38.261721,107.744142 37.8085938,107.369141 L37.8085938,107.955078 L33.7421875,107.955078 L33.7421875,107.439453 C33.2812477,107.822268 32.8007838,108.173827 32.3007812,108.494141 C32.0664051,108.189452 31.8593759,107.951173 31.6796875,107.779297 C33.2343828,106.873042 34.4882765,105.732429 35.4414062,104.357422 L36.6601562,104.357422 Z M38.40625,108.693359 L39.203125,108.693359 L39.203125,114.400391 C39.203125,115.267582 38.8359412,115.705078 38.1015625,115.712891 C37.703123,115.720703 37.2460963,115.712891 36.7304688,115.689453 C36.6914061,115.400389 36.6367191,115.107423 36.5664062,114.810547 C37.0585962,114.873047 37.480467,114.904297 37.8320312,114.904297 C38.2148457,114.904297 38.40625,114.701174 38.40625,114.294922 L38.40625,108.693359 Z M35.8867188,105.224609 C35.3007783,105.958988 34.6679721,106.623044 33.9882812,107.216797 L37.6210938,107.216797 C36.9570279,106.638669 36.3789087,105.974613 35.8867188,105.224609 Z M36.6132812,109.255859 L37.3632812,109.255859 L37.3632812,113.521484 L36.6132812,113.521484 L36.6132812,109.255859 Z M33.2734375,112.513672 L34.890625,112.513672 L34.890625,111.388672 L33.2734375,111.388672 L33.2734375,112.513672 Z M34.890625,109.619141 L33.2734375,109.619141 L33.2734375,110.732422 L34.890625,110.732422 L34.890625,109.619141 Z M43.4335938,104.931641 L44.2070312,104.380859 C45.0820356,104.919925 46.0429635,106.302723 47.0898438,108.529297 C48.5507886,111.724625 50.1367102,113.673825 51.8476562,114.376953 L51.0273438,115.408203 C49.3876871,114.434891 47.8664407,112.4284 46.4635628,109.388674 L46.0494794,108.478516 C46.011285,108.396485 45.9733075,108.315756 45.9355469,108.236328 C45.0292923,111.341812 43.3437623,113.755851 40.8789062,115.478516 C40.6679677,115.166014 40.4296888,114.873048 40.1640625,114.599609 C42.6992314,113.001945 44.4062456,110.474627 45.2851562,107.017578 C44.6718719,105.994136 44.0546906,105.29883 43.4335938,104.931641 Z" id="请输入" fill="#AAADBA" fill-rule="nonzero" opacity="0.5"></path>
            <text id="样式二" font-family="MicrosoftYaHei, Microsoft YaHei" font-size="12" font-weight="normal" line-spacing="22" fill="#525A6E">
                <tspan x="8" y="19">样式二</tspan>
            </text>
        </g>
    </g>
</svg>