<?xml version="1.0" encoding="UTF-8"?>
<svg width="494px" height="52px" viewBox="0 0 494 52" version="1.1" xmlns="http://www.w3.org/2000/svg" xmlns:xlink="http://www.w3.org/1999/xlink">
    <!-- Generator: Sketch 58 (84663) - https://sketch.com -->
    <title>style3</title>
    <desc>Created with Sketch.</desc>
    <defs>
        <path d="M10.0830179,1.85884256 C10.4789962,0.832232161 11.6975091,0 12.8085197,0 L95.1914803,0 C96.3007551,0 97.5232225,0.837984383 97.9169821,1.85884256 L108,28 L0,28 L10.0830179,1.85884256 Z" id="path-1"></path>
        <path d="M8.95146002,1.89157494 C9.30963876,0.846886947 10.4890593,0 11.5951321,0 L84.4048679,0 C85.5067489,0 86.6873089,0.837984383 87.04854,1.89157494 L96,28 L-5.68434189e-14,28 L8.95146002,1.89157494 Z" id="path-3"></path>
    </defs>
    <g id="页面-1" stroke="none" stroke-width="1" fill="none" fill-rule="evenodd">
        <g id="style3">
            <rect id="矩形" fill-opacity="0.01" fill="#FAFAFA" x="0" y="0" width="494" height="52"></rect>
            <g id="Group-3" transform="translate(239.000000, 15.000000)">
                <mask id="mask-2" fill="white">
                    <use xlink:href="#path-1"></use>
                </mask>
                <use id="Mask" fill="#EEEEEE" xlink:href="#path-1"></use>
                <g id="Group" mask="url(#mask-2)">
                    <g transform="translate(76.000000, 8.000000)">
                        <rect id="Rectangle-17" fill="none" x="0" y="0" width="12" height="12"></rect>
                        <path d="M9.87461575,2.12538425 C10.0417947,2.29256325 10.0417947,2.56361396 9.87461575,2.73079296 L6.605,6 L9.87461575,9.26920704 C10.0208974,9.41548866 10.0391826,9.64129707 9.92947136,9.80746039 L9.87461575,9.87461575 C9.70743675,10.0417947 9.43638604,10.0417947 9.26920704,9.87461575 L9.26920704,9.87461575 L6,6.605 L2.73079296,9.87461575 C2.56361396,10.0417947 2.29256325,10.0417947 2.12538425,9.87461575 C1.95820525,9.70743675 1.95820525,9.43638604 2.12538425,9.26920704 L5.395,6 L2.12538425,2.73079296 C1.97910263,2.58451134 1.96081742,2.35870293 2.07052864,2.19253961 L2.12538425,2.12538425 C2.29256325,1.95820525 2.56361396,1.95820525 2.73079296,2.12538425 L2.73079296,2.12538425 L6,5.395 L9.26920704,2.12538425 C9.43638604,1.95820525 9.70743675,1.95820525 9.87461575,2.12538425 Z" id="Combined-Shape" fill-opacity="0.45" fill="#000000" fill-rule="evenodd"></path>
                    </g>
                </g>
                <path d="M20.66,9.212 L20.66,10.052 L28.916,10.052 L28.916,17.996 C28.916,18.404 28.712,18.62 28.328,18.62 C27.728,18.62 27.092,18.596 26.432,18.572 L26.624,19.412 L28.628,19.412 C29.396,19.412 29.78,19.004 29.78,18.212 L29.78,10.052 L31.364,10.052 L31.364,9.212 L20.66,9.212 Z M26.72,11.888 L22.052,11.888 L22.052,17.348 L22.892,17.348 L22.892,16.292 L26.72,16.292 L26.72,11.888 Z M22.892,15.5 L22.892,12.668 L25.892,12.668 L25.892,15.5 L22.892,15.5 Z M33.512,8.684 L32.924,9.248 C33.776,9.92 34.448,10.556 34.94,11.156 L35.54,10.556 C34.988,9.932 34.316,9.308 33.512,8.684 Z M40.484,19.28 L43.268,19.28 L43.484,18.416 L42.9956385,18.4411895 C42.747102,18.4502857 42.4571429,18.4571429 42.128,18.464 L40.944,18.4844444 C40.7493333,18.4866667 40.556,18.488 40.364,18.488 L39.071,18.4805 C38.678,18.476 38.324,18.47 38.012,18.464 C37.292,18.44 36.752,18.344 36.38,18.176 C36.044,18.02 35.732,17.768 35.444,17.42 C35.348,17.312 35.252,17.216 35.156,17.144 L35.156,12.656 L32.648,12.656 L32.648,13.448 L34.352,13.448 L34.352,17.096 C33.848,17.312 33.284,17.936 32.636,18.956 L33.284,19.544 C33.956,18.416 34.436,17.864 34.736,17.864 C34.856,17.864 34.9843333,17.9306667 35.121,18.0709444 L35.204,18.164 C35.576,18.596 35.996,18.896 36.464,19.04 C36.944,19.172 37.58,19.244 38.348,19.256 L39.673376,19.275008 C39.95408,19.27808 40.2248,19.28 40.484,19.28 Z M39.452,8.456 L39.452,9.992 L37.868,9.992 C38.012,9.608 38.144,9.212 38.264,8.792 L37.436,8.624 C37.148,9.704 36.68,10.7 36.032,11.6 L36.788,12.068 C37.052,11.684 37.292,11.276 37.508,10.82 L39.452,10.82 L39.452,12.536 L36.332,12.536 L36.332,13.376 L38.264,13.376 C38.228,14.12 38.108,14.768 37.904,15.296 C37.592,16.016 36.956,16.616 35.984,17.096 L36.548,17.78 C37.676,17.192 38.408,16.436 38.72,15.524 C38.924,14.924 39.044,14.204 39.08,13.376 L40.292,13.376 L40.292,16.784 C40.292,17.048 40.364,17.264 40.532,17.432 C40.688,17.6 40.916,17.684 41.228,17.684 L42.092,17.684 C42.5,17.672 42.788,17.576 42.956,17.408 C43.136,17.216 43.268,16.628 43.34,15.632 L42.584,15.38 C42.536,16.232 42.44,16.712 42.296,16.82 C42.2,16.892 42.08,16.928 41.912,16.928 L41.48,16.928 C41.216,16.928 41.096,16.808 41.096,16.592 L41.096,13.376 L43.112,13.376 L43.112,12.536 L40.292,12.536 L40.292,10.82 L42.692,10.82 L42.692,9.992 L40.292,9.992 L40.292,8.456 L39.452,8.456 Z M53.708,11.12 L50.18,11.12 C50.3,10.712 50.384,10.268 50.456,9.812 L55.28,9.812 L55.28,8.996 L44.72,8.996 L44.72,9.812 L49.544,9.812 C49.484,10.268 49.4,10.7 49.28,11.12 L46.244,11.12 L46.244,16.82 L47.108,16.82 L47.108,11.96 L52.844,11.96 L52.844,16.796 L53.708,16.796 L53.708,11.12 Z M50.792,16.82 L50.312,17.528 C51.74,18.008 53.132,18.68 54.5,19.532 L55.028,18.716 C53.756,17.972 52.34,17.348 50.792,16.82 Z M49.556,12.68 L49.556,14.588 C49.52,15.644 49.184,16.496 48.536,17.156 C47.852,17.792 46.64,18.296 44.9,18.68 L45.392,19.448 C47.144,19.04 48.404,18.476 49.172,17.744 C49.964,16.952 50.396,15.908 50.444,14.588 L50.444,12.68 L49.556,12.68 Z M64.808,15.368 C64.448,16.496 64.04,17.468 63.572,18.284 L56.948,18.284 L56.948,19.088 L67.076,19.088 L67.076,18.284 L64.496,18.284 C64.952,17.492 65.336,16.592 65.648,15.596 L64.808,15.368 Z M59.072,15.512 L58.292,15.764 C58.676,16.46 58.988,17.192 59.228,17.96 L60.008,17.756 C59.732,16.916 59.42,16.16 59.072,15.512 Z M61.844,15.272 L61.052,15.524 C61.364,16.268 61.616,17.048 61.82,17.864 L62.588,17.66 C62.372,16.76 62.12,15.968 61.844,15.272 Z M58.892,14.12 L58.892,14.888 L65.12,14.888 L65.12,14.12 L58.892,14.12 Z M58.412,10.292 L59.324,10.292 C59.54,10.76 59.72,11.252 59.876,11.756 L60.668,11.468 C60.548,11.108 60.38,10.712 60.188,10.292 L61.916,10.292 L61.916,9.524 L58.76,9.524 C58.868,9.236 58.976,8.948 59.072,8.636 L58.232,8.456 C57.896,9.56 57.356,10.568 56.612,11.48 L57.356,11.948 C57.752,11.444 58.1,10.892 58.412,10.292 Z M63.464,10.292 L64.508,10.292 C64.772,10.796 65.012,11.324 65.228,11.864 L66.02,11.576 C65.864,11.168 65.66,10.748 65.396,10.292 L67.304,10.292 L67.304,9.524 L63.8,9.524 L63.992,8.94088889 C64.024,8.84133333 64.056,8.74 64.088,8.636 L63.26,8.456 C63.008,9.392 62.6,10.232 62.036,11 L62.768,11.468 C63.02,11.108 63.248,10.712 63.464,10.292 Z M61.724,11.48 L62.276,11.48 C63.764,12.572 65.492,13.436 67.448,14.06 L67.028,14.804 C65.06,14.132 63.392,13.268 62,12.188 C60.728,13.196 59.048,14.06 56.96,14.792 L56.552,14.048 C58.616,13.352 60.344,12.5 61.724,11.48 Z" id="可选页签" fill="#4C4C4C" fill-rule="nonzero" mask="url(#mask-2)"></path>
            </g>
            <g id="Group-3-Copy" transform="translate(52.000000, 15.000000)">
                <mask id="mask-4" fill="white">
                    <use xlink:href="#path-3"></use>
                </mask>
                <use id="Mask" fill="#1E3255" xlink:href="#path-3"></use>
                <path d="M45.568,10.28 L45.568,17.876 L40.648,17.876 L40.648,18.704 L51.364,18.704 L51.364,17.876 L46.456,17.876 L46.456,10.28 L50.584,10.28 L50.584,9.452 L41.452,9.452 L41.452,10.28 L45.568,10.28 Z M57.808,11.072 L58.456,11.072 L58.456,19.544 L59.332,19.544 L59.332,16.748 L62.908,16.748 L62.908,15.92 L59.332,15.92 L59.332,13.892 L62.836,13.892 L62.836,13.052 L59.332,13.052 L59.332,11.072 L63.364,11.072 L63.364,10.22 L58.18,10.22 C58.372,9.728 58.564,9.2 58.756,8.648 L57.892,8.456 C57.22,10.484 56.344,12.128 55.288,13.376 L55.9,14.108 C56.62,13.244 57.256,12.236 57.808,11.072 Z M53.968,12.8 L53.968,19.544 L54.856,19.544 L54.856,11.504 C55.336,10.688 55.744,9.812 56.068,8.876 L55.252,8.492 C54.664,10.316 53.716,11.924 52.42,13.328 L52.708,14.24 C53.164,13.784 53.584,13.304 53.968,12.8 Z M74.008,14.54 L65.992,14.54 L65.992,19.544 L66.868,19.544 L66.868,18.944 L73.132,18.944 L73.132,19.544 L74.008,19.544 L74.008,14.54 Z M66.868,18.116 L66.868,15.368 L73.132,15.368 L73.132,18.116 L66.868,18.116 Z M65.14,13.304 L64.972,12.488 C66.028,12.128 67.336,10.796 68.896,8.504 L69.784,8.804 C68.704,10.34 67.612,11.564 66.532,12.452 C68.836,12.356 71.02,12.2 73.084,12.008 C72.628,11.36 72.16,10.748 71.68,10.196 L72.46,9.824 C73.492,11.024 74.452,12.356 75.34,13.808 L74.5,14.216 C74.2,13.712 73.9,13.244 73.612,12.788 C71.08,13.016 68.26,13.184 65.14,13.304 Z" id="工作台" fill="#FFFFFF" fill-rule="nonzero" mask="url(#mask-4)"></path>
                <rect id="Rectangle" fill="#D8D8D8" opacity="0.01" x="21" y="9" width="12" height="12"></rect>
                <g id="Group-44" transform="translate(20.000000, 8.000000)" fill="#EEEEEE" fill-rule="nonzero">
                    <path d="M10.5,11 C10.7761424,11 11,11.2238576 11,11.5 C11,11.7761424 10.7761424,12 10.5,12 L1.5,12 C1.22385763,12 1,11.7761424 1,11.5 C1,11.2238576 1.22385763,11 1.5,11 L10.5,11 Z M11,0 C11.5522847,0 12,0.44771525 12,1 L12,9 C12,9.55228475 11.5522847,10 11,10 L1,10 C0.44771525,10 0,9.55228475 0,9 L0,1 C0,0.44771525 0.44771525,0 1,0 L11,0 Z M11,1 L1,1 L1,9 L11,9 L11,1 Z M5,2 L5,8 L2,8 L2,2 L5,2 Z M10,6 L10,8 L6,8 L6,6 L10,6 Z M10,4 L10,5 L6,5 L6,4 L10,4 Z M10,2 L10,3 L6,3 L6,2 L10,2 Z" id="Rectangle"></path>
                </g>
            </g>
            <g id="Group-2" transform="translate(140.000000, 8.000000)">
                <path d="M0.672015325,35.5 L107.327985,35.5 L97.2941165,2.05377268 C97.0410947,1.21036658 96.0808004,0.5 95.1914803,0.5 L12.8085197,0.5 C11.9184187,0.5 10.9589396,1.21025227 10.7058835,2.05377268 L0.672015325,35.5 Z" id="Mask" stroke="#E5E5E5" fill="#FFFFFF"></path>
                <polygon id="Rectangle-1676" fill="#FFFFFF" points="1.38727534 35 106.604008 35 106.996694 36 1.05290352 36"></polygon>
                <path d="M21.62,13.564 L20.84,14.308 C21.692,15.004 22.352,15.652 22.808,16.252 L23.612,15.46 C23.072,14.836 22.412,14.2 21.62,13.564 Z M28.496,24.316 L31.256,24.316 L31.544,23.188 L31.2236735,23.2082915 C30.9297959,23.2247347 30.5685714,23.2394286 30.14,23.248 L28.932,23.2684444 C28.7333333,23.2706667 28.536,23.272 28.34,23.272 L27.2093061,23.2663324 C26.739102,23.2617143 26.312,23.2548571 25.928,23.248 C25.208,23.224 24.68,23.116 24.32,22.948 C24.0896,22.8232 23.8592,22.64464 23.6288,22.41232 L23.456,22.228 C23.396,22.156 23.336,22.108 23.288,22.06 L23.288,17.512 L20.612,17.512 L20.612,18.568 L22.22,18.568 L22.22,21.964 C21.74,22.204 21.188,22.816 20.588,23.8 L21.428,24.58 C22.04,23.488 22.472,22.948 22.736,22.948 C22.868,22.948 23.024,23.044 23.192,23.248 C23.552,23.656 23.972,23.944 24.452,24.088 C24.944,24.208 25.58,24.28 26.36,24.292 L27.685376,24.311008 C27.96608,24.31408 28.2368,24.316 28.496,24.316 Z M27.344,13.408 L27.344,14.848 L26.072,14.848 C26.192,14.524 26.3,14.176 26.408,13.816 L25.316,13.6 C25.04,14.62 24.584,15.58 23.936,16.48 L24.92,17.092 C25.16,16.732 25.376,16.348 25.592,15.94 L27.344,15.94 L27.344,17.428 L24.248,17.428 L24.248,18.52 L26.084,18.52 C26.036,19.18 25.928,19.744 25.748,20.2 C25.46,20.884 24.836,21.46 23.888,21.928 L24.632,22.816 C25.76,22.216 26.48,21.472 26.792,20.56 C26.996,19.984 27.116,19.3 27.164,18.52 L28.16,18.52 L28.16,21.712 C28.16,22 28.244,22.252 28.436,22.456 C28.616,22.636 28.88,22.732 29.24,22.732 L30.092,22.732 C30.512,22.72 30.8,22.624 30.968,22.456 C31.136,22.276 31.268,21.664 31.364,20.632 L30.368,20.296 L30.3470556,20.6730556 C30.3073333,21.25 30.244,21.57 30.164,21.64 C30.08,21.712 29.972,21.76 29.852,21.76 L29.588,21.76 C29.348,21.76 29.228,21.652 29.228,21.46 L29.228,18.52 L31.172,18.52 L31.172,17.428 L28.448,17.428 L28.448,15.94 L30.752,15.94 L30.752,14.848 L28.448,14.848 L28.448,13.408 L27.344,13.408 Z M37.412,13.396 L37.412,15.472 L33.152,15.472 L33.152,21.268 L34.292,21.268 L34.292,20.584 L37.412,20.584 L37.412,24.604 L38.588,24.604 L38.588,20.584 L41.72,20.584 L41.72,21.268 L42.86,21.268 L42.86,15.472 L38.588,15.472 L38.588,13.396 L37.412,13.396 Z M34.292,19.468 L34.292,16.588 L37.412,16.588 L37.412,19.468 L34.292,19.468 Z M38.588,19.468 L38.588,16.588 L41.72,16.588 L41.72,19.468 L38.588,19.468 Z M53.84,15.988 L50.36,15.988 C50.456,15.652 50.528,15.292 50.6,14.932 L55.316,14.932 L55.316,13.852 L44.684,13.852 L44.684,14.932 L49.364,14.932 C49.316,15.292 49.244,15.64 49.172,15.988 L46.112,15.988 L46.112,21.82 L47.264,21.82 L47.264,17.104 L52.688,17.104 L52.688,21.808 L53.84,21.808 L53.84,15.988 Z M50.876,21.676 L50.252,22.624 C51.656,23.092 53.024,23.74 54.368,24.556 L55.076,23.476 C53.816,22.768 52.412,22.168 50.876,21.676 Z M49.424,17.68 L49.424,19.588 C49.364,20.596 49.028,21.412 48.404,22.036 C47.78,22.624 46.592,23.104 44.84,23.488 L45.488,24.508 C47.24,24.1 48.512,23.536 49.28,22.792 C50.072,21.988 50.504,20.92 50.576,19.588 L50.576,17.68 L49.424,17.68 Z M64.652,20.344 C64.316,21.412 63.944,22.336 63.512,23.116 L56.912,23.116 L56.912,24.172 L67.112,24.172 L67.112,23.116 L64.736,23.116 C65.144,22.384 65.492,21.556 65.78,20.644 L64.652,20.344 Z M59.204,20.452 L58.16,20.788 C58.544,21.46 58.844,22.168 59.084,22.912 L60.116,22.648 C59.84,21.82 59.54,21.088 59.204,20.452 Z M61.976,20.212 L60.92,20.548 C61.232,21.268 61.484,22.012 61.688,22.792 L62.708,22.54 C62.492,21.664 62.252,20.884 61.976,20.212 Z M58.856,19.156 L58.856,20.008 L65.156,20.008 L65.156,19.168 C65.708,19.42 66.308,19.66 66.944,19.876 L67.496,18.892 C65.552,18.28 63.848,17.44 62.36,16.384 L61.64,16.384 C60.272,17.368 58.568,18.196 56.504,18.868 L57.056,19.864 C57.68,19.636 58.28,19.396 58.856,19.156 Z M64.82,19.012 L59.168,19.012 C60.26,18.496 61.208,17.932 62,17.308 C62.816,17.944 63.764,18.508 64.82,19.012 Z M58.544,15.4 L59.336,15.4 C59.528,15.844 59.696,16.3 59.84,16.78 L60.872,16.408 C60.764,16.096 60.632,15.76 60.464,15.4 L61.964,15.4 L61.964,14.392 L58.976,14.392 L59.144,13.9048889 C59.172,13.8213333 59.2,13.736 59.228,13.648 L58.124,13.408 C57.812,14.464 57.296,15.448 56.552,16.372 L57.536,16.996 C57.908,16.516 58.244,15.976 58.544,15.4 Z M63.572,15.4 C63.38,15.784 63.164,16.156 62.924,16.492 L61.964,15.88 C62.516,15.112 62.924,14.296 63.164,13.408 L64.244,13.648 C64.172,13.912 64.088,14.152 64.004,14.392 L67.376,14.392 L67.376,15.4 L65.684,15.4 C65.912,15.796 66.092,16.168 66.236,16.504 L65.192,16.9 C65,16.372 64.772,15.88 64.52,15.4 L63.572,15.4 Z" id="选中页签" fill="#1E3255" fill-rule="nonzero"></path>
                <g id="Group-85-Copy" transform="translate(76.000000, 13.000000)">
                    <rect id="Rectangle-17" x="0" y="0" width="12" height="12"></rect>
                    <path d="M9.87461575,2.12538425 C10.0417947,2.29256325 10.0417947,2.56361396 9.87461575,2.73079296 L6.605,6 L9.87461575,9.26920704 C10.0208974,9.41548866 10.0391826,9.64129707 9.92947136,9.80746039 L9.87461575,9.87461575 C9.70743675,10.0417947 9.43638604,10.0417947 9.26920704,9.87461575 L9.26920704,9.87461575 L6,6.605 L2.73079296,9.87461575 C2.56361396,10.0417947 2.29256325,10.0417947 2.12538425,9.87461575 C1.95820525,9.70743675 1.95820525,9.43638604 2.12538425,9.26920704 L5.395,6 L2.12538425,2.73079296 C1.97910263,2.58451134 1.96081742,2.35870293 2.07052864,2.19253961 L2.12538425,2.12538425 C2.29256325,1.95820525 2.56361396,1.95820525 2.73079296,2.12538425 L2.73079296,2.12538425 L6,5.395 L9.26920704,2.12538425 C9.43638604,1.95820525 9.70743675,1.95820525 9.87461575,2.12538425 Z" id="Combined-Shape" fill="#8C8C8C"></path>
                </g>
            </g>
            <text id="样式三" font-family="PingFangSC-Regular, PingFang SC" font-size="12" font-weight="normal" line-spacing="22" fill="#525A6E">
                <tspan x="8" y="28">样式三</tspan>
            </text>
        </g>
    </g>
</svg>