<?xml version="1.0" encoding="UTF-8"?>
<svg width="494px" height="174px" viewBox="0 0 494 174" version="1.1" xmlns="http://www.w3.org/2000/svg" xmlns:xlink="http://www.w3.org/1999/xlink">
    <!-- Generator: Sketch 58 (84663) - https://sketch.com -->
    <title>list-single+operate/style1</title>
    <desc>Created with Sketch.</desc>
    <g id="页面-1" stroke="none" stroke-width="1" fill="none" fill-rule="evenodd">
        <g id="list-single+operate/style1">
            <g id="编组-20">
                <rect id="矩形备份" fill-opacity="0.01" fill="#FAFAFA" x="0" y="0" width="494" height="174"></rect>
                <g id="编组-2" transform="translate(52.000000, 18.000000)">
                    <text id="标题文案" font-family="MicrosoftYaHei, Microsoft YaHei" font-size="14" font-weight="normal" line-spacing="22" fill="#333333">
                        <tspan x="12" y="15">标题文案</tspan>
                    </text>
                    <path d="M50.1796875,57.5625 L50.7539062,56.90625 C51.3476592,57.3945337 51.8886694,57.8730445 52.3769531,58.3417969 C52.9003932,57.4355423 53.2695302,56.4531303 53.484375,55.3945312 L50.8476562,55.3945312 C50.2343719,56.8007883 49.4804732,58.0664006 48.5859375,59.1914062 C48.4140616,58.7929668 48.2578132,58.4804699 48.1171875,58.2539062 C49.2968809,56.6679608 50.2050749,54.8125106 50.8417969,52.6875 L48.5039062,52.6875 L48.5039062,51.84375 L55.078125,51.84375 L55.078125,52.6875 L51.8085938,52.6875 C51.6249991,53.3320345 51.419923,53.953122 51.1933594,54.5507812 L54.4453125,54.5507812 L54.4453125,55.40625 C53.8046843,58.609391 52.1211074,61.0820225 49.3945312,62.8242188 C49.1914052,62.5898426 48.9492202,62.3515637 48.6679688,62.109375 C50.0039129,61.2460894 51.0742147,60.2480525 51.8789062,59.1152344 C51.4335915,58.6777322 50.8671909,58.1601592 50.1796875,57.5625 Z M58.1601562,51.421875 L59.0976562,51.421875 L59.0976562,61.1015625 C59.0976562,62.093755 58.648442,62.59375 57.75,62.6015625 L57.43287,62.6050347 C57.0271028,62.6070602 56.496097,62.6019966 55.8398438,62.5898438 C55.8007811,62.230467 55.7382817,61.878908 55.6523438,61.5351562 L56.3867201,61.5937502 C56.829428,61.6250002 57.1783841,61.640625 57.4335938,61.640625 C57.9179712,61.640625 58.1601562,61.3789089 58.1601562,60.8554688 L58.1601562,51.421875 Z M56.4726562,59.8945312 L55.5703125,59.8945312 L55.5703125,52.7226562 L56.4726562,52.7226562 L56.4726562,59.8945312 Z M70.3476562,57.6796875 L70.9921875,58.4882812 L68.3730469,59.8007812 C69.2910202,60.550785 70.4413993,61.0468738 71.8242188,61.2890625 C71.5585924,61.6328142 71.3398446,61.9453111 71.1679688,62.2265625 C68.6484249,61.624997 66.8418023,60.0761844 65.7480469,57.5800781 C65.3496074,58.0878932 64.8945338,58.5703102 64.3828125,59.0273438 L64.3828125,61.5351562 C65.4140677,61.1992171 66.3710893,60.8476581 67.2539062,60.4804688 C67.2460937,60.8242205 67.2499999,61.1640625 67.265625,61.5 C66.3281203,61.8203141 65.35938,62.1718731 64.359375,62.5546875 C64.1484364,62.6406254 63.9414073,62.7421869 63.7382812,62.859375 L63.1875,62.0039062 C63.4062511,61.8476555 63.515625,61.6289077 63.515625,61.3476562 L63.515625,59.7363281 C62.7070272,60.3417999 61.7890676,60.8906225 60.7617188,61.3828125 C60.5898429,61.1093736 60.3906261,60.8398451 60.1640625,60.5742188 C62.1836038,59.7460896 63.7695255,58.6367257 64.921875,57.2460938 L60.2929688,57.2460938 L60.2929688,56.4375 L65.5429688,56.4375 L65.5429688,55.2421875 L61.125,55.2421875 L61.125,54.4335938 L65.5429688,54.4335938 L65.5429688,53.2851562 L60.65625,53.2851562 L60.65625,52.4765625 L65.5429688,52.4765625 L65.5429688,51.1640625 L66.46875,51.1640625 L66.46875,52.4765625 L71.3789062,52.4765625 L71.3789062,53.2851562 L66.46875,53.2851562 L66.46875,54.4335938 L70.875,54.4335938 L70.875,55.2421875 L66.46875,55.2421875 L66.46875,56.4375 L71.7070312,56.4375 L71.7070312,57.2460938 L66.4980469,57.2460938 C66.8261735,58.0078163 67.2480443,58.667966 67.7636719,59.2265625 C68.5488321,58.8359355 69.4101516,58.3203157 70.3476562,57.6796875 Z M72.3632812,53.2734375 L77.9882812,53.2734375 L77.6223952,52.5911445 C77.3975691,52.1814227 77.2109382,51.8619803 77.0625,51.6328125 L77.9648438,51.2109375 L78.2200521,51.6171874 C78.414496,51.9348949 78.6575506,52.3463516 78.9492188,52.8515625 L78.1054688,53.2734375 L83.6132812,53.2734375 L83.6132812,54.140625 L81.4511719,54.140625 C81.033201,56.3711049 80.1347725,58.1640557 78.7558594,59.5195312 C79.7949271,60.2773475 81.4453012,60.9570282 83.7070312,61.5585938 C83.3476545,61.9648458 83.0742197,62.3046861 82.8867188,62.578125 C80.6835827,61.8164024 79.0566459,61.0195354 78.0058594,60.1875 C76.9511666,61.0078166 75.2656366,61.8359333 72.9492188,62.671875 L72.6210942,62.2382814 C72.5039069,62.085938 72.3789069,61.9257821 72.2460938,61.7578125 C74.4804799,61.0859341 76.1621037,60.3378947 77.2910156,59.5136719 C75.8652272,57.9902268 74.9589863,56.199229 74.5722656,54.140625 L72.3632812,54.140625 L72.3632812,53.2734375 Z M80.4492188,54.140625 L75.5097656,54.140625 C75.8613299,56.0625096 76.7011652,57.6503844 78.0292969,58.9042969 C79.2988345,57.7246035 80.105467,56.1367287 80.4492188,54.140625 Z M84.7851562,57.8085938 L85.6246099,57.7070772 C87.1094497,57.5166416 88.2964198,57.3024351 89.1855469,57.0644531 C88.2480422,56.8144519 87.300786,56.5703137 86.34375,56.3320312 C86.6640641,55.9882795 86.96875,55.6484392 87.2578125,55.3125 L84.46875,55.3125 L84.46875,54.5390625 L87.890625,54.5390625 C88.1875015,54.1640606 88.4609363,53.7929706 88.7109375,53.4257812 L89.6601562,53.6953125 C89.4492177,53.9765639 89.2246106,54.2578111 88.9863281,54.5390625 L95.53125,54.5390625 L95.53125,55.3125 L93.0117188,55.3125 C92.6406231,55.9726596 92.138675,56.5078104 91.5058594,56.9179688 L92.8136729,57.2639065 C93.4511715,57.4340624 94.0640596,57.5999992 94.6523438,57.7617188 L94.2773438,58.546875 C93.0390563,58.156248 91.7793033,57.7832049 90.4980469,57.4277344 C89.3105409,57.8964867 87.5195432,58.2812485 85.125,58.5820312 C85.0312495,58.33203 84.9179694,58.0742201 84.7851562,57.8085938 Z M95.8476562,61.59375 C95.5820299,61.9062516 95.3554697,62.1992174 95.1679688,62.4726562 C93.1054584,61.8554657 91.523443,61.0996138 90.421875,60.2050781 L90.421875,62.8476562 L89.578125,62.8476562 L89.578125,60.2226562 C88.3945253,61.0585979 86.8203223,61.8124966 84.8554688,62.484375 C84.6757812,62.2578114 84.4492201,61.992189 84.1757812,61.6875 C86.1914163,61.1835912 87.7871035,60.5625037 88.9628906,59.8242188 L84.4453125,59.8242188 L84.4453125,59.0390625 L89.578125,59.0390625 L89.578125,58.078125 L90.421875,58.078125 L90.421875,59.0390625 L95.625,59.0390625 L95.625,59.8242188 L91.0605469,59.8242188 C92.294928,60.6562542 93.8906152,61.246092 95.8476562,61.59375 Z M84.7851562,52.3476562 L89.6953125,52.3476562 C89.5468743,52.0781237 89.375001,51.8007827 89.1796875,51.515625 L90.0117188,51.140625 C90.2656263,51.5390645 90.5058582,51.9414042 90.7324219,52.3476562 L95.203125,52.3476562 L95.203125,54.1171875 L94.3125,54.1171875 L94.3125,53.1210938 L85.6757812,53.1210938 L85.6757812,54.1171875 L84.7851562,54.1171875 L84.7851562,52.3476562 Z M87.6796875,55.9570312 L89.7582996,56.474487 C89.9819323,56.5308834 90.2031239,56.5869138 90.421875,56.6425781 C91.1093784,56.3378891 91.6464824,55.8945342 92.0332031,55.3125 L88.3007812,55.3125 C88.1015615,55.5273448 87.8945323,55.7421864 87.6796875,55.9570312 Z M98.1796875,57.5625 L98.7539062,56.90625 C99.3476592,57.3945337 99.8886694,57.8730445 100.376953,58.3417969 C100.900393,57.4355423 101.26953,56.4531303 101.484375,55.3945312 L98.8476562,55.3945312 C98.2343719,56.8007883 97.4804732,58.0664006 96.5859375,59.1914062 C96.4140616,58.7929668 96.2578132,58.4804699 96.1171875,58.2539062 C97.2968809,56.6679608 98.2050749,54.8125106 98.8417969,52.6875 L96.5039062,52.6875 L96.5039062,51.84375 L103.078125,51.84375 L103.078125,52.6875 L99.8085938,52.6875 C99.6249991,53.3320345 99.419923,53.953122 99.1933594,54.5507812 L102.445312,54.5507812 L102.445312,55.40625 C101.804684,58.609391 100.121107,61.0820225 97.3945312,62.8242188 C97.1914052,62.5898426 96.9492202,62.3515637 96.6679688,62.109375 C98.0039129,61.2460894 99.0742147,60.2480525 99.8789062,59.1152344 C99.4335915,58.6777322 98.8671909,58.1601592 98.1796875,57.5625 Z M106.160156,51.421875 L107.097656,51.421875 L107.097656,61.1015625 C107.097656,62.093755 106.648442,62.59375 105.75,62.6015625 L105.43287,62.6050347 C105.027103,62.6070602 104.496097,62.6019966 103.839844,62.5898438 C103.800781,62.230467 103.738282,61.878908 103.652344,61.5351562 L104.38672,61.5937502 C104.829428,61.6250002 105.178384,61.640625 105.433594,61.640625 C105.917971,61.640625 106.160156,61.3789089 106.160156,60.8554688 L106.160156,51.421875 Z M104.472656,59.8945312 L103.570312,59.8945312 L103.570312,52.7226562 L104.472656,52.7226562 L104.472656,59.8945312 Z M118.347656,57.6796875 L118.992188,58.4882812 L116.373047,59.8007812 C117.29102,60.550785 118.441399,61.0468738 119.824219,61.2890625 C119.558592,61.6328142 119.339845,61.9453111 119.167969,62.2265625 C116.648425,61.624997 114.841802,60.0761844 113.748047,57.5800781 C113.349607,58.0878932 112.894534,58.5703102 112.382812,59.0273438 L112.382812,61.5351562 C113.414068,61.1992171 114.371089,60.8476581 115.253906,60.4804688 C115.246094,60.8242205 115.25,61.1640625 115.265625,61.5 C114.32812,61.8203141 113.35938,62.1718731 112.359375,62.5546875 C112.148436,62.6406254 111.941407,62.7421869 111.738281,62.859375 L111.1875,62.0039062 C111.406251,61.8476555 111.515625,61.6289077 111.515625,61.3476562 L111.515625,59.7363281 C110.707027,60.3417999 109.789068,60.8906225 108.761719,61.3828125 C108.589843,61.1093736 108.390626,60.8398451 108.164062,60.5742188 C110.183604,59.7460896 111.769525,58.6367257 112.921875,57.2460938 L108.292969,57.2460938 L108.292969,56.4375 L113.542969,56.4375 L113.542969,55.2421875 L109.125,55.2421875 L109.125,54.4335938 L113.542969,54.4335938 L113.542969,53.2851562 L108.65625,53.2851562 L108.65625,52.4765625 L113.542969,52.4765625 L113.542969,51.1640625 L114.46875,51.1640625 L114.46875,52.4765625 L119.378906,52.4765625 L119.378906,53.2851562 L114.46875,53.2851562 L114.46875,54.4335938 L118.875,54.4335938 L118.875,55.2421875 L114.46875,55.2421875 L114.46875,56.4375 L119.707031,56.4375 L119.707031,57.2460938 L114.498047,57.2460938 C114.826174,58.0078163 115.248044,58.667966 115.763672,59.2265625 C116.548832,58.8359355 117.410152,58.3203157 118.347656,57.6796875 Z M120.363281,53.2734375 L125.988281,53.2734375 L125.622395,52.5911445 C125.397569,52.1814227 125.210938,51.8619803 125.0625,51.6328125 L125.964844,51.2109375 L126.220052,51.6171874 C126.414496,51.9348949 126.657551,52.3463516 126.949219,52.8515625 L126.105469,53.2734375 L131.613281,53.2734375 L131.613281,54.140625 L129.451172,54.140625 C129.033201,56.3711049 128.134773,58.1640557 126.755859,59.5195312 C127.794927,60.2773475 129.445301,60.9570282 131.707031,61.5585938 C131.347654,61.9648458 131.07422,62.3046861 130.886719,62.578125 C128.683583,61.8164024 127.056646,61.0195354 126.005859,60.1875 C124.951167,61.0078166 123.265637,61.8359333 120.949219,62.671875 L120.621094,62.2382814 C120.503907,62.085938 120.378907,61.9257821 120.246094,61.7578125 C122.48048,61.0859341 124.162104,60.3378947 125.291016,59.5136719 C123.865227,57.9902268 122.958986,56.199229 122.572266,54.140625 L120.363281,54.140625 L120.363281,53.2734375 Z M128.449219,54.140625 L123.509766,54.140625 C123.86133,56.0625096 124.701165,57.6503844 126.029297,58.9042969 C127.298834,57.7246035 128.105467,56.1367287 128.449219,54.140625 Z M143.847656,61.59375 C143.58203,61.9062516 143.35547,62.1992174 143.167969,62.4726562 C141.105458,61.8554657 139.523443,61.0996138 138.421875,60.2050781 L138.421875,62.8476562 L137.578125,62.8476562 L137.578125,60.2226562 C136.394525,61.0585979 134.820322,61.8124966 132.855469,62.484375 C132.675781,62.2578114 132.44922,61.992189 132.175781,61.6875 C134.191416,61.1835912 135.787103,60.5625037 136.962891,59.8242188 L132.445312,59.8242188 L132.445312,59.0390625 L137.578125,59.0390625 L137.578125,58.078125 L138.421875,58.078125 L138.421875,59.0390625 L143.625,59.0390625 L143.625,59.8242188 L139.060547,59.8242188 C140.294928,60.6562542 141.890615,61.246092 143.847656,61.59375 Z M132.785156,52.3476562 L137.695312,52.3476562 C137.546874,52.0781237 137.375001,51.8007827 137.179688,51.515625 L138.011719,51.140625 C138.265626,51.5390645 138.505858,51.9414042 138.732422,52.3476562 L143.203125,52.3476562 L143.203125,54.1171875 L142.3125,54.1171875 L142.3125,53.1210938 L133.675781,53.1210938 L133.675781,54.1171875 L132.785156,54.1171875 L132.785156,52.3476562 Z" id="列表文案列表文案" fill="#5A6677" fill-rule="nonzero"></path>
                    <path d="M136.710938,53.4257812 L137.660156,53.6953125 C137.449218,53.9765639 137.224611,54.2578111 136.986328,54.5390625 L143.53125,54.5390625 L143.53125,55.3125 L141.011719,55.3125 C140.640623,55.9726596 140.138675,56.5078104 139.505859,56.9179688 L140.813673,57.2639065 C141.451172,57.4340624 142.06406,57.5999992 142.652344,57.7617188 L142.277344,58.546875 C141.039056,58.156248 139.779303,57.7832049 138.498047,57.4277344 C137.310541,57.8964867 135.519543,58.2812485 133.125,58.5820312 C133.03125,58.33203 132.917969,58.0742201 132.785156,57.8085938 L133.62461,57.7070772 C135.10945,57.5166416 136.29642,57.3024351 137.185547,57.0644531 C136.248042,56.8144519 135.300786,56.5703137 134.34375,56.3320312 C134.664064,55.9882795 134.96875,55.6484392 135.257812,55.3125 L132.46875,55.3125 L132.46875,54.5390625 L135.890625,54.5390625 C136.187501,54.1640606 136.460936,53.7929706 136.710938,53.4257812 Z M140.033203,55.3125 L136.300781,55.3125 C136.101562,55.5273448 135.894532,55.7421864 135.679688,55.9570312 C136.156252,56.0742193 136.623048,56.1899417 137.080078,56.3041992 L137.080078,56.3041992 L138.421875,56.6425781 C139.109378,56.3378891 139.646482,55.8945342 140.033203,55.3125 L140.033203,55.3125 Z" id="形状结合" fill="#5A6677" fill-rule="nonzero"></path>
                    <g id="编组-15" transform="translate(354.000000, 43.000000)">
                        <rect id="矩形" stroke="#D5DAE0" fill="#FFFFFF" x="0.5" y="0.5" width="55" height="27" rx="1.5"></rect>
                        <path d="M27.9179688,18.5878906 C27.6992177,18.869142 27.5078133,19.1347644 27.34375,19.3847656 C25.8554613,18.7988252 24.6953167,18.0234423 23.8632812,17.0585938 L23.8632812,19.7832031 L23.0898438,19.7832031 L23.0898438,17.0585938 C22.1132764,18.0156298 20.9062572,18.8066375 19.46875,19.4316406 C19.3359368,19.1972645 19.1562511,18.947267 18.9296875,18.6816406 C20.4492263,18.1464817 21.6894483,17.4355513 22.6503906,16.5488281 L19.4335938,16.5488281 L19.4335938,15.8222656 L23.0898438,15.8222656 L23.0898438,15.1074219 L23.8632812,15.1074219 L23.8632812,15.8222656 L27.6835938,15.8222656 L27.6835938,16.5488281 L24.2441406,16.5488281 C25.1152387,17.4550827 26.3398359,18.1347634 27.9179688,18.5878906 Z M16.2929688,15.4003906 L16.1640625,14.4160156 L16.7040627,14.2425781 C16.9862495,14.1488283 17.2867172,14.0445318 17.6054688,13.9296875 L17.6054688,11.2636719 L16.2695312,11.2636719 L16.2695312,10.4667969 L17.6054688,10.4667969 L17.6054688,8.28710938 L18.4726562,8.28710938 L18.4726562,10.4667969 L19.7734375,10.4667969 L19.7734375,11.2636719 L18.4726562,11.2636719 L18.4726562,13.6074219 L19.1940099,13.3261721 C19.3185757,13.276693 19.4453119,13.2259117 19.5742188,13.1738281 L19.5976562,14.0996094 L19.5976562,14.0996094 L18.4726562,14.5332031 L18.4726562,14.5332031 L18.4726562,18.4238281 C18.4726562,19.205082 18.1054688,19.6074218 17.3710938,19.6308594 C17.0742173,19.6464845 16.7031272,19.6464845 16.2578125,19.6308594 C16.2187498,19.3183578 16.1679691,19.0058609 16.1054688,18.6933594 C16.5429709,18.7402346 16.9023423,18.7636719 17.1835938,18.7636719 C17.4648452,18.7636719 17.6054688,18.6152359 17.6054688,18.3183594 L17.6054688,14.8789062 L16.6408699,15.2601315 C16.5271004,15.3057858 16.4111334,15.3525388 16.2929688,15.4003906 Z M20.7578125,8.74414062 L26.3125,8.74414062 L26.3125,11.6152344 L25.46875,11.6152344 L25.46875,11.2988281 L21.6015625,11.2988281 L21.6015625,11.6152344 L20.7578125,11.6152344 L20.7578125,8.74414062 Z M23.9921875,12.0957031 L27.15625,12.0957031 L27.15625,14.9785156 L26.4296875,14.9785156 L26.4296875,14.6152344 L24.71875,14.6152344 L24.71875,14.9433594 L23.9921875,14.9433594 L23.9921875,12.0957031 Z M19.9257812,12.1191406 L23.0195312,12.1191406 L23.0195312,14.9433594 L22.2929688,14.9433594 L22.2929688,14.6269531 L20.6523438,14.6269531 L20.6523438,14.9785156 L19.9257812,14.9785156 L19.9257812,12.1191406 Z M25.46875,9.44726562 L21.6015625,9.44726562 L21.6015625,10.5957031 L25.46875,10.5957031 L25.46875,9.44726562 Z M26.4296875,12.7753906 L24.71875,12.7753906 L24.71875,13.9355469 L26.4296875,13.9355469 L26.4296875,12.7753906 Z M22.2929688,12.7988281 L20.6523438,12.7988281 L20.6523438,13.9472656 L22.2929688,13.9472656 L22.2929688,12.7988281 Z M31.3867188,12.9746094 C32.4257864,11.5527273 33.1914038,9.96680562 33.6835938,8.21679688 L34.6445312,8.39257812 C34.4609366,8.99414363 34.2539074,9.57616906 34.0234375,10.1386719 L39.8007812,10.1386719 L39.8007812,10.9589844 L35.5351562,10.9589844 L35.5351562,13.0097656 L39.3320312,13.0097656 L39.3320312,13.8300781 L35.5351562,13.8300781 L35.5351562,15.9628906 L39.484375,15.9628906 L39.484375,16.7832031 L35.5351562,16.7832031 L35.5351562,19.7363281 L34.6210938,19.7363281 L34.6210938,10.9589844 L33.6660156,10.9589844 C33.2246072,11.9121141 32.7109404,12.8066364 32.125,13.6425781 C31.9062489,13.4316396 31.6601576,13.2089855 31.3867188,12.9746094 Z M28.1289062,14.0527344 C29.2304743,12.4199137 30.1015593,10.4863393 30.7421875,8.25195312 L31.703125,8.53320312 C31.4023422,9.45508273 31.0820329,10.3203085 30.7421875,11.1289062 L30.7421875,19.7363281 L29.828125,19.7363281 L29.828125,13.0390625 C29.4335918,13.7773474 29.0156272,14.4511688 28.5742188,15.0605469 C28.4570307,14.7636704 28.3085946,14.4277363 28.1289062,14.0527344 Z" id="操作" fill="#333333" fill-rule="nonzero"></path>
                    </g>
                    <g id="编组-15" transform="translate(354.000000, 96.000000)">
                        <rect id="矩形" stroke="#D5DAE0" fill="#FFFFFF" x="0.5" y="0.5" width="55" height="27" rx="1.5"></rect>
                        <path d="M27.9179688,18.5878906 C27.6992177,18.869142 27.5078133,19.1347644 27.34375,19.3847656 C25.8554613,18.7988252 24.6953167,18.0234423 23.8632812,17.0585938 L23.8632812,19.7832031 L23.0898438,19.7832031 L23.0898438,17.0585938 C22.1132764,18.0156298 20.9062572,18.8066375 19.46875,19.4316406 C19.3359368,19.1972645 19.1562511,18.947267 18.9296875,18.6816406 C20.4492263,18.1464817 21.6894483,17.4355513 22.6503906,16.5488281 L19.4335938,16.5488281 L19.4335938,15.8222656 L23.0898438,15.8222656 L23.0898438,15.1074219 L23.8632812,15.1074219 L23.8632812,15.8222656 L27.6835938,15.8222656 L27.6835938,16.5488281 L24.2441406,16.5488281 C25.1152387,17.4550827 26.3398359,18.1347634 27.9179688,18.5878906 Z M16.2929688,15.4003906 L16.1640625,14.4160156 L16.7040627,14.2425781 C16.9862495,14.1488283 17.2867172,14.0445318 17.6054688,13.9296875 L17.6054688,11.2636719 L16.2695312,11.2636719 L16.2695312,10.4667969 L17.6054688,10.4667969 L17.6054688,8.28710938 L18.4726562,8.28710938 L18.4726562,10.4667969 L19.7734375,10.4667969 L19.7734375,11.2636719 L18.4726562,11.2636719 L18.4726562,13.6074219 L19.1940099,13.3261721 C19.3185757,13.276693 19.4453119,13.2259117 19.5742188,13.1738281 L19.5976562,14.0996094 L19.5976562,14.0996094 L18.4726562,14.5332031 L18.4726562,14.5332031 L18.4726562,18.4238281 C18.4726562,19.205082 18.1054688,19.6074218 17.3710938,19.6308594 C17.0742173,19.6464845 16.7031272,19.6464845 16.2578125,19.6308594 C16.2187498,19.3183578 16.1679691,19.0058609 16.1054688,18.6933594 C16.5429709,18.7402346 16.9023423,18.7636719 17.1835938,18.7636719 C17.4648452,18.7636719 17.6054688,18.6152359 17.6054688,18.3183594 L17.6054688,14.8789062 L16.6408699,15.2601315 C16.5271004,15.3057858 16.4111334,15.3525388 16.2929688,15.4003906 Z M20.7578125,8.74414062 L26.3125,8.74414062 L26.3125,11.6152344 L25.46875,11.6152344 L25.46875,11.2988281 L21.6015625,11.2988281 L21.6015625,11.6152344 L20.7578125,11.6152344 L20.7578125,8.74414062 Z M23.9921875,12.0957031 L27.15625,12.0957031 L27.15625,14.9785156 L26.4296875,14.9785156 L26.4296875,14.6152344 L24.71875,14.6152344 L24.71875,14.9433594 L23.9921875,14.9433594 L23.9921875,12.0957031 Z M19.9257812,12.1191406 L23.0195312,12.1191406 L23.0195312,14.9433594 L22.2929688,14.9433594 L22.2929688,14.6269531 L20.6523438,14.6269531 L20.6523438,14.9785156 L19.9257812,14.9785156 L19.9257812,12.1191406 Z M25.46875,9.44726562 L21.6015625,9.44726562 L21.6015625,10.5957031 L25.46875,10.5957031 L25.46875,9.44726562 Z M26.4296875,12.7753906 L24.71875,12.7753906 L24.71875,13.9355469 L26.4296875,13.9355469 L26.4296875,12.7753906 Z M22.2929688,12.7988281 L20.6523438,12.7988281 L20.6523438,13.9472656 L22.2929688,13.9472656 L22.2929688,12.7988281 Z M31.3867188,12.9746094 C32.4257864,11.5527273 33.1914038,9.96680562 33.6835938,8.21679688 L34.6445312,8.39257812 C34.4609366,8.99414363 34.2539074,9.57616906 34.0234375,10.1386719 L39.8007812,10.1386719 L39.8007812,10.9589844 L35.5351562,10.9589844 L35.5351562,13.0097656 L39.3320312,13.0097656 L39.3320312,13.8300781 L35.5351562,13.8300781 L35.5351562,15.9628906 L39.484375,15.9628906 L39.484375,16.7832031 L35.5351562,16.7832031 L35.5351562,19.7363281 L34.6210938,19.7363281 L34.6210938,10.9589844 L33.6660156,10.9589844 C33.2246072,11.9121141 32.7109404,12.8066364 32.125,13.6425781 C31.9062489,13.4316396 31.6601576,13.2089855 31.3867188,12.9746094 Z M28.1289062,14.0527344 C29.2304743,12.4199137 30.1015593,10.4863393 30.7421875,8.25195312 L31.703125,8.53320312 C31.4023422,9.45508273 31.0820329,10.3203085 30.7421875,11.1289062 L30.7421875,19.7363281 L29.828125,19.7363281 L29.828125,13.0390625 C29.4335918,13.7773474 29.0156272,14.4511688 28.5742188,15.0605469 C28.4570307,14.7636704 28.3085946,14.4277363 28.1289062,14.0527344 Z" id="操作" fill="#333333" fill-rule="nonzero"></path>
                    </g>
                    <circle id="椭圆形" fill="#D8D8D8" cx="18" cy="57" r="18"></circle>
                    <circle id="椭圆形" fill="#D8D8D8" cx="18" cy="110" r="18"></circle>
                    <path d="M50.1796875,110.5625 L50.7539062,109.90625 C51.3476592,110.394534 51.8886694,110.873045 52.3769531,111.341797 C52.9003932,110.435542 53.2695302,109.45313 53.484375,108.394531 L50.8476562,108.394531 C50.2343719,109.800788 49.4804732,111.066401 48.5859375,112.191406 C48.4140616,111.792967 48.2578132,111.48047 48.1171875,111.253906 C49.2968809,109.667961 50.2050749,107.812511 50.8417969,105.6875 L48.5039062,105.6875 L48.5039062,104.84375 L55.078125,104.84375 L55.078125,105.6875 L51.8085938,105.6875 C51.6249991,106.332034 51.419923,106.953122 51.1933594,107.550781 L54.4453125,107.550781 L54.4453125,108.40625 C53.8046843,111.609391 52.1211074,114.082023 49.3945312,115.824219 C49.1914052,115.589843 48.9492202,115.351564 48.6679688,115.109375 C50.0039129,114.246089 51.0742147,113.248053 51.8789062,112.115234 C51.4335915,111.677732 50.8671909,111.160159 50.1796875,110.5625 Z M58.1601562,104.421875 L59.0976562,104.421875 L59.0976562,114.101562 C59.0976562,115.093755 58.648442,115.59375 57.75,115.601562 L57.43287,115.605035 C57.0271028,115.60706 56.496097,115.601997 55.8398438,115.589844 C55.8007811,115.230467 55.7382817,114.878908 55.6523438,114.535156 L56.3867201,114.59375 C56.829428,114.625 57.1783841,114.640625 57.4335938,114.640625 C57.9179712,114.640625 58.1601562,114.378909 58.1601562,113.855469 L58.1601562,104.421875 Z M56.4726562,112.894531 L55.5703125,112.894531 L55.5703125,105.722656 L56.4726562,105.722656 L56.4726562,112.894531 Z M70.3476562,110.679688 L70.9921875,111.488281 L68.3730469,112.800781 C69.2910202,113.550785 70.4413993,114.046874 71.8242188,114.289062 C71.5585924,114.632814 71.3398446,114.945311 71.1679688,115.226562 C68.6484249,114.624997 66.8418023,113.076184 65.7480469,110.580078 C65.3496074,111.087893 64.8945338,111.57031 64.3828125,112.027344 L64.3828125,114.535156 C65.4140677,114.199217 66.3710893,113.847658 67.2539062,113.480469 C67.2460937,113.82422 67.2499999,114.164062 67.265625,114.5 C66.3281203,114.820314 65.35938,115.171873 64.359375,115.554688 C64.1484364,115.640625 63.9414073,115.742187 63.7382812,115.859375 L63.1875,115.003906 C63.4062511,114.847655 63.515625,114.628908 63.515625,114.347656 L63.515625,112.736328 C62.7070272,113.3418 61.7890676,113.890623 60.7617188,114.382812 C60.5898429,114.109374 60.3906261,113.839845 60.1640625,113.574219 C62.1836038,112.74609 63.7695255,111.636726 64.921875,110.246094 L60.2929688,110.246094 L60.2929688,109.4375 L65.5429688,109.4375 L65.5429688,108.242188 L61.125,108.242188 L61.125,107.433594 L65.5429688,107.433594 L65.5429688,106.285156 L60.65625,106.285156 L60.65625,105.476562 L65.5429688,105.476562 L65.5429688,104.164062 L66.46875,104.164062 L66.46875,105.476562 L71.3789062,105.476562 L71.3789062,106.285156 L66.46875,106.285156 L66.46875,107.433594 L70.875,107.433594 L70.875,108.242188 L66.46875,108.242188 L66.46875,109.4375 L71.7070312,109.4375 L71.7070312,110.246094 L66.4980469,110.246094 C66.8261735,111.007816 67.2480443,111.667966 67.7636719,112.226562 C68.5488321,111.835936 69.4101516,111.320316 70.3476562,110.679688 Z M72.3632812,106.273438 L77.9882812,106.273438 L77.6223952,105.591145 C77.3975691,105.181423 77.2109382,104.86198 77.0625,104.632812 L77.9648438,104.210938 L78.2200521,104.617187 C78.414496,104.934895 78.6575506,105.346352 78.9492188,105.851562 L78.1054688,106.273438 L83.6132812,106.273438 L83.6132812,107.140625 L81.4511719,107.140625 C81.033201,109.371105 80.1347725,111.164056 78.7558594,112.519531 C79.7949271,113.277348 81.4453012,113.957028 83.7070312,114.558594 C83.3476545,114.964846 83.0742197,115.304686 82.8867188,115.578125 C80.6835827,114.816402 79.0566459,114.019535 78.0058594,113.1875 C76.9511666,114.007817 75.2656366,114.835933 72.9492188,115.671875 L72.6210942,115.238281 C72.5039069,115.085938 72.3789069,114.925782 72.2460938,114.757812 C74.4804799,114.085934 76.1621037,113.337895 77.2910156,112.513672 C75.8652272,110.990227 74.9589863,109.199229 74.5722656,107.140625 L72.3632812,107.140625 L72.3632812,106.273438 Z M80.4492188,107.140625 L75.5097656,107.140625 C75.8613299,109.06251 76.7011652,110.650384 78.0292969,111.904297 C79.2988345,110.724603 80.105467,109.136729 80.4492188,107.140625 Z M84.7851562,110.808594 L85.6246099,110.707077 C87.1094497,110.516642 88.2964198,110.302435 89.1855469,110.064453 C88.2480422,109.814452 87.300786,109.570314 86.34375,109.332031 C86.6640641,108.98828 86.96875,108.648439 87.2578125,108.3125 L84.46875,108.3125 L84.46875,107.539062 L87.890625,107.539062 C88.1875015,107.164061 88.4609363,106.792971 88.7109375,106.425781 L89.6601562,106.695312 C89.4492177,106.976564 89.2246106,107.257811 88.9863281,107.539062 L95.53125,107.539062 L95.53125,108.3125 L93.0117188,108.3125 C92.6406231,108.97266 92.138675,109.50781 91.5058594,109.917969 L92.8136729,110.263906 C93.4511715,110.434062 94.0640596,110.599999 94.6523438,110.761719 L94.2773438,111.546875 C93.0390563,111.156248 91.7793033,110.783205 90.4980469,110.427734 C89.3105409,110.896487 87.5195432,111.281248 85.125,111.582031 C85.0312495,111.33203 84.9179694,111.07422 84.7851562,110.808594 Z M95.8476562,114.59375 C95.5820299,114.906252 95.3554697,115.199217 95.1679688,115.472656 C93.1054584,114.855466 91.523443,114.099614 90.421875,113.205078 L90.421875,115.847656 L89.578125,115.847656 L89.578125,113.222656 C88.3945253,114.058598 86.8203223,114.812497 84.8554688,115.484375 C84.6757812,115.257811 84.4492201,114.992189 84.1757812,114.6875 C86.1914163,114.183591 87.7871035,113.562504 88.9628906,112.824219 L84.4453125,112.824219 L84.4453125,112.039062 L89.578125,112.039062 L89.578125,111.078125 L90.421875,111.078125 L90.421875,112.039062 L95.625,112.039062 L95.625,112.824219 L91.0605469,112.824219 C92.294928,113.656254 93.8906152,114.246092 95.8476562,114.59375 Z M84.7851562,105.347656 L89.6953125,105.347656 C89.5468743,105.078124 89.375001,104.800783 89.1796875,104.515625 L90.0117188,104.140625 C90.2656263,104.539064 90.5058582,104.941404 90.7324219,105.347656 L95.203125,105.347656 L95.203125,107.117188 L94.3125,107.117188 L94.3125,106.121094 L85.6757812,106.121094 L85.6757812,107.117188 L84.7851562,107.117188 L84.7851562,105.347656 Z M87.6796875,108.957031 L89.7582996,109.474487 C89.9819323,109.530883 90.2031239,109.586914 90.421875,109.642578 C91.1093784,109.337889 91.6464824,108.894534 92.0332031,108.3125 L88.3007812,108.3125 C88.1015615,108.527345 87.8945323,108.742186 87.6796875,108.957031 Z M98.1796875,110.5625 L98.7539062,109.90625 C99.3476592,110.394534 99.8886694,110.873045 100.376953,111.341797 C100.900393,110.435542 101.26953,109.45313 101.484375,108.394531 L98.8476562,108.394531 C98.2343719,109.800788 97.4804732,111.066401 96.5859375,112.191406 C96.4140616,111.792967 96.2578132,111.48047 96.1171875,111.253906 C97.2968809,109.667961 98.2050749,107.812511 98.8417969,105.6875 L96.5039062,105.6875 L96.5039062,104.84375 L103.078125,104.84375 L103.078125,105.6875 L99.8085938,105.6875 C99.6249991,106.332034 99.419923,106.953122 99.1933594,107.550781 L102.445312,107.550781 L102.445312,108.40625 C101.804684,111.609391 100.121107,114.082023 97.3945312,115.824219 C97.1914052,115.589843 96.9492202,115.351564 96.6679688,115.109375 C98.0039129,114.246089 99.0742147,113.248053 99.8789062,112.115234 C99.4335915,111.677732 98.8671909,111.160159 98.1796875,110.5625 Z M106.160156,104.421875 L107.097656,104.421875 L107.097656,114.101562 C107.097656,115.093755 106.648442,115.59375 105.75,115.601562 L105.43287,115.605035 C105.027103,115.60706 104.496097,115.601997 103.839844,115.589844 C103.800781,115.230467 103.738282,114.878908 103.652344,114.535156 L104.38672,114.59375 C104.829428,114.625 105.178384,114.640625 105.433594,114.640625 C105.917971,114.640625 106.160156,114.378909 106.160156,113.855469 L106.160156,104.421875 Z M104.472656,112.894531 L103.570312,112.894531 L103.570312,105.722656 L104.472656,105.722656 L104.472656,112.894531 Z M118.347656,110.679688 L118.992188,111.488281 L116.373047,112.800781 C117.29102,113.550785 118.441399,114.046874 119.824219,114.289062 C119.558592,114.632814 119.339845,114.945311 119.167969,115.226562 C116.648425,114.624997 114.841802,113.076184 113.748047,110.580078 C113.349607,111.087893 112.894534,111.57031 112.382812,112.027344 L112.382812,114.535156 C113.414068,114.199217 114.371089,113.847658 115.253906,113.480469 C115.246094,113.82422 115.25,114.164062 115.265625,114.5 C114.32812,114.820314 113.35938,115.171873 112.359375,115.554688 C112.148436,115.640625 111.941407,115.742187 111.738281,115.859375 L111.1875,115.003906 C111.406251,114.847655 111.515625,114.628908 111.515625,114.347656 L111.515625,112.736328 C110.707027,113.3418 109.789068,113.890623 108.761719,114.382812 C108.589843,114.109374 108.390626,113.839845 108.164062,113.574219 C110.183604,112.74609 111.769525,111.636726 112.921875,110.246094 L108.292969,110.246094 L108.292969,109.4375 L113.542969,109.4375 L113.542969,108.242188 L109.125,108.242188 L109.125,107.433594 L113.542969,107.433594 L113.542969,106.285156 L108.65625,106.285156 L108.65625,105.476562 L113.542969,105.476562 L113.542969,104.164062 L114.46875,104.164062 L114.46875,105.476562 L119.378906,105.476562 L119.378906,106.285156 L114.46875,106.285156 L114.46875,107.433594 L118.875,107.433594 L118.875,108.242188 L114.46875,108.242188 L114.46875,109.4375 L119.707031,109.4375 L119.707031,110.246094 L114.498047,110.246094 C114.826174,111.007816 115.248044,111.667966 115.763672,112.226562 C116.548832,111.835936 117.410152,111.320316 118.347656,110.679688 Z M120.363281,106.273438 L125.988281,106.273438 L125.622395,105.591145 C125.397569,105.181423 125.210938,104.86198 125.0625,104.632812 L125.964844,104.210938 L126.220052,104.617187 C126.414496,104.934895 126.657551,105.346352 126.949219,105.851562 L126.105469,106.273438 L131.613281,106.273438 L131.613281,107.140625 L129.451172,107.140625 C129.033201,109.371105 128.134773,111.164056 126.755859,112.519531 C127.794927,113.277348 129.445301,113.957028 131.707031,114.558594 C131.347654,114.964846 131.07422,115.304686 130.886719,115.578125 C128.683583,114.816402 127.056646,114.019535 126.005859,113.1875 C124.951167,114.007817 123.265637,114.835933 120.949219,115.671875 L120.621094,115.238281 C120.503907,115.085938 120.378907,114.925782 120.246094,114.757812 C122.48048,114.085934 124.162104,113.337895 125.291016,112.513672 C123.865227,110.990227 122.958986,109.199229 122.572266,107.140625 L120.363281,107.140625 L120.363281,106.273438 Z M128.449219,107.140625 L123.509766,107.140625 C123.86133,109.06251 124.701165,110.650384 126.029297,111.904297 C127.298834,110.724603 128.105467,109.136729 128.449219,107.140625 Z M132.785156,110.808594 L133.62461,110.707077 C135.10945,110.516642 136.29642,110.302435 137.185547,110.064453 C136.248042,109.814452 135.300786,109.570314 134.34375,109.332031 C134.664064,108.98828 134.96875,108.648439 135.257812,108.3125 L132.46875,108.3125 L132.46875,107.539062 L135.890625,107.539062 C136.187501,107.164061 136.460936,106.792971 136.710938,106.425781 L137.660156,106.695312 C137.449218,106.976564 137.224611,107.257811 136.986328,107.539062 L143.53125,107.539062 L143.53125,108.3125 L141.011719,108.3125 C140.640623,108.97266 140.138675,109.50781 139.505859,109.917969 L140.813673,110.263906 C141.451172,110.434062 142.06406,110.599999 142.652344,110.761719 L142.277344,111.546875 C141.039056,111.156248 139.779303,110.783205 138.498047,110.427734 C137.310541,110.896487 135.519543,111.281248 133.125,111.582031 C133.03125,111.33203 132.917969,111.07422 132.785156,110.808594 Z M143.847656,114.59375 C143.58203,114.906252 143.35547,115.199217 143.167969,115.472656 C141.105458,114.855466 139.523443,114.099614 138.421875,113.205078 L138.421875,115.847656 L137.578125,115.847656 L137.578125,113.222656 C136.394525,114.058598 134.820322,114.812497 132.855469,115.484375 C132.675781,115.257811 132.44922,114.992189 132.175781,114.6875 C134.191416,114.183591 135.787103,113.562504 136.962891,112.824219 L132.445312,112.824219 L132.445312,112.039062 L137.578125,112.039062 L137.578125,111.078125 L138.421875,111.078125 L138.421875,112.039062 L143.625,112.039062 L143.625,112.824219 L139.060547,112.824219 C140.294928,113.656254 141.890615,114.246092 143.847656,114.59375 Z M132.785156,105.347656 L137.695312,105.347656 C137.546874,105.078124 137.375001,104.800783 137.179688,104.515625 L138.011719,104.140625 C138.265626,104.539064 138.505858,104.941404 138.732422,105.347656 L143.203125,105.347656 L143.203125,107.117188 L142.3125,107.117188 L142.3125,106.121094 L133.675781,106.121094 L133.675781,107.117188 L132.785156,107.117188 L132.785156,105.347656 Z M135.679688,108.957031 L137.7583,109.474487 C137.981932,109.530883 138.203124,109.586914 138.421875,109.642578 C139.109378,109.337889 139.646482,108.894534 140.033203,108.3125 L136.300781,108.3125 C136.101562,108.527345 135.894532,108.742186 135.679688,108.957031 Z M146.179688,110.5625 L146.753906,109.90625 C147.347659,110.394534 147.888669,110.873045 148.376953,111.341797 C148.900393,110.435542 149.26953,109.45313 149.484375,108.394531 L146.847656,108.394531 C146.234372,109.800788 145.480473,111.066401 144.585938,112.191406 C144.414062,111.792967 144.257813,111.48047 144.117188,111.253906 C145.296881,109.667961 146.205075,107.812511 146.841797,105.6875 L144.503906,105.6875 L144.503906,104.84375 L151.078125,104.84375 L151.078125,105.6875 L147.808594,105.6875 C147.624999,106.332034 147.419923,106.953122 147.193359,107.550781 L150.445312,107.550781 L150.445312,108.40625 C149.804684,111.609391 148.121107,114.082023 145.394531,115.824219 C145.191405,115.589843 144.94922,115.351564 144.667969,115.109375 C146.003913,114.246089 147.074215,113.248053 147.878906,112.115234 C147.433592,111.677732 146.867191,111.160159 146.179688,110.5625 Z M154.160156,104.421875 L155.097656,104.421875 L155.097656,114.101562 C155.097656,115.093755 154.648442,115.59375 153.75,115.601562 L153.43287,115.605035 C153.027103,115.60706 152.496097,115.601997 151.839844,115.589844 C151.800781,115.230467 151.738282,114.878908 151.652344,114.535156 L152.38672,114.59375 C152.829428,114.625 153.178384,114.640625 153.433594,114.640625 C153.917971,114.640625 154.160156,114.378909 154.160156,113.855469 L154.160156,104.421875 Z M152.472656,112.894531 L151.570312,112.894531 L151.570312,105.722656 L152.472656,105.722656 L152.472656,112.894531 Z M166.347656,110.679688 L166.992188,111.488281 L164.373047,112.800781 C165.29102,113.550785 166.441399,114.046874 167.824219,114.289062 C167.558592,114.632814 167.339845,114.945311 167.167969,115.226562 C164.648425,114.624997 162.841802,113.076184 161.748047,110.580078 C161.349607,111.087893 160.894534,111.57031 160.382812,112.027344 L160.382812,114.535156 C161.414068,114.199217 162.371089,113.847658 163.253906,113.480469 C163.246094,113.82422 163.25,114.164062 163.265625,114.5 C162.32812,114.820314 161.35938,115.171873 160.359375,115.554688 C160.148436,115.640625 159.941407,115.742187 159.738281,115.859375 L159.1875,115.003906 C159.406251,114.847655 159.515625,114.628908 159.515625,114.347656 L159.515625,112.736328 C158.707027,113.3418 157.789068,113.890623 156.761719,114.382812 C156.589843,114.109374 156.390626,113.839845 156.164062,113.574219 C158.183604,112.74609 159.769525,111.636726 160.921875,110.246094 L156.292969,110.246094 L156.292969,109.4375 L161.542969,109.4375 L161.542969,108.242188 L157.125,108.242188 L157.125,107.433594 L161.542969,107.433594 L161.542969,106.285156 L156.65625,106.285156 L156.65625,105.476562 L161.542969,105.476562 L161.542969,104.164062 L162.46875,104.164062 L162.46875,105.476562 L167.378906,105.476562 L167.378906,106.285156 L162.46875,106.285156 L162.46875,107.433594 L166.875,107.433594 L166.875,108.242188 L162.46875,108.242188 L162.46875,109.4375 L167.707031,109.4375 L167.707031,110.246094 L162.498047,110.246094 C162.826174,111.007816 163.248044,111.667966 163.763672,112.226562 C164.548832,111.835936 165.410152,111.320316 166.347656,110.679688 Z M168.363281,106.273438 L173.988281,106.273438 L173.622395,105.591145 C173.397569,105.181423 173.210938,104.86198 173.0625,104.632812 L173.964844,104.210938 L174.220052,104.617187 C174.414496,104.934895 174.657551,105.346352 174.949219,105.851562 L174.105469,106.273438 L179.613281,106.273438 L179.613281,107.140625 L177.451172,107.140625 C177.033201,109.371105 176.134773,111.164056 174.755859,112.519531 C175.794927,113.277348 177.445301,113.957028 179.707031,114.558594 C179.347654,114.964846 179.07422,115.304686 178.886719,115.578125 C176.683583,114.816402 175.056646,114.019535 174.005859,113.1875 C172.951167,114.007817 171.265637,114.835933 168.949219,115.671875 L168.621094,115.238281 C168.503907,115.085938 168.378907,114.925782 168.246094,114.757812 C170.48048,114.085934 172.162104,113.337895 173.291016,112.513672 C171.865227,110.990227 170.958986,109.199229 170.572266,107.140625 L168.363281,107.140625 L168.363281,106.273438 Z M176.449219,107.140625 L171.509766,107.140625 C171.86133,109.06251 172.701165,110.650384 174.029297,111.904297 C175.298834,110.724603 176.105467,109.136729 176.449219,107.140625 Z M180.785156,110.808594 L181.62461,110.707077 C183.10945,110.516642 184.29642,110.302435 185.185547,110.064453 C184.248042,109.814452 183.300786,109.570314 182.34375,109.332031 C182.664064,108.98828 182.96875,108.648439 183.257812,108.3125 L180.46875,108.3125 L180.46875,107.539062 L183.890625,107.539062 C184.187501,107.164061 184.460936,106.792971 184.710938,106.425781 L185.660156,106.695312 C185.449218,106.976564 185.224611,107.257811 184.986328,107.539062 L191.53125,107.539062 L191.53125,108.3125 L189.011719,108.3125 C188.640623,108.97266 188.138675,109.50781 187.505859,109.917969 L188.813673,110.263906 C189.451172,110.434062 190.06406,110.599999 190.652344,110.761719 L190.277344,111.546875 C189.039056,111.156248 187.779303,110.783205 186.498047,110.427734 C185.310541,110.896487 183.519543,111.281248 181.125,111.582031 C181.03125,111.33203 180.917969,111.07422 180.785156,110.808594 Z M191.847656,114.59375 C191.58203,114.906252 191.35547,115.199217 191.167969,115.472656 C189.105458,114.855466 187.523443,114.099614 186.421875,113.205078 L186.421875,115.847656 L185.578125,115.847656 L185.578125,113.222656 C184.394525,114.058598 182.820322,114.812497 180.855469,115.484375 C180.675781,115.257811 180.44922,114.992189 180.175781,114.6875 C182.191416,114.183591 183.787103,113.562504 184.962891,112.824219 L180.445312,112.824219 L180.445312,112.039062 L185.578125,112.039062 L185.578125,111.078125 L186.421875,111.078125 L186.421875,112.039062 L191.625,112.039062 L191.625,112.824219 L187.060547,112.824219 C188.294928,113.656254 189.890615,114.246092 191.847656,114.59375 Z M180.785156,105.347656 L185.695312,105.347656 C185.546874,105.078124 185.375001,104.800783 185.179688,104.515625 L186.011719,104.140625 C186.265626,104.539064 186.505858,104.941404 186.732422,105.347656 L191.203125,105.347656 L191.203125,107.117188 L190.3125,107.117188 L190.3125,106.121094 L181.675781,106.121094 L181.675781,107.117188 L180.785156,107.117188 L180.785156,105.347656 Z M183.679688,108.957031 L185.7583,109.474487 C185.981932,109.530883 186.203124,109.586914 186.421875,109.642578 C187.109378,109.337889 187.646482,108.894534 188.033203,108.3125 L184.300781,108.3125 C184.101562,108.527345 183.894532,108.742186 183.679688,108.957031 Z M198.140625,114.224609 L192.621094,114.224609 L192.621094,113.228516 L195.257812,110.597656 C195.984379,109.87109 196.470702,109.295901 196.716797,108.87207 C196.962892,108.44824 197.085938,108.009768 197.085938,107.556641 C197.085938,107.041013 196.941408,106.645509 196.652344,106.370117 C196.36328,106.094725 195.945315,105.957031 195.398438,105.957031 C194.58984,105.957031 193.818363,106.300778 193.083984,106.988281 L193.083984,105.822266 C193.798832,105.271482 194.630855,104.996094 195.580078,104.996094 C196.396488,104.996094 197.041013,105.216795 197.513672,105.658203 C197.98633,106.099612 198.222656,106.693356 198.222656,107.439453 C198.222656,108.001956 198.071291,108.553708 197.768555,109.094727 C197.465819,109.635745 196.892582,110.324215 196.048828,111.160156 L193.980469,113.181641 L193.980469,113.205078 L198.140625,113.205078 L198.140625,114.224609 Z" id="列表文案列表文案列表文案2" fill="#5A6677" fill-rule="nonzero"></path>
                    <rect id="Rectangle" fill="#F1F1F1" x="0" y="83" width="410" height="1"></rect>
                    <rect id="Rectangle" fill="#F1F1F1" x="0" y="136" width="410" height="1"></rect>
                    <rect id="Rectangle" fill="#F1F1F1" x="0" y="30" width="410" height="1"></rect>
                </g>
                <text id="样式一" font-family="MicrosoftYaHei, Microsoft YaHei" font-size="12" font-weight="normal" line-spacing="22" fill="#525A6E">
                    <tspan x="8" y="27">样式一</tspan>
                </text>
            </g>
        </g>
    </g>
</svg>