<?xml version="1.0" encoding="UTF-8"?>
<svg width="241px" height="192px" viewBox="0 0 241 192" version="1.1" xmlns="http://www.w3.org/2000/svg" xmlns:xlink="http://www.w3.org/1999/xlink">
    <!-- Generator: Sketch 58 (84663) - https://sketch.com -->
    <title>input-style1</title>
    <desc>Created with Sketch.</desc>
    <defs>
        <polygon id="path-1" points="4.30251387 15.5021376 2.99218577 0.502137574 15.9921858 9.03637537 8.49919044 9.03637537"></polygon>
        <filter x="-19.9%" y="-13.2%" width="148.2%" height="143.2%" filterUnits="objectBoundingBox" id="filter-2">
            <feMorphology radius="0.5" operator="dilate" in="SourceAlpha" result="shadowSpreadOuter1"></feMorphology>
            <feOffset dx="0" dy="1" in="shadowSpreadOuter1" result="shadowOffsetOuter1"></feOffset>
            <feGaussianBlur stdDeviation="0.5" in="shadowOffsetOuter1" result="shadowBlurOuter1"></feGaussianBlur>
            <feComposite in="shadowBlurOuter1" in2="SourceAlpha" operator="out" result="shadowBlurOuter1"></feComposite>
            <feColorMatrix values="0 0 0 0 0   0 0 0 0 0   0 0 0 0 0  0 0 0 0.5 0" type="matrix" in="shadowBlurOuter1"></feColorMatrix>
        </filter>
        <linearGradient x1="50%" y1="0%" x2="50%" y2="100%" id="linearGradient-3">
            <stop stop-color="#FFFFFF" offset="0%"></stop>
            <stop stop-color="#EEEEEE" offset="100%"></stop>
        </linearGradient>
        <path d="M14.4165577,11.6253645 C19.9394052,11.6253645 24.4165577,16.102517 24.4165577,21.6253645 C24.4165577,27.148212 19.9394052,31.6253645 14.4165577,31.6253645 C8.89371023,31.6253645 4.41655772,27.148212 4.41655772,21.6253645 C4.41655772,16.102517 8.89371023,11.6253645 14.4165577,11.6253645 Z M6.41655772,21.6253645 C6.41655772,25.704999 9.47027128,29.0714004 13.4166064,29.5634768 L13.4166064,13.6872522 C9.47027128,14.1793286 6.41655772,17.5457301 6.41655772,21.6253645 Z M15.4175128,13.6873774 L15.4175128,29.5633516 C19.363362,29.0708295 22.4165577,25.704653 22.4165577,21.6253645 C22.4165577,17.546076 19.363362,14.1798995 15.4175128,13.6873774 Z" id="path-4"></path>
        <filter x="-10.0%" y="-5.0%" width="120.0%" height="120.0%" filterUnits="objectBoundingBox" id="filter-5">
            <feOffset dx="0" dy="1" in="SourceAlpha" result="shadowOffsetOuter1"></feOffset>
            <feGaussianBlur stdDeviation="0.5" in="shadowOffsetOuter1" result="shadowBlurOuter1"></feGaussianBlur>
            <feColorMatrix values="0 0 0 0 0   0 0 0 0 0   0 0 0 0 0  0 0 0 0.5 0" type="matrix" in="shadowBlurOuter1"></feColorMatrix>
        </filter>
    </defs>
    <g id="页面-1" stroke="none" stroke-width="1" fill="none" fill-rule="evenodd">
        <g id="input-style1">
            <rect id="矩形备份" fill="#FAFAFA" opacity="0.01" x="0" y="0" width="241" height="192"></rect>
            <rect id="矩形备份-4" stroke-opacity="0.15" stroke="#000000" fill="#FFFFFF" x="52.5" y="20.5" width="176" height="27" rx="2"></rect>
            <path d="M60.1171875,30.2441406 L65.7421875,30.2441406 L65.3763015,29.5618477 C65.1514753,29.1521258 64.9648445,28.8326834 64.8164062,28.6035156 L65.71875,28.1816406 L65.9739583,28.5878905 C66.1684023,28.905598 66.4114569,29.3170548 66.703125,29.8222656 L65.859375,30.2441406 L71.3671875,30.2441406 L71.3671875,31.1113281 L69.2050781,31.1113281 C68.7871073,33.341808 67.8886788,35.1347588 66.5097656,36.4902344 C67.5488333,37.2480507 69.1992074,37.9277314 71.4609375,38.5292969 C71.1015607,38.9355489 70.8281259,39.2753893 70.640625,39.5488281 C68.437489,38.7871056 66.8105521,37.9902385 65.7597656,37.1582031 C64.7050729,37.9785197 63.0195428,38.8066364 60.703125,39.6425781 L60.3750005,39.2089845 C60.2578132,39.0566411 60.1328132,38.8964852 60,38.7285156 C62.2343862,38.0566373 63.91601,37.3085979 65.0449219,36.484375 C63.6191335,34.9609299 62.7128926,33.1699322 62.3261719,31.1113281 L60.1171875,31.1113281 L60.1171875,30.2441406 Z M68.203125,31.1113281 L63.2636719,31.1113281 C63.6152361,33.0332127 64.4550715,34.6210875 65.7832031,35.875 C67.0527407,34.6953066 67.8593733,33.1074319 68.203125,31.1113281 Z M83.53125,36.6894531 L83.1796877,37.0468747 C83.0468756,37.1835931 82.8984383,37.3378898 82.734375,37.5097656 C80.8437405,36.0527271 79.3359431,34.1855583 78.2109375,31.9082031 L78.2109375,36.5488281 L80.8945312,36.5488281 L80.8945312,37.3691406 L78.2109375,37.3691406 L78.2109375,39.7714844 L77.296875,39.7714844 L77.296875,37.3691406 L74.5195312,37.3691406 L74.5195312,36.5488281 L77.296875,36.5488281 L77.296875,31.9082031 C76.3007763,33.892588 74.7734478,35.8066314 72.7148438,37.6503906 L72.3717184,37.3297653 C72.2114062,37.182578 72.0679694,37.0550787 71.9414062,36.9472656 C74.1640736,35.1230378 75.8261664,33.1933696 76.9277344,31.1582031 L72.1992188,31.1582031 L72.1992188,30.2910156 L77.296875,30.2910156 L77.296875,28.1816406 L78.2109375,28.1816406 L78.2109375,30.2910156 L83.3085938,30.2910156 L83.3085938,31.1582031 L78.5449219,31.1582031 C79.7871156,33.4941523 81.4492083,35.3378839 83.53125,36.6894531 Z M84.9257812,34.0410156 L85.9804688,34.0410156 L85.9804688,31.9082031 L86.7539062,31.9082031 L86.7539062,34.0410156 L87.8789062,34.0410156 L87.8789062,34.8144531 L86.7539062,34.8144531 L86.7539062,36.4199219 C87.1679708,36.3652341 87.5898416,36.3027347 88.0195312,36.2324219 C87.9804686,36.5292984 87.9531251,36.7988269 87.9375,37.0410156 L86.7539062,37.2050781 L86.7539062,37.2050781 L86.7539062,39.8183594 L85.9804688,39.8183594 L85.9804688,37.3222656 C85.3476531,37.4160161 84.7109407,37.5136714 84.0703125,37.6152344 L83.9414062,36.7597656 C84.6132846,36.6894528 85.2929653,36.6113286 85.9804688,36.5253906 L85.9804688,34.8144531 L84.1054688,34.8144531 L84.1054688,34.0058594 C84.4023452,33.1699177 84.7109359,32.1074283 85.03125,30.8183594 L84,30.8183594 L84,30.0683594 L85.21875,30.0683594 C85.3515632,29.5058566 85.4882805,28.9043001 85.6289062,28.2636719 L86.4726562,28.4511719 L86.0507812,30.0683594 L86.0507812,30.0683594 L88.171875,30.0683594 L88.171875,30.8183594 L85.8515625,30.8183594 L85.6003413,31.7316915 C85.3557124,32.6091328 85.1308604,33.3789029 84.9257812,34.0410156 Z M89.0273438,39.7949219 L88.2773438,39.7949219 L88.2773438,32.8925781 L91.3945312,32.8925781 L91.3945312,38.6582031 C91.3945312,39.3457066 91.0781282,39.6894531 90.4453125,39.6894531 L89.53125,39.6777344 L89.53125,39.6777344 L89.3671875,38.9511719 L89.3671875,38.9511719 C89.6796891,38.9746095 89.9648425,38.9863281 90.2226562,38.9863281 C90.5039077,38.9863281 90.6445312,38.8300797 90.6445312,38.5175781 L90.6445312,37.1582031 L89.0273438,37.1582031 L89.0273438,39.7949219 Z M92.4140625,28.3457031 L92.2148438,28.6035156 C93.1289108,29.9785225 94.2734306,30.9628877 95.6484375,31.5566406 C95.3828112,31.8691422 95.1796882,32.1386707 95.0390625,32.3652344 C94.5078098,32.0683579 94.0156273,31.7324238 93.5625,31.3574219 L93.5625,31.9433594 L89.4960938,31.9433594 L89.4960938,31.4277344 C89.0351539,31.8105488 88.55469,32.1621078 88.0546875,32.4824219 C87.8203113,32.1777329 87.6132821,31.939454 87.4335938,31.7675781 C88.988289,30.8613236 90.2421827,29.72071 91.1953125,28.3457031 L92.4140625,28.3457031 Z M94.1601562,32.6816406 L94.9570312,32.6816406 L94.9570312,38.3886719 C94.9570312,39.2558637 94.5898474,39.6933593 93.8554688,39.7011719 C93.4570293,39.7089844 93.0000026,39.701172 92.484375,39.6777344 C92.4453123,39.3886704 92.3906254,39.0957046 92.3203125,38.7988281 C92.8125025,38.8613284 93.2343732,38.8925781 93.5859375,38.8925781 C93.9687519,38.8925781 94.1601562,38.6894552 94.1601562,38.2832031 L94.1601562,32.6816406 Z M91.640625,29.2128906 C91.0546846,29.9472693 90.4218784,30.6113252 89.7421875,31.2050781 L93.375,31.2050781 C92.7109342,30.6269502 92.132815,29.9628944 91.640625,29.2128906 Z M92.3671875,33.2441406 L93.1171875,33.2441406 L93.1171875,37.5097656 L92.3671875,37.5097656 L92.3671875,33.2441406 Z M89.0273438,36.5019531 L90.6445312,36.5019531 L90.6445312,35.3769531 L89.0273438,35.3769531 L89.0273438,36.5019531 Z M90.6445312,33.6074219 L89.0273438,33.6074219 L89.0273438,34.7207031 L90.6445312,34.7207031 L90.6445312,33.6074219 Z M99.1875,28.9199219 L99.9609375,28.3691406 C100.835942,28.9082058 101.79687,30.2910045 102.84375,32.5175781 C104.304695,35.7129066 105.890616,37.6621059 107.601562,38.3652344 L106.78125,39.3964844 C105.141593,38.4231722 103.620347,36.4166813 102.217469,33.376955 L101.803386,32.4667971 C101.765191,32.384766 101.727214,32.3040369 101.689453,32.2246094 C100.783199,35.3300937 99.0976686,37.744132 96.6328125,39.4667969 C96.4218739,39.1542953 96.1835951,38.8613295 95.9179688,38.5878906 C98.4531377,36.9902264 100.160152,34.4629079 101.039062,31.0058594 C100.425778,29.9824168 99.8085969,29.2871112 99.1875,28.9199219 Z M112.394531,28.9316406 L119.308594,28.9316406 L119.308594,29.7753906 L113.273438,29.7753906 L113.273438,38.4238281 L119.472656,38.4238281 L119.472656,39.2675781 L112.394531,39.2675781 L112.394531,28.9316406 Z M107.917969,35.5644531 C108.742192,34.2597591 109.330076,32.8457107 109.681641,31.3222656 L108,31.3222656 L108,30.5019531 L109.6875,30.5019531 L109.6875,28.2167969 L110.554688,28.2167969 L110.554688,30.5019531 L112.019531,30.5019531 L112.019531,31.3222656 L110.554688,31.3222656 L110.554688,33.1914062 L111.070312,32.7167969 L111.375479,33.0372691 C111.644133,33.3258527 111.948659,33.6682458 112.289062,34.0644531 L111.644531,34.6621094 C111.324217,34.2324197 110.96094,33.7832055 110.554688,33.3144531 L110.554688,39.7714844 L109.6875,39.7714844 L109.6875,33.4960938 C109.285154,34.8086003 108.820315,35.8417931 108.292969,36.5957031 C108.191406,36.2597639 108.066407,35.9160174 107.917969,35.5644531 Z M113.671875,36.1738281 L116.050781,36.1738281 L116.050781,34.3691406 L114.175781,34.3691406 L114.175781,33.5722656 L116.050781,33.5722656 L116.050781,31.8847656 L113.964844,31.8847656 L113.964844,31.0878906 L119.050781,31.0878906 L119.050781,31.8847656 L116.917969,31.8847656 L116.917969,33.5722656 L118.792969,33.5722656 L118.792969,34.3691406 L116.917969,34.3691406 L116.917969,36.1738281 L119.296875,36.1738281 L119.296875,36.9707031 L113.671875,36.9707031 L113.671875,36.1738281 Z" id="文本输入框" fill="#333333" fill-rule="nonzero"></path>
            <rect id="矩形备份-4" stroke="#FD6868" fill="#FFFFFF" x="52.5" y="116.5" width="176" height="27" rx="2"></rect>
            <path d="M64.921875,130.181641 L70.8867188,130.181641 L70.8867188,135.841797 L69.9960938,135.841797 L69.9960938,135.162109 L65.8125,135.162109 L65.8125,135.841797 L64.921875,135.841797 L64.921875,130.181641 Z M64.1367188,128.388672 L65.859375,128.388672 L65.859375,126.818359 L64.4882812,126.818359 L64.4882812,126.021484 L65.859375,126.021484 L65.859375,124.333984 L66.75,124.333984 L66.75,126.021484 L68.8828125,126.021484 L68.8828125,124.333984 L69.7734375,124.333984 L69.7734375,126.021484 L71.4257812,126.021484 L71.4257812,126.818359 L69.7734375,126.818359 L69.7734375,128.388672 L71.765625,128.388672 L71.765625,129.185547 L64.1367188,129.185547 L64.1367188,128.388672 Z M63.9023438,132.666016 L63.9848438,133.059766 C64.0251562,133.242578 64.0640623,133.404296 64.1015625,133.544922 L63.4179676,134.197267 C62.9960931,134.603516 62.6419285,134.952472 62.3554688,135.244141 L62.2579688,135.369765 C62.197969,135.448515 62.1210942,135.551171 62.0273438,135.677734 L61.3828125,134.951172 C61.6015636,134.708983 61.7109375,134.353518 61.7109375,133.884766 L61.7109375,131.318359 L60.2109375,131.318359 L60.2109375,130.498047 L61.7109375,130.498047 L61.7109375,129.044922 L61.2070312,129.044922 L61.2070312,128.224609 L63.7148438,128.224609 L63.7148438,129.044922 L62.5664062,129.044922 L62.5664062,130.498047 L64.03125,130.498047 L64.03125,131.318359 L62.5664062,131.318359 L62.5664062,133.919922 C63.0585962,133.474607 63.5039043,133.056643 63.9023438,132.666016 Z M60.140625,128.318359 C60.8125034,127.224604 61.3164046,125.880867 61.6523438,124.287109 L62.53125,124.474609 C62.3945306,125.033206 62.2402352,125.568357 62.0683594,126.080078 L64.078125,126.080078 L64.078125,126.900391 L61.7695312,126.900391 C61.4414046,127.748051 61.0585959,128.525387 60.6210938,129.232422 C60.4726555,128.935545 60.3125009,128.630861 60.140625,128.318359 Z M65.8125,134.388672 L69.9960938,134.388672 L69.9960938,133.041016 L65.8125,133.041016 L65.8125,134.388672 Z M69.9960938,130.955078 L65.8125,130.955078 L65.8125,132.291016 L69.9960938,132.291016 L69.9960938,130.955078 Z M66.75,128.388672 L68.8828125,128.388672 L68.8828125,126.818359 L66.75,126.818359 L66.75,128.388672 Z M75.4101562,131.470703 L78.9492188,131.470703 C79.0039065,131.115233 79.0351562,130.6543 79.0429688,130.087891 L75.8320312,130.087891 L75.8320312,129.267578 L83.3789062,129.267578 L83.3789062,130.087891 L79.9570312,130.087891 L79.9436384,130.559512 C79.9296875,130.927018 79.9087613,131.230747 79.8808594,131.470703 L83.7890625,131.470703 L83.7890625,132.291016 L80.1679688,132.291016 C80.8632847,133.666022 82.1171784,134.54492 83.9296875,134.927734 L83.4698438,135.486016 C83.377969,135.599765 83.2929691,135.70664 83.2148438,135.806641 C81.4101472,135.279294 80.1621128,134.230477 79.4707031,132.660156 C78.9511693,134.062507 77.6914163,135.123043 75.6914062,135.841797 C75.5039053,135.599608 75.2929699,135.345704 75.0585938,135.080078 C77.003916,134.462888 78.22656,133.533209 78.7265625,132.291016 L75.4101562,132.291016 L75.4101562,131.470703 Z M76.359375,124.814453 L82.78125,124.814453 L82.78125,128.646484 L81.890625,128.646484 L81.890625,128.119141 L77.25,128.119141 L77.25,128.646484 L76.359375,128.646484 L76.359375,124.814453 Z M75.8320312,132.783203 C75.8554689,133.189455 75.8828123,133.525389 75.9140625,133.791016 C74.92187,134.439456 74.1953148,134.958982 73.734375,135.349609 L73.1835938,134.564453 C73.4492201,134.345702 73.5820312,134.005862 73.5820312,133.544922 L73.5820312,129.162109 L72.1875,129.162109 L72.1875,128.318359 L74.484375,128.318359 L74.484375,133.720703 L75.2314457,133.210937 C75.4560545,133.054688 75.6562491,132.91211 75.8320312,132.783203 Z M81.890625,125.599609 L77.25,125.599609 L77.25,127.333984 L81.890625,127.333984 L81.890625,125.599609 Z M73.5585938,124.591797 C74.1210966,125.162112 74.6796847,125.767575 75.234375,126.408203 L74.4257812,127.087891 C73.9101537,126.431637 73.3828152,125.806644 72.84375,125.212891 L73.5585938,124.591797 Z M84.3632812,126.302734 L89.9882812,126.302734 L89.6223952,125.620441 C89.3975691,125.21072 89.2109382,124.891277 89.0625,124.662109 L89.9648438,124.240234 L90.2200521,124.646484 C90.414496,124.964192 90.6575506,125.375649 90.9492188,125.880859 L90.1054688,126.302734 L95.6132812,126.302734 L95.6132812,127.169922 L93.4511719,127.169922 C93.033201,129.400402 92.1347725,131.193353 90.7558594,132.548828 C91.7949271,133.306644 93.4453012,133.986325 95.7070312,134.587891 C95.3476545,134.994143 95.0742197,135.333983 94.8867188,135.607422 C92.6835827,134.845699 91.0566459,134.048832 90.0058594,133.216797 C88.9511666,134.037113 87.2656366,134.86523 84.9492188,135.701172 L84.6210942,135.267578 C84.5039069,135.115235 84.3789069,134.955079 84.2460938,134.787109 C86.4804799,134.115231 88.1621037,133.367192 89.2910156,132.542969 C87.8652272,131.019524 86.9589863,129.228526 86.5722656,127.169922 L84.3632812,127.169922 L84.3632812,126.302734 Z M92.4492188,127.169922 L87.5097656,127.169922 C87.8613299,129.091806 88.7011652,130.679681 90.0292969,131.933594 C91.2988345,130.7539 92.105467,129.166026 92.4492188,127.169922 Z M96.234375,131.201172 L101.730469,131.201172 L101.730469,130.462891 L104.039062,129.009766 L98.3671875,129.009766 L98.3671875,128.154297 L105.46875,128.154297 L105.46875,129.103516 L102.691406,130.884766 L102.691406,131.201172 L107.8125,131.201172 L107.8125,132.068359 L102.691406,132.068359 L102.691406,134.224609 C102.691406,135.216802 102.195317,135.712891 101.203125,135.712891 L100.467774,135.707031 C100.176759,135.703125 99.8398457,135.697266 99.4570312,135.689453 L99.3984376,135.206055 C99.3750001,135.032227 99.3476564,134.845704 99.3164062,134.646484 C99.9335968,134.732422 100.480466,134.775391 100.957031,134.775391 C101.472659,134.775391 101.730469,134.49805 101.730469,133.943359 L101.730469,132.068359 L96.234375,132.068359 L96.234375,131.201172 Z M96.6796875,126.033203 L102.070312,126.033203 C101.781249,125.623045 101.433596,125.173831 101.027344,124.685547 L101.8125,124.158203 C102.30469,124.697268 102.710936,125.197263 103.03125,125.658203 L102.474609,126.033203 L107.414062,126.033203 L107.414062,128.412109 L106.464844,128.412109 L106.464844,126.888672 L97.6171875,126.888672 L97.6171875,128.412109 L96.6796875,128.412109 L96.6796875,126.033203 Z" id="错误文字" fill="#333333" fill-rule="nonzero"></path>
            <path d="M56.1015625,155.606445 L61.0722656,155.606445 L61.0722656,160.323242 L60.3300781,160.323242 L60.3300781,159.756836 L56.84375,159.756836 L56.84375,160.323242 L56.1015625,160.323242 L56.1015625,155.606445 Z M55.4472656,154.112305 L56.8828125,154.112305 L56.8828125,152.803711 L55.7402344,152.803711 L55.7402344,152.139648 L56.8828125,152.139648 L56.8828125,150.733398 L57.625,150.733398 L57.625,152.139648 L59.4023438,152.139648 L59.4023438,150.733398 L60.1445312,150.733398 L60.1445312,152.139648 L61.5214844,152.139648 L61.5214844,152.803711 L60.1445312,152.803711 L60.1445312,154.112305 L61.8046875,154.112305 L61.8046875,154.776367 L55.4472656,154.776367 L55.4472656,154.112305 Z M55.2519531,157.676758 L55.3374024,158.07959 C55.3650716,158.20166 55.391927,158.311523 55.4179688,158.40918 L54.5952144,159.197754 C54.352702,159.433756 54.141928,159.642903 53.9628906,159.825195 L53.7628909,160.087695 C53.7399742,160.118424 53.7154949,160.151367 53.6894531,160.186523 L53.1523438,159.581055 C53.3346363,159.379231 53.4257812,159.08301 53.4257812,158.692383 L53.4257812,156.553711 L52.1757812,156.553711 L52.1757812,155.870117 L53.4257812,155.870117 L53.4257812,154.65918 L53.0058594,154.65918 L53.0058594,153.975586 L55.0957031,153.975586 L55.0957031,154.65918 L54.1386719,154.65918 L54.1386719,155.870117 L55.359375,155.870117 L55.359375,156.553711 L54.1386719,156.553711 L54.1386719,158.72168 C54.5488302,158.350584 54.9199202,158.00228 55.2519531,157.676758 Z M52.1171875,154.053711 C52.6770861,153.142248 53.0970038,152.022468 53.3769531,150.694336 L54.109375,150.850586 C53.9954421,151.316083 53.8668627,151.762042 53.7236328,152.188477 L55.3984375,152.188477 L55.3984375,152.87207 L53.4746094,152.87207 C53.2011705,153.578454 52.8821633,154.226234 52.5175781,154.81543 C52.3938796,154.568033 52.2604174,154.314129 52.1171875,154.053711 Z M56.84375,159.112305 L60.3300781,159.112305 L60.3300781,157.989258 L56.84375,157.989258 L56.84375,159.112305 Z M60.3300781,156.250977 L56.84375,156.250977 L56.84375,157.364258 L60.3300781,157.364258 L60.3300781,156.250977 Z M57.625,154.112305 L59.4023438,154.112305 L59.4023438,152.803711 L57.625,152.803711 L57.625,154.112305 Z M64.8417969,156.680664 L67.7910156,156.680664 C67.8365888,156.384439 67.8626302,156.000328 67.8691406,155.52832 L65.1933594,155.52832 L65.1933594,154.844727 L71.4824219,154.844727 L71.4824219,155.52832 L68.6308594,155.52832 C68.6210937,156.016604 68.5999351,156.400715 68.5673828,156.680664 L71.8242188,156.680664 L71.8242188,157.364258 L68.8066406,157.364258 C69.3860706,158.510097 70.430982,159.242511 71.9414062,159.561523 L71.6166991,159.95459 C71.5174155,160.07666 71.4270837,160.189778 71.3457031,160.293945 C69.8417894,159.85449 68.8017607,158.980475 68.2255859,157.671875 C67.7926411,158.840501 66.7428469,159.724281 65.0761719,160.323242 C64.9199211,160.121418 64.7441416,159.909832 64.5488281,159.688477 C66.16993,159.174151 67.1888,158.399419 67.6054688,157.364258 L64.8417969,157.364258 L64.8417969,156.680664 Z M65.6328125,151.133789 L70.984375,151.133789 L70.984375,154.327148 L70.2421875,154.327148 L70.2421875,153.887695 L66.375,153.887695 L66.375,154.327148 L65.6328125,154.327148 L65.6328125,151.133789 Z M65.1933594,157.774414 L65.2183594,158.152539 C65.2316406,158.327539 65.2460937,158.481445 65.2617188,158.614258 L64.7432952,158.958587 C64.1767278,159.341738 63.7440698,159.659902 63.4453125,159.913086 L62.9863281,159.258789 C63.2076834,159.076496 63.3183594,158.793296 63.3183594,158.40918 L63.3183594,154.756836 L62.15625,154.756836 L62.15625,154.053711 L64.0703125,154.053711 L64.0703125,158.555664 L64.6928714,158.130859 C64.8800454,158.000651 65.0468743,157.881836 65.1933594,157.774414 Z M70.2421875,151.788086 L66.375,151.788086 L66.375,153.233398 L70.2421875,153.233398 L70.2421875,151.788086 Z M63.2988281,150.948242 C63.7675805,151.423505 64.2330706,151.928057 64.6953125,152.461914 L64.0214844,153.02832 C63.5917947,152.481443 63.152346,151.960614 62.703125,151.46582 L63.2988281,150.948242 Z M76.0136719,151.124023 L80.8867188,151.124023 L80.8867188,154.981445 L80.1835938,154.981445 L80.1835938,154.698242 L76.7167969,154.698242 L76.7167969,154.981445 L76.0136719,154.981445 L76.0136719,151.124023 Z M74.4902344,159.874023 C75.4082077,159.10579 75.9225255,158.005541 76.0332031,156.573242 L76.765625,156.573242 C76.7330728,157.028974 76.6663417,157.455402 76.5654297,157.852539 C76.9788432,158.484053 77.5175748,158.910481 78.1816406,159.131836 L78.1816406,156.192383 L75.1640625,156.192383 L75.1640625,155.547852 L81.7460938,155.547852 L81.7460938,156.192383 L78.9140625,156.192383 L78.9140625,157.286133 L81.3652344,157.286133 L81.3652344,157.911133 L78.9140625,157.911133 L78.9140625,159.288086 L79.1199656,159.305968 C79.62853,159.338318 80.5429621,159.329102 81.8632812,159.27832 L81.6386719,160.000977 L81.6386719,160.000977 C81.0576143,160.015625 80.4600839,160.013794 79.8460705,159.995483 L79.2265625,159.97168 C77.9114518,159.955404 76.9446646,159.493169 76.3261719,158.584961 C76.052733,159.265303 75.6556016,159.847979 75.1347656,160.333008 C74.9394521,160.170247 74.7246105,160.017253 74.4902344,159.874023 Z M72.1269531,155.870117 C72.5436219,155.69108 72.9635396,155.50228 73.3867188,155.303711 L73.3867188,153.223633 L72.2050781,153.223633 L72.2050781,152.55957 L73.3867188,152.55957 L73.3867188,150.743164 L74.1289062,150.743164 L74.1289062,152.55957 L75.3789062,152.55957 L75.3789062,153.223633 L74.1289062,153.223633 L74.1289062,154.942383 C74.5032571,154.756835 74.8776023,154.561524 75.2519531,154.356445 C75.2714845,154.610353 75.2975259,154.870767 75.3300781,155.137695 L74.1289062,155.738281 L74.1289062,155.738281 L74.1289062,159.141602 C74.1289062,159.773115 73.8880232,160.114909 73.40625,160.166992 C73.0677066,160.199544 72.6868511,160.20931 72.2636719,160.196289 C72.2246092,159.92285 72.1822919,159.652671 72.1367188,159.385742 L72.5414067,159.423242 C72.73125,159.437305 72.902343,159.444336 73.0546875,159.444336 C73.2760428,159.444336 73.3867188,159.323894 73.3867188,159.083008 L73.3867188,156.119141 C72.9960918,156.320965 72.6087259,156.524413 72.2246094,156.729492 L72.1269531,155.870117 Z M76.7167969,154.073242 L80.1835938,154.073242 L80.1835938,153.213867 L76.7167969,153.213867 L76.7167969,154.073242 Z M80.1835938,151.749023 L76.7167969,151.749023 L76.7167969,152.598633 L80.1835938,152.598633 L80.1835938,151.749023 Z M82.15625,154.200195 L91.84375,154.200195 L91.84375,154.932617 L87.6542969,154.932617 L87.6542969,158.87793 C87.6542969,159.691736 87.2278688,160.101888 86.375,160.108398 L85.1828134,160.102148 C85.0746102,160.101107 84.9641933,160.099935 84.8515625,160.098633 L84.7856446,159.673828 C84.7612306,159.524089 84.7343751,159.366212 84.7050781,159.200195 C85.2194036,159.252279 85.7044248,159.27832 86.1601562,159.27832 C86.6028668,159.27832 86.8242188,159.060224 86.8242188,158.624023 L86.8242188,154.932617 L82.15625,154.932617 L82.15625,154.200195 Z M83.0546875,151.319336 L90.9746094,151.319336 L90.9746094,152.051758 L83.0546875,152.051758 L83.0546875,151.319336 Z M88.8945312,156.114258 L89.5488281,155.674805 C90.3496134,156.657883 91.1243452,157.683263 91.8730469,158.750977 L91.1601562,159.219727 L90.5644519,158.362791 C89.9785147,157.532713 89.4218776,156.783206 88.8945312,156.114258 Z M84.3144531,155.655273 L85.0273438,156.055664 C84.3437466,157.240566 83.6145872,158.366857 82.8398438,159.43457 C82.6380198,159.28483 82.4231782,159.131837 82.1953125,158.975586 C82.9244828,158.031571 83.630856,156.924811 84.3144531,155.655273 Z M92.3027344,152.374023 L96.9902344,152.374023 L96.7570795,151.937011 C96.5373529,151.531737 96.3579109,151.221681 96.21875,151.006836 L96.9707031,150.655273 L97.1833767,150.993815 C97.3454134,151.258571 97.5479589,151.601452 97.7910156,152.022461 L97.0878906,152.374023 L101.677734,152.374023 L101.677734,153.09668 L99.8759766,153.09668 C99.5276675,154.955413 98.7789771,156.449539 97.6298828,157.579102 C98.4957726,158.210615 99.8710843,158.777016 101.755859,159.27832 C101.456379,159.616864 101.228516,159.900064 101.072266,160.12793 C99.2363189,159.493161 97.8805382,158.829105 97.0048828,158.135742 C96.1259722,158.819339 94.7213638,159.509437 92.7910156,160.206055 L92.5175782,159.844727 C92.4199222,159.717774 92.3157558,159.584311 92.2050781,159.444336 C94.0670666,158.884437 95.4684198,158.261071 96.4091797,157.574219 C95.2210227,156.304681 94.4658219,154.812183 94.1435547,153.09668 L92.3027344,153.09668 L92.3027344,152.374023 Z M99.0410156,153.09668 L94.9248047,153.09668 C95.2177749,154.69825 95.9176377,156.021479 97.0244141,157.066406 C98.0823621,156.083328 98.7545559,154.760099 99.0410156,153.09668 Z M102.195312,156.456055 L106.775391,156.456055 L106.775391,155.84082 L108.699219,154.629883 L103.972656,154.629883 L103.972656,153.916992 L109.890625,153.916992 L109.890625,154.708008 L107.576172,156.192383 L107.576172,156.456055 L111.84375,156.456055 L111.84375,157.178711 L107.576172,157.178711 L107.576172,158.975586 C107.576172,159.802413 107.162765,160.21582 106.335938,160.21582 L105.897858,160.213074 C105.618623,160.210022 105.279624,160.204427 104.880859,160.196289 L104.832031,159.793457 C104.8125,159.648601 104.789714,159.493165 104.763672,159.327148 C105.277997,159.398763 105.733722,159.43457 106.130859,159.43457 C106.560549,159.43457 106.775391,159.203453 106.775391,158.741211 L106.775391,157.178711 L102.195312,157.178711 L102.195312,156.456055 Z M102.566406,152.149414 L107.058594,152.149414 C106.817707,151.807615 106.527996,151.43327 106.189453,151.026367 L106.84375,150.586914 C107.253908,151.036135 107.592447,151.452798 107.859375,151.836914 L107.395508,152.149414 L111.511719,152.149414 L111.511719,154.131836 L110.720703,154.131836 L110.720703,152.862305 L103.347656,152.862305 L103.347656,154.131836 L102.566406,154.131836 L102.566406,152.149414 Z" id="错误提示文字" fill="#FD6868" fill-rule="nonzero"></path>
            <rect id="矩形备份-4" stroke="#B8D7FF" fill="#EFF6FF" x="52.5" y="52.5" width="176" height="27" rx="2"></rect>
            <path d="M60.3632812,62.2441406 L65.9882812,62.2441406 L65.6223952,61.5618477 C65.3975691,61.1521258 65.2109382,60.8326834 65.0625,60.6035156 L65.9648438,60.1816406 L66.2200521,60.5878905 C66.414496,60.905598 66.6575506,61.3170548 66.9492188,61.8222656 L66.1054688,62.2441406 L71.6132812,62.2441406 L71.6132812,63.1113281 L69.4511719,63.1113281 C69.033201,65.341808 68.1347725,67.1347588 66.7558594,68.4902344 C67.7949271,69.2480507 69.4453012,69.9277314 71.7070312,70.5292969 C71.3476545,70.9355489 71.0742197,71.2753893 70.8867188,71.5488281 C68.6835827,70.7871056 67.0566459,69.9902385 66.0058594,69.1582031 C64.9511666,69.9785197 63.2656366,70.8066364 60.9492188,71.6425781 L60.6210942,71.2089845 C60.5039069,71.0566411 60.3789069,70.8964852 60.2460938,70.7285156 C62.4804799,70.0566373 64.1621037,69.3085979 65.2910156,68.484375 C63.8652272,66.9609299 62.9589863,65.1699322 62.5722656,63.1113281 L60.3632812,63.1113281 L60.3632812,62.2441406 Z M68.4492188,63.1113281 L63.5097656,63.1113281 C63.8613299,65.0332127 64.7011652,66.6210875 66.0292969,67.875 C67.2988345,66.6953066 68.105467,65.1074319 68.4492188,63.1113281 Z M83.7773438,68.6894531 L83.4257815,69.0468747 C83.2929693,69.1835931 83.1445321,69.3378898 82.9804688,69.5097656 C81.0898343,68.0527271 79.5820369,66.1855583 78.4570312,63.9082031 L78.4570312,68.5488281 L81.140625,68.5488281 L81.140625,69.3691406 L78.4570312,69.3691406 L78.4570312,71.7714844 L77.5429688,71.7714844 L77.5429688,69.3691406 L74.765625,69.3691406 L74.765625,68.5488281 L77.5429688,68.5488281 L77.5429688,63.9082031 C76.54687,65.892588 75.0195415,67.8066314 72.9609375,69.6503906 L72.6178121,69.3297653 C72.4575,69.182578 72.3140631,69.0550787 72.1875,68.9472656 C74.4101674,67.1230378 76.0722601,65.1933696 77.1738281,63.1582031 L72.4453125,63.1582031 L72.4453125,62.2910156 L77.5429688,62.2910156 L77.5429688,60.1816406 L78.4570312,60.1816406 L78.4570312,62.2910156 L83.5546875,62.2910156 L83.5546875,63.1582031 L78.7910156,63.1582031 C80.0332093,65.4941523 81.6953021,67.3378839 83.7773438,68.6894531 Z M85.171875,66.0410156 L86.2265625,66.0410156 L86.2265625,63.9082031 L87,63.9082031 L87,66.0410156 L88.125,66.0410156 L88.125,66.8144531 L87,66.8144531 L87,68.4199219 C87.4140646,68.3652341 87.8359354,68.3027347 88.265625,68.2324219 C88.2265623,68.5292984 88.1992188,68.7988269 88.1835938,69.0410156 L87,69.2050781 L87,69.2050781 L87,71.8183594 L86.2265625,71.8183594 L86.2265625,69.3222656 C85.5937468,69.4160161 84.9570345,69.5136714 84.3164062,69.6152344 L84.1875,68.7597656 C84.8593784,68.6894528 85.5390591,68.6113286 86.2265625,68.5253906 L86.2265625,66.8144531 L84.3515625,66.8144531 L84.3515625,66.0058594 C84.648439,65.1699177 84.9570296,64.1074283 85.2773438,62.8183594 L84.2460938,62.8183594 L84.2460938,62.0683594 L85.4648438,62.0683594 C85.5976569,61.5058566 85.7343743,60.9043001 85.875,60.2636719 L86.71875,60.4511719 L86.296875,62.0683594 L86.296875,62.0683594 L88.4179688,62.0683594 L88.4179688,62.8183594 L86.0976562,62.8183594 L85.846435,63.7316915 C85.6018062,64.6091328 85.3769542,65.3789029 85.171875,66.0410156 Z M89.2734375,71.7949219 L88.5234375,71.7949219 L88.5234375,64.8925781 L91.640625,64.8925781 L91.640625,70.6582031 C91.640625,71.3457066 91.3242219,71.6894531 90.6914062,71.6894531 L89.7773438,71.6777344 L89.7773438,71.6777344 L89.6132812,70.9511719 L89.6132812,70.9511719 C89.9257828,70.9746095 90.2109362,70.9863281 90.46875,70.9863281 C90.7500014,70.9863281 90.890625,70.8300797 90.890625,70.5175781 L90.890625,69.1582031 L89.2734375,69.1582031 L89.2734375,71.7949219 Z M92.6601562,60.3457031 L92.4609375,60.6035156 C93.3750046,61.9785225 94.5195244,62.9628877 95.8945312,63.5566406 C95.6289049,63.8691422 95.425782,64.1386707 95.2851562,64.3652344 C94.7539036,64.0683579 94.261721,63.7324237 93.8085938,63.3574219 L93.8085938,63.9433594 L89.7421875,63.9433594 L89.7421875,63.4277344 C89.2812477,63.8105488 88.8007837,64.1621078 88.3007812,64.4824219 C88.0664051,64.1777329 87.8593759,63.939454 87.6796875,63.7675781 C89.2343828,62.8613236 90.4882765,61.72071 91.4414062,60.3457031 L92.6601562,60.3457031 Z M94.40625,64.6816406 L95.203125,64.6816406 L95.203125,70.3886719 C95.203125,71.2558637 94.8359412,71.6933593 94.1015625,71.7011719 C93.703123,71.7089844 93.2460963,71.701172 92.7304688,71.6777344 C92.6914061,71.3886704 92.6367191,71.0957046 92.5664062,70.7988281 C93.0585962,70.8613284 93.480467,70.8925781 93.8320312,70.8925781 C94.2148457,70.8925781 94.40625,70.6894552 94.40625,70.2832031 L94.40625,64.6816406 Z M91.8867188,61.2128906 C91.3007783,61.9472693 90.6679721,62.6113252 89.9882812,63.2050781 L93.6210938,63.2050781 C92.9570279,62.6269502 92.3789087,61.9628944 91.8867188,61.2128906 Z M92.6132812,65.2441406 L93.3632812,65.2441406 L93.3632812,69.5097656 L92.6132812,69.5097656 L92.6132812,65.2441406 Z M89.2734375,68.5019531 L90.890625,68.5019531 L90.890625,67.3769531 L89.2734375,67.3769531 L89.2734375,68.5019531 Z M90.890625,65.6074219 L89.2734375,65.6074219 L89.2734375,66.7207031 L90.890625,66.7207031 L90.890625,65.6074219 Z M99.4335938,60.9199219 L100.207031,60.3691406 C101.082036,60.9082058 102.042964,62.2910045 103.089844,64.5175781 C104.550789,67.7129066 106.13671,69.6621059 107.847656,70.3652344 L107.027344,71.3964844 C105.387687,70.4231722 103.866441,68.4166813 102.463563,65.376955 L102.049479,64.4667971 C102.011285,64.384766 101.973307,64.3040369 101.935547,64.2246094 C101.029292,67.3300937 99.3437623,69.744132 96.8789062,71.4667969 C96.6679677,71.1542953 96.4296888,70.8613295 96.1640625,70.5878906 C98.6992314,68.9902264 100.406246,66.4629079 101.285156,63.0058594 C100.671872,61.9824168 100.054691,61.2871112 99.4335938,60.9199219 Z M112.640625,60.9316406 L119.554688,60.9316406 L119.554688,61.7753906 L113.519531,61.7753906 L113.519531,70.4238281 L119.71875,70.4238281 L119.71875,71.2675781 L112.640625,71.2675781 L112.640625,60.9316406 Z M108.164062,67.5644531 C108.988285,66.2597591 109.57617,64.8457107 109.927734,63.3222656 L108.246094,63.3222656 L108.246094,62.5019531 L109.933594,62.5019531 L109.933594,60.2167969 L110.800781,60.2167969 L110.800781,62.5019531 L112.265625,62.5019531 L112.265625,63.3222656 L110.800781,63.3222656 L110.800781,65.1914062 L111.316406,64.7167969 L111.621572,65.0372691 C111.890226,65.3258527 112.194753,65.6682458 112.535156,66.0644531 L111.890625,66.6621094 C111.570311,66.2324197 111.207033,65.7832055 110.800781,65.3144531 L110.800781,71.7714844 L109.933594,71.7714844 L109.933594,65.4960938 C109.531248,66.8086003 109.066409,67.8417931 108.539062,68.5957031 C108.437499,68.2597639 108.312501,67.9160174 108.164062,67.5644531 Z M113.917969,68.1738281 L116.296875,68.1738281 L116.296875,66.3691406 L114.421875,66.3691406 L114.421875,65.5722656 L116.296875,65.5722656 L116.296875,63.8847656 L114.210938,63.8847656 L114.210938,63.0878906 L119.296875,63.0878906 L119.296875,63.8847656 L117.164062,63.8847656 L117.164062,65.5722656 L119.039062,65.5722656 L119.039062,66.3691406 L117.164062,66.3691406 L117.164062,68.1738281 L119.542969,68.1738281 L119.542969,68.9707031 L113.917969,68.9707031 L113.917969,68.1738281 Z" id="文本输入框" fill="#333333" fill-rule="nonzero"></path>
            <rect id="矩形备份-4" stroke="#E7EAED" fill="#F8F8F8" x="52.5" y="84.5" width="176" height="27" rx="2"></rect>
            <g id="编组-51备份" transform="translate(164.000000, 90.000000)">
                <g id="路径-5" transform="translate(9.492186, 8.002138) rotate(4.000000) translate(-9.492186, -8.002138) ">
                    <use fill="black" fill-opacity="1" filter="url(#filter-2)" xlink:href="#path-1"></use>
                    <use stroke="#FFFFFF" stroke-width="1" fill="#000000" fill-rule="evenodd" xlink:href="#path-1"></use>
                </g>
                <g id="椭圆形" fill-rule="nonzero" transform="translate(14.416558, 21.625365) rotate(-45.000000) translate(-14.416558, -21.625365) ">
                    <use fill="black" fill-opacity="1" filter="url(#filter-5)" xlink:href="#path-4"></use>
                    <use fill="url(#linearGradient-3)" xlink:href="#path-4"></use>
                </g>
            </g>
            <path d="M60.3632812,94.2441406 L65.9882812,94.2441406 L65.6223952,93.5618477 C65.3975691,93.1521258 65.2109382,92.8326834 65.0625,92.6035156 L65.9648438,92.1816406 L66.2200521,92.5878905 C66.414496,92.905598 66.6575506,93.3170548 66.9492188,93.8222656 L66.1054688,94.2441406 L71.6132812,94.2441406 L71.6132812,95.1113281 L69.4511719,95.1113281 C69.033201,97.341808 68.1347725,99.1347588 66.7558594,100.490234 C67.7949271,101.248051 69.4453012,101.927731 71.7070312,102.529297 C71.3476545,102.935549 71.0742197,103.275389 70.8867188,103.548828 C68.6835827,102.787106 67.0566459,101.990239 66.0058594,101.158203 C64.9511666,101.97852 63.2656366,102.806636 60.9492188,103.642578 L60.6210942,103.208984 C60.5039069,103.056641 60.3789069,102.896485 60.2460938,102.728516 C62.4804799,102.056637 64.1621037,101.308598 65.2910156,100.484375 C63.8652272,98.9609299 62.9589863,97.1699322 62.5722656,95.1113281 L60.3632812,95.1113281 L60.3632812,94.2441406 Z M68.4492188,95.1113281 L63.5097656,95.1113281 C63.8613299,97.0332127 64.7011652,98.6210875 66.0292969,99.875 C67.2988345,98.6953066 68.105467,97.1074319 68.4492188,95.1113281 Z M83.7773438,100.689453 L83.4257815,101.046875 C83.2929693,101.183593 83.1445321,101.33789 82.9804688,101.509766 C81.0898343,100.052727 79.5820369,98.1855583 78.4570312,95.9082031 L78.4570312,100.548828 L81.140625,100.548828 L81.140625,101.369141 L78.4570312,101.369141 L78.4570312,103.771484 L77.5429688,103.771484 L77.5429688,101.369141 L74.765625,101.369141 L74.765625,100.548828 L77.5429688,100.548828 L77.5429688,95.9082031 C76.54687,97.892588 75.0195415,99.8066314 72.9609375,101.650391 L72.6178121,101.329765 C72.4575,101.182578 72.3140631,101.055079 72.1875,100.947266 C74.4101674,99.1230378 76.0722601,97.1933696 77.1738281,95.1582031 L72.4453125,95.1582031 L72.4453125,94.2910156 L77.5429688,94.2910156 L77.5429688,92.1816406 L78.4570312,92.1816406 L78.4570312,94.2910156 L83.5546875,94.2910156 L83.5546875,95.1582031 L78.7910156,95.1582031 C80.0332093,97.4941523 81.6953021,99.3378839 83.7773438,100.689453 Z M85.171875,98.0410156 L86.2265625,98.0410156 L86.2265625,95.9082031 L87,95.9082031 L87,98.0410156 L88.125,98.0410156 L88.125,98.8144531 L87,98.8144531 L87,100.419922 C87.4140646,100.365234 87.8359354,100.302735 88.265625,100.232422 C88.2265623,100.529298 88.1992188,100.798827 88.1835938,101.041016 L87,101.205078 L87,101.205078 L87,103.818359 L86.2265625,103.818359 L86.2265625,101.322266 C85.5937468,101.416016 84.9570345,101.513671 84.3164062,101.615234 L84.1875,100.759766 C84.8593784,100.689453 85.5390591,100.611329 86.2265625,100.525391 L86.2265625,98.8144531 L84.3515625,98.8144531 L84.3515625,98.0058594 C84.648439,97.1699177 84.9570296,96.1074283 85.2773438,94.8183594 L84.2460938,94.8183594 L84.2460938,94.0683594 L85.4648438,94.0683594 C85.5976569,93.5058566 85.7343743,92.9043001 85.875,92.2636719 L86.71875,92.4511719 L86.296875,94.0683594 L86.296875,94.0683594 L88.4179688,94.0683594 L88.4179688,94.8183594 L86.0976562,94.8183594 L85.846435,95.7316915 C85.6018062,96.6091328 85.3769542,97.3789029 85.171875,98.0410156 Z M89.2734375,103.794922 L88.5234375,103.794922 L88.5234375,96.8925781 L91.640625,96.8925781 L91.640625,102.658203 C91.640625,103.345707 91.3242219,103.689453 90.6914062,103.689453 L89.7773438,103.677734 L89.7773438,103.677734 L89.6132812,102.951172 L89.6132812,102.951172 C89.9257828,102.974609 90.2109362,102.986328 90.46875,102.986328 C90.7500014,102.986328 90.890625,102.83008 90.890625,102.517578 L90.890625,101.158203 L89.2734375,101.158203 L89.2734375,103.794922 Z M92.6601562,92.3457031 L92.4609375,92.6035156 C93.3750046,93.9785225 94.5195244,94.9628877 95.8945312,95.5566406 C95.6289049,95.8691422 95.425782,96.1386707 95.2851562,96.3652344 C94.7539036,96.0683579 94.261721,95.7324237 93.8085938,95.3574219 L93.8085938,95.9433594 L89.7421875,95.9433594 L89.7421875,95.4277344 C89.2812477,95.8105488 88.8007837,96.1621078 88.3007812,96.4824219 C88.0664051,96.1777329 87.8593759,95.939454 87.6796875,95.7675781 C89.2343828,94.8613236 90.4882765,93.72071 91.4414062,92.3457031 L92.6601562,92.3457031 Z M94.40625,96.6816406 L95.203125,96.6816406 L95.203125,102.388672 C95.203125,103.255864 94.8359412,103.693359 94.1015625,103.701172 C93.703123,103.708984 93.2460963,103.701172 92.7304688,103.677734 C92.6914061,103.38867 92.6367191,103.095705 92.5664062,102.798828 C93.0585962,102.861328 93.480467,102.892578 93.8320312,102.892578 C94.2148457,102.892578 94.40625,102.689455 94.40625,102.283203 L94.40625,96.6816406 Z M91.8867188,93.2128906 C91.3007783,93.9472693 90.6679721,94.6113252 89.9882812,95.2050781 L93.6210938,95.2050781 C92.9570279,94.6269502 92.3789087,93.9628944 91.8867188,93.2128906 Z M92.6132812,97.2441406 L93.3632812,97.2441406 L93.3632812,101.509766 L92.6132812,101.509766 L92.6132812,97.2441406 Z M89.2734375,100.501953 L90.890625,100.501953 L90.890625,99.3769531 L89.2734375,99.3769531 L89.2734375,100.501953 Z M90.890625,97.6074219 L89.2734375,97.6074219 L89.2734375,98.7207031 L90.890625,98.7207031 L90.890625,97.6074219 Z M99.4335938,92.9199219 L100.207031,92.3691406 C101.082036,92.9082058 102.042964,94.2910045 103.089844,96.5175781 C104.550789,99.7129066 106.13671,101.662106 107.847656,102.365234 L107.027344,103.396484 C105.387687,102.423172 103.866441,100.416681 102.463563,97.376955 L102.049479,96.4667971 C102.011285,96.384766 101.973307,96.3040369 101.935547,96.2246094 C101.029292,99.3300937 99.3437623,101.744132 96.8789062,103.466797 C96.6679677,103.154295 96.4296888,102.861329 96.1640625,102.587891 C98.6992314,100.990226 100.406246,98.4629079 101.285156,95.0058594 C100.671872,93.9824168 100.054691,93.2871112 99.4335938,92.9199219 Z M112.640625,92.9316406 L119.554688,92.9316406 L119.554688,93.7753906 L113.519531,93.7753906 L113.519531,102.423828 L119.71875,102.423828 L119.71875,103.267578 L112.640625,103.267578 L112.640625,92.9316406 Z M108.164062,99.5644531 C108.988285,98.2597591 109.57617,96.8457107 109.927734,95.3222656 L108.246094,95.3222656 L108.246094,94.5019531 L109.933594,94.5019531 L109.933594,92.2167969 L110.800781,92.2167969 L110.800781,94.5019531 L112.265625,94.5019531 L112.265625,95.3222656 L110.800781,95.3222656 L110.800781,97.1914062 L111.316406,96.7167969 L111.621572,97.0372691 C111.890226,97.3258527 112.194753,97.6682458 112.535156,98.0644531 L111.890625,98.6621094 C111.570311,98.2324197 111.207033,97.7832055 110.800781,97.3144531 L110.800781,103.771484 L109.933594,103.771484 L109.933594,97.4960938 C109.531248,98.8086003 109.066409,99.8417931 108.539062,100.595703 C108.437499,100.259764 108.312501,99.9160174 108.164062,99.5644531 Z M113.917969,100.173828 L116.296875,100.173828 L116.296875,98.3691406 L114.421875,98.3691406 L114.421875,97.5722656 L116.296875,97.5722656 L116.296875,95.8847656 L114.210938,95.8847656 L114.210938,95.0878906 L119.296875,95.0878906 L119.296875,95.8847656 L117.164062,95.8847656 L117.164062,97.5722656 L119.039062,97.5722656 L119.039062,98.3691406 L117.164062,98.3691406 L117.164062,100.173828 L119.542969,100.173828 L119.542969,100.970703 L113.917969,100.970703 L113.917969,100.173828 Z" id="文本输入框" fill="#AAADBA" fill-rule="nonzero" opacity="0.5"></path>
            <text id="样式一" font-family="MicrosoftYaHei, Microsoft YaHei" font-size="12" font-weight="normal" line-spacing="22" fill="#525A6E">
                <tspan x="8" y="35">样式一</tspan>
            </text>
        </g>
    </g>
</svg>