<?xml version="1.0" encoding="UTF-8"?>
<svg width="241px" height="92px" viewBox="0 0 241 92" version="1.1" xmlns="http://www.w3.org/2000/svg" xmlns:xlink="http://www.w3.org/1999/xlink">
    <!-- Generator: Sketch 58 (84663) - https://sketch.com -->
    <title>Btn-style4</title>
    <desc>Created with Sketch.</desc>
    <g id="页面-1" stroke="none" stroke-width="1" fill="none" fill-rule="evenodd">
        <g id="Btn-style4">
            <rect id="矩形" fill="#B9B9B9" opacity="0.01" x="0" y="0" width="241" height="92"></rect>
            <g id="Group备份-7" transform="translate(55.000000, 12.000000)">
                <rect id="Rectangle" fill-opacity="0.01" fill="#F1F1F1" x="0" y="0" width="56" height="28" rx="2"></rect>
                <path d="M30.7382812,9.23046875 C32.3554768,9.21484367 33.8476494,9.05468902 35.2148438,8.75 L35.5195312,9.65234375 C33.9726485,9.85546977 32.6562554,9.98828094 31.5703125,10.0507812 L31.5703125,12.78125 L35.8476562,12.78125 L35.8476562,13.578125 L34.171875,13.578125 L34.171875,19.71875 L33.3046875,19.71875 L33.3046875,13.578125 L31.5703125,13.578125 L31.5703125,14.1523438 C31.5703125,16.5507932 30.9960995,18.4179621 29.8476562,19.7539062 C29.6601553,19.5117175 29.4531261,19.26172 29.2265625,19.0039062 C30.23438,17.9023382 30.7382812,16.2734483 30.7382812,14.1171875 L30.7382812,9.23046875 Z M24.4921875,14.4921875 L26.8828125,14.4921875 L26.8828125,13.3789062 L27.7265625,13.3789062 L27.7265625,14.4921875 L30.0234375,14.4921875 L30.0234375,15.2421875 L27.7265625,15.2421875 L27.7265625,18.3007812 C27.7265625,19.1289104 27.328129,19.5429688 26.53125,19.5429688 L25.9951173,19.5400391 C25.8056647,19.538086 25.6054698,19.5351563 25.3945312,19.53125 L25.3388672,19.1152345 C25.3173829,18.9667974 25.2929689,18.8085946 25.265625,18.640625 L25.6861986,18.6796876 C25.9448789,18.7005209 26.1601554,18.7109375 26.3320312,18.7109375 C26.6992206,18.7109375 26.8828125,18.5117207 26.8828125,18.1132812 L26.8828125,15.2421875 L24.4921875,15.2421875 L24.4921875,14.4921875 Z M24.1640625,12.3007812 L26.0507812,12.3007812 C25.7187483,11.7734349 25.4062515,11.3203144 25.1132812,10.9414062 L25.7460938,10.4960938 L25.9852521,10.79552 C26.1996969,11.0713485 26.4520075,11.4129444 26.7421875,11.8203125 L26.0800781,12.3007812 L27.6269531,12.3007812 C28.0527365,11.6874969 28.4453107,11.0820342 28.8046875,10.484375 L29.6367188,10.953125 C29.2578106,11.4414087 28.8964861,11.8906229 28.5527344,12.3007812 L30.328125,12.3007812 L30.328125,13.0507812 L24.1640625,13.0507812 L24.1640625,12.3007812 Z M24.5390625,9.58203125 L27.0703125,9.58203125 L26.8007813,9.08105479 C26.7050785,8.9072271 26.6035162,8.72656344 26.4960938,8.5390625 L27.2460938,8.1875 C27.4882825,8.58593949 27.7148427,8.98827922 27.9257812,9.39453125 L27.5332031,9.58203125 L30.0234375,9.58203125 L30.0234375,10.3320312 L24.5390625,10.3320312 L24.5390625,9.58203125 Z M25.3945312,15.7695312 L26.1914062,16.1445312 C25.7695291,17.0273482 25.3515646,17.8242152 24.9375,18.5351562 C24.7109364,18.3945305 24.4531264,18.253907 24.1640625,18.1132812 C24.5468769,17.5195283 24.9570291,16.7382861 25.3945312,15.7695312 Z M28.7695312,15.828125 C29.2070334,16.421878 29.5898421,16.9687475 29.9179688,17.46875 L29.1679688,17.984375 C28.824217,17.3828095 28.4609394,16.8164089 28.078125,16.2851562 L28.7695312,15.828125 Z M37.125,14.3515625 C37.3593762,15.3046923 37.6874979,16.0878876 38.109375,16.7011719 C38.5273458,15.8417926 38.789062,14.8515681 38.8945312,13.7304688 L36.5507812,13.7304688 L36.5507812,12.875 L38.7070312,10.2148438 L36.3164062,10.2148438 L36.3164062,9.41796875 L39.7851562,9.41796875 L39.7851562,10.2148438 L37.5820312,12.9335938 L39.7734375,12.9335938 L39.7734375,13.625 C39.6289055,15.074226 39.2753934,16.3300728 38.7128906,17.3925781 C39.5112345,18.0847203 40.7232669,18.4558491 42.3490205,18.5059739 L42.6796875,18.5117188 C44.1640699,18.5429689 45.8867089,18.5234379 47.8476562,18.453125 L47.4609375,19.3789062 L47.4609375,19.3789062 L42.2695312,19.3554688 L42.2695312,19.3554688 C40.527335,19.3554688 39.1914109,18.9492228 38.2617188,18.1367188 C37.8203103,18.777347 37.2851594,19.3359351 36.65625,19.8125 C36.5312494,19.5859364 36.3710947,19.3320327 36.1757812,19.0507812 C36.7617217,18.6054665 37.2539043,18.0859405 37.6523438,17.4921875 C37.1289036,16.8281217 36.6953142,15.8789124 36.3515625,14.6445312 L37.125,14.3515625 Z" id="新建" fill="#4F7DE7" fill-rule="nonzero"></path>
                <path d="M43.7578125,8.26953125 L43.7578125,9.41796875 L46.4765625,9.41796875 L46.4765625,11.140625 L47.7070312,11.140625 L47.7070312,11.8671875 L46.4765625,11.8671875 L46.4765625,13.90625 L45.6328125,13.90625 L45.6328125,13.5898438 L43.7578125,13.5898438 L43.7578125,14.609375 L46.7109375,14.609375 L46.7109375,15.3125 L43.7578125,15.3125 L43.7578125,16.3320312 L47.25,16.3320312 L47.25,17.0351562 L43.7578125,17.0351562 L43.7578125,18.2421875 L42.890625,18.2421875 L42.890625,17.0351562 L39.890625,17.0351562 L39.890625,16.3320312 L42.890625,16.3320312 L42.890625,15.3125 L40.2890625,15.3125 L40.2890625,14.609375 L42.890625,14.609375 L42.890625,13.5898438 L40.453125,13.5898438 L40.453125,12.8867188 L42.890625,12.8867188 L42.890625,11.8671875 L39.84375,11.8671875 L39.84375,11.140625 L42.890625,11.140625 L42.890625,10.1210938 L40.453125,10.1210938 L40.453125,9.41796875 L42.890625,9.41796875 L42.890625,8.26953125 L43.7578125,8.26953125 Z M45.6328125,11.8671875 L43.7578125,11.8671875 L43.7578125,12.8867188 L45.6328125,12.8867188 L45.6328125,11.8671875 Z M45.6328125,10.1210938 L43.7578125,10.1210938 L43.7578125,11.140625 L45.6328125,11.140625 L45.6328125,10.1210938 Z" id="形状结合" fill="#4F7DE7" fill-rule="nonzero"></path>
                <g id="编组-9" transform="translate(8.000000, 8.000000)">
                    <rect id="矩形" fill="#D8D8D8" opacity="0.01" x="0" y="0" width="12" height="12"></rect>
                    <path d="M6,1 C6.27614237,1 6.5,1.22385763 6.5,1.5 L6.5,5.5 L10.5,5.5 C10.7761424,5.5 11,5.72385763 11,6 C11,6.27614237 10.7761424,6.5 10.5,6.5 L6.499,6.5 L6.5,10.5 C6.5,10.7761424 6.27614237,11 6,11 C5.72385763,11 5.5,10.7761424 5.5,10.5 L5.499,6.5 L1.5,6.5 C1.22385763,6.5 1,6.27614237 1,6 C1,5.72385763 1.22385763,5.5 1.5,5.5 L5.5,5.5 L5.5,1.5 C5.5,1.22385763 5.72385763,1 6,1 Z" id="矩形-3" fill="#4F7DE7"></path>
                </g>
            </g>
            <g id="Group备份-7" transform="translate(131.000000, 20.000000)" fill="#4F7DE7" fill-rule="nonzero">
                <path d="M0.57421875,1.6171875 L5.578125,1.6171875 L5.578125,0.36328125 L6.41015625,0.36328125 L6.41015625,1.6171875 L11.484375,1.6171875 L11.484375,2.40234375 L7.14257813,2.40234375 C8.3769593,3.34375471 9.93749057,4.0546851 11.8242188,4.53515625 L11.4067385,5.17456023 C11.3647463,5.24047814 11.3242189,5.30468719 11.2851562,5.3671875 C10.8632791,5.22265553 10.4570332,5.06640709 10.0664062,4.8984375 L10.0664062,9.984375 L9.17578125,9.984375 L9.17578125,9.45703125 L2.859375,9.45703125 L2.859375,9.99609375 L1.96875,9.99609375 L1.96875,4.95703125 C1.57031051,5.14062592 1.15234594,5.31640541 0.71484375,5.484375 C0.55078043,5.24218629 0.367188516,4.99218879 0.1640625,4.734375 C2.17969758,4.09765307 3.724604,3.32031709 4.79882812,2.40234375 L0.57421875,2.40234375 L0.57421875,1.6171875 Z M0.29296875,10.6171875 L11.7070312,10.6171875 L11.7070312,11.4609375 L0.29296875,11.4609375 L0.29296875,10.6171875 Z M5.578125,4.60546875 L5.578125,2.59570312 C4.67968301,3.46289496 3.51953836,4.23046541 2.09765625,4.8984375 L10.0605469,4.8984375 C8.61913342,4.28515318 7.40234871,3.52539516 6.41015625,2.61914062 L6.41015625,4.60546875 L5.578125,4.60546875 Z M2.859375,8.6484375 L9.17578125,8.6484375 L9.17578125,7.5703125 L2.859375,7.5703125 L2.859375,8.6484375 Z M9.17578125,5.70703125 L2.859375,5.70703125 L2.859375,6.7734375 L9.17578125,6.7734375 L9.17578125,5.70703125 Z M16.4648438,4.06640625 L20.7539062,4.06640625 L20.7539062,9.41015625 L17.3085938,9.41015625 L17.3085938,10.1015625 L16.4648438,10.1015625 L16.4648438,4.06640625 Z M15,4.20703125 C15.9687548,3.08202562 16.7773405,1.77735117 17.4257812,0.29296875 L18.3164062,0.6328125 C18.109374,1.05468961 17.9003917,1.45702934 17.6894531,1.83984375 L23.4023438,1.83984375 L23.2200718,8.14328997 C23.2016409,8.69506695 23.1842732,9.17985525 23.1679688,9.59765625 C23.1054684,11.0039133 22.4960995,11.7070312 21.3398438,11.7070312 C20.6289027,11.7070312 19.9921903,11.6875002 19.4296875,11.6484375 C19.3828123,11.3359359 19.3164067,10.9921894 19.2304688,10.6171875 C19.9257847,10.726563 20.5546847,10.78125 21.1171875,10.78125 C21.820316,10.78125 22.1992185,10.3281295 22.2539062,9.421875 L22.2993751,8.30859169 C22.3581252,6.7460925 22.4093748,4.87110469 22.453125,2.68359375 L17.203125,2.68359375 C16.7382789,3.44922258 16.257815,4.13280949 15.7617188,4.734375 C15.5742178,4.57812422 15.3203141,4.40234473 15,4.20703125 Z M15.8085938,9.140625 L15.8385938,9.5943755 C15.8545312,9.80437509 15.8718749,9.9890617 15.890625,10.1484375 L15.3757732,10.4893476 C14.6430113,10.9815357 14.0880701,11.3874274 13.7109375,11.7070312 L13.1601562,10.921875 C13.4257826,10.6953114 13.5585938,10.3593772 13.5585938,9.9140625 L13.5585938,5.26171875 L12.1875,5.26171875 L12.1875,4.41796875 L14.4609375,4.41796875 L14.4609375,10.078125 C14.9062522,9.78124852 15.3554665,9.46875164 15.8085938,9.140625 Z M19.9101562,8.61328125 L19.9101562,7.1015625 L17.3085938,7.1015625 L17.3085938,8.61328125 L19.9101562,8.61328125 Z M19.9101562,4.86328125 L17.3085938,4.86328125 L17.3085938,6.328125 L19.9101562,6.328125 L19.9101562,4.86328125 Z M12.6679688,1.18359375 L13.359375,0.5859375 L14.610352,1.88590538 C14.8512368,2.14035347 15.0514315,2.35546787 15.2109375,2.53125 L14.4140625,3.19921875 C13.9218725,2.55077801 13.3398471,1.87890973 12.6679688,1.18359375 Z" id="查询"></path>
            </g>
            <g id="Group备份-7" transform="translate(175.000000, 12.000000)">
                <rect id="Rectangle" fill-opacity="0.01" fill="#F1F1F1" x="0" y="0" width="56" height="28" rx="2"></rect>
                <path d="M16.2050781,18.59375 L21.5722656,18.59375 L21.5722656,17.7265625 L17.1191406,17.7265625 L17.1191406,17.0351562 L21.5722656,17.0351562 L21.5722656,16.0507812 L18.4082031,16.0507812 L18.4082031,16.4726562 L17.5878906,16.4726562 L17.5878906,12.0664062 L21.5722656,12.0664062 L21.5722656,11.2226562 L16.2988281,11.2226562 L16.2988281,10.4960938 L21.5722656,10.4960938 L21.5722656,9.57617188 L19.4072268,9.63623049 C18.6728536,9.65478513 17.925785,9.67187492 17.1660156,9.6875 C17.1191404,9.43749875 17.0644534,9.17187641 17.0019531,8.890625 L18.9196024,8.86230466 C22.0109695,8.80696621 24.5787658,8.71093818 26.6230469,8.57421875 L26.7636719,9.37109375 L25.066796,9.44796881 C24.204298,9.48499999 23.3207076,9.51992171 22.4160156,9.55273438 L22.4160156,10.4960938 L27.7363281,10.4960938 L27.7363281,11.2226562 L22.4160156,11.2226562 L22.4160156,12.0664062 L26.4355469,12.0664062 L26.4355469,16.4609375 L25.6152344,16.4609375 L25.6152344,16.0507812 L22.4160156,16.0507812 L22.4160156,17.0351562 L26.8808594,17.0351562 L26.8808594,17.7265625 L22.4160156,17.7265625 L22.4160156,18.59375 L27.7363281,18.59375 L27.7363281,19.3203125 L16.2050781,19.3203125 L16.2050781,18.59375 Z M22.4160156,15.3710938 L25.6152344,15.3710938 L25.6152344,14.3632812 L22.4160156,14.3632812 L22.4160156,15.3710938 Z M18.4082031,15.3710938 L21.5722656,15.3710938 L21.5722656,14.3632812 L18.4082031,14.3632812 L18.4082031,15.3710938 Z M25.6152344,12.7460938 L22.4160156,12.7460938 L22.4160156,13.7421875 L25.6152344,13.7421875 L25.6152344,12.7460938 Z M18.4082031,13.7421875 L21.5722656,13.7421875 L21.5722656,12.7460938 L18.4082031,12.7460938 L18.4082031,13.7421875 Z M28.1699219,18.7460938 L29.9160156,18.7460938 L29.9160156,13.3203125 L33.5019531,13.3203125 L33.5019531,12.5585938 L28.4511719,12.5585938 L28.4511719,11.9023438 L33.5019531,11.9023438 L33.5019531,11.28125 L34.3457031,11.28125 L34.3457031,11.9023438 L39.5253906,11.9023438 L39.5253906,12.5585938 L34.3457031,12.5585938 L34.3457031,13.3203125 L38.1777344,13.3203125 L38.1777344,18.7460938 L39.7949219,18.7460938 L39.7949219,19.4257812 L28.1699219,19.4257812 L28.1699219,18.7460938 Z M30.7363281,18.7460938 L37.3574219,18.7460938 L37.3574219,17.9960938 L30.7363281,17.9960938 L30.7363281,18.7460938 Z M30.7363281,17.3867188 L37.3574219,17.3867188 L37.3574219,16.6484375 L30.7363281,16.6484375 L30.7363281,17.3867188 Z M30.7363281,16.0390625 L37.3574219,16.0390625 L37.3574219,15.3007812 L30.7363281,15.3007812 L30.7363281,16.0390625 Z M37.3574219,13.953125 L30.7363281,13.953125 L30.7363281,14.6914062 L37.3574219,14.6914062 L37.3574219,13.953125 Z" id="重置" fill="#AAADBA" fill-rule="nonzero"></path>
                <path d="M38.7871094,8.7734375 L38.7871094,11.3867188 L37.9902344,11.3867188 L37.9902344,11.1171875 L29.9980469,11.1171875 L29.9980469,11.3867188 L29.1894531,11.3867188 L29.1894531,8.7734375 L38.7871094,8.7734375 Z M37.9902344,9.40625 L35.8339844,9.40625 L35.8339844,10.484375 L37.9902344,10.484375 L37.9902344,9.40625 Z M35.0605469,9.40625 L32.9160156,9.40625 L32.9160156,10.484375 L35.0605469,10.484375 L35.0605469,9.40625 Z M32.1425781,9.40625 L29.9980469,9.40625 L29.9980469,10.484375 L32.1425781,10.484375 L32.1425781,9.40625 Z" id="形状结合" fill="#AAADBA" fill-rule="nonzero"></path>
            </g>
            <g id="Group备份-7" opacity="0.5" transform="translate(55.000000, 48.000000)">
                <rect id="Rectangle" fill-opacity="0.01" fill="#F1F1F1" x="0" y="0" width="56" height="28" rx="2"></rect>
                <path d="M30.7382812,9.23046875 C32.3554768,9.21484367 33.8476494,9.05468902 35.2148438,8.75 L35.5195312,9.65234375 C33.9726485,9.85546977 32.6562554,9.98828094 31.5703125,10.0507812 L31.5703125,12.78125 L35.8476562,12.78125 L35.8476562,13.578125 L34.171875,13.578125 L34.171875,19.71875 L33.3046875,19.71875 L33.3046875,13.578125 L31.5703125,13.578125 L31.5703125,14.1523438 C31.5703125,16.5507932 30.9960995,18.4179621 29.8476562,19.7539062 C29.6601553,19.5117175 29.4531261,19.26172 29.2265625,19.0039062 C30.23438,17.9023382 30.7382812,16.2734483 30.7382812,14.1171875 L30.7382812,9.23046875 Z M24.4921875,14.4921875 L26.8828125,14.4921875 L26.8828125,13.3789062 L27.7265625,13.3789062 L27.7265625,14.4921875 L30.0234375,14.4921875 L30.0234375,15.2421875 L27.7265625,15.2421875 L27.7265625,18.3007812 C27.7265625,19.1289104 27.328129,19.5429688 26.53125,19.5429688 L25.9951173,19.5400391 C25.8056647,19.538086 25.6054698,19.5351563 25.3945312,19.53125 L25.3388672,19.1152345 C25.3173829,18.9667974 25.2929689,18.8085946 25.265625,18.640625 L25.6861986,18.6796876 C25.9448789,18.7005209 26.1601554,18.7109375 26.3320312,18.7109375 C26.6992206,18.7109375 26.8828125,18.5117207 26.8828125,18.1132812 L26.8828125,15.2421875 L24.4921875,15.2421875 L24.4921875,14.4921875 Z M24.1640625,12.3007812 L26.0507812,12.3007812 C25.7187483,11.7734349 25.4062515,11.3203144 25.1132812,10.9414062 L25.7460938,10.4960938 L25.9852521,10.79552 C26.1996969,11.0713485 26.4520075,11.4129444 26.7421875,11.8203125 L26.0800781,12.3007812 L27.6269531,12.3007812 C28.0527365,11.6874969 28.4453107,11.0820342 28.8046875,10.484375 L29.6367188,10.953125 C29.2578106,11.4414087 28.8964861,11.8906229 28.5527344,12.3007812 L30.328125,12.3007812 L30.328125,13.0507812 L24.1640625,13.0507812 L24.1640625,12.3007812 Z M24.5390625,9.58203125 L27.0703125,9.58203125 L26.8007813,9.08105479 C26.7050785,8.9072271 26.6035162,8.72656344 26.4960938,8.5390625 L27.2460938,8.1875 C27.4882825,8.58593949 27.7148427,8.98827922 27.9257812,9.39453125 L27.5332031,9.58203125 L30.0234375,9.58203125 L30.0234375,10.3320312 L24.5390625,10.3320312 L24.5390625,9.58203125 Z M25.3945312,15.7695312 L26.1914062,16.1445312 C25.7695291,17.0273482 25.3515646,17.8242152 24.9375,18.5351562 C24.7109364,18.3945305 24.4531264,18.253907 24.1640625,18.1132812 C24.5468769,17.5195283 24.9570291,16.7382861 25.3945312,15.7695312 Z M28.7695312,15.828125 C29.2070334,16.421878 29.5898421,16.9687475 29.9179688,17.46875 L29.1679688,17.984375 C28.824217,17.3828095 28.4609394,16.8164089 28.078125,16.2851562 L28.7695312,15.828125 Z M37.125,14.3515625 C37.3593762,15.3046923 37.6874979,16.0878876 38.109375,16.7011719 C38.5273458,15.8417926 38.789062,14.8515681 38.8945312,13.7304688 L36.5507812,13.7304688 L36.5507812,12.875 L38.7070312,10.2148438 L36.3164062,10.2148438 L36.3164062,9.41796875 L39.7851562,9.41796875 L39.7851562,10.2148438 L37.5820312,12.9335938 L39.7734375,12.9335938 L39.7734375,13.625 C39.6289055,15.074226 39.2753934,16.3300728 38.7128906,17.3925781 C39.5112345,18.0847203 40.7232669,18.4558491 42.3490205,18.5059739 L42.6796875,18.5117188 C44.1640699,18.5429689 45.8867089,18.5234379 47.8476562,18.453125 L47.4609375,19.3789062 L47.4609375,19.3789062 L42.2695312,19.3554688 L42.2695312,19.3554688 C40.527335,19.3554688 39.1914109,18.9492228 38.2617188,18.1367188 C37.8203103,18.777347 37.2851594,19.3359351 36.65625,19.8125 C36.5312494,19.5859364 36.3710947,19.3320327 36.1757812,19.0507812 C36.7617217,18.6054665 37.2539043,18.0859405 37.6523438,17.4921875 C37.1289036,16.8281217 36.6953142,15.8789124 36.3515625,14.6445312 L37.125,14.3515625 Z" id="新建" fill="#4F7DE7" fill-rule="nonzero"></path>
                <path d="M43.7578125,8.26953125 L43.7578125,9.41796875 L46.4765625,9.41796875 L46.4765625,11.140625 L47.7070312,11.140625 L47.7070312,11.8671875 L46.4765625,11.8671875 L46.4765625,13.90625 L45.6328125,13.90625 L45.6328125,13.5898438 L43.7578125,13.5898438 L43.7578125,14.609375 L46.7109375,14.609375 L46.7109375,15.3125 L43.7578125,15.3125 L43.7578125,16.3320312 L47.25,16.3320312 L47.25,17.0351562 L43.7578125,17.0351562 L43.7578125,18.2421875 L42.890625,18.2421875 L42.890625,17.0351562 L39.890625,17.0351562 L39.890625,16.3320312 L42.890625,16.3320312 L42.890625,15.3125 L40.2890625,15.3125 L40.2890625,14.609375 L42.890625,14.609375 L42.890625,13.5898438 L40.453125,13.5898438 L40.453125,12.8867188 L42.890625,12.8867188 L42.890625,11.8671875 L39.84375,11.8671875 L39.84375,11.140625 L42.890625,11.140625 L42.890625,10.1210938 L40.453125,10.1210938 L40.453125,9.41796875 L42.890625,9.41796875 L42.890625,8.26953125 L43.7578125,8.26953125 Z M45.6328125,11.8671875 L43.7578125,11.8671875 L43.7578125,12.8867188 L45.6328125,12.8867188 L45.6328125,11.8671875 Z M45.6328125,10.1210938 L43.7578125,10.1210938 L43.7578125,11.140625 L45.6328125,11.140625 L45.6328125,10.1210938 Z" id="形状结合" fill="#4F7DE7" fill-rule="nonzero"></path>
                <g id="编组-9" transform="translate(8.000000, 8.000000)">
                    <rect id="矩形" fill="#D8D8D8" opacity="0.01" x="0" y="0" width="12" height="12"></rect>
                    <path d="M6,1 C6.27614237,1 6.5,1.22385763 6.5,1.5 L6.5,5.5 L10.5,5.5 C10.7761424,5.5 11,5.72385763 11,6 C11,6.27614237 10.7761424,6.5 10.5,6.5 L6.499,6.5 L6.5,10.5 C6.5,10.7761424 6.27614237,11 6,11 C5.72385763,11 5.5,10.7761424 5.5,10.5 L5.499,6.5 L1.5,6.5 C1.22385763,6.5 1,6.27614237 1,6 C1,5.72385763 1.22385763,5.5 1.5,5.5 L5.5,5.5 L5.5,1.5 C5.5,1.22385763 5.72385763,1 6,1 Z" id="矩形-3" fill="#4F7DE7"></path>
                </g>
            </g>
            <g id="Group备份-7" opacity="0.5" transform="translate(131.000000, 56.000000)" fill="#4F7DE7" fill-rule="nonzero">
                <path d="M0.57421875,1.6171875 L5.578125,1.6171875 L5.578125,0.36328125 L6.41015625,0.36328125 L6.41015625,1.6171875 L11.484375,1.6171875 L11.484375,2.40234375 L7.14257813,2.40234375 C8.3769593,3.34375471 9.93749057,4.0546851 11.8242188,4.53515625 L11.4067385,5.17456023 C11.3647463,5.24047814 11.3242189,5.30468719 11.2851562,5.3671875 C10.8632791,5.22265553 10.4570332,5.06640709 10.0664062,4.8984375 L10.0664062,9.984375 L9.17578125,9.984375 L9.17578125,9.45703125 L2.859375,9.45703125 L2.859375,9.99609375 L1.96875,9.99609375 L1.96875,4.95703125 C1.57031051,5.14062592 1.15234594,5.31640541 0.71484375,5.484375 C0.55078043,5.24218629 0.367188516,4.99218879 0.1640625,4.734375 C2.17969758,4.09765307 3.724604,3.32031709 4.79882812,2.40234375 L0.57421875,2.40234375 L0.57421875,1.6171875 Z M0.29296875,10.6171875 L11.7070312,10.6171875 L11.7070312,11.4609375 L0.29296875,11.4609375 L0.29296875,10.6171875 Z M5.578125,4.60546875 L5.578125,2.59570312 C4.67968301,3.46289496 3.51953836,4.23046541 2.09765625,4.8984375 L10.0605469,4.8984375 C8.61913342,4.28515318 7.40234871,3.52539516 6.41015625,2.61914062 L6.41015625,4.60546875 L5.578125,4.60546875 Z M2.859375,8.6484375 L9.17578125,8.6484375 L9.17578125,7.5703125 L2.859375,7.5703125 L2.859375,8.6484375 Z M9.17578125,5.70703125 L2.859375,5.70703125 L2.859375,6.7734375 L9.17578125,6.7734375 L9.17578125,5.70703125 Z M16.4648438,4.06640625 L20.7539062,4.06640625 L20.7539062,9.41015625 L17.3085938,9.41015625 L17.3085938,10.1015625 L16.4648438,10.1015625 L16.4648438,4.06640625 Z M15,4.20703125 C15.9687548,3.08202562 16.7773405,1.77735117 17.4257812,0.29296875 L18.3164062,0.6328125 C18.109374,1.05468961 17.9003917,1.45702934 17.6894531,1.83984375 L23.4023438,1.83984375 L23.2200718,8.14328997 C23.2016409,8.69506695 23.1842732,9.17985525 23.1679688,9.59765625 C23.1054684,11.0039133 22.4960995,11.7070312 21.3398438,11.7070312 C20.6289027,11.7070312 19.9921903,11.6875002 19.4296875,11.6484375 C19.3828123,11.3359359 19.3164067,10.9921894 19.2304688,10.6171875 C19.9257847,10.726563 20.5546847,10.78125 21.1171875,10.78125 C21.820316,10.78125 22.1992185,10.3281295 22.2539062,9.421875 L22.2993751,8.30859169 C22.3581252,6.7460925 22.4093748,4.87110469 22.453125,2.68359375 L17.203125,2.68359375 C16.7382789,3.44922258 16.257815,4.13280949 15.7617188,4.734375 C15.5742178,4.57812422 15.3203141,4.40234473 15,4.20703125 Z M15.8085938,9.140625 L15.8385938,9.5943755 C15.8545312,9.80437509 15.8718749,9.9890617 15.890625,10.1484375 L15.3757732,10.4893476 C14.6430113,10.9815357 14.0880701,11.3874274 13.7109375,11.7070312 L13.1601562,10.921875 C13.4257826,10.6953114 13.5585938,10.3593772 13.5585938,9.9140625 L13.5585938,5.26171875 L12.1875,5.26171875 L12.1875,4.41796875 L14.4609375,4.41796875 L14.4609375,10.078125 C14.9062522,9.78124852 15.3554665,9.46875164 15.8085938,9.140625 Z M19.9101562,8.61328125 L19.9101562,7.1015625 L17.3085938,7.1015625 L17.3085938,8.61328125 L19.9101562,8.61328125 Z M19.9101562,4.86328125 L17.3085938,4.86328125 L17.3085938,6.328125 L19.9101562,6.328125 L19.9101562,4.86328125 Z M12.6679688,1.18359375 L13.359375,0.5859375 L14.610352,1.88590538 C14.8512368,2.14035347 15.0514315,2.35546787 15.2109375,2.53125 L14.4140625,3.19921875 C13.9218725,2.55077801 13.3398471,1.87890973 12.6679688,1.18359375 Z" id="查询"></path>
            </g>
            <g id="Group备份-7" opacity="0.5" transform="translate(175.000000, 48.000000)">
                <rect id="Rectangle" fill-opacity="0.01" fill="#F1F1F1" x="0" y="0" width="56" height="28" rx="2"></rect>
                <path d="M16.2050781,18.59375 L21.5722656,18.59375 L21.5722656,17.7265625 L17.1191406,17.7265625 L17.1191406,17.0351562 L21.5722656,17.0351562 L21.5722656,16.0507812 L18.4082031,16.0507812 L18.4082031,16.4726562 L17.5878906,16.4726562 L17.5878906,12.0664062 L21.5722656,12.0664062 L21.5722656,11.2226562 L16.2988281,11.2226562 L16.2988281,10.4960938 L21.5722656,10.4960938 L21.5722656,9.57617188 L19.4072268,9.63623049 C18.6728536,9.65478513 17.925785,9.67187492 17.1660156,9.6875 C17.1191404,9.43749875 17.0644534,9.17187641 17.0019531,8.890625 L18.9196024,8.86230466 C22.0109695,8.80696621 24.5787658,8.71093818 26.6230469,8.57421875 L26.7636719,9.37109375 L25.066796,9.44796881 C24.204298,9.48499999 23.3207076,9.51992171 22.4160156,9.55273438 L22.4160156,10.4960938 L27.7363281,10.4960938 L27.7363281,11.2226562 L22.4160156,11.2226562 L22.4160156,12.0664062 L26.4355469,12.0664062 L26.4355469,16.4609375 L25.6152344,16.4609375 L25.6152344,16.0507812 L22.4160156,16.0507812 L22.4160156,17.0351562 L26.8808594,17.0351562 L26.8808594,17.7265625 L22.4160156,17.7265625 L22.4160156,18.59375 L27.7363281,18.59375 L27.7363281,19.3203125 L16.2050781,19.3203125 L16.2050781,18.59375 Z M22.4160156,15.3710938 L25.6152344,15.3710938 L25.6152344,14.3632812 L22.4160156,14.3632812 L22.4160156,15.3710938 Z M18.4082031,15.3710938 L21.5722656,15.3710938 L21.5722656,14.3632812 L18.4082031,14.3632812 L18.4082031,15.3710938 Z M25.6152344,12.7460938 L22.4160156,12.7460938 L22.4160156,13.7421875 L25.6152344,13.7421875 L25.6152344,12.7460938 Z M18.4082031,13.7421875 L21.5722656,13.7421875 L21.5722656,12.7460938 L18.4082031,12.7460938 L18.4082031,13.7421875 Z M28.1699219,18.7460938 L29.9160156,18.7460938 L29.9160156,13.3203125 L33.5019531,13.3203125 L33.5019531,12.5585938 L28.4511719,12.5585938 L28.4511719,11.9023438 L33.5019531,11.9023438 L33.5019531,11.28125 L34.3457031,11.28125 L34.3457031,11.9023438 L39.5253906,11.9023438 L39.5253906,12.5585938 L34.3457031,12.5585938 L34.3457031,13.3203125 L38.1777344,13.3203125 L38.1777344,18.7460938 L39.7949219,18.7460938 L39.7949219,19.4257812 L28.1699219,19.4257812 L28.1699219,18.7460938 Z M30.7363281,18.7460938 L37.3574219,18.7460938 L37.3574219,17.9960938 L30.7363281,17.9960938 L30.7363281,18.7460938 Z M30.7363281,17.3867188 L37.3574219,17.3867188 L37.3574219,16.6484375 L30.7363281,16.6484375 L30.7363281,17.3867188 Z M30.7363281,16.0390625 L37.3574219,16.0390625 L37.3574219,15.3007812 L30.7363281,15.3007812 L30.7363281,16.0390625 Z M37.3574219,13.953125 L30.7363281,13.953125 L30.7363281,14.6914062 L37.3574219,14.6914062 L37.3574219,13.953125 Z" id="重置" fill="#AAADBA" fill-rule="nonzero"></path>
                <path d="M38.7871094,8.7734375 L38.7871094,11.3867188 L37.9902344,11.3867188 L37.9902344,11.1171875 L29.9980469,11.1171875 L29.9980469,11.3867188 L29.1894531,11.3867188 L29.1894531,8.7734375 L38.7871094,8.7734375 Z M37.9902344,9.40625 L35.8339844,9.40625 L35.8339844,10.484375 L37.9902344,10.484375 L37.9902344,9.40625 Z M35.0605469,9.40625 L32.9160156,9.40625 L32.9160156,10.484375 L35.0605469,10.484375 L35.0605469,9.40625 Z M32.1425781,9.40625 L29.9980469,9.40625 L29.9980469,10.484375 L32.1425781,10.484375 L32.1425781,9.40625 Z" id="形状结合" fill="#AAADBA" fill-rule="nonzero"></path>
            </g>
            <text id="样式四" font-family="MicrosoftYaHei, Microsoft YaHei" font-size="12" font-weight="normal" line-spacing="22" fill="#525A6E">
                <tspan x="11" y="27">样式四</tspan>
            </text>
        </g>
    </g>
</svg>