<?xml version="1.0" encoding="UTF-8"?>
<svg width="494px" height="218px" viewBox="0 0 494 218" version="1.1" xmlns="http://www.w3.org/2000/svg" xmlns:xlink="http://www.w3.org/1999/xlink">
    <!-- Generator: Sketch 58 (84663) - https://sketch.com -->
    <title>list-single/style2</title>
    <desc>Created with Sketch.</desc>
    <g id="页面-1" stroke="none" stroke-width="1" fill="none" fill-rule="evenodd">
        <g id="list-single/style2">
            <g id="编组-20">
                <rect id="矩形备份" fill-opacity="0.01" fill="#FFFFFF" x="0" y="0" width="494" height="218"></rect>
                <g id="编组-3" transform="translate(64.000000, 20.000000)" fill="#333333" font-family="MicrosoftYaHei, Microsoft YaHei" font-size="14" font-weight="normal" line-spacing="22">
                    <text id="标题文案">
                        <tspan x="0" y="15">标题文案</tspan>
                    </text>
                </g>
                <path d="M66.1796875,69.3378906 L66.7539062,68.6816406 C67.3476592,69.1699243 67.8886694,69.6484352 68.3769531,70.1171875 C68.9003932,69.210933 69.2695302,68.2285209 69.484375,67.1699219 L66.8476562,67.1699219 C66.2343719,68.5761789 65.4804732,69.8417912 64.5859375,70.9667969 C64.4140616,70.5683574 64.2578132,70.2558605 64.1171875,70.0292969 C65.2968809,68.4433514 66.2050749,66.5879013 66.8417969,64.4628906 L64.5039062,64.4628906 L64.5039062,63.6191406 L71.078125,63.6191406 L71.078125,64.4628906 L67.8085938,64.4628906 C67.6249991,65.1074251 67.419923,65.7285126 67.1933594,66.3261719 L70.4453125,66.3261719 L70.4453125,67.1816406 C69.8046843,70.3847816 68.1211074,72.8574132 65.3945312,74.5996094 C65.1914052,74.3652332 64.9492202,74.1269543 64.6679688,73.8847656 C66.0039129,73.0214801 67.0742147,72.0234432 67.8789062,70.890625 C67.4335915,70.4531228 66.8671909,69.9355499 66.1796875,69.3378906 Z M74.1601562,63.1972656 L75.0976562,63.1972656 L75.0976562,72.8769531 C75.0976562,73.8691456 74.648442,74.3691406 73.75,74.3769531 L73.43287,74.3804254 C73.0271028,74.3824508 72.496097,74.3773872 71.8398438,74.3652344 C71.8007811,74.0058576 71.7382817,73.6542986 71.6523438,73.3105469 L72.3867201,73.3691408 C72.829428,73.4003908 73.1783841,73.4160156 73.4335938,73.4160156 C73.9179712,73.4160156 74.1601562,73.1542995 74.1601562,72.6308594 L74.1601562,63.1972656 Z M72.4726562,71.6699219 L71.5703125,71.6699219 L71.5703125,64.4980469 L72.4726562,64.4980469 L72.4726562,71.6699219 Z M86.3476562,69.4550781 L86.9921875,70.2636719 L84.3730469,71.5761719 C85.2910202,72.3261756 86.4413993,72.8222644 87.8242188,73.0644531 C87.5585924,73.4082048 87.3398446,73.7207017 87.1679688,74.0019531 C84.6484249,73.4003876 82.8418023,71.851575 81.7480469,69.3554688 C81.3496074,69.8632838 80.8945338,70.3457008 80.3828125,70.8027344 L80.3828125,73.3105469 C81.4140677,72.9746077 82.3710893,72.6230487 83.2539062,72.2558594 C83.2460937,72.5996111 83.2499999,72.9394531 83.265625,73.2753906 C82.3281203,73.5957047 81.35938,73.9472637 80.359375,74.3300781 C80.1484364,74.4160161 79.9414073,74.5175775 79.7382812,74.6347656 L79.1875,73.7792969 C79.4062511,73.6230461 79.515625,73.4042983 79.515625,73.1230469 L79.515625,71.5117188 C78.7070272,72.1171905 77.7890676,72.6660132 76.7617188,73.1582031 C76.5898429,72.8847643 76.3906261,72.6152357 76.1640625,72.3496094 C78.1836038,71.5214802 79.7695255,70.4121163 80.921875,69.0214844 L76.2929688,69.0214844 L76.2929688,68.2128906 L81.5429688,68.2128906 L81.5429688,67.0175781 L77.125,67.0175781 L77.125,66.2089844 L81.5429688,66.2089844 L81.5429688,65.0605469 L76.65625,65.0605469 L76.65625,64.2519531 L81.5429688,64.2519531 L81.5429688,62.9394531 L82.46875,62.9394531 L82.46875,64.2519531 L87.3789062,64.2519531 L87.3789062,65.0605469 L82.46875,65.0605469 L82.46875,66.2089844 L86.875,66.2089844 L86.875,67.0175781 L82.46875,67.0175781 L82.46875,68.2128906 L87.7070312,68.2128906 L87.7070312,69.0214844 L82.4980469,69.0214844 C82.8261735,69.7832069 83.2480443,70.4433566 83.7636719,71.0019531 C84.5488321,70.6113262 85.4101516,70.0957063 86.3476562,69.4550781 Z M88.3632812,65.0488281 L93.9882812,65.0488281 L93.6223952,64.3665352 C93.3975691,63.9568133 93.2109382,63.6373709 93.0625,63.4082031 L93.9648438,62.9863281 L94.2200521,63.392578 C94.414496,63.7102855 94.6575506,64.1217423 94.9492188,64.6269531 L94.1054688,65.0488281 L99.6132812,65.0488281 L99.6132812,65.9160156 L97.4511719,65.9160156 C97.033201,68.1464955 96.1347725,69.9394463 94.7558594,71.2949219 C95.7949271,72.0527382 97.4453012,72.7324189 99.7070312,73.3339844 C99.3476545,73.7402364 99.0742197,74.0800768 98.8867188,74.3535156 C96.6835827,73.5917931 95.0566459,72.794926 94.0058594,71.9628906 C92.9511666,72.7832072 91.2656366,73.6113239 88.9492188,74.4472656 L88.6210942,74.013672 C88.5039069,73.8613286 88.3789069,73.7011727 88.2460938,73.5332031 C90.4804799,72.8613248 92.1621037,72.1132854 93.2910156,71.2890625 C91.8652272,69.7656174 90.9589863,67.9746197 90.5722656,65.9160156 L88.3632812,65.9160156 L88.3632812,65.0488281 Z M96.4492188,65.9160156 L91.5097656,65.9160156 C91.8613299,67.8379002 92.7011652,69.425775 94.0292969,70.6796875 C95.2988345,69.4999941 96.105467,67.9121194 96.4492188,65.9160156 Z M100.785156,69.5839844 L101.62461,69.4824678 C103.10945,69.2920322 104.29642,69.0778257 105.185547,68.8398438 C104.248042,68.5898425 103.300786,68.3457043 102.34375,68.1074219 C102.664064,67.7636702 102.96875,67.4238298 103.257812,67.0878906 L100.46875,67.0878906 L100.46875,66.3144531 L103.890625,66.3144531 C104.187501,65.9394513 104.460936,65.5683612 104.710938,65.2011719 L105.660156,65.4707031 C105.449218,65.7519545 105.224611,66.0332017 104.986328,66.3144531 L111.53125,66.3144531 L111.53125,67.0878906 L109.011719,67.0878906 C108.640623,67.7480502 108.138675,68.2832011 107.505859,68.6933594 L108.813673,69.0392971 C109.451172,69.209453 110.06406,69.3753898 110.652344,69.5371094 L110.277344,70.3222656 C109.039056,69.9316387 107.779303,69.5585955 106.498047,69.203125 C105.310541,69.6718773 103.519543,70.0566391 101.125,70.3574219 C101.03125,70.1074206 100.917969,69.8496107 100.785156,69.5839844 Z M111.847656,73.3691406 C111.58203,73.6816422 111.35547,73.974608 111.167969,74.2480469 C109.105458,73.6308563 107.523443,72.8750045 106.421875,71.9804688 L106.421875,74.6230469 L105.578125,74.6230469 L105.578125,71.9980469 C104.394525,72.8339886 102.820322,73.5878873 100.855469,74.2597656 C100.675781,74.033202 100.44922,73.7675796 100.175781,73.4628906 C102.191416,72.9589819 103.787103,72.3378943 104.962891,71.5996094 L100.445312,71.5996094 L100.445312,70.8144531 L105.578125,70.8144531 L105.578125,69.8535156 L106.421875,69.8535156 L106.421875,70.8144531 L111.625,70.8144531 L111.625,71.5996094 L107.060547,71.5996094 C108.294928,72.4316448 109.890615,73.0214826 111.847656,73.3691406 Z M100.785156,64.1230469 L105.695312,64.1230469 C105.546874,63.8535143 105.375001,63.5761733 105.179688,63.2910156 L106.011719,62.9160156 C106.265626,63.3144551 106.505858,63.7167948 106.732422,64.1230469 L111.203125,64.1230469 L111.203125,65.8925781 L110.3125,65.8925781 L110.3125,64.8964844 L101.675781,64.8964844 L101.675781,65.8925781 L100.785156,65.8925781 L100.785156,64.1230469 Z M103.679688,67.7324219 L105.7583,68.2498776 C105.981932,68.3062741 106.203124,68.3623044 106.421875,68.4179688 C107.109378,68.1132797 107.646482,67.6699248 108.033203,67.0878906 L104.300781,67.0878906 C104.101562,67.3027354 103.894532,67.5175771 103.679688,67.7324219 Z M114.179688,69.3378906 L114.753906,68.6816406 C115.347659,69.1699243 115.888669,69.6484352 116.376953,70.1171875 C116.900393,69.210933 117.26953,68.2285209 117.484375,67.1699219 L114.847656,67.1699219 C114.234372,68.5761789 113.480473,69.8417912 112.585938,70.9667969 C112.414062,70.5683574 112.257813,70.2558605 112.117188,70.0292969 C113.296881,68.4433514 114.205075,66.5879013 114.841797,64.4628906 L112.503906,64.4628906 L112.503906,63.6191406 L119.078125,63.6191406 L119.078125,64.4628906 L115.808594,64.4628906 C115.624999,65.1074251 115.419923,65.7285126 115.193359,66.3261719 L118.445312,66.3261719 L118.445312,67.1816406 C117.804684,70.3847816 116.121107,72.8574132 113.394531,74.5996094 C113.191405,74.3652332 112.94922,74.1269543 112.667969,73.8847656 C114.003913,73.0214801 115.074215,72.0234432 115.878906,70.890625 C115.433592,70.4531228 114.867191,69.9355499 114.179688,69.3378906 Z M122.160156,63.1972656 L123.097656,63.1972656 L123.097656,72.8769531 C123.097656,73.8691456 122.648442,74.3691406 121.75,74.3769531 L121.43287,74.3804254 C121.027103,74.3824508 120.496097,74.3773872 119.839844,74.3652344 C119.800781,74.0058576 119.738282,73.6542986 119.652344,73.3105469 L120.38672,73.3691408 C120.829428,73.4003908 121.178384,73.4160156 121.433594,73.4160156 C121.917971,73.4160156 122.160156,73.1542995 122.160156,72.6308594 L122.160156,63.1972656 Z M120.472656,71.6699219 L119.570312,71.6699219 L119.570312,64.4980469 L120.472656,64.4980469 L120.472656,71.6699219 Z M134.347656,69.4550781 L134.992188,70.2636719 L132.373047,71.5761719 C133.29102,72.3261756 134.441399,72.8222644 135.824219,73.0644531 C135.558592,73.4082048 135.339845,73.7207017 135.167969,74.0019531 C132.648425,73.4003876 130.841802,71.851575 129.748047,69.3554688 C129.349607,69.8632838 128.894534,70.3457008 128.382812,70.8027344 L128.382812,73.3105469 C129.414068,72.9746077 130.371089,72.6230487 131.253906,72.2558594 C131.246094,72.5996111 131.25,72.9394531 131.265625,73.2753906 C130.32812,73.5957047 129.35938,73.9472637 128.359375,74.3300781 C128.148436,74.4160161 127.941407,74.5175775 127.738281,74.6347656 L127.1875,73.7792969 C127.406251,73.6230461 127.515625,73.4042983 127.515625,73.1230469 L127.515625,71.5117188 C126.707027,72.1171905 125.789068,72.6660132 124.761719,73.1582031 C124.589843,72.8847643 124.390626,72.6152357 124.164062,72.3496094 C126.183604,71.5214802 127.769525,70.4121163 128.921875,69.0214844 L124.292969,69.0214844 L124.292969,68.2128906 L129.542969,68.2128906 L129.542969,67.0175781 L125.125,67.0175781 L125.125,66.2089844 L129.542969,66.2089844 L129.542969,65.0605469 L124.65625,65.0605469 L124.65625,64.2519531 L129.542969,64.2519531 L129.542969,62.9394531 L130.46875,62.9394531 L130.46875,64.2519531 L135.378906,64.2519531 L135.378906,65.0605469 L130.46875,65.0605469 L130.46875,66.2089844 L134.875,66.2089844 L134.875,67.0175781 L130.46875,67.0175781 L130.46875,68.2128906 L135.707031,68.2128906 L135.707031,69.0214844 L130.498047,69.0214844 C130.826174,69.7832069 131.248044,70.4433566 131.763672,71.0019531 C132.548832,70.6113262 133.410152,70.0957063 134.347656,69.4550781 Z M136.363281,65.0488281 L141.988281,65.0488281 L141.622395,64.3665352 C141.397569,63.9568133 141.210938,63.6373709 141.0625,63.4082031 L141.964844,62.9863281 L142.220052,63.392578 C142.414496,63.7102855 142.657551,64.1217423 142.949219,64.6269531 L142.105469,65.0488281 L147.613281,65.0488281 L147.613281,65.9160156 L145.451172,65.9160156 C145.033201,68.1464955 144.134773,69.9394463 142.755859,71.2949219 C143.794927,72.0527382 145.445301,72.7324189 147.707031,73.3339844 C147.347654,73.7402364 147.07422,74.0800768 146.886719,74.3535156 C144.683583,73.5917931 143.056646,72.794926 142.005859,71.9628906 C140.951167,72.7832072 139.265637,73.6113239 136.949219,74.4472656 L136.621094,74.013672 C136.503907,73.8613286 136.378907,73.7011727 136.246094,73.5332031 C138.48048,72.8613248 140.162104,72.1132854 141.291016,71.2890625 C139.865227,69.7656174 138.958986,67.9746197 138.572266,65.9160156 L136.363281,65.9160156 L136.363281,65.0488281 Z M144.449219,65.9160156 L139.509766,65.9160156 C139.86133,67.8379002 140.701165,69.425775 142.029297,70.6796875 C143.298834,69.4999941 144.105467,67.9121194 144.449219,65.9160156 Z M148.785156,69.5839844 L149.62461,69.4824678 C151.10945,69.2920322 152.29642,69.0778257 153.185547,68.8398438 C152.248042,68.5898425 151.300786,68.3457043 150.34375,68.1074219 C150.664064,67.7636702 150.96875,67.4238298 151.257812,67.0878906 L148.46875,67.0878906 L148.46875,66.3144531 L151.890625,66.3144531 C152.187501,65.9394513 152.460936,65.5683612 152.710938,65.2011719 L153.660156,65.4707031 C153.449218,65.7519545 153.224611,66.0332017 152.986328,66.3144531 L159.53125,66.3144531 L159.53125,67.0878906 L157.011719,67.0878906 C156.640623,67.7480502 156.138675,68.2832011 155.505859,68.6933594 L156.813673,69.0392971 C157.451172,69.209453 158.06406,69.3753898 158.652344,69.5371094 L158.277344,70.3222656 C157.039056,69.9316387 155.779303,69.5585955 154.498047,69.203125 C153.310541,69.6718773 151.519543,70.0566391 149.125,70.3574219 C149.03125,70.1074206 148.917969,69.8496107 148.785156,69.5839844 Z M159.847656,73.3691406 C159.58203,73.6816422 159.35547,73.974608 159.167969,74.2480469 C157.105458,73.6308563 155.523443,72.8750045 154.421875,71.9804688 L154.421875,74.6230469 L153.578125,74.6230469 L153.578125,71.9980469 C152.394525,72.8339886 150.820322,73.5878873 148.855469,74.2597656 C148.675781,74.033202 148.44922,73.7675796 148.175781,73.4628906 C150.191416,72.9589819 151.787103,72.3378943 152.962891,71.5996094 L148.445312,71.5996094 L148.445312,70.8144531 L153.578125,70.8144531 L153.578125,69.8535156 L154.421875,69.8535156 L154.421875,70.8144531 L159.625,70.8144531 L159.625,71.5996094 L155.060547,71.5996094 C156.294928,72.4316448 157.890615,73.0214826 159.847656,73.3691406 Z M148.785156,64.1230469 L153.695312,64.1230469 C153.546874,63.8535143 153.375001,63.5761733 153.179688,63.2910156 L154.011719,62.9160156 C154.265626,63.3144551 154.505858,63.7167948 154.732422,64.1230469 L159.203125,64.1230469 L159.203125,65.8925781 L158.3125,65.8925781 L158.3125,64.8964844 L149.675781,64.8964844 L149.675781,65.8925781 L148.785156,65.8925781 L148.785156,64.1230469 Z M151.679688,67.7324219 L153.7583,68.2498776 C153.981932,68.3062741 154.203124,68.3623044 154.421875,68.4179688 C155.109378,68.1132797 155.646482,67.6699248 156.033203,67.0878906 L152.300781,67.0878906 C152.101562,67.3027354 151.894532,67.5175771 151.679688,67.7324219 Z M166.310547,73 L161.107422,73 L161.107422,72.0097656 L163.140625,72.0097656 L163.140625,65.1191406 L161.054688,65.7226562 L161.054688,64.6679688 L164.283203,63.7304688 L164.283203,72.0097656 L166.310547,72.0097656 L166.310547,73 Z" id="列表文案列表文案1" fill="#5A6677" fill-rule="nonzero"></path>
                <path d="M66.1796875,109.337891 L66.7539062,108.681641 C67.3476592,109.169924 67.8886694,109.648435 68.3769531,110.117188 C68.9003932,109.210933 69.2695302,108.228521 69.484375,107.169922 L66.8476562,107.169922 C66.2343719,108.576179 65.4804732,109.841791 64.5859375,110.966797 C64.4140616,110.568357 64.2578132,110.255861 64.1171875,110.029297 C65.2968809,108.443351 66.2050749,106.587901 66.8417969,104.462891 L64.5039062,104.462891 L64.5039062,103.619141 L71.078125,103.619141 L71.078125,104.462891 L67.8085938,104.462891 C67.6249991,105.107425 67.419923,105.728513 67.1933594,106.326172 L70.4453125,106.326172 L70.4453125,107.181641 C69.8046843,110.384782 68.1211074,112.857413 65.3945312,114.599609 C65.1914052,114.365233 64.9492202,114.126954 64.6679688,113.884766 C66.0039129,113.02148 67.0742147,112.023443 67.8789062,110.890625 C67.4335915,110.453123 66.8671909,109.93555 66.1796875,109.337891 Z M74.1601562,103.197266 L75.0976562,103.197266 L75.0976562,112.876953 C75.0976562,113.869146 74.648442,114.369141 73.75,114.376953 L73.43287,114.380425 C73.0271028,114.382451 72.496097,114.377387 71.8398438,114.365234 C71.8007811,114.005858 71.7382817,113.654299 71.6523438,113.310547 L72.3867201,113.369141 C72.829428,113.400391 73.1783841,113.416016 73.4335938,113.416016 C73.9179712,113.416016 74.1601562,113.154299 74.1601562,112.630859 L74.1601562,103.197266 Z M72.4726562,111.669922 L71.5703125,111.669922 L71.5703125,104.498047 L72.4726562,104.498047 L72.4726562,111.669922 Z M86.3476562,109.455078 L86.9921875,110.263672 L84.3730469,111.576172 C85.2910202,112.326176 86.4413993,112.822264 87.8242188,113.064453 C87.5585924,113.408205 87.3398446,113.720702 87.1679688,114.001953 C84.6484249,113.400388 82.8418023,111.851575 81.7480469,109.355469 C81.3496074,109.863284 80.8945338,110.345701 80.3828125,110.802734 L80.3828125,113.310547 C81.4140677,112.974608 82.3710893,112.623049 83.2539062,112.255859 C83.2460937,112.599611 83.2499999,112.939453 83.265625,113.275391 C82.3281203,113.595705 81.35938,113.947264 80.359375,114.330078 C80.1484364,114.416016 79.9414073,114.517578 79.7382812,114.634766 L79.1875,113.779297 C79.4062511,113.623046 79.515625,113.404298 79.515625,113.123047 L79.515625,111.511719 C78.7070272,112.117191 77.7890676,112.666013 76.7617188,113.158203 C76.5898429,112.884764 76.3906261,112.615236 76.1640625,112.349609 C78.1836038,111.52148 79.7695255,110.412116 80.921875,109.021484 L76.2929688,109.021484 L76.2929688,108.212891 L81.5429688,108.212891 L81.5429688,107.017578 L77.125,107.017578 L77.125,106.208984 L81.5429688,106.208984 L81.5429688,105.060547 L76.65625,105.060547 L76.65625,104.251953 L81.5429688,104.251953 L81.5429688,102.939453 L82.46875,102.939453 L82.46875,104.251953 L87.3789062,104.251953 L87.3789062,105.060547 L82.46875,105.060547 L82.46875,106.208984 L86.875,106.208984 L86.875,107.017578 L82.46875,107.017578 L82.46875,108.212891 L87.7070312,108.212891 L87.7070312,109.021484 L82.4980469,109.021484 C82.8261735,109.783207 83.2480443,110.443357 83.7636719,111.001953 C84.5488321,110.611326 85.4101516,110.095706 86.3476562,109.455078 Z M88.3632812,105.048828 L93.9882812,105.048828 L93.6223952,104.366535 C93.3975691,103.956813 93.2109382,103.637371 93.0625,103.408203 L93.9648438,102.986328 L94.2200521,103.392578 C94.414496,103.710286 94.6575506,104.121742 94.9492188,104.626953 L94.1054688,105.048828 L99.6132812,105.048828 L99.6132812,105.916016 L97.4511719,105.916016 C97.033201,108.146496 96.1347725,109.939446 94.7558594,111.294922 C95.7949271,112.052738 97.4453012,112.732419 99.7070312,113.333984 C99.3476545,113.740236 99.0742197,114.080077 98.8867188,114.353516 C96.6835827,113.591793 95.0566459,112.794926 94.0058594,111.962891 C92.9511666,112.783207 91.2656366,113.611324 88.9492188,114.447266 L88.6210942,114.013672 C88.5039069,113.861329 88.3789069,113.701173 88.2460938,113.533203 C90.4804799,112.861325 92.1621037,112.113285 93.2910156,111.289062 C91.8652272,109.765617 90.9589863,107.97462 90.5722656,105.916016 L88.3632812,105.916016 L88.3632812,105.048828 Z M96.4492188,105.916016 L91.5097656,105.916016 C91.8613299,107.8379 92.7011652,109.425775 94.0292969,110.679688 C95.2988345,109.499994 96.105467,107.912119 96.4492188,105.916016 Z M100.785156,109.583984 L101.62461,109.482468 C103.10945,109.292032 104.29642,109.077826 105.185547,108.839844 C104.248042,108.589843 103.300786,108.345704 102.34375,108.107422 C102.664064,107.76367 102.96875,107.42383 103.257812,107.087891 L100.46875,107.087891 L100.46875,106.314453 L103.890625,106.314453 C104.187501,105.939451 104.460936,105.568361 104.710938,105.201172 L105.660156,105.470703 C105.449218,105.751955 105.224611,106.033202 104.986328,106.314453 L111.53125,106.314453 L111.53125,107.087891 L109.011719,107.087891 C108.640623,107.74805 108.138675,108.283201 107.505859,108.693359 L108.813673,109.039297 C109.451172,109.209453 110.06406,109.37539 110.652344,109.537109 L110.277344,110.322266 C109.039056,109.931639 107.779303,109.558596 106.498047,109.203125 C105.310541,109.671877 103.519543,110.056639 101.125,110.357422 C101.03125,110.107421 100.917969,109.849611 100.785156,109.583984 Z M111.847656,113.369141 C111.58203,113.681642 111.35547,113.974608 111.167969,114.248047 C109.105458,113.630856 107.523443,112.875004 106.421875,111.980469 L106.421875,114.623047 L105.578125,114.623047 L105.578125,111.998047 C104.394525,112.833989 102.820322,113.587887 100.855469,114.259766 C100.675781,114.033202 100.44922,113.76758 100.175781,113.462891 C102.191416,112.958982 103.787103,112.337894 104.962891,111.599609 L100.445312,111.599609 L100.445312,110.814453 L105.578125,110.814453 L105.578125,109.853516 L106.421875,109.853516 L106.421875,110.814453 L111.625,110.814453 L111.625,111.599609 L107.060547,111.599609 C108.294928,112.431645 109.890615,113.021483 111.847656,113.369141 Z M100.785156,104.123047 L105.695312,104.123047 C105.546874,103.853514 105.375001,103.576173 105.179688,103.291016 L106.011719,102.916016 C106.265626,103.314455 106.505858,103.716795 106.732422,104.123047 L111.203125,104.123047 L111.203125,105.892578 L110.3125,105.892578 L110.3125,104.896484 L101.675781,104.896484 L101.675781,105.892578 L100.785156,105.892578 L100.785156,104.123047 Z M103.679688,107.732422 L105.7583,108.249878 C105.981932,108.306274 106.203124,108.362304 106.421875,108.417969 C107.109378,108.11328 107.646482,107.669925 108.033203,107.087891 L104.300781,107.087891 C104.101562,107.302735 103.894532,107.517577 103.679688,107.732422 Z M114.179688,109.337891 L114.753906,108.681641 C115.347659,109.169924 115.888669,109.648435 116.376953,110.117188 C116.900393,109.210933 117.26953,108.228521 117.484375,107.169922 L114.847656,107.169922 C114.234372,108.576179 113.480473,109.841791 112.585938,110.966797 C112.414062,110.568357 112.257813,110.255861 112.117188,110.029297 C113.296881,108.443351 114.205075,106.587901 114.841797,104.462891 L112.503906,104.462891 L112.503906,103.619141 L119.078125,103.619141 L119.078125,104.462891 L115.808594,104.462891 C115.624999,105.107425 115.419923,105.728513 115.193359,106.326172 L118.445312,106.326172 L118.445312,107.181641 C117.804684,110.384782 116.121107,112.857413 113.394531,114.599609 C113.191405,114.365233 112.94922,114.126954 112.667969,113.884766 C114.003913,113.02148 115.074215,112.023443 115.878906,110.890625 C115.433592,110.453123 114.867191,109.93555 114.179688,109.337891 Z M122.160156,103.197266 L123.097656,103.197266 L123.097656,112.876953 C123.097656,113.869146 122.648442,114.369141 121.75,114.376953 L121.43287,114.380425 C121.027103,114.382451 120.496097,114.377387 119.839844,114.365234 C119.800781,114.005858 119.738282,113.654299 119.652344,113.310547 L120.38672,113.369141 C120.829428,113.400391 121.178384,113.416016 121.433594,113.416016 C121.917971,113.416016 122.160156,113.154299 122.160156,112.630859 L122.160156,103.197266 Z M120.472656,111.669922 L119.570312,111.669922 L119.570312,104.498047 L120.472656,104.498047 L120.472656,111.669922 Z M134.347656,109.455078 L134.992188,110.263672 L132.373047,111.576172 C133.29102,112.326176 134.441399,112.822264 135.824219,113.064453 C135.558592,113.408205 135.339845,113.720702 135.167969,114.001953 C132.648425,113.400388 130.841802,111.851575 129.748047,109.355469 C129.349607,109.863284 128.894534,110.345701 128.382812,110.802734 L128.382812,113.310547 C129.414068,112.974608 130.371089,112.623049 131.253906,112.255859 C131.246094,112.599611 131.25,112.939453 131.265625,113.275391 C130.32812,113.595705 129.35938,113.947264 128.359375,114.330078 C128.148436,114.416016 127.941407,114.517578 127.738281,114.634766 L127.1875,113.779297 C127.406251,113.623046 127.515625,113.404298 127.515625,113.123047 L127.515625,111.511719 C126.707027,112.117191 125.789068,112.666013 124.761719,113.158203 C124.589843,112.884764 124.390626,112.615236 124.164062,112.349609 C126.183604,111.52148 127.769525,110.412116 128.921875,109.021484 L124.292969,109.021484 L124.292969,108.212891 L129.542969,108.212891 L129.542969,107.017578 L125.125,107.017578 L125.125,106.208984 L129.542969,106.208984 L129.542969,105.060547 L124.65625,105.060547 L124.65625,104.251953 L129.542969,104.251953 L129.542969,102.939453 L130.46875,102.939453 L130.46875,104.251953 L135.378906,104.251953 L135.378906,105.060547 L130.46875,105.060547 L130.46875,106.208984 L134.875,106.208984 L134.875,107.017578 L130.46875,107.017578 L130.46875,108.212891 L135.707031,108.212891 L135.707031,109.021484 L130.498047,109.021484 C130.826174,109.783207 131.248044,110.443357 131.763672,111.001953 C132.548832,110.611326 133.410152,110.095706 134.347656,109.455078 Z M136.363281,105.048828 L141.988281,105.048828 L141.622395,104.366535 C141.397569,103.956813 141.210938,103.637371 141.0625,103.408203 L141.964844,102.986328 L142.220052,103.392578 C142.414496,103.710286 142.657551,104.121742 142.949219,104.626953 L142.105469,105.048828 L147.613281,105.048828 L147.613281,105.916016 L145.451172,105.916016 C145.033201,108.146496 144.134773,109.939446 142.755859,111.294922 C143.794927,112.052738 145.445301,112.732419 147.707031,113.333984 C147.347654,113.740236 147.07422,114.080077 146.886719,114.353516 C144.683583,113.591793 143.056646,112.794926 142.005859,111.962891 C140.951167,112.783207 139.265637,113.611324 136.949219,114.447266 L136.621094,114.013672 C136.503907,113.861329 136.378907,113.701173 136.246094,113.533203 C138.48048,112.861325 140.162104,112.113285 141.291016,111.289062 C139.865227,109.765617 138.958986,107.97462 138.572266,105.916016 L136.363281,105.916016 L136.363281,105.048828 Z M144.449219,105.916016 L139.509766,105.916016 C139.86133,107.8379 140.701165,109.425775 142.029297,110.679688 C143.298834,109.499994 144.105467,107.912119 144.449219,105.916016 Z M148.785156,109.583984 L149.62461,109.482468 C151.10945,109.292032 152.29642,109.077826 153.185547,108.839844 C152.248042,108.589843 151.300786,108.345704 150.34375,108.107422 C150.664064,107.76367 150.96875,107.42383 151.257812,107.087891 L148.46875,107.087891 L148.46875,106.314453 L151.890625,106.314453 C152.187501,105.939451 152.460936,105.568361 152.710938,105.201172 L153.660156,105.470703 C153.449218,105.751955 153.224611,106.033202 152.986328,106.314453 L159.53125,106.314453 L159.53125,107.087891 L157.011719,107.087891 C156.640623,107.74805 156.138675,108.283201 155.505859,108.693359 L156.813673,109.039297 C157.451172,109.209453 158.06406,109.37539 158.652344,109.537109 L158.277344,110.322266 C157.039056,109.931639 155.779303,109.558596 154.498047,109.203125 C153.310541,109.671877 151.519543,110.056639 149.125,110.357422 C149.03125,110.107421 148.917969,109.849611 148.785156,109.583984 Z M159.847656,113.369141 C159.58203,113.681642 159.35547,113.974608 159.167969,114.248047 C157.105458,113.630856 155.523443,112.875004 154.421875,111.980469 L154.421875,114.623047 L153.578125,114.623047 L153.578125,111.998047 C152.394525,112.833989 150.820322,113.587887 148.855469,114.259766 C148.675781,114.033202 148.44922,113.76758 148.175781,113.462891 C150.191416,112.958982 151.787103,112.337894 152.962891,111.599609 L148.445312,111.599609 L148.445312,110.814453 L153.578125,110.814453 L153.578125,109.853516 L154.421875,109.853516 L154.421875,110.814453 L159.625,110.814453 L159.625,111.599609 L155.060547,111.599609 C156.294928,112.431645 157.890615,113.021483 159.847656,113.369141 Z M148.785156,104.123047 L153.695312,104.123047 C153.546874,103.853514 153.375001,103.576173 153.179688,103.291016 L154.011719,102.916016 C154.265626,103.314455 154.505858,103.716795 154.732422,104.123047 L159.203125,104.123047 L159.203125,105.892578 L158.3125,105.892578 L158.3125,104.896484 L149.675781,104.896484 L149.675781,105.892578 L148.785156,105.892578 L148.785156,104.123047 Z M151.679688,107.732422 L153.7583,108.249878 C153.981932,108.306274 154.203124,108.362304 154.421875,108.417969 C155.109378,108.11328 155.646482,107.669925 156.033203,107.087891 L152.300781,107.087891 C152.101562,107.302735 151.894532,107.517577 151.679688,107.732422 Z M166.140625,113 L160.621094,113 L160.621094,112.003906 L163.257812,109.373047 C163.984379,108.646481 164.470702,108.071291 164.716797,107.647461 C164.962892,107.223631 165.085938,106.785159 165.085938,106.332031 C165.085938,105.816404 164.941408,105.4209 164.652344,105.145508 C164.36328,104.870116 163.945315,104.732422 163.398438,104.732422 C162.58984,104.732422 161.818363,105.076168 161.083984,105.763672 L161.083984,104.597656 C161.798832,104.046872 162.630855,103.771484 163.580078,103.771484 C164.396488,103.771484 165.041013,103.992185 165.513672,104.433594 C165.98633,104.875002 166.222656,105.468746 166.222656,106.214844 C166.222656,106.777347 166.071291,107.329099 165.768555,107.870117 C165.465819,108.411136 164.892582,109.099605 164.048828,109.935547 L161.980469,111.957031 L161.980469,111.980469 L166.140625,111.980469 L166.140625,113 Z" id="列表文案列表文案2" fill="#5A6677" fill-rule="nonzero"></path>
                <path d="M66.1796875,149.337891 L66.7539062,148.681641 C67.3476592,149.169924 67.8886694,149.648435 68.3769531,150.117188 C68.9003932,149.210933 69.2695302,148.228521 69.484375,147.169922 L66.8476562,147.169922 C66.2343719,148.576179 65.4804732,149.841791 64.5859375,150.966797 C64.4140616,150.568357 64.2578132,150.255861 64.1171875,150.029297 C65.2968809,148.443351 66.2050749,146.587901 66.8417969,144.462891 L64.5039062,144.462891 L64.5039062,143.619141 L71.078125,143.619141 L71.078125,144.462891 L67.8085938,144.462891 C67.6249991,145.107425 67.419923,145.728513 67.1933594,146.326172 L70.4453125,146.326172 L70.4453125,147.181641 C69.8046843,150.384782 68.1211074,152.857413 65.3945312,154.599609 C65.1914052,154.365233 64.9492202,154.126954 64.6679688,153.884766 C66.0039129,153.02148 67.0742147,152.023443 67.8789062,150.890625 C67.4335915,150.453123 66.8671909,149.93555 66.1796875,149.337891 Z M74.1601562,143.197266 L75.0976562,143.197266 L75.0976562,152.876953 C75.0976562,153.869146 74.648442,154.369141 73.75,154.376953 L73.43287,154.380425 C73.0271028,154.382451 72.496097,154.377387 71.8398438,154.365234 C71.8007811,154.005858 71.7382817,153.654299 71.6523438,153.310547 L72.3867201,153.369141 C72.829428,153.400391 73.1783841,153.416016 73.4335938,153.416016 C73.9179712,153.416016 74.1601562,153.154299 74.1601562,152.630859 L74.1601562,143.197266 Z M72.4726562,151.669922 L71.5703125,151.669922 L71.5703125,144.498047 L72.4726562,144.498047 L72.4726562,151.669922 Z M86.3476562,149.455078 L86.9921875,150.263672 L84.3730469,151.576172 C85.2910202,152.326176 86.4413993,152.822264 87.8242188,153.064453 C87.5585924,153.408205 87.3398446,153.720702 87.1679688,154.001953 C84.6484249,153.400388 82.8418023,151.851575 81.7480469,149.355469 C81.3496074,149.863284 80.8945338,150.345701 80.3828125,150.802734 L80.3828125,153.310547 C81.4140677,152.974608 82.3710893,152.623049 83.2539062,152.255859 C83.2460937,152.599611 83.2499999,152.939453 83.265625,153.275391 C82.3281203,153.595705 81.35938,153.947264 80.359375,154.330078 C80.1484364,154.416016 79.9414073,154.517578 79.7382812,154.634766 L79.1875,153.779297 C79.4062511,153.623046 79.515625,153.404298 79.515625,153.123047 L79.515625,151.511719 C78.7070272,152.117191 77.7890676,152.666013 76.7617188,153.158203 C76.5898429,152.884764 76.3906261,152.615236 76.1640625,152.349609 C78.1836038,151.52148 79.7695255,150.412116 80.921875,149.021484 L76.2929688,149.021484 L76.2929688,148.212891 L81.5429688,148.212891 L81.5429688,147.017578 L77.125,147.017578 L77.125,146.208984 L81.5429688,146.208984 L81.5429688,145.060547 L76.65625,145.060547 L76.65625,144.251953 L81.5429688,144.251953 L81.5429688,142.939453 L82.46875,142.939453 L82.46875,144.251953 L87.3789062,144.251953 L87.3789062,145.060547 L82.46875,145.060547 L82.46875,146.208984 L86.875,146.208984 L86.875,147.017578 L82.46875,147.017578 L82.46875,148.212891 L87.7070312,148.212891 L87.7070312,149.021484 L82.4980469,149.021484 C82.8261735,149.783207 83.2480443,150.443357 83.7636719,151.001953 C84.5488321,150.611326 85.4101516,150.095706 86.3476562,149.455078 Z M88.3632812,145.048828 L93.9882812,145.048828 L93.6223952,144.366535 C93.3975691,143.956813 93.2109382,143.637371 93.0625,143.408203 L93.9648438,142.986328 L94.2200521,143.392578 C94.414496,143.710286 94.6575506,144.121742 94.9492188,144.626953 L94.1054688,145.048828 L99.6132812,145.048828 L99.6132812,145.916016 L97.4511719,145.916016 C97.033201,148.146496 96.1347725,149.939446 94.7558594,151.294922 C95.7949271,152.052738 97.4453012,152.732419 99.7070312,153.333984 C99.3476545,153.740236 99.0742197,154.080077 98.8867188,154.353516 C96.6835827,153.591793 95.0566459,152.794926 94.0058594,151.962891 C92.9511666,152.783207 91.2656366,153.611324 88.9492188,154.447266 L88.6210942,154.013672 C88.5039069,153.861329 88.3789069,153.701173 88.2460938,153.533203 C90.4804799,152.861325 92.1621037,152.113285 93.2910156,151.289062 C91.8652272,149.765617 90.9589863,147.97462 90.5722656,145.916016 L88.3632812,145.916016 L88.3632812,145.048828 Z M96.4492188,145.916016 L91.5097656,145.916016 C91.8613299,147.8379 92.7011652,149.425775 94.0292969,150.679688 C95.2988345,149.499994 96.105467,147.912119 96.4492188,145.916016 Z M100.785156,149.583984 L101.62461,149.482468 C103.10945,149.292032 104.29642,149.077826 105.185547,148.839844 C104.248042,148.589843 103.300786,148.345704 102.34375,148.107422 C102.664064,147.76367 102.96875,147.42383 103.257812,147.087891 L100.46875,147.087891 L100.46875,146.314453 L103.890625,146.314453 C104.187501,145.939451 104.460936,145.568361 104.710938,145.201172 L105.660156,145.470703 C105.449218,145.751955 105.224611,146.033202 104.986328,146.314453 L111.53125,146.314453 L111.53125,147.087891 L109.011719,147.087891 C108.640623,147.74805 108.138675,148.283201 107.505859,148.693359 L108.813673,149.039297 C109.451172,149.209453 110.06406,149.37539 110.652344,149.537109 L110.277344,150.322266 C109.039056,149.931639 107.779303,149.558596 106.498047,149.203125 C105.310541,149.671877 103.519543,150.056639 101.125,150.357422 C101.03125,150.107421 100.917969,149.849611 100.785156,149.583984 Z M111.847656,153.369141 C111.58203,153.681642 111.35547,153.974608 111.167969,154.248047 C109.105458,153.630856 107.523443,152.875004 106.421875,151.980469 L106.421875,154.623047 L105.578125,154.623047 L105.578125,151.998047 C104.394525,152.833989 102.820322,153.587887 100.855469,154.259766 C100.675781,154.033202 100.44922,153.76758 100.175781,153.462891 C102.191416,152.958982 103.787103,152.337894 104.962891,151.599609 L100.445312,151.599609 L100.445312,150.814453 L105.578125,150.814453 L105.578125,149.853516 L106.421875,149.853516 L106.421875,150.814453 L111.625,150.814453 L111.625,151.599609 L107.060547,151.599609 C108.294928,152.431645 109.890615,153.021483 111.847656,153.369141 Z M100.785156,144.123047 L105.695312,144.123047 C105.546874,143.853514 105.375001,143.576173 105.179688,143.291016 L106.011719,142.916016 C106.265626,143.314455 106.505858,143.716795 106.732422,144.123047 L111.203125,144.123047 L111.203125,145.892578 L110.3125,145.892578 L110.3125,144.896484 L101.675781,144.896484 L101.675781,145.892578 L100.785156,145.892578 L100.785156,144.123047 Z M103.679688,147.732422 L105.7583,148.249878 C105.981932,148.306274 106.203124,148.362304 106.421875,148.417969 C107.109378,148.11328 107.646482,147.669925 108.033203,147.087891 L104.300781,147.087891 C104.101562,147.302735 103.894532,147.517577 103.679688,147.732422 Z M114.179688,149.337891 L114.753906,148.681641 C115.347659,149.169924 115.888669,149.648435 116.376953,150.117188 C116.900393,149.210933 117.26953,148.228521 117.484375,147.169922 L114.847656,147.169922 C114.234372,148.576179 113.480473,149.841791 112.585938,150.966797 C112.414062,150.568357 112.257813,150.255861 112.117188,150.029297 C113.296881,148.443351 114.205075,146.587901 114.841797,144.462891 L112.503906,144.462891 L112.503906,143.619141 L119.078125,143.619141 L119.078125,144.462891 L115.808594,144.462891 C115.624999,145.107425 115.419923,145.728513 115.193359,146.326172 L118.445312,146.326172 L118.445312,147.181641 C117.804684,150.384782 116.121107,152.857413 113.394531,154.599609 C113.191405,154.365233 112.94922,154.126954 112.667969,153.884766 C114.003913,153.02148 115.074215,152.023443 115.878906,150.890625 C115.433592,150.453123 114.867191,149.93555 114.179688,149.337891 Z M122.160156,143.197266 L123.097656,143.197266 L123.097656,152.876953 C123.097656,153.869146 122.648442,154.369141 121.75,154.376953 L121.43287,154.380425 C121.027103,154.382451 120.496097,154.377387 119.839844,154.365234 C119.800781,154.005858 119.738282,153.654299 119.652344,153.310547 L120.38672,153.369141 C120.829428,153.400391 121.178384,153.416016 121.433594,153.416016 C121.917971,153.416016 122.160156,153.154299 122.160156,152.630859 L122.160156,143.197266 Z M120.472656,151.669922 L119.570312,151.669922 L119.570312,144.498047 L120.472656,144.498047 L120.472656,151.669922 Z M134.347656,149.455078 L134.992188,150.263672 L132.373047,151.576172 C133.29102,152.326176 134.441399,152.822264 135.824219,153.064453 C135.558592,153.408205 135.339845,153.720702 135.167969,154.001953 C132.648425,153.400388 130.841802,151.851575 129.748047,149.355469 C129.349607,149.863284 128.894534,150.345701 128.382812,150.802734 L128.382812,153.310547 C129.414068,152.974608 130.371089,152.623049 131.253906,152.255859 C131.246094,152.599611 131.25,152.939453 131.265625,153.275391 C130.32812,153.595705 129.35938,153.947264 128.359375,154.330078 C128.148436,154.416016 127.941407,154.517578 127.738281,154.634766 L127.1875,153.779297 C127.406251,153.623046 127.515625,153.404298 127.515625,153.123047 L127.515625,151.511719 C126.707027,152.117191 125.789068,152.666013 124.761719,153.158203 C124.589843,152.884764 124.390626,152.615236 124.164062,152.349609 C126.183604,151.52148 127.769525,150.412116 128.921875,149.021484 L124.292969,149.021484 L124.292969,148.212891 L129.542969,148.212891 L129.542969,147.017578 L125.125,147.017578 L125.125,146.208984 L129.542969,146.208984 L129.542969,145.060547 L124.65625,145.060547 L124.65625,144.251953 L129.542969,144.251953 L129.542969,142.939453 L130.46875,142.939453 L130.46875,144.251953 L135.378906,144.251953 L135.378906,145.060547 L130.46875,145.060547 L130.46875,146.208984 L134.875,146.208984 L134.875,147.017578 L130.46875,147.017578 L130.46875,148.212891 L135.707031,148.212891 L135.707031,149.021484 L130.498047,149.021484 C130.826174,149.783207 131.248044,150.443357 131.763672,151.001953 C132.548832,150.611326 133.410152,150.095706 134.347656,149.455078 Z M136.363281,145.048828 L141.988281,145.048828 L141.622395,144.366535 C141.397569,143.956813 141.210938,143.637371 141.0625,143.408203 L141.964844,142.986328 L142.220052,143.392578 C142.414496,143.710286 142.657551,144.121742 142.949219,144.626953 L142.105469,145.048828 L147.613281,145.048828 L147.613281,145.916016 L145.451172,145.916016 C145.033201,148.146496 144.134773,149.939446 142.755859,151.294922 C143.794927,152.052738 145.445301,152.732419 147.707031,153.333984 C147.347654,153.740236 147.07422,154.080077 146.886719,154.353516 C144.683583,153.591793 143.056646,152.794926 142.005859,151.962891 C140.951167,152.783207 139.265637,153.611324 136.949219,154.447266 L136.621094,154.013672 C136.503907,153.861329 136.378907,153.701173 136.246094,153.533203 C138.48048,152.861325 140.162104,152.113285 141.291016,151.289062 C139.865227,149.765617 138.958986,147.97462 138.572266,145.916016 L136.363281,145.916016 L136.363281,145.048828 Z M144.449219,145.916016 L139.509766,145.916016 C139.86133,147.8379 140.701165,149.425775 142.029297,150.679688 C143.298834,149.499994 144.105467,147.912119 144.449219,145.916016 Z M148.785156,149.583984 L149.62461,149.482468 C151.10945,149.292032 152.29642,149.077826 153.185547,148.839844 C152.248042,148.589843 151.300786,148.345704 150.34375,148.107422 C150.664064,147.76367 150.96875,147.42383 151.257812,147.087891 L148.46875,147.087891 L148.46875,146.314453 L151.890625,146.314453 C152.187501,145.939451 152.460936,145.568361 152.710938,145.201172 L153.660156,145.470703 C153.449218,145.751955 153.224611,146.033202 152.986328,146.314453 L159.53125,146.314453 L159.53125,147.087891 L157.011719,147.087891 C156.640623,147.74805 156.138675,148.283201 155.505859,148.693359 L156.813673,149.039297 C157.451172,149.209453 158.06406,149.37539 158.652344,149.537109 L158.277344,150.322266 C157.039056,149.931639 155.779303,149.558596 154.498047,149.203125 C153.310541,149.671877 151.519543,150.056639 149.125,150.357422 C149.03125,150.107421 148.917969,149.849611 148.785156,149.583984 Z M159.847656,153.369141 C159.58203,153.681642 159.35547,153.974608 159.167969,154.248047 C157.105458,153.630856 155.523443,152.875004 154.421875,151.980469 L154.421875,154.623047 L153.578125,154.623047 L153.578125,151.998047 C152.394525,152.833989 150.820322,153.587887 148.855469,154.259766 C148.675781,154.033202 148.44922,153.76758 148.175781,153.462891 C150.191416,152.958982 151.787103,152.337894 152.962891,151.599609 L148.445312,151.599609 L148.445312,150.814453 L153.578125,150.814453 L153.578125,149.853516 L154.421875,149.853516 L154.421875,150.814453 L159.625,150.814453 L159.625,151.599609 L155.060547,151.599609 C156.294928,152.431645 157.890615,153.021483 159.847656,153.369141 Z M148.785156,144.123047 L153.695312,144.123047 C153.546874,143.853514 153.375001,143.576173 153.179688,143.291016 L154.011719,142.916016 C154.265626,143.314455 154.505858,143.716795 154.732422,144.123047 L159.203125,144.123047 L159.203125,145.892578 L158.3125,145.892578 L158.3125,144.896484 L149.675781,144.896484 L149.675781,145.892578 L148.785156,145.892578 L148.785156,144.123047 Z M151.679688,147.732422 L153.7583,148.249878 C153.981932,148.306274 154.203124,148.362304 154.421875,148.417969 C155.109378,148.11328 155.646482,147.669925 156.033203,147.087891 L152.300781,147.087891 C152.101562,147.302735 151.894532,147.517577 151.679688,147.732422 Z M160.837891,151.482422 C161.458987,151.962893 162.160152,152.203125 162.941406,152.203125 C163.566409,152.203125 164.061522,152.049806 164.426758,151.743164 C164.791994,151.436522 164.974609,151.025393 164.974609,150.509766 C164.974609,149.361322 164.152352,148.787109 162.507812,148.787109 L161.751953,148.787109 L161.751953,147.837891 L162.472656,147.837891 C163.929695,147.837891 164.658203,147.298834 164.658203,146.220703 C164.658203,145.224604 164.101568,144.726562 162.988281,144.726562 C162.351559,144.726562 161.751956,144.941404 161.189453,145.371094 L161.189453,144.287109 C161.783206,143.943358 162.476559,143.771484 163.269531,143.771484 C164.042973,143.771484 164.66406,143.973631 165.132812,144.37793 C165.601565,144.782229 165.835938,145.306637 165.835938,145.951172 C165.835938,147.138678 165.230475,147.902342 164.019531,148.242188 L164.019531,148.265625 C164.675785,148.335938 165.194334,148.567381 165.575195,148.959961 C165.956057,149.352541 166.146484,149.841794 166.146484,150.427734 C166.146484,151.244145 165.852542,151.902341 165.264648,152.402344 C164.676755,152.902346 163.894536,153.152344 162.917969,153.152344 C162.058589,153.152344 161.365237,152.992189 160.837891,152.671875 L160.837891,151.482422 Z" id="列表文案列表文案3" fill="#5A6677" fill-rule="nonzero"></path>
                <path d="M66.1796875,189.337891 L66.7539062,188.681641 C67.3476592,189.169924 67.8886694,189.648435 68.3769531,190.117188 C68.9003932,189.210933 69.2695302,188.228521 69.484375,187.169922 L66.8476562,187.169922 C66.2343719,188.576179 65.4804732,189.841791 64.5859375,190.966797 C64.4140616,190.568357 64.2578132,190.255861 64.1171875,190.029297 C65.2968809,188.443351 66.2050749,186.587901 66.8417969,184.462891 L64.5039062,184.462891 L64.5039062,183.619141 L71.078125,183.619141 L71.078125,184.462891 L67.8085938,184.462891 C67.6249991,185.107425 67.419923,185.728513 67.1933594,186.326172 L70.4453125,186.326172 L70.4453125,187.181641 C69.8046843,190.384782 68.1211074,192.857413 65.3945312,194.599609 C65.1914052,194.365233 64.9492202,194.126954 64.6679688,193.884766 C66.0039129,193.02148 67.0742147,192.023443 67.8789062,190.890625 C67.4335915,190.453123 66.8671909,189.93555 66.1796875,189.337891 Z M74.1601562,183.197266 L75.0976562,183.197266 L75.0976562,192.876953 C75.0976562,193.869146 74.648442,194.369141 73.75,194.376953 L73.43287,194.380425 C73.0271028,194.382451 72.496097,194.377387 71.8398438,194.365234 C71.8007811,194.005858 71.7382817,193.654299 71.6523438,193.310547 L72.3867201,193.369141 C72.829428,193.400391 73.1783841,193.416016 73.4335938,193.416016 C73.9179712,193.416016 74.1601562,193.154299 74.1601562,192.630859 L74.1601562,183.197266 Z M72.4726562,191.669922 L71.5703125,191.669922 L71.5703125,184.498047 L72.4726562,184.498047 L72.4726562,191.669922 Z M86.3476562,189.455078 L86.9921875,190.263672 L84.3730469,191.576172 C85.2910202,192.326176 86.4413993,192.822264 87.8242188,193.064453 C87.5585924,193.408205 87.3398446,193.720702 87.1679688,194.001953 C84.6484249,193.400388 82.8418023,191.851575 81.7480469,189.355469 C81.3496074,189.863284 80.8945338,190.345701 80.3828125,190.802734 L80.3828125,193.310547 C81.4140677,192.974608 82.3710893,192.623049 83.2539062,192.255859 C83.2460937,192.599611 83.2499999,192.939453 83.265625,193.275391 C82.3281203,193.595705 81.35938,193.947264 80.359375,194.330078 C80.1484364,194.416016 79.9414073,194.517578 79.7382812,194.634766 L79.1875,193.779297 C79.4062511,193.623046 79.515625,193.404298 79.515625,193.123047 L79.515625,191.511719 C78.7070272,192.117191 77.7890676,192.666013 76.7617188,193.158203 C76.5898429,192.884764 76.3906261,192.615236 76.1640625,192.349609 C78.1836038,191.52148 79.7695255,190.412116 80.921875,189.021484 L76.2929688,189.021484 L76.2929688,188.212891 L81.5429688,188.212891 L81.5429688,187.017578 L77.125,187.017578 L77.125,186.208984 L81.5429688,186.208984 L81.5429688,185.060547 L76.65625,185.060547 L76.65625,184.251953 L81.5429688,184.251953 L81.5429688,182.939453 L82.46875,182.939453 L82.46875,184.251953 L87.3789062,184.251953 L87.3789062,185.060547 L82.46875,185.060547 L82.46875,186.208984 L86.875,186.208984 L86.875,187.017578 L82.46875,187.017578 L82.46875,188.212891 L87.7070312,188.212891 L87.7070312,189.021484 L82.4980469,189.021484 C82.8261735,189.783207 83.2480443,190.443357 83.7636719,191.001953 C84.5488321,190.611326 85.4101516,190.095706 86.3476562,189.455078 Z M88.3632812,185.048828 L93.9882812,185.048828 L93.6223952,184.366535 C93.3975691,183.956813 93.2109382,183.637371 93.0625,183.408203 L93.9648438,182.986328 L94.2200521,183.392578 C94.414496,183.710286 94.6575506,184.121742 94.9492188,184.626953 L94.1054688,185.048828 L99.6132812,185.048828 L99.6132812,185.916016 L97.4511719,185.916016 C97.033201,188.146496 96.1347725,189.939446 94.7558594,191.294922 C95.7949271,192.052738 97.4453012,192.732419 99.7070312,193.333984 C99.3476545,193.740236 99.0742197,194.080077 98.8867188,194.353516 C96.6835827,193.591793 95.0566459,192.794926 94.0058594,191.962891 C92.9511666,192.783207 91.2656366,193.611324 88.9492188,194.447266 L88.6210942,194.013672 C88.5039069,193.861329 88.3789069,193.701173 88.2460938,193.533203 C90.4804799,192.861325 92.1621037,192.113285 93.2910156,191.289062 C91.8652272,189.765617 90.9589863,187.97462 90.5722656,185.916016 L88.3632812,185.916016 L88.3632812,185.048828 Z M96.4492188,185.916016 L91.5097656,185.916016 C91.8613299,187.8379 92.7011652,189.425775 94.0292969,190.679688 C95.2988345,189.499994 96.105467,187.912119 96.4492188,185.916016 Z M100.785156,189.583984 L101.62461,189.482468 C103.10945,189.292032 104.29642,189.077826 105.185547,188.839844 C104.248042,188.589843 103.300786,188.345704 102.34375,188.107422 C102.664064,187.76367 102.96875,187.42383 103.257812,187.087891 L100.46875,187.087891 L100.46875,186.314453 L103.890625,186.314453 C104.187501,185.939451 104.460936,185.568361 104.710938,185.201172 L105.660156,185.470703 C105.449218,185.751955 105.224611,186.033202 104.986328,186.314453 L111.53125,186.314453 L111.53125,187.087891 L109.011719,187.087891 C108.640623,187.74805 108.138675,188.283201 107.505859,188.693359 L108.813673,189.039297 C109.451172,189.209453 110.06406,189.37539 110.652344,189.537109 L110.277344,190.322266 C109.039056,189.931639 107.779303,189.558596 106.498047,189.203125 C105.310541,189.671877 103.519543,190.056639 101.125,190.357422 C101.03125,190.107421 100.917969,189.849611 100.785156,189.583984 Z M111.847656,193.369141 C111.58203,193.681642 111.35547,193.974608 111.167969,194.248047 C109.105458,193.630856 107.523443,192.875004 106.421875,191.980469 L106.421875,194.623047 L105.578125,194.623047 L105.578125,191.998047 C104.394525,192.833989 102.820322,193.587887 100.855469,194.259766 C100.675781,194.033202 100.44922,193.76758 100.175781,193.462891 C102.191416,192.958982 103.787103,192.337894 104.962891,191.599609 L100.445312,191.599609 L100.445312,190.814453 L105.578125,190.814453 L105.578125,189.853516 L106.421875,189.853516 L106.421875,190.814453 L111.625,190.814453 L111.625,191.599609 L107.060547,191.599609 C108.294928,192.431645 109.890615,193.021483 111.847656,193.369141 Z M100.785156,184.123047 L105.695312,184.123047 C105.546874,183.853514 105.375001,183.576173 105.179688,183.291016 L106.011719,182.916016 C106.265626,183.314455 106.505858,183.716795 106.732422,184.123047 L111.203125,184.123047 L111.203125,185.892578 L110.3125,185.892578 L110.3125,184.896484 L101.675781,184.896484 L101.675781,185.892578 L100.785156,185.892578 L100.785156,184.123047 Z M103.679688,187.732422 L105.7583,188.249878 C105.981932,188.306274 106.203124,188.362304 106.421875,188.417969 C107.109378,188.11328 107.646482,187.669925 108.033203,187.087891 L104.300781,187.087891 C104.101562,187.302735 103.894532,187.517577 103.679688,187.732422 Z M114.179688,189.337891 L114.753906,188.681641 C115.347659,189.169924 115.888669,189.648435 116.376953,190.117188 C116.900393,189.210933 117.26953,188.228521 117.484375,187.169922 L114.847656,187.169922 C114.234372,188.576179 113.480473,189.841791 112.585938,190.966797 C112.414062,190.568357 112.257813,190.255861 112.117188,190.029297 C113.296881,188.443351 114.205075,186.587901 114.841797,184.462891 L112.503906,184.462891 L112.503906,183.619141 L119.078125,183.619141 L119.078125,184.462891 L115.808594,184.462891 C115.624999,185.107425 115.419923,185.728513 115.193359,186.326172 L118.445312,186.326172 L118.445312,187.181641 C117.804684,190.384782 116.121107,192.857413 113.394531,194.599609 C113.191405,194.365233 112.94922,194.126954 112.667969,193.884766 C114.003913,193.02148 115.074215,192.023443 115.878906,190.890625 C115.433592,190.453123 114.867191,189.93555 114.179688,189.337891 Z M122.160156,183.197266 L123.097656,183.197266 L123.097656,192.876953 C123.097656,193.869146 122.648442,194.369141 121.75,194.376953 L121.43287,194.380425 C121.027103,194.382451 120.496097,194.377387 119.839844,194.365234 C119.800781,194.005858 119.738282,193.654299 119.652344,193.310547 L120.38672,193.369141 C120.829428,193.400391 121.178384,193.416016 121.433594,193.416016 C121.917971,193.416016 122.160156,193.154299 122.160156,192.630859 L122.160156,183.197266 Z M120.472656,191.669922 L119.570312,191.669922 L119.570312,184.498047 L120.472656,184.498047 L120.472656,191.669922 Z M134.347656,189.455078 L134.992188,190.263672 L132.373047,191.576172 C133.29102,192.326176 134.441399,192.822264 135.824219,193.064453 C135.558592,193.408205 135.339845,193.720702 135.167969,194.001953 C132.648425,193.400388 130.841802,191.851575 129.748047,189.355469 C129.349607,189.863284 128.894534,190.345701 128.382812,190.802734 L128.382812,193.310547 C129.414068,192.974608 130.371089,192.623049 131.253906,192.255859 C131.246094,192.599611 131.25,192.939453 131.265625,193.275391 C130.32812,193.595705 129.35938,193.947264 128.359375,194.330078 C128.148436,194.416016 127.941407,194.517578 127.738281,194.634766 L127.1875,193.779297 C127.406251,193.623046 127.515625,193.404298 127.515625,193.123047 L127.515625,191.511719 C126.707027,192.117191 125.789068,192.666013 124.761719,193.158203 C124.589843,192.884764 124.390626,192.615236 124.164062,192.349609 C126.183604,191.52148 127.769525,190.412116 128.921875,189.021484 L124.292969,189.021484 L124.292969,188.212891 L129.542969,188.212891 L129.542969,187.017578 L125.125,187.017578 L125.125,186.208984 L129.542969,186.208984 L129.542969,185.060547 L124.65625,185.060547 L124.65625,184.251953 L129.542969,184.251953 L129.542969,182.939453 L130.46875,182.939453 L130.46875,184.251953 L135.378906,184.251953 L135.378906,185.060547 L130.46875,185.060547 L130.46875,186.208984 L134.875,186.208984 L134.875,187.017578 L130.46875,187.017578 L130.46875,188.212891 L135.707031,188.212891 L135.707031,189.021484 L130.498047,189.021484 C130.826174,189.783207 131.248044,190.443357 131.763672,191.001953 C132.548832,190.611326 133.410152,190.095706 134.347656,189.455078 Z M136.363281,185.048828 L141.988281,185.048828 L141.622395,184.366535 C141.397569,183.956813 141.210938,183.637371 141.0625,183.408203 L141.964844,182.986328 L142.220052,183.392578 C142.414496,183.710286 142.657551,184.121742 142.949219,184.626953 L142.105469,185.048828 L147.613281,185.048828 L147.613281,185.916016 L145.451172,185.916016 C145.033201,188.146496 144.134773,189.939446 142.755859,191.294922 C143.794927,192.052738 145.445301,192.732419 147.707031,193.333984 C147.347654,193.740236 147.07422,194.080077 146.886719,194.353516 C144.683583,193.591793 143.056646,192.794926 142.005859,191.962891 C140.951167,192.783207 139.265637,193.611324 136.949219,194.447266 L136.621094,194.013672 C136.503907,193.861329 136.378907,193.701173 136.246094,193.533203 C138.48048,192.861325 140.162104,192.113285 141.291016,191.289062 C139.865227,189.765617 138.958986,187.97462 138.572266,185.916016 L136.363281,185.916016 L136.363281,185.048828 Z M144.449219,185.916016 L139.509766,185.916016 C139.86133,187.8379 140.701165,189.425775 142.029297,190.679688 C143.298834,189.499994 144.105467,187.912119 144.449219,185.916016 Z M148.785156,189.583984 L149.62461,189.482468 C151.10945,189.292032 152.29642,189.077826 153.185547,188.839844 C152.248042,188.589843 151.300786,188.345704 150.34375,188.107422 C150.664064,187.76367 150.96875,187.42383 151.257812,187.087891 L148.46875,187.087891 L148.46875,186.314453 L151.890625,186.314453 C152.187501,185.939451 152.460936,185.568361 152.710938,185.201172 L153.660156,185.470703 C153.449218,185.751955 153.224611,186.033202 152.986328,186.314453 L159.53125,186.314453 L159.53125,187.087891 L157.011719,187.087891 C156.640623,187.74805 156.138675,188.283201 155.505859,188.693359 L156.813673,189.039297 C157.451172,189.209453 158.06406,189.37539 158.652344,189.537109 L158.277344,190.322266 C157.039056,189.931639 155.779303,189.558596 154.498047,189.203125 C153.310541,189.671877 151.519543,190.056639 149.125,190.357422 C149.03125,190.107421 148.917969,189.849611 148.785156,189.583984 Z M159.847656,193.369141 C159.58203,193.681642 159.35547,193.974608 159.167969,194.248047 C157.105458,193.630856 155.523443,192.875004 154.421875,191.980469 L154.421875,194.623047 L153.578125,194.623047 L153.578125,191.998047 C152.394525,192.833989 150.820322,193.587887 148.855469,194.259766 C148.675781,194.033202 148.44922,193.76758 148.175781,193.462891 C150.191416,192.958982 151.787103,192.337894 152.962891,191.599609 L148.445312,191.599609 L148.445312,190.814453 L153.578125,190.814453 L153.578125,189.853516 L154.421875,189.853516 L154.421875,190.814453 L159.625,190.814453 L159.625,191.599609 L155.060547,191.599609 C156.294928,192.431645 157.890615,193.021483 159.847656,193.369141 Z M148.785156,184.123047 L153.695312,184.123047 C153.546874,183.853514 153.375001,183.576173 153.179688,183.291016 L154.011719,182.916016 C154.265626,183.314455 154.505858,183.716795 154.732422,184.123047 L159.203125,184.123047 L159.203125,185.892578 L158.3125,185.892578 L158.3125,184.896484 L149.675781,184.896484 L149.675781,185.892578 L148.785156,185.892578 L148.785156,184.123047 Z M151.679688,187.732422 L153.7583,188.249878 C153.981932,188.306274 154.203124,188.362304 154.421875,188.417969 C155.109378,188.11328 155.646482,187.669925 156.033203,187.087891 L152.300781,187.087891 C152.101562,187.302735 151.894532,187.517577 151.679688,187.732422 Z M162.179688,189.337891 L162.753906,188.681641 C163.347659,189.169924 163.888669,189.648435 164.376953,190.117188 C164.900393,189.210933 165.26953,188.228521 165.484375,187.169922 L162.847656,187.169922 C162.234372,188.576179 161.480473,189.841791 160.585938,190.966797 C160.414062,190.568357 160.257813,190.255861 160.117188,190.029297 C161.296881,188.443351 162.205075,186.587901 162.841797,184.462891 L160.503906,184.462891 L160.503906,183.619141 L167.078125,183.619141 L167.078125,184.462891 L163.808594,184.462891 C163.624999,185.107425 163.419923,185.728513 163.193359,186.326172 L166.445312,186.326172 L166.445312,187.181641 C165.804684,190.384782 164.121107,192.857413 161.394531,194.599609 C161.191405,194.365233 160.94922,194.126954 160.667969,193.884766 C162.003913,193.02148 163.074215,192.023443 163.878906,190.890625 C163.433592,190.453123 162.867191,189.93555 162.179688,189.337891 Z M170.160156,183.197266 L171.097656,183.197266 L171.097656,192.876953 C171.097656,193.869146 170.648442,194.369141 169.75,194.376953 L169.43287,194.380425 C169.027103,194.382451 168.496097,194.377387 167.839844,194.365234 C167.800781,194.005858 167.738282,193.654299 167.652344,193.310547 L168.38672,193.369141 C168.829428,193.400391 169.178384,193.416016 169.433594,193.416016 C169.917971,193.416016 170.160156,193.154299 170.160156,192.630859 L170.160156,183.197266 Z M168.472656,191.669922 L167.570312,191.669922 L167.570312,184.498047 L168.472656,184.498047 L168.472656,191.669922 Z M182.347656,189.455078 L182.992188,190.263672 L180.373047,191.576172 C181.29102,192.326176 182.441399,192.822264 183.824219,193.064453 C183.558592,193.408205 183.339845,193.720702 183.167969,194.001953 C180.648425,193.400388 178.841802,191.851575 177.748047,189.355469 C177.349607,189.863284 176.894534,190.345701 176.382812,190.802734 L176.382812,193.310547 C177.414068,192.974608 178.371089,192.623049 179.253906,192.255859 C179.246094,192.599611 179.25,192.939453 179.265625,193.275391 C178.32812,193.595705 177.35938,193.947264 176.359375,194.330078 C176.148436,194.416016 175.941407,194.517578 175.738281,194.634766 L175.1875,193.779297 C175.406251,193.623046 175.515625,193.404298 175.515625,193.123047 L175.515625,191.511719 C174.707027,192.117191 173.789068,192.666013 172.761719,193.158203 C172.589843,192.884764 172.390626,192.615236 172.164062,192.349609 C174.183604,191.52148 175.769525,190.412116 176.921875,189.021484 L172.292969,189.021484 L172.292969,188.212891 L177.542969,188.212891 L177.542969,187.017578 L173.125,187.017578 L173.125,186.208984 L177.542969,186.208984 L177.542969,185.060547 L172.65625,185.060547 L172.65625,184.251953 L177.542969,184.251953 L177.542969,182.939453 L178.46875,182.939453 L178.46875,184.251953 L183.378906,184.251953 L183.378906,185.060547 L178.46875,185.060547 L178.46875,186.208984 L182.875,186.208984 L182.875,187.017578 L178.46875,187.017578 L178.46875,188.212891 L183.707031,188.212891 L183.707031,189.021484 L178.498047,189.021484 C178.826174,189.783207 179.248044,190.443357 179.763672,191.001953 C180.548832,190.611326 181.410152,190.095706 182.347656,189.455078 Z M184.363281,185.048828 L189.988281,185.048828 L189.622395,184.366535 C189.397569,183.956813 189.210938,183.637371 189.0625,183.408203 L189.964844,182.986328 L190.220052,183.392578 C190.414496,183.710286 190.657551,184.121742 190.949219,184.626953 L190.105469,185.048828 L195.613281,185.048828 L195.613281,185.916016 L193.451172,185.916016 C193.033201,188.146496 192.134773,189.939446 190.755859,191.294922 C191.794927,192.052738 193.445301,192.732419 195.707031,193.333984 C195.347654,193.740236 195.07422,194.080077 194.886719,194.353516 C192.683583,193.591793 191.056646,192.794926 190.005859,191.962891 C188.951167,192.783207 187.265637,193.611324 184.949219,194.447266 L184.621094,194.013672 C184.503907,193.861329 184.378907,193.701173 184.246094,193.533203 C186.48048,192.861325 188.162104,192.113285 189.291016,191.289062 C187.865227,189.765617 186.958986,187.97462 186.572266,185.916016 L184.363281,185.916016 L184.363281,185.048828 Z M192.449219,185.916016 L187.509766,185.916016 C187.86133,187.8379 188.701165,189.425775 190.029297,190.679688 C191.298834,189.499994 192.105467,187.912119 192.449219,185.916016 Z M196.785156,189.583984 L197.62461,189.482468 C199.10945,189.292032 200.29642,189.077826 201.185547,188.839844 C200.248042,188.589843 199.300786,188.345704 198.34375,188.107422 C198.664064,187.76367 198.96875,187.42383 199.257812,187.087891 L196.46875,187.087891 L196.46875,186.314453 L199.890625,186.314453 C200.187501,185.939451 200.460936,185.568361 200.710938,185.201172 L201.660156,185.470703 C201.449218,185.751955 201.224611,186.033202 200.986328,186.314453 L207.53125,186.314453 L207.53125,187.087891 L205.011719,187.087891 C204.640623,187.74805 204.138675,188.283201 203.505859,188.693359 L204.813673,189.039297 C205.451172,189.209453 206.06406,189.37539 206.652344,189.537109 L206.277344,190.322266 C205.039056,189.931639 203.779303,189.558596 202.498047,189.203125 C201.310541,189.671877 199.519543,190.056639 197.125,190.357422 C197.03125,190.107421 196.917969,189.849611 196.785156,189.583984 Z M207.847656,193.369141 C207.58203,193.681642 207.35547,193.974608 207.167969,194.248047 C205.105458,193.630856 203.523443,192.875004 202.421875,191.980469 L202.421875,194.623047 L201.578125,194.623047 L201.578125,191.998047 C200.394525,192.833989 198.820322,193.587887 196.855469,194.259766 C196.675781,194.033202 196.44922,193.76758 196.175781,193.462891 C198.191416,192.958982 199.787103,192.337894 200.962891,191.599609 L196.445312,191.599609 L196.445312,190.814453 L201.578125,190.814453 L201.578125,189.853516 L202.421875,189.853516 L202.421875,190.814453 L207.625,190.814453 L207.625,191.599609 L203.060547,191.599609 C204.294928,192.431645 205.890615,193.021483 207.847656,193.369141 Z M196.785156,184.123047 L201.695312,184.123047 C201.546874,183.853514 201.375001,183.576173 201.179688,183.291016 L202.011719,182.916016 C202.265626,183.314455 202.505858,183.716795 202.732422,184.123047 L207.203125,184.123047 L207.203125,185.892578 L206.3125,185.892578 L206.3125,184.896484 L197.675781,184.896484 L197.675781,185.892578 L196.785156,185.892578 L196.785156,184.123047 Z M199.679688,187.732422 L201.7583,188.249878 C201.981932,188.306274 202.203124,188.362304 202.421875,188.417969 C203.109378,188.11328 203.646482,187.669925 204.033203,187.087891 L200.300781,187.087891 C200.101562,187.302735 199.894532,187.517577 199.679688,187.732422 Z M215.394531,192.384766 C215.394531,192.173827 215.468749,191.995118 215.617188,191.848633 C215.765626,191.702148 215.939452,191.628906 216.138672,191.628906 C216.345704,191.628906 216.52246,191.704101 216.668945,191.854492 C216.81543,192.004884 216.888672,192.18164 216.888672,192.384766 C216.888672,192.587892 216.816407,192.760741 216.671875,192.90332 C216.527343,193.045899 216.34961,193.117188 216.138672,193.117188 C215.923827,193.117188 215.746094,193.044923 215.605469,192.900391 C215.464843,192.755859 215.394531,192.583985 215.394531,192.384766 Z M212.125,192.384766 C212.125,192.173827 212.198241,191.995118 212.344727,191.848633 C212.491212,191.702148 212.669921,191.628906 212.880859,191.628906 C213.083985,191.628906 213.258788,191.704101 213.405273,191.854492 C213.551759,192.004884 213.625,192.18164 213.625,192.384766 C213.625,192.587892 213.552735,192.760741 213.408203,192.90332 C213.263671,193.045899 213.085939,193.117188 212.875,193.117188 C212.664061,193.117188 212.486329,193.045899 212.341797,192.90332 C212.197265,192.760741 212.125,192.587892 212.125,192.384766 Z M208.878906,192.384766 C208.878906,192.173827 208.950195,191.995118 209.092773,191.848633 C209.235352,191.702148 209.410155,191.628906 209.617188,191.628906 C209.816407,191.628906 209.99121,191.703124 210.141602,191.851562 C210.291993,192.000001 210.367188,192.177733 210.367188,192.384766 C210.367188,192.587892 210.294923,192.760741 210.150391,192.90332 C210.005859,193.045899 209.826173,193.117188 209.611328,193.117188 C209.404296,193.117188 209.230469,193.046876 209.089844,192.90625 C208.949218,192.765624 208.878906,192.591798 208.878906,192.384766 Z M223.210938,183.923828 L223.210938,189.736328 L224.371094,189.736328 L224.371094,190.644531 L223.210938,190.644531 L223.210938,193 L222.097656,193 L222.097656,190.644531 L217.867188,190.644531 L217.867188,189.900391 L221.880859,183.923828 L223.210938,183.923828 Z M222.121094,185.001953 L222.097656,185.001953 C222.061198,185.100912 221.99783,185.237196 221.907552,185.410807 L221.907552,185.410807 L221.751953,185.699219 L219.050781,189.736328 L222.097656,189.736328 L222.097656,185.933594 C222.097656,185.664061 222.105469,185.353517 222.121094,185.001953 L222.121094,185.001953 Z" id="列表文案列表文案列表文案…4" fill="#5A6677" fill-rule="nonzero"></path>
                <text id="样式二" font-family="MicrosoftYaHei, Microsoft YaHei" font-size="12" font-weight="normal" line-spacing="22" fill="#525A6E">
                    <tspan x="8" y="27">样式二</tspan>
                </text>
            </g>
        </g>
    </g>
</svg>