<?xml version="1.0" encoding="UTF-8"?>
<svg width="241px" height="197px" viewBox="0 0 241 197" version="1.1" xmlns="http://www.w3.org/2000/svg" xmlns:xlink="http://www.w3.org/1999/xlink">
    <!-- Generator: Sketch 58 (84663) - https://sketch.com -->
    <title>tree-radio/style1</title>
    <desc>Created with Sketch.</desc>
    <defs>
        <polygon id="path-1" points="5 7.68048012 0.123236337 2.89238489 0.908910539 2.12099568 5.00284025 6.13491308 9.05160734 2.15975994 9.83728155 2.93114915"></polygon>
        <polygon id="path-3" points="5 7.68048012 0.123236337 2.89238489 0.908910539 2.12099568 5.00284025 6.13491308 9.05160734 2.15975994 9.83728155 2.93114915"></polygon>
        <polygon id="path-5" points="5 7.68048012 0.123236337 2.89238489 0.908910539 2.12099568 5.00284025 6.13491308 9.05160734 2.15975994 9.83728155 2.93114915"></polygon>
    </defs>
    <g id="页面-1" stroke="none" stroke-width="1" fill="none" fill-rule="evenodd">
        <g id="tree-radio/style1">
            <g id="编组-20">
                <rect id="矩形备份" fill-opacity="0.01" fill="#FAFAFA" x="0" y="0" width="241" height="197"></rect>
                <path d="M78.1875,24.9316406 L89.8359375,24.9316406 L89.8359375,25.9628906 L78.1875,25.9628906 L78.1875,24.9316406 Z M96.1347656,25.2714844 C96.0136713,27.8418097 95.2148511,29.9199139 93.7382812,31.5058594 C93.4570298,31.224608 93.2070323,31.0058602 92.9882812,30.8496094 C93.9049479,29.8828077 94.5262032,28.8142679 94.8520505,27.6439629 L94.9335938,27.3222656 C95.2187514,26.2050725 95.3515626,24.287123 95.3320312,21.5683594 L94.2890625,21.5683594 L94.2890625,20.7363281 L100.136719,20.7363281 L100.136719,21.6152344 L99,23.9707031 L100.945312,23.9707031 L100.945312,24.8378906 C100.492185,26.2519602 99.876957,27.488276 99.0996094,28.546875 C99.8535194,29.3125038 100.777338,29.9785128 101.871094,30.5449219 C101.636718,30.7714855 101.375001,31.0605451 101.085938,31.4121094 C100.054682,30.7597624 99.1855504,30.0644568 98.4785156,29.3261719 C97.6777304,30.2324264 96.7343804,30.9863251 95.6484375,31.5878906 C95.4296864,31.2988267 95.2109386,31.0488292 94.9921875,30.8378906 C96.1171931,30.2011687 97.0703086,29.4492231 97.8515625,28.5820312 C97.148434,27.6523391 96.5761741,26.5488345 96.1347656,25.2714844 Z M98.0273438,23.9472656 L99.1523438,21.5683594 L96.2226562,21.5683594 L96.2241211,22.3828126 C96.2231446,22.6464838 96.2207031,22.9023425 96.2167969,23.1503906 C96.8144561,25.1738382 97.5624955,26.7363226 98.4609375,27.8378906 C99.1250033,26.9316361 99.6289045,25.9199275 99.9726562,24.8027344 L98.0273438,24.8027344 L98.0273438,23.9472656 Z M91.7578125,26.4433594 C92.5703166,26.3574214 93.3984333,26.2597662 94.2421875,26.1503906 L94.1484375,26.9121094 L94.1484375,26.9121094 L93.0932698,27.0469948 C92.2442589,27.1601962 91.4709856,27.27539 90.7734375,27.3925781 L90.5625,26.5605469 C91.0273461,26.1503886 91.6113246,25.4043023 92.3144531,24.3222656 C91.7128876,24.3652346 91.0937532,24.4199215 90.4570312,24.4863281 L90.234375,23.7480469 C90.8828157,23.0292933 91.6367145,21.7793058 92.4960938,19.9980469 L93.3867188,20.3847656 L92.9160925,21.1694553 C92.3048421,22.1744561 91.7585962,23.0144498 91.2773438,23.6894531 L92.7539062,23.6308594 L92.7539062,23.6308594 C93.0351577,23.1699196 93.3359359,22.6621121 93.65625,22.1074219 L94.5,22.5058594 L93.8240605,23.5221124 C92.9653098,24.8008638 92.2765651,25.774606 91.7578125,26.4433594 Z M90.1875,29.1738281 C91.4375062,28.8769516 92.7070248,28.5527361 93.9960938,28.2011719 C94.0039063,28.4746107 94.0156249,28.7441393 94.03125,29.0097656 L92.608519,29.4025276 C91.8529051,29.6143195 91.1552766,29.8154297 90.515625,30.0058594 L90.1875,29.1738281 Z M113.835938,30.2050781 C113.539061,30.5253922 113.296876,30.8222643 113.109375,31.0957031 C111.117178,30.4316373 109.542975,29.3652417 108.386719,27.8964844 L108.386719,31.6816406 L107.484375,31.6816406 L107.484375,27.8964844 C106.359369,29.224616 104.81251,30.3378861 102.84375,31.2363281 C102.664062,31.001952 102.437501,30.7363296 102.164062,30.4394531 C103.820321,29.8769503 105.249994,29.0253963 106.453125,27.8847656 L102.375,27.8847656 L102.375,27.0644531 L107.484375,27.0644531 L107.484375,26.1738281 L108.386719,26.1738281 L108.386719,27.0644531 L113.683594,27.0644531 L113.683594,27.8847656 L109.324219,27.8847656 C110.457037,29.0332089 111.960928,29.8066386 113.835938,30.2050781 Z M102.28125,21.1582031 L105.5625,21.1582031 L105.5625,20.0566406 L106.476562,20.0566406 L106.476562,21.1582031 L109.523438,21.1582031 L109.523438,20.0566406 L110.4375,20.0566406 L110.4375,21.1582031 L113.753906,21.1582031 L113.753906,21.9902344 L110.4375,21.9902344 L110.4375,22.6582031 L109.523438,22.6582031 L109.523438,21.9902344 L106.476562,21.9902344 L106.476562,22.7636719 L105.5625,22.7636719 L105.5625,21.9902344 L102.28125,21.9902344 L102.28125,21.1582031 Z M103.089844,24.0410156 L102.985677,23.509766 C102.96658,23.4160161 102.946615,23.319662 102.925781,23.2207031 C106.535174,23.1816404 109.726549,23.0605479 112.5,22.8574219 L112.640625,23.6777344 C109.781236,23.8574219 106.597674,23.9785153 103.089844,24.0410156 Z M109.664062,25.9628906 C110.195315,25.4863257 110.792965,24.8496134 111.457031,24.0527344 L112.230469,24.6621094 L111.282566,25.6086254 C110.843587,26.0413171 110.511119,26.3586228 110.285156,26.5605469 L109.664062,25.9628906 Z M103.734375,24.7675781 L104.449219,24.3222656 L104.671441,24.6110391 C104.946904,24.9810232 105.279078,25.4667939 105.667969,26.0683594 L104.859375,26.5839844 C104.507811,25.9589813 104.132814,25.3535186 103.734375,24.7675781 Z M106.945312,24.3925781 L107.683594,24.0292969 C108.058596,24.5761746 108.382811,25.1035131 108.65625,25.6113281 L107.824219,26.0566406 C107.660155,25.6347635 107.36719,25.0800816 106.945312,24.3925781 Z M117.292969,19.9394531 C117.871097,20.4941434 118.378904,21.005857 118.816406,21.4746094 L118.382812,21.8378906 L121.130859,21.8378906 C121.560549,21.2675753 121.996092,20.6464877 122.4375,19.9746094 L123.375,20.4785156 C122.972654,20.9667993 122.583986,21.4199198 122.208984,21.8378906 L124.605469,21.8378906 L124.605469,27.5214844 L123.714844,27.5214844 L123.714844,26.9707031 L120.457031,26.9707031 L120.457031,28.2949219 L125.765625,28.2949219 L125.765625,29.1386719 L120.457031,29.1386719 L120.457031,31.6113281 L119.542969,31.6113281 L119.542969,29.1386719 L114.234375,29.1386719 L114.234375,28.2949219 L119.542969,28.2949219 L119.542969,26.9707031 L116.296875,26.9707031 L116.296875,27.5214844 L115.40625,27.5214844 L115.40625,21.8378906 L117.837891,21.8378906 C117.462889,21.4003884 117.058596,20.9511742 116.625,20.4902344 L117.292969,19.9394531 Z M123.714844,24.7910156 L120.457031,24.7910156 L120.457031,26.1503906 L123.714844,26.1503906 L123.714844,24.7910156 Z M119.542969,24.7910156 L116.296875,24.7910156 L116.296875,26.1503906 L119.542969,26.1503906 L119.542969,24.7910156 Z M123.714844,22.6582031 L120.457031,22.6582031 L120.457031,23.9941406 L123.714844,23.9941406 L123.714844,22.6582031 Z M119.542969,22.6582031 L116.296875,22.6582031 L116.296875,23.9941406 L119.542969,23.9941406 L119.542969,22.6582031 Z" id="一级菜单" fill="#333333" fill-rule="nonzero"></path>
                <path d="M78.1875,128.931641 L89.8359375,128.931641 L89.8359375,129.962891 L78.1875,129.962891 L78.1875,128.931641 Z M96.1347656,129.271484 C96.0136713,131.84181 95.2148511,133.919914 93.7382812,135.505859 C93.4570298,135.224608 93.2070323,135.00586 92.9882812,134.849609 C93.9049479,133.882808 94.5262032,132.814268 94.8520505,131.643963 L94.9335938,131.322266 C95.2187514,130.205073 95.3515626,128.287123 95.3320312,125.568359 L94.2890625,125.568359 L94.2890625,124.736328 L100.136719,124.736328 L100.136719,125.615234 L99,127.970703 L100.945312,127.970703 L100.945312,128.837891 C100.492185,130.25196 99.876957,131.488276 99.0996094,132.546875 C99.8535194,133.312504 100.777338,133.978513 101.871094,134.544922 C101.636718,134.771486 101.375001,135.060545 101.085938,135.412109 C100.054682,134.759762 99.1855504,134.064457 98.4785156,133.326172 C97.6777304,134.232426 96.7343804,134.986325 95.6484375,135.587891 C95.4296864,135.298827 95.2109386,135.048829 94.9921875,134.837891 C96.1171931,134.201169 97.0703086,133.449223 97.8515625,132.582031 C97.148434,131.652339 96.5761741,130.548835 96.1347656,129.271484 Z M98.0273438,127.947266 L99.1523438,125.568359 L96.2226562,125.568359 L96.2241211,126.382813 C96.2231446,126.646484 96.2207031,126.902343 96.2167969,127.150391 C96.8144561,129.173838 97.5624955,130.736323 98.4609375,131.837891 C99.1250033,130.931636 99.6289045,129.919927 99.9726562,128.802734 L98.0273438,128.802734 L98.0273438,127.947266 Z M91.7578125,130.443359 C92.5703166,130.357421 93.3984333,130.259766 94.2421875,130.150391 L94.1484375,130.912109 L94.1484375,130.912109 L93.0932698,131.046995 C92.2442589,131.160196 91.4709856,131.27539 90.7734375,131.392578 L90.5625,130.560547 C91.0273461,130.150389 91.6113246,129.404302 92.3144531,128.322266 C91.7128876,128.365235 91.0937532,128.419922 90.4570312,128.486328 L90.234375,127.748047 C90.8828157,127.029293 91.6367145,125.779306 92.4960938,123.998047 L93.3867188,124.384766 L92.9160925,125.169455 C92.3048421,126.174456 91.7585962,127.01445 91.2773438,127.689453 L92.7539062,127.630859 L92.7539062,127.630859 C93.0351577,127.16992 93.3359359,126.662112 93.65625,126.107422 L94.5,126.505859 L93.8240605,127.522112 C92.9653098,128.800864 92.2765651,129.774606 91.7578125,130.443359 Z M90.1875,133.173828 C91.4375062,132.876952 92.7070248,132.552736 93.9960938,132.201172 C94.0039063,132.474611 94.0156249,132.744139 94.03125,133.009766 L92.608519,133.402528 C91.8529051,133.61432 91.1552766,133.81543 90.515625,134.005859 L90.1875,133.173828 Z M113.835938,134.205078 C113.539061,134.525392 113.296876,134.822264 113.109375,135.095703 C111.117178,134.431637 109.542975,133.365242 108.386719,131.896484 L108.386719,135.681641 L107.484375,135.681641 L107.484375,131.896484 C106.359369,133.224616 104.81251,134.337886 102.84375,135.236328 C102.664062,135.001952 102.437501,134.73633 102.164062,134.439453 C103.820321,133.87695 105.249994,133.025396 106.453125,131.884766 L102.375,131.884766 L102.375,131.064453 L107.484375,131.064453 L107.484375,130.173828 L108.386719,130.173828 L108.386719,131.064453 L113.683594,131.064453 L113.683594,131.884766 L109.324219,131.884766 C110.457037,133.033209 111.960928,133.806639 113.835938,134.205078 Z M102.28125,125.158203 L105.5625,125.158203 L105.5625,124.056641 L106.476562,124.056641 L106.476562,125.158203 L109.523438,125.158203 L109.523438,124.056641 L110.4375,124.056641 L110.4375,125.158203 L113.753906,125.158203 L113.753906,125.990234 L110.4375,125.990234 L110.4375,126.658203 L109.523438,126.658203 L109.523438,125.990234 L106.476562,125.990234 L106.476562,126.763672 L105.5625,126.763672 L105.5625,125.990234 L102.28125,125.990234 L102.28125,125.158203 Z M103.089844,128.041016 L102.985677,127.509766 C102.96658,127.416016 102.946615,127.319662 102.925781,127.220703 C106.535174,127.18164 109.726549,127.060548 112.5,126.857422 L112.640625,127.677734 C109.781236,127.857422 106.597674,127.978515 103.089844,128.041016 Z M109.664062,129.962891 C110.195315,129.486326 110.792965,128.849613 111.457031,128.052734 L112.230469,128.662109 L111.282566,129.608625 C110.843587,130.041317 110.511119,130.358623 110.285156,130.560547 L109.664062,129.962891 Z M103.734375,128.767578 L104.449219,128.322266 L104.671441,128.611039 C104.946904,128.981023 105.279078,129.466794 105.667969,130.068359 L104.859375,130.583984 C104.507811,129.958981 104.132814,129.353519 103.734375,128.767578 Z M106.945312,128.392578 L107.683594,128.029297 C108.058596,128.576175 108.382811,129.103513 108.65625,129.611328 L107.824219,130.056641 C107.660155,129.634764 107.36719,129.080082 106.945312,128.392578 Z M114.234375,132.294922 L119.542969,132.294922 L119.542969,130.970703 L116.296875,130.970703 L116.296875,131.521484 L115.40625,131.521484 L115.40625,125.837891 L117.837891,125.837891 C117.462889,125.400388 117.058596,124.951174 116.625,124.490234 L117.292969,123.939453 C117.871097,124.494143 118.378904,125.005857 118.816406,125.474609 L118.382812,125.837891 L121.130859,125.837891 C121.560549,125.267575 121.996092,124.646488 122.4375,123.974609 L123.375,124.478516 C122.972654,124.966799 122.583986,125.41992 122.208984,125.837891 L124.605469,125.837891 L124.605469,131.521484 L123.714844,131.521484 L123.714844,130.970703 L120.457031,130.970703 L120.457031,132.294922 L125.765625,132.294922 L125.765625,133.138672 L120.457031,133.138672 L120.457031,135.611328 L119.542969,135.611328 L119.542969,133.138672 L114.234375,133.138672 L114.234375,132.294922 Z M120.457031,130.150391 L123.714844,130.150391 L123.714844,128.791016 L120.457031,128.791016 L120.457031,130.150391 Z M116.296875,130.150391 L119.542969,130.150391 L119.542969,128.791016 L116.296875,128.791016 L116.296875,130.150391 Z M123.714844,126.658203 L120.457031,126.658203 L120.457031,127.994141 L123.714844,127.994141 L123.714844,126.658203 Z M116.296875,127.994141 L119.542969,127.994141 L119.542969,126.658203 L116.296875,126.658203 L116.296875,127.994141 Z M132.140625,134 L126.621094,134 L126.621094,133.003906 L129.257812,130.373047 C129.984379,129.646481 130.470702,129.071291 130.716797,128.647461 C130.962892,128.223631 131.085938,127.785159 131.085938,127.332031 C131.085938,126.816404 130.941408,126.4209 130.652344,126.145508 C130.36328,125.870116 129.945315,125.732422 129.398438,125.732422 C128.58984,125.732422 127.818363,126.076168 127.083984,126.763672 L127.083984,125.597656 C127.798832,125.046872 128.630855,124.771484 129.580078,124.771484 C130.396488,124.771484 131.041013,124.992185 131.513672,125.433594 C131.98633,125.875002 132.222656,126.468746 132.222656,127.214844 C132.222656,127.777347 132.071291,128.329099 131.768555,128.870117 C131.465819,129.411136 130.892582,130.099605 130.048828,130.935547 L127.980469,132.957031 L127.980469,132.980469 L132.140625,132.980469 L132.140625,134 Z" id="一级菜单2" fill="#333333" fill-rule="nonzero"></path>
                <g id="arrow-down" transform="translate(65.000000, 163.000000) rotate(-90.000000) translate(-65.000000, -163.000000) translate(60.000000, 158.000000)">
                    <rect id="Rectangle" fill="#D8D8D8" opacity="0.01" x="0" y="0" width="10" height="10"></rect>
                    <mask id="mask-2" fill="white">
                        <use xlink:href="#path-1"></use>
                    </mask>
                    <use id="Path-2" fill="#333333" fill-rule="nonzero" xlink:href="#path-1"></use>
                </g>
                <rect id="矩形" fill="#F1F1F1" opacity="0.300000012" x="60" y="48" width="112" height="28"></rect>
                <g id="点击数-copy" transform="translate(154.000000, 66.000000)" stroke="#4C4C4C">
                    <path d="M15.7642312,6.00637625 C15.3623769,6.00637625 15.0075481,6.15390129 14.6933323,6.35622132 C14.3833914,5.65231618 13.6737339,5.15705358 12.84865,5.15705358 C12.4703085,5.15705358 12.1347174,5.28982611 11.8311891,5.46896364 C11.5875115,4.64282348 10.8436536,4.02532584 9.92879378,4.02532584 C9.59747773,4.02532584 9.29822453,4.12227086 9.02248408,4.26347339 L9.02248408,1.98526542 C9.02248408,0.891472705 8.1183119,0 7.00893752,0 C5.89956313,0 4.99539098,0.891472684 4.99539098,1.98526542 L4.99539098,10.3836547 L3.43499926,8.84517933 C2.67404112,8.09490918 1.34450188,8.09701668 0.589956315,8.84517933 C0.209477234,9.22031442 0,9.71768451 0,10.2487746 C0,10.7798648 0.209477234,11.2772348 0.589956315,11.6523699 L6.21591654,17.2056336 C6.99824992,17.9980537 8.31068897,19.3236715 10.8799915,19.3236715 C15.1999252,19.3236715 17.7777778,17.1950961 17.7777778,13.6292053 L17.7777778,7.99164165 C17.7777778,6.89784894 16.8757431,6.00637625 15.7642312,6.00637625 Z" id="Shape" fill="#FFFFFF" fill-rule="nonzero"></path>
                    <rect id="Rectangle" fill="#D8D8D8" x="9.17360423" y="10.6424885" width="1" height="4.55555556" rx="0.5"></rect>
                    <rect id="Rectangle-Copy" fill="#D8D8D8" x="12.1244931" y="11.4330883" width="1" height="4.55555556" rx="0.5"></rect>
                    <rect id="Rectangle-Copy-2" fill="#D8D8D8" x="14.8960548" y="11.5005061" width="1" height="3.44444444" rx="0.5"></rect>
                </g>
                <path d="M78.1875,162.931641 L89.8359375,162.931641 L89.8359375,163.962891 L78.1875,163.962891 L78.1875,162.931641 Z M96.1347656,163.271484 C96.0136713,165.84181 95.2148511,167.919914 93.7382812,169.505859 C93.4570298,169.224608 93.2070323,169.00586 92.9882812,168.849609 C93.9049479,167.882808 94.5262032,166.814268 94.8520505,165.643963 L94.9335938,165.322266 C95.2187514,164.205073 95.3515626,162.287123 95.3320312,159.568359 L94.2890625,159.568359 L94.2890625,158.736328 L100.136719,158.736328 L100.136719,159.615234 L99,161.970703 L100.945312,161.970703 L100.945312,162.837891 C100.492185,164.25196 99.876957,165.488276 99.0996094,166.546875 C99.8535194,167.312504 100.777338,167.978513 101.871094,168.544922 C101.636718,168.771486 101.375001,169.060545 101.085938,169.412109 C100.054682,168.759762 99.1855504,168.064457 98.4785156,167.326172 C97.6777304,168.232426 96.7343804,168.986325 95.6484375,169.587891 C95.4296864,169.298827 95.2109386,169.048829 94.9921875,168.837891 C96.1171931,168.201169 97.0703086,167.449223 97.8515625,166.582031 C97.148434,165.652339 96.5761741,164.548835 96.1347656,163.271484 Z M98.0273438,161.947266 L99.1523438,159.568359 L96.2226562,159.568359 L96.2241211,160.382813 C96.2231446,160.646484 96.2207031,160.902343 96.2167969,161.150391 C96.8144561,163.173838 97.5624955,164.736323 98.4609375,165.837891 C99.1250033,164.931636 99.6289045,163.919927 99.9726562,162.802734 L98.0273438,162.802734 L98.0273438,161.947266 Z M91.7578125,164.443359 C92.5703166,164.357421 93.3984333,164.259766 94.2421875,164.150391 L94.1484375,164.912109 L94.1484375,164.912109 L93.0932698,165.046995 C92.2442589,165.160196 91.4709856,165.27539 90.7734375,165.392578 L90.5625,164.560547 C91.0273461,164.150389 91.6113246,163.404302 92.3144531,162.322266 C91.7128876,162.365235 91.0937532,162.419922 90.4570312,162.486328 L90.234375,161.748047 C90.8828157,161.029293 91.6367145,159.779306 92.4960938,157.998047 L93.3867188,158.384766 L92.9160925,159.169455 C92.3048421,160.174456 91.7585962,161.01445 91.2773438,161.689453 L92.7539062,161.630859 L92.7539062,161.630859 C93.0351577,161.16992 93.3359359,160.662112 93.65625,160.107422 L94.5,160.505859 L93.8240605,161.522112 C92.9653098,162.800864 92.2765651,163.774606 91.7578125,164.443359 Z M90.1875,167.173828 C91.4375062,166.876952 92.7070248,166.552736 93.9960938,166.201172 C94.0039063,166.474611 94.0156249,166.744139 94.03125,167.009766 L92.608519,167.402528 C91.8529051,167.61432 91.1552766,167.81543 90.515625,168.005859 L90.1875,167.173828 Z M113.835938,168.205078 C113.539061,168.525392 113.296876,168.822264 113.109375,169.095703 C111.117178,168.431637 109.542975,167.365242 108.386719,165.896484 L108.386719,169.681641 L107.484375,169.681641 L107.484375,165.896484 C106.359369,167.224616 104.81251,168.337886 102.84375,169.236328 C102.664062,169.001952 102.437501,168.73633 102.164062,168.439453 C103.820321,167.87695 105.249994,167.025396 106.453125,165.884766 L102.375,165.884766 L102.375,165.064453 L107.484375,165.064453 L107.484375,164.173828 L108.386719,164.173828 L108.386719,165.064453 L113.683594,165.064453 L113.683594,165.884766 L109.324219,165.884766 C110.457037,167.033209 111.960928,167.806639 113.835938,168.205078 Z M102.28125,159.158203 L105.5625,159.158203 L105.5625,158.056641 L106.476562,158.056641 L106.476562,159.158203 L109.523438,159.158203 L109.523438,158.056641 L110.4375,158.056641 L110.4375,159.158203 L113.753906,159.158203 L113.753906,159.990234 L110.4375,159.990234 L110.4375,160.658203 L109.523438,160.658203 L109.523438,159.990234 L106.476562,159.990234 L106.476562,160.763672 L105.5625,160.763672 L105.5625,159.990234 L102.28125,159.990234 L102.28125,159.158203 Z M103.089844,162.041016 L102.985677,161.509766 C102.96658,161.416016 102.946615,161.319662 102.925781,161.220703 C106.535174,161.18164 109.726549,161.060548 112.5,160.857422 L112.640625,161.677734 C109.781236,161.857422 106.597674,161.978515 103.089844,162.041016 Z M109.664062,163.962891 C110.195315,163.486326 110.792965,162.849613 111.457031,162.052734 L112.230469,162.662109 L111.282566,163.608625 C110.843587,164.041317 110.511119,164.358623 110.285156,164.560547 L109.664062,163.962891 Z M103.734375,162.767578 L104.449219,162.322266 L104.671441,162.611039 C104.946904,162.981023 105.279078,163.466794 105.667969,164.068359 L104.859375,164.583984 C104.507811,163.958981 104.132814,163.353519 103.734375,162.767578 Z M106.945312,162.392578 L107.683594,162.029297 C108.058596,162.576175 108.382811,163.103513 108.65625,163.611328 L107.824219,164.056641 C107.660155,163.634764 107.36719,163.080082 106.945312,162.392578 Z M114.234375,166.294922 L119.542969,166.294922 L119.542969,164.970703 L116.296875,164.970703 L116.296875,165.521484 L115.40625,165.521484 L115.40625,159.837891 L117.837891,159.837891 C117.462889,159.400388 117.058596,158.951174 116.625,158.490234 L117.292969,157.939453 C117.871097,158.494143 118.378904,159.005857 118.816406,159.474609 L118.382812,159.837891 L121.130859,159.837891 C121.560549,159.267575 121.996092,158.646488 122.4375,157.974609 L123.375,158.478516 C122.972654,158.966799 122.583986,159.41992 122.208984,159.837891 L124.605469,159.837891 L124.605469,165.521484 L123.714844,165.521484 L123.714844,164.970703 L120.457031,164.970703 L120.457031,166.294922 L125.765625,166.294922 L125.765625,167.138672 L120.457031,167.138672 L120.457031,169.611328 L119.542969,169.611328 L119.542969,167.138672 L114.234375,167.138672 L114.234375,166.294922 Z M120.457031,164.150391 L123.714844,164.150391 L123.714844,162.791016 L120.457031,162.791016 L120.457031,164.150391 Z M116.296875,164.150391 L119.542969,164.150391 L119.542969,162.791016 L116.296875,162.791016 L116.296875,164.150391 Z M123.714844,160.658203 L120.457031,160.658203 L120.457031,161.994141 L123.714844,161.994141 L123.714844,160.658203 Z M116.296875,161.994141 L119.542969,161.994141 L119.542969,160.658203 L116.296875,160.658203 L116.296875,161.994141 Z M126.837891,166.482422 C127.458987,166.962893 128.160152,167.203125 128.941406,167.203125 C129.566409,167.203125 130.061522,167.049806 130.426758,166.743164 C130.791994,166.436522 130.974609,166.025393 130.974609,165.509766 C130.974609,164.361322 130.152352,163.787109 128.507812,163.787109 L127.751953,163.787109 L127.751953,162.837891 L128.472656,162.837891 C129.929695,162.837891 130.658203,162.298834 130.658203,161.220703 C130.658203,160.224604 130.101568,159.726562 128.988281,159.726562 C128.351559,159.726562 127.751956,159.941404 127.189453,160.371094 L127.189453,159.287109 C127.783206,158.943358 128.476559,158.771484 129.269531,158.771484 C130.042973,158.771484 130.66406,158.973631 131.132812,159.37793 C131.601565,159.782229 131.835938,160.306637 131.835938,160.951172 C131.835938,162.138678 131.230475,162.902342 130.019531,163.242188 L130.019531,163.265625 C130.675785,163.335938 131.194334,163.567381 131.575195,163.959961 C131.956057,164.352541 132.146484,164.841794 132.146484,165.427734 C132.146484,166.244145 131.852542,166.902341 131.264648,167.402344 C130.676755,167.902346 129.894536,168.152344 128.917969,168.152344 C128.058589,168.152344 127.365237,167.992189 126.837891,167.671875 L126.837891,166.482422 Z" id="一级菜单3" fill="#333333" fill-rule="nonzero"></path>
                <path d="M89.21875,57.5332031 L98.78125,57.5332031 L98.78125,58.5410156 L89.21875,58.5410156 L89.21875,57.5332031 Z M88.3515625,65.2089844 L99.6132812,65.2089844 L99.6132812,66.1933594 L88.3515625,66.1933594 L88.3515625,65.2089844 Z M106.134766,61.2714844 C106.013671,63.8418097 105.214851,65.9199139 103.738281,67.5058594 C103.45703,67.224608 103.207032,67.0058602 102.988281,66.8496094 C103.904948,65.8828077 104.526203,64.8142679 104.85205,63.6439629 L104.933594,63.3222656 C105.218751,62.2050725 105.351563,60.287123 105.332031,57.5683594 L104.289062,57.5683594 L104.289062,56.7363281 L110.136719,56.7363281 L110.136719,57.6152344 L109,59.9707031 L110.945312,59.9707031 L110.945312,60.8378906 C110.492185,62.2519602 109.876957,63.488276 109.099609,64.546875 C109.853519,65.3125038 110.777338,65.9785128 111.871094,66.5449219 C111.636718,66.7714855 111.375001,67.0605451 111.085938,67.4121094 C110.054682,66.7597624 109.18555,66.0644568 108.478516,65.3261719 C107.67773,66.2324264 106.73438,66.9863251 105.648438,67.5878906 C105.429686,67.2988267 105.210939,67.0488292 104.992188,66.8378906 C106.117193,66.2011687 107.070309,65.4492231 107.851562,64.5820312 C107.148434,63.6523391 106.576174,62.5488345 106.134766,61.2714844 Z M108.027344,59.9472656 L109.152344,57.5683594 L106.222656,57.5683594 L106.224121,58.3828126 C106.223145,58.6464838 106.220703,58.9023425 106.216797,59.1503906 C106.814456,61.1738382 107.562496,62.7363226 108.460938,63.8378906 C109.125003,62.9316361 109.628905,61.9199275 109.972656,60.8027344 L108.027344,60.8027344 L108.027344,59.9472656 Z M101.757812,62.4433594 C102.570317,62.3574214 103.398433,62.2597662 104.242188,62.1503906 L104.148438,62.9121094 L104.148438,62.9121094 L103.09327,63.0469948 C102.244259,63.1601962 101.470986,63.27539 100.773438,63.3925781 L100.5625,62.5605469 C101.027346,62.1503886 101.611325,61.4043023 102.314453,60.3222656 C101.712888,60.3652346 101.093753,60.4199215 100.457031,60.4863281 L100.234375,59.7480469 C100.882816,59.0292933 101.636714,57.7793058 102.496094,55.9980469 L103.386719,56.3847656 L102.916092,57.1694553 C102.304842,58.1744561 101.758596,59.0144498 101.277344,59.6894531 L102.753906,59.6308594 L102.753906,59.6308594 C103.035158,59.1699196 103.335936,58.6621121 103.65625,58.1074219 L104.5,58.5058594 L103.824061,59.5221124 C102.96531,60.8008638 102.276565,61.774606 101.757812,62.4433594 Z M100.1875,65.1738281 C101.437506,64.8769516 102.707025,64.5527361 103.996094,64.2011719 C104.003906,64.4746107 104.015625,64.7441393 104.03125,65.0097656 L102.608519,65.4025276 C101.852905,65.6143195 101.155277,65.8154297 100.515625,66.0058594 L100.1875,65.1738281 Z M123.835938,66.2050781 C123.539061,66.5253922 123.296876,66.8222643 123.109375,67.0957031 C121.117178,66.4316373 119.542975,65.3652417 118.386719,63.8964844 L118.386719,67.6816406 L117.484375,67.6816406 L117.484375,63.8964844 C116.359369,65.224616 114.81251,66.3378861 112.84375,67.2363281 C112.664062,67.001952 112.437501,66.7363296 112.164062,66.4394531 C113.820321,65.8769503 115.249994,65.0253963 116.453125,63.8847656 L112.375,63.8847656 L112.375,63.0644531 L117.484375,63.0644531 L117.484375,62.1738281 L118.386719,62.1738281 L118.386719,63.0644531 L123.683594,63.0644531 L123.683594,63.8847656 L119.324219,63.8847656 C120.457037,65.0332089 121.960928,65.8066386 123.835938,66.2050781 Z M112.28125,57.1582031 L115.5625,57.1582031 L115.5625,56.0566406 L116.476562,56.0566406 L116.476562,57.1582031 L119.523438,57.1582031 L119.523438,56.0566406 L120.4375,56.0566406 L120.4375,57.1582031 L123.753906,57.1582031 L123.753906,57.9902344 L120.4375,57.9902344 L120.4375,58.6582031 L119.523438,58.6582031 L119.523438,57.9902344 L116.476562,57.9902344 L116.476562,58.7636719 L115.5625,58.7636719 L115.5625,57.9902344 L112.28125,57.9902344 L112.28125,57.1582031 Z M113.089844,60.0410156 L112.985677,59.509766 C112.96658,59.4160161 112.946615,59.319662 112.925781,59.2207031 C116.535174,59.1816404 119.726549,59.0605479 122.5,58.8574219 L122.640625,59.6777344 C119.781236,59.8574219 116.597674,59.9785153 113.089844,60.0410156 Z M119.664062,61.9628906 C120.195315,61.4863257 120.792965,60.8496134 121.457031,60.0527344 L122.230469,60.6621094 L121.282566,61.6086254 C120.843587,62.0413171 120.511119,62.3586228 120.285156,62.5605469 L119.664062,61.9628906 Z M113.734375,60.7675781 L114.449219,60.3222656 L114.671441,60.6110391 C114.946904,60.9810232 115.279078,61.4667939 115.667969,62.0683594 L114.859375,62.5839844 C114.507811,61.9589813 114.132814,61.3535186 113.734375,60.7675781 Z M116.945312,60.3925781 L117.683594,60.0292969 C118.058596,60.5761746 118.382811,61.1035131 118.65625,61.6113281 L117.824219,62.0566406 C117.660155,61.6347635 117.36719,61.0800816 116.945312,60.3925781 Z M124.234375,64.2949219 L129.542969,64.2949219 L129.542969,62.9707031 L126.296875,62.9707031 L126.296875,63.5214844 L125.40625,63.5214844 L125.40625,57.8378906 L127.837891,57.8378906 C127.462889,57.4003884 127.058596,56.9511742 126.625,56.4902344 L127.292969,55.9394531 C127.871097,56.4941434 128.378904,57.005857 128.816406,57.4746094 L128.382812,57.8378906 L131.130859,57.8378906 C131.560549,57.2675753 131.996092,56.6464877 132.4375,55.9746094 L133.375,56.4785156 C132.972654,56.9667993 132.583986,57.4199198 132.208984,57.8378906 L134.605469,57.8378906 L134.605469,63.5214844 L133.714844,63.5214844 L133.714844,62.9707031 L130.457031,62.9707031 L130.457031,64.2949219 L135.765625,64.2949219 L135.765625,65.1386719 L130.457031,65.1386719 L130.457031,67.6113281 L129.542969,67.6113281 L129.542969,65.1386719 L124.234375,65.1386719 L124.234375,64.2949219 Z M130.457031,62.1503906 L133.714844,62.1503906 L133.714844,60.7910156 L130.457031,60.7910156 L130.457031,62.1503906 Z M126.296875,62.1503906 L129.542969,62.1503906 L129.542969,60.7910156 L126.296875,60.7910156 L126.296875,62.1503906 Z M133.714844,58.6582031 L130.457031,58.6582031 L130.457031,59.9941406 L133.714844,59.9941406 L133.714844,58.6582031 Z M126.296875,59.9941406 L129.542969,59.9941406 L129.542969,58.6582031 L126.296875,58.6582031 L126.296875,59.9941406 Z M142.310547,66 L137.107422,66 L137.107422,65.0097656 L139.140625,65.0097656 L139.140625,58.1191406 L137.054688,58.7226562 L137.054688,57.6679688 L140.283203,56.7304688 L140.283203,65.0097656 L142.310547,65.0097656 L142.310547,66 Z" id="二级菜单1" fill="#5A6677" fill-rule="nonzero"></path>
                <path d="M89.21875,89.5332031 L98.78125,89.5332031 L98.78125,90.5410156 L89.21875,90.5410156 L89.21875,89.5332031 Z M88.3515625,97.2089844 L99.6132812,97.2089844 L99.6132812,98.1933594 L88.3515625,98.1933594 L88.3515625,97.2089844 Z M106.134766,93.2714844 C106.013671,95.8418097 105.214851,97.9199139 103.738281,99.5058594 C103.45703,99.224608 103.207032,99.0058602 102.988281,98.8496094 C103.904948,97.8828077 104.526203,96.8142679 104.85205,95.6439629 L104.933594,95.3222656 C105.218751,94.2050725 105.351563,92.287123 105.332031,89.5683594 L104.289062,89.5683594 L104.289062,88.7363281 L110.136719,88.7363281 L110.136719,89.6152344 L109,91.9707031 L110.945312,91.9707031 L110.945312,92.8378906 C110.492185,94.2519602 109.876957,95.488276 109.099609,96.546875 C109.853519,97.3125038 110.777338,97.9785128 111.871094,98.5449219 C111.636718,98.7714855 111.375001,99.0605451 111.085938,99.4121094 C110.054682,98.7597624 109.18555,98.0644568 108.478516,97.3261719 C107.67773,98.2324264 106.73438,98.9863251 105.648438,99.5878906 C105.429686,99.2988267 105.210939,99.0488292 104.992188,98.8378906 C106.117193,98.2011687 107.070309,97.4492231 107.851562,96.5820312 C107.148434,95.6523391 106.576174,94.5488345 106.134766,93.2714844 Z M108.027344,91.9472656 L109.152344,89.5683594 L106.222656,89.5683594 L106.224121,90.3828126 C106.223145,90.6464838 106.220703,90.9023425 106.216797,91.1503906 C106.814456,93.1738382 107.562496,94.7363226 108.460938,95.8378906 C109.125003,94.9316361 109.628905,93.9199275 109.972656,92.8027344 L108.027344,92.8027344 L108.027344,91.9472656 Z M101.757812,94.4433594 C102.570317,94.3574214 103.398433,94.2597662 104.242188,94.1503906 L104.148438,94.9121094 L104.148438,94.9121094 L103.09327,95.0469948 C102.244259,95.1601962 101.470986,95.27539 100.773438,95.3925781 L100.5625,94.5605469 C101.027346,94.1503886 101.611325,93.4043023 102.314453,92.3222656 C101.712888,92.3652346 101.093753,92.4199215 100.457031,92.4863281 L100.234375,91.7480469 C100.882816,91.0292933 101.636714,89.7793058 102.496094,87.9980469 L103.386719,88.3847656 L102.916092,89.1694553 C102.304842,90.1744561 101.758596,91.0144497 101.277344,91.6894531 L102.753906,91.6308594 L102.753906,91.6308594 C103.035158,91.1699196 103.335936,90.6621121 103.65625,90.1074219 L104.5,90.5058594 L103.824061,91.5221124 C102.96531,92.8008638 102.276565,93.774606 101.757812,94.4433594 Z M100.1875,97.1738281 C101.437506,96.8769516 102.707025,96.5527361 103.996094,96.2011719 C104.003906,96.4746107 104.015625,96.7441393 104.03125,97.0097656 L102.608519,97.4025276 C101.852905,97.6143195 101.155277,97.8154297 100.515625,98.0058594 L100.1875,97.1738281 Z M123.835938,98.2050781 C123.539061,98.5253922 123.296876,98.8222643 123.109375,99.0957031 C121.117178,98.4316373 119.542975,97.3652417 118.386719,95.8964844 L118.386719,99.6816406 L117.484375,99.6816406 L117.484375,95.8964844 C116.359369,97.224616 114.81251,98.3378861 112.84375,99.2363281 C112.664062,99.001952 112.437501,98.7363296 112.164062,98.4394531 C113.820321,97.8769503 115.249994,97.0253963 116.453125,95.8847656 L112.375,95.8847656 L112.375,95.0644531 L117.484375,95.0644531 L117.484375,94.1738281 L118.386719,94.1738281 L118.386719,95.0644531 L123.683594,95.0644531 L123.683594,95.8847656 L119.324219,95.8847656 C120.457037,97.0332089 121.960928,97.8066386 123.835938,98.2050781 Z M112.28125,89.1582031 L115.5625,89.1582031 L115.5625,88.0566406 L116.476562,88.0566406 L116.476562,89.1582031 L119.523438,89.1582031 L119.523438,88.0566406 L120.4375,88.0566406 L120.4375,89.1582031 L123.753906,89.1582031 L123.753906,89.9902344 L120.4375,89.9902344 L120.4375,90.6582031 L119.523438,90.6582031 L119.523438,89.9902344 L116.476562,89.9902344 L116.476562,90.7636719 L115.5625,90.7636719 L115.5625,89.9902344 L112.28125,89.9902344 L112.28125,89.1582031 Z M113.089844,92.0410156 L112.985677,91.509766 C112.96658,91.4160161 112.946615,91.319662 112.925781,91.2207031 C116.535174,91.1816404 119.726549,91.0605479 122.5,90.8574219 L122.640625,91.6777344 C119.781236,91.8574219 116.597674,91.9785153 113.089844,92.0410156 Z M119.664062,93.9628906 C120.195315,93.4863257 120.792965,92.8496134 121.457031,92.0527344 L122.230469,92.6621094 L121.282566,93.6086254 C120.843587,94.0413171 120.511119,94.3586228 120.285156,94.5605469 L119.664062,93.9628906 Z M113.734375,92.7675781 L114.449219,92.3222656 L114.671441,92.6110391 C114.946904,92.9810232 115.279078,93.4667939 115.667969,94.0683594 L114.859375,94.5839844 C114.507811,93.9589812 114.132814,93.3535186 113.734375,92.7675781 Z M116.945312,92.3925781 L117.683594,92.0292969 C118.058596,92.5761746 118.382811,93.1035131 118.65625,93.6113281 L117.824219,94.0566406 C117.660155,93.6347635 117.36719,93.0800816 116.945312,92.3925781 Z M124.234375,96.2949219 L129.542969,96.2949219 L129.542969,94.9707031 L126.296875,94.9707031 L126.296875,95.5214844 L125.40625,95.5214844 L125.40625,89.8378906 L127.837891,89.8378906 C127.462889,89.4003884 127.058596,88.9511742 126.625,88.4902344 L127.292969,87.9394531 C127.871097,88.4941434 128.378904,89.005857 128.816406,89.4746094 L128.382812,89.8378906 L131.130859,89.8378906 C131.560549,89.2675753 131.996092,88.6464877 132.4375,87.9746094 L133.375,88.4785156 C132.972654,88.9667993 132.583986,89.4199198 132.208984,89.8378906 L134.605469,89.8378906 L134.605469,95.5214844 L133.714844,95.5214844 L133.714844,94.9707031 L130.457031,94.9707031 L130.457031,96.2949219 L135.765625,96.2949219 L135.765625,97.1386719 L130.457031,97.1386719 L130.457031,99.6113281 L129.542969,99.6113281 L129.542969,97.1386719 L124.234375,97.1386719 L124.234375,96.2949219 Z M130.457031,94.1503906 L133.714844,94.1503906 L133.714844,92.7910156 L130.457031,92.7910156 L130.457031,94.1503906 Z M126.296875,94.1503906 L129.542969,94.1503906 L129.542969,92.7910156 L126.296875,92.7910156 L126.296875,94.1503906 Z M133.714844,90.6582031 L130.457031,90.6582031 L130.457031,91.9941406 L133.714844,91.9941406 L133.714844,90.6582031 Z M126.296875,91.9941406 L129.542969,91.9941406 L129.542969,90.6582031 L126.296875,90.6582031 L126.296875,91.9941406 Z M142.140625,98 L136.621094,98 L136.621094,97.0039062 L139.257812,94.3730469 C139.984379,93.6464807 140.470702,93.0712912 140.716797,92.6474609 C140.962892,92.2236307 141.085938,91.7851585 141.085938,91.3320312 C141.085938,90.8164037 140.941408,90.4208998 140.652344,90.1455078 C140.36328,89.8701158 139.945315,89.7324219 139.398438,89.7324219 C138.58984,89.7324219 137.818363,90.0761684 137.083984,90.7636719 L137.083984,89.5976562 C137.798832,89.0468722 138.630855,88.7714844 139.580078,88.7714844 C140.396488,88.7714844 141.041013,88.9921853 141.513672,89.4335938 C141.98633,89.8750022 142.222656,90.4687463 142.222656,91.2148438 C142.222656,91.7773466 142.071291,92.3290989 141.768555,92.8701172 C141.465819,93.4111355 140.892582,94.0996052 140.048828,94.9355469 L137.980469,96.9570312 L137.980469,96.9804688 L142.140625,96.9804688 L142.140625,98 Z" id="二级菜单2" fill="#5A6677" fill-rule="nonzero"></path>
                <g id="arrow-down" transform="translate(60.000000, 20.000000)">
                    <rect id="Rectangle" fill="#D8D8D8" opacity="0.01" x="0" y="0" width="10" height="10"></rect>
                    <mask id="mask-4" fill="white">
                        <use xlink:href="#path-3"></use>
                    </mask>
                    <use id="Path-2" fill="#333333" fill-rule="nonzero" xlink:href="#path-3"></use>
                </g>
                <g id="arrow-down" transform="translate(65.000000, 129.000000) rotate(-90.000000) translate(-65.000000, -129.000000) translate(60.000000, 124.000000)">
                    <rect id="Rectangle" fill="#D8D8D8" opacity="0.01" x="0" y="0" width="10" height="10"></rect>
                    <mask id="mask-6" fill="white">
                        <use xlink:href="#path-5"></use>
                    </mask>
                    <use id="Path-2" fill="#333333" fill-rule="nonzero" xlink:href="#path-5"></use>
                </g>
                <text id="样式一" font-family="MicrosoftYaHei, Microsoft YaHei" font-size="12" font-weight="normal" line-spacing="22" fill="#525A6E">
                    <tspan x="8" y="27">样式一</tspan>
                </text>
            </g>
        </g>
    </g>
</svg>