<?xml version="1.0" encoding="UTF-8"?>
<svg width="494px" height="479px" viewBox="0 0 494 479" version="1.1" xmlns="http://www.w3.org/2000/svg" xmlns:xlink="http://www.w3.org/1999/xlink">
    <!-- Generator: Sketch 58 (84663) - https://sketch.com -->
    <title>notification-prompt/style2</title>
    <desc>Created with Sketch.</desc>
    <defs>
        <rect id="path-1" x="0" y="0" width="350" height="102" rx="2"></rect>
        <filter x="-5.7%" y="-15.7%" width="111.4%" height="139.2%" filterUnits="objectBoundingBox" id="filter-2">
            <feOffset dx="0" dy="4" in="SourceAlpha" result="shadowOffsetOuter1"></feOffset>
            <feGaussianBlur stdDeviation="6" in="shadowOffsetOuter1" result="shadowBlurOuter1"></feGaussianBlur>
            <feColorMatrix values="0 0 0 0 0   0 0 0 0 0   0 0 0 0 0  0 0 0 0.15 0" type="matrix" in="shadowBlurOuter1"></feColorMatrix>
        </filter>
        <rect id="path-3" x="0" y="0" width="350" height="102" rx="2"></rect>
        <filter x="-5.7%" y="-15.7%" width="111.4%" height="139.2%" filterUnits="objectBoundingBox" id="filter-4">
            <feOffset dx="0" dy="4" in="SourceAlpha" result="shadowOffsetOuter1"></feOffset>
            <feGaussianBlur stdDeviation="6" in="shadowOffsetOuter1" result="shadowBlurOuter1"></feGaussianBlur>
            <feColorMatrix values="0 0 0 0 0   0 0 0 0 0   0 0 0 0 0  0 0 0 0.15 0" type="matrix" in="shadowBlurOuter1"></feColorMatrix>
        </filter>
        <rect id="path-5" x="0" y="0" width="350" height="102" rx="2"></rect>
        <filter x="-5.7%" y="-15.7%" width="111.4%" height="139.2%" filterUnits="objectBoundingBox" id="filter-6">
            <feOffset dx="0" dy="4" in="SourceAlpha" result="shadowOffsetOuter1"></feOffset>
            <feGaussianBlur stdDeviation="6" in="shadowOffsetOuter1" result="shadowBlurOuter1"></feGaussianBlur>
            <feColorMatrix values="0 0 0 0 0   0 0 0 0 0   0 0 0 0 0  0 0 0 0.15 0" type="matrix" in="shadowBlurOuter1"></feColorMatrix>
        </filter>
        <rect id="path-7" x="0" y="0" width="350" height="102" rx="2"></rect>
        <filter x="-5.7%" y="-15.7%" width="111.4%" height="139.2%" filterUnits="objectBoundingBox" id="filter-8">
            <feOffset dx="0" dy="4" in="SourceAlpha" result="shadowOffsetOuter1"></feOffset>
            <feGaussianBlur stdDeviation="6" in="shadowOffsetOuter1" result="shadowBlurOuter1"></feGaussianBlur>
            <feColorMatrix values="0 0 0 0 0   0 0 0 0 0   0 0 0 0 0  0 0 0 0.15 0" type="matrix" in="shadowBlurOuter1"></feColorMatrix>
        </filter>
    </defs>
    <g id="页面-1" stroke="none" stroke-width="1" fill="none" fill-rule="evenodd">
        <g id="配置组件V10分页3" transform="translate(-730.000000, -2524.000000)">
            <g id="编组-35" transform="translate(224.000000, 2235.000000)">
                <g id="notification-prompt/style2" transform="translate(506.000000, 289.000000)">
                    <rect id="矩形" fill-opacity="0.01" fill="#FAFAFA" x="0" y="0" width="494" height="479"></rect>
                    <g id="编组-18" transform="translate(52.000000, 129.000000)">
                        <g id="矩形">
                            <use fill="black" fill-opacity="1" filter="url(#filter-2)" xlink:href="#path-1"></use>
                            <use fill="#FFFFFF" fill-rule="evenodd" xlink:href="#path-1"></use>
                        </g>
                        <g id="编组-13" transform="translate(320.000000, 16.000000)">
                            <rect id="矩形" fill="#D8D8D8" opacity="0.01" x="0" y="0" width="14" height="14"></rect>
                            <path d="M7.70710678,7 L11.9497475,11.2426407 C12.1450096,11.4379028 12.1450096,11.7544853 11.9497475,11.9497475 C11.7544853,12.1450096 11.4379028,12.1450096 11.2426407,11.9497475 L7,7.70710678 L2.75735931,11.9497475 C2.56209717,12.1450096 2.24551468,12.1450096 2.05025253,11.9497475 C1.85499039,11.7544853 1.85499039,11.4379028 2.05025253,11.2426407 L6.29289322,7 L2.05025253,2.75735931 C1.85499039,2.56209717 1.85499039,2.24551468 2.05025253,2.05025253 C2.24551468,1.85499039 2.56209717,1.85499039 2.75735931,2.05025253 L7,6.29289322 L11.2426407,2.05025253 C11.4379028,1.85499039 11.7544853,1.85499039 11.9497475,2.05025253 C12.1450096,2.24551468 12.1450096,2.56209717 11.9497475,2.75735931 L7.70710678,7 Z" id="路径" fill="#AAADBA"></path>
                        </g>
                        <text id="A-success-prompt！" font-family="ArialMT, Arial" font-size="14" font-weight="normal" line-spacing="22" fill="#333333">
                            <tspan x="48" y="29">A success prompt</tspan>
                            <tspan x="158.489258" y="29" font-family="PingFangSC-Regular, PingFang SC">！</tspan>
                        </text>
                        <g id="success" transform="translate(16.000000, 41.000000)">
                            <circle id="椭圆形" fill="#39C878" cx="10" cy="10" r="10"></circle>
                            <path d="M7,6 L7,10 L16,10 L16,12 L5,12 L5,10 L5,6 L7,6 Z" id="矩形-3" fill="#FFFFFF" transform="translate(10.500000, 9.000000) rotate(-45.000000) translate(-10.500000, -9.000000) "></path>
                        </g>
                        <text id="Content-of-prompt.-C" font-family="ArialMT, Arial" font-size="12" font-weight="normal" line-spacing="20" fill="#5A6677">
                            <tspan x="48" y="55">Content of prompt. Content of prompt. Content of </tspan>
                            <tspan x="48" y="75">prompt. Content of prompt.</tspan>
                        </text>
                    </g>
                    <g id="编组-18" transform="translate(52.000000, 15.000000)">
                        <g id="矩形">
                            <use fill="black" fill-opacity="1" filter="url(#filter-4)" xlink:href="#path-3"></use>
                            <use fill="#FFFFFF" fill-rule="evenodd" xlink:href="#path-3"></use>
                        </g>
                        <g id="编组-13" transform="translate(320.000000, 16.000000)">
                            <rect id="矩形" fill="#D8D8D8" opacity="0.01" x="0" y="0" width="14" height="14"></rect>
                            <path d="M7.70710678,7 L11.9497475,11.2426407 C12.1450096,11.4379028 12.1450096,11.7544853 11.9497475,11.9497475 C11.7544853,12.1450096 11.4379028,12.1450096 11.2426407,11.9497475 L7,7.70710678 L2.75735931,11.9497475 C2.56209717,12.1450096 2.24551468,12.1450096 2.05025253,11.9497475 C1.85499039,11.7544853 1.85499039,11.4379028 2.05025253,11.2426407 L6.29289322,7 L2.05025253,2.75735931 C1.85499039,2.56209717 1.85499039,2.24551468 2.05025253,2.05025253 C2.24551468,1.85499039 2.56209717,1.85499039 2.75735931,2.05025253 L7,6.29289322 L11.2426407,2.05025253 C11.4379028,1.85499039 11.7544853,1.85499039 11.9497475,2.05025253 C12.1450096,2.24551468 12.1450096,2.56209717 11.9497475,2.75735931 L7.70710678,7 Z" id="路径" fill="#AAADBA"></path>
                        </g>
                        <text id="An-info-prompt！" font-family="ArialMT, Arial" font-size="14" font-weight="normal" line-spacing="22" fill="#333333">
                            <tspan x="48" y="29">An info prompt</tspan>
                            <tspan x="139.047852" y="29" font-family="PingFangSC-Regular, PingFang SC">！</tspan>
                        </text>
                        <g id="info" transform="translate(16.000000, 41.000000)">
                            <circle id="椭圆形" fill="#4F7DE7" cx="10" cy="10" r="10"></circle>
                            <rect id="矩形" fill="#FFFFFF" x="9" y="8" width="2" height="8"></rect>
                            <polygon id="矩形" fill="#FFFFFF" points="8.5 4 11.5 4 11 7 9 7"></polygon>
                        </g>
                        <text id="Content-of-prompt.-C" font-family="ArialMT, Arial" font-size="12" font-weight="normal" line-spacing="20" fill="#5A6677">
                            <tspan x="48" y="55">Content of prompt. Content of prompt. Content of </tspan>
                            <tspan x="48" y="75">prompt. Content of prompt.</tspan>
                        </text>
                    </g>
                    <g id="编组-18" transform="translate(52.000000, 243.000000)">
                        <g id="矩形">
                            <use fill="black" fill-opacity="1" filter="url(#filter-6)" xlink:href="#path-5"></use>
                            <use fill="#FFFFFF" fill-rule="evenodd" xlink:href="#path-5"></use>
                        </g>
                        <g id="编组-13" transform="translate(320.000000, 16.000000)">
                            <rect id="矩形" fill="#D8D8D8" opacity="0.01" x="0" y="0" width="14" height="14"></rect>
                            <path d="M7.70710678,7 L11.9497475,11.2426407 C12.1450096,11.4379028 12.1450096,11.7544853 11.9497475,11.9497475 C11.7544853,12.1450096 11.4379028,12.1450096 11.2426407,11.9497475 L7,7.70710678 L2.75735931,11.9497475 C2.56209717,12.1450096 2.24551468,12.1450096 2.05025253,11.9497475 C1.85499039,11.7544853 1.85499039,11.4379028 2.05025253,11.2426407 L6.29289322,7 L2.05025253,2.75735931 C1.85499039,2.56209717 1.85499039,2.24551468 2.05025253,2.05025253 C2.24551468,1.85499039 2.56209717,1.85499039 2.75735931,2.05025253 L7,6.29289322 L11.2426407,2.05025253 C11.4379028,1.85499039 11.7544853,1.85499039 11.9497475,2.05025253 C12.1450096,2.24551468 12.1450096,2.56209717 11.9497475,2.75735931 L7.70710678,7 Z" id="路径" fill="#AAADBA"></path>
                        </g>
                        <text id="A-warning-prompt！" font-family="ArialMT, Arial" font-size="14" font-weight="normal" line-spacing="22" fill="#333333">
                            <tspan x="48" y="29">A warning prompt</tspan>
                            <tspan x="156.944336" y="29" font-family="PingFangSC-Regular, PingFang SC">！</tspan>
                        </text>
                        <g id="warning" transform="translate(16.000000, 41.000000)">
                            <circle id="椭圆形" fill="#F8B303" cx="10" cy="10" r="10"></circle>
                            <polygon id="矩形" fill="#FFFFFF" points="8.5 5 11.5 5 11 12 9 12"></polygon>
                            <rect id="矩形" fill="#FFFFFF" x="9" y="13" width="2" height="2"></rect>
                        </g>
                        <text id="Content-of-prompt.-C" font-family="ArialMT, Arial" font-size="12" font-weight="normal" line-spacing="20" fill="#5A6677">
                            <tspan x="48" y="55">Content of prompt. Content of prompt. Content of </tspan>
                            <tspan x="48" y="75">prompt. Content of prompt.</tspan>
                        </text>
                    </g>
                    <g id="编组-18" transform="translate(52.000000, 357.000000)">
                        <g id="矩形">
                            <use fill="black" fill-opacity="1" filter="url(#filter-8)" xlink:href="#path-7"></use>
                            <use fill="#FFFFFF" fill-rule="evenodd" xlink:href="#path-7"></use>
                        </g>
                        <g id="编组-13" transform="translate(320.000000, 16.000000)">
                            <rect id="矩形" fill="#D8D8D8" opacity="0.01" x="0" y="0" width="14" height="14"></rect>
                            <path d="M7.70710678,7 L11.9497475,11.2426407 C12.1450096,11.4379028 12.1450096,11.7544853 11.9497475,11.9497475 C11.7544853,12.1450096 11.4379028,12.1450096 11.2426407,11.9497475 L7,7.70710678 L2.75735931,11.9497475 C2.56209717,12.1450096 2.24551468,12.1450096 2.05025253,11.9497475 C1.85499039,11.7544853 1.85499039,11.4379028 2.05025253,11.2426407 L6.29289322,7 L2.05025253,2.75735931 C1.85499039,2.56209717 1.85499039,2.24551468 2.05025253,2.05025253 C2.24551468,1.85499039 2.56209717,1.85499039 2.75735931,2.05025253 L7,6.29289322 L11.2426407,2.05025253 C11.4379028,1.85499039 11.7544853,1.85499039 11.9497475,2.05025253 C12.1450096,2.24551468 12.1450096,2.56209717 11.9497475,2.75735931 L7.70710678,7 Z" id="路径" fill="#AAADBA"></path>
                        </g>
                        <text id="An-error-prompt！" font-family="ArialMT, Arial" font-size="14" font-weight="normal" line-spacing="22" fill="#333333">
                            <tspan x="48" y="29">An error prompt</tspan>
                            <tspan x="146.03418" y="29" font-family="PingFangSC-Regular, PingFang SC">！</tspan>
                        </text>
                        <g id="error" transform="translate(16.000000, 41.000000)">
                            <circle id="椭圆形" fill="#FD6868" cx="10" cy="10" r="10"></circle>
                            <path d="M11,4 L11,9 L16,9 L16,11 L10.999,11 L11,16 L9,16 L8.999,11 L4,11 L4,9 L9,9 L9,4 L11,4 Z" id="矩形-5" fill="#FFFFFF" transform="translate(10.000000, 10.000000) rotate(-315.000000) translate(-10.000000, -10.000000) "></path>
                        </g>
                        <text id="Custom-error-descrip" font-family="ArialMT, Arial" font-size="12" font-weight="normal" line-spacing="20" fill="#5A6677">
                            <tspan x="48" y="55">Custom error description copywriting. Custom error </tspan>
                            <tspan x="48" y="75">description copywriting. </tspan>
                        </text>
                    </g>
                    <g id="style2" transform="translate(12.000000, 14.000000)" fill="#525A6E" font-family="ArialMT, Arial" font-size="12" font-weight="normal">
                        <text>
                            <tspan x="0.65234375" y="15">style2</tspan>
                        </text>
                    </g>
                </g>
            </g>
        </g>
    </g>
</svg>