<?xml version="1.0" encoding="UTF-8"?>
<svg width="494px" height="300px" viewBox="0 0 494 300" version="1.1" xmlns="http://www.w3.org/2000/svg" xmlns:xlink="http://www.w3.org/1999/xlink">
    <!-- Generator: Sketch 58 (84663) - https://sketch.com -->
    <title>transfer/style2</title>
    <desc>Created with Sketch.</desc>
    <g id="页面-1" stroke="none" stroke-width="1" fill="none" fill-rule="evenodd">
        <g id="transfer/style2">
            <rect id="矩形备份-31" fill-opacity="0.01" fill="#FFFFFF" x="0" y="0" width="494" height="300"></rect>
            <g id="编组-10" transform="translate(54.000000, 14.000000)">
                <rect id="outline备份-6" stroke="#DBDFE6" fill="#FFFFFF" fill-rule="nonzero" x="0.5" y="0.5" width="427" height="269" rx="2"></rect>
                <g id="9.Box/2.Row/1.Border.bottom备份-2" fill-rule="nonzero">
                    <rect id="BG/fill" opacity="0" x="0" y="0" width="240" height="32"></rect>
                    <rect id="divider/fill" fill="#DBDFE6" x="1" y="31" width="426" height="1"></rect>
                </g>
                <path d="M139.654297,17.2226562 C139.681641,17.7109399 139.796874,18.1074204 140,18.4121094 C140.386721,18.9824247 141.068354,19.2675781 142.044922,19.2675781 C142.482424,19.2675781 142.880858,19.2050787 143.240234,19.0800781 C143.93555,18.8378894 144.283203,18.4043 144.283203,17.7792969 C144.283203,17.3105445 144.13672,16.9765635 143.84375,16.7773438 C143.546874,16.5820303 143.082034,16.4121101 142.449219,16.2675781 L141.283203,16.0039062 C140.521481,15.8320304 139.982423,15.6425792 139.666016,15.4355469 C139.119138,15.0761701 138.845703,14.5390661 138.845703,13.8242188 C138.845703,13.0507774 139.113279,12.4160181 139.648438,11.9199219 C140.183596,11.4238256 140.941401,11.1757812 141.921875,11.1757812 C142.824223,11.1757812 143.590817,11.3935525 144.22168,11.8291016 C144.852542,12.2646506 145.167969,12.9609327 145.167969,13.9179688 L144.072266,13.9179688 C144.013672,13.4570289 143.888673,13.1035169 143.697266,12.8574219 C143.341795,12.4082009 142.738286,12.1835938 141.886719,12.1835938 C141.199215,12.1835938 140.70508,12.3281236 140.404297,12.6171875 C140.103514,12.9062514 139.953125,13.2421856 139.953125,13.625 C139.953125,14.0468771 140.128904,14.3554678 140.480469,14.5507812 C140.689987,14.6644176 141.140008,14.8038796 141.830545,14.9691695 L143.251953,15.2949219 C143.833987,15.427735 144.283202,15.6093738 144.599609,15.8398438 C145.146487,16.2421895 145.419922,16.826168 145.419922,17.5917969 C145.419922,18.5449266 145.073246,19.2265604 144.379883,19.6367188 C143.68652,20.0468771 142.880864,20.2519531 141.962891,20.2519531 C140.892573,20.2519531 140.054691,19.9785184 139.449219,19.4316406 C138.843747,18.8886692 138.546875,18.1523484 138.558594,17.2226562 L139.654297,17.2226562 Z M149.246094,19.3203125 C149.945316,19.3203125 150.424803,19.0556667 150.68457,18.5263672 C150.944337,17.9970677 151.074219,17.4082064 151.074219,16.7597656 C151.074219,16.1738252 150.98047,15.6972675 150.792969,15.3300781 C150.496092,14.7519502 149.984379,14.4628906 149.257813,14.4628906 C148.613278,14.4628906 148.144533,14.7089819 147.851563,15.2011719 C147.558592,15.6933618 147.412109,16.2871059 147.412109,16.9824219 C147.412109,17.650394 147.558592,18.207029 147.851563,18.6523438 C148.144533,19.0976585 148.609372,19.3203125 149.246094,19.3203125 Z M149.287109,13.5429688 C150.095707,13.5429688 150.779294,13.8124973 151.337891,14.3515625 C151.896487,14.8906277 152.175781,15.6835885 152.175781,16.7304688 C152.175781,17.7421926 151.92969,18.5781217 151.4375,19.2382812 C150.94531,19.8984408 150.181646,20.2285156 149.146484,20.2285156 C148.283199,20.2285156 147.597659,19.9365264 147.089844,19.3525391 C146.582029,18.7685518 146.328125,17.9843799 146.328125,17 C146.328125,15.9453072 146.5957,15.1054719 147.130859,14.4804688 C147.666018,13.8554656 148.384761,13.5429688 149.287109,13.5429688 Z M154.484375,13.7246094 L154.484375,17.890625 C154.484375,18.2109391 154.535156,18.4726552 154.636719,18.6757812 C154.82422,19.0507831 155.173826,19.2382812 155.685547,19.2382812 C156.419926,19.2382812 156.919921,18.9101595 157.185547,18.2539062 C157.330079,17.902342 157.402344,17.4199249 157.402344,16.8066406 L157.402344,13.7246094 L158.457031,13.7246094 L158.457031,20 L157.460938,20 L157.472656,19.0742188 C157.335937,19.3125012 157.166017,19.5136711 156.962891,19.6777344 C156.560545,20.005861 156.072268,20.1699219 155.498047,20.1699219 C154.603511,20.1699219 153.994142,19.8710967 153.669922,19.2734375 C153.49414,18.9531234 153.40625,18.5253933 153.40625,17.9902344 L153.40625,13.7246094 L154.484375,13.7246094 Z M160.132813,13.7246094 L161.134766,13.7246094 L161.134766,14.8085938 C161.216797,14.5976552 161.417967,14.3408218 161.738281,14.0380859 C162.058595,13.73535 162.427732,13.5839844 162.845703,13.5839844 L163.040527,13.5986328 C163.080566,13.602539 163.128906,13.6074218 163.185547,13.6132812 L163.185547,14.7265625 C163.123047,14.7148437 163.06543,14.7070313 163.012695,14.703125 C162.959961,14.6992187 162.902344,14.6972656 162.839844,14.6972656 C162.308591,14.6972656 161.900392,14.8681624 161.615234,15.2099609 C161.330077,15.5517595 161.1875,15.9453103 161.1875,16.390625 L161.1875,20 L160.132813,20 L160.132813,13.7246094 Z M166.519531,13.5429688 C167.226566,13.5429688 167.801756,13.714842 168.245117,14.0585938 C168.688479,14.4023455 168.955078,14.9941364 169.044922,15.8339844 L168.019531,15.8339844 C167.957031,15.4472637 167.814454,15.1259778 167.591797,14.8701172 C167.36914,14.6142565 167.011721,14.4863281 166.519531,14.4863281 C165.847653,14.4863281 165.367189,14.8144498 165.078125,15.4707031 C164.890624,15.8964865 164.796875,16.4218719 164.796875,17.046875 C164.796875,17.6757844 164.929686,18.205076 165.195313,18.6347656 C165.460939,19.0644553 165.878903,19.2792969 166.449219,19.2792969 C166.886721,19.2792969 167.233397,19.1455092 167.489258,18.8779297 C167.745118,18.6103502 167.921875,18.2441429 168.019531,17.7792969 L169.044922,17.7792969 C168.927734,18.6113323 168.634768,19.2197246 168.166016,19.6044922 C167.697263,19.9892597 167.09766,20.1816406 166.367188,20.1816406 C165.546871,20.1816406 164.892581,19.8818389 164.404297,19.2822266 C163.916013,18.6826142 163.671875,17.9335982 163.671875,17.0351562 C163.671875,15.9335882 163.93945,15.0761749 164.474609,14.4628906 C165.009768,13.8496063 165.691402,13.5429688 166.519531,13.5429688 Z M172.712891,13.5839844 C173.158205,13.5839844 173.589842,13.6884755 174.007813,13.8974609 C174.425783,14.1064464 174.74414,14.3769515 174.962891,14.7089844 C175.131641,14.9621106 175.255391,15.2489835 175.334141,15.5696087 L175.384766,15.8164062 C175.447266,16.1054702 175.478516,16.5664031 175.478516,17.1992188 L170.878906,17.1992188 C170.898438,17.8359407 171.048827,18.3466778 171.330078,18.7314453 C171.61133,19.1162129 172.046872,19.3085938 172.636719,19.3085938 C173.187503,19.3085938 173.626951,19.1269549 173.955078,18.7636719 C174.142579,18.5527333 174.27539,18.3085951 174.353516,18.03125 L175.390625,18.03125 C175.363281,18.2617199 175.272462,18.5185533 175.118164,18.8017578 C174.963866,19.0849624 174.791017,19.3164054 174.599609,19.4960938 C174.279295,19.8085953 173.882815,20.0195307 173.410156,20.1289062 C173.156249,20.1914066 172.869142,20.2226562 172.548828,20.2226562 C171.767574,20.2226562 171.105471,19.9384794 170.5625,19.3701172 C170.019529,18.801755 169.748047,18.0058645 169.748047,16.9824219 C169.748047,15.9746043 170.021482,15.1562531 170.568359,14.5273438 C171.115237,13.8984344 171.830074,13.5839844 172.712891,13.5839844 Z M172.648438,14.5039062 C172.16406,14.5039062 171.757814,14.6787092 171.429688,15.0283203 C171.101561,15.3779314 170.927734,15.8222629 170.908203,16.3613281 L170.908203,16.3613281 L174.394531,16.3613281 C174.351562,15.9042946 174.251954,15.5390639 174.095703,15.265625 C173.806639,14.75781 173.324222,14.5039062 172.648438,14.5039062 Z" id="Source" fill="#525A6E" fill-rule="nonzero"></path>
                <path d="M388.826172,11.3925781 L388.826172,12.4179688 L385.925781,12.4179688 L385.925781,20 L384.742188,20 L384.742188,12.4179688 L381.841797,12.4179688 L381.841797,11.3925781 L388.826172,11.3925781 Z M389.230469,18.3300781 C389.230469,18.6347671 389.341796,18.8749991 389.564453,19.0507812 C389.78711,19.2265634 390.05078,19.3144531 390.355469,19.3144531 C390.726564,19.3144531 391.085936,19.2285165 391.433594,19.0566406 C392.019534,18.7714829 392.3125,18.3046907 392.3125,17.65625 L392.3125,16.8066406 C392.183593,16.8886723 392.017579,16.957031 391.814453,17.0117188 C391.611327,17.0664065 391.41211,17.1054686 391.216797,17.1289062 L390.578125,17.2109375 C390.195311,17.261719 389.908204,17.3417963 389.716797,17.4511719 C389.392577,17.6347665 389.230469,17.9277324 389.230469,18.3300781 Z M391.785156,16.1972656 C392.027345,16.1660155 392.189453,16.064454 392.271484,15.8925781 C392.31836,15.7988277 392.341797,15.6640634 392.341797,15.4882812 C392.341797,15.1289045 392.213868,14.8681649 391.958008,14.7060547 C391.702147,14.5439445 391.33594,14.4628906 390.859375,14.4628906 C390.308591,14.4628906 389.91797,14.6113266 389.6875,14.9082031 C389.558593,15.0722656 389.47461,15.3164046 389.435547,15.640625 L388.451172,15.640625 C388.470703,14.8671836 388.721677,14.3291031 389.204102,14.0263672 C389.686526,13.7236313 390.246091,13.5722656 390.882812,13.5722656 C391.621097,13.5722656 392.220701,13.7128892 392.681641,13.9941406 C393.138674,14.275392 393.367188,14.7128877 393.367188,15.3066406 L393.367188,18.921875 C393.367188,19.0312505 393.389648,19.1191403 393.43457,19.1855469 C393.479492,19.2519535 393.574218,19.2851562 393.71875,19.2851562 L393.876953,19.2763672 L393.876953,19.2763672 C393.935547,19.2705078 393.998047,19.2617188 394.064453,19.25 L394.064453,20.0292969 C393.90039,20.0761721 393.775391,20.1054687 393.689453,20.1171875 L393.537109,20.1303711 C393.478516,20.1333008 393.41211,20.1347656 393.337891,20.1347656 C392.974608,20.1347656 392.710938,20.0058607 392.546875,19.7480469 C392.460937,19.6113274 392.400391,19.41797 392.365234,19.1679688 C392.15039,19.4492202 391.841799,19.6933583 391.439453,19.9003906 C391.037107,20.1074229 390.593752,20.2109375 390.109375,20.2109375 C389.527341,20.2109375 389.05176,20.0341815 388.682617,19.6806641 C388.313475,19.3271467 388.128906,18.8847683 388.128906,18.3535156 C388.128906,17.7714815 388.310545,17.3203141 388.673828,17 C389.037111,16.6796859 389.513669,16.4824222 390.103516,16.4082031 L391.785156,16.1972656 Z M395.125,13.7246094 L396.126953,13.7246094 L396.126953,14.8085938 C396.208985,14.5976552 396.410155,14.3408218 396.730469,14.0380859 C397.050783,13.73535 397.41992,13.5839844 397.837891,13.5839844 L398.032715,13.5986328 C398.072754,13.602539 398.121093,13.6074218 398.177734,13.6132812 L398.177734,14.7265625 C398.115234,14.7148437 398.057617,14.7070313 398.004883,14.703125 C397.952148,14.6992187 397.894532,14.6972656 397.832031,14.6972656 C397.300779,14.6972656 396.89258,14.8681624 396.607422,15.2099609 C396.322264,15.5517595 396.179688,15.9453103 396.179688,16.390625 L396.179688,20 L395.125,20 L395.125,13.7246094 Z M401.306641,13.6132812 C401.798831,13.6132812 402.228514,13.7343738 402.595703,13.9765625 C402.794923,14.1132812 402.998046,14.3124987 403.205078,14.5742188 L403.205078,13.7832031 L404.177734,13.7832031 L404.177734,19.4902344 C404.177734,20.2871134 404.060548,20.9160133 403.826172,21.3769531 C403.38867,22.2285199 402.562506,22.6542969 401.347656,22.6542969 C400.671872,22.6542969 400.103518,22.5029312 399.642578,22.2001953 C399.181638,21.8974594 398.923828,21.4238313 398.869141,20.7792969 L399.941406,20.7792969 C399.992188,21.0605483 400.093749,21.277343 400.246094,21.4296875 C400.484376,21.6640637 400.859372,21.78125 401.371094,21.78125 C402.179692,21.78125 402.708983,21.4960966 402.958984,20.9257812 C403.107423,20.5898421 403.175781,19.9902387 403.164062,19.1269531 C402.953124,19.4472672 402.69922,19.6855461 402.402344,19.8417969 C402.105467,19.9980477 401.712893,20.0761719 401.224609,20.0761719 C400.544918,20.0761719 399.950198,19.8349633 399.44043,19.3525391 C398.930662,18.8701148 398.675781,18.0722712 398.675781,16.9589844 C398.675781,15.9081979 398.932615,15.0878936 399.446289,14.4980469 C399.959964,13.9082002 400.580074,13.6132812 401.306641,13.6132812 Z M403.205078,16.8359375 C403.205078,16.0585899 403.044923,15.4824237 402.724609,15.1074219 C402.404295,14.73242 401.996096,14.5449219 401.5,14.5449219 C400.757809,14.5449219 400.250001,14.8925746 399.976562,15.5878906 C399.832031,15.9589862 399.759766,16.4453095 399.759766,17.046875 C399.759766,17.7539098 399.903319,18.2919903 400.19043,18.6611328 C400.47754,19.0302753 400.863279,19.2148438 401.347656,19.2148438 C402.105473,19.2148438 402.63867,18.8730503 402.947266,18.1894531 C403.119141,17.8027324 403.205078,17.3515651 403.205078,16.8359375 Z M408.378906,13.5839844 C408.824221,13.5839844 409.255857,13.6884755 409.673828,13.8974609 C410.091799,14.1064464 410.410155,14.3769515 410.628906,14.7089844 C410.797657,14.9621106 410.921406,15.2489835 411.000156,15.5696087 L411.050781,15.8164062 C411.113282,16.1054702 411.144531,16.5664031 411.144531,17.1992188 L406.544922,17.1992188 C406.564453,17.8359407 406.714842,18.3466778 406.996094,18.7314453 C407.277345,19.1162129 407.712888,19.3085938 408.302734,19.3085938 C408.853518,19.3085938 409.292967,19.1269549 409.621094,18.7636719 C409.808595,18.5527333 409.941406,18.3085951 410.019531,18.03125 L411.056641,18.03125 C411.029297,18.2617199 410.938477,18.5185533 410.78418,18.8017578 C410.629882,19.0849624 410.457032,19.3164054 410.265625,19.4960938 C409.945311,19.8085953 409.54883,20.0195307 409.076172,20.1289062 C408.822264,20.1914066 408.535158,20.2226562 408.214844,20.2226562 C407.43359,20.2226562 406.771487,19.9384794 406.228516,19.3701172 C405.685544,18.801755 405.414062,18.0058645 405.414062,16.9824219 C405.414062,15.9746043 405.687497,15.1562531 406.234375,14.5273438 C406.781253,13.8984344 407.496089,13.5839844 408.378906,13.5839844 Z M410.060547,16.3613281 C410.017578,15.9042946 409.91797,15.5390639 409.761719,15.265625 C409.472655,14.75781 408.990238,14.5039062 408.314453,14.5039062 C407.830076,14.5039062 407.42383,14.6787092 407.095703,15.0283203 C406.767576,15.3779314 406.59375,15.8222629 406.574219,16.3613281 L410.060547,16.3613281 Z M412.650391,11.9726562 L413.716797,11.9726562 L413.716797,13.7246094 L414.71875,13.7246094 L414.71875,14.5859375 L413.716797,14.5859375 L413.716797,18.6816406 C413.716797,18.9003917 413.791015,19.0468746 413.939453,19.1210938 C414.021485,19.1640627 414.158202,19.1855469 414.349609,19.1855469 L414.513672,19.1826172 L414.513672,19.1826172 C414.572266,19.1806641 414.640625,19.1757813 414.71875,19.1679688 L414.71875,20 C414.597656,20.0351564 414.47168,20.0605468 414.34082,20.0761719 C414.20996,20.091797 414.06836,20.0996094 413.916016,20.0996094 C413.423826,20.0996094 413.089845,19.9736341 412.914062,19.7216797 C412.73828,19.4697253 412.650391,19.1425801 412.650391,18.7402344 L412.650391,14.5859375 L411.800781,14.5859375 L411.800781,13.7246094 L412.650391,13.7246094 L412.650391,11.9726562 Z" id="Target" fill="#525A6E" fill-rule="nonzero"></path>
                <path d="M34.375,20 C34.4140627,19.2773401 34.5634753,18.6484402 34.8232422,18.1132812 C35.0830091,17.5781223 35.58984,17.0917991 36.34375,16.6542969 L37.46875,16.0039062 C37.9726588,15.710936 38.3261709,15.4609385 38.5292969,15.2539062 C38.849611,14.9296859 39.0097656,14.5585958 39.0097656,14.140625 C39.0097656,13.6523413 38.8632827,13.2646499 38.5703125,12.9775391 C38.2773423,12.6904283 37.8867212,12.546875 37.3984375,12.546875 C36.6757776,12.546875 36.1757826,12.8203098 35.8984375,13.3671875 C35.7499993,13.6601577 35.6679688,14.0664037 35.6523438,14.5859375 L34.5800781,14.5859375 C34.5917969,13.8554651 34.7265612,13.2597679 34.984375,12.7988281 C35.4414085,11.9863241 36.2480411,11.5800781 37.4042969,11.5800781 C38.3652392,11.5800781 39.0673806,11.8398412 39.5107422,12.359375 C39.9541038,12.8789088 40.1757812,13.4570281 40.1757812,14.09375 C40.1757812,14.7656284 39.9394555,15.3398414 39.4667969,15.8164062 C39.193358,16.0937514 38.7031285,16.4296855 37.9960938,16.8242188 L37.1933594,17.2695312 C36.810545,17.4804698 36.5097667,17.6816397 36.2910156,17.8730469 C35.9003887,18.2128923 35.6542974,18.5898417 35.5527344,19.0039062 L40.1347656,19.0039062 L40.1347656,20 L34.375,20 Z M43.4042969,11.3925781 L44.2949219,11.3925781 L41.5644531,20 L40.6738281,20 L43.4042969,11.3925781 Z M45.15625,14.0585938 L45.15625,13.25 C45.9179726,13.1757809 46.4492172,13.0517587 46.75,12.8779297 C47.0507828,12.7041007 47.2753899,12.292972 47.4238281,11.6445312 L48.2558594,11.6445312 L48.2558594,20 L47.1308594,20 L47.1308594,14.0585938 L45.15625,14.0585938 Z M53.7988281,20.2285156 C52.8066357,20.2285156 52.0869163,19.9560574 51.6396484,19.4111328 C51.1923806,18.8662082 50.96875,18.2031289 50.96875,17.421875 L52.0703125,17.421875 C52.1171877,17.9648465 52.2187492,18.3593738 52.375,18.6054688 C52.6484389,19.0468772 53.1425746,19.2675781 53.8574219,19.2675781 C54.4121121,19.2675781 54.8574202,19.1191421 55.1933594,18.8222656 C55.5292986,18.5253891 55.6972656,18.1425805 55.6972656,17.6738281 C55.6972656,17.0957002 55.5205096,16.6914074 55.1669922,16.4609375 C54.8134748,16.2304676 54.3222688,16.1152344 53.6933594,16.1152344 L53.5871582,16.1159668 L53.5871582,16.1159668 L53.2597656,16.1269531 L53.2597656,16.1269531 L53.2597656,15.1953125 L53.4550781,15.2135417 L53.4550781,15.2135417 L53.5351562,15.21875 C53.6093754,15.2226563 53.6894527,15.2246094 53.7753906,15.2246094 C54.1699238,15.2246094 54.4941394,15.16211 54.7480469,15.0371094 C55.1933616,14.8183583 55.4160156,14.4277372 55.4160156,13.8652344 C55.4160156,13.4472635 55.2675796,13.1250011 54.9707031,12.8984375 C54.6738266,12.6718739 54.328127,12.5585938 53.9335938,12.5585938 C53.2304652,12.5585938 52.744142,12.7929664 52.4746094,13.2617188 C52.3261711,13.5195325 52.2421876,13.8867164 52.2226562,14.3632812 L51.1796875,14.3632812 C51.1796875,13.7382781 51.3046863,13.2070334 51.5546875,12.7695312 C51.9843771,11.9882773 52.740229,11.5976562 53.8222656,11.5976562 C54.6777387,11.5976562 55.3398414,11.788084 55.8085938,12.1689453 C56.2773461,12.5498066 56.5117188,13.1015589 56.5117188,13.8242188 C56.5117188,14.3398463 56.3730483,14.7578109 56.0957031,15.078125 C55.9238273,15.2773447 55.7011732,15.4335932 55.4277344,15.546875 C55.8691428,15.6679694 56.2138659,15.9013655 56.4619141,16.2470703 C56.7099622,16.5927752 56.8339844,17.0156225 56.8339844,17.515625 C56.8339844,18.3164103 56.5703151,18.9687475 56.0429688,19.4726562 C55.5156224,19.976565 54.767583,20.2285156 53.7988281,20.2285156 Z M62.7774531,12.212 L62.7774531,17.912 C62.2734531,18.056 61.7574531,18.188 61.2174531,18.32 L61.4694531,19.172 C62.8614531,18.8 64.0854531,18.392 65.1414531,17.948 L65.1414531,17.084 C64.6734531,17.276 64.1814531,17.456 63.6654531,17.636 L63.6654531,12.212 L65.0574531,12.212 L65.0574531,11.372 L61.3494531,11.372 L61.3494531,12.212 L62.7774531,12.212 Z M65.5134531,10.712 L65.5134531,11.552 L68.4414531,11.552 C68.3814531,11.996 68.2974531,12.428 68.1774531,12.836 L66.0654531,12.836 L66.0654531,18.476 L66.8934531,18.476 L66.8934531,13.628 L70.7454531,13.628 L70.7454531,18.476 L71.5854531,18.476 L71.5854531,12.836 L69.0414531,12.836 C69.1374531,12.428 69.2214531,12.008 69.2934531,11.552 L72.1614531,11.552 L72.1614531,10.712 L65.5134531,10.712 Z M69.7974531,18.5 L69.2214531,19.052 C70.2534531,19.844 71.0694531,20.588 71.6694531,21.284 L72.2934531,20.66 C71.6214531,19.94 70.7814531,19.22 69.7974531,18.5 Z M68.3334531,14.396 L69.1974531,14.396 L69.1974531,16.46 C69.1494531,17.756 68.8134531,18.788 68.1654531,19.568 C67.5294531,20.276 66.4974531,20.84 65.0574531,21.248 L64.5894531,20.504 C65.9814531,20.132 66.9654531,19.628 67.5174531,19.004 C68.0214531,18.356 68.2974531,17.504 68.3334531,16.46 L68.3334531,14.396 Z" id="2/13项" fill="#525A6E" fill-rule="nonzero"></path>
                <path d="M263,20.288 C263.039063,19.5653401 263.188475,18.9364402 263.448242,18.4012813 C263.708009,17.8661223 264.21484,17.3797991 264.96875,16.9422969 L266.09375,16.2919063 C266.597659,15.998936 266.951171,15.7489385 267.154297,15.5419063 C267.474611,15.2176859 267.634766,14.8465958 267.634766,14.428625 C267.634766,13.9403413 267.488283,13.5526499 267.195312,13.2655391 C266.902342,12.9784283 266.511721,12.834875 266.023438,12.834875 C265.300778,12.834875 264.800783,13.1083098 264.523438,13.6551875 C264.374999,13.9481577 264.292969,14.3544037 264.277344,14.8739375 L263.205078,14.8739375 C263.216797,14.1434651 263.351561,13.5477679 263.609375,13.0868281 C264.066409,12.2743241 264.873041,11.8680781 266.029297,11.8680781 C266.990239,11.8680781 267.692381,12.1278412 268.135742,12.647375 C268.579104,13.1669088 268.800781,13.7450281 268.800781,14.38175 C268.800781,15.0536284 268.564455,15.6278414 268.091797,16.1044063 C267.818358,16.3817514 267.328129,16.7176855 266.621094,17.1122188 L265.818359,17.5575313 C265.435545,17.7684698 265.134767,17.9696397 264.916016,18.1610469 C264.525389,18.5008923 264.279297,18.8778417 264.177734,19.2919063 L268.759766,19.2919063 L268.759766,20.288 L263,20.288 Z M272.029297,11.6805781 L272.919922,11.6805781 L270.189453,20.288 L269.298828,20.288 L272.029297,11.6805781 Z M273.78125,14.3465938 L273.78125,13.538 C274.542973,13.4637809 275.074217,13.3397587 275.375,13.1659297 C275.675783,12.9921007 275.90039,12.580972 276.048828,11.9325313 L276.880859,11.9325313 L276.880859,20.288 L275.755859,20.288 L275.755859,14.3465938 L273.78125,14.3465938 Z M282.423828,20.5165156 C281.431636,20.5165156 280.711916,20.2440574 280.264648,19.6991328 C279.817381,19.1542082 279.59375,18.4911289 279.59375,17.709875 L280.695312,17.709875 C280.742188,18.2528465 280.843749,18.6473738 281,18.8934688 C281.273439,19.3348772 281.767575,19.5555781 282.482422,19.5555781 C283.037112,19.5555781 283.48242,19.4071421 283.818359,19.1102656 C284.154299,18.8133891 284.322266,18.4305805 284.322266,17.9618281 C284.322266,17.3837002 284.14551,16.9794074 283.791992,16.7489375 C283.438475,16.5184676 282.947269,16.4032344 282.318359,16.4032344 L282.212158,16.4039668 L282.212158,16.4039668 L281.884766,16.4149531 L281.884766,16.4149531 L281.884766,15.4833125 L282.080078,15.5015417 L282.080078,15.5015417 L282.160156,15.50675 C282.234375,15.5106563 282.314453,15.5126094 282.400391,15.5126094 C282.794924,15.5126094 283.119139,15.45011 283.373047,15.3251094 C283.818362,15.1063583 284.041016,14.7157372 284.041016,14.1532344 C284.041016,13.7352635 283.89258,13.4130011 283.595703,13.1864375 C283.298827,12.9598739 282.953127,12.8465938 282.558594,12.8465938 C281.855465,12.8465938 281.369142,13.0809664 281.099609,13.5497188 C280.951171,13.8075325 280.867188,14.1747164 280.847656,14.6512813 L279.804688,14.6512813 C279.804688,14.0262781 279.929686,13.4950334 280.179688,13.0575313 C280.609377,12.2762773 281.365229,11.8856563 282.447266,11.8856563 C283.302739,11.8856563 283.964841,12.076084 284.433594,12.4569453 C284.902346,12.8378066 285.136719,13.3895589 285.136719,14.1122188 C285.136719,14.6278463 284.998048,15.0458109 284.720703,15.366125 C284.548827,15.5653447 284.326173,15.7215932 284.052734,15.834875 C284.494143,15.9559694 284.838866,16.1893655 285.086914,16.5350703 C285.334962,16.8807752 285.458984,17.3036225 285.458984,17.803625 C285.458984,18.6044103 285.195315,19.2567475 284.667969,19.7606563 C284.140622,20.264565 283.392583,20.5165156 282.423828,20.5165156 Z M291.402453,12.5 L291.402453,18.2 C290.898453,18.344 290.382453,18.476 289.842453,18.608 L290.094453,19.46 C291.486453,19.088 292.710453,18.68 293.766453,18.236 L293.766453,17.372 C293.298453,17.564 292.806453,17.744 292.290453,17.924 L292.290453,12.5 L293.682453,12.5 L293.682453,11.66 L289.974453,11.66 L289.974453,12.5 L291.402453,12.5 Z M294.138453,11 L294.138453,11.84 L297.066453,11.84 C297.006453,12.284 296.922453,12.716 296.802453,13.124 L294.690453,13.124 L294.690453,18.764 L295.518453,18.764 L295.518453,13.916 L299.370453,13.916 L299.370453,18.764 L300.210453,18.764 L300.210453,13.124 L297.666453,13.124 C297.762453,12.716 297.846453,12.296 297.918453,11.84 L300.786453,11.84 L300.786453,11 L294.138453,11 Z M298.422453,18.788 L297.846453,19.34 C298.878453,20.132 299.694453,20.876 300.294453,21.572 L300.918453,20.948 C300.246453,20.228 299.406453,19.508 298.422453,18.788 Z M296.958453,14.684 L297.822453,14.684 L297.822453,16.748 C297.774453,18.044 297.438453,19.076 296.790453,19.856 C296.154453,20.564 295.122453,21.128 293.682453,21.536 L293.214453,20.792 C294.606453,20.42 295.590453,19.916 296.142453,19.292 C296.646453,18.644 296.922453,17.792 296.958453,16.748 L296.958453,14.684 Z" id="2/13项" fill="#525A6E" fill-rule="nonzero"></path>
                <g id="icon/z/checkboxDisable备份-2" transform="translate(12.000000, 9.000000)" fill-rule="nonzero">
                    <rect id="fill" fill="#FFFFFF" x="0.325581395" y="0.325581395" width="13.3488372" height="13.3488372" rx="2"></rect>
                    <rect id="outline" fill="#618FE8" x="0.162790698" y="0.162790698" width="13.6744186" height="13.6744186"></rect>
                </g>
                <g id="icon/z/checkboxDisable备份-3" transform="translate(241.000000, 9.000000)" fill-rule="nonzero">
                    <rect id="fill" fill="#FFFFFF" x="0.325581395" y="0.325581395" width="13.3488372" height="13.3488372" rx="2"></rect>
                    <rect id="outline" stroke="#DBDFE6" x="0.662790698" y="0.662790698" width="12.6744186" height="12.6744186" rx="2"></rect>
                </g>
                <rect id="fill备份-2" fill="#FFFFFF" fill-rule="nonzero" x="16" y="16" width="7" height="1"></rect>
                <rect id="fill备份-3" fill="#618FE8" fill-rule="nonzero" x="245" y="13" width="6" height="6"></rect>
                <path d="M38.26,95.456 L43.624,95.456 L43.624,96.164 L44.5,96.164 L44.5,91.1 L39.496,91.1 C41.752,90.056 43.3,88.712 44.164,87.068 L44.164,86.3 L39.484,86.3 C39.724,85.976 39.94,85.64 40.132,85.28 L39.184,85.172 C38.464,86.444 37.084,87.524 35.032,88.4 L35.608,89.144 C36.88,88.544 37.912,87.872 38.728,87.116 L43.168,87.116 C42.604,88.1 41.716,88.952 40.492,89.684 C39.976,89.24 39.256,88.736 38.344,88.172 L37.6,88.64 C38.512,89.156 39.232,89.636 39.76,90.08 C38.38,90.776 36.652,91.328 34.576,91.76 L35.032,92.588 C35.872,92.384 36.652,92.168 37.396,91.928 L37.396,96.164 L38.26,96.164 L38.26,95.456 Z M43.624,94.616 L38.26,94.616 L38.26,91.904 L43.624,91.904 L43.624,94.616 Z M46.696,88.484 L46.696,89.312 L48.352,89.312 C47.968,90.68 47.32,91.892 46.408,92.96 L46.78,93.92 C47.476,92.96 48.04,91.892 48.448,90.716 L48.448,96.164 L49.276,96.164 L49.276,90.74 C49.636,91.16 50.08,91.724 50.584,92.444 L51.064,91.724 C50.464,91.076 49.876,90.5 49.276,89.972 L49.276,89.312 L50.752,89.312 L50.752,88.484 L49.276,88.484 L49.276,86.636 C49.888,86.516 50.464,86.372 50.992,86.228 L50.692,85.412 C49.54,85.772 48.232,86.012 46.744,86.144 L46.912,86.96 C47.44,86.912 47.944,86.84 48.448,86.768 L48.448,88.484 L46.696,88.484 Z M53.512,96.14 C54.196,96.14 54.544,95.78 54.544,95.06 L54.544,88.712 L53.656,88.712 L53.656,94.844 C53.656,95.192 53.5,95.372 53.212,95.372 C52.888,95.372 52.54,95.348 52.18,95.312 L52.36,96.14 L53.512,96.14 Z M52,90.44 C51.7,91.832 51.232,93.116 50.584,94.268 L51.328,94.736 C51.964,93.572 52.456,92.192 52.804,90.596 L52,90.44 Z M56.104,90.356 L55.324,90.608 C55.828,91.844 56.296,93.26 56.716,94.856 L57.508,94.508 C57.112,93.032 56.644,91.652 56.104,90.356 Z M52.816,87.692 C52.48,88.448 52.06,89.132 51.568,89.732 L51.04,89.048 C51.856,87.992 52.42,86.696 52.708,85.16 L53.56,85.268 C53.452,85.82 53.308,86.348 53.14,86.852 L57.112,86.852 L57.112,87.416 C56.968,88.232 56.788,89.036 56.548,89.828 L55.708,89.576 C55.924,89.012 56.104,88.388 56.248,87.692 L52.816,87.692 Z" id="名称" fill="#4588F4" fill-rule="nonzero"></path>
                <path d="M267.26,55.456 L272.624,55.456 L272.624,56.164 L273.5,56.164 L273.5,51.1 L268.496,51.1 C270.752,50.056 272.3,48.712 273.164,47.068 L273.164,46.3 L268.484,46.3 C268.724,45.976 268.94,45.64 269.132,45.28 L268.184,45.172 C267.464,46.444 266.084,47.524 264.032,48.4 L264.608,49.144 C265.88,48.544 266.912,47.872 267.728,47.116 L272.168,47.116 C271.604,48.1 270.716,48.952 269.492,49.684 C268.976,49.24 268.256,48.736 267.344,48.172 L266.6,48.64 C267.512,49.156 268.232,49.636 268.76,50.08 C267.38,50.776 265.652,51.328 263.576,51.76 L264.032,52.588 C264.872,52.384 265.652,52.168 266.396,51.928 L266.396,56.164 L267.26,56.164 L267.26,55.456 Z M272.624,54.616 L267.26,54.616 L267.26,51.904 L272.624,51.904 L272.624,54.616 Z M275.696,48.484 L275.696,49.312 L277.352,49.312 C276.968,50.68 276.32,51.892 275.408,52.96 L275.78,53.92 C276.476,52.96 277.04,51.892 277.448,50.716 L277.448,56.164 L278.276,56.164 L278.276,50.74 L278.561375,51.0821875 C278.86175,51.45175 279.206,51.904 279.584,52.444 L280.064,51.724 C279.464,51.076 278.876,50.5 278.276,49.972 L278.276,49.312 L279.752,49.312 L279.752,48.484 L278.276,48.484 L278.276,46.636 C278.888,46.516 279.464,46.372 279.992,46.228 L279.692,45.412 C278.54,45.772 277.232,46.012 275.744,46.144 L275.912,46.96 C276.44,46.912 276.944,46.84 277.448,46.768 L277.448,48.484 L275.696,48.484 Z M282.512,56.14 C283.196,56.14 283.544,55.78 283.544,55.06 L283.544,48.712 L282.656,48.712 L282.656,54.844 C282.656,55.192 282.5,55.372 282.212,55.372 C281.888,55.372 281.54,55.348 281.18,55.312 L281.36,56.14 L282.512,56.14 Z M281,50.44 C280.7,51.832 280.232,53.116 279.584,54.268 L280.328,54.736 C280.964,53.572 281.456,52.192 281.804,50.596 L281,50.44 Z M285.104,50.356 L284.324,50.608 C284.828,51.844 285.296,53.26 285.716,54.856 L286.508,54.508 C286.112,53.032 285.644,51.652 285.104,50.356 Z M281.816,47.692 C281.48,48.448 281.06,49.132 280.568,49.732 L280.04,49.048 C280.856,47.992 281.42,46.696 281.708,45.16 L282.56,45.268 C282.452,45.82 282.308,46.348 282.14,46.852 L286.112,46.852 L286.112,47.416 C285.968,48.232 285.788,49.036 285.548,49.828 L284.708,49.576 C284.924,49.012 285.104,48.388 285.248,47.692 L281.816,47.692 Z" id="名称" fill="#4588F4" fill-rule="nonzero"></path>
                <g id="7.Icon/control/checkbox/Checked-备份" transform="translate(12.000000, 84.000000)">
                    <g id="icon/z/checkboxChecked-Copy" fill="#618FE8" fill-rule="nonzero">
                        <rect id="box" x="0" y="0" width="14" height="14" rx="2"></rect>
                    </g>
                    <g id="check" transform="translate(2.625000, 2.625000)" fill="#FFFFFF">
                        <rect id="Rectangle" opacity="0.01" x="0" y="0" width="8.75" height="8.75"></rect>
                        <path d="M8.28125,1.23046875 L7.59863281,1.23046875 C7.50292969,1.23046875 7.41210938,1.27441406 7.35351563,1.34960938 L3.32714844,6.45019531 L1.39648438,4.00390625 C1.33691406,3.92871094 1.24707031,3.88476562 1.15136719,3.88476562 L0.46875,3.88476562 C0.403320313,3.88476562 0.3671875,3.95996094 0.407226563,4.01074219 L3.08203125,7.39941406 C3.20703125,7.55761719 3.44726563,7.55761719 3.57324219,7.39941406 L8.34277344,1.35546875 C8.3828125,1.30566406 8.34667969,1.23046875 8.28125,1.23046875 Z" id="Path" stroke="#FFFFFF" stroke-width="0.833333333"></path>
                    </g>
                </g>
                <g id="7.Icon/control/checkbox/Checked-备份-11" transform="translate(241.000000, 44.000000)">
                    <g id="icon/z/checkboxChecked-Copy" fill="#618FE8" fill-rule="nonzero">
                        <rect id="box" x="0" y="0" width="14" height="14" rx="2"></rect>
                    </g>
                    <g id="check" transform="translate(2.625000, 2.625000)">
                        <rect id="Rectangle" fill="#000000" opacity="0" x="0" y="0" width="8.75" height="8.75"></rect>
                        <path d="M8.28125,1.23046875 L7.59863281,1.23046875 C7.50292969,1.23046875 7.41210938,1.27441406 7.35351563,1.34960938 L3.32714844,6.45019531 L1.39648438,4.00390625 C1.33691406,3.92871094 1.24707031,3.88476562 1.15136719,3.88476562 L0.46875,3.88476562 C0.403320313,3.88476562 0.3671875,3.95996094 0.407226563,4.01074219 L3.08203125,7.39941406 C3.20703125,7.55761719 3.44726563,7.55761719 3.57324219,7.39941406 L8.34277344,1.35546875 C8.3828125,1.30566406 8.34667969,1.23046875 8.28125,1.23046875 Z" id="Path" stroke="#FFFFFF" stroke-width="0.833333333" fill="#FFFFFF"></path>
                    </g>
                </g>
                <path d="M38.26,155.456 L43.624,155.456 L43.624,156.164 L44.5,156.164 L44.5,151.1 L39.496,151.1 C41.752,150.056 43.3,148.712 44.164,147.068 L44.164,146.3 L39.484,146.3 C39.724,145.976 39.94,145.64 40.132,145.28 L39.184,145.172 C38.464,146.444 37.084,147.524 35.032,148.4 L35.608,149.144 C36.88,148.544 37.912,147.872 38.728,147.116 L43.168,147.116 C42.604,148.1 41.716,148.952 40.492,149.684 C39.976,149.24 39.256,148.736 38.344,148.172 L37.6,148.64 C38.512,149.156 39.232,149.636 39.76,150.08 C38.38,150.776 36.652,151.328 34.576,151.76 L35.032,152.588 C35.872,152.384 36.652,152.168 37.396,151.928 L37.396,156.164 L38.26,156.164 L38.26,155.456 Z M43.624,154.616 L38.26,154.616 L38.26,151.904 L43.624,151.904 L43.624,154.616 Z M46.696,148.484 L46.696,149.312 L48.352,149.312 C47.968,150.68 47.32,151.892 46.408,152.96 L46.78,153.92 C47.476,152.96 48.04,151.892 48.448,150.716 L48.448,156.164 L49.276,156.164 L49.276,150.74 C49.636,151.16 50.08,151.724 50.584,152.444 L51.064,151.724 C50.464,151.076 49.876,150.5 49.276,149.972 L49.276,149.312 L50.752,149.312 L50.752,148.484 L49.276,148.484 L49.276,146.636 C49.888,146.516 50.464,146.372 50.992,146.228 L50.692,145.412 C49.54,145.772 48.232,146.012 46.744,146.144 L46.912,146.96 C47.44,146.912 47.944,146.84 48.448,146.768 L48.448,148.484 L46.696,148.484 Z M53.512,156.14 C54.196,156.14 54.544,155.78 54.544,155.06 L54.544,148.712 L53.656,148.712 L53.656,154.844 C53.656,155.192 53.5,155.372 53.212,155.372 C52.888,155.372 52.54,155.348 52.18,155.312 L52.36,156.14 L53.512,156.14 Z M52,150.44 C51.7,151.832 51.232,153.116 50.584,154.268 L51.328,154.736 C51.964,153.572 52.456,152.192 52.804,150.596 L52,150.44 Z M56.104,150.356 L55.324,150.608 C55.828,151.844 56.296,153.26 56.716,154.856 L57.508,154.508 C57.112,153.032 56.644,151.652 56.104,150.356 Z M52.816,147.692 C52.48,148.448 52.06,149.132 51.568,149.732 L51.04,149.048 C51.856,147.992 52.42,146.696 52.708,145.16 L53.56,145.268 C53.452,145.82 53.308,146.348 53.14,146.852 L57.112,146.852 L57.112,147.416 C56.968,148.232 56.788,149.036 56.548,149.828 L55.708,149.576 C55.924,149.012 56.104,148.388 56.248,147.692 L52.816,147.692 Z" id="名称" fill="#525A6E" fill-rule="nonzero"></path>
                <path d="M267.26,115.456 L272.624,115.456 L272.624,116.164 L273.5,116.164 L273.5,111.1 L268.496,111.1 C270.752,110.056 272.3,108.712 273.164,107.068 L273.164,106.3 L268.484,106.3 C268.724,105.976 268.94,105.64 269.132,105.28 L268.184,105.172 C267.464,106.444 266.084,107.524 264.032,108.4 L264.608,109.144 C265.88,108.544 266.912,107.872 267.728,107.116 L272.168,107.116 C271.604,108.1 270.716,108.952 269.492,109.684 C268.976,109.24 268.256,108.736 267.344,108.172 L266.6,108.64 C267.512,109.156 268.232,109.636 268.76,110.08 C267.38,110.776 265.652,111.328 263.576,111.76 L264.032,112.588 C264.872,112.384 265.652,112.168 266.396,111.928 L266.396,116.164 L267.26,116.164 L267.26,115.456 Z M272.624,114.616 L267.26,114.616 L267.26,111.904 L272.624,111.904 L272.624,114.616 Z M275.696,108.484 L275.696,109.312 L277.352,109.312 C276.968,110.68 276.32,111.892 275.408,112.96 L275.78,113.92 C276.476,112.96 277.04,111.892 277.448,110.716 L277.448,116.164 L278.276,116.164 L278.276,110.74 L278.561375,111.082187 C278.86175,111.45175 279.206,111.904 279.584,112.444 L280.064,111.724 C279.464,111.076 278.876,110.5 278.276,109.972 L278.276,109.312 L279.752,109.312 L279.752,108.484 L278.276,108.484 L278.276,106.636 C278.888,106.516 279.464,106.372 279.992,106.228 L279.692,105.412 C278.54,105.772 277.232,106.012 275.744,106.144 L275.912,106.96 C276.44,106.912 276.944,106.84 277.448,106.768 L277.448,108.484 L275.696,108.484 Z M282.512,116.14 C283.196,116.14 283.544,115.78 283.544,115.06 L283.544,108.712 L282.656,108.712 L282.656,114.844 C282.656,115.192 282.5,115.372 282.212,115.372 C281.888,115.372 281.54,115.348 281.18,115.312 L281.36,116.14 L282.512,116.14 Z M281,110.44 C280.7,111.832 280.232,113.116 279.584,114.268 L280.328,114.736 C280.964,113.572 281.456,112.192 281.804,110.596 L281,110.44 Z M285.104,110.356 L284.324,110.608 C284.828,111.844 285.296,113.26 285.716,114.856 L286.508,114.508 C286.112,113.032 285.644,111.652 285.104,110.356 Z M281.816,107.692 C281.48,108.448 281.06,109.132 280.568,109.732 L280.04,109.048 C280.856,107.992 281.42,106.696 281.708,105.16 L282.56,105.268 C282.452,105.82 282.308,106.348 282.14,106.852 L286.112,106.852 L286.112,107.416 C285.968,108.232 285.788,109.036 285.548,109.828 L284.708,109.576 C284.924,109.012 285.104,108.388 285.248,107.692 L281.816,107.692 Z" id="名称" fill="#525A6E" fill-rule="nonzero"></path>
                <path d="M38.26,185.456 L43.624,185.456 L43.624,186.164 L44.5,186.164 L44.5,181.1 L39.496,181.1 C41.752,180.056 43.3,178.712 44.164,177.068 L44.164,176.3 L39.484,176.3 C39.724,175.976 39.94,175.64 40.132,175.28 L39.184,175.172 C38.464,176.444 37.084,177.524 35.032,178.4 L35.608,179.144 C36.88,178.544 37.912,177.872 38.728,177.116 L43.168,177.116 C42.604,178.1 41.716,178.952 40.492,179.684 C39.976,179.24 39.256,178.736 38.344,178.172 L37.6,178.64 C38.512,179.156 39.232,179.636 39.76,180.08 C38.38,180.776 36.652,181.328 34.576,181.76 L35.032,182.588 C35.872,182.384 36.652,182.168 37.396,181.928 L37.396,186.164 L38.26,186.164 L38.26,185.456 Z M43.624,184.616 L38.26,184.616 L38.26,181.904 L43.624,181.904 L43.624,184.616 Z M46.696,178.484 L46.696,179.312 L48.352,179.312 C47.968,180.68 47.32,181.892 46.408,182.96 L46.78,183.92 C47.476,182.96 48.04,181.892 48.448,180.716 L48.448,186.164 L49.276,186.164 L49.276,180.74 C49.636,181.16 50.08,181.724 50.584,182.444 L51.064,181.724 C50.464,181.076 49.876,180.5 49.276,179.972 L49.276,179.312 L50.752,179.312 L50.752,178.484 L49.276,178.484 L49.276,176.636 C49.888,176.516 50.464,176.372 50.992,176.228 L50.692,175.412 C49.54,175.772 48.232,176.012 46.744,176.144 L46.912,176.96 C47.44,176.912 47.944,176.84 48.448,176.768 L48.448,178.484 L46.696,178.484 Z M53.512,186.14 C54.196,186.14 54.544,185.78 54.544,185.06 L54.544,178.712 L53.656,178.712 L53.656,184.844 C53.656,185.192 53.5,185.372 53.212,185.372 C52.888,185.372 52.54,185.348 52.18,185.312 L52.36,186.14 L53.512,186.14 Z M52,180.44 C51.7,181.832 51.232,183.116 50.584,184.268 L51.328,184.736 C51.964,183.572 52.456,182.192 52.804,180.596 L52,180.44 Z M56.104,180.356 L55.324,180.608 C55.828,181.844 56.296,183.26 56.716,184.856 L57.508,184.508 C57.112,183.032 56.644,181.652 56.104,180.356 Z M52.816,177.692 C52.48,178.448 52.06,179.132 51.568,179.732 L51.04,179.048 C51.856,177.992 52.42,176.696 52.708,175.16 L53.56,175.268 C53.452,175.82 53.308,176.348 53.14,176.852 L57.112,176.852 L57.112,177.416 C56.968,178.232 56.788,179.036 56.548,179.828 L55.708,179.576 C55.924,179.012 56.104,178.388 56.248,177.692 L52.816,177.692 Z" id="名称" fill="#525A6E" fill-rule="nonzero"></path>
                <path d="M267.26,145.456 L272.624,145.456 L272.624,146.164 L273.5,146.164 L273.5,141.1 L268.496,141.1 C270.752,140.056 272.3,138.712 273.164,137.068 L273.164,136.3 L268.484,136.3 C268.724,135.976 268.94,135.64 269.132,135.28 L268.184,135.172 C267.464,136.444 266.084,137.524 264.032,138.4 L264.608,139.144 C265.88,138.544 266.912,137.872 267.728,137.116 L272.168,137.116 C271.604,138.1 270.716,138.952 269.492,139.684 C268.976,139.24 268.256,138.736 267.344,138.172 L266.6,138.64 C267.512,139.156 268.232,139.636 268.76,140.08 C267.38,140.776 265.652,141.328 263.576,141.76 L264.032,142.588 C264.872,142.384 265.652,142.168 266.396,141.928 L266.396,146.164 L267.26,146.164 L267.26,145.456 Z M272.624,144.616 L267.26,144.616 L267.26,141.904 L272.624,141.904 L272.624,144.616 Z M275.696,138.484 L275.696,139.312 L277.352,139.312 C276.968,140.68 276.32,141.892 275.408,142.96 L275.78,143.92 C276.476,142.96 277.04,141.892 277.448,140.716 L277.448,146.164 L278.276,146.164 L278.276,140.74 L278.561375,141.082188 C278.86175,141.45175 279.206,141.904 279.584,142.444 L280.064,141.724 C279.464,141.076 278.876,140.5 278.276,139.972 L278.276,139.312 L279.752,139.312 L279.752,138.484 L278.276,138.484 L278.276,136.636 C278.888,136.516 279.464,136.372 279.992,136.228 L279.692,135.412 C278.54,135.772 277.232,136.012 275.744,136.144 L275.912,136.96 C276.44,136.912 276.944,136.84 277.448,136.768 L277.448,138.484 L275.696,138.484 Z M282.512,146.14 C283.196,146.14 283.544,145.78 283.544,145.06 L283.544,138.712 L282.656,138.712 L282.656,144.844 C282.656,145.192 282.5,145.372 282.212,145.372 C281.888,145.372 281.54,145.348 281.18,145.312 L281.36,146.14 L282.512,146.14 Z M281,140.44 C280.7,141.832 280.232,143.116 279.584,144.268 L280.328,144.736 C280.964,143.572 281.456,142.192 281.804,140.596 L281,140.44 Z M285.104,140.356 L284.324,140.608 C284.828,141.844 285.296,143.26 285.716,144.856 L286.508,144.508 C286.112,143.032 285.644,141.652 285.104,140.356 Z M281.816,137.692 C281.48,138.448 281.06,139.132 280.568,139.732 L280.04,139.048 C280.856,137.992 281.42,136.696 281.708,135.16 L282.56,135.268 C282.452,135.82 282.308,136.348 282.14,136.852 L286.112,136.852 L286.112,137.416 C285.968,138.232 285.788,139.036 285.548,139.828 L284.708,139.576 C284.924,139.012 285.104,138.388 285.248,137.692 L281.816,137.692 Z" id="名称" fill="#525A6E" fill-rule="nonzero"></path>
                <path d="M38.26,215.456 L43.624,215.456 L43.624,216.164 L44.5,216.164 L44.5,211.1 L39.496,211.1 C41.752,210.056 43.3,208.712 44.164,207.068 L44.164,206.3 L39.484,206.3 C39.724,205.976 39.94,205.64 40.132,205.28 L39.184,205.172 C38.464,206.444 37.084,207.524 35.032,208.4 L35.608,209.144 C36.88,208.544 37.912,207.872 38.728,207.116 L43.168,207.116 C42.604,208.1 41.716,208.952 40.492,209.684 C39.976,209.24 39.256,208.736 38.344,208.172 L37.6,208.64 C38.512,209.156 39.232,209.636 39.76,210.08 C38.38,210.776 36.652,211.328 34.576,211.76 L35.032,212.588 C35.872,212.384 36.652,212.168 37.396,211.928 L37.396,216.164 L38.26,216.164 L38.26,215.456 Z M43.624,214.616 L38.26,214.616 L38.26,211.904 L43.624,211.904 L43.624,214.616 Z M46.696,208.484 L46.696,209.312 L48.352,209.312 C47.968,210.68 47.32,211.892 46.408,212.96 L46.78,213.92 C47.476,212.96 48.04,211.892 48.448,210.716 L48.448,216.164 L49.276,216.164 L49.276,210.74 C49.636,211.16 50.08,211.724 50.584,212.444 L51.064,211.724 C50.464,211.076 49.876,210.5 49.276,209.972 L49.276,209.312 L50.752,209.312 L50.752,208.484 L49.276,208.484 L49.276,206.636 C49.888,206.516 50.464,206.372 50.992,206.228 L50.692,205.412 C49.54,205.772 48.232,206.012 46.744,206.144 L46.912,206.96 C47.44,206.912 47.944,206.84 48.448,206.768 L48.448,208.484 L46.696,208.484 Z M53.512,216.14 C54.196,216.14 54.544,215.78 54.544,215.06 L54.544,208.712 L53.656,208.712 L53.656,214.844 C53.656,215.192 53.5,215.372 53.212,215.372 C52.888,215.372 52.54,215.348 52.18,215.312 L52.36,216.14 L53.512,216.14 Z M52,210.44 C51.7,211.832 51.232,213.116 50.584,214.268 L51.328,214.736 C51.964,213.572 52.456,212.192 52.804,210.596 L52,210.44 Z M56.104,210.356 L55.324,210.608 C55.828,211.844 56.296,213.26 56.716,214.856 L57.508,214.508 C57.112,213.032 56.644,211.652 56.104,210.356 Z M52.816,207.692 C52.48,208.448 52.06,209.132 51.568,209.732 L51.04,209.048 C51.856,207.992 52.42,206.696 52.708,205.16 L53.56,205.268 C53.452,205.82 53.308,206.348 53.14,206.852 L57.112,206.852 L57.112,207.416 C56.968,208.232 56.788,209.036 56.548,209.828 L55.708,209.576 C55.924,209.012 56.104,208.388 56.248,207.692 L52.816,207.692 Z" id="名称" fill="#525A6E" fill-rule="nonzero"></path>
                <path d="M267.26,175.456 L272.624,175.456 L272.624,176.164 L273.5,176.164 L273.5,171.1 L268.496,171.1 C270.752,170.056 272.3,168.712 273.164,167.068 L273.164,166.3 L268.484,166.3 C268.724,165.976 268.94,165.64 269.132,165.28 L268.184,165.172 C267.464,166.444 266.084,167.524 264.032,168.4 L264.608,169.144 C265.88,168.544 266.912,167.872 267.728,167.116 L272.168,167.116 C271.604,168.1 270.716,168.952 269.492,169.684 C268.976,169.24 268.256,168.736 267.344,168.172 L266.6,168.64 C267.512,169.156 268.232,169.636 268.76,170.08 C267.38,170.776 265.652,171.328 263.576,171.76 L264.032,172.588 C264.872,172.384 265.652,172.168 266.396,171.928 L266.396,176.164 L267.26,176.164 L267.26,175.456 Z M272.624,174.616 L267.26,174.616 L267.26,171.904 L272.624,171.904 L272.624,174.616 Z M275.696,168.484 L275.696,169.312 L277.352,169.312 C276.968,170.68 276.32,171.892 275.408,172.96 L275.78,173.92 C276.476,172.96 277.04,171.892 277.448,170.716 L277.448,176.164 L278.276,176.164 L278.276,170.74 L278.561375,171.082187 C278.86175,171.45175 279.206,171.904 279.584,172.444 L280.064,171.724 C279.464,171.076 278.876,170.5 278.276,169.972 L278.276,169.312 L279.752,169.312 L279.752,168.484 L278.276,168.484 L278.276,166.636 C278.888,166.516 279.464,166.372 279.992,166.228 L279.692,165.412 C278.54,165.772 277.232,166.012 275.744,166.144 L275.912,166.96 C276.44,166.912 276.944,166.84 277.448,166.768 L277.448,168.484 L275.696,168.484 Z M282.512,176.14 C283.196,176.14 283.544,175.78 283.544,175.06 L283.544,168.712 L282.656,168.712 L282.656,174.844 C282.656,175.192 282.5,175.372 282.212,175.372 C281.888,175.372 281.54,175.348 281.18,175.312 L281.36,176.14 L282.512,176.14 Z M281,170.44 C280.7,171.832 280.232,173.116 279.584,174.268 L280.328,174.736 C280.964,173.572 281.456,172.192 281.804,170.596 L281,170.44 Z M285.104,170.356 L284.324,170.608 C284.828,171.844 285.296,173.26 285.716,174.856 L286.508,174.508 C286.112,173.032 285.644,171.652 285.104,170.356 Z M281.816,167.692 C281.48,168.448 281.06,169.132 280.568,169.732 L280.04,169.048 C280.856,167.992 281.42,166.696 281.708,165.16 L282.56,165.268 C282.452,165.82 282.308,166.348 282.14,166.852 L286.112,166.852 L286.112,167.416 C285.968,168.232 285.788,169.036 285.548,169.828 L284.708,169.576 C284.924,169.012 285.104,168.388 285.248,167.692 L281.816,167.692 Z" id="名称" fill="#525A6E" fill-rule="nonzero"></path>
                <path d="M38.26,245.456 L43.624,245.456 L43.624,246.164 L44.5,246.164 L44.5,241.1 L39.496,241.1 C41.752,240.056 43.3,238.712 44.164,237.068 L44.164,236.3 L39.484,236.3 C39.724,235.976 39.94,235.64 40.132,235.28 L39.184,235.172 C38.464,236.444 37.084,237.524 35.032,238.4 L35.608,239.144 C36.88,238.544 37.912,237.872 38.728,237.116 L43.168,237.116 C42.604,238.1 41.716,238.952 40.492,239.684 C39.976,239.24 39.256,238.736 38.344,238.172 L37.6,238.64 C38.512,239.156 39.232,239.636 39.76,240.08 C38.38,240.776 36.652,241.328 34.576,241.76 L35.032,242.588 C35.872,242.384 36.652,242.168 37.396,241.928 L37.396,246.164 L38.26,246.164 L38.26,245.456 Z M43.624,244.616 L38.26,244.616 L38.26,241.904 L43.624,241.904 L43.624,244.616 Z M46.696,238.484 L46.696,239.312 L48.352,239.312 C47.968,240.68 47.32,241.892 46.408,242.96 L46.78,243.92 C47.476,242.96 48.04,241.892 48.448,240.716 L48.448,246.164 L49.276,246.164 L49.276,240.74 C49.636,241.16 50.08,241.724 50.584,242.444 L51.064,241.724 C50.464,241.076 49.876,240.5 49.276,239.972 L49.276,239.312 L50.752,239.312 L50.752,238.484 L49.276,238.484 L49.276,236.636 C49.888,236.516 50.464,236.372 50.992,236.228 L50.692,235.412 C49.54,235.772 48.232,236.012 46.744,236.144 L46.912,236.96 C47.44,236.912 47.944,236.84 48.448,236.768 L48.448,238.484 L46.696,238.484 Z M53.512,246.14 C54.196,246.14 54.544,245.78 54.544,245.06 L54.544,238.712 L53.656,238.712 L53.656,244.844 C53.656,245.192 53.5,245.372 53.212,245.372 C52.888,245.372 52.54,245.348 52.18,245.312 L52.36,246.14 L53.512,246.14 Z M52,240.44 C51.7,241.832 51.232,243.116 50.584,244.268 L51.328,244.736 C51.964,243.572 52.456,242.192 52.804,240.596 L52,240.44 Z M56.104,240.356 L55.324,240.608 C55.828,241.844 56.296,243.26 56.716,244.856 L57.508,244.508 C57.112,243.032 56.644,241.652 56.104,240.356 Z M52.816,237.692 C52.48,238.448 52.06,239.132 51.568,239.732 L51.04,239.048 C51.856,237.992 52.42,236.696 52.708,235.16 L53.56,235.268 C53.452,235.82 53.308,236.348 53.14,236.852 L57.112,236.852 L57.112,237.416 C56.968,238.232 56.788,239.036 56.548,239.828 L55.708,239.576 C55.924,239.012 56.104,238.388 56.248,237.692 L52.816,237.692 Z" id="名称" fill="#525A6E" fill-rule="nonzero"></path>
                <path d="M267.26,205.456 L272.624,205.456 L272.624,206.164 L273.5,206.164 L273.5,201.1 L268.496,201.1 C270.752,200.056 272.3,198.712 273.164,197.068 L273.164,196.3 L268.484,196.3 C268.724,195.976 268.94,195.64 269.132,195.28 L268.184,195.172 C267.464,196.444 266.084,197.524 264.032,198.4 L264.608,199.144 C265.88,198.544 266.912,197.872 267.728,197.116 L272.168,197.116 C271.604,198.1 270.716,198.952 269.492,199.684 C268.976,199.24 268.256,198.736 267.344,198.172 L266.6,198.64 C267.512,199.156 268.232,199.636 268.76,200.08 C267.38,200.776 265.652,201.328 263.576,201.76 L264.032,202.588 C264.872,202.384 265.652,202.168 266.396,201.928 L266.396,206.164 L267.26,206.164 L267.26,205.456 Z M272.624,204.616 L267.26,204.616 L267.26,201.904 L272.624,201.904 L272.624,204.616 Z M275.696,198.484 L275.696,199.312 L277.352,199.312 C276.968,200.68 276.32,201.892 275.408,202.96 L275.78,203.92 C276.476,202.96 277.04,201.892 277.448,200.716 L277.448,206.164 L278.276,206.164 L278.276,200.74 L278.561375,201.082187 C278.86175,201.45175 279.206,201.904 279.584,202.444 L280.064,201.724 C279.464,201.076 278.876,200.5 278.276,199.972 L278.276,199.312 L279.752,199.312 L279.752,198.484 L278.276,198.484 L278.276,196.636 C278.888,196.516 279.464,196.372 279.992,196.228 L279.692,195.412 C278.54,195.772 277.232,196.012 275.744,196.144 L275.912,196.96 C276.44,196.912 276.944,196.84 277.448,196.768 L277.448,198.484 L275.696,198.484 Z M282.512,206.14 C283.196,206.14 283.544,205.78 283.544,205.06 L283.544,198.712 L282.656,198.712 L282.656,204.844 C282.656,205.192 282.5,205.372 282.212,205.372 C281.888,205.372 281.54,205.348 281.18,205.312 L281.36,206.14 L282.512,206.14 Z M281,200.44 C280.7,201.832 280.232,203.116 279.584,204.268 L280.328,204.736 C280.964,203.572 281.456,202.192 281.804,200.596 L281,200.44 Z M285.104,200.356 L284.324,200.608 C284.828,201.844 285.296,203.26 285.716,204.856 L286.508,204.508 C286.112,203.032 285.644,201.652 285.104,200.356 Z M281.816,197.692 C281.48,198.448 281.06,199.132 280.568,199.732 L280.04,199.048 C280.856,197.992 281.42,196.696 281.708,195.16 L282.56,195.268 C282.452,195.82 282.308,196.348 282.14,196.852 L286.112,196.852 L286.112,197.416 C285.968,198.232 285.788,199.036 285.548,199.828 L284.708,199.576 C284.924,199.012 285.104,198.388 285.248,197.692 L281.816,197.692 Z" id="名称" fill="#525A6E" fill-rule="nonzero"></path>
                <path d="M267.26,235.456 L272.624,235.456 L272.624,236.164 L273.5,236.164 L273.5,231.1 L268.496,231.1 C270.752,230.056 272.3,228.712 273.164,227.068 L273.164,226.3 L268.484,226.3 C268.724,225.976 268.94,225.64 269.132,225.28 L268.184,225.172 C267.464,226.444 266.084,227.524 264.032,228.4 L264.608,229.144 C265.88,228.544 266.912,227.872 267.728,227.116 L272.168,227.116 C271.604,228.1 270.716,228.952 269.492,229.684 C268.976,229.24 268.256,228.736 267.344,228.172 L266.6,228.64 C267.512,229.156 268.232,229.636 268.76,230.08 C267.38,230.776 265.652,231.328 263.576,231.76 L264.032,232.588 C264.872,232.384 265.652,232.168 266.396,231.928 L266.396,236.164 L267.26,236.164 L267.26,235.456 Z M272.624,234.616 L267.26,234.616 L267.26,231.904 L272.624,231.904 L272.624,234.616 Z M275.696,228.484 L275.696,229.312 L277.352,229.312 C276.968,230.68 276.32,231.892 275.408,232.96 L275.78,233.92 C276.476,232.96 277.04,231.892 277.448,230.716 L277.448,236.164 L278.276,236.164 L278.276,230.74 L278.561375,231.082187 C278.86175,231.45175 279.206,231.904 279.584,232.444 L280.064,231.724 C279.464,231.076 278.876,230.5 278.276,229.972 L278.276,229.312 L279.752,229.312 L279.752,228.484 L278.276,228.484 L278.276,226.636 C278.888,226.516 279.464,226.372 279.992,226.228 L279.692,225.412 C278.54,225.772 277.232,226.012 275.744,226.144 L275.912,226.96 C276.44,226.912 276.944,226.84 277.448,226.768 L277.448,228.484 L275.696,228.484 Z M282.512,236.14 C283.196,236.14 283.544,235.78 283.544,235.06 L283.544,228.712 L282.656,228.712 L282.656,234.844 C282.656,235.192 282.5,235.372 282.212,235.372 C281.888,235.372 281.54,235.348 281.18,235.312 L281.36,236.14 L282.512,236.14 Z M281,230.44 C280.7,231.832 280.232,233.116 279.584,234.268 L280.328,234.736 C280.964,233.572 281.456,232.192 281.804,230.596 L281,230.44 Z M285.104,230.356 L284.324,230.608 C284.828,231.844 285.296,233.26 285.716,234.856 L286.508,234.508 C286.112,233.032 285.644,231.652 285.104,230.356 Z M281.816,227.692 C281.48,228.448 281.06,229.132 280.568,229.732 L280.04,229.048 C280.856,227.992 281.42,226.696 281.708,225.16 L282.56,225.268 C282.452,225.82 282.308,226.348 282.14,226.852 L286.112,226.852 L286.112,227.416 C285.968,228.232 285.788,229.036 285.548,229.828 L284.708,229.576 C284.924,229.012 285.104,228.388 285.248,227.692 L281.816,227.692 Z" id="名称" fill="#525A6E" fill-rule="nonzero"></path>
                <rect id="outline备份-7" stroke="#DBDFE6" fill-rule="nonzero" x="12.5" y="144.5" width="13" height="13" rx="2"></rect>
                <rect id="outline备份-8" stroke="#DBDFE6" fill-rule="nonzero" x="12.5" y="174.5" width="13" height="13" rx="2"></rect>
                <rect id="outline备份-9" stroke="#DBDFE6" fill-rule="nonzero" x="12.5" y="204.5" width="13" height="13" rx="2"></rect>
                <rect id="outline备份-10" stroke="#DBDFE6" fill-rule="nonzero" x="12.5" y="234.5" width="13" height="13" rx="2"></rect>
                <g id="7.Icon/control/checkbox/Checked-备份-12" transform="translate(241.000000, 104.000000)">
                    <rect id="Rectangle" x="2.625" y="2.625" width="8.75" height="8.75"></rect>
                    <rect id="outline" stroke="#DBDFE6" fill="#F8F8F8" fill-rule="nonzero" x="0.662790698" y="0.662790698" width="12.6744186" height="12.6744186" rx="2"></rect>
                    <path d="M10.6968028,4.08719224 C10.8651422,4.23876574 10.8787337,4.49810641 10.7271602,4.66644584 L5.83553904,10.0991415 C5.78577241,10.1544129 5.72438818,10.1930021 5.6584218,10.2145403 C5.65272956,10.2154927 5.64702545,10.21746 5.64129056,10.2192971 C5.63394035,10.2217714 5.62658665,10.2236029 5.61919451,10.225229 C5.47596411,10.2629265 5.31715493,10.2208997 5.21110269,10.1031168 L5.21110269,10.1031168 L3.27891589,7.95720595 C3.12734239,7.78886652 3.14093386,7.52952585 3.30927329,7.37795235 C3.47761271,7.22637885 3.73695338,7.23997032 3.88852688,7.40830974 L3.88852688,7.40830974 L5.52156164,9.22183799 L10.1175492,4.11754964 C10.2691227,3.94921021 10.5284633,3.93561874 10.6968028,4.08719224 Z" id="Combined-Shape" fill="#999999" fill-rule="nonzero"></path>
                </g>
                <g id="7.Icon/control/checkbox/Checked-备份-13" transform="translate(241.000000, 134.000000)">
                    <rect id="Rectangle" x="2.625" y="2.625" width="8.75" height="8.75"></rect>
                    <rect id="outline" stroke="#DBDFE6" fill="#F8F8F8" fill-rule="nonzero" x="0.662790698" y="0.662790698" width="12.6744186" height="12.6744186" rx="2"></rect>
                    <path d="M10.6968028,4.08719224 C10.8651422,4.23876574 10.8787337,4.49810641 10.7271602,4.66644584 L5.83553904,10.0991415 C5.78577241,10.1544129 5.72438818,10.1930021 5.6584218,10.2145403 C5.65272956,10.2154927 5.64702545,10.21746 5.64129056,10.2192971 C5.63394035,10.2217714 5.62658665,10.2236029 5.61919451,10.225229 C5.47596411,10.2629265 5.31715493,10.2208997 5.21110269,10.1031168 L5.21110269,10.1031168 L3.27891589,7.95720595 C3.12734239,7.78886652 3.14093386,7.52952585 3.30927329,7.37795235 C3.47761271,7.22637885 3.73695338,7.23997032 3.88852688,7.40830974 L3.88852688,7.40830974 L5.52156164,9.22183799 L10.1175492,4.11754964 C10.2691227,3.94921021 10.5284633,3.93561874 10.6968028,4.08719224 Z" id="Combined-Shape" fill="#999999" fill-rule="nonzero"></path>
                </g>
                <g id="7.Icon/control/checkbox/Checked-备份-14" transform="translate(241.000000, 164.000000)">
                    <rect id="Rectangle" x="2.625" y="2.625" width="8.75" height="8.75"></rect>
                    <rect id="outline" stroke="#DBDFE6" fill="#F8F8F8" fill-rule="nonzero" x="0.662790698" y="0.662790698" width="12.6744186" height="12.6744186" rx="2"></rect>
                    <path d="M10.6968028,4.08719224 C10.8651422,4.23876574 10.8787337,4.49810641 10.7271602,4.66644584 L5.83553904,10.0991415 C5.78577241,10.1544129 5.72438818,10.1930021 5.6584218,10.2145403 C5.65272956,10.2154927 5.64702545,10.21746 5.64129056,10.2192971 C5.63394035,10.2217714 5.62658665,10.2236029 5.61919451,10.225229 C5.47596411,10.2629265 5.31715493,10.2208997 5.21110269,10.1031168 L5.21110269,10.1031168 L3.27891589,7.95720595 C3.12734239,7.78886652 3.14093386,7.52952585 3.30927329,7.37795235 C3.47761271,7.22637885 3.73695338,7.23997032 3.88852688,7.40830974 L3.88852688,7.40830974 L5.52156164,9.22183799 L10.1175492,4.11754964 C10.2691227,3.94921021 10.5284633,3.93561874 10.6968028,4.08719224 Z" id="Combined-Shape" fill="#999999" fill-rule="nonzero"></path>
                </g>
                <g id="7.Icon/control/checkbox/Checked-备份-15" transform="translate(241.000000, 194.000000)">
                    <rect id="Rectangle" x="2.625" y="2.625" width="8.75" height="8.75"></rect>
                    <rect id="outline" stroke="#DBDFE6" fill-rule="nonzero" x="0.662790698" y="0.662790698" width="12.6744186" height="12.6744186" rx="2"></rect>
                </g>
                <g id="7.Icon/control/checkbox/Checked-备份-16" transform="translate(241.000000, 224.000000)">
                    <rect id="Rectangle" x="2.625" y="2.625" width="8.75" height="8.75"></rect>
                    <rect id="outline" stroke="#DBDFE6" fill-rule="nonzero" x="0.662790698" y="0.662790698" width="12.6744186" height="12.6744186" rx="2"></rect>
                </g>
                <path d="M38.26,125.456 L43.624,125.456 L43.624,126.164 L44.5,126.164 L44.5,121.1 L39.496,121.1 C41.752,120.056 43.3,118.712 44.164,117.068 L44.164,116.3 L39.484,116.3 C39.724,115.976 39.94,115.64 40.132,115.28 L39.184,115.172 C38.464,116.444 37.084,117.524 35.032,118.4 L35.608,119.144 C36.88,118.544 37.912,117.872 38.728,117.116 L43.168,117.116 C42.604,118.1 41.716,118.952 40.492,119.684 C39.976,119.24 39.256,118.736 38.344,118.172 L37.6,118.64 C38.512,119.156 39.232,119.636 39.76,120.08 C38.38,120.776 36.652,121.328 34.576,121.76 L35.032,122.588 C35.872,122.384 36.652,122.168 37.396,121.928 L37.396,126.164 L38.26,126.164 L38.26,125.456 Z M43.624,124.616 L38.26,124.616 L38.26,121.904 L43.624,121.904 L43.624,124.616 Z M46.696,118.484 L46.696,119.312 L48.352,119.312 C47.968,120.68 47.32,121.892 46.408,122.96 L46.78,123.92 C47.476,122.96 48.04,121.892 48.448,120.716 L48.448,126.164 L49.276,126.164 L49.276,120.74 C49.636,121.16 50.08,121.724 50.584,122.444 L51.064,121.724 C50.464,121.076 49.876,120.5 49.276,119.972 L49.276,119.312 L50.752,119.312 L50.752,118.484 L49.276,118.484 L49.276,116.636 C49.888,116.516 50.464,116.372 50.992,116.228 L50.692,115.412 C49.54,115.772 48.232,116.012 46.744,116.144 L46.912,116.96 C47.44,116.912 47.944,116.84 48.448,116.768 L48.448,118.484 L46.696,118.484 Z M53.512,126.14 C54.196,126.14 54.544,125.78 54.544,125.06 L54.544,118.712 L53.656,118.712 L53.656,124.844 C53.656,125.192 53.5,125.372 53.212,125.372 C52.888,125.372 52.54,125.348 52.18,125.312 L52.36,126.14 L53.512,126.14 Z M52,120.44 C51.7,121.832 51.232,123.116 50.584,124.268 L51.328,124.736 C51.964,123.572 52.456,122.192 52.804,120.596 L52,120.44 Z M56.104,120.356 L55.324,120.608 C55.828,121.844 56.296,123.26 56.716,124.856 L57.508,124.508 C57.112,123.032 56.644,121.652 56.104,120.356 Z M52.816,117.692 C52.48,118.448 52.06,119.132 51.568,119.732 L51.04,119.048 C51.856,117.992 52.42,116.696 52.708,115.16 L53.56,115.268 C53.452,115.82 53.308,116.348 53.14,116.852 L57.112,116.852 L57.112,117.416 C56.968,118.232 56.788,119.036 56.548,119.828 L55.708,119.576 C55.924,119.012 56.104,118.388 56.248,117.692 L52.816,117.692 Z" id="名称" fill="#4588F4" fill-rule="nonzero"></path>
                <path d="M267.26,85.456 L272.624,85.456 L272.624,86.164 L273.5,86.164 L273.5,81.1 L268.496,81.1 C270.752,80.056 272.3,78.712 273.164,77.068 L273.164,76.3 L268.484,76.3 C268.724,75.976 268.94,75.64 269.132,75.28 L268.184,75.172 C267.464,76.444 266.084,77.524 264.032,78.4 L264.608,79.144 C265.88,78.544 266.912,77.872 267.728,77.116 L272.168,77.116 C271.604,78.1 270.716,78.952 269.492,79.684 C268.976,79.24 268.256,78.736 267.344,78.172 L266.6,78.64 C267.512,79.156 268.232,79.636 268.76,80.08 C267.38,80.776 265.652,81.328 263.576,81.76 L264.032,82.588 C264.872,82.384 265.652,82.168 266.396,81.928 L266.396,86.164 L267.26,86.164 L267.26,85.456 Z M272.624,84.616 L267.26,84.616 L267.26,81.904 L272.624,81.904 L272.624,84.616 Z M275.696,78.484 L275.696,79.312 L277.352,79.312 C276.968,80.68 276.32,81.892 275.408,82.96 L275.78,83.92 C276.476,82.96 277.04,81.892 277.448,80.716 L277.448,86.164 L278.276,86.164 L278.276,80.74 L278.561375,81.0821875 C278.86175,81.45175 279.206,81.904 279.584,82.444 L280.064,81.724 C279.464,81.076 278.876,80.5 278.276,79.972 L278.276,79.312 L279.752,79.312 L279.752,78.484 L278.276,78.484 L278.276,76.636 C278.888,76.516 279.464,76.372 279.992,76.228 L279.692,75.412 C278.54,75.772 277.232,76.012 275.744,76.144 L275.912,76.96 C276.44,76.912 276.944,76.84 277.448,76.768 L277.448,78.484 L275.696,78.484 Z M282.512,86.14 C283.196,86.14 283.544,85.78 283.544,85.06 L283.544,78.712 L282.656,78.712 L282.656,84.844 C282.656,85.192 282.5,85.372 282.212,85.372 C281.888,85.372 281.54,85.348 281.18,85.312 L281.36,86.14 L282.512,86.14 Z M281,80.44 C280.7,81.832 280.232,83.116 279.584,84.268 L280.328,84.736 C280.964,83.572 281.456,82.192 281.804,80.596 L281,80.44 Z M285.104,80.356 L284.324,80.608 C284.828,81.844 285.296,83.26 285.716,84.856 L286.508,84.508 C286.112,83.032 285.644,81.652 285.104,80.356 Z M281.816,77.692 C281.48,78.448 281.06,79.132 280.568,79.732 L280.04,79.048 C280.856,77.992 281.42,76.696 281.708,75.16 L282.56,75.268 C282.452,75.82 282.308,76.348 282.14,76.852 L286.112,76.852 L286.112,77.416 C285.968,78.232 285.788,79.036 285.548,79.828 L284.708,79.576 C284.924,79.012 285.104,78.388 285.248,77.692 L281.816,77.692 Z" id="名称" fill="#4588F4" fill-rule="nonzero"></path>
                <g id="7.Icon/control/checkbox/Checked-备份-2" transform="translate(12.000000, 114.000000)">
                    <g id="icon/z/checkboxChecked-Copy" fill="#618FE8" fill-rule="nonzero">
                        <rect id="box" x="0" y="0" width="14" height="14" rx="2"></rect>
                    </g>
                    <g id="check" transform="translate(2.625000, 2.625000)">
                        <rect id="Rectangle" fill="#618FE8" opacity="0" x="0" y="0" width="8.75" height="8.75"></rect>
                        <path d="M8.28125,1.23046875 L7.59863281,1.23046875 C7.50292969,1.23046875 7.41210938,1.27441406 7.35351563,1.34960938 L3.32714844,6.45019531 L1.39648438,4.00390625 C1.33691406,3.92871094 1.24707031,3.88476562 1.15136719,3.88476562 L0.46875,3.88476562 C0.403320313,3.88476562 0.3671875,3.95996094 0.407226563,4.01074219 L3.08203125,7.39941406 C3.20703125,7.55761719 3.44726563,7.55761719 3.57324219,7.39941406 L8.34277344,1.35546875 C8.3828125,1.30566406 8.34667969,1.23046875 8.28125,1.23046875 Z" id="Path" stroke="#FFFFFF" stroke-width="0.833333333" fill="#FFFFFF"></path>
                    </g>
                </g>
                <g id="7.Icon/control/checkbox/Checked-备份-17" transform="translate(241.000000, 74.000000)">
                    <g id="icon/z/checkboxChecked-Copy" fill="#618FE8" fill-rule="nonzero">
                        <rect id="box" x="0" y="0" width="14" height="14" rx="2"></rect>
                    </g>
                    <g id="check" transform="translate(2.625000, 2.625000)">
                        <rect id="Rectangle" fill="#618FE8" opacity="0" x="0" y="0" width="8.75" height="8.75"></rect>
                        <path d="M8.28125,1.23046875 L7.59863281,1.23046875 C7.50292969,1.23046875 7.41210938,1.27441406 7.35351563,1.34960938 L3.32714844,6.45019531 L1.39648438,4.00390625 C1.33691406,3.92871094 1.24707031,3.88476562 1.15136719,3.88476562 L0.46875,3.88476562 C0.403320313,3.88476562 0.3671875,3.95996094 0.407226563,4.01074219 L3.08203125,7.39941406 C3.20703125,7.55761719 3.44726563,7.55761719 3.57324219,7.39941406 L8.34277344,1.35546875 C8.3828125,1.30566406 8.34667969,1.23046875 8.28125,1.23046875 Z" id="Path" stroke="#FFFFFF" stroke-width="0.833333333" fill="#FFFFFF"></path>
                    </g>
                </g>
                <g id="编组备份" transform="translate(12.000000, 40.000000)" fill-rule="nonzero">
                    <g id="9.Box/1.Cards/4.Border">
                        <rect id="BG/fill" fill="#FFFFFF" x="1" y="1" width="163" height="30" rx="3"></rect>
                        <rect id="outline" stroke="#DBDFE6" x="0.5" y="0.5" width="163" height="31" rx="4"></rect>
                    </g>
                    <path d="M19.368,10.196 L19.368,10.976 L16.464,10.976 L16.464,11.684 L19.368,11.684 L19.368,12.488 L16.944,12.488 L16.944,13.184 L19.368,13.184 L19.368,14 L16.128,14 L16.128,14.72 L23.472,14.72 L23.472,14 L20.196,14 L20.196,13.184 L22.74,13.184 L22.74,12.488 L20.196,12.488 L20.196,11.684 L23.172,11.684 L23.172,10.976 L20.196,10.976 L20.196,10.196 L19.368,10.196 Z M17.868,17.744 L21.744,17.744 L21.744,18.62 L17.868,18.62 L17.868,17.744 Z M21.744,17.072 L17.868,17.072 L17.868,16.184 L21.744,16.184 L21.744,17.072 Z M17.868,19.292 L21.744,19.292 L21.744,19.976 C21.744,20.252 21.588,20.396 21.3,20.396 L20.34,20.36 L20.544,21.128 L21.552,21.128 C22.224,21.128 22.572,20.804 22.572,20.156 L22.572,15.476 L17.04,15.476 L17.04,21.2 L17.868,21.2 L17.868,19.292 Z M13.956,10.328 L13.344,10.916 C14.208,11.564 14.892,12.176 15.396,12.752 L15.984,12.152 C15.432,11.54 14.76,10.928 13.956,10.328 Z M12.504,13.868 L12.504,14.696 L14.22,14.696 L14.22,19.46 C14.22,19.664 14.124,19.844 13.944,20.012 L14.28,20.78 C15.024,20.24 15.744,19.616 16.416,18.92 L16.188,18.008 C15.78,18.428 15.408,18.8 15.048,19.136 L15.048,13.868 L12.504,13.868 Z M26.748,13.532 L26.748,15.32 L25.56,15.32 C25.86,14.552 26.136,13.676 26.4,12.692 L28.716,12.692 L28.716,11.876 L26.604,11.876 L26.766,11.1305 C26.82,10.874 26.874,10.61 26.928,10.34 L26.136,10.16 C26.028,10.76 25.92,11.324 25.8,11.876 L24.612,11.876 L24.612,12.692 L25.608,12.692 C25.332,13.76 25.032,14.66 24.696,15.38 L24.876,16.1 L26.748,16.1 L26.748,17.888 C26.052,18.02 25.308,18.14 24.516,18.236 L24.624,19.076 C25.356,18.968 26.064,18.848 26.748,18.716 L26.748,21.2 L27.552,21.2 L27.552,18.536 L28.692,18.248 L28.692,17.432 C28.332,17.528 27.96,17.624 27.552,17.72 L27.552,16.1 L28.656,16.1 L28.656,15.32 L27.552,15.32 L27.552,13.532 L26.748,13.532 Z M30.288,12.92 L30.288,13.628 L33.732,13.628 L33.732,12.908 L30.3,12.908 C30.9,12.332 31.476,11.696 32.052,11 C32.964,12.176 33.984,13.172 35.112,13.988 L35.568,13.304 C34.476,12.536 33.408,11.516 32.364,10.22 L31.74,10.22 C30.768,11.42 29.664,12.476 28.44,13.376 L28.908,14.096 C29.376,13.736 29.832,13.34 30.288,12.92 Z M31.128,21.116 C31.716,21.116 32.016,20.804 32.016,20.192 L32.016,14.588 L29.184,14.588 L29.184,21.2 L29.94,21.2 L29.94,18.956 L31.284,18.956 L31.284,20.036 C31.284,20.3 31.152,20.432 30.888,20.432 L30.36,20.408 L30.552,21.116 L31.128,21.116 Z M29.94,18.284 L29.94,17.144 L31.284,17.144 L31.284,18.284 L29.94,18.284 Z M29.94,16.472 L29.94,15.284 L31.284,15.284 L31.284,16.472 L29.94,16.472 Z M32.736,14.924 L32.736,19.232 L33.408,19.232 L33.408,14.924 L32.736,14.924 Z M34.044,21.14 C34.62,21.14 34.92,20.792 34.92,20.108 L34.92,14.384 L34.164,14.384 L34.164,19.916 C34.164,20.252 34.032,20.432 33.78,20.432 C33.48,20.432 33.168,20.408 32.844,20.384 L33.024,21.14 L34.044,21.14 Z M41.472,12.98 C40.92,11.972 40.26,11.204 39.492,10.652 L40.212,10.196 C41.28,10.94 42.18,12.296 42.924,14.24 C44.052,17.108 45.552,19.136 47.448,20.324 L46.908,21.02 C44.964,19.844 43.38,17.66 42.144,14.492 L42.0124444,14.14 C41.992,14.0866667 41.972,14.036 41.952,13.988 C41.16,17.048 39.504,19.4 36.984,21.032 L36.468,20.3 C39.036,18.62 40.704,16.172 41.472,12.98 Z" id="请输入" fill="#999999"></path>
                    <path d="M151.060154,10 C148.331865,10 146.120309,12.2115559 146.120309,14.9398456 C146.120309,16.0821849 146.508672,17.1335271 147.158651,17.9703759 L143.03778,22.0912471 C142.987407,22.1416206 142.987407,22.224493 143.03778,22.2748664 L143.725134,22.9622199 C143.775507,23.0125934 143.858379,23.0125934 143.908753,22.9622199 L148.029624,18.8413487 C148.866473,19.4913284 149.917815,19.8796913 151.060154,19.8796913 C153.788444,19.8796913 156,17.6681354 156,14.9398456 C156,12.2115559 153.788444,10 151.060154,10 Z M153.679573,17.5592638 C152.980844,18.2596169 152.049748,18.6447299 151.060154,18.6447299 C150.07056,18.6447299 149.139464,18.2596169 148.440736,17.5592638 C147.740383,16.8605356 147.35527,15.9294397 147.35527,14.9398456 C147.35527,13.9502516 147.740383,13.0191557 148.440736,12.3204275 C149.139464,11.6200744 150.07056,11.2349614 151.060154,11.2349614 C152.049748,11.2349614 152.980844,11.6200744 153.679573,12.3204275 C154.379926,13.0191557 154.765039,13.9502516 154.765039,14.9398456 C154.765039,15.9294397 154.379926,16.8605356 153.679573,17.5592638 Z" id="fill" fill="#000000" opacity="0.25"></path>
                </g>
                <rect id="矩形备份-15" fill="#DBDFE6" x="208" y="1" width="1" height="270"></rect>
                <g id="编组-8" transform="translate(196.000000, 126.000000)" fill-rule="nonzero">
                    <g id="9.Box/1.Cards/8.Primary备份-2" fill="#618FE8">
                        <g id="Z/Shape/RectangleRC/4px/RC-A">
                            <rect id="outline" x="0" y="0" width="24" height="24" rx="2"></rect>
                        </g>
                    </g>
                    <g id="9.Box/1.Cards/8.Primary备份-3" transform="translate(0.000000, 24.000000)" fill="#FFFFFF" stroke="#DBDFE6">
                        <g id="Z/Shape/RectangleRC/4px/RC-A">
                            <rect id="outline" x="0.5" y="0.5" width="23" height="23" rx="2"></rect>
                        </g>
                    </g>
                    <g id="箭头_右备份-10" transform="translate(4.000000, 4.000000)">
                        <rect id="矩形" fill="#000000" opacity="0" x="0" y="0" width="16" height="16"></rect>
                        <path d="M10.4935781,7.99548438 L9.87610937,7.37801562 L6.27154687,3.77345313 L6.27121875,3.77378125 C6.26709823,3.76926145 6.26288377,3.76482819 6.25857812,3.76048437 C6.08771875,3.589625 5.81071875,3.589625 5.63985937,3.76048437 C5.469,3.93134375 5.469,4.20834375 5.63985937,4.37920313 C5.64420312,4.38354688 5.64867187,4.38771875 5.65315625,4.39184375 L5.65282812,4.39217188 L9.257375,7.99671875 L5.6333125,11.6207813 C5.46245312,11.7916406 5.46245312,12.0686406 5.6333125,12.2395 C5.80417187,12.4103594 6.08117187,12.4103594 6.25203125,12.2395 L10.4948125,7.99671875 L10.4935781,7.99548438 Z" id="路径" fill="#FFFFFF"></path>
                    </g>
                    <g id="箭头_右备份-11" transform="translate(12.000000, 36.000000) scale(-1, 1) translate(-12.000000, -36.000000) translate(4.000000, 28.000000)">
                        <rect id="矩形" fill="#000000" opacity="0" x="0" y="0" width="16" height="16"></rect>
                        <path d="M10.4935781,7.99548438 L9.87610937,7.37801562 L6.27154687,3.77345313 L6.27121875,3.77378125 C6.26709823,3.76926145 6.26288377,3.76482819 6.25857812,3.76048437 C6.08771875,3.589625 5.81071875,3.589625 5.63985937,3.76048437 C5.469,3.93134375 5.469,4.20834375 5.63985937,4.37920313 C5.64420312,4.38354688 5.64867187,4.38771875 5.65315625,4.39184375 L5.65282812,4.39217188 L9.257375,7.99671875 L5.6333125,11.6207813 C5.46245312,11.7916406 5.46245312,12.0686406 5.6333125,12.2395 C5.80417187,12.4103594 6.08117187,12.4103594 6.25203125,12.2395 L10.4948125,7.99671875 L10.4935781,7.99548438 Z" id="路径" fill="#525A6E"></path>
                    </g>
                </g>
            </g>
            <text id="样式二" font-family="MicrosoftYaHei, Microsoft YaHei" font-size="12" font-weight="normal" line-spacing="22" fill="#525A6E">
                <tspan x="8" y="27">样式二</tspan>
            </text>
        </g>
    </g>
</svg>