<?xml version="1.0" encoding="UTF-8"?>
<svg width="241px" height="192px" viewBox="0 0 241 192" version="1.1" xmlns="http://www.w3.org/2000/svg" xmlns:xlink="http://www.w3.org/1999/xlink">
    <!-- Generator: Sketch 58 (84663) - https://sketch.com -->
    <title>selection/style2</title>
    <desc>Created with Sketch.</desc>
    <g id="页面-1" stroke="none" stroke-width="1" fill="none" fill-rule="evenodd">
        <g id="selection/style2">
            <rect id="矩形备份-20" fill-opacity="0.01" fill="#FAFAFA" x="0" y="0" width="241" height="192"></rect>
            <rect id="矩形备份-4" stroke="#FD6868" fill="#FFFFFF" x="8.5" y="128.5" width="220" height="27" rx="2"></rect>
            <g id="编组-2备份" transform="translate(213.000000, 137.000000)">
                <rect id="矩形" fill="#D8D8D8" opacity="0.01" x="0" y="0" width="10" height="10"></rect>
                <path d="M3.07437422,1.34394406 C3.3505166,1.34394406 3.57437422,1.56780169 3.57437422,1.84394406 L3.57437422,5.34394406 L7.07437422,5.34394406 C7.3505166,5.34394406 7.57437422,5.56780169 7.57437422,5.84394406 C7.57437422,6.12008644 7.3505166,6.34394406 7.07437422,6.34394406 L3.07437422,6.34394406 L3.07437422,6.34394406 C2.79823185,6.34394406 2.57437422,6.12008644 2.57437422,5.84394406 L2.57437422,1.84394406 C2.57437422,1.56780169 2.79823185,1.34394406 3.07437422,1.34394406 Z" id="矩形-2" fill="#666666" transform="translate(5.074374, 3.843944) rotate(-45.000000) translate(-5.074374, -3.843944) "></path>
            </g>
            <path d="M12.1015625,167.606445 L17.0722656,167.606445 L17.0722656,172.323242 L16.3300781,172.323242 L16.3300781,171.756836 L12.84375,171.756836 L12.84375,172.323242 L12.1015625,172.323242 L12.1015625,167.606445 Z M11.4472656,166.112305 L12.8828125,166.112305 L12.8828125,164.803711 L11.7402344,164.803711 L11.7402344,164.139648 L12.8828125,164.139648 L12.8828125,162.733398 L13.625,162.733398 L13.625,164.139648 L15.4023438,164.139648 L15.4023438,162.733398 L16.1445312,162.733398 L16.1445312,164.139648 L17.5214844,164.139648 L17.5214844,164.803711 L16.1445312,164.803711 L16.1445312,166.112305 L17.8046875,166.112305 L17.8046875,166.776367 L11.4472656,166.776367 L11.4472656,166.112305 Z M11.2519531,169.676758 L11.3374024,170.07959 C11.3650716,170.20166 11.391927,170.311523 11.4179688,170.40918 L10.5952144,171.197754 C10.352702,171.433756 10.141928,171.642903 9.96289062,171.825195 L9.76289085,172.087695 C9.73997416,172.118424 9.71549492,172.151367 9.68945312,172.186523 L9.15234375,171.581055 C9.33463633,171.379231 9.42578125,171.08301 9.42578125,170.692383 L9.42578125,168.553711 L8.17578125,168.553711 L8.17578125,167.870117 L9.42578125,167.870117 L9.42578125,166.65918 L9.00585938,166.65918 L9.00585938,165.975586 L11.0957031,165.975586 L11.0957031,166.65918 L10.1386719,166.65918 L10.1386719,167.870117 L11.359375,167.870117 L11.359375,168.553711 L10.1386719,168.553711 L10.1386719,170.72168 C10.5488302,170.350584 10.9199202,170.00228 11.2519531,169.676758 Z M8.1171875,166.053711 C8.67708613,165.142248 9.09700381,164.022468 9.37695312,162.694336 L10.109375,162.850586 C9.99544214,163.316083 9.8668627,163.762042 9.72363281,164.188477 L11.3984375,164.188477 L11.3984375,164.87207 L9.47460938,164.87207 C9.20117051,165.578454 8.88216328,166.226234 8.51757812,166.81543 C8.39387959,166.568033 8.26041738,166.314129 8.1171875,166.053711 Z M12.84375,171.112305 L16.3300781,171.112305 L16.3300781,169.989258 L12.84375,169.989258 L12.84375,171.112305 Z M16.3300781,168.250977 L12.84375,168.250977 L12.84375,169.364258 L16.3300781,169.364258 L16.3300781,168.250977 Z M13.625,166.112305 L15.4023438,166.112305 L15.4023438,164.803711 L13.625,164.803711 L13.625,166.112305 Z M20.8417969,168.680664 L23.7910156,168.680664 C23.8365888,168.384439 23.8626302,168.000328 23.8691406,167.52832 L21.1933594,167.52832 L21.1933594,166.844727 L27.4824219,166.844727 L27.4824219,167.52832 L24.6308594,167.52832 C24.6210937,168.016604 24.5999351,168.400715 24.5673828,168.680664 L27.8242188,168.680664 L27.8242188,169.364258 L24.8066406,169.364258 C25.3860706,170.510097 26.430982,171.242511 27.9414062,171.561523 L27.6166991,171.95459 C27.5174155,172.07666 27.4270837,172.189778 27.3457031,172.293945 C25.8417894,171.85449 24.8017607,170.980475 24.2255859,169.671875 C23.7926411,170.840501 22.7428469,171.724281 21.0761719,172.323242 C20.9199211,172.121418 20.7441416,171.909832 20.5488281,171.688477 C22.16993,171.174151 23.1888,170.399419 23.6054688,169.364258 L20.8417969,169.364258 L20.8417969,168.680664 Z M21.6328125,163.133789 L26.984375,163.133789 L26.984375,166.327148 L26.2421875,166.327148 L26.2421875,165.887695 L22.375,165.887695 L22.375,166.327148 L21.6328125,166.327148 L21.6328125,163.133789 Z M21.1933594,169.774414 L21.2183594,170.152539 C21.2316406,170.327539 21.2460937,170.481445 21.2617188,170.614258 L20.7432952,170.958587 C20.1767278,171.341738 19.7440698,171.659902 19.4453125,171.913086 L18.9863281,171.258789 C19.2076834,171.076496 19.3183594,170.793296 19.3183594,170.40918 L19.3183594,166.756836 L18.15625,166.756836 L18.15625,166.053711 L20.0703125,166.053711 L20.0703125,170.555664 L20.6928714,170.130859 C20.8800454,170.000651 21.0468743,169.881836 21.1933594,169.774414 Z M26.2421875,163.788086 L22.375,163.788086 L22.375,165.233398 L26.2421875,165.233398 L26.2421875,163.788086 Z M19.2988281,162.948242 C19.7675805,163.423505 20.2330706,163.928057 20.6953125,164.461914 L20.0214844,165.02832 C19.5917947,164.481443 19.152346,163.960614 18.703125,163.46582 L19.2988281,162.948242 Z M32.0136719,163.124023 L36.8867188,163.124023 L36.8867188,166.981445 L36.1835938,166.981445 L36.1835938,166.698242 L32.7167969,166.698242 L32.7167969,166.981445 L32.0136719,166.981445 L32.0136719,163.124023 Z M30.4902344,171.874023 C31.4082077,171.10579 31.9225255,170.005541 32.0332031,168.573242 L32.765625,168.573242 C32.7330728,169.028974 32.6663417,169.455402 32.5654297,169.852539 C32.9788432,170.484053 33.5175748,170.910481 34.1816406,171.131836 L34.1816406,168.192383 L31.1640625,168.192383 L31.1640625,167.547852 L37.7460938,167.547852 L37.7460938,168.192383 L34.9140625,168.192383 L34.9140625,169.286133 L37.3652344,169.286133 L37.3652344,169.911133 L34.9140625,169.911133 L34.9140625,171.288086 L35.1199656,171.305968 C35.62853,171.338318 36.5429621,171.329102 37.8632812,171.27832 L37.6386719,172.000977 L37.6386719,172.000977 C37.0576143,172.015625 36.4600839,172.013794 35.8460705,171.995483 L35.2265625,171.97168 C33.9114518,171.955404 32.9446646,171.493169 32.3261719,170.584961 C32.052733,171.265303 31.6556016,171.847979 31.1347656,172.333008 C30.9394521,172.170247 30.7246105,172.017253 30.4902344,171.874023 Z M28.1269531,167.870117 C28.5436219,167.69108 28.9635396,167.50228 29.3867188,167.303711 L29.3867188,165.223633 L28.2050781,165.223633 L28.2050781,164.55957 L29.3867188,164.55957 L29.3867188,162.743164 L30.1289062,162.743164 L30.1289062,164.55957 L31.3789062,164.55957 L31.3789062,165.223633 L30.1289062,165.223633 L30.1289062,166.942383 C30.5032571,166.756835 30.8776023,166.561524 31.2519531,166.356445 C31.2714845,166.610353 31.2975259,166.870767 31.3300781,167.137695 L30.1289062,167.738281 L30.1289062,167.738281 L30.1289062,171.141602 C30.1289062,171.773115 29.8880232,172.114909 29.40625,172.166992 C29.0677066,172.199544 28.6868511,172.20931 28.2636719,172.196289 C28.2246092,171.92285 28.1822919,171.652671 28.1367188,171.385742 L28.5414067,171.423242 C28.73125,171.437305 28.902343,171.444336 29.0546875,171.444336 C29.2760428,171.444336 29.3867188,171.323894 29.3867188,171.083008 L29.3867188,168.119141 C28.9960918,168.320965 28.6087259,168.524413 28.2246094,168.729492 L28.1269531,167.870117 Z M32.7167969,166.073242 L36.1835938,166.073242 L36.1835938,165.213867 L32.7167969,165.213867 L32.7167969,166.073242 Z M36.1835938,163.749023 L32.7167969,163.749023 L32.7167969,164.598633 L36.1835938,164.598633 L36.1835938,163.749023 Z M38.15625,166.200195 L47.84375,166.200195 L47.84375,166.932617 L43.6542969,166.932617 L43.6542969,170.87793 C43.6542969,171.691736 43.2278688,172.101888 42.375,172.108398 L41.1828134,172.102148 C41.0746102,172.101107 40.9641933,172.099935 40.8515625,172.098633 L40.7856446,171.673828 C40.7612306,171.524089 40.7343751,171.366212 40.7050781,171.200195 C41.2194036,171.252279 41.7044248,171.27832 42.1601562,171.27832 C42.6028668,171.27832 42.8242188,171.060224 42.8242188,170.624023 L42.8242188,166.932617 L38.15625,166.932617 L38.15625,166.200195 Z M39.0546875,163.319336 L46.9746094,163.319336 L46.9746094,164.051758 L39.0546875,164.051758 L39.0546875,163.319336 Z M44.8945312,168.114258 L45.5488281,167.674805 C46.3496134,168.657883 47.1243452,169.683263 47.8730469,170.750977 L47.1601562,171.219727 L46.5644519,170.362791 C45.9785147,169.532713 45.4218776,168.783206 44.8945312,168.114258 Z M40.3144531,167.655273 L41.0273438,168.055664 C40.3437466,169.240566 39.6145872,170.366857 38.8398438,171.43457 C38.6380198,171.28483 38.4231782,171.131837 38.1953125,170.975586 C38.9244828,170.031571 39.630856,168.924811 40.3144531,167.655273 Z M48.3027344,164.374023 L52.9902344,164.374023 L52.7570795,163.937011 C52.5373529,163.531737 52.3579109,163.221681 52.21875,163.006836 L52.9707031,162.655273 L53.1833767,162.993815 C53.3454134,163.258571 53.5479589,163.601452 53.7910156,164.022461 L53.0878906,164.374023 L57.6777344,164.374023 L57.6777344,165.09668 L55.8759766,165.09668 C55.5276675,166.955413 54.7789771,168.449539 53.6298828,169.579102 C54.4957726,170.210615 55.8710843,170.777016 57.7558594,171.27832 C57.4563787,171.616864 57.2285164,171.900064 57.0722656,172.12793 C55.2363189,171.493161 53.8805382,170.829105 53.0048828,170.135742 C52.1259722,170.819339 50.7213638,171.509437 48.7910156,172.206055 L48.5175782,171.844727 C48.4199222,171.717774 48.3157558,171.584311 48.2050781,171.444336 C50.0670666,170.884437 51.4684198,170.261071 52.4091797,169.574219 C51.2210227,168.304681 50.4658219,166.812183 50.1435547,165.09668 L48.3027344,165.09668 L48.3027344,164.374023 Z M55.0410156,165.09668 L50.9248047,165.09668 C51.2177749,166.69825 51.9176377,168.021479 53.0244141,169.066406 C54.0823621,168.083328 54.7545559,166.760099 55.0410156,165.09668 Z M58.1953125,168.456055 L62.7753906,168.456055 L62.7753906,167.84082 L64.6992188,166.629883 L59.9726562,166.629883 L59.9726562,165.916992 L65.890625,165.916992 L65.890625,166.708008 L63.5761719,168.192383 L63.5761719,168.456055 L67.84375,168.456055 L67.84375,169.178711 L63.5761719,169.178711 L63.5761719,170.975586 C63.5761719,171.802413 63.1627646,172.21582 62.3359375,172.21582 L61.8978578,172.213074 C61.6186227,172.210022 61.2796244,172.204427 60.8808594,172.196289 L60.8320313,171.793457 C60.8125001,171.648601 60.7897137,171.493165 60.7636719,171.327148 C61.2779974,171.398763 61.733722,171.43457 62.1308594,171.43457 C62.560549,171.43457 62.7753906,171.203453 62.7753906,170.741211 L62.7753906,169.178711 L58.1953125,169.178711 L58.1953125,168.456055 Z M58.5664062,164.149414 L63.0585938,164.149414 C62.8177071,163.807615 62.5279965,163.43327 62.1894531,163.026367 L62.84375,162.586914 C63.2539083,163.036135 63.5924466,163.452798 63.859375,163.836914 L63.3955078,164.149414 L67.5117188,164.149414 L67.5117188,166.131836 L66.7207031,166.131836 L66.7207031,164.862305 L59.3476562,164.862305 L59.3476562,166.131836 L58.5664062,166.131836 L58.5664062,164.149414 Z" id="错误提示文字" fill="#FD6868" fill-rule="nonzero"></path>
            <path d="M8.5,65.9912443 L8.5,90.0087557 C8.5,90.8269645 9.17238789,91.5 9.99511594,91.5 L227.004884,91.5 C227.832562,91.5 228.5,90.8332084 228.5,90.0087557 L228.5,65.9912443 C228.5,65.1730355 227.827612,64.5 227.004884,64.5 L9.99511594,64.5 C9.16743798,64.5 8.5,65.1667916 8.5,65.9912443 Z" id="Rectangle-26-Copy-23备份-3" stroke="#B8D7FF" fill="#EFF6FF"></path>
            <path d="M8.5,97.9912443 L8.5,122.008756 C8.5,122.826964 9.17238789,123.5 9.99511594,123.5 L227.004884,123.5 C227.832562,123.5 228.5,122.833208 228.5,122.008756 L228.5,97.9912443 C228.5,97.1730355 227.827612,96.5 227.004884,96.5 L9.99511594,96.5 C9.16743798,96.5 8.5,97.1667916 8.5,97.9912443 Z" id="Rectangle-26-Copy-23备份-4" stroke="#E7EAED" fill="#F8F8F8"></path>
            <g id="编组-2备份" transform="translate(213.000000, 73.000000)">
                <rect id="矩形" fill="#D8D8D8" opacity="0.01" x="0" y="0" width="10" height="10"></rect>
                <path d="M3.07437422,1.34394406 C3.3505166,1.34394406 3.57437422,1.56780169 3.57437422,1.84394406 L3.57437422,5.34394406 L7.07437422,5.34394406 C7.3505166,5.34394406 7.57437422,5.56780169 7.57437422,5.84394406 C7.57437422,6.12008644 7.3505166,6.34394406 7.07437422,6.34394406 L3.07437422,6.34394406 L3.07437422,6.34394406 C2.79823185,6.34394406 2.57437422,6.12008644 2.57437422,5.84394406 L2.57437422,1.84394406 C2.57437422,1.56780169 2.79823185,1.34394406 3.07437422,1.34394406 Z" id="矩形-2" fill="#666666" transform="translate(5.074374, 3.843944) rotate(-45.000000) translate(-5.074374, -3.843944) "></path>
            </g>
            <g id="编组-2备份-2" opacity="0.5" transform="translate(213.000000, 105.000000)">
                <rect id="矩形" fill="#D8D8D8" opacity="0.01" x="0" y="0" width="10" height="10"></rect>
                <path d="M3.07437422,1.34394406 C3.3505166,1.34394406 3.57437422,1.56780169 3.57437422,1.84394406 L3.57437422,5.34394406 L7.07437422,5.34394406 C7.3505166,5.34394406 7.57437422,5.56780169 7.57437422,5.84394406 C7.57437422,6.12008644 7.3505166,6.34394406 7.07437422,6.34394406 L3.07437422,6.34394406 L3.07437422,6.34394406 C2.79823185,6.34394406 2.57437422,6.12008644 2.57437422,5.84394406 L2.57437422,1.84394406 C2.57437422,1.56780169 2.79823185,1.34394406 3.07437422,1.34394406 Z" id="矩形-2" fill="#666666" transform="translate(5.074374, 3.843944) rotate(-45.000000) translate(-5.074374, -3.843944) "></path>
            </g>
            <path d="M8.5,33.9912443 L8.5,58.0087557 C8.5,58.8269645 9.17238789,59.5 9.99511594,59.5 L227.004884,59.5 C227.832562,59.5 228.5,58.8332084 228.5,58.0087557 L228.5,33.9912443 C228.5,33.1730355 227.827612,32.5 227.004884,32.5 L9.99511594,32.5 C9.16743798,32.5 8.5,33.1667916 8.5,33.9912443 Z" id="Rectangle-26-Copy-23备份-2" stroke="#D9D9D9" fill="#FFFFFF"></path>
            <g id="编组-2" transform="translate(213.000000, 41.000000)">
                <rect id="矩形" fill="#D8D8D8" opacity="0.01" x="0" y="0" width="10" height="10"></rect>
                <path d="M3.07437422,1.34394406 C3.3505166,1.34394406 3.57437422,1.56780169 3.57437422,1.84394406 L3.57437422,5.34394406 L7.07437422,5.34394406 C7.3505166,5.34394406 7.57437422,5.56780169 7.57437422,5.84394406 C7.57437422,6.12008644 7.3505166,6.34394406 7.07437422,6.34394406 L3.07437422,6.34394406 L3.07437422,6.34394406 C2.79823185,6.34394406 2.57437422,6.12008644 2.57437422,5.84394406 L2.57437422,1.84394406 C2.57437422,1.56780169 2.79823185,1.34394406 3.07437422,1.34394406 Z" id="矩形-2" fill="#666666" transform="translate(5.074374, 3.843944) rotate(-45.000000) translate(-5.074374, -3.843944) "></path>
            </g>
            <text id="样式二" font-family="MicrosoftYaHei, Microsoft YaHei" font-size="12" font-weight="normal" line-spacing="22" fill="#525A6E">
                <tspan x="8" y="19">样式二</tspan>
            </text>
        </g>
    </g>
</svg>