<?xml version="1.0" encoding="UTF-8"?>
<svg width="494px" height="52px" viewBox="0 0 494 52" version="1.1" xmlns="http://www.w3.org/2000/svg" xmlns:xlink="http://www.w3.org/1999/xlink">
    <!-- Generator: Sketch 58 (84663) - https://sketch.com -->
    <title>paging/style3</title>
    <desc>Created with Sketch.</desc>
    <g id="页面-1" stroke="none" stroke-width="1" fill="none" fill-rule="evenodd">
        <g id="编组-26备份" transform="translate(0.000000, -138.000000)">
            <g id="paging/style3" transform="translate(0.000000, 138.000000)">
                <rect id="矩形备份-4" fill="#FAFAFA" opacity="0.01" x="0" y="0" width="494" height="52"></rect>
                <g id="编组-18" transform="translate(52.000000, 14.000000)">
                    <g id="编组-3" transform="translate(32.000000, 0.000000)">
                        <rect id="矩形" stroke="#F0F0F0" fill="#FFFFFF" x="0.5" y="0.5" width="273" height="23" rx="11.5"></rect>
                        <g id="turnpage-left-no" transform="translate(10.000000, 8.000000)" stroke="#B7B7B7">
                            <polyline id="路径" points="5.11904982 0 0 4.5251749 5.11904982 8.69994188"></polyline>
                        </g>
                        <rect id="矩形" fill="#F0F0F0" x="24" y="0" width="1" height="24"></rect>
                        <rect id="矩形" fill="#E4EFFF" x="25" y="1" width="24" height="22"></rect>
                        <path d="M37.336,7.716 L38.32,7.716 L38.32,16.284 L37.012,16.284 L37.012,9.288 C36.496,9.78 35.836,10.14 35.044,10.368 L35.044,9.072 C35.428,8.976 35.824,8.808 36.256,8.568 C36.688,8.304 37.048,8.028 37.336,7.716 Z" id="1" fill="#4F7DE7" fill-rule="nonzero"></path>
                        <path d="M62.132,7.632 C62.948,7.632 63.632,7.86 64.16,8.34 C64.676,8.82 64.94,9.432 64.94,10.188 C64.94,10.932 64.652,11.604 64.1,12.216 C63.764,12.564 63.176,13.02 62.324,13.596 C61.4,14.208 60.848,14.748 60.668,15.216 L64.952,15.216 L64.952,16.368 L59.048,16.368 C59.048,15.5934545 59.2760992,14.9081653 59.7503291,14.3031165 L59.9,14.124 C60.212,13.752 60.86,13.236 61.832,12.564 L62.2325,12.2735625 C62.6015,11.9985 62.876,11.769 63.056,11.58 C63.44,11.148 63.644,10.68 63.644,10.176 C63.644,9.696 63.512,9.336 63.248,9.096 C62.984,8.856 62.588,8.736 62.084,8.736 C61.544,8.736 61.136,8.916 60.86,9.288 C60.572,9.648 60.428,10.164 60.404,10.86 L59.096,10.86 C59.108,9.9 59.384,9.132 59.924,8.556 C60.476,7.932 61.22,7.632 62.132,7.632 Z" id="2" fill="#666666" fill-rule="nonzero"></path>
                        <path d="M87.084,7.548 C87.948,7.548 88.632,7.752 89.16,8.172 C89.664,8.592 89.928,9.168 89.928,9.9 C89.928,10.836 89.448,11.472 88.512,11.784 C89.016,11.94 89.4,12.18 89.664,12.492 C89.952,12.816 90.096,13.236 90.096,13.74 C90.096,14.532 89.82,15.18 89.28,15.684 C88.704,16.188 87.948,16.452 87.036,16.452 C86.16,16.452 85.452,16.224 84.924,15.78 C84.324,15.276 83.988,14.544 83.916,13.584 L85.236,13.584 C85.26,14.16 85.44,14.604 85.8,14.916 C86.112,15.204 86.52,15.348 87.024,15.348 C87.576,15.348 88.02,15.18 88.356,14.868 C88.644,14.58 88.8,14.232 88.8,13.8 C88.8,13.296 88.644,12.924 88.332,12.684 C88.044,12.444 87.612,12.324 87.048,12.324 L86.424,12.324 L86.424,11.34 L87.036,11.34 C87.564,11.34 87.96,11.22 88.224,10.992 C88.488,10.764 88.632,10.428 88.632,9.996 C88.632,9.564 88.5,9.24 88.26,9.012 C87.996,8.772 87.6,8.664 87.096,8.664 C86.58,8.664 86.172,8.796 85.884,9.06 C85.596,9.324 85.416,9.72 85.368,10.248 L84.084,10.248 C84.156,9.396 84.468,8.736 85.032,8.256 C85.56,7.776 86.244,7.548 87.084,7.548 Z" id="3" fill="#666666" fill-rule="nonzero"></path>
                        <path d="M112.864,7.716 L108.64,13.188 L108.64,14.424 L112.816,14.424 L112.816,16.284 L114.064,16.284 L114.064,14.424 L115.36,14.424 L115.36,13.38 L114.064,13.38 L114.064,7.716 L112.864,7.716 Z M112.78,9.372 L112.816,9.372 L112.816,13.38 L109.708,13.38 L112.78,9.372 Z" id="4" fill="#666666" fill-rule="nonzero"></path>
                        <path d="M134.54,7.632 L139.7,7.632 L139.7,8.784 L135.596,8.784 L135.344,11.256 L135.38,11.256 C135.6,11.026 135.845,10.8543333 136.121944,10.7340556 L136.292,10.668 C136.604,10.536 136.964,10.476 137.348,10.476 C138.152,10.476 138.812,10.74 139.316,11.268 C139.82,11.796 140.084,12.516 140.084,13.44 C140.084,14.328 139.748,15.048 139.1,15.612 C138.488,16.116 137.756,16.368 136.904,16.368 C136.136,16.368 135.476,16.152 134.924,15.732 C134.312,15.276 133.976,14.64 133.916,13.848 L135.2,13.848 C135.248,14.328 135.44,14.7 135.764,14.94 C136.052,15.156 136.436,15.264 136.916,15.264 C137.444,15.264 137.888,15.096 138.248,14.772 C138.608,14.436 138.788,14.004 138.788,13.452 C138.788,12.852 138.632,12.384 138.32,12.048 C138.008,11.712 137.576,11.544 137,11.544 C136.616,11.544 136.292,11.604 136.004,11.748 C135.692,11.892 135.464,12.12 135.296,12.432 L134.072,12.432 L134.54,7.632 Z" id="5" fill="#666666" fill-rule="nonzero"></path>
                        <path d="M183.736,7.716 C183.448,8.028 183.088,8.304 182.656,8.568 C182.224,8.808 181.828,8.976 181.444,9.072 L181.444,10.368 C182.236,10.14 182.896,9.78 183.412,9.288 L183.412,16.284 L184.72,16.284 L184.72,7.716 L183.736,7.716 Z M189.448,7.548 C188.44,7.548 187.66,7.968 187.108,8.82 C186.604,9.6 186.352,10.656 186.352,12 C186.352,13.332 186.604,14.388 187.108,15.18 C187.66,16.02 188.44,16.452 189.448,16.452 C190.456,16.452 191.236,16.02 191.788,15.18 C192.292,14.388 192.544,13.32 192.544,12 C192.544,10.668 192.292,9.612 191.788,8.82 C191.236,7.968 190.456,7.548 189.448,7.548 Z M189.448,8.652 C190.144,8.652 190.648,9.036 190.936,9.816 C191.14,10.344 191.248,11.076 191.248,12 C191.248,12.912 191.14,13.644 190.936,14.184 C190.648,14.952 190.144,15.348 189.448,15.348 C188.74,15.348 188.248,14.952 187.96,14.184 C187.744,13.644 187.648,12.912 187.648,12 C187.648,11.076 187.744,10.344 187.96,9.816 C188.248,9.036 188.74,8.652 189.448,8.652 Z" id="10" fill="#666666" fill-rule="nonzero"></path>
                        <path d="M209.888,7.716 C209.6,8.028 209.24,8.304 208.808,8.568 C208.376,8.808 207.98,8.976 207.596,9.072 L207.596,10.368 C208.388,10.14 209.048,9.78 209.564,9.288 L209.564,16.284 L210.872,16.284 L210.872,7.716 L209.888,7.716 Z M214.784,7.716 L215.768,7.716 L215.768,16.284 L214.46,16.284 L214.46,9.288 C213.944,9.78 213.284,10.14 212.492,10.368 L212.492,9.072 C212.876,8.976 213.272,8.808 213.704,8.568 C214.136,8.304 214.496,8.028 214.784,7.716 Z" id="11" fill="#666666" fill-rule="nonzero"></path>
                        <path d="M233.736,7.8 C233.448,8.112 233.088,8.388 232.656,8.652 C232.224,8.892 231.828,9.06 231.444,9.156 L231.444,10.452 C232.236,10.224 232.896,9.864 233.412,9.372 L233.412,16.368 L234.72,16.368 L234.72,7.8 L233.736,7.8 Z M239.58,7.632 C240.396,7.632 241.08,7.86 241.608,8.34 C242.124,8.82 242.388,9.432 242.388,10.188 C242.388,10.932 242.1,11.604 241.548,12.216 C241.212,12.564 240.624,13.02 239.772,13.596 C238.848,14.208 238.296,14.748 238.116,15.216 L242.4,15.216 L242.4,16.368 L236.496,16.368 C236.496,15.5934545 236.724099,14.9081653 237.198329,14.3031165 L237.348,14.124 C237.66,13.752 238.308,13.236 239.28,12.564 L239.6805,12.2735625 C240.0495,11.9985 240.324,11.769 240.504,11.58 C240.888,11.148 241.092,10.68 241.092,10.176 C241.092,9.696 240.96,9.336 240.696,9.096 C240.432,8.856 240.036,8.736 239.532,8.736 C238.992,8.736 238.584,8.916 238.308,9.288 C238.02,9.648 237.876,10.164 237.852,10.86 L236.544,10.86 C236.556,9.9 236.832,9.132 237.372,8.556 C237.924,7.932 238.668,7.632 239.58,7.632 Z" id="12" fill="#666666" fill-rule="nonzero"></path>
                        <polyline id="路径" stroke="#666666" transform="translate(261.559525, 12.349971) rotate(180.000000) translate(-261.559525, -12.349971) " points="264.11905 8 259 12.5251749 264.11905 16.6999419"></polyline>
                        <rect id="矩形" fill="#F0F0F0" x="49" y="0" width="1" height="24"></rect>
                        <rect id="矩形" fill="#F0F0F0" x="74" y="0" width="1" height="24"></rect>
                        <rect id="矩形" fill="#F0F0F0" x="99" y="0" width="1" height="24"></rect>
                        <rect id="矩形" fill="#F0F0F0" x="124" y="0" width="1" height="24"></rect>
                        <rect id="矩形" fill="#F0F0F0" x="149" y="0" width="1" height="24"></rect>
                        <rect id="矩形" fill="#F0F0F0" x="174" y="0" width="1" height="24"></rect>
                        <rect id="矩形" fill="#F0F0F0" x="199" y="0" width="1" height="24"></rect>
                        <rect id="矩形" fill="#F0F0F0" x="224" y="0" width="1" height="24"></rect>
                        <rect id="矩形" fill="#F0F0F0" x="249" y="0" width="1" height="24"></rect>
                        <g id="分组-3-copy备份-3" transform="translate(154.000000, 11.000000)" fill="#666666">
                            <path d="M1.5,0 C2.32842712,0 3,0.671572875 3,1.5 C3,2.32842712 2.32842712,3 1.5,3 C0.671572875,3 0,2.32842712 0,1.5 C0,0.671572875 0.671572875,0 1.5,0 Z M7.5,0 C8.32842712,0 9,0.671572875 9,1.5 C9,2.32842712 8.32842712,3 7.5,3 C6.67157288,3 6,2.32842712 6,1.5 C6,0.671572875 6.67157288,0 7.5,0 Z M13.5,0 C14.3284271,0 15,0.671572875 15,1.5 C15,2.32842712 14.3284271,3 13.5,3 C12.6715729,3 12,2.32842712 12,1.5 C12,0.671572875 12.6715729,0 13.5,0 Z" id="椭圆形-2"></path>
                        </g>
                    </g>
                    <g id="编组-2" transform="translate(314.000000, 0.000000)">
                        <circle id="椭圆形" stroke="#F0F0F0" fill="#FFFFFF" cx="12" cy="12" r="11.5"></circle>
                        <polyline id="路径" stroke="#666666" transform="translate(11.559525, 12.349971) rotate(180.000000) translate(-11.559525, -12.349971) " points="14.1190498 8 9 12.5251749 14.1190498 16.6999419"></polyline>
                        <path d="M14.7859442,8 L14.7859442,16.6999419" id="路径-3" stroke="#666666"></path>
                    </g>
                    <g id="分组-3-copy-2" transform="translate(351.000000, 6.000000)">
                        <g id="路径-2" transform="translate(47.000000, 3.000000)">
                            <polyline id="路径" stroke="#666666" transform="translate(4.959525, 3.349971) rotate(270.000000) translate(-4.959525, -3.349971) " points="7.51904985 -1 2.40000003 3.5251749 7.51904985 7.69994188"></polyline>
                            <rect id="矩形" x="0" y="0" width="10" height="6"></rect>
                        </g>
                        <path d="M5.31054688,10.1542969 L0.107421875,10.1542969 L0.107421875,9.1640625 L2.140625,9.1640625 L2.140625,2.2734375 L0.0546875,2.87695312 L0.0546875,1.82226562 L3.28320312,0.884765625 L3.28320312,9.1640625 L5.31054688,9.1640625 L5.31054688,10.1542969 Z M6.5703125,5.79492188 C6.5703125,4.19335137 6.83593484,2.98144942 7.3671875,2.15917969 C7.89844016,1.33690995 8.66796371,0.92578125 9.67578125,0.92578125 C11.5976659,0.92578125 12.5585938,2.47654699 12.5585938,5.578125 C12.5585938,7.10938266 12.2880886,8.28026938 11.7470703,9.09082031 C11.206052,9.90137124 10.4472705,10.3066406 9.47070312,10.3066406 C8.54882352,10.3066406 7.83496347,9.92187885 7.32910156,9.15234375 C6.82323966,8.38280865 6.5703125,7.26367922 6.5703125,5.79492188 Z M7.7421875,5.7421875 C7.7421875,8.1523558 8.35350951,9.35742188 9.57617188,9.35742188 C10.7793029,9.35742188 11.3808594,8.13282475 11.3808594,5.68359375 C11.3808594,3.14842482 10.7910215,1.88085938 9.61132812,1.88085938 C8.36522814,1.88085938 7.7421875,3.16795588 7.7421875,5.7421875 Z M13.7773438,3.87890625 C15.0429751,2.83983855 16.1289017,1.60156969 17.0351562,0.1640625 L18.1015625,0.1640625 C17.8593738,0.554689453 17.6113294,0.929685703 17.3574219,1.2890625 L23.09375,1.2890625 L23.09375,2.12109375 C22.1718704,3.0117232 21.2050832,3.7597626 20.1933594,4.36523438 C21.3808653,4.80664283 22.9531152,5.12109281 24.9101562,5.30859375 C24.6445299,5.67578309 24.4726566,6.01562344 24.3945312,6.328125 C22.1640513,5.94531059 20.435553,5.46679975 19.2089844,4.89257812 C17.8144462,5.54492514 15.9609491,6.11327883 13.6484375,6.59765625 C13.5312494,6.31640484 13.3906258,6.03515766 13.2265625,5.75390625 C15.3906358,5.35546676 17.0722596,4.90429939 18.2714844,4.40039062 C17.5605433,3.96679471 16.8906281,3.39844102 16.2617188,2.6953125 C15.6992159,3.35156578 15.1054719,3.95312227 14.4804688,4.5 C14.1992173,4.21874859 13.9648447,4.01171941 13.7773438,3.87890625 Z M14.375,6.85546875 L18.7226562,6.85546875 L18.7226562,5.6953125 L19.6484375,5.6953125 L19.6484375,6.85546875 L23.7148438,6.85546875 L23.7148438,7.6875 L19.6484375,7.6875 L19.6484375,10.1484375 C19.6484375,11.0625046 19.1679736,11.5195312 18.2070312,11.5195312 L17.3717194,11.5153125 C17.1692198,11.5134375 16.9554699,11.5109375 16.7304688,11.5078125 C16.6835935,11.1874984 16.6250004,10.8437518 16.5546875,10.4765625 L17.0716154,10.528646 C17.3962678,10.5564238 17.6809884,10.5703125 17.9257812,10.5703125 C18.4570339,10.5703125 18.7226562,10.2851591 18.7226562,9.71484375 L18.7226562,7.6875 L14.375,7.6875 L14.375,6.85546875 Z M21.8984375,2.07421875 L16.7890625,2.07421875 C17.4765659,2.81250369 18.2949171,3.43163812 19.2441406,3.93164062 C20.1699265,3.42773186 21.0546833,2.80859742 21.8984375,2.07421875 Z M20.75,8.90625 L21.2890625,8.23828125 C22.5781314,8.94140977 23.7148388,9.61327805 24.6992188,10.2539062 L24.1367188,11.0742188 C23.1992141,10.4023404 22.0703191,9.67969137 20.75,8.90625 Z M16.5898438,8.12109375 L17.28125,8.765625 C16.3281202,9.5859416 15.2812557,10.3867148 14.140625,11.1679688 C13.9609366,10.9335926 13.7617198,10.6953137 13.5429688,10.453125 C14.6210991,9.78905918 15.636714,9.0117232 16.5898438,8.12109375 Z M30.3066406,1.078125 L25.953125,11.6601562 L24.8808594,11.6601562 L29.234375,1.078125 L30.3066406,1.078125 Z M31.9355469,3.2109375 L35.2636719,3.2109375 L35.3545521,2.83402391 C35.4334742,2.4960143 35.5203678,2.09821657 35.6152344,1.640625 L30.6113281,1.640625 L30.6113281,0.7734375 L41.8378906,0.7734375 L41.8378906,1.640625 L36.6582031,1.640625 L36.465078,2.33062632 C36.3703907,2.6550011 36.2785161,2.9484375 36.1894531,3.2109375 L40.6074219,3.2109375 L40.6074219,8.7890625 L39.6582031,8.7890625 L39.6582031,4.078125 L32.8847656,4.078125 L32.8847656,8.8359375 L31.9355469,8.8359375 L31.9355469,3.2109375 Z M30.3886719,10.9101562 C32.3808693,10.4726541 33.7519494,9.93359695 34.5019531,9.29296875 C35.3613324,8.58984023 35.7910156,7.50391359 35.7910156,6.03515625 L35.7910156,4.72265625 L36.7402344,4.72265625 L36.7402344,6.08203125 C36.7402344,6.8710977 36.6386729,7.57030945 36.4355469,8.1796875 C38.4043067,9.0390668 40.1972575,9.92577668 41.8144531,10.8398438 L41.2167969,11.71875 C39.7167894,10.7968704 38.005869,9.88281703 36.0839844,8.9765625 C35.8105455,9.45312738 35.4550803,9.85546711 35.0175781,10.1835938 C34.1035111,10.8789097 32.7636807,11.4296855 30.9980469,11.8359375 C30.8574212,11.5781237 30.6542982,11.269533 30.3886719,10.9101562 Z" id="10条/页" fill="#666666" fill-rule="nonzero"></path>
                    </g>
                    <g id="编组-2" transform="translate(12.000000, 12.000000) scale(-1, 1) translate(-12.000000, -12.000000) ">
                        <circle id="椭圆形" stroke="#F0F0F0" fill="#FFFFFF" cx="12" cy="12" r="11.5"></circle>
                        <polyline id="路径" stroke="#666666" transform="translate(11.559525, 12.349971) rotate(180.000000) translate(-11.559525, -12.349971) " points="14.1190498 8 9 12.5251749 14.1190498 16.6999419"></polyline>
                        <path d="M14.7859442,8 L14.7859442,16.6999419" id="路径-3" stroke="#666666"></path>
                    </g>
                </g>
                <text id="样式三" font-family="MicrosoftYaHei, Microsoft YaHei" font-size="12" font-weight="normal" line-spacing="22" fill="#525A6E">
                    <tspan x="8" y="27">样式三</tspan>
                </text>
            </g>
        </g>
    </g>
</svg>