<?xml version="1.0" encoding="UTF-8"?>
<svg width="494px" height="155px" viewBox="0 0 494 155" version="1.1" xmlns="http://www.w3.org/2000/svg" xmlns:xlink="http://www.w3.org/1999/xlink">
    <!-- Generator: Sketch 58 (84663) - https://sketch.com -->
    <title>warning-hints/style1</title>
    <desc>Created with Sketch.</desc>
    <g id="页面-1" stroke="none" stroke-width="1" fill="none" fill-rule="evenodd">
        <g id="配置组件V10分页3" transform="translate(-224.000000, -2313.000000)">
            <g id="编组-35" transform="translate(224.000000, 2235.000000)">
                <g id="warning-hints/style1" transform="translate(0.000000, 78.000000)">
                    <rect id="矩形" fill-opacity="0.01" fill="#FAFAFA" x="0" y="0" width="494" height="155"></rect>
                    <rect id="矩形" stroke="#4F7DE7" fill="#E6F1FF" x="52.5" y="15.5" width="409" height="35" rx="2"></rect>
                    <g id="编组-13" transform="translate(440.000000, 26.000000)">
                        <rect id="矩形" fill="#D8D8D8" opacity="0.01" x="0" y="0" width="14" height="14"></rect>
                        <path d="M7.70710678,7 L11.9497475,11.2426407 C12.1450096,11.4379028 12.1450096,11.7544853 11.9497475,11.9497475 C11.7544853,12.1450096 11.4379028,12.1450096 11.2426407,11.9497475 L7,7.70710678 L2.75735931,11.9497475 C2.56209717,12.1450096 2.24551468,12.1450096 2.05025253,11.9497475 C1.85499039,11.7544853 1.85499039,11.4379028 2.05025253,11.2426407 L6.29289322,7 L2.05025253,2.75735931 C1.85499039,2.56209717 1.85499039,2.24551468 2.05025253,2.05025253 C2.24551468,1.85499039 2.56209717,1.85499039 2.75735931,2.05025253 L7,6.29289322 L11.2426407,2.05025253 C11.4379028,1.85499039 11.7544853,1.85499039 11.9497475,2.05025253 C12.1450096,2.24551468 12.1450096,2.56209717 11.9497475,2.75735931 L7.70710678,7 Z" id="路径" fill="#AAADBA"></path>
                    </g>
                    <text id="An-info-prompt" font-family="ArialMT, Arial" font-size="12" font-weight="normal" fill="#5A6677">
                        <tspan x="88" y="37">An info prompt</tspan>
                    </text>
                    <g id="tip-blue" transform="translate(64.000000, 25.000000)">
                        <rect id="矩形" fill="#FFFFFF" opacity="0.01" x="0" y="0" width="16" height="16"></rect>
                        <g id="编组-9" transform="translate(0.549038, 1.000000)" stroke="#4F7DE7">
                            <path d="M7.45096189,4.5 C5.51796527,4.5 3.95096189,6.06700338 3.95096189,8 L3.95096189,11 C3.95096189,11.2761424 4.17481952,11.5 4.45096189,11.5 L10.4509619,11.5 C10.7271043,11.5 10.9509619,11.2761424 10.9509619,11 L10.9509619,8 C10.9509619,6.06700338 9.38395852,4.5 7.45096189,4.5 Z" id="矩形"></path>
                            <rect id="矩形" fill="#D8D8D8" x="7.45096189" y="8.5" width="1" height="3" rx="0.5"></rect>
                            <rect id="矩形" fill="#D8D8D8" x="6.45096189" y="8.5" width="2" height="1" rx="0.5"></rect>
                            <path d="M3.95096189,2.5 L4.45096189,3.3660254 L3.95096189,2.5 Z" id="矩形" fill="#D8D8D8"></path>
                            <path d="" id="矩形" fill="#D8D8D8"></path>
                            <path d="" id="矩形" fill="#D8D8D8"></path>
                            <path d="M13.5,5.1830127 L14.3660254,4.6830127 L13.5,5.1830127 Z" id="矩形" fill="#D8D8D8"></path>
                            <rect id="矩形" fill="#D8D8D8" x="7.45096189" y="0.5" width="1" height="2" rx="0.5"></rect>
                            <rect id="矩形" fill="#D8D8D8" x="3.95096189" y="13.5" width="7" height="1" rx="0.5"></rect>
                        </g>
                    </g>
                    <rect id="矩形" stroke="#F8B303" fill="#FFF8E5" x="52.5" y="59.5" width="409" height="35" rx="2"></rect>
                    <g id="编组-13" transform="translate(440.000000, 70.000000)">
                        <rect id="矩形" fill="#D8D8D8" opacity="0.01" x="0" y="0" width="14" height="14"></rect>
                        <path d="M7.70710678,7 L11.9497475,11.2426407 C12.1450096,11.4379028 12.1450096,11.7544853 11.9497475,11.9497475 C11.7544853,12.1450096 11.4379028,12.1450096 11.2426407,11.9497475 L7,7.70710678 L2.75735931,11.9497475 C2.56209717,12.1450096 2.24551468,12.1450096 2.05025253,11.9497475 C1.85499039,11.7544853 1.85499039,11.4379028 2.05025253,11.2426407 L6.29289322,7 L2.05025253,2.75735931 C1.85499039,2.56209717 1.85499039,2.24551468 2.05025253,2.05025253 C2.24551468,1.85499039 2.56209717,1.85499039 2.75735931,2.05025253 L7,6.29289322 L11.2426407,2.05025253 C11.4379028,1.85499039 11.7544853,1.85499039 11.9497475,2.05025253 C12.1450096,2.24551468 12.1450096,2.56209717 11.9497475,2.75735931 L7.70710678,7 Z" id="路径" fill="#AAADBA"></path>
                    </g>
                    <text id="A-warning-prompt" font-family="ArialMT, Arial" font-size="12" font-weight="normal" fill="#5A6677">
                        <tspan x="88" y="81">A warning prompt</tspan>
                    </text>
                    <g id="tip-yellow" transform="translate(64.000000, 69.000000)">
                        <rect id="矩形" fill="#FFFFFF" opacity="0.01" x="0" y="0" width="16" height="16"></rect>
                        <g id="编组-9" transform="translate(0.549038, 1.000000)" stroke="#F8B303">
                            <path d="M7.45096189,4.5 C5.51796527,4.5 3.95096189,6.06700338 3.95096189,8 L3.95096189,11 C3.95096189,11.2761424 4.17481952,11.5 4.45096189,11.5 L10.4509619,11.5 C10.7271043,11.5 10.9509619,11.2761424 10.9509619,11 L10.9509619,8 C10.9509619,6.06700338 9.38395852,4.5 7.45096189,4.5 Z" id="矩形"></path>
                            <rect id="矩形" fill="#D8D8D8" x="7.45096189" y="8.5" width="1" height="3" rx="0.5"></rect>
                            <rect id="矩形" fill="#D8D8D8" x="6.45096189" y="8.5" width="2" height="1" rx="0.5"></rect>
                            <path d="M3.95096189,2.5 L4.45096189,3.3660254 L3.95096189,2.5 Z" id="矩形" fill="#D8D8D8"></path>
                            <path d="" id="矩形" fill="#D8D8D8"></path>
                            <path d="" id="矩形" fill="#D8D8D8"></path>
                            <path d="M13.5,5.1830127 L14.3660254,4.6830127 L13.5,5.1830127 Z" id="矩形" fill="#D8D8D8"></path>
                            <rect id="矩形" fill="#D8D8D8" x="7.45096189" y="0.5" width="1" height="2" rx="0.5"></rect>
                            <rect id="矩形" fill="#D8D8D8" x="3.95096189" y="13.5" width="7" height="1" rx="0.5"></rect>
                        </g>
                    </g>
                    <rect id="矩形" stroke="#FD6868" fill="#FFE4E4" x="52.5" y="103.5" width="409" height="35" rx="2"></rect>
                    <g id="编组-13" transform="translate(440.000000, 114.000000)">
                        <rect id="矩形" fill="#D8D8D8" opacity="0.01" x="0" y="0" width="14" height="14"></rect>
                        <path d="M7.70710678,7 L11.9497475,11.2426407 C12.1450096,11.4379028 12.1450096,11.7544853 11.9497475,11.9497475 C11.7544853,12.1450096 11.4379028,12.1450096 11.2426407,11.9497475 L7,7.70710678 L2.75735931,11.9497475 C2.56209717,12.1450096 2.24551468,12.1450096 2.05025253,11.9497475 C1.85499039,11.7544853 1.85499039,11.4379028 2.05025253,11.2426407 L6.29289322,7 L2.05025253,2.75735931 C1.85499039,2.56209717 1.85499039,2.24551468 2.05025253,2.05025253 C2.24551468,1.85499039 2.56209717,1.85499039 2.75735931,2.05025253 L7,6.29289322 L11.2426407,2.05025253 C11.4379028,1.85499039 11.7544853,1.85499039 11.9497475,2.05025253 C12.1450096,2.24551468 12.1450096,2.56209717 11.9497475,2.75735931 L7.70710678,7 Z" id="路径" fill="#AAADBA"></path>
                    </g>
                    <text id="An-error-prompt" font-family="ArialMT, Arial" font-size="12" font-weight="normal" fill="#5A6677">
                        <tspan x="88" y="125">An error prompt</tspan>
                    </text>
                    <g id="tip-red" transform="translate(64.000000, 113.000000)">
                        <rect id="矩形" fill="#FFFFFF" opacity="0.01" x="0" y="0" width="16" height="16"></rect>
                        <g id="编组-9" transform="translate(0.549038, 1.000000)" stroke="#FD6868">
                            <path d="M7.45096189,4.5 C5.51796527,4.5 3.95096189,6.06700338 3.95096189,8 L3.95096189,11 C3.95096189,11.2761424 4.17481952,11.5 4.45096189,11.5 L10.4509619,11.5 C10.7271043,11.5 10.9509619,11.2761424 10.9509619,11 L10.9509619,8 C10.9509619,6.06700338 9.38395852,4.5 7.45096189,4.5 Z" id="矩形"></path>
                            <rect id="矩形" fill="#D8D8D8" x="7.45096189" y="8.5" width="1" height="3" rx="0.5"></rect>
                            <rect id="矩形" fill="#D8D8D8" x="6.45096189" y="8.5" width="2" height="1" rx="0.5"></rect>
                            <path d="M3.95096189,2.5 L4.45096189,3.3660254 L3.95096189,2.5 Z" id="矩形" fill="#D8D8D8"></path>
                            <path d="" id="矩形" fill="#D8D8D8"></path>
                            <path d="" id="矩形" fill="#D8D8D8"></path>
                            <path d="M13.5,5.1830127 L14.3660254,4.6830127 L13.5,5.1830127 Z" id="矩形" fill="#D8D8D8"></path>
                            <rect id="矩形" fill="#D8D8D8" x="7.45096189" y="0.5" width="1" height="2" rx="0.5"></rect>
                            <rect id="矩形" fill="#D8D8D8" x="3.95096189" y="13.5" width="7" height="1" rx="0.5"></rect>
                        </g>
                    </g>
                    <g id="style1" transform="translate(12.000000, 14.000000)" fill="#525A6E" font-family="ArialMT, Arial" font-size="12" font-weight="normal">
                        <text>
                            <tspan x="0.65234375" y="15">style1</tspan>
                        </text>
                    </g>
                </g>
            </g>
        </g>
    </g>
</svg>