<?xml version="1.0" encoding="UTF-8"?>
<svg width="494px" height="76px" viewBox="0 0 494 76" version="1.1" xmlns="http://www.w3.org/2000/svg" xmlns:xlink="http://www.w3.org/1999/xlink">
    <!-- Generator: Sketch 58 (84663) - https://sketch.com -->
    <title>style2</title>
    <desc>Created with Sketch.</desc>
    <defs>
        <path d="M16,0 L136.198292,0 C136.495072,-1.60417291e-14 136.776519,0.13182301 136.966513,0.3598156 L148.933026,14.7196312 C149.551103,15.4613231 149.551103,16.5386769 148.933026,17.2803688 L136.966513,31.6401844 C136.776519,31.868177 136.495072,32 136.198292,32 L16,32 C7.163444,32 1.082166e-15,24.836556 0,16 C-1.082166e-15,7.163444 7.163444,1.623249e-15 16,0 Z" id="path-1"></path>
        <filter x="-1.7%" y="-10.9%" width="104.3%" height="121.9%" filterUnits="objectBoundingBox" id="filter-2">
            <feOffset dx="1" dy="0" in="SourceAlpha" result="shadowOffsetOuter1"></feOffset>
            <feGaussianBlur stdDeviation="1" in="shadowOffsetOuter1" result="shadowBlurOuter1"></feGaussianBlur>
            <feColorMatrix values="0 0 0 0 0   0 0 0 0 0   0 0 0 0 0  0 0 0 0.2 0" type="matrix" in="shadowBlurOuter1"></feColorMatrix>
        </filter>
        <path d="M16,0 L106.198292,0 C106.495072,-2.98071424e-14 106.776519,0.13182301 106.966513,0.3598156 L118.933026,14.7196312 C119.551103,15.4613231 119.551103,16.5386769 118.933026,17.2803688 L106.966513,31.6401844 C106.776519,31.868177 106.495072,32 106.198292,32 L16,32 C7.163444,32 1.082166e-15,24.836556 0,16 C-1.082166e-15,7.163444 7.163444,1.623249e-15 16,0 Z" id="path-3"></path>
        <filter x="-2.1%" y="-10.9%" width="105.3%" height="121.9%" filterUnits="objectBoundingBox" id="filter-4">
            <feOffset dx="1" dy="0" in="SourceAlpha" result="shadowOffsetOuter1"></feOffset>
            <feGaussianBlur stdDeviation="1" in="shadowOffsetOuter1" result="shadowBlurOuter1"></feGaussianBlur>
            <feColorMatrix values="0 0 0 0 0   0 0 0 0 0   0 0 0 0 0  0 0 0 0.2 0" type="matrix" in="shadowBlurOuter1"></feColorMatrix>
        </filter>
    </defs>
    <g id="页面-1" stroke="none" stroke-width="1" fill="none" fill-rule="evenodd">
        <g id="style2">
            <rect id="矩形" fill-opacity="0.01" fill="#FAFAFA" x="0" y="0" width="494" height="76"></rect>
            <g id="编组-50" transform="translate(69.000000, 14.000000)">
                <g id="编组-49" transform="translate(210.000000, 0.000000)">
                    <path d="M16,0 L136.198292,0 C136.495072,-1.60417291e-14 136.776519,0.13182301 136.966513,0.3598156 L148.933026,14.7196312 C149.551103,15.4613231 149.551103,16.5386769 148.933026,17.2803688 L136.966513,31.6401844 C136.776519,31.868177 136.495072,32 136.198292,32 L16,32 C7.163444,32 1.082166e-15,24.836556 0,16 C-1.082166e-15,7.163444 7.163444,1.623249e-15 16,0 Z" id="矩形" fill="#E5E9EC"></path>
                    <path d="M56.75,18.4179688 C57.0273451,18.6601575 57.3984352,18.8593742 57.8632812,19.015625 C58.3281273,19.1718758 58.7695292,19.25 59.1875,19.25 C60.4609439,19.25 61.0976562,18.7968795 61.0976562,17.890625 C61.0976562,17.6367175 61.0292976,17.4082041 60.8925781,17.2050781 C60.7558587,17.0019521 60.5683606,16.8222664 60.3300781,16.6660156 L60.1402632,16.5494067 C59.956284,16.4418644 59.7078043,16.3084015 59.3948218,16.1490168 L58.9882812,15.9453125 C58.0781204,15.4921852 57.4785171,15.071291 57.1894531,14.6826172 C56.9003892,14.2939434 56.7558594,13.8496119 56.7558594,13.3496094 C56.7558594,12.5956994 57.0585907,11.9980491 57.6640625,11.5566406 C58.2695343,11.1152322 59.0331985,10.8945312 59.9550781,10.8945312 C60.8574264,10.8945312 61.5195291,11.0039052 61.9414062,11.2226562 L61.9414062,12.5 C61.3945285,12.1210919 60.7031292,11.9316406 59.8671875,11.9316406 C59.3124972,11.9316406 58.8603533,12.0478504 58.5107422,12.2802734 C58.1611311,12.5126965 57.9863281,12.8359354 57.9863281,13.25 C57.9863281,13.6171893 58.1074207,13.9160145 58.3496094,14.1464844 C58.5697809,14.3560025 59.0239993,14.6349256 59.7122764,14.9832608 L59.9257812,15.0898438 C60.8164107,15.5156271 61.4394513,15.9414041 61.7949219,16.3671875 C62.1503924,16.7929709 62.328125,17.2714817 62.328125,17.8027344 C62.328125,18.5996134 62.0390654,19.2109354 61.4609375,19.6367188 C60.8828096,20.0625021 60.0800833,20.2753906 59.0527344,20.2753906 C58.6933576,20.2753906 58.2744165,20.2255864 57.7958984,20.1259766 C57.3173804,20.0263667 56.9687511,19.9023445 56.75,19.7539062 L56.75,18.4179688 Z M66.6464844,20.0585938 C66.3964831,20.1953132 66.0585959,20.2636719 65.6328125,20.2636719 C64.4726504,20.2636719 63.8925781,19.6211002 63.8925781,18.3359375 L63.8925781,14.5917969 L62.7792969,14.5917969 L62.7792969,13.6425781 L63.8925781,13.6425781 L63.8925781,12.0839844 L65.0351562,11.7207031 L65.0351562,13.6425781 L66.6464844,13.6425781 L66.6464844,14.5917969 L65.0351562,14.5917969 L65.0351562,18.1308594 C65.0351562,18.5566428 65.1074212,18.8613272 65.2519531,19.0449219 C65.3964851,19.2285165 65.6367171,19.3203125 65.9726562,19.3203125 C66.23047,19.3203125 66.4550772,19.2480476 66.6464844,19.1035156 L66.6464844,20.0585938 Z M73.1855469,17.1757812 L68.6503906,17.1757812 C68.669922,17.867191 68.8593732,18.4013653 69.21875,18.7783203 C69.5781268,19.1552753 70.0800749,19.34375 70.7246094,19.34375 C71.4511755,19.34375 72.1171845,19.1113304 72.7226562,18.6464844 L72.7226562,19.671875 C72.1523409,20.0742208 71.3964891,20.2753906 70.4550781,20.2753906 C69.5175734,20.2753906 68.7861354,19.9785186 68.2607422,19.3847656 C67.7353489,18.7910127 67.4726562,17.9668021 67.4726562,16.9121094 C67.4726562,15.9199169 67.7607393,15.1015657 68.3369141,14.4570312 C68.9130888,13.8124968 69.628902,13.4902344 70.484375,13.4902344 C71.3320355,13.4902344 71.9941382,13.7626926 72.4707031,14.3076172 C72.947268,14.8525418 73.1855469,15.6152295 73.1855469,16.5957031 L73.1855469,17.1757812 Z M72.0371094,16.2558594 C72.0332031,15.6699189 71.8945326,15.2167985 71.6210938,14.8964844 C71.3476549,14.5761703 70.9628931,14.4160156 70.4667969,14.4160156 C70.0097633,14.4160156 69.6142595,14.5859358 69.2802734,14.9257812 C68.9462874,15.2656267 68.7363286,15.7089816 68.6503906,16.2558594 L72.0371094,16.2558594 Z M75.8632812,19.2089844 L75.8632812,23.1054688 L74.7148438,23.1054688 L74.7148438,13.6425781 L75.8632812,13.6425781 L75.8632812,14.7617188 L75.8867188,14.7617188 C76.3945338,13.9140583 77.1367139,13.4902344 78.1132812,13.4902344 C78.9414104,13.4902344 79.590818,13.7802705 80.0615234,14.3603516 C80.5322289,14.9404326 80.7675781,15.7187451 80.7675781,16.6953125 C80.7675781,17.7734429 80.5009792,18.6396452 79.9677734,19.2939453 C79.4345676,19.9482455 78.7168014,20.2753906 77.8144531,20.2753906 C76.9824177,20.2753906 76.339846,19.9199254 75.8867188,19.2089844 L75.8632812,19.2089844 Z M75.8574219,17.4511719 C75.8574219,17.9785183 76.0273421,18.4228498 76.3671875,18.7841797 C76.7070329,19.1455096 77.1328099,19.3261719 77.6445312,19.3261719 C78.2539093,19.3261719 78.730467,19.0917992 79.0742188,18.6230469 C79.4179705,18.1542945 79.5898438,17.5058635 79.5898438,16.6777344 C79.5898438,15.9785121 79.4296891,15.430666 79.109375,15.0341797 C78.7890609,14.6376933 78.3515653,14.4394531 77.796875,14.4394531 C77.2304659,14.4394531 76.7656268,14.640623 76.4023438,15.0429688 C76.0390607,15.4453145 75.8574219,15.9609344 75.8574219,16.5898438 L75.8574219,17.4511719 Z M82.1914062,18.6054688 C82.8125031,19.0859399 83.513668,19.3261719 84.2949219,19.3261719 C84.919925,19.3261719 85.4150372,19.1728531 85.7802734,18.8662109 C86.1455096,18.5595688 86.328125,18.1484401 86.328125,17.6328125 C86.328125,16.4843693 85.5058676,15.9101562 83.8613281,15.9101562 L83.1054688,15.9101562 L83.1054688,14.9609375 L83.8261719,14.9609375 C85.2832104,14.9609375 86.0117188,14.4218804 86.0117188,13.34375 C86.0117188,12.3476513 85.4550837,11.8496094 84.3417969,11.8496094 C83.7050749,11.8496094 83.1054716,12.064451 82.5429688,12.4941406 L82.5429688,11.4101562 C83.1367217,11.0664045 83.8300742,10.8945312 84.6230469,10.8945312 C85.3964882,10.8945312 86.0175758,11.0966777 86.4863281,11.5009766 C86.9550805,11.9052755 87.1894531,12.4296843 87.1894531,13.0742188 C87.1894531,14.2617247 86.5839904,15.0253889 85.3730469,15.3652344 L85.3730469,15.3886719 C86.0293002,15.4589847 86.5478497,15.6904277 86.9287109,16.0830078 C87.3095722,16.4755879 87.5,16.9648408 87.5,17.5507812 C87.5,18.3671916 87.2060576,19.0253881 86.6181641,19.5253906 C86.0302705,20.0253931 85.2480518,20.2753906 84.2714844,20.2753906 C83.4121051,20.2753906 82.7187526,20.115236 82.1914062,19.7949219 L82.1914062,18.6054688 Z" id="Step3" fill="#5A6677" fill-rule="nonzero"></path>
                    <circle id="椭圆形" stroke="#5A6677" cx="47" cy="16" r="4.5"></circle>
                </g>
                <g id="编组-48" transform="translate(90.000000, 0.000000)">
                    <g id="矩形">
                        <use fill="black" fill-opacity="1" filter="url(#filter-2)" xlink:href="#path-1"></use>
                        <use fill="#FFFFFF" fill-rule="evenodd" xlink:href="#path-1"></use>
                    </g>
                    <path d="M56.75,18.4179688 C57.0273451,18.6601575 57.3984352,18.8593742 57.8632812,19.015625 C58.3281273,19.1718758 58.7695292,19.25 59.1875,19.25 C60.4609439,19.25 61.0976562,18.7968795 61.0976562,17.890625 C61.0976562,17.6367175 61.0292976,17.4082041 60.8925781,17.2050781 C60.7558587,17.0019521 60.5683606,16.8222664 60.3300781,16.6660156 L60.1402632,16.5494067 C59.956284,16.4418644 59.7078043,16.3084015 59.3948218,16.1490168 L58.9882812,15.9453125 C58.0781204,15.4921852 57.4785171,15.071291 57.1894531,14.6826172 C56.9003892,14.2939434 56.7558594,13.8496119 56.7558594,13.3496094 C56.7558594,12.5956994 57.0585907,11.9980491 57.6640625,11.5566406 C58.2695343,11.1152322 59.0331985,10.8945312 59.9550781,10.8945312 C60.8574264,10.8945312 61.5195291,11.0039052 61.9414062,11.2226562 L61.9414062,12.5 C61.3945285,12.1210919 60.7031292,11.9316406 59.8671875,11.9316406 C59.3124972,11.9316406 58.8603533,12.0478504 58.5107422,12.2802734 C58.1611311,12.5126965 57.9863281,12.8359354 57.9863281,13.25 C57.9863281,13.6171893 58.1074207,13.9160145 58.3496094,14.1464844 C58.5697809,14.3560025 59.0239993,14.6349256 59.7122764,14.9832608 L59.9257812,15.0898438 C60.8164107,15.5156271 61.4394513,15.9414041 61.7949219,16.3671875 C62.1503924,16.7929709 62.328125,17.2714817 62.328125,17.8027344 C62.328125,18.5996134 62.0390654,19.2109354 61.4609375,19.6367188 C60.8828096,20.0625021 60.0800833,20.2753906 59.0527344,20.2753906 C58.6933576,20.2753906 58.2744165,20.2255864 57.7958984,20.1259766 C57.3173804,20.0263667 56.9687511,19.9023445 56.75,19.7539062 L56.75,18.4179688 Z M66.6464844,20.0585938 C66.3964831,20.1953132 66.0585959,20.2636719 65.6328125,20.2636719 C64.4726504,20.2636719 63.8925781,19.6211002 63.8925781,18.3359375 L63.8925781,14.5917969 L62.7792969,14.5917969 L62.7792969,13.6425781 L63.8925781,13.6425781 L63.8925781,12.0839844 L65.0351562,11.7207031 L65.0351562,13.6425781 L66.6464844,13.6425781 L66.6464844,14.5917969 L65.0351562,14.5917969 L65.0351562,18.1308594 C65.0351562,18.5566428 65.1074212,18.8613272 65.2519531,19.0449219 C65.3964851,19.2285165 65.6367171,19.3203125 65.9726562,19.3203125 C66.23047,19.3203125 66.4550772,19.2480476 66.6464844,19.1035156 L66.6464844,20.0585938 Z M73.1855469,17.1757812 L68.6503906,17.1757812 C68.669922,17.867191 68.8593732,18.4013653 69.21875,18.7783203 C69.5781268,19.1552753 70.0800749,19.34375 70.7246094,19.34375 C71.4511755,19.34375 72.1171845,19.1113304 72.7226562,18.6464844 L72.7226562,19.671875 C72.1523409,20.0742208 71.3964891,20.2753906 70.4550781,20.2753906 C69.5175734,20.2753906 68.7861354,19.9785186 68.2607422,19.3847656 C67.7353489,18.7910127 67.4726562,17.9668021 67.4726562,16.9121094 C67.4726562,15.9199169 67.7607393,15.1015657 68.3369141,14.4570312 C68.9130888,13.8124968 69.628902,13.4902344 70.484375,13.4902344 C71.3320355,13.4902344 71.9941382,13.7626926 72.4707031,14.3076172 C72.947268,14.8525418 73.1855469,15.6152295 73.1855469,16.5957031 L73.1855469,17.1757812 Z M72.0371094,16.2558594 C72.0332031,15.6699189 71.8945326,15.2167985 71.6210938,14.8964844 C71.3476549,14.5761703 70.9628931,14.4160156 70.4667969,14.4160156 C70.0097633,14.4160156 69.6142595,14.5859358 69.2802734,14.9257812 C68.9462874,15.2656267 68.7363286,15.7089816 68.6503906,16.2558594 L72.0371094,16.2558594 Z M75.8632812,19.2089844 L75.8632812,23.1054688 L74.7148438,23.1054688 L74.7148438,13.6425781 L75.8632812,13.6425781 L75.8632812,14.7617188 L75.8867188,14.7617188 C76.3945338,13.9140583 77.1367139,13.4902344 78.1132812,13.4902344 C78.9414104,13.4902344 79.590818,13.7802705 80.0615234,14.3603516 C80.5322289,14.9404326 80.7675781,15.7187451 80.7675781,16.6953125 C80.7675781,17.7734429 80.5009792,18.6396452 79.9677734,19.2939453 C79.4345676,19.9482455 78.7168014,20.2753906 77.8144531,20.2753906 C76.9824177,20.2753906 76.339846,19.9199254 75.8867188,19.2089844 L75.8632812,19.2089844 Z M75.8574219,17.4511719 C75.8574219,17.9785183 76.0273421,18.4228498 76.3671875,18.7841797 C76.7070329,19.1455096 77.1328099,19.3261719 77.6445312,19.3261719 C78.2539093,19.3261719 78.730467,19.0917992 79.0742188,18.6230469 C79.4179705,18.1542945 79.5898438,17.5058635 79.5898438,16.6777344 C79.5898438,15.9785121 79.4296891,15.430666 79.109375,15.0341797 C78.7890609,14.6376933 78.3515653,14.4394531 77.796875,14.4394531 C77.2304659,14.4394531 76.7656268,14.640623 76.4023438,15.0429688 C76.0390607,15.4453145 75.8574219,15.9609344 75.8574219,16.5898438 L75.8574219,17.4511719 Z M87.4941406,20.1230469 L81.9746094,20.1230469 L81.9746094,19.1269531 L84.6113281,16.4960938 C85.3378943,15.7695276 85.8242175,15.1943381 86.0703125,14.7705078 C86.3164075,14.3466776 86.4394531,13.9082054 86.4394531,13.4550781 C86.4394531,12.9394505 86.2949233,12.5439467 86.0058594,12.2685547 C85.7167954,11.9931627 85.2988309,11.8554688 84.7519531,11.8554688 C83.9433553,11.8554688 83.1718787,12.1992153 82.4375,12.8867188 L82.4375,11.7207031 C83.1523473,11.1699191 83.9843703,10.8945312 84.9335938,10.8945312 C85.7500041,10.8945312 86.3945289,11.1152322 86.8671875,11.5566406 C87.3398461,11.9980491 87.5761719,12.5917931 87.5761719,13.3378906 C87.5761719,13.9003934 87.4248062,14.4521457 87.1220703,14.9931641 C86.8193344,15.5341824 86.246098,16.2226521 85.4023438,17.0585938 L83.3339844,19.0800781 L83.3339844,19.1035156 L87.4941406,19.1035156 L87.4941406,20.1230469 Z" id="Step2" fill="#4F7DE7" fill-rule="nonzero"></path>
                    <circle id="椭圆形" fill="#4F7DE7" cx="47" cy="16" r="5"></circle>
                </g>
                <g id="编组-38">
                    <g id="矩形">
                        <use fill="black" fill-opacity="1" filter="url(#filter-4)" xlink:href="#path-3"></use>
                        <use fill="#4F7DE7" fill-rule="evenodd" xlink:href="#path-3"></use>
                    </g>
                    <path d="M26.75,18.4384766 C27.0273451,18.6806653 27.3984352,18.879882 27.8632812,19.0361328 C28.3281273,19.1923836 28.7695292,19.2705078 29.1875,19.2705078 C30.4609439,19.2705078 31.0976562,18.8173873 31.0976562,17.9111328 C31.0976562,17.6572253 31.0292976,17.428712 30.8925781,17.2255859 C30.7558587,17.0224599 30.5683606,16.8427742 30.3300781,16.6865234 L30.1402632,16.5699145 C29.956284,16.4623722 29.7078043,16.3289093 29.3948218,16.1695246 L28.9882812,15.9658203 C28.0781204,15.512693 27.4785171,15.0917988 27.1894531,14.703125 C26.9003892,14.3144512 26.7558594,13.8701197 26.7558594,13.3701172 C26.7558594,12.6162072 27.0585907,12.0185569 27.6640625,11.5771484 C28.2695343,11.13574 29.0331985,10.9150391 29.9550781,10.9150391 C30.8574264,10.9150391 31.5195291,11.024413 31.9414062,11.2431641 L31.9414062,12.5205078 C31.3945285,12.1415997 30.7031292,11.9521484 29.8671875,11.9521484 C29.3124972,11.9521484 28.8603533,12.0683582 28.5107422,12.3007812 C28.1611311,12.5332043 27.9863281,12.8564432 27.9863281,13.2705078 C27.9863281,13.6376971 28.1074207,13.9365223 28.3496094,14.1669922 C28.5697809,14.3765103 29.0239993,14.6554334 29.7122764,15.0037686 L29.9257812,15.1103516 C30.8164107,15.5361349 31.4394513,15.9619119 31.7949219,16.3876953 C32.1503924,16.8134787 32.328125,17.2919895 32.328125,17.8232422 C32.328125,18.6201212 32.0390654,19.2314432 31.4609375,19.6572266 C30.8828096,20.0830099 30.0800833,20.2958984 29.0527344,20.2958984 C28.6933576,20.2958984 28.2744165,20.2460942 27.7958984,20.1464844 C27.3173804,20.0468745 26.9687511,19.9228523 26.75,19.7744141 L26.75,18.4384766 Z M36.6464844,20.0791016 C36.3964831,20.215821 36.0585959,20.2841797 35.6328125,20.2841797 C34.4726504,20.2841797 33.8925781,19.641608 33.8925781,18.3564453 L33.8925781,14.6123047 L32.7792969,14.6123047 L32.7792969,13.6630859 L33.8925781,13.6630859 L33.8925781,12.1044922 L35.0351562,11.7412109 L35.0351562,13.6630859 L36.6464844,13.6630859 L36.6464844,14.6123047 L35.0351562,14.6123047 L35.0351562,18.1513672 C35.0351562,18.5771506 35.1074212,18.881835 35.2519531,19.0654297 C35.3964851,19.2490244 35.6367171,19.3408203 35.9726562,19.3408203 C36.23047,19.3408203 36.4550772,19.2685554 36.6464844,19.1240234 L36.6464844,20.0791016 Z M43.1855469,17.1962891 L38.6503906,17.1962891 C38.669922,17.8876988 38.8593732,18.4218731 39.21875,18.7988281 C39.5781268,19.1757831 40.0800749,19.3642578 40.7246094,19.3642578 C41.4511755,19.3642578 42.1171845,19.1318383 42.7226562,18.6669922 L42.7226562,19.6923828 C42.1523409,20.0947286 41.3964891,20.2958984 40.4550781,20.2958984 C39.5175734,20.2958984 38.7861354,19.9990264 38.2607422,19.4052734 C37.7353489,18.8115205 37.4726562,17.98731 37.4726562,16.9326172 C37.4726562,15.9404247 37.7607393,15.1220735 38.3369141,14.4775391 C38.9130888,13.8330046 39.628902,13.5107422 40.484375,13.5107422 C41.3320355,13.5107422 41.9941382,13.7832004 42.4707031,14.328125 C42.947268,14.8730496 43.1855469,15.6357373 43.1855469,16.6162109 L43.1855469,17.1962891 Z M42.0371094,16.2763672 C42.0332031,15.6904268 41.8945326,15.2373063 41.6210938,14.9169922 C41.3476549,14.5966781 40.9628931,14.4365234 40.4667969,14.4365234 C40.0097633,14.4365234 39.6142595,14.6064436 39.2802734,14.9462891 C38.9462874,15.2861345 38.7363286,15.7294895 38.6503906,16.2763672 L42.0371094,16.2763672 Z M45.8632812,19.2294922 L45.8632812,23.1259766 L44.7148438,23.1259766 L44.7148438,13.6630859 L45.8632812,13.6630859 L45.8632812,14.7822266 L45.8867188,14.7822266 C46.3945338,13.9345661 47.1367139,13.5107422 48.1132812,13.5107422 C48.9414104,13.5107422 49.590818,13.8007783 50.0615234,14.3808594 C50.5322289,14.9609404 50.7675781,15.7392529 50.7675781,16.7158203 C50.7675781,17.7939507 50.5009792,18.660153 49.9677734,19.3144531 C49.4345676,19.9687533 48.7168014,20.2958984 47.8144531,20.2958984 C46.9824177,20.2958984 46.339846,19.9404332 45.8867188,19.2294922 L45.8632812,19.2294922 Z M45.8574219,17.4716797 C45.8574219,17.9990261 46.0273421,18.4433576 46.3671875,18.8046875 C46.7070329,19.1660174 47.1328099,19.3466797 47.6445312,19.3466797 C48.2539093,19.3466797 48.730467,19.112307 49.0742188,18.6435547 C49.4179705,18.1748023 49.5898438,17.5263713 49.5898438,16.6982422 C49.5898438,15.9990199 49.4296891,15.4511739 49.109375,15.0546875 C48.7890609,14.6582011 48.3515653,14.4599609 47.796875,14.4599609 C47.2304659,14.4599609 46.7656268,14.6611308 46.4023438,15.0634766 C46.0390607,15.4658223 45.8574219,15.9814422 45.8574219,16.6103516 L45.8574219,17.4716797 Z M57.6640625,20.1435547 L52.4609375,20.1435547 L52.4609375,19.1533203 L54.4941406,19.1533203 L54.4941406,12.2626953 L52.4082031,12.8662109 L52.4082031,11.8115234 L55.6367188,10.8740234 L55.6367188,19.1533203 L57.6640625,19.1533203 L57.6640625,20.1435547 Z" id="Step1" fill="#FFFFFF" fill-rule="nonzero"></path>
                    <g id="compete" transform="translate(12.000000, 11.000000)">
                        <circle id="椭圆形" fill="#FFFFFF" cx="5" cy="5" r="5"></circle>
                        <path d="M2.4956939,2.29224394 C2.77183627,2.29224394 2.9956939,2.51610156 2.9956939,2.79224394 L2.9956939,5.29224394 L7.4956939,5.29224394 C7.77183627,5.29224394 7.9956939,5.51610156 7.9956939,5.79224394 C7.9956939,6.06838631 7.77183627,6.29224394 7.4956939,6.29224394 L2.4956939,6.29224394 L2.4956939,6.29224394 C2.21955152,6.29224394 1.9956939,6.06838631 1.9956939,5.79224394 L1.9956939,2.79224394 C1.9956939,2.51610156 2.21955152,2.29224394 2.4956939,2.29224394 Z" id="矩形-11" fill="#4F7DE7" transform="translate(4.995694, 4.292244) rotate(-45.000000) translate(-4.995694, -4.292244) "></path>
                    </g>
                </g>
            </g>
            <text id="样式二" font-family="MicrosoftYaHei, Microsoft YaHei" font-size="12" font-weight="normal" line-spacing="22" fill="#525A6E">
                <tspan x="8" y="27">样式二</tspan>
            </text>
        </g>
    </g>
</svg>