<?xml version="1.0" encoding="UTF-8"?>
<svg width="241px" height="174px" viewBox="0 0 241 174" version="1.1" xmlns="http://www.w3.org/2000/svg" xmlns:xlink="http://www.w3.org/1999/xlink">
    <!-- Generator: Sketch 59 (86127) - https://sketch.com -->
    <title>3-Selection2-style1</title>
    <desc>Created with Sketch.</desc>
    <defs>
        <polygon id="path-1" points="4.30251387 15.5021376 2.99218577 0.502137574 15.9921858 9.03637537 8.49919044 9.03637537"></polygon>
        <filter x="-19.9%" y="-13.2%" width="148.2%" height="143.2%" filterUnits="objectBoundingBox" id="filter-2">
            <feMorphology radius="0.5" operator="dilate" in="SourceAlpha" result="shadowSpreadOuter1"></feMorphology>
            <feOffset dx="0" dy="1" in="shadowSpreadOuter1" result="shadowOffsetOuter1"></feOffset>
            <feGaussianBlur stdDeviation="0.5" in="shadowOffsetOuter1" result="shadowBlurOuter1"></feGaussianBlur>
            <feComposite in="shadowBlurOuter1" in2="SourceAlpha" operator="out" result="shadowBlurOuter1"></feComposite>
            <feColorMatrix values="0 0 0 0 0   0 0 0 0 0   0 0 0 0 0  0 0 0 0.5 0" type="matrix" in="shadowBlurOuter1"></feColorMatrix>
        </filter>
        <linearGradient x1="50%" y1="0%" x2="50%" y2="100%" id="linearGradient-3">
            <stop stop-color="#FFFFFF" offset="0%"></stop>
            <stop stop-color="#EEEEEE" offset="100%"></stop>
        </linearGradient>
        <path d="M14.4165577,11.6253645 C19.9394052,11.6253645 24.4165577,16.102517 24.4165577,21.6253645 C24.4165577,27.148212 19.9394052,31.6253645 14.4165577,31.6253645 C8.89371023,31.6253645 4.41655772,27.148212 4.41655772,21.6253645 C4.41655772,16.102517 8.89371023,11.6253645 14.4165577,11.6253645 Z M13.4166064,13.6872522 C9.47027128,14.1793286 6.41655772,17.5457301 6.41655772,21.6253645 C6.41655772,25.704999 9.47027128,29.0714004 13.4166064,29.5634768 Z M15.4175128,13.6873774 L15.4175128,29.5633516 C19.363362,29.0708295 22.4165577,25.704653 22.4165577,21.6253645 C22.4165577,17.546076 19.363362,14.1798995 15.4175128,13.6873774 Z" id="path-4"></path>
        <filter x="-10.0%" y="-5.0%" width="120.0%" height="120.0%" filterUnits="objectBoundingBox" id="filter-5">
            <feOffset dx="0" dy="1" in="SourceAlpha" result="shadowOffsetOuter1"></feOffset>
            <feGaussianBlur stdDeviation="0.5" in="shadowOffsetOuter1" result="shadowBlurOuter1"></feGaussianBlur>
            <feColorMatrix values="0 0 0 0 0   0 0 0 0 0   0 0 0 0 0  0 0 0 0.5 0" type="matrix" in="shadowBlurOuter1"></feColorMatrix>
        </filter>
    </defs>
    <g id="页面-1" stroke="none" stroke-width="1" fill="none" fill-rule="evenodd">
        <g id="一诺合同-配置组件-英文" transform="translate(-477.000000, -1527.000000)">
            <rect fill="#F6F6F6" x="0" y="0" width="1440" height="9873"></rect>
            <path d="M210,149 L1430,149 C1431.10457,149 1432,149.895431 1432,151 L1432,9188.5007 L1432,9188.5007 L1432,9867 C1432,9868.10457 1431.10457,9869 1430,9869 L210,9869 C208.895431,9869 208,9868.10457 208,9867 L208,151 C208,149.895431 208.895431,149 210,149 Z" id="Rectangle" fill="#FFFFFF"></path>
            <g id="input-style1备份-2" transform="translate(477.000000, 1527.000000)">
                <rect id="矩形备份" fill="#FAFAFA" opacity="0.01" x="0" y="0" width="241" height="174"></rect>
                <g id="编组-21" transform="translate(56.000000, 120.000000)">
                    <g id="编组-10备份-18">
                        <rect id="矩形备份-4" stroke="#FD6868" fill="#FFF2F2" x="0.5" y="0.5" width="176" height="25" rx="2"></rect>
                        <text id="Select" font-family="PingFangSC-Regular, PingFang SC" font-size="12" font-weight="normal" fill="#BFC3D0">
                            <tspan x="8" y="18">Select</tspan>
                        </text>
                        <g id="arrow-down备份-3" transform="translate(159.000000, 8.000000)">
                            <rect id="矩形" fill="#D8D8D8" opacity="0.01" x="0" y="0" width="10" height="10"></rect>
                            <path d="M3.07437422,1.34394406 C3.3505166,1.34394406 3.57437422,1.56780169 3.57437422,1.84394406 L3.57437422,5.34394406 L7.07437422,5.34394406 C7.3505166,5.34394406 7.57437422,5.56780169 7.57437422,5.84394406 C7.57437422,6.12008644 7.3505166,6.34394406 7.07437422,6.34394406 L3.07437422,6.34394406 L3.07437422,6.34394406 C2.79823185,6.34394406 2.57437422,6.12008644 2.57437422,5.84394406 L2.57437422,1.84394406 C2.57437422,1.56780169 2.79823185,1.34394406 3.07437422,1.34394406 Z" id="矩形-2" fill="#666666" transform="translate(5.074374, 3.843944) rotate(-45.000000) translate(-5.074374, -3.843944) "></path>
                        </g>
                    </g>
                    <text id="Error-waring-text" font-family="PingFangSC-Regular, PingFang SC" font-size="12" font-weight="normal" fill="#FD6868">
                        <tspan x="0" y="41">Error waring text</tspan>
                    </text>
                </g>
                <g id="编组-10备份-16" transform="translate(56.000000, 60.000000)">
                    <rect id="矩形备份-4" stroke="#B8D7FF" fill="#EFF6FF" x="0.5" y="0.5" width="176" height="25" rx="2"></rect>
                    <g id="arrow-down备份-4" transform="translate(159.000000, 8.000000)">
                        <rect id="矩形" fill="#D8D8D8" opacity="0.01" x="0" y="0" width="10" height="10"></rect>
                        <path d="M3.07437422,1.34394406 C3.3505166,1.34394406 3.57437422,1.56780169 3.57437422,1.84394406 L3.57437422,5.34394406 L7.07437422,5.34394406 C7.3505166,5.34394406 7.57437422,5.56780169 7.57437422,5.84394406 C7.57437422,6.12008644 7.3505166,6.34394406 7.07437422,6.34394406 L3.07437422,6.34394406 L3.07437422,6.34394406 C2.79823185,6.34394406 2.57437422,6.12008644 2.57437422,5.84394406 L2.57437422,1.84394406 C2.57437422,1.56780169 2.79823185,1.34394406 3.07437422,1.34394406 Z" id="矩形-2" fill="#666666" transform="translate(5.074374, 3.843944) rotate(-45.000000) translate(-5.074374, -3.843944) "></path>
                    </g>
                    <text id="Select" font-family="PingFangSC-Medium, PingFang SC" font-size="12" font-weight="400" fill="#333333">
                        <tspan x="8" y="18">Select</tspan>
                    </text>
                </g>
                <g id="编组-10备份-29" transform="translate(56.000000, 30.000000)">
                    <rect id="矩形备份-4" stroke-opacity="0.15" stroke="#000000" fill="#FFFFFF" x="0.5" y="0.5" width="176" height="25" rx="2"></rect>
                    <g id="arrow-down备份" transform="translate(159.000000, 8.000000)">
                        <rect id="矩形" fill="#D8D8D8" opacity="0.01" x="0" y="0" width="10" height="10"></rect>
                        <path d="M3.07437422,1.34394406 C3.3505166,1.34394406 3.57437422,1.56780169 3.57437422,1.84394406 L3.57437422,5.34394406 L7.07437422,5.34394406 C7.3505166,5.34394406 7.57437422,5.56780169 7.57437422,5.84394406 C7.57437422,6.12008644 7.3505166,6.34394406 7.07437422,6.34394406 L3.07437422,6.34394406 L3.07437422,6.34394406 C2.79823185,6.34394406 2.57437422,6.12008644 2.57437422,5.84394406 L2.57437422,1.84394406 C2.57437422,1.56780169 2.79823185,1.34394406 3.07437422,1.34394406 Z" id="矩形-2" fill="#666666" transform="translate(5.074374, 3.843944) rotate(-45.000000) translate(-5.074374, -3.843944) "></path>
                    </g>
                    <text id="Select" font-family="PingFangSC-Medium, PingFang SC" font-size="12" font-weight="400" fill="#333333">
                        <tspan x="8" y="18">Select</tspan>
                    </text>
                </g>
                <rect id="矩形备份-4" stroke="#E7EAED" fill="#F8F8F8" x="56.5" y="90.5" width="176" height="25" rx="2"></rect>
                <g id="编组-51备份" transform="translate(154.000000, 103.000000)">
                    <g id="路径-5" transform="translate(9.492186, 8.002138) rotate(4.000000) translate(-9.492186, -8.002138) ">
                        <use fill="black" fill-opacity="1" filter="url(#filter-2)" xlink:href="#path-1"></use>
                        <use stroke="#FFFFFF" stroke-width="1" fill="#000000" fill-rule="evenodd" xlink:href="#path-1"></use>
                    </g>
                    <g id="椭圆形" fill-rule="nonzero" transform="translate(14.416558, 21.625365) rotate(-45.000000) translate(-14.416558, -21.625365) ">
                        <use fill="black" fill-opacity="1" filter="url(#filter-5)" xlink:href="#path-4"></use>
                        <use fill="url(#linearGradient-3)" xlink:href="#path-4"></use>
                    </g>
                </g>
                <g id="arrow-down备份-5" transform="translate(215.000000, 98.000000)">
                    <rect id="矩形" fill="#D8D8D8" opacity="0.01" x="0" y="0" width="10" height="10"></rect>
                    <path d="M3.07437422,1.34394406 C3.3505166,1.34394406 3.57437422,1.56780169 3.57437422,1.84394406 L3.57437422,5.34394406 L7.07437422,5.34394406 C7.3505166,5.34394406 7.57437422,5.56780169 7.57437422,5.84394406 C7.57437422,6.12008644 7.3505166,6.34394406 7.07437422,6.34394406 L3.07437422,6.34394406 L3.07437422,6.34394406 C2.79823185,6.34394406 2.57437422,6.12008644 2.57437422,5.84394406 L2.57437422,1.84394406 C2.57437422,1.56780169 2.79823185,1.34394406 3.07437422,1.34394406 Z" id="矩形-2" fill="#666666" transform="translate(5.074374, 3.843944) rotate(-45.000000) translate(-5.074374, -3.843944) "></path>
                </g>
                <text id="Select" font-family="PingFangSC-Regular, PingFang SC" font-size="12" font-weight="normal" fill="#8790A6">
                    <tspan x="64" y="108">Select</tspan>
                </text>
                <text id="style-2：" font-family="PingFangSC-Regular, PingFang SC" font-size="12" font-weight="normal" fill="#4A5C90">
                    <tspan x="7.052" y="48">style 2：</tspan>
                </text>
            </g>
        </g>
    </g>
</svg>