<?xml version="1.0" encoding="UTF-8"?>
<svg width="494px" height="68px" viewBox="0 0 494 68" version="1.1" xmlns="http://www.w3.org/2000/svg" xmlns:xlink="http://www.w3.org/1999/xlink">
    <!-- Generator: Sketch 58 (84663) - https://sketch.com -->
    <title>date+time-selection/style2</title>
    <desc>Created with Sketch.</desc>
    <g id="页面-1" stroke="none" stroke-width="1" fill="none" fill-rule="evenodd">
        <g id="date+time-selection/style2">
            <rect id="矩形" fill-opacity="0.01" fill="#F6F6F6" x="0" y="0" width="494" height="68"></rect>
            <g id="编组-30" transform="translate(8.000000, 32.000000)">
                <rect id="矩形" stroke-opacity="0.15" stroke="#000000" fill="#FFFFFF" x="0.5" y="0.5" width="275" height="27" rx="2"></rect>
                <g id="编组-2" transform="translate(256.000000, 9.000000)" stroke="#333333">
                    <rect id="矩形" x="0.5" y="1.5" width="9" height="8" rx="1"></rect>
                    <rect id="矩形" fill="#D8D8D8" x="3.5" y="0.5" width="1" height="2" rx="0.5"></rect>
                    <rect id="矩形" fill="#D8D8D8" x="6.5" y="0.5" width="1" height="2" rx="0.5"></rect>
                    <rect id="矩形" fill="#D8D8D8" x="0.5" y="4.5" width="9" height="1"></rect>
                    <rect id="矩形" fill="#D8D8D8" x="2.5" y="6.5" width="1" height="1" rx="0.5"></rect>
                    <rect id="矩形" fill="#D8D8D8" x="6.5" y="7.5" width="1" height="1" rx="0.5"></rect>
                </g>
                <path d="M14.140625,19 L8.62109375,19 L8.62109375,18.0039062 L11.2578125,15.3730469 C11.9843786,14.6464807 12.4707019,14.0712912 12.7167969,13.6474609 C12.9628919,13.2236307 13.0859375,12.7851585 13.0859375,12.3320312 C13.0859375,11.8164037 12.9414077,11.4208998 12.6523438,11.1455078 C12.3632798,10.8701158 11.9453152,10.7324219 11.3984375,10.7324219 C10.5898397,10.7324219 9.81836305,11.0761684 9.08398438,11.7636719 L9.08398438,10.5976562 C9.7988317,10.0468722 10.6308546,9.77148438 11.5800781,9.77148438 C12.3964885,9.77148438 13.0410133,9.99218529 13.5136719,10.4335938 C13.9863305,10.8750022 14.2226562,11.4687463 14.2226562,12.2148438 C14.2226562,12.7773466 14.0712906,13.3290989 13.7685547,13.8701172 C13.4658188,14.4111355 12.8925823,15.0996052 12.0488281,15.9355469 L9.98046875,17.9570312 L9.98046875,17.9804688 L14.140625,17.9804688 L14.140625,19 Z M15.5703125,14.640625 C15.5703125,13.0390545 15.8359348,11.8271525 16.3671875,11.0048828 C16.8984402,10.1826131 17.6679637,9.77148438 18.6757812,9.77148438 C20.5976659,9.77148438 21.5585938,11.3222501 21.5585938,14.4238281 C21.5585938,15.9550858 21.2880886,17.1259725 20.7470703,17.9365234 C20.206052,18.7470744 19.4472705,19.1523438 18.4707031,19.1523438 C17.5488235,19.1523438 16.8349635,18.767582 16.3291016,17.9980469 C15.8232397,17.2285118 15.5703125,16.1093823 15.5703125,14.640625 Z M16.7421875,14.5878906 C16.7421875,16.9980589 17.3535095,18.203125 18.5761719,18.203125 C19.7793029,18.203125 20.3808594,16.9785279 20.3808594,14.5292969 C20.3808594,11.9941279 19.7910215,10.7265625 18.6113281,10.7265625 C17.3652281,10.7265625 16.7421875,12.013659 16.7421875,14.5878906 Z M28.3847656,19 L23.1816406,19 L23.1816406,18.0097656 L25.2148438,18.0097656 L25.2148438,11.1191406 L23.1289062,11.7226562 L23.1289062,10.6679688 L26.3574219,9.73046875 L26.3574219,18.0097656 L28.3847656,18.0097656 L28.3847656,19 Z M30.1953125,17.7695312 C30.695315,18.0585952 31.2343721,18.203125 31.8125,18.203125 C32.6250041,18.203125 33.2548806,17.8828157 33.7021484,17.2421875 C34.1494163,16.6015593 34.3730469,15.6914121 34.3730469,14.5117188 C34.3652343,14.5195313 34.3574219,14.5195313 34.3496094,14.5117188 C33.9511699,15.269535 33.2812547,15.6484375 32.3398438,15.6484375 C31.5781212,15.6484375 30.9472681,15.3867214 30.4472656,14.8632812 C29.9472631,14.3398411 29.6972656,13.6601604 29.6972656,12.8242188 C29.6972656,11.9335893 29.9707004,11.2021513 30.5175781,10.6298828 C31.0644559,10.0576143 31.7734331,9.77148438 32.6445312,9.77148438 C33.5468795,9.77148438 34.2519506,10.125973 34.7597656,10.8349609 C35.2675807,11.5439489 35.5214844,12.5761651 35.5214844,13.9316406 C35.5214844,15.6074303 35.1933627,16.8964799 34.5371094,17.7988281 C33.8808561,18.7011764 32.9726621,19.1523438 31.8125,19.1523438 C31.1757781,19.1523438 30.636721,19.0488292 30.1953125,18.8417969 L30.1953125,17.7695312 Z M30.8574219,12.6777344 C30.8574219,13.2871124 31.0136703,13.770506 31.3261719,14.1279297 C31.6386734,14.4853533 32.0703097,14.6640625 32.6210938,14.6640625 C33.0976586,14.6640625 33.4980453,14.5009782 33.8222656,14.1748047 C34.146486,13.8486312 34.3085938,13.4531273 34.3085938,12.9882812 C34.3085938,12.3359342 34.1474625,11.7959006 33.8251953,11.3681641 C33.5029281,10.9404275 33.0781276,10.7265625 32.5507812,10.7265625 C32.0624976,10.7265625 31.6582047,10.9121075 31.3378906,11.2832031 C31.0175765,11.6542987 30.8574219,12.1191378 30.8574219,12.6777344 Z M40.5136719,15.8476562 L37.0625,15.8476562 L37.0625,14.9628906 L40.5136719,14.9628906 L40.5136719,15.8476562 Z M41.8730469,14.640625 C41.8730469,13.0390545 42.1386692,11.8271525 42.6699219,11.0048828 C43.2011745,10.1826131 43.9706981,9.77148438 44.9785156,9.77148438 C46.9004002,9.77148438 47.8613281,11.3222501 47.8613281,14.4238281 C47.8613281,15.9550858 47.590823,17.1259725 47.0498047,17.9365234 C46.5087864,18.7470744 45.7500049,19.1523438 44.7734375,19.1523438 C43.8515579,19.1523438 43.1376978,18.767582 42.6318359,17.9980469 C42.125974,17.2285118 41.8730469,16.1093823 41.8730469,14.640625 Z M43.0449219,14.5878906 C43.0449219,16.9980589 43.6562439,18.203125 44.8789062,18.203125 C46.0820373,18.203125 46.6835938,16.9785279 46.6835938,14.5292969 C46.6835938,11.9941279 46.0937559,10.7265625 44.9140625,10.7265625 C43.6679625,10.7265625 43.0449219,12.013659 43.0449219,14.5878906 Z M49.2148438,17.4824219 C49.8359406,17.962893 50.5371055,18.203125 51.3183594,18.203125 C51.9433625,18.203125 52.4384747,18.0498062 52.8037109,17.7431641 C53.1689471,17.4365219 53.3515625,17.0253932 53.3515625,16.5097656 C53.3515625,15.3613224 52.5293051,14.7871094 50.8847656,14.7871094 L50.1289062,14.7871094 L50.1289062,13.8378906 L50.8496094,13.8378906 C52.3066479,13.8378906 53.0351562,13.2988335 53.0351562,12.2207031 C53.0351562,11.2246044 52.4785212,10.7265625 51.3652344,10.7265625 C50.7285124,10.7265625 50.1289091,10.9414041 49.5664062,11.3710938 L49.5664062,10.2871094 C50.1601592,9.94335766 50.8535117,9.77148438 51.6464844,9.77148438 C52.4199257,9.77148438 53.0410133,9.97363079 53.5097656,10.3779297 C53.978518,10.7822286 54.2128906,11.3066374 54.2128906,11.9511719 C54.2128906,13.1386778 53.6074279,13.9023421 52.3964844,14.2421875 L52.3964844,14.265625 C53.0527377,14.3359379 53.5712872,14.5673808 53.9521484,14.9599609 C54.3330097,15.352541 54.5234375,15.8417939 54.5234375,16.4277344 C54.5234375,17.2441447 54.2294951,17.9023412 53.6416016,18.4023438 C53.053708,18.9023463 52.2714893,19.1523438 51.2949219,19.1523438 C50.4355426,19.1523438 49.7421901,18.9921891 49.2148438,18.671875 L49.2148438,17.4824219 Z M59.7792969,15.8476562 L56.328125,15.8476562 L56.328125,14.9628906 L59.7792969,14.9628906 L59.7792969,15.8476562 Z M66.9160156,19 L61.7128906,19 L61.7128906,18.0097656 L63.7460938,18.0097656 L63.7460938,11.1191406 L61.6601562,11.7226562 L61.6601562,10.6679688 L64.8886719,9.73046875 L64.8886719,18.0097656 L66.9160156,18.0097656 L66.9160156,19 Z M73.953125,19 L68.75,19 L68.75,18.0097656 L70.7832031,18.0097656 L70.7832031,11.1191406 L68.6972656,11.7226562 L68.6972656,10.6679688 L71.9257812,9.73046875 L71.9257812,18.0097656 L73.953125,18.0097656 L73.953125,19 Z M84.5410156,19 L79.3378906,19 L79.3378906,18.0097656 L81.3710938,18.0097656 L81.3710938,11.1191406 L79.2851562,11.7226562 L79.2851562,10.6679688 L82.5136719,9.73046875 L82.5136719,18.0097656 L84.5410156,18.0097656 L84.5410156,19 Z M91.4082031,19 L85.8886719,19 L85.8886719,18.0039062 L88.5253906,15.3730469 C89.2519568,14.6464807 89.73828,14.0712912 89.984375,13.6474609 C90.23047,13.2236307 90.3535156,12.7851585 90.3535156,12.3320312 C90.3535156,11.8164037 90.2089858,11.4208998 89.9199219,11.1455078 C89.6308579,10.8701158 89.2128934,10.7324219 88.6660156,10.7324219 C87.8574178,10.7324219 87.0859412,11.0761684 86.3515625,11.7636719 L86.3515625,10.5976562 C87.0664098,10.0468722 87.8984328,9.77148438 88.8476562,9.77148438 C89.6640666,9.77148438 90.3085914,9.99218529 90.78125,10.4335938 C91.2539086,10.8750022 91.4902344,11.4687463 91.4902344,12.2148438 C91.4902344,12.7773466 91.3388687,13.3290989 91.0361328,13.8701172 C90.7333969,14.4111355 90.1601605,15.0996052 89.3164062,15.9355469 L87.2480469,17.9570312 L87.2480469,17.9804688 L91.4082031,17.9804688 L91.4082031,19 Z M93.0019531,13.1230469 C93.0019531,12.9121083 93.0761711,12.7363288 93.2246094,12.5957031 C93.3730476,12.4550774 93.5507802,12.3847656 93.7578125,12.3847656 C93.9687511,12.3847656 94.1484368,12.456054 94.296875,12.5986328 C94.4453132,12.7412117 94.5195312,12.9160146 94.5195312,13.1230469 C94.5195312,13.3300792 94.4472663,13.5058587 94.3027344,13.6503906 C94.1582024,13.7949226 93.9746105,13.8671875 93.7519531,13.8671875 C93.5410146,13.8671875 93.363282,13.7949226 93.21875,13.6503906 C93.074218,13.5058587 93.0019531,13.3300792 93.0019531,13.1230469 Z M93.0019531,18.3964844 C93.0019531,18.1855458 93.074218,18.0078132 93.21875,17.8632812 C93.363282,17.7187493 93.5429677,17.6464844 93.7578125,17.6464844 C93.9765636,17.6464844 94.1582024,17.7197258 94.3027344,17.8662109 C94.4472663,18.012696 94.5195312,18.1894521 94.5195312,18.3964844 C94.5195312,18.5996104 94.4472663,18.7744133 94.3027344,18.9208984 C94.1582024,19.0673835 93.9746105,19.140625 93.7519531,19.140625 C93.5371083,19.140625 93.3583992,19.0673835 93.2158203,18.9208984 C93.0732415,18.7744133 93.0019531,18.5996104 93.0019531,18.3964844 Z M101.333984,19 L95.8144531,19 L95.8144531,18.0039062 L98.4511719,15.3730469 L98.8582825,14.9552722 C99.3626582,14.4224593 99.7132803,13.9865251 99.9101562,13.6474609 C100.156251,13.2236307 100.279297,12.7851585 100.279297,12.3320312 C100.279297,11.8164037 100.134767,11.4208998 99.8457031,11.1455078 C99.5566392,10.8701158 99.1386746,10.7324219 98.5917969,10.7324219 C97.7831991,10.7324219 97.0117224,11.0761684 96.2773438,11.7636719 L96.2773438,10.5976562 C96.9921911,10.0468722 97.824214,9.77148438 98.7734375,9.77148438 C99.5898478,9.77148438 100.234373,9.99218529 100.707031,10.4335938 C101.17969,10.8750022 101.416016,11.4687463 101.416016,12.2148438 C101.416016,12.7773466 101.26465,13.3290989 100.961914,13.8701172 C100.659178,14.4111355 100.085942,15.0996052 99.2421875,15.9355469 L97.1738281,17.9570312 L97.1738281,17.9804688 L101.333984,17.9804688 L101.333984,19 Z M103.068359,17.4824219 C103.689456,17.962893 104.390621,18.203125 105.171875,18.203125 C105.796878,18.203125 106.29199,18.0498062 106.657227,17.7431641 C107.022463,17.4365219 107.205078,17.0253932 107.205078,16.5097656 C107.205078,15.3613224 106.382821,14.7871094 104.738281,14.7871094 L103.982422,14.7871094 L103.982422,13.8378906 L104.703125,13.8378906 C106.160164,13.8378906 106.888672,13.2988335 106.888672,12.2207031 C106.888672,11.2246044 106.332037,10.7265625 105.21875,10.7265625 C104.582028,10.7265625 103.982425,10.9414041 103.419922,11.3710938 L103.419922,10.2871094 C104.013675,9.94335766 104.707027,9.77148438 105.5,9.77148438 C106.273441,9.77148438 106.894529,9.97363079 107.363281,10.3779297 C107.832034,10.7822286 108.066406,11.3066374 108.066406,11.9511719 C108.066406,13.1386778 107.460944,13.9023421 106.25,14.2421875 L106.25,14.265625 C106.906253,14.3359379 107.424803,14.5673808 107.805664,14.9599609 C108.186525,15.352541 108.376953,15.8417939 108.376953,16.4277344 C108.376953,17.2441447 108.083011,17.9023412 107.495117,18.4023438 C106.907224,18.9023463 106.125005,19.1523438 105.148438,19.1523438 C104.289058,19.1523438 103.595706,18.9921891 103.068359,18.671875 L103.068359,17.4824219 Z M109.964844,13.1230469 C109.964844,12.9121083 110.039062,12.7363288 110.1875,12.5957031 C110.335938,12.4550774 110.513671,12.3847656 110.720703,12.3847656 C110.931642,12.3847656 111.111327,12.456054 111.259766,12.5986328 C111.408204,12.7412117 111.482422,12.9160146 111.482422,13.1230469 C111.482422,13.3300792 111.410157,13.5058587 111.265625,13.6503906 C111.121093,13.7949226 110.937501,13.8671875 110.714844,13.8671875 C110.503905,13.8671875 110.326173,13.7949226 110.181641,13.6503906 C110.037109,13.5058587 109.964844,13.3300792 109.964844,13.1230469 Z M109.964844,18.3964844 C109.964844,18.1855458 110.037109,18.0078132 110.181641,17.8632812 C110.326173,17.7187493 110.505858,17.6464844 110.720703,17.6464844 C110.939454,17.6464844 111.121093,17.7197258 111.265625,17.8662109 C111.410157,18.012696 111.482422,18.1894521 111.482422,18.3964844 C111.482422,18.5996104 111.410157,18.7744133 111.265625,18.9208984 C111.121093,19.0673835 110.937501,19.140625 110.714844,19.140625 C110.499999,19.140625 110.32129,19.0673835 110.178711,18.9208984 C110.036132,18.7744133 109.964844,18.5996104 109.964844,18.3964844 Z M118.765625,16.6445312 L117.605469,16.6445312 L117.605469,19 L116.492188,19 L116.492188,16.6445312 L112.261719,16.6445312 L112.261719,15.9003906 L116.275391,9.92382812 L117.605469,9.92382812 L117.605469,15.7363281 L118.765625,15.7363281 L118.765625,16.6445312 Z M113.445312,15.7363281 L116.492188,15.7363281 L116.492188,11.9335938 C116.492188,11.6640612 116.5,11.3535174 116.515625,11.0019531 L116.492188,11.0019531 C116.4375,11.1503914 116.322267,11.3828109 116.146484,11.6992188 L113.445312,15.7363281 Z M120.03125,17.4824219 C120.652347,17.962893 121.353512,18.203125 122.134766,18.203125 C122.759769,18.203125 123.254881,18.0498062 123.620117,17.7431641 C123.985353,17.4365219 124.167969,17.0253932 124.167969,16.5097656 C124.167969,15.3613224 123.345711,14.7871094 121.701172,14.7871094 L120.945312,14.7871094 L120.945312,13.8378906 L121.666016,13.8378906 C123.123054,13.8378906 123.851562,13.2988335 123.851562,12.2207031 C123.851562,11.2246044 123.294927,10.7265625 122.181641,10.7265625 C121.544919,10.7265625 120.945315,10.9414041 120.382812,11.3710938 L120.382812,10.2871094 C120.976565,9.94335766 121.669918,9.77148438 122.462891,9.77148438 C123.236332,9.77148438 123.85742,9.97363079 124.326172,10.3779297 C124.794924,10.7822286 125.029297,11.3066374 125.029297,11.9511719 C125.029297,13.1386778 124.423834,13.9023421 123.212891,14.2421875 L123.212891,14.265625 C123.869144,14.3359379 124.387693,14.5673808 124.768555,14.9599609 C125.149416,15.352541 125.339844,15.8417939 125.339844,16.4277344 C125.339844,17.2441447 125.045901,17.9023412 124.458008,18.4023438 C123.870114,18.9023463 123.087896,19.1523438 122.111328,19.1523438 C121.251949,19.1523438 120.558596,18.9921891 120.03125,18.671875 L120.03125,17.4824219 Z" id="2019-03-1112:23:43" fill="#333333" fill-rule="nonzero"></path>
            </g>
            <text id="样式二" font-family="MicrosoftYaHei, Microsoft YaHei" font-size="12" font-weight="normal" line-spacing="22" fill="#525A6E">
                <tspan x="8" y="19">样式二</tspan>
            </text>
        </g>
    </g>
</svg>