<?xml version="1.0" encoding="UTF-8"?>
<svg width="241px" height="208px" viewBox="0 0 241 208" version="1.1" xmlns="http://www.w3.org/2000/svg" xmlns:xlink="http://www.w3.org/1999/xlink">
    <!-- Generator: Sketch 59 (86127) - https://sketch.com -->
    <title>10-Tree-style1</title>
    <desc>Created with Sketch.</desc>
    <defs>
        <polygon id="path-1" points="5 7.68048012 0.123236337 2.89238489 0.908910539 2.12099568 5.00284025 6.13491308 9.05160734 2.15975994 9.83728155 2.93114915"></polygon>
        <linearGradient x1="22.7476313%" y1="18%" x2="100%" y2="82%" id="linearGradient-3">
            <stop stop-color="#69BEFF" offset="0%"></stop>
            <stop stop-color="#3889FF" offset="100%"></stop>
        </linearGradient>
        <linearGradient x1="29.8441481%" y1="0%" x2="86.98%" y2="100%" id="linearGradient-4">
            <stop stop-color="#69BEFF" offset="0%"></stop>
            <stop stop-color="#3889FF" offset="100%"></stop>
        </linearGradient>
        <polygon id="path-5" points="5 7.68048012 0.123236337 2.89238489 0.908910539 2.12099568 5.00284025 6.13491308 9.05160734 2.15975994 9.83728155 2.93114915"></polygon>
        <polygon id="path-7" points="5 7.68048012 0.123236337 2.89238489 0.908910539 2.12099568 5.00284025 6.13491308 9.05160734 2.15975994 9.83728155 2.93114915"></polygon>
    </defs>
    <g id="页面-1" stroke="none" stroke-width="1" fill="none" fill-rule="evenodd">
        <g id="一诺合同-配置组件备份-2" transform="translate(-224.000000, -3761.000000)">
            <rect fill="#F6F6F6" x="0" y="0" width="1440" height="9290"></rect>
            <path d="M210,149 L1430,149 C1431.10457,149 1432,149.895431 1432,151 L1432,8635.15678 L1432,8635.15678 L1432,9272 C1432,9273.10457 1431.10457,9274 1430,9274 L210,9274 C208.895431,9274 208,9273.10457 208,9272 L208,151 C208,149.895431 208.895431,149 210,149 Z" id="Rectangle" fill="#FFFFFF"></path>
            <g id="tree-radio/style2" transform="translate(224.000000, 3761.000000)">
                <g id="编组-20">
                    <rect id="矩形备份" fill-opacity="0.01" fill="#FAFAFA" x="0" y="0" width="241" height="208"></rect>
                    <g id="编组-42" transform="translate(60.000000, 20.000000)">
                        <rect id="Rectangle" stroke="#EEEEEE" x="-0.5" y="-0.5" width="151" height="97" rx="2"></rect>
                        <g id="Collapse" transform="translate(137.000000, 16.000000) scale(1, -1) translate(-137.000000, -16.000000) translate(132.000000, 11.000000)">
                            <rect id="Rectangle" fill="#D8D8D8" opacity="0.01" x="0" y="0" width="10" height="10"></rect>
                            <mask id="mask-2" fill="white">
                                <use xlink:href="#path-1"></use>
                            </mask>
                            <use id="Path-2" fill="#333333" fill-rule="nonzero" xlink:href="#path-1"></use>
                        </g>
                        <text id="一级菜单" font-family="PingFangSC-Regular, PingFang SC" font-size="12" font-weight="normal" fill="#333333">
                            <tspan x="28" y="20">一级菜单</tspan>
                        </text>
                        <rect id="矩形" fill="#F8FBFF" x="0" y="32" width="150" height="64"></rect>
                        <g id="点击数-copy" transform="translate(79.000000, 50.000000)" stroke="#4C4C4C">
                            <path d="M15.7642312,6.00637625 C15.3623769,6.00637625 15.0075481,6.15390129 14.6933323,6.35622132 C14.3833914,5.65231618 13.6737339,5.15705358 12.84865,5.15705358 C12.4703085,5.15705358 12.1347174,5.28982611 11.8311891,5.46896364 C11.5875115,4.64282348 10.8436536,4.02532584 9.92879378,4.02532584 C9.59747773,4.02532584 9.29822453,4.12227086 9.02248408,4.26347339 L9.02248408,1.98526542 C9.02248408,0.891472705 8.1183119,0 7.00893752,0 C5.89956313,0 4.99539098,0.891472684 4.99539098,1.98526542 L4.99539098,10.3836547 L3.43499926,8.84517933 C2.67404112,8.09490918 1.34450188,8.09701668 0.589956315,8.84517933 C0.209477234,9.22031442 0,9.71768451 0,10.2487746 C0,10.7798648 0.209477234,11.2772348 0.589956315,11.6523699 L6.21591654,17.2056336 C6.99824992,17.9980537 8.31068897,19.3236715 10.8799915,19.3236715 C15.1999252,19.3236715 17.7777778,17.1950961 17.7777778,13.6292053 L17.7777778,7.99164165 C17.7777778,6.89784894 16.8757431,6.00637625 15.7642312,6.00637625 Z" id="Shape" fill="#FFFFFF" fill-rule="nonzero"></path>
                            <rect id="Rectangle" fill="#D8D8D8" x="9.17360423" y="10.6424885" width="1" height="4.55555556" rx="0.5"></rect>
                            <rect id="Rectangle-Copy" fill="#D8D8D8" x="12.1244931" y="11.4330883" width="1" height="4.55555556" rx="0.5"></rect>
                            <rect id="Rectangle-Copy-2" fill="#D8D8D8" x="14.8960548" y="11.5005061" width="1" height="3.44444444" rx="0.5"></rect>
                        </g>
                        <text id="二级菜单1" font-family="PingFangSC-Regular, PingFang SC" font-size="12" font-weight="normal" fill="#525A6E" text-decoration="underline">
                            <tspan x="36" y="53">二级菜单1</tspan>
                        </text>
                        <text id="二级菜单2" font-family="PingFangSC-Regular, PingFang SC" font-size="12" font-weight="normal" fill="#525A6E">
                            <tspan x="36" y="85">二级菜单2</tspan>
                        </text>
                        <g id="一级菜单备份" transform="translate(12.000000, 11.000000)">
                            <rect id="矩形" fill="#D8D8D8" opacity="0.01" x="0" y="0" width="10" height="10"></rect>
                            <path d="M0,2 C-6.76353751e-17,1.44771525 0.44771525,1 1,1 L4.63962039,1 C4.85483559,1 5.04590502,1.13771505 5.11396204,1.34188612 L5.333,2 L9,2 C9.55228475,2 10,2.44771525 10,3 L10,8 C10,8.55228475 9.55228475,9 9,9 L1,9 C0.44771525,9 6.76353751e-17,8.55228475 0,8 L0,2 Z" id="矩形-2" fill="url(#linearGradient-3)" fill-rule="nonzero"></path>
                        </g>
                        <g id="二级菜单" transform="translate(20.000000, 44.000000)">
                            <rect id="矩形" fill-opacity="0.01" fill="#FFFFFF" x="0" y="0" width="10" height="10"></rect>
                            <path d="M4.96666667,3.57 L4.96666667,0 L8.55166667,0 C8.94666667,0 9.26666667,0.32 9.26666667,0.715 L9.26666667,9.285 C9.26666667,9.68 8.94666667,10 8.55166667,10 L1.38666667,10 C0.991666667,10 0.671666667,9.68 0.671666667,9.285 L0.671666667,4.285 L4.25666667,4.285 C4.64666667,4.285 4.96666667,3.965 4.96666667,3.57 Z M3.53166667,3.57 L1.38166667,3.57 C0.986666667,3.57 0.666666667,3.25 0.666666667,2.855 L3.53166667,0 C3.92666667,0 4.24666667,0.32 4.24666667,0.715 L4.24666667,2.86 C4.25166667,3.25 3.92666667,3.57 3.53166667,3.57 L3.53166667,3.57 Z" id="形状" fill="url(#linearGradient-4)" fill-rule="nonzero"></path>
                        </g>
                    </g>
                    <g id="编组-37" transform="translate(60.000000, 120.000000)">
                        <rect id="Rectangle备份" stroke="#EEEEEE" x="-0.5" y="-0.5" width="151" height="33" rx="2"></rect>
                        <g id="Unfold" transform="translate(132.000000, 11.000000)">
                            <rect id="Rectangle" fill="#D8D8D8" opacity="0.01" x="0" y="0" width="10" height="10"></rect>
                            <mask id="mask-6" fill="white">
                                <use xlink:href="#path-5"></use>
                            </mask>
                            <use id="Path-2" fill="#333333" fill-rule="nonzero" xlink:href="#path-5"></use>
                        </g>
                        <text id="一级菜单2" font-family="PingFangSC-Regular, PingFang SC" font-size="12" font-weight="normal" fill="#333333">
                            <tspan x="28" y="20">一级菜单2</tspan>
                        </text>
                        <g id="file-normal" transform="translate(12.000000, 11.000000)">
                            <rect id="矩形" fill="#D8D8D8" opacity="0.01" x="0" y="0" width="10" height="10"></rect>
                            <path d="M0,2 C-6.76353751e-17,1.44771525 0.44771525,1 1,1 L4.63962039,1 C4.85483559,1 5.04590502,1.13771505 5.11396204,1.34188612 L5.333,2 L9,2 C9.55228475,2 10,2.44771525 10,3 L10,8 C10,8.55228475 9.55228475,9 9,9 L1,9 C0.44771525,9 6.76353751e-17,8.55228475 0,8 L0,2 Z" id="矩形-2" fill="url(#linearGradient-3)" fill-rule="nonzero"></path>
                        </g>
                    </g>
                    <g id="编组-41" transform="translate(60.000000, 156.000000)">
                        <rect id="Rectangle备份-2" stroke="#EEEEEE" x="-0.5" y="-0.5" width="151" height="33" rx="2"></rect>
                        <g id="arrow-down备份-3" transform="translate(132.000000, 11.000000)">
                            <rect id="Rectangle" fill="#D8D8D8" opacity="0.01" x="0" y="0" width="10" height="10"></rect>
                            <mask id="mask-8" fill="white">
                                <use xlink:href="#path-7"></use>
                            </mask>
                            <use id="Path-2" fill="#333333" fill-rule="nonzero" xlink:href="#path-7"></use>
                        </g>
                        <text id="一级菜单3" font-family="PingFangSC-Regular, PingFang SC" font-size="12" font-weight="normal" fill="#333333">
                            <tspan x="28" y="21">一级菜单3</tspan>
                        </text>
                        <g id="编组-10" transform="translate(12.000000, 11.000000)">
                            <rect id="矩形" fill="#D8D8D8" opacity="0.01" x="0" y="0" width="10" height="10"></rect>
                            <path d="M0,2 C-6.76353751e-17,1.44771525 0.44771525,1 1,1 L4.63962039,1 C4.85483559,1 5.04590502,1.13771505 5.11396204,1.34188612 L5.333,2 L9,2 C9.55228475,2 10,2.44771525 10,3 L10,8 C10,8.55228475 9.55228475,9 9,9 L1,9 C0.44771525,9 6.76353751e-17,8.55228475 0,8 L0,2 Z" id="矩形-2" fill="url(#linearGradient-3)" fill-rule="nonzero"></path>
                        </g>
                    </g>
                    <g id="wenjian1备份" transform="translate(80.000000, 89.000000)">
                        <rect id="矩形" fill-opacity="0.01" fill="#FFFFFF" x="0" y="0" width="10" height="10"></rect>
                        <path d="M4.96666667,3.57 L4.96666667,0 L8.55166667,0 C8.94666667,0 9.26666667,0.32 9.26666667,0.715 L9.26666667,9.285 C9.26666667,9.68 8.94666667,10 8.55166667,10 L1.38666667,10 C0.991666667,10 0.671666667,9.68 0.671666667,9.285 L0.671666667,4.285 L4.25666667,4.285 C4.64666667,4.285 4.96666667,3.965 4.96666667,3.57 Z M3.53166667,3.57 L1.38166667,3.57 C0.986666667,3.57 0.666666667,3.25 0.666666667,2.855 L3.53166667,0 C3.92666667,0 4.24666667,0.32 4.24666667,0.715 L4.24666667,2.86 C4.25166667,3.25 3.92666667,3.57 3.53166667,3.57 L3.53166667,3.57 Z" id="形状" fill="url(#linearGradient-4)" fill-rule="nonzero"></path>
                    </g>
                    <text id="样式" font-family="MicrosoftYaHei, Microsoft YaHei" font-size="12" font-weight="normal" line-spacing="22" fill="#525A6E">
                        <tspan x="8" y="34">样式</tspan>
                    </text>
                </g>
            </g>
        </g>
    </g>
</svg>