<?xml version="1.0" encoding="UTF-8"?>
<svg width="494px" height="68px" viewBox="0 0 494 68" version="1.1" xmlns="http://www.w3.org/2000/svg" xmlns:xlink="http://www.w3.org/1999/xlink">
    <!-- Generator: Sketch 58 (84663) - https://sketch.com -->
    <title>scope-date-selection/style3</title>
    <desc>Created with Sketch.</desc>
    <g id="页面-1" stroke="none" stroke-width="1" fill="none" fill-rule="evenodd">
        <g id="scope-date-selection/style3">
            <rect id="矩形" fill-opacity="0.01" fill="#F6F6F6" x="0" y="0" width="494" height="68"></rect>
            <g id="编组-13" transform="translate(53.000000, 23.000000)">
                <rect id="矩形备份-12" fill="#D9D9D9" x="0" y="19" width="276" height="1"></rect>
                <g id="calendar" transform="translate(91.000000, 1.000000)" stroke="#333333">
                    <rect id="矩形" x="0.5" y="1.5" width="9" height="8" rx="1"></rect>
                    <rect id="矩形" fill="#D8D8D8" x="3.5" y="0.5" width="1" height="2" rx="0.5"></rect>
                    <rect id="矩形" fill="#D8D8D8" x="6.5" y="0.5" width="1" height="2" rx="0.5"></rect>
                    <rect id="矩形" fill="#D8D8D8" x="0.5" y="4.5" width="9" height="1"></rect>
                    <rect id="矩形" fill="#D8D8D8" x="2.5" y="6.5" width="1" height="1" rx="0.5"></rect>
                    <rect id="矩形" fill="#D8D8D8" x="6.5" y="7.5" width="1" height="1" rx="0.5"></rect>
                </g>
                <g id="编组-2" transform="translate(266.000000, 1.000000)" stroke="#333333">
                    <rect id="矩形" x="0.5" y="1.5" width="9" height="8" rx="1"></rect>
                    <rect id="矩形" fill="#D8D8D8" x="3.5" y="0.5" width="1" height="2" rx="0.5"></rect>
                    <rect id="矩形" fill="#D8D8D8" x="6.5" y="0.5" width="1" height="2" rx="0.5"></rect>
                    <rect id="矩形" fill="#D8D8D8" x="0.5" y="4.5" width="9" height="1"></rect>
                    <rect id="矩形" fill="#D8D8D8" x="2.5" y="6.5" width="1" height="1" rx="0.5"></rect>
                    <rect id="矩形" fill="#D8D8D8" x="6.5" y="7.5" width="1" height="1" rx="0.5"></rect>
                </g>
                <path d="M6.140625,10 L0.62109375,10 L0.62109375,9.00390625 L3.2578125,6.37304688 C3.98437863,5.64648074 4.47070189,5.07129118 4.71679688,4.64746094 C4.96289186,4.22363069 5.0859375,3.78515852 5.0859375,3.33203125 C5.0859375,2.81640367 4.9414077,2.42089981 4.65234375,2.14550781 C4.3632798,1.87011581 3.94531523,1.73242188 3.3984375,1.73242188 C2.58983971,1.73242188 1.81836305,2.07616844 1.08398438,2.76367188 L1.08398438,1.59765625 C1.7988317,1.04687225 2.63085463,0.771484375 3.58007812,0.771484375 C4.39648846,0.771484375 5.04101326,0.992185293 5.51367188,1.43359375 C5.98633049,1.87500221 6.22265625,2.46874627 6.22265625,3.21484375 C6.22265625,3.77734656 6.07129058,4.32909886 5.76855469,4.87011719 C5.4658188,5.41113552 4.89258234,6.0996052 4.04882812,6.93554688 L1.98046875,8.95703125 L1.98046875,8.98046875 L6.140625,8.98046875 L6.140625,10 Z M7.5703125,5.640625 C7.5703125,4.03905449 7.83593484,2.82715255 8.3671875,2.00488281 C8.89844016,1.18261308 9.66796371,0.771484375 10.6757812,0.771484375 C12.5976659,0.771484375 13.5585938,2.32225012 13.5585938,5.42382812 C13.5585938,6.95508578 13.2880886,8.12597251 12.7470703,8.93652344 C12.206052,9.74707437 11.4472705,10.1523438 10.4707031,10.1523438 C9.54882352,10.1523438 8.83496347,9.76758197 8.32910156,8.99804688 C7.82323966,8.22851178 7.5703125,7.10938234 7.5703125,5.640625 Z M8.7421875,5.58789062 C8.7421875,7.99805893 9.35350951,9.203125 10.5761719,9.203125 C11.7793029,9.203125 12.3808594,7.97852787 12.3808594,5.52929688 C12.3808594,2.99412795 11.7910215,1.7265625 10.6113281,1.7265625 C9.36522814,1.7265625 8.7421875,3.013659 8.7421875,5.58789062 Z M20.3847656,10 L15.1816406,10 L15.1816406,9.00976562 L17.2148438,9.00976562 L17.2148438,2.11914062 L15.1289062,2.72265625 L15.1289062,1.66796875 L18.3574219,0.73046875 L18.3574219,9.00976562 L20.3847656,9.00976562 L20.3847656,10 Z M22.1953125,8.76953125 C22.695315,9.0585952 23.2343721,9.203125 23.8125,9.203125 C24.6250041,9.203125 25.2548806,8.8828157 25.7021484,8.2421875 C26.1494163,7.6015593 26.3730469,6.69141215 26.3730469,5.51171875 C26.3652343,5.51953129 26.3574219,5.51953129 26.3496094,5.51171875 C25.9511699,6.26953504 25.2812547,6.6484375 24.3398438,6.6484375 C23.5781212,6.6484375 22.9472681,6.38672137 22.4472656,5.86328125 C21.9472631,5.33984113 21.6972656,4.66016043 21.6972656,3.82421875 C21.6972656,2.9335893 21.9707004,2.2021513 22.5175781,1.62988281 C23.0644559,1.05761433 23.7734331,0.771484375 24.6445312,0.771484375 C25.5468795,0.771484375 26.2519506,1.12597302 26.7597656,1.83496094 C27.2675807,2.54394886 27.5214844,3.5761651 27.5214844,4.93164062 C27.5214844,6.60743025 27.1933627,7.89647986 26.5371094,8.79882812 C25.8808561,9.70117639 24.9726621,10.1523438 23.8125,10.1523438 C23.1757781,10.1523438 22.636721,10.0488292 22.1953125,9.84179688 L22.1953125,8.76953125 Z M22.8574219,3.67773438 C22.8574219,4.28711242 23.0136703,4.77050603 23.3261719,5.12792969 C23.6386734,5.48535335 24.0703097,5.6640625 24.6210938,5.6640625 C25.0976586,5.6640625 25.4980453,5.50097819 25.8222656,5.17480469 C26.146486,4.84863118 26.3085938,4.45312732 26.3085938,3.98828125 C26.3085938,3.33593424 26.1474625,2.79590058 25.8251953,2.36816406 C25.5029281,1.94042755 25.0781276,1.7265625 24.5507812,1.7265625 C24.0624976,1.7265625 23.6582047,1.91210752 23.3378906,2.28320312 C23.0175765,2.65429873 22.8574219,3.11913783 22.8574219,3.67773438 Z M32.5136719,6.84765625 L29.0625,6.84765625 L29.0625,5.96289062 L32.5136719,5.96289062 L32.5136719,6.84765625 Z M33.8730469,5.640625 C33.8730469,4.03905449 34.1386692,2.82715255 34.6699219,2.00488281 C35.2011745,1.18261308 35.9706981,0.771484375 36.9785156,0.771484375 C38.9004002,0.771484375 39.8613281,2.32225012 39.8613281,5.42382812 C39.8613281,6.95508578 39.590823,8.12597251 39.0498047,8.93652344 C38.5087864,9.74707437 37.7500049,10.1523438 36.7734375,10.1523438 C35.8515579,10.1523438 35.1376978,9.76758197 34.6318359,8.99804688 C34.125974,8.22851178 33.8730469,7.10938234 33.8730469,5.640625 Z M35.0449219,5.58789062 C35.0449219,7.99805893 35.6562439,9.203125 36.8789062,9.203125 C38.0820373,9.203125 38.6835938,7.97852787 38.6835938,5.52929688 C38.6835938,2.99412795 38.0937559,1.7265625 36.9140625,1.7265625 C35.6679625,1.7265625 35.0449219,3.013659 35.0449219,5.58789062 Z M41.2148438,8.48242188 C41.8359406,8.96289303 42.5371055,9.203125 43.3183594,9.203125 C43.9433625,9.203125 44.4384747,9.04980622 44.8037109,8.74316406 C45.1689471,8.4365219 45.3515625,8.0253932 45.3515625,7.50976562 C45.3515625,6.36132238 44.5293051,5.78710938 42.8847656,5.78710938 L42.1289062,5.78710938 L42.1289062,4.83789062 L42.8496094,4.83789062 C44.3066479,4.83789062 45.0351562,4.29883352 45.0351562,3.22070312 C45.0351562,2.22460439 44.4785212,1.7265625 43.3652344,1.7265625 C42.7285124,1.7265625 42.1289091,1.9414041 41.5664062,2.37109375 L41.5664062,1.28710938 C42.1601592,0.943357656 42.8535117,0.771484375 43.6464844,0.771484375 C44.4199257,0.771484375 45.0410133,0.973630791 45.5097656,1.37792969 C45.978518,1.78222858 46.2128906,2.3066374 46.2128906,2.95117188 C46.2128906,4.13867781 45.6074279,4.90234205 44.3964844,5.2421875 L44.3964844,5.265625 C45.0527377,5.33593785 45.5712872,5.56738085 45.9521484,5.95996094 C46.3330097,6.35254103 46.5234375,6.84179395 46.5234375,7.42773438 C46.5234375,8.24414471 46.2294951,8.90234125 45.6416016,9.40234375 C45.053708,9.90234625 44.2714893,10.1523438 43.2949219,10.1523438 C42.4355426,10.1523438 41.7421901,9.9921891 41.2148438,9.671875 L41.2148438,8.48242188 Z M51.7792969,6.84765625 L48.328125,6.84765625 L48.328125,5.96289062 L51.7792969,5.96289062 L51.7792969,6.84765625 Z M58.9160156,10 L53.7128906,10 L53.7128906,9.00976562 L55.7460938,9.00976562 L55.7460938,2.11914062 L53.6601562,2.72265625 L53.6601562,1.66796875 L56.8886719,0.73046875 L56.8886719,9.00976562 L58.9160156,9.00976562 L58.9160156,10 Z M65.953125,10 L60.75,10 L60.75,9.00976562 L62.7832031,9.00976562 L62.7832031,2.11914062 L60.6972656,2.72265625 L60.6972656,1.66796875 L63.9257812,0.73046875 L63.9257812,9.00976562 L65.953125,9.00976562 L65.953125,10 Z" id="2019-03-11" fill="#333333" fill-rule="nonzero"></path>
                <path d="M183.140625,10 L177.621094,10 L177.621094,9.00390625 L180.257812,6.37304688 C180.984379,5.64648074 181.470702,5.07129118 181.716797,4.64746094 C181.962892,4.22363069 182.085938,3.78515852 182.085938,3.33203125 C182.085938,2.81640367 181.941408,2.42089981 181.652344,2.14550781 C181.36328,1.87011581 180.945315,1.73242188 180.398438,1.73242188 C179.58984,1.73242188 178.818363,2.07616844 178.083984,2.76367188 L178.083984,1.59765625 C178.798832,1.04687225 179.630855,0.771484375 180.580078,0.771484375 C181.396488,0.771484375 182.041013,0.992185293 182.513672,1.43359375 C182.98633,1.87500221 183.222656,2.46874627 183.222656,3.21484375 C183.222656,3.77734656 183.071291,4.32909886 182.768555,4.87011719 C182.465819,5.41113552 181.892582,6.0996052 181.048828,6.93554688 L178.980469,8.95703125 L178.980469,8.98046875 L183.140625,8.98046875 L183.140625,10 Z M184.570312,5.640625 C184.570312,4.03905449 184.835935,2.82715255 185.367188,2.00488281 C185.89844,1.18261308 186.667964,0.771484375 187.675781,0.771484375 C189.597666,0.771484375 190.558594,2.32225012 190.558594,5.42382812 C190.558594,6.95508578 190.288089,8.12597251 189.74707,8.93652344 C189.206052,9.74707437 188.447271,10.1523438 187.470703,10.1523438 C186.548824,10.1523438 185.834963,9.76758197 185.329102,8.99804688 C184.82324,8.22851178 184.570312,7.10938234 184.570312,5.640625 Z M185.742188,5.58789062 C185.742188,7.99805893 186.35351,9.203125 187.576172,9.203125 C188.779303,9.203125 189.380859,7.97852787 189.380859,5.52929688 C189.380859,2.99412795 188.791022,1.7265625 187.611328,1.7265625 C186.365228,1.7265625 185.742188,3.013659 185.742188,5.58789062 Z M197.384766,10 L192.181641,10 L192.181641,9.00976562 L194.214844,9.00976562 L194.214844,2.11914062 L192.128906,2.72265625 L192.128906,1.66796875 L195.357422,0.73046875 L195.357422,9.00976562 L197.384766,9.00976562 L197.384766,10 Z M199.195312,8.76953125 C199.695315,9.0585952 200.234372,9.203125 200.8125,9.203125 C201.625004,9.203125 202.254881,8.8828157 202.702148,8.2421875 C203.149416,7.6015593 203.373047,6.69141215 203.373047,5.51171875 C203.365234,5.51953129 203.357422,5.51953129 203.349609,5.51171875 C202.95117,6.26953504 202.281255,6.6484375 201.339844,6.6484375 C200.578121,6.6484375 199.947268,6.38672137 199.447266,5.86328125 C198.947263,5.33984113 198.697266,4.66016043 198.697266,3.82421875 C198.697266,2.9335893 198.9707,2.2021513 199.517578,1.62988281 C200.064456,1.05761433 200.773433,0.771484375 201.644531,0.771484375 C202.54688,0.771484375 203.251951,1.12597302 203.759766,1.83496094 C204.267581,2.54394886 204.521484,3.5761651 204.521484,4.93164062 C204.521484,6.60743025 204.193363,7.89647986 203.537109,8.79882812 C202.880856,9.70117639 201.972662,10.1523438 200.8125,10.1523438 C200.175778,10.1523438 199.636721,10.0488292 199.195312,9.84179688 L199.195312,8.76953125 Z M199.857422,3.67773438 C199.857422,4.28711242 200.01367,4.77050603 200.326172,5.12792969 C200.638673,5.48535335 201.07031,5.6640625 201.621094,5.6640625 C202.097659,5.6640625 202.498045,5.50097819 202.822266,5.17480469 C203.146486,4.84863118 203.308594,4.45312732 203.308594,3.98828125 C203.308594,3.33593424 203.147463,2.79590058 202.825195,2.36816406 C202.502928,1.94042755 202.078128,1.7265625 201.550781,1.7265625 C201.062498,1.7265625 200.658205,1.91210752 200.337891,2.28320312 C200.017577,2.65429873 199.857422,3.11913783 199.857422,3.67773438 Z M209.513672,6.84765625 L206.0625,6.84765625 L206.0625,5.96289062 L209.513672,5.96289062 L209.513672,6.84765625 Z M210.873047,5.640625 C210.873047,4.03905449 211.138669,2.82715255 211.669922,2.00488281 C212.201175,1.18261308 212.970698,0.771484375 213.978516,0.771484375 C215.9004,0.771484375 216.861328,2.32225012 216.861328,5.42382812 C216.861328,6.95508578 216.590823,8.12597251 216.049805,8.93652344 C215.508786,9.74707437 214.750005,10.1523438 213.773438,10.1523438 C212.851558,10.1523438 212.137698,9.76758197 211.631836,8.99804688 C211.125974,8.22851178 210.873047,7.10938234 210.873047,5.640625 Z M212.044922,5.58789062 C212.044922,7.99805893 212.656244,9.203125 213.878906,9.203125 C215.082037,9.203125 215.683594,7.97852787 215.683594,5.52929688 C215.683594,2.99412795 215.093756,1.7265625 213.914062,1.7265625 C212.667963,1.7265625 212.044922,3.013659 212.044922,5.58789062 Z M218.214844,8.48242188 C218.835941,8.96289303 219.537105,9.203125 220.318359,9.203125 C220.943363,9.203125 221.438475,9.04980622 221.803711,8.74316406 C222.168947,8.4365219 222.351562,8.0253932 222.351562,7.50976562 C222.351562,6.36132238 221.529305,5.78710938 219.884766,5.78710938 L219.128906,5.78710938 L219.128906,4.83789062 L219.849609,4.83789062 C221.306648,4.83789062 222.035156,4.29883352 222.035156,3.22070312 C222.035156,2.22460439 221.478521,1.7265625 220.365234,1.7265625 C219.728512,1.7265625 219.128909,1.9414041 218.566406,2.37109375 L218.566406,1.28710938 C219.160159,0.943357656 219.853512,0.771484375 220.646484,0.771484375 C221.419926,0.771484375 222.041013,0.973630791 222.509766,1.37792969 C222.978518,1.78222858 223.212891,2.3066374 223.212891,2.95117188 C223.212891,4.13867781 222.607428,4.90234205 221.396484,5.2421875 L221.396484,5.265625 C222.052738,5.33593785 222.571287,5.56738085 222.952148,5.95996094 C223.33301,6.35254103 223.523438,6.84179395 223.523438,7.42773438 C223.523438,8.24414471 223.229495,8.90234125 222.641602,9.40234375 C222.053708,9.90234625 221.271489,10.1523438 220.294922,10.1523438 C219.435543,10.1523438 218.74219,9.9921891 218.214844,9.671875 L218.214844,8.48242188 Z M228.779297,6.84765625 L225.328125,6.84765625 L225.328125,5.96289062 L228.779297,5.96289062 L228.779297,6.84765625 Z M235.916016,10 L230.712891,10 L230.712891,9.00976562 L232.746094,9.00976562 L232.746094,2.11914062 L230.660156,2.72265625 L230.660156,1.66796875 L233.888672,0.73046875 L233.888672,9.00976562 L235.916016,9.00976562 L235.916016,10 Z M237.679688,8.60546875 C238.289066,9.00390824 238.923825,9.203125 239.583984,9.203125 C240.208988,9.203125 240.712889,9.02832206 241.095703,8.67871094 C241.478518,8.32909981 241.669922,7.86523727 241.669922,7.28710938 C241.669922,6.70507521 241.475588,6.25390785 241.086914,5.93359375 C240.69824,5.61327965 240.134769,5.453125 239.396484,5.453125 C239.041014,5.453125 238.562503,5.48046848 237.960938,5.53515625 L237.960938,0.923828125 L242.425781,0.923828125 L242.425781,1.9375 L239.027344,1.9375 L239.027344,4.50390625 L239.548359,4.47929685 C239.643984,4.47617186 239.726172,4.47460938 239.794922,4.47460938 C240.751958,4.47460938 241.498044,4.71679445 242.033203,5.20117188 C242.568362,5.6855493 242.835938,6.35351137 242.835938,7.20507812 C242.835938,8.08398877 242.548831,8.79491916 241.974609,9.33789062 C241.400388,9.88086209 240.607427,10.1523438 239.595703,10.1523438 C238.748043,10.1523438 238.109377,10.027345 237.679688,9.77734375 L237.679688,8.60546875 Z" id="2019-03-15" fill="#333333" fill-rule="nonzero"></path>
            </g>
            <text id="样式三" font-family="MicrosoftYaHei, Microsoft YaHei" font-size="12" font-weight="normal" line-spacing="22" fill="#525A6E">
                <tspan x="8" y="36">样式三</tspan>
            </text>
        </g>
    </g>
</svg>