<?xml version="1.0" encoding="UTF-8"?>
<svg width="494px" height="52px" viewBox="0 0 494 52" version="1.1" xmlns="http://www.w3.org/2000/svg" xmlns:xlink="http://www.w3.org/1999/xlink">
    <!-- Generator: Sketch 58 (84663) - https://sketch.com -->
    <title>style2</title>
    <desc>Created with Sketch.</desc>
    <g id="页面-1" stroke="none" stroke-width="1" fill="none" fill-rule="evenodd">
        <g id="style2">
            <rect id="矩形" fill="#B9B9B9" opacity="0.01" x="0" y="0" width="494" height="52"></rect>
            <g id="页签-工作台" transform="translate(52.000000, 7.000000)">
                <g id="分组-4" fill="#FFFFFF" stroke="#EEEEEE">
                    <path d="M0.5,37.5 L83.5,37.5 L83.5,16 C83.5,7.43958638 76.5604136,0.5 68,0.5 L16,0.5 C7.43958638,0.5 0.5,7.43958638 0.5,16 L0.5,37.5 Z" id="bg-工作台页签"></path>
                </g>
                <path d="M36.342,14.835 L36.342,23.347 L30.742,23.347 L30.742,24.635 L43.272,24.635 L43.272,23.347 L37.686,23.347 L37.686,14.835 L42.39,14.835 L42.39,13.561 L31.652,13.561 L31.652,14.835 L36.342,14.835 Z M50.916,15.745 L51.42,15.745 L51.42,25.531 L52.764,25.531 L52.764,22.367 L56.726,22.367 L56.726,21.093 L52.764,21.093 L52.764,19.035 L56.698,19.035 L56.698,17.747 L52.764,17.747 L52.764,15.745 L57.258,15.745 L57.258,14.443 L51.49,14.443 C51.7,13.911 51.91,13.351 52.106,12.763 L50.762,12.469 C49.95,14.849 48.956,16.725 47.794,18.083 L48.746,19.231 C49.544,18.251 50.272,17.089 50.916,15.745 Z M46.142,18.055 L46.142,25.531 L47.486,25.531 L47.486,16.123 C48.046,15.171 48.508,14.163 48.872,13.099 L47.612,12.511 C46.926,14.611 45.862,16.459 44.42,18.041 L44.868,19.469 C45.316,19.007 45.75,18.531 46.142,18.055 Z M69.788,19.567 L60.212,19.567 L60.212,25.517 L61.556,25.517 L61.556,24.943 L68.444,24.943 L68.444,25.517 L69.788,25.517 L69.788,19.567 Z M61.556,23.669 L61.556,20.841 L68.444,20.841 L68.444,23.669 L61.556,23.669 Z M59.302,18.265 L59.05,17.005 C60.114,16.767 61.584,15.269 63.46,12.525 L64.846,13.001 C63.712,14.569 62.564,15.885 61.388,16.949 C63.768,16.865 66.064,16.711 68.29,16.501 C67.842,15.829 67.38,15.213 66.918,14.625 L68.122,14.051 C69.256,15.451 70.334,16.991 71.356,18.685 L70.054,19.329 C69.718,18.741 69.396,18.195 69.074,17.677 L67.5830648,17.7983333 C65.0517222,17.9927778 62.2886667,18.1483333 59.302,18.265 Z" id="工作台" fill="#1E3255" fill-rule="nonzero"></path>
                <g id="work" transform="translate(12.000000, 12.000000)">
                    <rect id="Rectangle" fill="#D8D8D8" opacity="0.01" x="0" y="0" width="14" height="14"></rect>
                    <g id="Group-44" transform="translate(1.000000, 1.000000)" fill="#1E3255" fill-rule="nonzero">
                        <path d="M10.5,11 C10.7761424,11 11,11.2238576 11,11.5 C11,11.7761424 10.7761424,12 10.5,12 L1.5,12 C1.22385763,12 1,11.7761424 1,11.5 C1,11.2238576 1.22385763,11 1.5,11 L10.5,11 Z M11,0 C11.5522847,0 12,0.44771525 12,1 L12,9 C12,9.55228475 11.5522847,10 11,10 L1,10 C0.44771525,10 0,9.55228475 0,9 L0,1 C0,0.44771525 0.44771525,0 1,0 L11,0 Z M11,1 L1,1 L1,9 L11,9 L11,1 Z M5,2 L5,8 L2,8 L2,2 L5,2 Z M10,6 L10,8 L6,8 L6,6 L10,6 Z M10,4 L10,5 L6,5 L6,4 L10,4 Z M10,2 L10,3 L6,3 L6,2 L10,2 Z" id="Rectangle"></path>
                    </g>
                </g>
            </g>
            <g id="页签-1" transform="translate(140.000000, 15.000000)">
                <path d="M16,0 L106,0 C114.836556,-1.623249e-15 122,7.163444 122,16 L122,30 L122,30 L0,30 L0,16 C-1.082166e-15,7.163444 7.163444,1.623249e-15 16,0 Z" id="Rectangle" fill="#F6F6F6"></path>
                <path d="M17.0039062,19.9492188 C18.3072982,19.329424 19.4853463,18.6139363 20.5380859,17.8027344 C20.1598288,16.595046 19.9137375,15.13217 19.7998047,13.4140625 L16.2382812,13.4140625 L16.2382812,15.6767578 L17.6157225,15.4289551 C18.0828438,15.3435061 18.5579403,15.2552088 19.0410156,15.1640625 L19.0820312,16.2441406 L19.0820312,16.2441406 C18.1249952,16.4264332 17.177088,16.608723 16.2382812,16.7910156 L16.2382812,20.0039062 C16.2382812,21.0429739 15.7415414,21.5670572 14.7480469,21.5761719 C14.1373667,21.5852865 13.5266958,21.5716148 12.9160156,21.5351562 C12.8704425,21.1249979 12.7929693,20.737632 12.6835938,20.3730469 C13.3489617,20.4641932 13.9459609,20.5097656 14.4746094,20.5097656 C14.9029969,20.5188803 15.1171875,20.3001324 15.1171875,19.8535156 L15.1171875,17.0097656 C14.2148392,17.1875009 13.321619,17.3652335 12.4375,17.5429688 L12.1640625,16.3671875 C13.1074266,16.2167961 14.0917917,16.0527353 15.1171875,15.875 L15.1171875,13.4140625 L12.1777344,13.4140625 L12.1777344,12.4023438 L15.1171875,12.4023438 L15.1171875,10.3378906 L14.2268746,10.4527344 C13.7685944,10.5101562 13.2906275,10.5675778 12.7929688,10.625 C12.7291663,10.2786441 12.6289069,9.91406441 12.4921875,9.53125 C14.7343862,9.32161354 16.6621013,9.04817877 18.2753906,8.7109375 L18.6035156,9.8046875 L17.8819439,9.9292536 C17.3786173,10.0133102 16.8307321,10.0993919 16.2382812,10.1875 L16.2382812,12.4023438 L19.7382812,12.4023438 L19.6277248,10.3262456 C19.5971179,9.71523235 19.5656107,9.05830791 19.5332031,8.35546875 L20.6816406,8.35546875 C20.7135418,9.81380938 20.7613929,11.1627542 20.8251953,12.4023438 L25.8222656,12.4023438 L25.8222656,13.4140625 L20.8867188,13.4140625 C20.991537,14.8222727 21.1783841,16.0345001 21.4472656,17.0507812 C22.4544321,16.1575476 23.3248661,15.164068 24.0585938,14.0703125 L25.0429688,14.7265625 C24.09049,16.0162825 23.01498,17.1624299 21.8164062,18.1650391 C22.0716159,18.8121777 22.3769513,19.3430969 22.7324219,19.7578125 C23.1972679,20.3046902 23.6028629,20.578125 23.9492188,20.578125 C24.140626,20.578125 24.2773433,20.4277359 24.359375,20.1269531 C24.4869798,19.6529924 24.6191399,18.8828178 24.7558594,17.8164062 C25.1386738,17.9895842 25.4895817,18.1217443 25.8085938,18.2128906 L25.6992185,18.8596902 C25.5716144,19.5749041 25.4440111,20.1522692 25.3164062,20.5917969 C25.1067698,21.3209672 24.6601597,21.6901041 23.9765625,21.6992188 C23.1927044,21.6901041 22.4498733,21.2207078 21.7480469,20.2910156 C21.4381495,19.8854146 21.1647147,19.4091824 20.9277344,18.8623047 C19.9296825,19.6005896 18.8541724,20.2499972 17.7011719,20.8105469 C17.4641915,20.4550763 17.231772,20.1679698 17.0039062,19.9492188 Z M21.7753906,9.57226562 L22.4863281,8.84765625 C23.2884155,9.45833639 24.1087198,10.1373661 24.9472656,10.8847656 L24.1132812,11.7324219 C23.3658817,10.9759077 22.5865926,10.2558628 21.7753906,9.57226562 Z M28.0644531,11.3769531 L30.9560547,11.3769531 C31.1793631,10.4244744 31.3684888,9.38542229 31.5234375,8.25976562 L32.6855469,8.41015625 C32.5305982,9.44466663 32.3414725,10.433589 32.1181641,11.3769531 L39.671875,11.3769531 L39.671875,12.3886719 L31.8583984,12.3886719 C31.6943351,12.9902374 31.5143239,13.5690076 31.3183594,14.125 L38.0996094,14.125 L38.0996094,15.0683594 C37.4980439,16.5586012 36.5615298,17.8460232 35.2900391,18.9306641 C36.5706444,19.7054075 38.0631425,20.2499984 39.7675781,20.5644531 L39.4383364,20.9372217 C39.1825701,21.2329804 38.9733081,21.4915354 38.8105469,21.7128906 C37.3522063,21.2298153 35.884773,20.5234421 34.4082031,19.59375 C33.2233014,20.3730508 31.5280058,21.1113246 29.3222656,21.8085938 C29.067056,21.4440086 28.7936213,21.1067724 28.5019531,20.796875 C30.7441518,20.2135387 32.4189398,19.5960319 33.5263672,18.9443359 C32.3277935,17.9189402 31.4733098,16.6269609 30.9628906,15.0683594 C29.9648388,17.5657677 28.6067794,19.6165284 26.8886719,21.2207031 C26.6425769,20.8743472 26.4010429,20.5644545 26.1640625,20.2910156 C28.2194113,18.4361886 29.7301384,15.8021004 30.6962891,12.3886719 L26.9023438,12.3886719 L26.9023438,11.3632812 C27.2760435,10.4973915 27.617837,9.6269575 27.9277344,8.75195312 L29.0351562,9.05273438 C28.7161442,9.85482172 28.3925798,10.6295536 28.0644531,11.3769531 Z M36.8964844,15.0683594 L31.9541016,15.0683594 C32.3642599,16.3307355 33.1777283,17.4176387 34.3945312,18.3291016 C35.5748757,17.3538363 36.4088517,16.2669331 36.8964844,15.0683594 Z M34.7910156,9.203125 L35.3925781,8.4375 C36.2858118,9.00260699 37.142574,9.59049174 37.9628906,10.2011719 L37.2246094,11.0898438 C36.4316367,10.4153612 35.6204469,9.78646125 34.7910156,9.203125 Z M51.15625,15.1777344 L51.15625,14.671875 L47.5605469,14.671875 L47.5605469,20.03125 L51.5664062,20.03125 L51.5664062,16.1347656 L52.7148438,16.1347656 L52.7148438,21.5625 L51.5664062,21.5625 L51.5664062,21.0703125 L41.2851562,21.0703125 L41.2851562,16.1347656 L42.4472656,16.1347656 L42.4472656,20.03125 L46.3710938,20.03125 L46.3710938,14.671875 L41.6542969,14.671875 L41.6542969,9.76367188 L42.8164062,9.76367188 L42.8164062,13.6328125 L46.3710938,13.6328125 L46.3710938,8.50585938 L47.5605469,8.50585938 L47.5605469,13.6328125 L51.15625,13.6328125 L51.15625,9.76367188 L52.3183594,9.76367188 L52.3183594,15.1777344 L51.15625,15.1777344 Z M54.7792969,10.5566406 L56.1601562,10.5566406 C56.4973975,9.72720939 56.7753895,8.97070654 56.9941406,8.28710938 L58.1425781,8.61523438 C57.8554673,9.31250349 57.5774753,9.95963243 57.3085938,10.5566406 L60.0429688,10.5566406 L60.0429688,21.4394531 L58.9492188,21.4394531 L58.9492188,20.3730469 L55.8730469,20.3730469 L55.8730469,21.5351562 L54.7792969,21.5351562 L54.7792969,10.5566406 Z M60.2480469,13.359375 C61.104822,12.0012953 61.8294241,10.310557 62.421875,8.28710938 L63.5703125,8.57421875 C63.3378895,9.26237323 63.1009127,9.90950218 62.859375,10.515625 L67.2617188,10.515625 L67.1521729,14.8469152 C67.0899548,17.0744378 67.0353245,18.5792342 66.9882812,19.3613281 C66.9244788,20.7923249 66.1725332,21.5078125 64.7324219,21.5078125 C63.9029906,21.5078125 63.0599001,21.480469 62.203125,21.4257812 C62.1484372,20.9700498 62.0755213,20.5644549 61.984375,20.2089844 L62.0253906,20.2089844 C62.9368535,20.3365892 63.7708296,20.4003906 64.5273438,20.4003906 C65.356775,20.4003906 65.8033851,19.962895 65.8671875,19.0878906 L65.9021001,18.5489769 C65.9845545,17.1093976 66.0458331,14.7734276 66.0859375,11.5410156 L62.421875,11.5410156 C62.0253886,12.4205773 61.6152365,13.1953092 61.1914062,13.8652344 C60.9453113,13.6920564 60.6308613,13.5234383 60.2480469,13.359375 Z M55.8730469,19.3476562 L58.9492188,19.3476562 L58.9492188,15.8886719 L55.8730469,15.8886719 L55.8730469,19.3476562 Z M58.9492188,11.5820312 L55.8730469,11.5820312 L55.8730469,14.9042969 L58.9492188,14.9042969 L58.9492188,11.5820312 Z M61.4511719,14.2890625 L62.2851562,13.6738281 C63.2968801,14.8678445 64.1035126,15.9023394 64.7050781,16.7773438 L63.6933594,17.4882812 C63.0462207,16.4309843 62.2988324,15.3645887 61.4511719,14.2890625 Z M73.0859375,9.421875 L81.8222656,9.421875 L81.8222656,10.4472656 L78.7324219,10.4472656 L78.7324219,19.5800781 C78.7324219,20.8196677 78.1217509,21.4440104 76.9003906,21.453125 L74.3984375,21.453125 L74.2803126,20.7575006 C74.2496877,20.5832301 74.216146,20.3958343 74.1796875,20.1953125 C75.0911504,20.2773442 75.879554,20.3183594 76.5449219,20.3183594 C77.228519,20.3183594 77.5703125,19.9720087 77.5703125,19.2792969 L77.5703125,10.4472656 L73.0859375,10.4472656 L73.0859375,9.421875 Z M73.7421875,17.1054688 C73.8333338,17.5703148 73.9244787,17.9713525 74.015625,18.3085938 C73.1041621,18.9101593 72.1881556,19.5618454 71.2675781,20.2636719 C71.0214831,20.4641937 70.7571629,20.7148422 70.4746094,21.015625 L69.6132812,20.1816406 C69.9687518,19.8443994 70.1464844,19.3704458 70.1464844,18.7597656 L70.1464844,14.0292969 L68.1777344,14.0292969 L68.1777344,12.9902344 L71.2539062,12.9902344 L71.2539062,18.9101562 L71.7312412,18.5800053 C72.3133363,18.1711997 72.9836478,17.6796904 73.7421875,17.1054688 Z M69.8457031,8.51953125 C70.757166,9.32161859 71.5729131,10.0872359 72.2929688,10.8164062 L71.390625,11.6640625 C70.7252571,10.8984337 69.9505253,10.1009156 69.0664062,9.27148438 L69.8457031,8.51953125 Z M85.8417969,8.19140625 C86.5162794,8.8385449 87.1087214,9.43554414 87.6191406,9.98242188 L87.1132812,10.40625 L90.3193359,10.40625 C90.8206405,9.74088209 91.3287735,9.01627996 91.84375,8.23242188 L92.9375,8.8203125 C92.4680966,9.38997681 92.0146506,9.91861735 91.5771484,10.40625 L94.3730469,10.40625 L94.3730469,17.0371094 L93.3339844,17.0371094 L93.3339844,16.3945312 L89.5332031,16.3945312 L89.5332031,17.9394531 L95.7265625,17.9394531 L95.7265625,18.9238281 L89.5332031,18.9238281 L89.5332031,21.8085938 L88.4667969,21.8085938 L88.4667969,18.9238281 L82.2734375,18.9238281 L82.2734375,17.9394531 L88.4667969,17.9394531 L88.4667969,16.3945312 L84.6796875,16.3945312 L84.6796875,17.0371094 L83.640625,17.0371094 L83.640625,10.40625 L86.4775391,10.40625 C86.0400369,9.89583078 85.5683619,9.37174748 85.0625,8.83398438 L85.8417969,8.19140625 Z M93.3339844,13.8515625 L89.5332031,13.8515625 L89.5332031,15.4375 L93.3339844,15.4375 L93.3339844,13.8515625 Z M88.4667969,13.8515625 L84.6796875,13.8515625 L84.6796875,15.4375 L88.4667969,15.4375 L88.4667969,13.8515625 Z M93.3339844,11.3632812 L89.5332031,11.3632812 L89.5332031,12.921875 L93.3339844,12.921875 L93.3339844,11.3632812 Z M88.4667969,11.3632812 L84.6796875,11.3632812 L84.6796875,12.921875 L88.4667969,12.921875 L88.4667969,11.3632812 Z" id="我发出的订单" fill="#4C4C4C" fill-rule="nonzero"></path>
                <g id="Group-46" transform="translate(100.000000, 10.000000)">
                    <rect id="Rectangle" fill="#D8D8D8" opacity="0.01" x="0" y="0" width="10" height="10"></rect>
                    <path d="M5.70710678,5 L8.53553391,7.82842712 C8.73079605,8.02368927 8.73079605,8.34027176 8.53553391,8.53553391 C8.34027176,8.73079605 8.02368927,8.73079605 7.82842712,8.53553391 L5,5.70710678 L2.17157288,8.53553391 C1.97631073,8.73079605 1.65972824,8.73079605 1.46446609,8.53553391 C1.26920395,8.34027176 1.26920395,8.02368927 1.46446609,7.82842712 L4.29289322,5 L1.46446609,2.17157288 C1.26920395,1.97631073 1.26920395,1.65972824 1.46446609,1.46446609 C1.65972824,1.26920395 1.97631073,1.26920395 2.17157288,1.46446609 L5,4.29289322 L7.82842712,1.46446609 C8.02368927,1.26920395 8.34027176,1.26920395 8.53553391,1.46446609 C8.73079605,1.65972824 8.73079605,1.97631073 8.53553391,2.17157288 L5.70710678,5 Z" id="Path" fill="#8B8B8B"></path>
                </g>
            </g>
            <g id="页签-2" transform="translate(266.000000, 15.000000)">
                <path d="M16,0 L64,0 C72.836556,-1.623249e-15 80,7.163444 80,16 L80,30 L80,30 L0,30 L0,16 C-1.082166e-15,7.163444 7.163444,1.623249e-15 16,0 Z" id="Rectangle" fill="#F6F6F6"></path>
                <path d="M12.1640625,16.8457031 C13.1757863,15.2871016 13.8684877,13.6556075 14.2421875,11.9511719 L12.2597656,11.9511719 L12.2597656,11.0214844 L14.3378906,11.0214844 L14.3378906,8.34179688 L15.2949219,8.34179688 L15.2949219,11.0214844 L17.1542969,11.0214844 L17.1542969,11.9511719 L15.2949219,11.9511719 L15.2949219,14.3710938 L15.8828125,13.7558594 C16.4661488,14.257164 16.9811176,14.7402321 17.4277344,15.2050781 L16.703125,15.9570312 C16.2656228,15.460284 15.7962265,14.9589869 15.2949219,14.453125 L15.2949219,21.671875 L14.3378906,21.671875 L14.3378906,14.2685547 C13.8548153,15.8362709 13.2806023,17.0963494 12.6152344,18.0488281 C12.4876296,17.6568991 12.3372404,17.2558614 12.1640625,16.8457031 Z M17.140625,13.1542969 L25.671875,13.1542969 L25.671875,14.1113281 L21.8984375,14.1113281 L21.8984375,19.8261719 C21.8984375,20.9655005 21.3743542,21.5351562 20.3261719,21.5351562 L19.6305805,21.5393415 C19.2935277,21.5378535 18.9192729,21.5319011 18.5078125,21.5214844 C18.4622394,21.1933577 18.3984379,20.8151063 18.3164062,20.3867188 C18.9453156,20.4596358 19.5195287,20.4960938 20.0390625,20.4960938 C20.5859402,20.4960938 20.859375,20.1588575 20.859375,19.484375 L20.859375,14.1113281 L17.140625,14.1113281 L17.140625,13.1542969 Z M17.7695312,9.1484375 L25.0429688,9.1484375 L25.0429688,10.1054688 L17.7695312,10.1054688 L17.7695312,9.1484375 Z M22.8007812,15.875 L23.7714844,15.4101562 L24.273517,16.380862 C24.9195591,17.642321 25.4722633,18.772521 25.9316406,19.7714844 L24.8378906,20.25 C24.2454397,18.8372325 23.5664101,17.3789138 22.8007812,15.875 Z M18.4121094,15.4101562 L19.4375,15.8203125 C18.6901004,17.4882896 17.9472693,18.9693946 17.2089844,20.2636719 C16.9264309,20.0996086 16.5937519,19.9401049 16.2109375,19.7851562 C16.9401078,18.6093691 17.6738244,17.1510504 18.4121094,15.4101562 Z M26.1914062,20.5644531 C26.8567742,19.6621049 27.2167966,18.2675876 27.2714844,16.3808594 L28.2148438,16.3808594 C28.1874999,16.9459664 28.1419274,17.4837214 28.078125,17.9941406 C28.4153663,18.6048208 28.8437474,19.0970033 29.3632812,19.4707031 L29.3632812,15.7382812 L26.3007812,15.7382812 L26.3007812,14.8496094 L32.6171875,14.8496094 L32.6171875,15.7382812 L30.265625,15.7382812 L30.265625,17.1875 L32.4667969,17.1875 L32.4667969,18.0761719 L30.265625,18.0761719 L30.265625,19.9628906 C30.8763051,20.2089856 31.5735638,20.3411457 32.3574219,20.359375 C33.9615966,20.4596359 36.4361812,20.4368497 39.78125,20.2910156 L39.5712502,20.8964058 C39.5180211,21.0451555 39.460417,21.2033846 39.3984375,21.3710938 L37.7094471,21.4058951 C35.3122329,21.4431823 33.5282374,21.4133528 32.3574219,21.3164062 C30.3248596,21.2617185 28.8255257,20.5462308 27.859375,19.1699219 C27.6223946,20.1998749 27.2669295,21.0930952 26.7929688,21.8496094 C26.6106762,21.4212218 26.4101573,20.9928407 26.1914062,20.5644531 Z M27.1484375,8.90234375 L31.9609375,8.90234375 L31.9609375,14.1660156 L31.0585938,14.1660156 L31.0585938,13.7421875 L28.0507812,13.7421875 L28.0507812,14.1660156 L27.1484375,14.1660156 L27.1484375,8.90234375 Z M33.1367188,11.4453125 L35.1191406,11.4453125 C35.2102869,10.9075494 35.2877601,10.3880233 35.3515625,9.88671875 L32.6308594,9.88671875 L32.6308594,8.99804688 L39.4941406,8.99804688 L39.4941406,9.88671875 L36.3632812,9.88671875 C36.2812496,10.4244819 36.1901047,10.9440079 36.0898438,11.4453125 L38.7695312,11.4453125 L38.7695312,17.2421875 L37.8671875,17.2421875 L37.8671875,12.3339844 L34.0390625,12.3339844 L34.0390625,17.2421875 L33.1367188,17.2421875 L33.1367188,11.4453125 Z M35.5019531,12.921875 L36.4042969,12.921875 L36.4042969,14.6308594 C36.4042969,15.524093 36.313152,16.2897104 36.1308594,16.9277344 L36.9823545,17.5479928 C37.9609175,18.2692544 38.7115859,18.8554665 39.234375,19.3066406 L38.4960938,20.03125 C37.7669234,19.3476528 36.869146,18.6048217 35.8027344,17.8027344 L35.6386719,18.0898438 L35.6386719,18.0898438 C35.0917941,18.9648481 34.1621159,19.6575495 32.8496094,20.1679688 C32.6399729,19.9036445 32.3938816,19.634767 32.1113281,19.3613281 C33.3873762,18.9420552 34.2714819,18.3815139 34.7636719,17.6796875 C35.2558618,16.9869757 35.5019531,15.9570381 35.5019531,14.5898438 L35.5019531,12.921875 Z M28.0507812,12.921875 L31.0585938,12.921875 L31.0585938,11.71875 L28.0507812,11.71875 L28.0507812,12.921875 Z M31.0585938,9.72265625 L28.0507812,9.72265625 L28.0507812,10.9121094 L31.0585938,10.9121094 L31.0585938,9.72265625 Z M40.2734375,16.3671875 L46.6855469,16.3671875 L46.6855469,15.5058594 L49.3789062,13.8105469 L42.7617188,13.8105469 L42.7617188,12.8125 L51.046875,12.8125 L51.046875,13.9199219 L47.8066406,15.9980469 L47.8066406,16.3671875 L53.78125,16.3671875 L53.78125,17.3789062 L47.8066406,17.3789062 L47.8066406,19.8945312 C47.8066406,21.0520891 47.2278704,21.6308594 46.0703125,21.6308594 L44.5969585,21.6143181 C44.4196179,21.6111674 44.2316995,21.6075666 44.0332031,21.6035156 C43.9967446,21.2571597 43.9420577,20.8515648 43.8691406,20.3867188 C44.5891963,20.4869797 45.2272108,20.5371094 45.7832031,20.5371094 C46.3847686,20.5371094 46.6855469,20.2135449 46.6855469,19.5664062 L46.6855469,17.3789062 L40.2734375,17.3789062 L40.2734375,16.3671875 Z M40.7929688,10.3378906 L47.0820312,10.3378906 C46.74479,9.85937261 46.3391951,9.33528931 45.8652344,8.765625 L46.78125,8.15039062 C47.3554716,8.77930002 47.8294252,9.36262752 48.203125,9.90039062 L47.5537109,10.3378906 L53.3164062,10.3378906 L53.3164062,13.1132812 L52.2089844,13.1132812 L52.2089844,11.3359375 L41.8867188,11.3359375 L41.8867188,13.1132812 L40.7929688,13.1132812 L40.7929688,10.3378906 Z" id="标题字" fill="#4C4C4C" fill-rule="nonzero"></path>
                <g id="Group-46" transform="translate(58.000000, 11.000000)">
                    <rect id="Rectangle" fill="#D8D8D8" opacity="0.01" x="0" y="0" width="10" height="10"></rect>
                    <path d="M5.70710678,5 L8.53553391,7.82842712 C8.73079605,8.02368927 8.73079605,8.34027176 8.53553391,8.53553391 C8.34027176,8.73079605 8.02368927,8.73079605 7.82842712,8.53553391 L5,5.70710678 L2.17157288,8.53553391 C1.97631073,8.73079605 1.65972824,8.73079605 1.46446609,8.53553391 C1.26920395,8.34027176 1.26920395,8.02368927 1.46446609,7.82842712 L4.29289322,5 L1.46446609,2.17157288 C1.26920395,1.97631073 1.26920395,1.65972824 1.46446609,1.46446609 C1.65972824,1.26920395 1.97631073,1.26920395 2.17157288,1.46446609 L5,4.29289322 L7.82842712,1.46446609 C8.02368927,1.26920395 8.34027176,1.26920395 8.53553391,1.46446609 C8.73079605,1.65972824 8.73079605,1.97631073 8.53553391,2.17157288 L5.70710678,5 Z" id="Path" fill="#8B8B8B"></path>
                </g>
            </g>
            <text id="样式二" font-family="MicrosoftYaHei, Microsoft YaHei" font-size="12" font-weight="normal" line-spacing="22" fill="#525A6E">
                <tspan x="8" y="27">样式二</tspan>
            </text>
        </g>
    </g>
</svg>