<?xml version="1.0" encoding="UTF-8"?>
<svg width="494px" height="52px" viewBox="0 0 494 52" version="1.1" xmlns="http://www.w3.org/2000/svg" xmlns:xlink="http://www.w3.org/1999/xlink">
    <!-- Generator: Sketch 58 (84663) - https://sketch.com -->
    <title>paging/style2</title>
    <desc>Created with Sketch.</desc>
    <g id="页面-1" stroke="none" stroke-width="1" fill="none" fill-rule="evenodd">
        <g id="编组-26备份" transform="translate(-506.000000, -54.000000)">
            <g id="paging/style2" transform="translate(506.000000, 54.000000)">
                <rect id="矩形备份-2" fill="#FAFAFA" opacity="0.01" x="0" y="0" width="494" height="52"></rect>
                <text id="样式二" font-family="PingFangSC-Regular, PingFang SC" font-size="12" font-weight="normal" line-spacing="22" fill="#525A6E">
                    <tspan x="8" y="28">样式二</tspan>
                </text>
                <g id="page" transform="translate(52.000000, 14.000000)">
                    <g id="turnpage-right" transform="translate(48.000000, 12.000000) scale(-1, 1) translate(-48.000000, -12.000000) translate(36.000000, 0.000000)">
                        <rect id="矩形" stroke="#E3E3E3" fill="#F6F6F6" x="0.5" y="0.5" width="23" height="23" rx="4"></rect>
                        <polyline id="路径" stroke="#B7B7B7" transform="translate(12.559525, 12.349971) rotate(180.000000) translate(-12.559525, -12.349971) " points="15.1190498 8 10 12.5251749 15.1190498 16.6999419"></polyline>
                    </g>
                    <g id="turnpage-right" transform="translate(12.000000, 12.000000) scale(-1, 1) translate(-12.000000, -12.000000) ">
                        <rect id="矩形" stroke="#E3E3E3" fill="#F6F6F6" x="0.5" y="0.5" width="23" height="23" rx="4"></rect>
                        <polyline id="路径" stroke="#B7B7B7" transform="translate(11.559525, 12.349971) rotate(180.000000) translate(-11.559525, -12.349971) " points="14.1190498 8 9 12.5251749 14.1190498 16.6999419"></polyline>
                        <path d="M14.7859442,8 L14.7859442,16.6999419" id="路径-3" stroke="#B7B7B7"></path>
                    </g>
                    <g id="turnpage-right" transform="translate(288.000000, 0.000000)">
                        <rect id="矩形" stroke="#E3E3E3" x="0.5" y="0.5" width="23" height="23" rx="4"></rect>
                        <polyline id="路径" stroke="#666666" transform="translate(12.559525, 12.349971) rotate(180.000000) translate(-12.559525, -12.349971) " points="15.1190498 8 10 12.5251749 15.1190498 16.6999419"></polyline>
                    </g>
                    <g id="turnpage-right" transform="translate(324.000000, 0.000000)">
                        <rect id="矩形" stroke="#E3E3E3" x="0.5" y="0.5" width="23" height="23" rx="4"></rect>
                        <polyline id="路径" stroke="#666666" transform="translate(11.559525, 12.349971) rotate(180.000000) translate(-11.559525, -12.349971) " points="14.1190498 8 9 12.5251749 14.1190498 16.6999419"></polyline>
                        <path d="M14.7859442,8 L14.7859442,16.6999419" id="路径-3" stroke="#666666"></path>
                    </g>
                    <g id="分组-3-copy-2" transform="translate(375.000000, 6.000000)">
                        <g id="路径-2" transform="translate(47.000000, 2.000000)">
                            <polyline id="路径" stroke="#666666" transform="translate(4.959525, 3.349971) rotate(270.000000) translate(-4.959525, -3.349971) " points="7.51904985 -1 2.40000003 3.5251749 7.51904985 7.69994188"></polyline>
                            <rect id="矩形" x="0" y="0" width="10" height="6"></rect>
                        </g>
                        <path d="M5.31054688,10.1542969 L0.107421875,10.1542969 L0.107421875,9.1640625 L2.140625,9.1640625 L2.140625,2.2734375 L0.0546875,2.87695312 L0.0546875,1.82226562 L3.28320312,0.884765625 L3.28320312,9.1640625 L5.31054688,9.1640625 L5.31054688,10.1542969 Z M6.5703125,5.79492188 C6.5703125,4.19335137 6.83593484,2.98144942 7.3671875,2.15917969 C7.89844016,1.33690995 8.66796371,0.92578125 9.67578125,0.92578125 C11.5976659,0.92578125 12.5585938,2.47654699 12.5585938,5.578125 C12.5585938,7.10938266 12.2880886,8.28026938 11.7470703,9.09082031 C11.206052,9.90137124 10.4472705,10.3066406 9.47070312,10.3066406 C8.54882352,10.3066406 7.83496347,9.92187885 7.32910156,9.15234375 C6.82323966,8.38280865 6.5703125,7.26367922 6.5703125,5.79492188 Z M7.7421875,5.7421875 C7.7421875,8.1523558 8.35350951,9.35742188 9.57617188,9.35742188 C10.7793029,9.35742188 11.3808594,8.13282475 11.3808594,5.68359375 C11.3808594,3.14842482 10.7910215,1.88085938 9.61132812,1.88085938 C8.36522814,1.88085938 7.7421875,3.16795588 7.7421875,5.7421875 Z M13.7773438,3.87890625 C15.0429751,2.83983855 16.1289017,1.60156969 17.0351562,0.1640625 L18.1015625,0.1640625 C17.8593738,0.554689453 17.6113294,0.929685703 17.3574219,1.2890625 L23.09375,1.2890625 L23.09375,2.12109375 C22.1718704,3.0117232 21.2050832,3.7597626 20.1933594,4.36523438 C21.3808653,4.80664283 22.9531152,5.12109281 24.9101562,5.30859375 C24.6445299,5.67578309 24.4726566,6.01562344 24.3945312,6.328125 C22.1640513,5.94531059 20.435553,5.46679975 19.2089844,4.89257812 C17.8144462,5.54492514 15.9609491,6.11327883 13.6484375,6.59765625 C13.5312494,6.31640484 13.3906258,6.03515766 13.2265625,5.75390625 C15.3906358,5.35546676 17.0722596,4.90429939 18.2714844,4.40039062 C17.5605433,3.96679471 16.8906281,3.39844102 16.2617188,2.6953125 C15.6992159,3.35156578 15.1054719,3.95312227 14.4804688,4.5 C14.1992173,4.21874859 13.9648447,4.01171941 13.7773438,3.87890625 Z M14.375,6.85546875 L18.7226562,6.85546875 L18.7226562,5.6953125 L19.6484375,5.6953125 L19.6484375,6.85546875 L23.7148438,6.85546875 L23.7148438,7.6875 L19.6484375,7.6875 L19.6484375,10.1484375 C19.6484375,11.0625046 19.1679736,11.5195312 18.2070312,11.5195312 L17.3717194,11.5153125 C17.1692198,11.5134375 16.9554699,11.5109375 16.7304688,11.5078125 C16.6835935,11.1874984 16.6250004,10.8437518 16.5546875,10.4765625 L17.0716154,10.528646 C17.3962678,10.5564238 17.6809884,10.5703125 17.9257812,10.5703125 C18.4570339,10.5703125 18.7226562,10.2851591 18.7226562,9.71484375 L18.7226562,7.6875 L14.375,7.6875 L14.375,6.85546875 Z M21.8984375,2.07421875 L16.7890625,2.07421875 C17.4765659,2.81250369 18.2949171,3.43163812 19.2441406,3.93164062 C20.1699265,3.42773186 21.0546833,2.80859742 21.8984375,2.07421875 Z M20.75,8.90625 L21.2890625,8.23828125 C22.5781314,8.94140977 23.7148388,9.61327805 24.6992188,10.2539062 L24.1367188,11.0742188 C23.1992141,10.4023404 22.0703191,9.67969137 20.75,8.90625 Z M16.5898438,8.12109375 L17.28125,8.765625 C16.3281202,9.5859416 15.2812557,10.3867148 14.140625,11.1679688 C13.9609366,10.9335926 13.7617198,10.6953137 13.5429688,10.453125 C14.6210991,9.78905918 15.636714,9.0117232 16.5898438,8.12109375 Z M30.3066406,1.078125 L25.953125,11.6601562 L24.8808594,11.6601562 L29.234375,1.078125 L30.3066406,1.078125 Z M31.9355469,3.2109375 L35.2636719,3.2109375 L35.3545521,2.83402391 C35.4334742,2.4960143 35.5203678,2.09821657 35.6152344,1.640625 L30.6113281,1.640625 L30.6113281,0.7734375 L41.8378906,0.7734375 L41.8378906,1.640625 L36.6582031,1.640625 L36.465078,2.33062632 C36.3703907,2.6550011 36.2785161,2.9484375 36.1894531,3.2109375 L40.6074219,3.2109375 L40.6074219,8.7890625 L39.6582031,8.7890625 L39.6582031,4.078125 L32.8847656,4.078125 L32.8847656,8.8359375 L31.9355469,8.8359375 L31.9355469,3.2109375 Z M30.3886719,10.9101562 C32.3808693,10.4726541 33.7519494,9.93359695 34.5019531,9.29296875 C35.3613324,8.58984023 35.7910156,7.50391359 35.7910156,6.03515625 L35.7910156,4.72265625 L36.7402344,4.72265625 L36.7402344,6.08203125 C36.7402344,6.8710977 36.6386729,7.57030945 36.4355469,8.1796875 C38.4043067,9.0390668 40.1972575,9.92577668 41.8144531,10.8398438 L41.2167969,11.71875 C39.7167894,10.7968704 38.005869,9.88281703 36.0839844,8.9765625 C35.8105455,9.45312738 35.4550803,9.85546711 35.0175781,10.1835938 C34.1035111,10.8789097 32.7636807,11.4296855 30.9980469,11.8359375 C30.8574212,11.5781237 30.6542982,11.269533 30.3886719,10.9101562 Z" id="10条/页" fill="#666666" fill-rule="nonzero"></path>
                    </g>
                    <rect id="矩形" stroke="#E3E3E3" x="364.5" y="0.5" width="77" height="23" rx="4"></rect>
                    <g id="分组-3-copy" transform="translate(72.000000, 0.000000)">
                        <rect id="矩形" fill="#E4EFFF" x="0" y="0" width="24" height="24" rx="4"></rect>
                        <path d="M12.336,7.716 L13.32,7.716 L13.32,16.284 L12.012,16.284 L12.012,9.288 C11.496,9.78 10.836,10.14 10.044,10.368 L10.044,9.072 C10.428,8.976 10.824,8.808 11.256,8.568 C11.688,8.304 12.048,8.028 12.336,7.716 Z" id="1" fill="#4F7DE7" fill-rule="nonzero"></path>
                    </g>
                    <g id="分组-3-copy" transform="translate(108.000000, 0.000000)">
                        <rect id="矩形" stroke="#E3E3E3" x="0.5" y="0.5" width="23" height="23" rx="4"></rect>
                        <path d="M14.7041016,15.2988281 L14.7041016,16.3125 L9.02636719,16.3125 C9.01855465,16.0585925 9.05956986,15.8144543 9.14941406,15.5800781 C9.29394604,15.1933574 9.52538903,14.8125019 9.84375,14.4375 C10.1223158,14.1093734 10.5092906,13.7363906 11.0046836,13.3185431 L11.2236328,13.1367188 C12.1572312,12.3710899 12.7880843,11.7646507 13.1162109,11.3173828 C13.4443376,10.870115 13.6083984,10.4472676 13.6083984,10.0488281 C13.6083984,9.63085729 13.4589859,9.27832175 13.1601562,8.99121094 C12.8613266,8.70410013 12.4716821,8.56054688 11.9912109,8.56054688 C11.4833959,8.56054688 11.07715,8.7128891 10.7724609,9.01757812 C10.4677719,9.32226715 10.3134766,9.74413793 10.3095703,10.2832031 L9.22558594,10.171875 C9.29980506,9.36327721 9.57909914,8.74707243 10.0634766,8.32324219 C10.547854,7.89941194 11.1982381,7.6875 12.0146484,7.6875 C12.8388713,7.6875 13.4912085,7.91601334 13.9716797,8.37304688 C14.4521508,8.83008041 14.6923828,9.396481 14.6923828,10.0722656 C14.6923828,10.4160173 14.622071,10.7539046 14.4814453,11.0859375 C14.3408196,11.4179704 14.1074235,11.7675763 13.78125,12.1347656 C13.5203112,12.4285171 13.1212519,12.8097642 12.5840638,13.2785146 L11.6469128,14.0784678 C11.2991004,14.3785654 11.0623053,14.5949212 10.9365234,14.7275391 C10.756835,14.9169931 10.608399,15.1074209 10.4912109,15.2988281 L14.7041016,15.2988281 Z" id="2" fill="#666666" fill-rule="nonzero"></path>
                    </g>
                    <g id="分组-3-copy" transform="translate(144.000000, 0.000000)">
                        <rect id="矩形" stroke="#E3E3E3" x="0.5" y="0.5" width="23" height="23" rx="4"></rect>
                        <path d="M9.16699219,13.96875 L10.2216797,13.828125 C10.342774,14.4257842 10.5488267,14.856444 10.8398438,15.1201172 C11.1308608,15.3837904 11.4853495,15.515625 11.9033203,15.515625 C12.3994165,15.515625 12.8183577,15.3437517 13.1601562,15 C13.5019548,14.6562483 13.6728516,14.2304713 13.6728516,13.7226562 C13.6728516,13.2382788 13.51465,12.8388688 13.1982422,12.5244141 C12.8818344,12.2099594 12.4794946,12.0527344 11.9912109,12.0527344 C11.7919912,12.0527344 11.5439468,12.0917965 11.2470703,12.1699219 L11.3642578,11.2441406 L11.4866536,11.2545573 C11.5040147,11.2554254 11.5198567,11.2558594 11.5341797,11.2558594 C11.9834007,11.2558594 12.3876935,11.138673 12.7470703,10.9042969 C13.1064471,10.6699207 13.2861328,10.3085962 13.2861328,9.8203125 C13.2861328,9.43359182 13.1552747,9.11328252 12.8935547,8.859375 C12.6318346,8.60546748 12.2939474,8.47851562 11.8798828,8.47851562 C11.4697245,8.47851562 11.1279311,8.60742059 10.8544922,8.86523438 C10.5810533,9.12304816 10.4052738,9.50976305 10.3271484,10.0253906 L9.27246094,9.83789062 C9.40136783,9.13085584 9.69433365,8.58300976 10.1513672,8.19433594 C10.6084007,7.80566212 11.1767544,7.61132812 11.8564453,7.61132812 C12.3251977,7.61132812 12.756834,7.71191306 13.1513672,7.91308594 C13.5459004,8.11425882 13.8476552,8.38867014 14.0566406,8.73632812 C14.265626,9.08398611 14.3701172,9.45312305 14.3701172,9.84375 C14.3701172,10.2148456 14.2705088,10.5527329 14.0712891,10.8574219 C13.8720693,11.1621109 13.5771504,11.404296 13.1865234,11.5839844 C13.6943385,11.7011725 14.0888658,11.9443341 14.3701172,12.3134766 C14.6513686,12.682619 14.7919922,13.1445285 14.7919922,13.6992188 C14.7919922,14.4492225 14.5185574,15.0849583 13.9716797,15.6064453 C13.424802,16.1279323 12.7334026,16.3886719 11.8974609,16.3886719 C11.1435509,16.3886719 10.5175806,16.1640647 10.0195312,15.7148438 C9.52148188,15.2656228 9.23730504,14.6835973 9.16699219,13.96875 Z" id="3" fill="#666666" fill-rule="nonzero"></path>
                    </g>
                    <g id="分组-3-copy备份" transform="translate(180.000000, 0.000000)">
                        <rect id="矩形" stroke="#E3E3E3" x="0.5" y="0.5" width="23" height="23" rx="4"></rect>
                        <path d="M13.5966797,7.70507812 L13.5966797,13.2714844 L14.7568359,13.2714844 L14.7568359,14.2382812 L13.5966797,14.2382812 L13.5966797,16.2949219 L12.5419922,16.2949219 L12.5419922,14.2382812 L8.81542969,14.2382812 L8.81542969,13.2714844 L12.7353516,7.70507812 L13.5966797,7.70507812 Z M12.5419922,9.3984375 L9.85253906,13.2714844 L12.5419922,13.2714844 L12.5419922,9.3984375 Z" id="4" fill="#666666" fill-rule="nonzero"></path>
                    </g>
                    <g id="分组-3-copy备份-2" transform="translate(252.000000, 0.000000)">
                        <rect id="矩形" stroke="#E3E3E3" x="0.5" y="0.5" width="23" height="23" rx="4"></rect>
                        <path d="M11.3671875,15.2255859 L11.3671875,16.2392578 L5.68945312,16.2392578 C5.68164059,15.9853503 5.7226558,15.7412121 5.8125,15.5068359 C5.95703197,15.1201153 6.18847497,14.7392597 6.50683594,14.3642578 C6.78540178,14.0361312 7.17237659,13.6631484 7.66776959,13.2453009 L7.88671875,13.0634766 C8.82031717,12.2978477 9.45117023,11.6914085 9.77929688,11.2441406 C10.1074235,10.7968728 10.2714844,10.3740254 10.2714844,9.97558594 C10.2714844,9.5576151 10.1220718,9.20507956 9.82324219,8.91796875 C9.52441257,8.63085794 9.13476803,8.48730469 8.65429688,8.48730469 C8.14648184,8.48730469 7.7402359,8.63964691 7.43554688,8.94433594 C7.13085785,9.24902496 6.97656252,9.67089574 6.97265625,10.2099609 L5.88867188,10.0986328 C5.962891,9.29003502 6.24218508,8.67383024 6.7265625,8.25 C7.21093992,7.82616976 7.86132404,7.61425781 8.67773438,7.61425781 C9.50195725,7.61425781 10.1542945,7.84277115 10.6347656,8.29980469 C11.1152368,8.75683822 11.3554688,9.32323881 11.3554688,9.99902344 C11.3554688,10.3427752 11.285157,10.6806624 11.1445312,11.0126953 C11.0039055,11.3447282 10.7705094,11.6943341 10.4443359,12.0615234 C10.1833971,12.3552749 9.78433784,12.736522 9.24714974,13.2052724 L8.30999877,14.0052256 C7.96218633,14.3053232 7.72539125,14.521679 7.59960938,14.6542969 C7.41992098,14.8437509 7.27148496,15.0341787 7.15429688,15.2255859 L11.3671875,15.2255859 Z M15.2988281,7.61425781 C15.7597679,7.61425781 16.1640608,7.70703032 16.5117188,7.89257812 C16.8593767,8.07812593 17.1464832,8.34570138 17.3730469,8.6953125 C17.5996105,9.04492362 17.7773431,9.47070062 17.90625,9.97265625 C18.0351569,10.4746119 18.0996094,11.1513629 18.0996094,12.0029297 C18.0996094,13.0107472 17.9960948,13.8242157 17.7890625,14.4433594 C17.5820302,15.0625031 17.272463,15.5410139 16.8603516,15.8789062 C16.4482401,16.2167986 15.9277375,16.3857422 15.2988281,16.3857422 C14.470699,16.3857422 13.8203149,16.0888702 13.3476562,15.4951172 C12.7812472,14.7802699 12.4980469,13.616219 12.4980469,12.0029297 C12.4980469,10.9872996 12.602538,10.169925 12.8115234,9.55078125 C13.0205089,8.93163753 13.3310526,8.45410324 13.7431641,8.11816406 C14.1552755,7.78222488 14.673825,7.61425781 15.2988281,7.61425781 Z M15.2871094,8.48730469 C14.802732,8.48730469 14.4160171,8.69238076 14.1269531,9.10253906 C13.7636701,9.62597918 13.5820312,10.5927664 13.5820312,12.0029297 C13.5820312,13.413093 13.7470687,14.3515602 14.0771484,14.8183594 C14.4072282,15.2851586 14.8144507,15.5185547 15.2988281,15.5185547 C15.7832055,15.5185547 16.190428,15.284182 16.5205078,14.8154297 C16.8505876,14.3466773 17.015625,13.4091867 17.015625,12.0029297 C17.015625,10.5888601 16.8505876,9.64941639 16.5205078,9.18457031 C16.190428,8.71972424 15.7792993,8.48730469 15.2871094,8.48730469 Z" id="20" fill="#666666" fill-rule="nonzero"></path>
                    </g>
                    <g id="分组-3-copy备份-3" transform="translate(221.000000, 10.000000)" fill="#666666">
                        <path d="M1.5,0 C2.32842712,0 3,0.671572875 3,1.5 C3,2.32842712 2.32842712,3 1.5,3 C0.671572875,3 0,2.32842712 0,1.5 C0,0.671572875 0.671572875,0 1.5,0 Z M7.5,0 C8.32842712,0 9,0.671572875 9,1.5 C9,2.32842712 8.32842712,3 7.5,3 C6.67157288,3 6,2.32842712 6,1.5 C6,0.671572875 6.67157288,0 7.5,0 Z M13.5,0 C14.3284271,0 15,0.671572875 15,1.5 C15,2.32842712 14.3284271,3 13.5,3 C12.6715729,3 12,2.32842712 12,1.5 C12,0.671572875 12.6715729,0 13.5,0 Z" id="椭圆形-2"></path>
                    </g>
                </g>
            </g>
        </g>
    </g>
</svg>