<?xml version="1.0" encoding="UTF-8"?>
<svg width="494px" height="68px" viewBox="0 0 494 68" version="1.1" xmlns="http://www.w3.org/2000/svg" xmlns:xlink="http://www.w3.org/1999/xlink">
    <!-- Generator: Sketch 58 (84663) - https://sketch.com -->
    <title>scope-date-selection/style1</title>
    <desc>Created with Sketch.</desc>
    <g id="页面-1" stroke="none" stroke-width="1" fill="none" fill-rule="evenodd">
        <g id="scope-date-selection/style1">
            <rect id="矩形备份-11" fill-opacity="0.01" fill="#FAFAFA" x="0" y="0" width="494" height="68"></rect>
            <g id="编组-32" transform="translate(60.000000, 20.000000)">
                <rect id="矩形" stroke-opacity="0.15" stroke="#000000" fill="#FFFFFF" x="0.5" y="0.5" width="275" height="27" rx="2"></rect>
                <g id="calendar" transform="translate(99.000000, 9.000000)" stroke="#333333">
                    <rect id="矩形" x="0.5" y="1.5" width="9" height="8" rx="1"></rect>
                    <rect id="矩形" fill="#D8D8D8" x="3.5" y="0.5" width="1" height="2" rx="0.5"></rect>
                    <rect id="矩形" fill="#D8D8D8" x="6.5" y="0.5" width="1" height="2" rx="0.5"></rect>
                    <rect id="矩形" fill="#D8D8D8" x="0.5" y="4.5" width="9" height="1"></rect>
                    <rect id="矩形" fill="#D8D8D8" x="2.5" y="6.5" width="1" height="1" rx="0.5"></rect>
                    <rect id="矩形" fill="#D8D8D8" x="6.5" y="7.5" width="1" height="1" rx="0.5"></rect>
                </g>
                <g id="编组-2" transform="translate(256.000000, 9.000000)" stroke="#333333">
                    <rect id="矩形" x="0.5" y="1.5" width="9" height="8" rx="1"></rect>
                    <rect id="矩形" fill="#D8D8D8" x="3.5" y="0.5" width="1" height="2" rx="0.5"></rect>
                    <rect id="矩形" fill="#D8D8D8" x="6.5" y="0.5" width="1" height="2" rx="0.5"></rect>
                    <rect id="矩形" fill="#D8D8D8" x="0.5" y="4.5" width="9" height="1"></rect>
                    <rect id="矩形" fill="#D8D8D8" x="2.5" y="6.5" width="1" height="1" rx="0.5"></rect>
                    <rect id="矩形" fill="#D8D8D8" x="6.5" y="7.5" width="1" height="1" rx="0.5"></rect>
                </g>
                <path d="M14.140625,19 L8.62109375,19 L8.62109375,18.0039062 L11.2578125,15.3730469 C11.9843786,14.6464807 12.4707019,14.0712912 12.7167969,13.6474609 C12.9628919,13.2236307 13.0859375,12.7851585 13.0859375,12.3320312 C13.0859375,11.8164037 12.9414077,11.4208998 12.6523438,11.1455078 C12.3632798,10.8701158 11.9453152,10.7324219 11.3984375,10.7324219 C10.5898397,10.7324219 9.81836305,11.0761684 9.08398438,11.7636719 L9.08398438,10.5976562 C9.7988317,10.0468722 10.6308546,9.77148438 11.5800781,9.77148438 C12.3964885,9.77148438 13.0410133,9.99218529 13.5136719,10.4335938 C13.9863305,10.8750022 14.2226562,11.4687463 14.2226562,12.2148438 C14.2226562,12.7773466 14.0712906,13.3290989 13.7685547,13.8701172 C13.4658188,14.4111355 12.8925823,15.0996052 12.0488281,15.9355469 L9.98046875,17.9570312 L9.98046875,17.9804688 L14.140625,17.9804688 L14.140625,19 Z M15.5703125,14.640625 C15.5703125,13.0390545 15.8359348,11.8271525 16.3671875,11.0048828 C16.8984402,10.1826131 17.6679637,9.77148438 18.6757812,9.77148438 C20.5976659,9.77148438 21.5585938,11.3222501 21.5585938,14.4238281 C21.5585938,15.9550858 21.2880886,17.1259725 20.7470703,17.9365234 C20.206052,18.7470744 19.4472705,19.1523438 18.4707031,19.1523438 C17.5488235,19.1523438 16.8349635,18.767582 16.3291016,17.9980469 C15.8232397,17.2285118 15.5703125,16.1093823 15.5703125,14.640625 Z M16.7421875,14.5878906 C16.7421875,16.9980589 17.3535095,18.203125 18.5761719,18.203125 C19.7793029,18.203125 20.3808594,16.9785279 20.3808594,14.5292969 C20.3808594,11.9941279 19.7910215,10.7265625 18.6113281,10.7265625 C17.3652281,10.7265625 16.7421875,12.013659 16.7421875,14.5878906 Z M28.3847656,19 L23.1816406,19 L23.1816406,18.0097656 L25.2148438,18.0097656 L25.2148438,11.1191406 L23.1289062,11.7226562 L23.1289062,10.6679688 L26.3574219,9.73046875 L26.3574219,18.0097656 L28.3847656,18.0097656 L28.3847656,19 Z M30.1953125,17.7695312 C30.695315,18.0585952 31.2343721,18.203125 31.8125,18.203125 C32.6250041,18.203125 33.2548806,17.8828157 33.7021484,17.2421875 C34.1494163,16.6015593 34.3730469,15.6914121 34.3730469,14.5117188 C34.3652343,14.5195313 34.3574219,14.5195313 34.3496094,14.5117188 C33.9511699,15.269535 33.2812547,15.6484375 32.3398438,15.6484375 C31.5781212,15.6484375 30.9472681,15.3867214 30.4472656,14.8632812 C29.9472631,14.3398411 29.6972656,13.6601604 29.6972656,12.8242188 C29.6972656,11.9335893 29.9707004,11.2021513 30.5175781,10.6298828 C31.0644559,10.0576143 31.7734331,9.77148438 32.6445312,9.77148438 C33.5468795,9.77148438 34.2519506,10.125973 34.7597656,10.8349609 C35.2675807,11.5439489 35.5214844,12.5761651 35.5214844,13.9316406 C35.5214844,15.6074303 35.1933627,16.8964799 34.5371094,17.7988281 C33.8808561,18.7011764 32.9726621,19.1523438 31.8125,19.1523438 C31.1757781,19.1523438 30.636721,19.0488292 30.1953125,18.8417969 L30.1953125,17.7695312 Z M30.8574219,12.6777344 C30.8574219,13.2871124 31.0136703,13.770506 31.3261719,14.1279297 C31.6386734,14.4853533 32.0703097,14.6640625 32.6210938,14.6640625 C33.0976586,14.6640625 33.4980453,14.5009782 33.8222656,14.1748047 C34.146486,13.8486312 34.3085938,13.4531273 34.3085938,12.9882812 C34.3085938,12.3359342 34.1474625,11.7959006 33.8251953,11.3681641 C33.5029281,10.9404275 33.0781276,10.7265625 32.5507812,10.7265625 C32.0624976,10.7265625 31.6582047,10.9121075 31.3378906,11.2832031 C31.0175765,11.6542987 30.8574219,12.1191378 30.8574219,12.6777344 Z M40.5136719,15.8476562 L37.0625,15.8476562 L37.0625,14.9628906 L40.5136719,14.9628906 L40.5136719,15.8476562 Z M41.8730469,14.640625 C41.8730469,13.0390545 42.1386692,11.8271525 42.6699219,11.0048828 C43.2011745,10.1826131 43.9706981,9.77148438 44.9785156,9.77148438 C46.9004002,9.77148438 47.8613281,11.3222501 47.8613281,14.4238281 C47.8613281,15.9550858 47.590823,17.1259725 47.0498047,17.9365234 C46.5087864,18.7470744 45.7500049,19.1523438 44.7734375,19.1523438 C43.8515579,19.1523438 43.1376978,18.767582 42.6318359,17.9980469 C42.125974,17.2285118 41.8730469,16.1093823 41.8730469,14.640625 Z M43.0449219,14.5878906 C43.0449219,16.9980589 43.6562439,18.203125 44.8789062,18.203125 C46.0820373,18.203125 46.6835938,16.9785279 46.6835938,14.5292969 C46.6835938,11.9941279 46.0937559,10.7265625 44.9140625,10.7265625 C43.6679625,10.7265625 43.0449219,12.013659 43.0449219,14.5878906 Z M49.2148438,17.4824219 C49.8359406,17.962893 50.5371055,18.203125 51.3183594,18.203125 C51.9433625,18.203125 52.4384747,18.0498062 52.8037109,17.7431641 C53.1689471,17.4365219 53.3515625,17.0253932 53.3515625,16.5097656 C53.3515625,15.3613224 52.5293051,14.7871094 50.8847656,14.7871094 L50.1289062,14.7871094 L50.1289062,13.8378906 L50.8496094,13.8378906 C52.3066479,13.8378906 53.0351562,13.2988335 53.0351562,12.2207031 C53.0351562,11.2246044 52.4785212,10.7265625 51.3652344,10.7265625 C50.7285124,10.7265625 50.1289091,10.9414041 49.5664062,11.3710938 L49.5664062,10.2871094 C50.1601592,9.94335766 50.8535117,9.77148438 51.6464844,9.77148438 C52.4199257,9.77148438 53.0410133,9.97363079 53.5097656,10.3779297 C53.978518,10.7822286 54.2128906,11.3066374 54.2128906,11.9511719 C54.2128906,13.1386778 53.6074279,13.9023421 52.3964844,14.2421875 L52.3964844,14.265625 C53.0527377,14.3359379 53.5712872,14.5673808 53.9521484,14.9599609 C54.3330097,15.352541 54.5234375,15.8417939 54.5234375,16.4277344 C54.5234375,17.2441447 54.2294951,17.9023412 53.6416016,18.4023438 C53.053708,18.9023463 52.2714893,19.1523438 51.2949219,19.1523438 C50.4355426,19.1523438 49.7421901,18.9921891 49.2148438,18.671875 L49.2148438,17.4824219 Z M59.7792969,15.8476562 L56.328125,15.8476562 L56.328125,14.9628906 L59.7792969,14.9628906 L59.7792969,15.8476562 Z M66.9160156,19 L61.7128906,19 L61.7128906,18.0097656 L63.7460938,18.0097656 L63.7460938,11.1191406 L61.6601562,11.7226562 L61.6601562,10.6679688 L64.8886719,9.73046875 L64.8886719,18.0097656 L66.9160156,18.0097656 L66.9160156,19 Z M73.953125,19 L68.75,19 L68.75,18.0097656 L70.7832031,18.0097656 L70.7832031,11.1191406 L68.6972656,11.7226562 L68.6972656,10.6679688 L71.9257812,9.73046875 L71.9257812,18.0097656 L73.953125,18.0097656 L73.953125,19 Z" id="2019-03-11" fill="#333333" fill-rule="nonzero"></path>
                <path d="M171.140625,19 L165.621094,19 L165.621094,18.0039062 L168.257812,15.3730469 C168.984379,14.6464807 169.470702,14.0712912 169.716797,13.6474609 C169.962892,13.2236307 170.085938,12.7851585 170.085938,12.3320312 C170.085938,11.8164037 169.941408,11.4208998 169.652344,11.1455078 C169.36328,10.8701158 168.945315,10.7324219 168.398438,10.7324219 C167.58984,10.7324219 166.818363,11.0761684 166.083984,11.7636719 L166.083984,10.5976562 C166.798832,10.0468722 167.630855,9.77148438 168.580078,9.77148438 C169.396488,9.77148438 170.041013,9.99218529 170.513672,10.4335938 C170.98633,10.8750022 171.222656,11.4687463 171.222656,12.2148438 C171.222656,12.7773466 171.071291,13.3290989 170.768555,13.8701172 C170.465819,14.4111355 169.892582,15.0996052 169.048828,15.9355469 L166.980469,17.9570312 L166.980469,17.9804688 L171.140625,17.9804688 L171.140625,19 Z M172.570312,14.640625 C172.570312,13.0390545 172.835935,11.8271525 173.367188,11.0048828 C173.89844,10.1826131 174.667964,9.77148438 175.675781,9.77148438 C177.597666,9.77148438 178.558594,11.3222501 178.558594,14.4238281 C178.558594,15.9550858 178.288089,17.1259725 177.74707,17.9365234 C177.206052,18.7470744 176.447271,19.1523438 175.470703,19.1523438 C174.548824,19.1523438 173.834963,18.767582 173.329102,17.9980469 C172.82324,17.2285118 172.570312,16.1093823 172.570312,14.640625 Z M173.742188,14.5878906 C173.742188,16.9980589 174.35351,18.203125 175.576172,18.203125 C176.779303,18.203125 177.380859,16.9785279 177.380859,14.5292969 C177.380859,11.9941279 176.791022,10.7265625 175.611328,10.7265625 C174.365228,10.7265625 173.742188,12.013659 173.742188,14.5878906 Z M185.384766,19 L180.181641,19 L180.181641,18.0097656 L182.214844,18.0097656 L182.214844,11.1191406 L180.128906,11.7226562 L180.128906,10.6679688 L183.357422,9.73046875 L183.357422,18.0097656 L185.384766,18.0097656 L185.384766,19 Z M187.195312,17.7695312 C187.695315,18.0585952 188.234372,18.203125 188.8125,18.203125 C189.625004,18.203125 190.254881,17.8828157 190.702148,17.2421875 C191.149416,16.6015593 191.373047,15.6914121 191.373047,14.5117188 C191.365234,14.5195313 191.357422,14.5195313 191.349609,14.5117188 C190.95117,15.269535 190.281255,15.6484375 189.339844,15.6484375 C188.578121,15.6484375 187.947268,15.3867214 187.447266,14.8632812 C186.947263,14.3398411 186.697266,13.6601604 186.697266,12.8242188 C186.697266,11.9335893 186.9707,11.2021513 187.517578,10.6298828 C188.064456,10.0576143 188.773433,9.77148438 189.644531,9.77148438 C190.54688,9.77148438 191.251951,10.125973 191.759766,10.8349609 C192.267581,11.5439489 192.521484,12.5761651 192.521484,13.9316406 C192.521484,15.6074303 192.193363,16.8964799 191.537109,17.7988281 C190.880856,18.7011764 189.972662,19.1523438 188.8125,19.1523438 C188.175778,19.1523438 187.636721,19.0488292 187.195312,18.8417969 L187.195312,17.7695312 Z M187.857422,12.6777344 C187.857422,13.2871124 188.01367,13.770506 188.326172,14.1279297 C188.638673,14.4853533 189.07031,14.6640625 189.621094,14.6640625 C190.097659,14.6640625 190.498045,14.5009782 190.822266,14.1748047 C191.146486,13.8486312 191.308594,13.4531273 191.308594,12.9882812 C191.308594,12.3359342 191.147463,11.7959006 190.825195,11.3681641 C190.502928,10.9404275 190.078128,10.7265625 189.550781,10.7265625 C189.062498,10.7265625 188.658205,10.9121075 188.337891,11.2832031 C188.017577,11.6542987 187.857422,12.1191378 187.857422,12.6777344 Z M197.513672,15.8476562 L194.0625,15.8476562 L194.0625,14.9628906 L197.513672,14.9628906 L197.513672,15.8476562 Z M198.873047,14.640625 C198.873047,13.0390545 199.138669,11.8271525 199.669922,11.0048828 C200.201175,10.1826131 200.970698,9.77148438 201.978516,9.77148438 C203.9004,9.77148438 204.861328,11.3222501 204.861328,14.4238281 C204.861328,15.9550858 204.590823,17.1259725 204.049805,17.9365234 C203.508786,18.7470744 202.750005,19.1523438 201.773438,19.1523438 C200.851558,19.1523438 200.137698,18.767582 199.631836,17.9980469 C199.125974,17.2285118 198.873047,16.1093823 198.873047,14.640625 Z M200.044922,14.5878906 C200.044922,16.9980589 200.656244,18.203125 201.878906,18.203125 C203.082037,18.203125 203.683594,16.9785279 203.683594,14.5292969 C203.683594,11.9941279 203.093756,10.7265625 201.914062,10.7265625 C200.667963,10.7265625 200.044922,12.013659 200.044922,14.5878906 Z M206.214844,17.4824219 C206.835941,17.962893 207.537105,18.203125 208.318359,18.203125 C208.943363,18.203125 209.438475,18.0498062 209.803711,17.7431641 C210.168947,17.4365219 210.351562,17.0253932 210.351562,16.5097656 C210.351562,15.3613224 209.529305,14.7871094 207.884766,14.7871094 L207.128906,14.7871094 L207.128906,13.8378906 L207.849609,13.8378906 C209.306648,13.8378906 210.035156,13.2988335 210.035156,12.2207031 C210.035156,11.2246044 209.478521,10.7265625 208.365234,10.7265625 C207.728512,10.7265625 207.128909,10.9414041 206.566406,11.3710938 L206.566406,10.2871094 C207.160159,9.94335766 207.853512,9.77148438 208.646484,9.77148438 C209.419926,9.77148438 210.041013,9.97363079 210.509766,10.3779297 C210.978518,10.7822286 211.212891,11.3066374 211.212891,11.9511719 C211.212891,13.1386778 210.607428,13.9023421 209.396484,14.2421875 L209.396484,14.265625 C210.052738,14.3359379 210.571287,14.5673808 210.952148,14.9599609 C211.33301,15.352541 211.523438,15.8417939 211.523438,16.4277344 C211.523438,17.2441447 211.229495,17.9023412 210.641602,18.4023438 C210.053708,18.9023463 209.271489,19.1523438 208.294922,19.1523438 C207.435543,19.1523438 206.74219,18.9921891 206.214844,18.671875 L206.214844,17.4824219 Z M216.779297,15.8476562 L213.328125,15.8476562 L213.328125,14.9628906 L216.779297,14.9628906 L216.779297,15.8476562 Z M223.916016,19 L218.712891,19 L218.712891,18.0097656 L220.746094,18.0097656 L220.746094,11.1191406 L218.660156,11.7226562 L218.660156,10.6679688 L221.888672,9.73046875 L221.888672,18.0097656 L223.916016,18.0097656 L223.916016,19 Z M225.679688,17.6054688 C226.289066,18.0039082 226.923825,18.203125 227.583984,18.203125 C228.208988,18.203125 228.712889,18.0283221 229.095703,17.6787109 C229.478518,17.3290998 229.669922,16.8652373 229.669922,16.2871094 C229.669922,15.7050752 229.475588,15.2539079 229.086914,14.9335938 C228.69824,14.6132796 228.134769,14.453125 227.396484,14.453125 C227.041014,14.453125 226.562503,14.4804685 225.960938,14.5351562 L225.960938,9.92382812 L230.425781,9.92382812 L230.425781,10.9375 L227.027344,10.9375 L227.027344,13.5039062 L227.548359,13.4792968 C227.643984,13.4761719 227.726172,13.4746094 227.794922,13.4746094 C228.751958,13.4746094 229.498044,13.7167945 230.033203,14.2011719 C230.568362,14.6855493 230.835938,15.3535114 230.835938,16.2050781 C230.835938,17.0839888 230.548831,17.7949192 229.974609,18.3378906 C229.400388,18.8808621 228.607427,19.1523438 227.595703,19.1523438 C226.748043,19.1523438 226.109377,19.027345 225.679688,18.7773438 L225.679688,17.6054688 Z" id="2019-03-15" fill="#333333" fill-rule="nonzero"></path>
            </g>
            <text id="样式一" font-family="MicrosoftYaHei, Microsoft YaHei" font-size="12" font-weight="normal" line-spacing="22" fill="#525A6E">
                <tspan x="8" y="36">样式一</tspan>
            </text>
        </g>
    </g>
</svg>