<?xml version="1.0" encoding="UTF-8"?>
<svg width="241px" height="68px" viewBox="0 0 241 68" version="1.1" xmlns="http://www.w3.org/2000/svg" xmlns:xlink="http://www.w3.org/1999/xlink">
    <!-- Generator: Sketch 58 (84663) - https://sketch.com -->
    <title>number-input/style2</title>
    <desc>Created with Sketch.</desc>
    <g id="页面-1" stroke="none" stroke-width="1" fill="none" fill-rule="evenodd">
        <g id="number-input/style2">
            <rect id="矩形" fill-opacity="0.01" fill="#F6F6F6" x="0" y="0" width="241" height="68"></rect>
            <g id="编组-7" transform="translate(8.000000, 32.000000)">
                <rect id="矩形备份-3" stroke="#D9D9D9" fill="#FFFFFF" x="0.5" y="0.5" width="224" height="27" rx="2"></rect>
                <g id="编组-2" transform="translate(207.000000, 14.000000)">
                    <rect id="矩形" fill="#D8D8D8" opacity="0.01" x="0" y="0" width="10" height="10"></rect>
                    <path d="M3.07437422,1.34394406 C3.3505166,1.34394406 3.57437422,1.56780169 3.57437422,1.84394406 L3.57437422,5.34394406 L7.07437422,5.34394406 C7.3505166,5.34394406 7.57437422,5.56780169 7.57437422,5.84394406 C7.57437422,6.12008644 7.3505166,6.34394406 7.07437422,6.34394406 L3.07437422,6.34394406 L3.07437422,6.34394406 C2.79823185,6.34394406 2.57437422,6.12008644 2.57437422,5.84394406 L2.57437422,1.84394406 C2.57437422,1.56780169 2.79823185,1.34394406 3.07437422,1.34394406 Z" id="矩形-2" fill="#5A6677" transform="translate(5.074374, 3.843944) rotate(-45.000000) translate(-5.074374, -3.843944) "></path>
                </g>
                <g id="编组-2备份-3" transform="translate(212.000000, 9.000000) scale(1, -1) translate(-212.000000, -9.000000) translate(207.000000, 4.000000)">
                    <rect id="矩形" fill="#D8D8D8" opacity="0.01" x="0" y="0" width="10" height="10"></rect>
                    <path d="M3.07437422,1.34394406 C3.3505166,1.34394406 3.57437422,1.56780169 3.57437422,1.84394406 L3.57437422,5.34394406 L7.07437422,5.34394406 C7.3505166,5.34394406 7.57437422,5.56780169 7.57437422,5.84394406 C7.57437422,6.12008644 7.3505166,6.34394406 7.07437422,6.34394406 L3.07437422,6.34394406 L3.07437422,6.34394406 C2.79823185,6.34394406 2.57437422,6.12008644 2.57437422,5.84394406 L2.57437422,1.84394406 C2.57437422,1.56780169 2.79823185,1.34394406 3.07437422,1.34394406 Z" id="矩形-2" fill="#5A6677" transform="translate(5.074374, 3.843944) rotate(-45.000000) translate(-5.074374, -3.843944) "></path>
                </g>
                <path d="M139.9375,19.6074219 L139.251953,19.6074219 L139.251953,18.2832031 C138.361324,18.2832031 137.62305,18.0996112 137.037109,17.7324219 L137.037109,16.5546875 C137.62305,17.0351587 138.361324,17.2929686 139.251953,17.328125 L139.251953,14.1933594 C138.310542,13.7519509 137.69922,13.3398457 137.417969,12.9570312 C137.136717,12.5742168 136.996094,12.1210964 136.996094,11.5976562 C136.996094,10.9882782 137.206053,10.4580101 137.625977,10.0068359 C138.045901,9.55566181 138.587887,9.2851567 139.251953,9.1953125 L139.251953,8.05273438 L139.9375,8.05273438 L139.9375,9.171875 C140.792973,9.20312516 141.374998,9.3242177 141.683594,9.53515625 L141.683594,10.6835938 C141.234373,10.339842 140.652347,10.154297 139.9375,10.1269531 L139.9375,13.3613281 C140.820317,13.7636739 141.427733,14.1650371 141.759766,14.5654297 C142.091799,14.9658223 142.257812,15.4160131 142.257812,15.9160156 C142.257812,16.544925 142.04883,17.0615214 141.630859,17.4658203 C141.212889,17.8701192 140.648441,18.1249995 139.9375,18.2304688 L139.9375,19.6074219 Z M139.251953,10.1621094 C138.501949,10.3261727 138.126953,10.7617152 138.126953,11.46875 C138.126953,11.8085954 138.20703,12.0898426 138.367188,12.3125 C138.527345,12.5351574 138.822263,12.7656238 139.251953,13.0039062 L139.251953,10.1621094 Z M139.9375,17.28125 C140.730473,17.1093741 141.126953,16.6855503 141.126953,16.0097656 C141.126953,15.4433565 140.730473,14.9492209 139.9375,14.5273438 L139.9375,17.28125 Z M149.347656,18.2832031 L144.144531,18.2832031 L144.144531,17.2929688 L146.177734,17.2929688 L146.177734,10.4023438 L144.091797,11.0058594 L144.091797,9.95117188 L147.320312,9.01367188 L147.320312,17.2929688 L149.347656,17.2929688 L149.347656,18.2832031 Z M156.214844,18.2832031 L150.695312,18.2832031 L150.695312,17.2871094 L153.332031,14.65625 L153.739142,14.2384754 C154.243518,13.7056624 154.59414,13.2697283 154.791016,12.9306641 C155.037111,12.5068338 155.160156,12.0683616 155.160156,11.6152344 C155.160156,11.0996068 155.015626,10.7041029 154.726562,10.4287109 C154.437499,10.1533189 154.019534,10.015625 153.472656,10.015625 C152.664058,10.015625 151.892582,10.3593716 151.158203,11.046875 L151.158203,9.88085938 C151.87305,9.33007537 152.705073,9.0546875 153.654297,9.0546875 C154.470707,9.0546875 155.115232,9.27538842 155.587891,9.71679688 C156.060549,10.1582053 156.296875,10.7519494 156.296875,11.4980469 C156.296875,12.0605497 156.145509,12.612302 155.842773,13.1533203 C155.540038,13.6943386 154.966801,14.3828083 154.123047,15.21875 L152.054688,17.2402344 L152.054688,17.2636719 L156.214844,17.2636719 L156.214844,18.2832031 Z M159.191406,16.8242188 L158.189453,19.9472656 L157.357422,19.9472656 L158.083984,16.8242188 L159.191406,16.8242188 Z M160.533203,13.9238281 C160.533203,12.3222576 160.798825,11.1103557 161.330078,10.2880859 C161.861331,9.4658162 162.630854,9.0546875 163.638672,9.0546875 C165.560556,9.0546875 166.521484,10.6054532 166.521484,13.7070312 C166.521484,15.2382889 166.250979,16.4091756 165.709961,17.2197266 C165.168943,18.0302775 164.410161,18.4355469 163.433594,18.4355469 C162.511714,18.4355469 161.797854,18.0507851 161.291992,17.28125 C160.78613,16.5117149 160.533203,15.3925855 160.533203,13.9238281 Z M161.705078,13.8710938 C161.705078,16.2812621 162.3164,17.4863281 163.539062,17.4863281 C164.742194,17.4863281 165.34375,16.261731 165.34375,13.8125 C165.34375,11.2773311 164.753912,10.0097656 163.574219,10.0097656 C162.328119,10.0097656 161.705078,11.2968621 161.705078,13.8710938 Z M167.570312,13.9238281 C167.570312,12.3222576 167.835935,11.1103557 168.367188,10.2880859 C168.89844,9.4658162 169.667964,9.0546875 170.675781,9.0546875 C172.597666,9.0546875 173.558594,10.6054532 173.558594,13.7070312 C173.558594,15.2382889 173.288089,16.4091756 172.74707,17.2197266 C172.206052,18.0302775 171.447271,18.4355469 170.470703,18.4355469 C169.548824,18.4355469 168.834963,18.0507851 168.329102,17.28125 C167.82324,16.5117149 167.570312,15.3925855 167.570312,13.9238281 Z M168.742188,13.8710938 C168.742188,16.2812621 169.35351,17.4863281 170.576172,17.4863281 C171.779303,17.4863281 172.380859,16.261731 172.380859,13.8125 C172.380859,11.2773311 171.791022,10.0097656 170.611328,10.0097656 C169.365228,10.0097656 168.742188,11.2968621 168.742188,13.8710938 Z M174.607422,13.9238281 C174.607422,12.3222576 174.873044,11.1103557 175.404297,10.2880859 C175.93555,9.4658162 176.705073,9.0546875 177.712891,9.0546875 C179.634775,9.0546875 180.595703,10.6054532 180.595703,13.7070312 C180.595703,15.2382889 180.325198,16.4091756 179.78418,17.2197266 C179.243161,18.0302775 178.48438,18.4355469 177.507812,18.4355469 C176.585933,18.4355469 175.872073,18.0507851 175.366211,17.28125 C174.860349,16.5117149 174.607422,15.3925855 174.607422,13.9238281 Z M175.779297,13.8710938 C175.779297,16.2812621 176.390619,17.4863281 177.613281,17.4863281 C178.816412,17.4863281 179.417969,16.261731 179.417969,13.8125 C179.417969,11.2773311 178.828131,10.0097656 177.648438,10.0097656 C176.402338,10.0097656 175.779297,11.2968621 175.779297,13.8710938 Z M181.808594,17.6796875 C181.808594,17.4687489 181.880859,17.2910163 182.025391,17.1464844 C182.169923,17.0019524 182.349608,16.9296875 182.564453,16.9296875 C182.783204,16.9296875 182.964843,17.002929 183.109375,17.1494141 C183.253907,17.2958992 183.326172,17.4726552 183.326172,17.6796875 C183.326172,17.8828135 183.253907,18.0576165 183.109375,18.2041016 C182.964843,18.3505867 182.781251,18.4238281 182.558594,18.4238281 C182.343749,18.4238281 182.16504,18.3505867 182.022461,18.2041016 C181.879882,18.0576165 181.808594,17.8828135 181.808594,17.6796875 Z M184.533203,13.9238281 C184.533203,12.3222576 184.798825,11.1103557 185.330078,10.2880859 C185.861331,9.4658162 186.630854,9.0546875 187.638672,9.0546875 C189.560556,9.0546875 190.521484,10.6054532 190.521484,13.7070312 C190.521484,15.2382889 190.250979,16.4091756 189.709961,17.2197266 C189.168943,18.0302775 188.410161,18.4355469 187.433594,18.4355469 C186.511714,18.4355469 185.797854,18.0507851 185.291992,17.28125 C184.78613,16.5117149 184.533203,15.3925855 184.533203,13.9238281 Z M185.705078,13.8710938 C185.705078,16.2812621 186.3164,17.4863281 187.539062,17.4863281 C188.742194,17.4863281 189.34375,16.261731 189.34375,13.8125 C189.34375,11.2773311 188.753912,10.0097656 187.574219,10.0097656 C186.328119,10.0097656 185.705078,11.2968621 185.705078,13.8710938 Z M194.675781,9.0546875 C196.597666,9.0546875 197.558594,10.6054532 197.558594,13.7070312 C197.558594,15.2382889 197.288089,16.4091756 196.74707,17.2197266 C196.206052,18.0302775 195.447271,18.4355469 194.470703,18.4355469 C193.548824,18.4355469 192.834963,18.0507851 192.329102,17.28125 C191.82324,16.5117149 191.570312,15.3925855 191.570312,13.9238281 C191.570312,12.3222576 191.835935,11.1103557 192.367188,10.2880859 C192.89844,9.4658162 193.667964,9.0546875 194.675781,9.0546875 Z M194.611328,10.0097656 C193.365228,10.0097656 192.742188,11.2968621 192.742188,13.8710938 C192.742188,16.2812621 193.35351,17.4863281 194.576172,17.4863281 C195.779303,17.4863281 196.380859,16.261731 196.380859,13.8125 C196.380859,11.2773311 195.791022,10.0097656 194.611328,10.0097656 Z" id="$12,000.00" fill="#333333" fill-rule="nonzero"></path>
            </g>
            <text id="样式二" font-family="MicrosoftYaHei, Microsoft YaHei" font-size="12" font-weight="normal" line-spacing="22" fill="#525A6E">
                <tspan x="8" y="19">样式二</tspan>
            </text>
        </g>
    </g>
</svg>