<?xml version="1.0" encoding="UTF-8"?>
<svg width="494px" height="155px" viewBox="0 0 494 155" version="1.1" xmlns="http://www.w3.org/2000/svg" xmlns:xlink="http://www.w3.org/1999/xlink">
    <!-- Generator: Sketch 58 (84663) - https://sketch.com -->
    <title>warning-hints/style1</title>
    <desc>Created with Sketch.</desc>
    <g id="页面-1" stroke="none" stroke-width="1" fill="none" fill-rule="evenodd">
        <g id="warning-hints/style1">
            <rect id="矩形" fill-opacity="0.01" fill="#FAFAFA" x="0" y="0" width="494" height="155"></rect>
            <rect id="矩形" stroke="#4F7DE7" fill="#E6F1FF" x="52.5" y="15.5" width="409" height="35" rx="2"></rect>
            <g id="编组-13" transform="translate(440.000000, 26.000000)">
                <rect id="矩形" fill="#D8D8D8" opacity="0.01" x="0" y="0" width="14" height="14"></rect>
                <path d="M7.70710678,7 L11.9497475,11.2426407 C12.1450096,11.4379028 12.1450096,11.7544853 11.9497475,11.9497475 C11.7544853,12.1450096 11.4379028,12.1450096 11.2426407,11.9497475 L7,7.70710678 L2.75735931,11.9497475 C2.56209717,12.1450096 2.24551468,12.1450096 2.05025253,11.9497475 C1.85499039,11.7544853 1.85499039,11.4379028 2.05025253,11.2426407 L6.29289322,7 L2.05025253,2.75735931 C1.85499039,2.56209717 1.85499039,2.24551468 2.05025253,2.05025253 C2.24551468,1.85499039 2.56209717,1.85499039 2.75735931,2.05025253 L7,6.29289322 L11.2426407,2.05025253 C11.4379028,1.85499039 11.7544853,1.85499039 11.9497475,2.05025253 C12.1450096,2.24551468 12.1450096,2.56209717 11.9497475,2.75735931 L7.70710678,7 Z" id="路径" fill="#AAADBA"></path>
            </g>
            <path d="M92.8164062,28.5488281 L98.6640625,28.5488281 L98.6640625,33.1777344 L97.8203125,33.1777344 L97.8203125,32.8378906 L93.6601562,32.8378906 L93.6601562,33.1777344 L92.8164062,33.1777344 L92.8164062,28.5488281 Z M90.9882812,39.0488281 C92.0898493,38.1269485 92.7070306,36.8066492 92.8398438,35.0878906 L93.71875,35.0878906 C93.6796873,35.6347684 93.59961,36.146482 93.4785156,36.6230469 C93.9746119,37.3808632 94.6210898,37.8925768 95.4179688,38.1582031 L95.4179688,34.6308594 L91.796875,34.6308594 L91.796875,33.8574219 L99.6953125,33.8574219 L99.6953125,34.6308594 L96.296875,34.6308594 L96.296875,35.9433594 L99.2382812,35.9433594 L99.2382812,36.6933594 L96.296875,36.6933594 L96.296875,38.3457031 C96.8281277,38.4082034 98.0078034,38.4042972 99.8359375,38.3339844 L99.5664062,39.2011719 L99.5664062,39.2011719 C98.8691371,39.2187501 98.1521007,39.2165529 97.4152847,39.1945802 L96.671875,39.1660156 C95.0937421,39.1464843 93.9335975,38.5918023 93.1914062,37.5019531 C92.8632796,38.3183635 92.3867219,39.0175752 91.7617188,39.5996094 C91.5273426,39.4042959 91.2695327,39.220704 90.9882812,39.0488281 Z M88.1523438,34.2441406 C88.6523438,34.0292958 89.1562475,33.8027356 89.6640625,33.5644531 L89.6640625,31.0683594 L88.2460938,31.0683594 L88.2460938,30.2714844 L89.6640625,30.2714844 L89.6640625,28.0917969 L90.5546875,28.0917969 L90.5546875,30.2714844 L92.0546875,30.2714844 L92.0546875,31.0683594 L90.5546875,31.0683594 L90.5546875,33.1308594 C91.0039085,32.908202 91.4531228,32.6738294 91.9023438,32.4277344 C91.9257814,32.7324234 91.9570311,33.0449203 91.9960938,33.3652344 L90.5546875,34.0859375 L90.5546875,34.0859375 L90.5546875,38.1699219 C90.5546875,38.9277382 90.2656279,39.3378903 89.6875,39.4003906 C89.281248,39.4394533 88.8242213,39.451172 88.3164062,39.4355469 C88.269531,39.1074202 88.2187503,38.7832047 88.1640625,38.4628906 C88.5937521,38.5097659 88.960936,38.5332031 89.265625,38.5332031 C89.5312513,38.5332031 89.6640625,38.3886733 89.6640625,38.0996094 L89.6640625,34.5429688 C89.1953102,34.7851575 88.7304711,35.0292956 88.2695312,35.2753906 L88.1523438,34.2441406 Z M93.6601562,32.0878906 L97.8203125,32.0878906 L97.8203125,31.0566406 L93.6601562,31.0566406 L93.6601562,32.0878906 Z M97.8203125,29.2988281 L93.6601562,29.2988281 L93.6601562,30.3183594 L97.8203125,30.3183594 L97.8203125,29.2988281 Z M100.1875,32.2402344 L111.8125,32.2402344 L111.8125,33.1191406 L106.785156,33.1191406 L106.785156,37.8535156 C106.785156,38.830083 106.273443,39.3222656 105.25,39.3300781 L103.421875,39.3183594 L103.421875,39.3183594 L103.342773,38.8085939 C103.313477,38.6289068 103.28125,38.4394541 103.246094,38.2402344 C103.863284,38.3027347 104.44531,38.3339844 104.992188,38.3339844 C105.52344,38.3339844 105.789062,38.0722682 105.789062,37.5488281 L105.789062,33.1191406 L100.1875,33.1191406 L100.1875,32.2402344 Z M101.265625,28.7832031 L110.769531,28.7832031 L110.769531,29.6621094 L101.265625,29.6621094 L101.265625,28.7832031 Z M108.273438,34.5371094 L109.058594,34.0097656 C110.019536,35.189459 110.949214,36.4199155 111.847656,37.7011719 L110.992188,38.2636719 C110.023433,36.8496023 109.117192,35.6074272 108.273438,34.5371094 Z M102.777344,33.9863281 L103.632812,34.4667969 C102.812496,35.888679 101.937505,37.240228 101.007812,38.5214844 C100.765624,38.341796 100.507814,38.1582041 100.234375,37.9707031 C101.109379,36.837885 101.957027,35.5097732 102.777344,33.9863281 Z M116.3125,35.3105469 L122.980469,35.3105469 L122.980469,39.5996094 L122.078125,39.5996094 L122.078125,38.8964844 L117.214844,38.8964844 L117.214844,39.5996094 L116.3125,39.5996094 L116.3125,35.3105469 Z M112.152344,33.6816406 C113.300787,31.9785071 114.16406,30.0957134 114.742188,28.0332031 L115.65625,28.2910156 C115.316405,29.3418021 114.945315,30.3105424 114.542969,31.1972656 L114.542969,39.5996094 L113.675781,39.5996094 L113.675781,32.9140625 C113.316404,33.5429719 112.937502,34.119138 112.539062,34.6425781 C112.414062,34.3144515 112.285157,33.9941422 112.152344,33.6816406 Z M122.078125,36.1074219 L117.214844,36.1074219 L117.214844,38.0996094 L122.078125,38.0996094 L122.078125,36.1074219 Z M115.539062,29.6152344 L119.365234,29.6152344 C119.130858,29.2128886 118.88672,28.8144551 118.632812,28.4199219 L119.417969,28.0097656 C119.69922,28.4316427 119.976561,28.8769508 120.25,29.3457031 L119.740234,29.6152344 L123.789062,29.6152344 L123.789062,30.4355469 L115.539062,30.4355469 L115.539062,29.6152344 Z M116.183594,31.5253906 L123.097656,31.5253906 L123.097656,32.3222656 L116.183594,32.3222656 L116.183594,31.5253906 Z M116.183594,33.4121094 L123.097656,33.4121094 L123.097656,34.2089844 L116.183594,34.2089844 L116.183594,33.4121094 Z M125.710938,29.1699219 L128.576172,29.1699219 C128.744141,28.751951 128.882812,28.3496113 128.992188,27.9628906 L129.90625,28.2089844 C129.777343,28.5410173 129.642579,28.8613266 129.501953,29.1699219 L134.171875,29.1699219 L134.171875,35.5683594 L133.269531,35.5683594 L133.269531,35.2050781 L126.613281,35.2050781 L126.613281,35.5683594 L125.710938,35.5683594 L125.710938,29.1699219 Z M126.941406,36.0136719 L127.832031,36.0136719 L127.832031,37.7363281 C127.832031,38.2207055 128.089841,38.4628906 128.605469,38.4628906 L131.207031,38.4628906 C131.832034,38.4628906 132.195312,38.248049 132.296875,37.8183594 C132.375,37.537108 132.453125,37.111331 132.53125,36.5410156 C132.820314,36.6582037 133.124998,36.7714838 133.445312,36.8808594 C133.351562,37.4199246 133.257813,37.853514 133.164062,38.1816406 C132.984374,38.9238318 132.402349,39.2949219 131.417969,39.2949219 L128.464844,39.2949219 C127.449214,39.2949219 126.941406,38.8105517 126.941406,37.8417969 L126.941406,36.0136719 Z M126.613281,32.6738281 L133.269531,32.6738281 L133.269531,31.6894531 L126.613281,31.6894531 L126.613281,32.6738281 Z M126.613281,34.4082031 L133.269531,34.4082031 L133.269531,33.4238281 L126.613281,33.4238281 L126.613281,34.4082031 Z M133.269531,29.9667969 L126.613281,29.9667969 L126.613281,30.9394531 L133.269531,30.9394531 L133.269531,29.9667969 Z M125.195312,35.8964844 L126.050781,36.1894531 C125.70703,37.1269578 125.347658,37.982418 124.972656,38.7558594 L124.56836,38.5888672 C124.423829,38.5322267 124.269532,38.4746097 124.105469,38.4160156 C124.488283,37.7363247 124.851561,36.8964844 125.195312,35.8964844 Z M133.597656,36.2714844 L134.277344,35.7441406 C134.832034,36.3457061 135.398435,37.0058558 135.976562,37.7246094 L135.226562,38.2988281 C134.69531,37.5800745 134.152347,36.9043 133.597656,36.2714844 Z M128.992188,35.8847656 L129.625,35.3457031 C130.101565,35.7832053 130.624997,36.3066376 131.195312,36.9160156 L130.480469,37.5253906 L130.062255,37.0405276 C129.659423,36.5805672 129.302736,36.1953141 128.992188,35.8847656 Z M136.363281,30.0488281 L141.988281,30.0488281 L141.622395,29.3665352 C141.397569,28.9568133 141.210938,28.6373709 141.0625,28.4082031 L141.964844,27.9863281 L142.220052,28.392578 C142.414496,28.7102855 142.657551,29.1217423 142.949219,29.6269531 L142.105469,30.0488281 L147.613281,30.0488281 L147.613281,30.9160156 L145.451172,30.9160156 C145.033201,33.1464955 144.134773,34.9394463 142.755859,36.2949219 C143.794927,37.0527382 145.445301,37.7324189 147.707031,38.3339844 C147.347654,38.7402364 147.07422,39.0800768 146.886719,39.3535156 C144.683583,38.5917931 143.056646,37.794926 142.005859,36.9628906 C140.951167,37.7832072 139.265637,38.6113239 136.949219,39.4472656 L136.621094,39.013672 C136.503907,38.8613286 136.378907,38.7011727 136.246094,38.5332031 C138.48048,37.8613248 140.162104,37.1132854 141.291016,36.2890625 C139.865227,34.7656174 138.958986,32.9746197 138.572266,30.9160156 L136.363281,30.9160156 L136.363281,30.0488281 Z M144.449219,30.9160156 L139.509766,30.9160156 C139.86133,32.8379002 140.701165,34.425775 142.029297,35.6796875 C143.298834,34.4999941 144.105467,32.9121194 144.449219,30.9160156 Z M159.847656,38.3691406 C159.58203,38.6816422 159.35547,38.974608 159.167969,39.2480469 C157.105458,38.6308563 155.523443,37.8750045 154.421875,36.9804688 L154.421875,39.6230469 L153.578125,39.6230469 L153.578125,36.9980469 C152.394525,37.8339886 150.820322,38.5878873 148.855469,39.2597656 C148.675781,39.033202 148.44922,38.7675796 148.175781,38.4628906 C150.191416,37.9589819 151.787103,37.3378943 152.962891,36.5996094 L148.445312,36.5996094 L148.445312,35.8144531 L153.578125,35.8144531 L153.578125,34.8535156 L154.421875,34.8535156 L154.421875,35.8144531 L159.625,35.8144531 L159.625,36.5996094 L155.060547,36.5996094 C156.294928,37.4316448 157.890615,38.0214826 159.847656,38.3691406 Z M148.785156,29.1230469 L153.695312,29.1230469 C153.546874,28.8535143 153.375001,28.5761733 153.179688,28.2910156 L154.011719,27.9160156 C154.265626,28.3144551 154.505858,28.7167948 154.732422,29.1230469 L159.203125,29.1230469 L159.203125,30.8925781 L158.3125,30.8925781 L158.3125,29.8964844 L149.675781,29.8964844 L149.675781,30.8925781 L148.785156,30.8925781 L148.785156,29.1230469 Z" id="提示信息文案" fill="#5A6677" fill-rule="nonzero"></path>
            <path d="M152.710938,30.2011719 L153.660156,30.4707031 C153.449218,30.7519545 153.224611,31.0332017 152.986328,31.3144531 L159.53125,31.3144531 L159.53125,32.0878906 L157.011719,32.0878906 C156.640623,32.7480502 156.138675,33.2832011 155.505859,33.6933594 L156.813673,34.0392971 C157.451172,34.209453 158.06406,34.3753898 158.652344,34.5371094 L158.277344,35.3222656 C157.039056,34.9316387 155.779303,34.5585955 154.498047,34.203125 C153.310541,34.6718773 151.519543,35.0566391 149.125,35.3574219 C149.03125,35.1074206 148.917969,34.8496107 148.785156,34.5839844 L149.62461,34.4824678 C151.10945,34.2920322 152.29642,34.0778257 153.185547,33.8398438 C152.248042,33.5898425 151.300786,33.3457043 150.34375,33.1074219 C150.664064,32.7636702 150.96875,32.4238298 151.257812,32.0878906 L148.46875,32.0878906 L148.46875,31.3144531 L151.890625,31.3144531 C152.187501,30.9394512 152.460936,30.5683612 152.710938,30.2011719 Z M156.033203,32.0878906 L152.300781,32.0878906 C152.101562,32.3027354 151.894532,32.5175771 151.679688,32.7324219 C152.156252,32.84961 152.623048,32.9653323 153.080078,33.0795899 L153.080078,33.0795899 L154.421875,33.4179688 C155.109378,33.1132797 155.646482,32.6699248 156.033203,32.0878906 L156.033203,32.0878906 Z" id="形状结合" fill="#5A6677" fill-rule="nonzero"></path>
            <g id="tip-blue" transform="translate(64.000000, 25.000000)">
                <rect id="矩形" fill="#FFFFFF" opacity="0.01" x="0" y="0" width="16" height="16"></rect>
                <g id="编组-9" transform="translate(0.549038, 1.000000)" stroke="#4F7DE7">
                    <path d="M7.45096189,4.5 C5.51796527,4.5 3.95096189,6.06700338 3.95096189,8 L3.95096189,11 C3.95096189,11.2761424 4.17481952,11.5 4.45096189,11.5 L10.4509619,11.5 C10.7271043,11.5 10.9509619,11.2761424 10.9509619,11 L10.9509619,8 C10.9509619,6.06700338 9.38395852,4.5 7.45096189,4.5 Z" id="矩形"></path>
                    <rect id="矩形" fill="#D8D8D8" x="7.45096189" y="8.5" width="1" height="3" rx="0.5"></rect>
                    <rect id="矩形" fill="#D8D8D8" x="6.45096189" y="8.5" width="2" height="1" rx="0.5"></rect>
                    <path d="M3.95096189,2.5 L4.45096189,3.3660254 L3.95096189,2.5 Z" id="矩形" fill="#D8D8D8"></path>
                    <path d="" id="矩形" fill="#D8D8D8"></path>
                    <path d="" id="矩形" fill="#D8D8D8"></path>
                    <path d="M13.5,5.1830127 L14.3660254,4.6830127 L13.5,5.1830127 Z" id="矩形" fill="#D8D8D8"></path>
                    <rect id="矩形" fill="#D8D8D8" x="7.45096189" y="0.5" width="1" height="2" rx="0.5"></rect>
                    <rect id="矩形" fill="#D8D8D8" x="3.95096189" y="13.5" width="7" height="1" rx="0.5"></rect>
                </g>
            </g>
            <rect id="矩形" stroke="#F8B303" fill="#FFF8E5" x="52.5" y="59.5" width="409" height="35" rx="2"></rect>
            <g id="编组-13" transform="translate(440.000000, 70.000000)">
                <rect id="矩形" fill="#D8D8D8" opacity="0.01" x="0" y="0" width="14" height="14"></rect>
                <path d="M7.70710678,7 L11.9497475,11.2426407 C12.1450096,11.4379028 12.1450096,11.7544853 11.9497475,11.9497475 C11.7544853,12.1450096 11.4379028,12.1450096 11.2426407,11.9497475 L7,7.70710678 L2.75735931,11.9497475 C2.56209717,12.1450096 2.24551468,12.1450096 2.05025253,11.9497475 C1.85499039,11.7544853 1.85499039,11.4379028 2.05025253,11.2426407 L6.29289322,7 L2.05025253,2.75735931 C1.85499039,2.56209717 1.85499039,2.24551468 2.05025253,2.05025253 C2.24551468,1.85499039 2.56209717,1.85499039 2.75735931,2.05025253 L7,6.29289322 L11.2426407,2.05025253 C11.4379028,1.85499039 11.7544853,1.85499039 11.9497475,2.05025253 C12.1450096,2.24551468 12.1450096,2.56209717 11.9497475,2.75735931 L7.70710678,7 Z" id="路径" fill="#AAADBA"></path>
            </g>
            <path d="M92.8164062,72.5488281 L98.6640625,72.5488281 L98.6640625,77.1777344 L97.8203125,77.1777344 L97.8203125,76.8378906 L93.6601562,76.8378906 L93.6601562,77.1777344 L92.8164062,77.1777344 L92.8164062,72.5488281 Z M90.9882812,83.0488281 C92.0898493,82.1269485 92.7070306,80.8066492 92.8398438,79.0878906 L93.71875,79.0878906 C93.6796873,79.6347684 93.59961,80.146482 93.4785156,80.6230469 C93.9746119,81.3808632 94.6210898,81.8925768 95.4179688,82.1582031 L95.4179688,78.6308594 L91.796875,78.6308594 L91.796875,77.8574219 L99.6953125,77.8574219 L99.6953125,78.6308594 L96.296875,78.6308594 L96.296875,79.9433594 L99.2382812,79.9433594 L99.2382812,80.6933594 L96.296875,80.6933594 L96.296875,82.3457031 C96.8281277,82.4082034 98.0078034,82.4042972 99.8359375,82.3339844 L99.5664062,83.2011719 L99.5664062,83.2011719 C98.8691371,83.2187501 98.1521007,83.2165529 97.4152847,83.1945802 L96.671875,83.1660156 C95.0937421,83.1464843 93.9335975,82.5918023 93.1914062,81.5019531 C92.8632796,82.3183635 92.3867219,83.0175752 91.7617188,83.5996094 C91.5273426,83.4042959 91.2695327,83.220704 90.9882812,83.0488281 Z M88.1523438,78.2441406 C88.6523438,78.0292958 89.1562475,77.8027356 89.6640625,77.5644531 L89.6640625,75.0683594 L88.2460938,75.0683594 L88.2460938,74.2714844 L89.6640625,74.2714844 L89.6640625,72.0917969 L90.5546875,72.0917969 L90.5546875,74.2714844 L92.0546875,74.2714844 L92.0546875,75.0683594 L90.5546875,75.0683594 L90.5546875,77.1308594 C91.0039085,76.908202 91.4531228,76.6738294 91.9023438,76.4277344 C91.9257814,76.7324234 91.9570311,77.0449203 91.9960938,77.3652344 L90.5546875,78.0859375 L90.5546875,78.0859375 L90.5546875,82.1699219 C90.5546875,82.9277382 90.2656279,83.3378903 89.6875,83.4003906 C89.281248,83.4394533 88.8242213,83.451172 88.3164062,83.4355469 C88.269531,83.1074202 88.2187503,82.7832047 88.1640625,82.4628906 C88.5937521,82.5097659 88.960936,82.5332031 89.265625,82.5332031 C89.5312513,82.5332031 89.6640625,82.3886733 89.6640625,82.0996094 L89.6640625,78.5429688 C89.1953102,78.7851575 88.7304711,79.0292956 88.2695312,79.2753906 L88.1523438,78.2441406 Z M93.6601562,76.0878906 L97.8203125,76.0878906 L97.8203125,75.0566406 L93.6601562,75.0566406 L93.6601562,76.0878906 Z M97.8203125,73.2988281 L93.6601562,73.2988281 L93.6601562,74.3183594 L97.8203125,74.3183594 L97.8203125,73.2988281 Z M100.1875,76.2402344 L111.8125,76.2402344 L111.8125,77.1191406 L106.785156,77.1191406 L106.785156,81.8535156 C106.785156,82.830083 106.273443,83.3222656 105.25,83.3300781 L103.421875,83.3183594 L103.421875,83.3183594 L103.342773,82.8085939 C103.313477,82.6289068 103.28125,82.4394541 103.246094,82.2402344 C103.863284,82.3027347 104.44531,82.3339844 104.992188,82.3339844 C105.52344,82.3339844 105.789062,82.0722682 105.789062,81.5488281 L105.789062,77.1191406 L100.1875,77.1191406 L100.1875,76.2402344 Z M101.265625,72.7832031 L110.769531,72.7832031 L110.769531,73.6621094 L101.265625,73.6621094 L101.265625,72.7832031 Z M108.273438,78.5371094 L109.058594,78.0097656 C110.019536,79.189459 110.949214,80.4199155 111.847656,81.7011719 L110.992188,82.2636719 C110.023433,80.8496023 109.117192,79.6074272 108.273438,78.5371094 Z M102.777344,77.9863281 L103.632812,78.4667969 C102.812496,79.888679 101.937505,81.240228 101.007812,82.5214844 C100.765624,82.341796 100.507814,82.1582041 100.234375,81.9707031 C101.109379,80.837885 101.957027,79.5097732 102.777344,77.9863281 Z M116.3125,79.3105469 L122.980469,79.3105469 L122.980469,83.5996094 L122.078125,83.5996094 L122.078125,82.8964844 L117.214844,82.8964844 L117.214844,83.5996094 L116.3125,83.5996094 L116.3125,79.3105469 Z M112.152344,77.6816406 C113.300787,75.9785071 114.16406,74.0957134 114.742188,72.0332031 L115.65625,72.2910156 C115.316405,73.3418021 114.945315,74.3105424 114.542969,75.1972656 L114.542969,83.5996094 L113.675781,83.5996094 L113.675781,76.9140625 C113.316404,77.5429719 112.937502,78.119138 112.539062,78.6425781 C112.414062,78.3144515 112.285157,77.9941422 112.152344,77.6816406 Z M122.078125,80.1074219 L117.214844,80.1074219 L117.214844,82.0996094 L122.078125,82.0996094 L122.078125,80.1074219 Z M115.539062,73.6152344 L119.365234,73.6152344 C119.130858,73.2128886 118.88672,72.8144551 118.632812,72.4199219 L119.417969,72.0097656 C119.69922,72.4316427 119.976561,72.8769508 120.25,73.3457031 L119.740234,73.6152344 L123.789062,73.6152344 L123.789062,74.4355469 L115.539062,74.4355469 L115.539062,73.6152344 Z M116.183594,75.5253906 L123.097656,75.5253906 L123.097656,76.3222656 L116.183594,76.3222656 L116.183594,75.5253906 Z M116.183594,77.4121094 L123.097656,77.4121094 L123.097656,78.2089844 L116.183594,78.2089844 L116.183594,77.4121094 Z M125.710938,73.1699219 L128.576172,73.1699219 C128.744141,72.751951 128.882812,72.3496113 128.992188,71.9628906 L129.90625,72.2089844 C129.777343,72.5410173 129.642579,72.8613266 129.501953,73.1699219 L134.171875,73.1699219 L134.171875,79.5683594 L133.269531,79.5683594 L133.269531,79.2050781 L126.613281,79.2050781 L126.613281,79.5683594 L125.710938,79.5683594 L125.710938,73.1699219 Z M126.941406,80.0136719 L127.832031,80.0136719 L127.832031,81.7363281 C127.832031,82.2207055 128.089841,82.4628906 128.605469,82.4628906 L131.207031,82.4628906 C131.832034,82.4628906 132.195312,82.248049 132.296875,81.8183594 C132.375,81.537108 132.453125,81.111331 132.53125,80.5410156 C132.820314,80.6582037 133.124998,80.7714838 133.445312,80.8808594 C133.351562,81.4199246 133.257813,81.853514 133.164062,82.1816406 C132.984374,82.9238318 132.402349,83.2949219 131.417969,83.2949219 L128.464844,83.2949219 C127.449214,83.2949219 126.941406,82.8105517 126.941406,81.8417969 L126.941406,80.0136719 Z M126.613281,76.6738281 L133.269531,76.6738281 L133.269531,75.6894531 L126.613281,75.6894531 L126.613281,76.6738281 Z M126.613281,78.4082031 L133.269531,78.4082031 L133.269531,77.4238281 L126.613281,77.4238281 L126.613281,78.4082031 Z M133.269531,73.9667969 L126.613281,73.9667969 L126.613281,74.9394531 L133.269531,74.9394531 L133.269531,73.9667969 Z M125.195312,79.8964844 L126.050781,80.1894531 C125.70703,81.1269578 125.347658,81.982418 124.972656,82.7558594 L124.56836,82.5888672 C124.423829,82.5322267 124.269532,82.4746097 124.105469,82.4160156 C124.488283,81.7363247 124.851561,80.8964844 125.195312,79.8964844 Z M133.597656,80.2714844 L134.277344,79.7441406 C134.832034,80.3457061 135.398435,81.0058558 135.976562,81.7246094 L135.226562,82.2988281 C134.69531,81.5800745 134.152347,80.9043 133.597656,80.2714844 Z M128.992188,79.8847656 L129.625,79.3457031 C130.101565,79.7832053 130.624997,80.3066376 131.195312,80.9160156 L130.480469,81.5253906 L130.062255,81.0405276 C129.659423,80.5805672 129.302736,80.1953141 128.992188,79.8847656 Z M136.363281,74.0488281 L141.988281,74.0488281 L141.622395,73.3665352 C141.397569,72.9568133 141.210938,72.6373709 141.0625,72.4082031 L141.964844,71.9863281 L142.220052,72.392578 C142.414496,72.7102855 142.657551,73.1217423 142.949219,73.6269531 L142.105469,74.0488281 L147.613281,74.0488281 L147.613281,74.9160156 L145.451172,74.9160156 C145.033201,77.1464955 144.134773,78.9394463 142.755859,80.2949219 C143.794927,81.0527382 145.445301,81.7324189 147.707031,82.3339844 C147.347654,82.7402364 147.07422,83.0800768 146.886719,83.3535156 C144.683583,82.5917931 143.056646,81.794926 142.005859,80.9628906 C140.951167,81.7832072 139.265637,82.6113239 136.949219,83.4472656 L136.621094,83.013672 C136.503907,82.8613286 136.378907,82.7011727 136.246094,82.5332031 C138.48048,81.8613248 140.162104,81.1132854 141.291016,80.2890625 C139.865227,78.7656174 138.958986,76.9746197 138.572266,74.9160156 L136.363281,74.9160156 L136.363281,74.0488281 Z M144.449219,74.9160156 L139.509766,74.9160156 C139.86133,76.8379002 140.701165,78.425775 142.029297,79.6796875 C143.298834,78.4999941 144.105467,76.9121194 144.449219,74.9160156 Z M159.847656,82.3691406 C159.58203,82.6816422 159.35547,82.974608 159.167969,83.2480469 C157.105458,82.6308563 155.523443,81.8750045 154.421875,80.9804688 L154.421875,83.6230469 L153.578125,83.6230469 L153.578125,80.9980469 C152.394525,81.8339886 150.820322,82.5878873 148.855469,83.2597656 C148.675781,83.033202 148.44922,82.7675796 148.175781,82.4628906 C150.191416,81.9589819 151.787103,81.3378943 152.962891,80.5996094 L148.445312,80.5996094 L148.445312,79.8144531 L153.578125,79.8144531 L153.578125,78.8535156 L154.421875,78.8535156 L154.421875,79.8144531 L159.625,79.8144531 L159.625,80.5996094 L155.060547,80.5996094 C156.294928,81.4316448 157.890615,82.0214826 159.847656,82.3691406 Z M148.785156,73.1230469 L153.695312,73.1230469 C153.546874,72.8535143 153.375001,72.5761733 153.179688,72.2910156 L154.011719,71.9160156 C154.265626,72.3144551 154.505858,72.7167948 154.732422,73.1230469 L159.203125,73.1230469 L159.203125,74.8925781 L158.3125,74.8925781 L158.3125,73.8964844 L149.675781,73.8964844 L149.675781,74.8925781 L148.785156,74.8925781 L148.785156,73.1230469 Z" id="提示信息文案" fill="#5A6677" fill-rule="nonzero"></path>
            <path d="M152.710938,74.2011719 L153.660156,74.4707031 C153.449218,74.7519545 153.224611,75.0332017 152.986328,75.3144531 L159.53125,75.3144531 L159.53125,76.0878906 L157.011719,76.0878906 C156.640623,76.7480502 156.138675,77.2832011 155.505859,77.6933594 L156.813673,78.0392971 C157.451172,78.209453 158.06406,78.3753898 158.652344,78.5371094 L158.277344,79.3222656 C157.039056,78.9316387 155.779303,78.5585955 154.498047,78.203125 C153.310541,78.6718773 151.519543,79.0566391 149.125,79.3574219 C149.03125,79.1074206 148.917969,78.8496107 148.785156,78.5839844 L149.62461,78.4824678 C151.10945,78.2920322 152.29642,78.0778257 153.185547,77.8398438 C152.248042,77.5898425 151.300786,77.3457043 150.34375,77.1074219 C150.664064,76.7636702 150.96875,76.4238298 151.257812,76.0878906 L148.46875,76.0878906 L148.46875,75.3144531 L151.890625,75.3144531 C152.187501,74.9394513 152.460936,74.5683612 152.710938,74.2011719 Z M156.033203,76.0878906 L152.300781,76.0878906 C152.101562,76.3027354 151.894532,76.5175771 151.679688,76.7324219 C152.156252,76.84961 152.623048,76.9653323 153.080078,77.0795899 L153.080078,77.0795899 L154.421875,77.4179688 C155.109378,77.1132797 155.646482,76.6699248 156.033203,76.0878906 L156.033203,76.0878906 Z" id="形状结合" fill="#5A6677" fill-rule="nonzero"></path>
            <g id="tip-yellow" transform="translate(64.000000, 69.000000)">
                <rect id="矩形" fill="#FFFFFF" opacity="0.01" x="0" y="0" width="16" height="16"></rect>
                <g id="编组-9" transform="translate(0.549038, 1.000000)" stroke="#F8B303">
                    <path d="M7.45096189,4.5 C5.51796527,4.5 3.95096189,6.06700338 3.95096189,8 L3.95096189,11 C3.95096189,11.2761424 4.17481952,11.5 4.45096189,11.5 L10.4509619,11.5 C10.7271043,11.5 10.9509619,11.2761424 10.9509619,11 L10.9509619,8 C10.9509619,6.06700338 9.38395852,4.5 7.45096189,4.5 Z" id="矩形"></path>
                    <rect id="矩形" fill="#D8D8D8" x="7.45096189" y="8.5" width="1" height="3" rx="0.5"></rect>
                    <rect id="矩形" fill="#D8D8D8" x="6.45096189" y="8.5" width="2" height="1" rx="0.5"></rect>
                    <path d="M3.95096189,2.5 L4.45096189,3.3660254 L3.95096189,2.5 Z" id="矩形" fill="#D8D8D8"></path>
                    <path d="" id="矩形" fill="#D8D8D8"></path>
                    <path d="" id="矩形" fill="#D8D8D8"></path>
                    <path d="M13.5,5.1830127 L14.3660254,4.6830127 L13.5,5.1830127 Z" id="矩形" fill="#D8D8D8"></path>
                    <rect id="矩形" fill="#D8D8D8" x="7.45096189" y="0.5" width="1" height="2" rx="0.5"></rect>
                    <rect id="矩形" fill="#D8D8D8" x="3.95096189" y="13.5" width="7" height="1" rx="0.5"></rect>
                </g>
            </g>
            <rect id="矩形" stroke="#FD6868" fill="#FFE4E4" x="52.5" y="103.5" width="409" height="35" rx="2"></rect>
            <g id="编组-13" transform="translate(440.000000, 114.000000)">
                <rect id="矩形" fill="#D8D8D8" opacity="0.01" x="0" y="0" width="14" height="14"></rect>
                <path d="M7.70710678,7 L11.9497475,11.2426407 C12.1450096,11.4379028 12.1450096,11.7544853 11.9497475,11.9497475 C11.7544853,12.1450096 11.4379028,12.1450096 11.2426407,11.9497475 L7,7.70710678 L2.75735931,11.9497475 C2.56209717,12.1450096 2.24551468,12.1450096 2.05025253,11.9497475 C1.85499039,11.7544853 1.85499039,11.4379028 2.05025253,11.2426407 L6.29289322,7 L2.05025253,2.75735931 C1.85499039,2.56209717 1.85499039,2.24551468 2.05025253,2.05025253 C2.24551468,1.85499039 2.56209717,1.85499039 2.75735931,2.05025253 L7,6.29289322 L11.2426407,2.05025253 C11.4379028,1.85499039 11.7544853,1.85499039 11.9497475,2.05025253 C12.1450096,2.24551468 12.1450096,2.56209717 11.9497475,2.75735931 L7.70710678,7 Z" id="路径" fill="#AAADBA"></path>
            </g>
            <path d="M92.8164062,116.548828 L98.6640625,116.548828 L98.6640625,121.177734 L97.8203125,121.177734 L97.8203125,120.837891 L93.6601562,120.837891 L93.6601562,121.177734 L92.8164062,121.177734 L92.8164062,116.548828 Z M90.9882812,127.048828 C92.0898493,126.126949 92.7070306,124.806649 92.8398438,123.087891 L93.71875,123.087891 C93.6796873,123.634768 93.59961,124.146482 93.4785156,124.623047 C93.9746119,125.380863 94.6210898,125.892577 95.4179688,126.158203 L95.4179688,122.630859 L91.796875,122.630859 L91.796875,121.857422 L99.6953125,121.857422 L99.6953125,122.630859 L96.296875,122.630859 L96.296875,123.943359 L99.2382812,123.943359 L99.2382812,124.693359 L96.296875,124.693359 L96.296875,126.345703 C96.8281277,126.408203 98.0078034,126.404297 99.8359375,126.333984 L99.5664062,127.201172 L99.5664062,127.201172 C98.8691371,127.21875 98.1521007,127.216553 97.4152847,127.19458 L96.671875,127.166016 C95.0937421,127.146484 93.9335975,126.591802 93.1914062,125.501953 C92.8632796,126.318363 92.3867219,127.017575 91.7617188,127.599609 C91.5273426,127.404296 91.2695327,127.220704 90.9882812,127.048828 Z M88.1523438,122.244141 C88.6523438,122.029296 89.1562475,121.802736 89.6640625,121.564453 L89.6640625,119.068359 L88.2460938,119.068359 L88.2460938,118.271484 L89.6640625,118.271484 L89.6640625,116.091797 L90.5546875,116.091797 L90.5546875,118.271484 L92.0546875,118.271484 L92.0546875,119.068359 L90.5546875,119.068359 L90.5546875,121.130859 C91.0039085,120.908202 91.4531228,120.673829 91.9023438,120.427734 C91.9257814,120.732423 91.9570311,121.04492 91.9960938,121.365234 L90.5546875,122.085938 L90.5546875,122.085938 L90.5546875,126.169922 C90.5546875,126.927738 90.2656279,127.33789 89.6875,127.400391 C89.281248,127.439453 88.8242213,127.451172 88.3164062,127.435547 C88.269531,127.10742 88.2187503,126.783205 88.1640625,126.462891 C88.5937521,126.509766 88.960936,126.533203 89.265625,126.533203 C89.5312513,126.533203 89.6640625,126.388673 89.6640625,126.099609 L89.6640625,122.542969 C89.1953102,122.785157 88.7304711,123.029296 88.2695312,123.275391 L88.1523438,122.244141 Z M93.6601562,120.087891 L97.8203125,120.087891 L97.8203125,119.056641 L93.6601562,119.056641 L93.6601562,120.087891 Z M97.8203125,117.298828 L93.6601562,117.298828 L93.6601562,118.318359 L97.8203125,118.318359 L97.8203125,117.298828 Z M100.1875,120.240234 L111.8125,120.240234 L111.8125,121.119141 L106.785156,121.119141 L106.785156,125.853516 C106.785156,126.830083 106.273443,127.322266 105.25,127.330078 L103.421875,127.318359 L103.421875,127.318359 L103.342773,126.808594 C103.313477,126.628907 103.28125,126.439454 103.246094,126.240234 C103.863284,126.302735 104.44531,126.333984 104.992188,126.333984 C105.52344,126.333984 105.789062,126.072268 105.789062,125.548828 L105.789062,121.119141 L100.1875,121.119141 L100.1875,120.240234 Z M101.265625,116.783203 L110.769531,116.783203 L110.769531,117.662109 L101.265625,117.662109 L101.265625,116.783203 Z M108.273438,122.537109 L109.058594,122.009766 C110.019536,123.189459 110.949214,124.419915 111.847656,125.701172 L110.992188,126.263672 C110.023433,124.849602 109.117192,123.607427 108.273438,122.537109 Z M102.777344,121.986328 L103.632812,122.466797 C102.812496,123.888679 101.937505,125.240228 101.007812,126.521484 C100.765624,126.341796 100.507814,126.158204 100.234375,125.970703 C101.109379,124.837885 101.957027,123.509773 102.777344,121.986328 Z M116.3125,123.310547 L122.980469,123.310547 L122.980469,127.599609 L122.078125,127.599609 L122.078125,126.896484 L117.214844,126.896484 L117.214844,127.599609 L116.3125,127.599609 L116.3125,123.310547 Z M112.152344,121.681641 C113.300787,119.978507 114.16406,118.095713 114.742188,116.033203 L115.65625,116.291016 C115.316405,117.341802 114.945315,118.310542 114.542969,119.197266 L114.542969,127.599609 L113.675781,127.599609 L113.675781,120.914062 C113.316404,121.542972 112.937502,122.119138 112.539062,122.642578 C112.414062,122.314451 112.285157,121.994142 112.152344,121.681641 Z M122.078125,124.107422 L117.214844,124.107422 L117.214844,126.099609 L122.078125,126.099609 L122.078125,124.107422 Z M115.539062,117.615234 L119.365234,117.615234 C119.130858,117.212889 118.88672,116.814455 118.632812,116.419922 L119.417969,116.009766 C119.69922,116.431643 119.976561,116.876951 120.25,117.345703 L119.740234,117.615234 L123.789062,117.615234 L123.789062,118.435547 L115.539062,118.435547 L115.539062,117.615234 Z M116.183594,119.525391 L123.097656,119.525391 L123.097656,120.322266 L116.183594,120.322266 L116.183594,119.525391 Z M116.183594,121.412109 L123.097656,121.412109 L123.097656,122.208984 L116.183594,122.208984 L116.183594,121.412109 Z M125.710938,117.169922 L128.576172,117.169922 C128.744141,116.751951 128.882812,116.349611 128.992188,115.962891 L129.90625,116.208984 C129.777343,116.541017 129.642579,116.861327 129.501953,117.169922 L134.171875,117.169922 L134.171875,123.568359 L133.269531,123.568359 L133.269531,123.205078 L126.613281,123.205078 L126.613281,123.568359 L125.710938,123.568359 L125.710938,117.169922 Z M126.941406,124.013672 L127.832031,124.013672 L127.832031,125.736328 C127.832031,126.220706 128.089841,126.462891 128.605469,126.462891 L131.207031,126.462891 C131.832034,126.462891 132.195312,126.248049 132.296875,125.818359 C132.375,125.537108 132.453125,125.111331 132.53125,124.541016 C132.820314,124.658204 133.124998,124.771484 133.445312,124.880859 C133.351562,125.419925 133.257813,125.853514 133.164062,126.181641 C132.984374,126.923832 132.402349,127.294922 131.417969,127.294922 L128.464844,127.294922 C127.449214,127.294922 126.941406,126.810552 126.941406,125.841797 L126.941406,124.013672 Z M126.613281,120.673828 L133.269531,120.673828 L133.269531,119.689453 L126.613281,119.689453 L126.613281,120.673828 Z M126.613281,122.408203 L133.269531,122.408203 L133.269531,121.423828 L126.613281,121.423828 L126.613281,122.408203 Z M133.269531,117.966797 L126.613281,117.966797 L126.613281,118.939453 L133.269531,118.939453 L133.269531,117.966797 Z M125.195312,123.896484 L126.050781,124.189453 C125.70703,125.126958 125.347658,125.982418 124.972656,126.755859 L124.56836,126.588867 C124.423829,126.532227 124.269532,126.47461 124.105469,126.416016 C124.488283,125.736325 124.851561,124.896484 125.195312,123.896484 Z M133.597656,124.271484 L134.277344,123.744141 C134.832034,124.345706 135.398435,125.005856 135.976562,125.724609 L135.226562,126.298828 C134.69531,125.580075 134.152347,124.9043 133.597656,124.271484 Z M128.992188,123.884766 L129.625,123.345703 C130.101565,123.783205 130.624997,124.306638 131.195312,124.916016 L130.480469,125.525391 L130.062255,125.040528 C129.659423,124.580567 129.302736,124.195314 128.992188,123.884766 Z M136.363281,118.048828 L141.988281,118.048828 L141.622395,117.366535 C141.397569,116.956813 141.210938,116.637371 141.0625,116.408203 L141.964844,115.986328 L142.220052,116.392578 C142.414496,116.710286 142.657551,117.121742 142.949219,117.626953 L142.105469,118.048828 L147.613281,118.048828 L147.613281,118.916016 L145.451172,118.916016 C145.033201,121.146496 144.134773,122.939446 142.755859,124.294922 C143.794927,125.052738 145.445301,125.732419 147.707031,126.333984 C147.347654,126.740236 147.07422,127.080077 146.886719,127.353516 C144.683583,126.591793 143.056646,125.794926 142.005859,124.962891 C140.951167,125.783207 139.265637,126.611324 136.949219,127.447266 L136.621094,127.013672 C136.503907,126.861329 136.378907,126.701173 136.246094,126.533203 C138.48048,125.861325 140.162104,125.113285 141.291016,124.289062 C139.865227,122.765617 138.958986,120.97462 138.572266,118.916016 L136.363281,118.916016 L136.363281,118.048828 Z M144.449219,118.916016 L139.509766,118.916016 C139.86133,120.8379 140.701165,122.425775 142.029297,123.679688 C143.298834,122.499994 144.105467,120.912119 144.449219,118.916016 Z M159.847656,126.369141 C159.58203,126.681642 159.35547,126.974608 159.167969,127.248047 C157.105458,126.630856 155.523443,125.875004 154.421875,124.980469 L154.421875,127.623047 L153.578125,127.623047 L153.578125,124.998047 C152.394525,125.833989 150.820322,126.587887 148.855469,127.259766 C148.675781,127.033202 148.44922,126.76758 148.175781,126.462891 C150.191416,125.958982 151.787103,125.337894 152.962891,124.599609 L148.445312,124.599609 L148.445312,123.814453 L153.578125,123.814453 L153.578125,122.853516 L154.421875,122.853516 L154.421875,123.814453 L159.625,123.814453 L159.625,124.599609 L155.060547,124.599609 C156.294928,125.431645 157.890615,126.021483 159.847656,126.369141 Z M148.785156,117.123047 L153.695312,117.123047 C153.546874,116.853514 153.375001,116.576173 153.179688,116.291016 L154.011719,115.916016 C154.265626,116.314455 154.505858,116.716795 154.732422,117.123047 L159.203125,117.123047 L159.203125,118.892578 L158.3125,118.892578 L158.3125,117.896484 L149.675781,117.896484 L149.675781,118.892578 L148.785156,118.892578 L148.785156,117.123047 Z" id="提示信息文案" fill="#5A6677" fill-rule="nonzero"></path>
            <g id="tip-red" transform="translate(64.000000, 113.000000)">
                <rect id="矩形" fill="#FFFFFF" opacity="0.01" x="0" y="0" width="16" height="16"></rect>
                <g id="编组-9" transform="translate(0.549038, 1.000000)" stroke="#FD6868">
                    <path d="M7.45096189,4.5 C5.51796527,4.5 3.95096189,6.06700338 3.95096189,8 L3.95096189,11 C3.95096189,11.2761424 4.17481952,11.5 4.45096189,11.5 L10.4509619,11.5 C10.7271043,11.5 10.9509619,11.2761424 10.9509619,11 L10.9509619,8 C10.9509619,6.06700338 9.38395852,4.5 7.45096189,4.5 Z" id="矩形"></path>
                    <rect id="矩形" fill="#D8D8D8" x="7.45096189" y="8.5" width="1" height="3" rx="0.5"></rect>
                    <rect id="矩形" fill="#D8D8D8" x="6.45096189" y="8.5" width="2" height="1" rx="0.5"></rect>
                    <path d="M3.95096189,2.5 L4.45096189,3.3660254 L3.95096189,2.5 Z" id="矩形" fill="#D8D8D8"></path>
                    <path d="" id="矩形" fill="#D8D8D8"></path>
                    <path d="" id="矩形" fill="#D8D8D8"></path>
                    <path d="M13.5,5.1830127 L14.3660254,4.6830127 L13.5,5.1830127 Z" id="矩形" fill="#D8D8D8"></path>
                    <rect id="矩形" fill="#D8D8D8" x="7.45096189" y="0.5" width="1" height="2" rx="0.5"></rect>
                    <rect id="矩形" fill="#D8D8D8" x="3.95096189" y="13.5" width="7" height="1" rx="0.5"></rect>
                </g>
                <path d="M88.7109375,5.20117188 L89.6601562,5.47070312 C89.4492177,5.75195453 89.2246106,6.03320172 88.9863281,6.31445312 L95.53125,6.31445312 L95.53125,7.08789062 L93.0117188,7.08789062 C92.6406231,7.74805018 92.138675,8.28320107 91.5058594,8.69335938 L92.8136729,9.03929712 C93.4511715,9.20945301 94.0640596,9.37538982 94.6523438,9.53710938 L94.2773438,10.3222656 C93.0390563,9.93163867 91.7793033,9.55859553 90.4980469,9.203125 C89.3105409,9.67187734 87.5195432,10.0566391 85.125,10.3574219 C85.0312495,10.1074206 84.9179694,9.8496107 84.7851562,9.58398438 L85.6246099,9.48246783 C87.1094497,9.29203223 88.2964198,9.07782571 89.1855469,8.83984375 C88.2480422,8.5898425 87.300786,8.34570432 86.34375,8.10742188 C86.6640641,7.76367016 86.96875,7.4238298 87.2578125,7.08789062 L84.46875,7.08789062 L84.46875,6.31445312 L87.890625,6.31445312 C88.1875015,5.93945125 88.4609363,5.56836121 88.7109375,5.20117188 Z M92.0332031,7.08789062 L88.3007812,7.08789062 C88.1015615,7.30273545 87.8945323,7.51757705 87.6796875,7.73242188 C88.1562524,7.84960996 88.6230482,7.96533234 89.0800783,8.07958987 L89.0800783,8.07958987 L90.421875,8.41796875 C91.1093784,8.11327973 91.6464824,7.66992479 92.0332031,7.08789062 L92.0332031,7.08789062 Z" id="形状结合" fill="#5A6677" fill-rule="nonzero"></path>
            </g>
            <text id="样式一" font-family="MicrosoftYaHei, Microsoft YaHei" font-size="12" font-weight="normal" line-spacing="22" fill="#525A6E">
                <tspan x="8" y="27">样式一</tspan>
            </text>
        </g>
    </g>
</svg>