<?xml version="1.0" encoding="UTF-8"?>
<svg width="494px" height="68px" viewBox="0 0 494 68" version="1.1" xmlns="http://www.w3.org/2000/svg" xmlns:xlink="http://www.w3.org/1999/xlink">
    <!-- Generator: Sketch 58 (84663) - https://sketch.com -->
    <title>password-input/style1</title>
    <desc>Created with Sketch.</desc>
    <g id="页面-1" stroke="none" stroke-width="1" fill="none" fill-rule="evenodd">
        <g id="password-input/style1">
            <rect id="矩形备份" fill-opacity="0.01" fill="#FAFAFA" x="0" y="0" width="494" height="68"></rect>
            <rect id="矩形备份-4" stroke-opacity="0.15" stroke="#000000" fill="#FFFFFF" x="52.5" y="20.5" width="176" height="27" rx="2"></rect>
            <rect id="矩形备份-9" stroke-opacity="0.15" stroke="#000000" fill="#FFFFFF" x="241.5" y="20.5" width="176" height="27" rx="2"></rect>
            <g id="eye" transform="translate(400.000000, 29.000000)">
                <rect id="矩形" fill="#D8D8D8" opacity="0.01" x="0" y="0" width="10" height="10"></rect>
                <path d="M5,2 C6.84094917,2 8.50761583,3 10,5 C8.50761583,7 6.84094917,8 5,8 C3.15905083,8 1.49321344,6.968151 0.0024878047,4.90445299 C1.52873372,2.968151 3.19457112,2 5,2 Z M5,3 C3.8954305,3 3,3.8954305 3,5 C3,6.1045695 3.8954305,7 5,7 C6.1045695,7 7,6.1045695 7,5 C7,3.8954305 6.1045695,3 5,3 Z M5,4 C5.55228475,4 6,4.44771525 6,5 C6,5.55228475 5.55228475,6 5,6 C4.44771525,6 4,5.55228475 4,5 C4,4.44771525 4.44771525,4 5,4 Z" id="椭圆形-2" fill="#333333"></path>
            </g>
            <path d="M259.353516,38.6669922 L258.205078,38.6669922 L258.205078,34.9462891 C258.205078,34.2431605 258.095704,33.7402359 257.876953,33.4375 C257.658202,33.1347641 257.298831,32.9833984 256.798828,32.9833984 C256.376951,32.9833984 256.015627,33.1806621 255.714844,33.5751953 C255.414061,33.9697285 255.263672,34.4365207 255.263672,34.9755859 L255.263672,38.6669922 L254.115234,38.6669922 L254.115234,34.8291016 C254.115234,33.5986267 253.64063,32.9833984 252.691406,32.9833984 C252.253904,32.9833984 251.891603,33.1708966 251.604492,33.5458984 C251.317381,33.9209003 251.173828,34.3994112 251.173828,34.9814453 L251.173828,38.6669922 L250.025391,38.6669922 L250.025391,32.1865234 L251.173828,32.1865234 L251.173828,33.2119141 L251.197266,33.2119141 C251.658205,32.4267539 252.332027,32.0341797 253.21875,32.0341797 C253.652346,32.0341797 254.035155,32.1533191 254.367188,32.3916016 C254.69922,32.629884 254.929687,32.9521464 255.058594,33.3583984 C255.539065,32.4755815 256.257808,32.0341797 257.214844,32.0341797 C258.640632,32.0341797 259.353516,32.9130771 259.353516,34.6708984 L259.353516,38.6669922 Z M261.128906,29.9013672 C261.128906,29.6982412 261.198241,29.5273444 261.336914,29.3886719 C261.475587,29.2499993 261.646483,29.1806641 261.849609,29.1806641 C262.056642,29.1806641 262.231445,29.2490228 262.374023,29.3857422 C262.516602,29.5224616 262.587891,29.6943349 262.587891,29.9013672 C262.587891,30.1044932 262.516602,30.2734368 262.374023,30.4082031 C262.231445,30.5429694 262.056642,30.6103516 261.849609,30.6103516 C261.642577,30.6103516 261.470704,30.5429694 261.333984,30.4082031 C261.197265,30.2734368 261.128906,30.1044932 261.128906,29.9013672 Z M261.263672,38.6669922 L261.263672,32.1865234 L262.412109,32.1865234 L262.412109,38.6669922 L261.263672,38.6669922 Z M273.791016,38.6669922 L272.642578,38.6669922 L272.642578,34.9462891 C272.642578,34.2431605 272.533204,33.7402359 272.314453,33.4375 C272.095702,33.1347641 271.736331,32.9833984 271.236328,32.9833984 C270.814451,32.9833984 270.453127,33.1806621 270.152344,33.5751953 C269.851561,33.9697285 269.701172,34.4365207 269.701172,34.9755859 L269.701172,38.6669922 L268.552734,38.6669922 L268.552734,34.8291016 C268.552734,33.5986267 268.07813,32.9833984 267.128906,32.9833984 C266.691404,32.9833984 266.329103,33.1708966 266.041992,33.5458984 C265.754881,33.9209003 265.611328,34.3994112 265.611328,34.9814453 L265.611328,38.6669922 L264.462891,38.6669922 L264.462891,32.1865234 L265.611328,32.1865234 L265.611328,33.2119141 L265.634766,33.2119141 C266.095705,32.4267539 266.769527,32.0341797 267.65625,32.0341797 C268.089846,32.0341797 268.472655,32.1533191 268.804688,32.3916016 C269.13672,32.629884 269.367187,32.9521464 269.496094,33.3583984 C269.976565,32.4755815 270.695308,32.0341797 271.652344,32.0341797 C273.078132,32.0341797 273.791016,32.9130771 273.791016,34.6708984 L273.791016,38.6669922 Z M275.859375,32.6376953 C276.503909,32.2353496 277.248043,32.0341797 278.091797,32.0341797 C279.654305,32.0341797 280.435547,32.854484 280.435547,34.4951172 L280.435547,38.6669922 L279.298828,38.6669922 L279.298828,37.6650391 L279.269531,37.6650391 C278.82031,38.4345742 278.158208,38.8193359 277.283203,38.8193359 C276.654294,38.8193359 276.154299,38.6494158 275.783203,38.3095703 C275.412108,37.9697249 275.226562,37.5107451 275.226562,36.9326172 C275.226562,35.7216736 275.943352,35.0166026 277.376953,34.8173828 L279.298828,34.5478516 C279.298828,33.4892525 278.861333,32.9599609 277.986328,32.9599609 C277.20898,32.9599609 276.500003,33.2216771 275.859375,33.7451172 L275.859375,32.6376953 Z M277.78125,35.6201172 C277.249997,35.69043 276.88379,35.8232412 276.682617,36.0185547 C276.481444,36.2138682 276.380859,36.4873029 276.380859,36.8388672 C276.380859,37.1474625 276.490233,37.3994131 276.708984,37.5947266 C276.927735,37.79004 277.216795,37.8876953 277.576172,37.8876953 C278.076174,37.8876953 278.48828,37.7119158 278.8125,37.3603516 C279.13672,37.0087873 279.298828,36.5673855 279.298828,36.0361328 L279.298828,35.4150391 L277.78125,35.6201172 Z M287.625,38.6669922 L282.421875,38.6669922 L282.421875,37.6767578 L284.455078,37.6767578 L284.455078,30.7861328 L282.369141,31.3896484 L282.369141,30.3349609 L285.597656,29.3974609 L285.597656,37.6767578 L287.625,37.6767578 L287.625,38.6669922 Z M294.492188,38.6669922 L288.972656,38.6669922 L288.972656,37.6708984 L291.609375,35.0400391 C292.335941,34.3134729 292.822264,33.7382834 293.068359,33.3144531 C293.314454,32.8906229 293.4375,32.4521507 293.4375,31.9990234 C293.4375,31.4833959 293.29297,31.087892 293.003906,30.8125 C292.714842,30.537108 292.296878,30.3994141 291.75,30.3994141 C290.941402,30.3994141 290.169926,30.7431606 289.435547,31.4306641 L289.435547,30.2646484 C290.150394,29.7138644 290.982417,29.4384766 291.931641,29.4384766 C292.748051,29.4384766 293.392576,29.6591775 293.865234,30.1005859 C294.337893,30.5419944 294.574219,31.1357385 294.574219,31.8818359 C294.574219,32.4443388 294.422853,32.996091 294.120117,33.5371094 C293.817381,34.0781277 293.244145,34.7665974 292.400391,35.6025391 L290.332031,37.6240234 L290.332031,37.6474609 L294.492188,37.6474609 L294.492188,38.6669922 Z M296.226562,37.1494141 C296.847659,37.6298852 297.548824,37.8701172 298.330078,37.8701172 C298.955081,37.8701172 299.450193,37.7167984 299.81543,37.4101562 C300.180666,37.1035141 300.363281,36.6923854 300.363281,36.1767578 C300.363281,35.0283146 299.541024,34.4541016 297.896484,34.4541016 L297.140625,34.4541016 L297.140625,33.5048828 L297.861328,33.5048828 C299.318367,33.5048828 300.046875,32.9658257 300.046875,31.8876953 C300.046875,30.8915966 299.49024,30.3935547 298.376953,30.3935547 C297.740231,30.3935547 297.140628,30.6083963 296.578125,31.0380859 L296.578125,29.9541016 C297.171878,29.6103498 297.86523,29.4384766 298.658203,29.4384766 C299.431644,29.4384766 300.052732,29.640623 300.521484,30.0449219 C300.990237,30.4492208 301.224609,30.9736296 301.224609,31.6181641 C301.224609,32.80567 300.619147,33.5693342 299.408203,33.9091797 L299.408203,33.9326172 C300.064456,34.00293 300.583006,34.234373 300.963867,34.6269531 C301.344728,35.0195332 301.535156,35.5087861 301.535156,36.0947266 C301.535156,36.9111369 301.241214,37.5693334 300.65332,38.0693359 C300.065427,38.5693384 299.283208,38.8193359 298.306641,38.8193359 C297.447261,38.8193359 296.753909,38.6591813 296.226562,38.3388672 L296.226562,37.1494141 Z M307.875,29.5908203 L307.875,35.4033203 L309.035156,35.4033203 L309.035156,36.3115234 L307.875,36.3115234 L307.875,38.6669922 L306.761719,38.6669922 L306.761719,36.3115234 L302.53125,36.3115234 L302.53125,35.5673828 L306.544922,29.5908203 L307.875,29.5908203 Z M306.785156,30.6689453 L306.761719,30.6689453 C306.72526,30.7679041 306.661893,30.904188 306.571615,31.0777989 L306.571615,31.0777989 L306.416016,31.3662109 L303.714844,35.4033203 L306.761719,35.4033203 L306.761719,31.6005859 C306.761719,31.3310533 306.769531,31.0205096 306.785156,30.6689453 L306.785156,30.6689453 Z" id="mima1234" fill="#333333" fill-rule="nonzero"></path>
            <g id="noeye" transform="translate(211.000000, 29.000000)">
                <rect id="矩形备份-6" fill="#D8D8D8" opacity="0.01" x="0" y="0" width="10" height="10"></rect>
                <path d="M1.53775278,0.972453964 L1.60767966,1.02948689 L3.02153344,2.41111138 C3.02186796,2.41096806 3.02220248,2.41082479 3.02253701,2.41068155 L3.93855138,3.30459791 L3.9374878,3.30519423 L4.69816181,4.04635953 C4.79339971,4.01624364 4.8948029,4 5,4 C5.55228475,4 6,4.44771525 6,5 C6,5.09679594 5.98624723,5.19037975 5.9605891,5.27890402 L6.71979967,6.0215323 L6.8034878,6.10319423 L9.33178806,8.57312355 C9.50739378,8.74462629 9.52986208,9.01380393 9.39717873,9.21025406 L9.34014581,9.28018094 C9.16864307,9.45578666 8.89946543,9.47825496 8.7030153,9.34557161 L8.63308842,9.28853868 L6.91701142,7.61264766 C6.91667716,7.61278768 6.91634289,7.61292765 6.91600861,7.61306759 L6.0094383,6.72694137 L6.0094878,6.72619423 L5.2374589,5.97163656 C5.16134485,5.9901736 5.08181996,6 5,6 C4.44771525,6 4,5.55228475 4,5 C4,4.92668787 4.0078891,4.85521833 4.02286467,4.78639402 L3.24985201,4.03126494 L2.2324878,3.03719423 L0.908980015,1.74490202 C0.733374297,1.57339928 0.710905996,1.30422164 0.843589348,1.10777151 L0.900622272,1.03784463 C1.07212501,0.862238912 1.34130265,0.839770612 1.53775278,0.972453964 Z M1.68773672,3.20293687 L3.05356958,4.53824108 C3.01853797,4.68646805 3,4.84106914 3,5 C3,6.1045695 3.8954305,7 5,7 C5.17536834,7 5.34546497,6.97742914 5.50754337,6.93503393 L6.39220015,7.7996862 C5.9397705,7.93322873 5.47570378,8 5,8 C3.15905083,8 1.49321344,6.968151 0.0024878047,4.90445299 C0.546502447,4.21427808 1.10825209,3.64710604 1.68773672,3.20293687 Z M5,2 C6.84094917,2 8.50761583,3 10,5 C9.44247012,5.7471667 8.86061659,6.35476888 8.25443941,6.82280654 L6.92955978,5.5280239 C6.97548353,5.35981486 7,5.18277049 7,5 C7,3.8954305 6.1045695,3 5,3 C4.80060369,3 4.60802265,3.02917965 4.42629408,3.08350174 L3.54164227,2.21981832 C4.01719678,2.07327277 4.50331602,2 5,2 Z" id="椭圆形-2备份" fill="#333333"></path>
            </g>
            <g id="编组-11" transform="translate(60.000000, 31.000000)" fill="#333333">
                <circle id="椭圆形" cx="3" cy="3" r="3"></circle>
                <circle id="椭圆形" cx="17" cy="3" r="3"></circle>
                <circle id="椭圆形" cx="31" cy="3" r="3"></circle>
                <circle id="椭圆形" cx="45" cy="3" r="3"></circle>
                <circle id="椭圆形" cx="59" cy="3" r="3"></circle>
                <circle id="椭圆形" cx="73" cy="3" r="3"></circle>
                <circle id="椭圆形" cx="87" cy="3" r="3"></circle>
                <circle id="椭圆形" cx="101" cy="3" r="3"></circle>
            </g>
            <text id="样式一" font-family="MicrosoftYaHei, Microsoft YaHei" font-size="12" font-weight="normal" line-spacing="22" fill="#525A6E">
                <tspan x="8" y="35">样式一</tspan>
            </text>
        </g>
    </g>
</svg>