<?xml version="1.0" encoding="UTF-8"?>
<svg width="241px" height="92px" viewBox="0 0 241 92" version="1.1" xmlns="http://www.w3.org/2000/svg" xmlns:xlink="http://www.w3.org/1999/xlink">
    <!-- Generator: Sketch 58 (84663) - https://sketch.com -->
    <title>Btn-style2</title>
    <desc>Created with Sketch.</desc>
    <g id="页面-1" stroke="none" stroke-width="1" fill="none" fill-rule="evenodd">
        <g id="Btn-style2">
            <rect id="矩形" fill="#AAAAAA" opacity="0.01" x="0" y="0" width="241" height="92"></rect>
            <g id="Group备份-6" transform="translate(112.000000, 12.000000)">
                <rect id="Rectangle" fill="#4F7DE7" x="0" y="0" width="56" height="28" rx="4"></rect>
                <path d="M16.5742188,9.6171875 L21.578125,9.6171875 L21.578125,8.36328125 L22.4101562,8.36328125 L22.4101562,9.6171875 L27.484375,9.6171875 L27.484375,10.4023438 L23.1425781,10.4023438 C24.3769593,11.3437547 25.9374906,12.0546851 27.8242188,12.5351562 L27.4067385,13.1745602 C27.3647463,13.2404781 27.3242189,13.3046872 27.2851562,13.3671875 C26.8632791,13.2226555 26.4570332,13.0664071 26.0664062,12.8984375 L26.0664062,17.984375 L25.1757812,17.984375 L25.1757812,17.4570312 L18.859375,17.4570312 L18.859375,17.9960938 L17.96875,17.9960938 L17.96875,12.9570312 C17.5703105,13.1406259 17.1523459,13.3164054 16.7148438,13.484375 C16.5507804,13.2421863 16.3671885,12.9921888 16.1640625,12.734375 C18.1796976,12.0976531 19.724604,11.3203171 20.7988281,10.4023438 L16.5742188,10.4023438 L16.5742188,9.6171875 Z M16.2929688,18.6171875 L27.7070312,18.6171875 L27.7070312,19.4609375 L16.2929688,19.4609375 L16.2929688,18.6171875 Z M21.578125,12.6054688 L21.578125,10.5957031 C20.679683,11.462895 19.5195384,12.2304654 18.0976562,12.8984375 L26.0605469,12.8984375 C24.6191334,12.2851532 23.4023487,11.5253952 22.4101562,10.6191406 L22.4101562,12.6054688 L21.578125,12.6054688 Z M18.859375,16.6484375 L25.1757812,16.6484375 L25.1757812,15.5703125 L18.859375,15.5703125 L18.859375,16.6484375 Z M25.1757812,13.7070312 L18.859375,13.7070312 L18.859375,14.7734375 L25.1757812,14.7734375 L25.1757812,13.7070312 Z M32.4648438,12.0664062 L36.7539062,12.0664062 L36.7539062,17.4101562 L33.3085938,17.4101562 L33.3085938,18.1015625 L32.4648438,18.1015625 L32.4648438,12.0664062 Z M31,12.2070312 C31.9687548,11.0820256 32.7773405,9.77735117 33.4257812,8.29296875 L34.3164062,8.6328125 C34.109374,9.05468961 33.9003917,9.45702934 33.6894531,9.83984375 L39.4023438,9.83984375 L39.2200718,16.14329 C39.2016409,16.6950669 39.1842732,17.1798552 39.1679688,17.5976562 C39.1054684,19.0039133 38.4960995,19.7070312 37.3398438,19.7070312 C36.6289027,19.7070312 35.9921903,19.6875002 35.4296875,19.6484375 C35.3828123,19.3359359 35.3164067,18.9921894 35.2304688,18.6171875 C35.9257847,18.726563 36.5546847,18.78125 37.1171875,18.78125 C37.820316,18.78125 38.1992185,18.3281295 38.2539062,17.421875 L38.2993751,16.3085917 C38.3581252,14.7460925 38.4093748,12.8711047 38.453125,10.6835938 L33.203125,10.6835938 C32.7382789,11.4492226 32.257815,12.1328095 31.7617188,12.734375 C31.5742178,12.5781242 31.3203141,12.4023447 31,12.2070312 Z M31.8085938,17.140625 L31.8385938,17.5943755 C31.8545312,17.8043751 31.8718749,17.9890617 31.890625,18.1484375 L31.3757732,18.4893476 C30.6430113,18.9815357 30.0880701,19.3874274 29.7109375,19.7070312 L29.1601562,18.921875 C29.4257826,18.6953114 29.5585938,18.3593772 29.5585938,17.9140625 L29.5585938,13.2617188 L28.1875,13.2617188 L28.1875,12.4179688 L30.4609375,12.4179688 L30.4609375,18.078125 C30.9062522,17.7812485 31.3554665,17.4687516 31.8085938,17.140625 Z M35.9101562,16.6132812 L35.9101562,15.1015625 L33.3085938,15.1015625 L33.3085938,16.6132812 L35.9101562,16.6132812 Z M35.9101562,12.8632812 L33.3085938,12.8632812 L33.3085938,14.328125 L35.9101562,14.328125 L35.9101562,12.8632812 Z M28.6679688,9.18359375 L29.359375,8.5859375 L30.610352,9.88590538 C30.8512368,10.1403535 31.0514315,10.3554679 31.2109375,10.53125 L30.4140625,11.1992188 C29.9218725,10.550778 29.3398471,9.87890973 28.6679688,9.18359375 Z" id="查询" fill="#FFFFFF" fill-rule="nonzero"></path>
            </g>
            <g id="Group备份-7" transform="translate(52.000000, 12.000000)">
                <rect id="Rectangle" fill="#4F7DE7" x="0" y="0" width="56" height="28" rx="4"></rect>
                <path d="M30.7382812,9.23046875 C32.3554768,9.21484367 33.8476494,9.05468902 35.2148438,8.75 L35.5195312,9.65234375 C33.9726485,9.85546977 32.6562554,9.98828094 31.5703125,10.0507812 L31.5703125,12.78125 L35.8476562,12.78125 L35.8476562,13.578125 L34.171875,13.578125 L34.171875,19.71875 L33.3046875,19.71875 L33.3046875,13.578125 L31.5703125,13.578125 L31.5703125,14.1523438 C31.5703125,16.5507932 30.9960995,18.4179621 29.8476562,19.7539062 C29.6601553,19.5117175 29.4531261,19.26172 29.2265625,19.0039062 C30.23438,17.9023382 30.7382812,16.2734483 30.7382812,14.1171875 L30.7382812,9.23046875 Z M24.4921875,14.4921875 L26.8828125,14.4921875 L26.8828125,13.3789062 L27.7265625,13.3789062 L27.7265625,14.4921875 L30.0234375,14.4921875 L30.0234375,15.2421875 L27.7265625,15.2421875 L27.7265625,18.3007812 C27.7265625,19.1289104 27.328129,19.5429688 26.53125,19.5429688 L25.9951173,19.5400391 C25.8056647,19.538086 25.6054698,19.5351563 25.3945312,19.53125 L25.3388672,19.1152345 C25.3173829,18.9667974 25.2929689,18.8085946 25.265625,18.640625 L25.6861986,18.6796876 C25.9448789,18.7005209 26.1601554,18.7109375 26.3320312,18.7109375 C26.6992206,18.7109375 26.8828125,18.5117207 26.8828125,18.1132812 L26.8828125,15.2421875 L24.4921875,15.2421875 L24.4921875,14.4921875 Z M24.1640625,12.3007812 L26.0507812,12.3007812 C25.7187483,11.7734349 25.4062515,11.3203144 25.1132812,10.9414062 L25.7460938,10.4960938 L25.9852521,10.79552 C26.1996969,11.0713485 26.4520075,11.4129444 26.7421875,11.8203125 L26.0800781,12.3007812 L27.6269531,12.3007812 C28.0527365,11.6874969 28.4453107,11.0820342 28.8046875,10.484375 L29.6367188,10.953125 C29.2578106,11.4414087 28.8964861,11.8906229 28.5527344,12.3007812 L30.328125,12.3007812 L30.328125,13.0507812 L24.1640625,13.0507812 L24.1640625,12.3007812 Z M24.5390625,9.58203125 L27.0703125,9.58203125 L26.8007813,9.08105479 C26.7050785,8.9072271 26.6035162,8.72656344 26.4960938,8.5390625 L27.2460938,8.1875 C27.4882825,8.58593949 27.7148427,8.98827922 27.9257812,9.39453125 L27.5332031,9.58203125 L30.0234375,9.58203125 L30.0234375,10.3320312 L24.5390625,10.3320312 L24.5390625,9.58203125 Z M25.3945312,15.7695312 L26.1914062,16.1445312 C25.7695291,17.0273482 25.3515646,17.8242152 24.9375,18.5351562 C24.7109364,18.3945305 24.4531264,18.253907 24.1640625,18.1132812 C24.5468769,17.5195283 24.9570291,16.7382861 25.3945312,15.7695312 Z M28.7695312,15.828125 C29.2070334,16.421878 29.5898421,16.9687475 29.9179688,17.46875 L29.1679688,17.984375 C28.824217,17.3828095 28.4609394,16.8164089 28.078125,16.2851562 L28.7695312,15.828125 Z M37.125,14.3515625 C37.3593762,15.3046923 37.6874979,16.0878876 38.109375,16.7011719 C38.5273458,15.8417926 38.789062,14.8515681 38.8945312,13.7304688 L36.5507812,13.7304688 L36.5507812,12.875 L38.7070312,10.2148438 L36.3164062,10.2148438 L36.3164062,9.41796875 L39.7851562,9.41796875 L39.7851562,10.2148438 L37.5820312,12.9335938 L39.7734375,12.9335938 L39.7734375,13.625 C39.6289055,15.074226 39.2753934,16.3300728 38.7128906,17.3925781 C39.5112345,18.0847203 40.7232669,18.4558491 42.3490205,18.5059739 L42.6796875,18.5117188 C44.1640699,18.5429689 45.8867089,18.5234379 47.8476562,18.453125 L47.4609375,19.3789062 L47.4609375,19.3789062 L42.2695312,19.3554688 L42.2695312,19.3554688 C40.527335,19.3554688 39.1914109,18.9492228 38.2617188,18.1367188 C37.8203103,18.777347 37.2851594,19.3359351 36.65625,19.8125 C36.5312494,19.5859364 36.3710947,19.3320327 36.1757812,19.0507812 C36.7617217,18.6054665 37.2539043,18.0859405 37.6523438,17.4921875 C37.1289036,16.8281217 36.6953142,15.8789124 36.3515625,14.6445312 L37.125,14.3515625 Z" id="新建" fill="#FFFFFF" fill-rule="nonzero"></path>
                <path d="M43.7578125,8.26953125 L43.7578125,9.41796875 L46.4765625,9.41796875 L46.4765625,11.140625 L47.7070312,11.140625 L47.7070312,11.8671875 L46.4765625,11.8671875 L46.4765625,13.90625 L45.6328125,13.90625 L45.6328125,13.5898438 L43.7578125,13.5898438 L43.7578125,14.609375 L46.7109375,14.609375 L46.7109375,15.3125 L43.7578125,15.3125 L43.7578125,16.3320312 L47.25,16.3320312 L47.25,17.0351562 L43.7578125,17.0351562 L43.7578125,18.2421875 L42.890625,18.2421875 L42.890625,17.0351562 L39.890625,17.0351562 L39.890625,16.3320312 L42.890625,16.3320312 L42.890625,15.3125 L40.2890625,15.3125 L40.2890625,14.609375 L42.890625,14.609375 L42.890625,13.5898438 L40.453125,13.5898438 L40.453125,12.8867188 L42.890625,12.8867188 L42.890625,11.8671875 L39.84375,11.8671875 L39.84375,11.140625 L42.890625,11.140625 L42.890625,10.1210938 L40.453125,10.1210938 L40.453125,9.41796875 L42.890625,9.41796875 L42.890625,8.26953125 L43.7578125,8.26953125 Z M45.6328125,11.8671875 L43.7578125,11.8671875 L43.7578125,12.8867188 L45.6328125,12.8867188 L45.6328125,11.8671875 Z M45.6328125,10.1210938 L43.7578125,10.1210938 L43.7578125,11.140625 L45.6328125,11.140625 L45.6328125,10.1210938 Z" id="形状结合" fill="#FFFFFF" fill-rule="nonzero"></path>
                <g id="编组-9" transform="translate(8.000000, 8.000000)">
                    <rect id="矩形" fill="#D8D8D8" opacity="0.01" x="0" y="0" width="12" height="12"></rect>
                    <path d="M6,1 C6.27614237,1 6.5,1.22385763 6.5,1.5 L6.5,5.5 L10.5,5.5 C10.7761424,5.5 11,5.72385763 11,6 C11,6.27614237 10.7761424,6.5 10.5,6.5 L6.499,6.5 L6.5,10.5 C6.5,10.7761424 6.27614237,11 6,11 C5.72385763,11 5.5,10.7761424 5.5,10.5 L5.499,6.5 L1.5,6.5 C1.22385763,6.5 1,6.27614237 1,6 C1,5.72385763 1.22385763,5.5 1.5,5.5 L5.5,5.5 L5.5,1.5 C5.5,1.22385763 5.72385763,1 6,1 Z" id="矩形-3" fill="#FFFFFF"></path>
                </g>
            </g>
            <g id="Group-2备份-3" transform="translate(172.000000, 12.000000)">
                <rect id="Rectangle" stroke="#D5DAE0" fill="#F1F1F1" x="0.5" y="0.5" width="55" height="27" rx="4"></rect>
                <path d="M16.2109375,18.59375 L21.578125,18.59375 L21.578125,17.7265625 L17.125,17.7265625 L17.125,17.0351562 L21.578125,17.0351562 L21.578125,16.0507812 L18.4140625,16.0507812 L18.4140625,16.4726562 L17.59375,16.4726562 L17.59375,12.0664062 L21.578125,12.0664062 L21.578125,11.2226562 L16.3046875,11.2226562 L16.3046875,10.4960938 L21.578125,10.4960938 L21.578125,9.57617188 L19.4130861,9.63623049 C18.678713,9.65478513 17.9316444,9.67187492 17.171875,9.6875 C17.1249998,9.43749875 17.0703128,9.17187641 17.0078125,8.890625 L18.9254618,8.86230466 C22.0168289,8.80696621 24.5846252,8.71093818 26.6289062,8.57421875 L26.7695312,9.37109375 L25.0726554,9.44796881 C24.2101574,9.48499999 23.326567,9.51992171 22.421875,9.55273438 L22.421875,10.4960938 L27.7421875,10.4960938 L27.7421875,11.2226562 L22.421875,11.2226562 L22.421875,12.0664062 L26.4414062,12.0664062 L26.4414062,16.4609375 L25.6210938,16.4609375 L25.6210938,16.0507812 L22.421875,16.0507812 L22.421875,17.0351562 L26.8867188,17.0351562 L26.8867188,17.7265625 L22.421875,17.7265625 L22.421875,18.59375 L27.7421875,18.59375 L27.7421875,19.3203125 L16.2109375,19.3203125 L16.2109375,18.59375 Z M22.421875,15.3710938 L25.6210938,15.3710938 L25.6210938,14.3632812 L22.421875,14.3632812 L22.421875,15.3710938 Z M18.4140625,15.3710938 L21.578125,15.3710938 L21.578125,14.3632812 L18.4140625,14.3632812 L18.4140625,15.3710938 Z M25.6210938,12.7460938 L22.421875,12.7460938 L22.421875,13.7421875 L25.6210938,13.7421875 L25.6210938,12.7460938 Z M18.4140625,13.7421875 L21.578125,13.7421875 L21.578125,12.7460938 L18.4140625,12.7460938 L18.4140625,13.7421875 Z M28.1757812,18.7460938 L29.921875,18.7460938 L29.921875,13.3203125 L33.5078125,13.3203125 L33.5078125,12.5585938 L28.4570312,12.5585938 L28.4570312,11.9023438 L33.5078125,11.9023438 L33.5078125,11.28125 L34.3515625,11.28125 L34.3515625,11.9023438 L39.53125,11.9023438 L39.53125,12.5585938 L34.3515625,12.5585938 L34.3515625,13.3203125 L38.1835938,13.3203125 L38.1835938,18.7460938 L39.8007812,18.7460938 L39.8007812,19.4257812 L28.1757812,19.4257812 L28.1757812,18.7460938 Z M30.7421875,18.7460938 L37.3632812,18.7460938 L37.3632812,17.9960938 L30.7421875,17.9960938 L30.7421875,18.7460938 Z M30.7421875,17.3867188 L37.3632812,17.3867188 L37.3632812,16.6484375 L30.7421875,16.6484375 L30.7421875,17.3867188 Z M30.7421875,16.0390625 L37.3632812,16.0390625 L37.3632812,15.3007812 L30.7421875,15.3007812 L30.7421875,16.0390625 Z M37.3632812,13.953125 L30.7421875,13.953125 L30.7421875,14.6914062 L37.3632812,14.6914062 L37.3632812,13.953125 Z" id="重置" fill="#333333" fill-rule="nonzero"></path>
                <path d="M38.7929688,8.7734375 L38.7929688,11.3867188 L37.9960938,11.3867188 L37.9960938,11.1171875 L30.0039062,11.1171875 L30.0039062,11.3867188 L29.1953125,11.3867188 L29.1953125,8.7734375 L38.7929688,8.7734375 Z M37.9960938,9.40625 L35.8398438,9.40625 L35.8398438,10.484375 L37.9960938,10.484375 L37.9960938,9.40625 Z M35.0664062,9.40625 L32.921875,9.40625 L32.921875,10.484375 L35.0664062,10.484375 L35.0664062,9.40625 Z M32.1484375,9.40625 L30.0039062,9.40625 L30.0039062,10.484375 L32.1484375,10.484375 L32.1484375,9.40625 Z" id="形状结合" fill="#333333" fill-rule="nonzero"></path>
            </g>
            <g id="点击数-copy" transform="translate(204.000000, 24.000000)">
                <path d="M15.7642312,6.00637625 C15.3623769,6.00637625 15.0075481,6.15390129 14.6933323,6.35622132 C14.3833914,5.65231618 13.6737339,5.15705358 12.84865,5.15705358 C12.4703085,5.15705358 12.1347174,5.28982611 11.8311891,5.46896364 C11.5875115,4.64282348 10.8436536,4.02532584 9.92879378,4.02532584 C9.59747773,4.02532584 9.29822453,4.12227086 9.02248408,4.26347339 L9.02248408,1.98526542 C9.02248408,0.891472705 8.1183119,0 7.00893752,0 C5.89956313,0 4.99539098,0.891472684 4.99539098,1.98526542 L4.99539098,10.3836547 L3.43499926,8.84517933 C2.67404112,8.09490918 1.34450188,8.09701668 0.589956315,8.84517933 C0.209477234,9.22031442 0,9.71768451 0,10.2487746 C0,10.7798648 0.209477234,11.2772348 0.589956315,11.6523699 L6.21591654,17.2056336 C6.99824992,17.9980537 8.31068897,19.3236715 10.8799915,19.3236715 C15.1999252,19.3236715 17.7777778,17.1950961 17.7777778,13.6292053 L17.7777778,7.99164165 C17.7777778,6.89784894 16.8757431,6.00637625 15.7642312,6.00637625 Z" id="Shape" stroke="#4C4C4C" fill="#FFFFFF" fill-rule="nonzero"></path>
                <rect id="Rectangle" fill="#4C4C4C" x="8.67360423" y="10.1424885" width="1.11111111" height="5.55555556" rx="0.555555556"></rect>
                <rect id="Rectangle-Copy" fill="#4C4C4C" x="11.6244931" y="10.9330883" width="1.11111111" height="5.55555556" rx="0.555555556"></rect>
                <rect id="Rectangle-Copy-2" fill="#4C4C4C" x="14.3960548" y="11.0005061" width="1.11111111" height="4.44444444" rx="0.555555556"></rect>
            </g>
            <g id="Group备份-6" transform="translate(112.000000, 48.000000)">
                <rect id="Rectangle" fill="#99AFE1" x="0" y="0" width="56" height="28" rx="4"></rect>
                <path d="M16.5742188,9.6171875 L21.578125,9.6171875 L21.578125,8.36328125 L22.4101562,8.36328125 L22.4101562,9.6171875 L27.484375,9.6171875 L27.484375,10.4023438 L23.1425781,10.4023438 C24.3769593,11.3437547 25.9374906,12.0546851 27.8242188,12.5351562 L27.4067385,13.1745602 C27.3647463,13.2404781 27.3242189,13.3046872 27.2851562,13.3671875 C26.8632791,13.2226555 26.4570332,13.0664071 26.0664062,12.8984375 L26.0664062,17.984375 L25.1757812,17.984375 L25.1757812,17.4570312 L18.859375,17.4570312 L18.859375,17.9960938 L17.96875,17.9960938 L17.96875,12.9570312 C17.5703105,13.1406259 17.1523459,13.3164054 16.7148438,13.484375 C16.5507804,13.2421863 16.3671885,12.9921888 16.1640625,12.734375 C18.1796976,12.0976531 19.724604,11.3203171 20.7988281,10.4023438 L16.5742188,10.4023438 L16.5742188,9.6171875 Z M16.2929688,18.6171875 L27.7070312,18.6171875 L27.7070312,19.4609375 L16.2929688,19.4609375 L16.2929688,18.6171875 Z M21.578125,12.6054688 L21.578125,10.5957031 C20.679683,11.462895 19.5195384,12.2304654 18.0976562,12.8984375 L26.0605469,12.8984375 C24.6191334,12.2851532 23.4023487,11.5253952 22.4101562,10.6191406 L22.4101562,12.6054688 L21.578125,12.6054688 Z M18.859375,16.6484375 L25.1757812,16.6484375 L25.1757812,15.5703125 L18.859375,15.5703125 L18.859375,16.6484375 Z M25.1757812,13.7070312 L18.859375,13.7070312 L18.859375,14.7734375 L25.1757812,14.7734375 L25.1757812,13.7070312 Z M32.4648438,12.0664062 L36.7539062,12.0664062 L36.7539062,17.4101562 L33.3085938,17.4101562 L33.3085938,18.1015625 L32.4648438,18.1015625 L32.4648438,12.0664062 Z M31,12.2070312 C31.9687548,11.0820256 32.7773405,9.77735117 33.4257812,8.29296875 L34.3164062,8.6328125 C34.109374,9.05468961 33.9003917,9.45702934 33.6894531,9.83984375 L39.4023438,9.83984375 L39.2200718,16.14329 C39.2016409,16.6950669 39.1842732,17.1798552 39.1679688,17.5976562 C39.1054684,19.0039133 38.4960995,19.7070312 37.3398438,19.7070312 C36.6289027,19.7070312 35.9921903,19.6875002 35.4296875,19.6484375 C35.3828123,19.3359359 35.3164067,18.9921894 35.2304688,18.6171875 C35.9257847,18.726563 36.5546847,18.78125 37.1171875,18.78125 C37.820316,18.78125 38.1992185,18.3281295 38.2539062,17.421875 L38.2993751,16.3085917 C38.3581252,14.7460925 38.4093748,12.8711047 38.453125,10.6835938 L33.203125,10.6835938 C32.7382789,11.4492226 32.257815,12.1328095 31.7617188,12.734375 C31.5742178,12.5781242 31.3203141,12.4023447 31,12.2070312 Z M31.8085938,17.140625 L31.8385938,17.5943755 C31.8545312,17.8043751 31.8718749,17.9890617 31.890625,18.1484375 L31.3757732,18.4893476 C30.6430113,18.9815357 30.0880701,19.3874274 29.7109375,19.7070312 L29.1601562,18.921875 C29.4257826,18.6953114 29.5585938,18.3593772 29.5585938,17.9140625 L29.5585938,13.2617188 L28.1875,13.2617188 L28.1875,12.4179688 L30.4609375,12.4179688 L30.4609375,18.078125 C30.9062522,17.7812485 31.3554665,17.4687516 31.8085938,17.140625 Z M35.9101562,16.6132812 L35.9101562,15.1015625 L33.3085938,15.1015625 L33.3085938,16.6132812 L35.9101562,16.6132812 Z M35.9101562,12.8632812 L33.3085938,12.8632812 L33.3085938,14.328125 L35.9101562,14.328125 L35.9101562,12.8632812 Z M28.6679688,9.18359375 L29.359375,8.5859375 L30.610352,9.88590538 C30.8512368,10.1403535 31.0514315,10.3554679 31.2109375,10.53125 L30.4140625,11.1992188 C29.9218725,10.550778 29.3398471,9.87890973 28.6679688,9.18359375 Z" id="查询" fill="#FFFFFF" fill-rule="nonzero"></path>
            </g>
            <g id="Group备份-7" transform="translate(52.000000, 48.000000)">
                <rect id="Rectangle" fill="#99AFE1" x="0" y="0" width="56" height="28" rx="4"></rect>
                <path d="M30.7382812,9.23046875 C32.3554768,9.21484367 33.8476494,9.05468902 35.2148438,8.75 L35.5195312,9.65234375 C33.9726485,9.85546977 32.6562554,9.98828094 31.5703125,10.0507812 L31.5703125,12.78125 L35.8476562,12.78125 L35.8476562,13.578125 L34.171875,13.578125 L34.171875,19.71875 L33.3046875,19.71875 L33.3046875,13.578125 L31.5703125,13.578125 L31.5703125,14.1523438 C31.5703125,16.5507932 30.9960995,18.4179621 29.8476562,19.7539062 C29.6601553,19.5117175 29.4531261,19.26172 29.2265625,19.0039062 C30.23438,17.9023382 30.7382812,16.2734483 30.7382812,14.1171875 L30.7382812,9.23046875 Z M24.4921875,14.4921875 L26.8828125,14.4921875 L26.8828125,13.3789062 L27.7265625,13.3789062 L27.7265625,14.4921875 L30.0234375,14.4921875 L30.0234375,15.2421875 L27.7265625,15.2421875 L27.7265625,18.3007812 C27.7265625,19.1289104 27.328129,19.5429688 26.53125,19.5429688 L25.9951173,19.5400391 C25.8056647,19.538086 25.6054698,19.5351563 25.3945312,19.53125 L25.3388672,19.1152345 C25.3173829,18.9667974 25.2929689,18.8085946 25.265625,18.640625 L25.6861986,18.6796876 C25.9448789,18.7005209 26.1601554,18.7109375 26.3320312,18.7109375 C26.6992206,18.7109375 26.8828125,18.5117207 26.8828125,18.1132812 L26.8828125,15.2421875 L24.4921875,15.2421875 L24.4921875,14.4921875 Z M24.1640625,12.3007812 L26.0507812,12.3007812 C25.7187483,11.7734349 25.4062515,11.3203144 25.1132812,10.9414062 L25.7460938,10.4960938 L25.9852521,10.79552 C26.1996969,11.0713485 26.4520075,11.4129444 26.7421875,11.8203125 L26.0800781,12.3007812 L27.6269531,12.3007812 C28.0527365,11.6874969 28.4453107,11.0820342 28.8046875,10.484375 L29.6367188,10.953125 C29.2578106,11.4414087 28.8964861,11.8906229 28.5527344,12.3007812 L30.328125,12.3007812 L30.328125,13.0507812 L24.1640625,13.0507812 L24.1640625,12.3007812 Z M24.5390625,9.58203125 L27.0703125,9.58203125 L26.8007813,9.08105479 C26.7050785,8.9072271 26.6035162,8.72656344 26.4960938,8.5390625 L27.2460938,8.1875 C27.4882825,8.58593949 27.7148427,8.98827922 27.9257812,9.39453125 L27.5332031,9.58203125 L30.0234375,9.58203125 L30.0234375,10.3320312 L24.5390625,10.3320312 L24.5390625,9.58203125 Z M25.3945312,15.7695312 L26.1914062,16.1445312 C25.7695291,17.0273482 25.3515646,17.8242152 24.9375,18.5351562 C24.7109364,18.3945305 24.4531264,18.253907 24.1640625,18.1132812 C24.5468769,17.5195283 24.9570291,16.7382861 25.3945312,15.7695312 Z M28.7695312,15.828125 C29.2070334,16.421878 29.5898421,16.9687475 29.9179688,17.46875 L29.1679688,17.984375 C28.824217,17.3828095 28.4609394,16.8164089 28.078125,16.2851562 L28.7695312,15.828125 Z M37.125,14.3515625 C37.3593762,15.3046923 37.6874979,16.0878876 38.109375,16.7011719 C38.5273458,15.8417926 38.789062,14.8515681 38.8945312,13.7304688 L36.5507812,13.7304688 L36.5507812,12.875 L38.7070312,10.2148438 L36.3164062,10.2148438 L36.3164062,9.41796875 L39.7851562,9.41796875 L39.7851562,10.2148438 L37.5820312,12.9335938 L39.7734375,12.9335938 L39.7734375,13.625 C39.6289055,15.074226 39.2753934,16.3300728 38.7128906,17.3925781 C39.5112345,18.0847203 40.7232669,18.4558491 42.3490205,18.5059739 L42.6796875,18.5117188 C44.1640699,18.5429689 45.8867089,18.5234379 47.8476562,18.453125 L47.4609375,19.3789062 L47.4609375,19.3789062 L42.2695312,19.3554688 L42.2695312,19.3554688 C40.527335,19.3554688 39.1914109,18.9492228 38.2617188,18.1367188 C37.8203103,18.777347 37.2851594,19.3359351 36.65625,19.8125 C36.5312494,19.5859364 36.3710947,19.3320327 36.1757812,19.0507812 C36.7617217,18.6054665 37.2539043,18.0859405 37.6523438,17.4921875 C37.1289036,16.8281217 36.6953142,15.8789124 36.3515625,14.6445312 L37.125,14.3515625 Z" id="新建" fill="#FFFFFF" fill-rule="nonzero"></path>
                <path d="M43.7578125,8.26953125 L43.7578125,9.41796875 L46.4765625,9.41796875 L46.4765625,11.140625 L47.7070312,11.140625 L47.7070312,11.8671875 L46.4765625,11.8671875 L46.4765625,13.90625 L45.6328125,13.90625 L45.6328125,13.5898438 L43.7578125,13.5898438 L43.7578125,14.609375 L46.7109375,14.609375 L46.7109375,15.3125 L43.7578125,15.3125 L43.7578125,16.3320312 L47.25,16.3320312 L47.25,17.0351562 L43.7578125,17.0351562 L43.7578125,18.2421875 L42.890625,18.2421875 L42.890625,17.0351562 L39.890625,17.0351562 L39.890625,16.3320312 L42.890625,16.3320312 L42.890625,15.3125 L40.2890625,15.3125 L40.2890625,14.609375 L42.890625,14.609375 L42.890625,13.5898438 L40.453125,13.5898438 L40.453125,12.8867188 L42.890625,12.8867188 L42.890625,11.8671875 L39.84375,11.8671875 L39.84375,11.140625 L42.890625,11.140625 L42.890625,10.1210938 L40.453125,10.1210938 L40.453125,9.41796875 L42.890625,9.41796875 L42.890625,8.26953125 L43.7578125,8.26953125 Z M45.6328125,11.8671875 L43.7578125,11.8671875 L43.7578125,12.8867188 L45.6328125,12.8867188 L45.6328125,11.8671875 Z M45.6328125,10.1210938 L43.7578125,10.1210938 L43.7578125,11.140625 L45.6328125,11.140625 L45.6328125,10.1210938 Z" id="形状结合" fill="#FFFFFF" fill-rule="nonzero"></path>
                <g id="编组-9" transform="translate(8.000000, 8.000000)">
                    <rect id="矩形" fill="#D8D8D8" opacity="0.01" x="0" y="0" width="12" height="12"></rect>
                    <path d="M6,1 C6.27614237,1 6.5,1.22385763 6.5,1.5 L6.5,5.5 L10.5,5.5 C10.7761424,5.5 11,5.72385763 11,6 C11,6.27614237 10.7761424,6.5 10.5,6.5 L6.499,6.5 L6.5,10.5 C6.5,10.7761424 6.27614237,11 6,11 C5.72385763,11 5.5,10.7761424 5.5,10.5 L5.499,6.5 L1.5,6.5 C1.22385763,6.5 1,6.27614237 1,6 C1,5.72385763 1.22385763,5.5 1.5,5.5 L5.5,5.5 L5.5,1.5 C5.5,1.22385763 5.72385763,1 6,1 Z" id="矩形-3" fill="#FFFFFF"></path>
                </g>
            </g>
            <g id="Group-2备份-3" transform="translate(172.000000, 48.000000)">
                <rect id="Rectangle" stroke="#E7EAED" fill="#F8F8F8" x="0.5" y="0.5" width="55" height="27" rx="4"></rect>
                <path d="M16.2109375,18.59375 L21.578125,18.59375 L21.578125,17.7265625 L17.125,17.7265625 L17.125,17.0351562 L21.578125,17.0351562 L21.578125,16.0507812 L18.4140625,16.0507812 L18.4140625,16.4726562 L17.59375,16.4726562 L17.59375,12.0664062 L21.578125,12.0664062 L21.578125,11.2226562 L16.3046875,11.2226562 L16.3046875,10.4960938 L21.578125,10.4960938 L21.578125,9.57617188 L19.4130861,9.63623049 C18.678713,9.65478513 17.9316444,9.67187492 17.171875,9.6875 C17.1249998,9.43749875 17.0703128,9.17187641 17.0078125,8.890625 L18.9254618,8.86230466 C22.0168289,8.80696621 24.5846252,8.71093818 26.6289062,8.57421875 L26.7695312,9.37109375 L25.0726554,9.44796881 C24.2101574,9.48499999 23.326567,9.51992171 22.421875,9.55273438 L22.421875,10.4960938 L27.7421875,10.4960938 L27.7421875,11.2226562 L22.421875,11.2226562 L22.421875,12.0664062 L26.4414062,12.0664062 L26.4414062,16.4609375 L25.6210938,16.4609375 L25.6210938,16.0507812 L22.421875,16.0507812 L22.421875,17.0351562 L26.8867188,17.0351562 L26.8867188,17.7265625 L22.421875,17.7265625 L22.421875,18.59375 L27.7421875,18.59375 L27.7421875,19.3203125 L16.2109375,19.3203125 L16.2109375,18.59375 Z M22.421875,15.3710938 L25.6210938,15.3710938 L25.6210938,14.3632812 L22.421875,14.3632812 L22.421875,15.3710938 Z M18.4140625,15.3710938 L21.578125,15.3710938 L21.578125,14.3632812 L18.4140625,14.3632812 L18.4140625,15.3710938 Z M25.6210938,12.7460938 L22.421875,12.7460938 L22.421875,13.7421875 L25.6210938,13.7421875 L25.6210938,12.7460938 Z M18.4140625,13.7421875 L21.578125,13.7421875 L21.578125,12.7460938 L18.4140625,12.7460938 L18.4140625,13.7421875 Z M28.1757812,18.7460938 L29.921875,18.7460938 L29.921875,13.3203125 L33.5078125,13.3203125 L33.5078125,12.5585938 L28.4570312,12.5585938 L28.4570312,11.9023438 L33.5078125,11.9023438 L33.5078125,11.28125 L34.3515625,11.28125 L34.3515625,11.9023438 L39.53125,11.9023438 L39.53125,12.5585938 L34.3515625,12.5585938 L34.3515625,13.3203125 L38.1835938,13.3203125 L38.1835938,18.7460938 L39.8007812,18.7460938 L39.8007812,19.4257812 L28.1757812,19.4257812 L28.1757812,18.7460938 Z M30.7421875,18.7460938 L37.3632812,18.7460938 L37.3632812,17.9960938 L30.7421875,17.9960938 L30.7421875,18.7460938 Z M30.7421875,17.3867188 L37.3632812,17.3867188 L37.3632812,16.6484375 L30.7421875,16.6484375 L30.7421875,17.3867188 Z M30.7421875,16.0390625 L37.3632812,16.0390625 L37.3632812,15.3007812 L30.7421875,15.3007812 L30.7421875,16.0390625 Z M37.3632812,13.953125 L30.7421875,13.953125 L30.7421875,14.6914062 L37.3632812,14.6914062 L37.3632812,13.953125 Z" id="重置" fill="#AAADBA" fill-rule="nonzero"></path>
                <path d="M38.7929688,8.7734375 L38.7929688,11.3867188 L37.9960938,11.3867188 L37.9960938,11.1171875 L30.0039062,11.1171875 L30.0039062,11.3867188 L29.1953125,11.3867188 L29.1953125,8.7734375 L38.7929688,8.7734375 Z M37.9960938,9.40625 L35.8398438,9.40625 L35.8398438,10.484375 L37.9960938,10.484375 L37.9960938,9.40625 Z M35.0664062,9.40625 L32.921875,9.40625 L32.921875,10.484375 L35.0664062,10.484375 L35.0664062,9.40625 Z M32.1484375,9.40625 L30.0039062,9.40625 L30.0039062,10.484375 L32.1484375,10.484375 L32.1484375,9.40625 Z" id="形状结合" fill="#AAADBA" fill-rule="nonzero"></path>
            </g>
            <text id="样式二" font-family="MicrosoftYaHei, Microsoft YaHei" font-size="12" font-weight="normal" line-spacing="22" fill="#525A6E">
                <tspan x="8" y="27">样式二</tspan>
            </text>
        </g>
    </g>
</svg>