<?xml version="1.0" encoding="UTF-8"?>
<svg width="241px" height="192px" viewBox="0 0 241 192" version="1.1" xmlns="http://www.w3.org/2000/svg" xmlns:xlink="http://www.w3.org/1999/xlink">
    <!-- Generator: Sketch 58 (84663) - https://sketch.com -->
    <title>selection/style3</title>
    <desc>Created with Sketch.</desc>
    <g id="页面-1" stroke="none" stroke-width="1" fill="none" fill-rule="evenodd">
        <g id="selection/style3">
            <rect id="矩形备份-3" fill-opacity="0.01" fill="#FFFFFF" x="0" y="0" width="241" height="192"></rect>
            <path d="M52.3632812,149.048828 L57.9882812,149.048828 L57.6223952,148.366535 C57.3975691,147.956813 57.2109382,147.637371 57.0625,147.408203 L57.9648438,146.986328 L58.2200521,147.392578 C58.414496,147.710286 58.6575506,148.121742 58.9492188,148.626953 L58.1054688,149.048828 L63.6132812,149.048828 L63.6132812,149.916016 L61.4511719,149.916016 C61.033201,152.146496 60.1347725,153.939446 58.7558594,155.294922 C59.7949271,156.052738 61.4453012,156.732419 63.7070312,157.333984 C63.3476545,157.740236 63.0742197,158.080077 62.8867188,158.353516 C60.6835827,157.591793 59.0566459,156.794926 58.0058594,155.962891 C56.9511666,156.783207 55.2656366,157.611324 52.9492188,158.447266 L52.6210942,158.013672 C52.5039069,157.861329 52.3789069,157.701173 52.2460938,157.533203 C54.4804799,156.861325 56.1621037,156.113285 57.2910156,155.289062 C55.8652272,153.765617 54.9589863,151.97462 54.5722656,149.916016 L52.3632812,149.916016 L52.3632812,149.048828 Z M60.4492188,149.916016 L55.5097656,149.916016 C55.8613299,151.8379 56.7011652,153.425775 58.0292969,154.679688 C59.2988345,153.499994 60.105467,151.912119 60.4492188,149.916016 Z M75.7773438,155.494141 L75.4257815,155.851562 C75.2929693,155.988281 75.1445321,156.142577 74.9804688,156.314453 C73.0898343,154.857415 71.5820369,152.990246 70.4570312,150.712891 L70.4570312,155.353516 L73.140625,155.353516 L73.140625,156.173828 L70.4570312,156.173828 L70.4570312,158.576172 L69.5429688,158.576172 L69.5429688,156.173828 L66.765625,156.173828 L66.765625,155.353516 L69.5429688,155.353516 L69.5429688,150.712891 C68.54687,152.697276 67.0195415,154.611319 64.9609375,156.455078 L64.6178121,156.134453 C64.4575,155.987266 64.3140631,155.859766 64.1875,155.751953 C66.4101674,153.927725 68.0722601,151.998057 69.1738281,149.962891 L64.4453125,149.962891 L64.4453125,149.095703 L69.5429688,149.095703 L69.5429688,146.986328 L70.4570312,146.986328 L70.4570312,149.095703 L75.5546875,149.095703 L75.5546875,149.962891 L70.7910156,149.962891 C72.0332093,152.29884 73.6953021,154.142571 75.7773438,155.494141 Z M77.171875,152.845703 L78.2265625,152.845703 L78.2265625,150.712891 L79,150.712891 L79,152.845703 L80.125,152.845703 L80.125,153.619141 L79,153.619141 L79,155.224609 C79.4140646,155.169922 79.8359354,155.107422 80.265625,155.037109 C80.2265623,155.333986 80.1992188,155.603514 80.1835938,155.845703 L79,156.009766 L79,156.009766 L79,158.623047 L78.2265625,158.623047 L78.2265625,156.126953 C77.5937468,156.220704 76.9570345,156.318359 76.3164062,156.419922 L76.1875,155.564453 C76.8593784,155.49414 77.5390591,155.416016 78.2265625,155.330078 L78.2265625,153.619141 L76.3515625,153.619141 L76.3515625,152.810547 C76.648439,151.974605 76.9570296,150.912116 77.2773438,149.623047 L76.2460938,149.623047 L76.2460938,148.873047 L77.4648438,148.873047 C77.5976569,148.310544 77.7343743,147.708988 77.875,147.068359 L78.71875,147.255859 L78.296875,148.873047 L78.296875,148.873047 L80.4179688,148.873047 L80.4179688,149.623047 L78.0976562,149.623047 L77.846435,150.536379 C77.6018062,151.41382 77.3769542,152.18359 77.171875,152.845703 Z M81.2734375,158.599609 L80.5234375,158.599609 L80.5234375,151.697266 L83.640625,151.697266 L83.640625,157.462891 C83.640625,158.150394 83.3242219,158.494141 82.6914062,158.494141 L81.7773438,158.482422 L81.7773438,158.482422 L81.6132812,157.755859 L81.6132812,157.755859 C81.9257828,157.779297 82.2109362,157.791016 82.46875,157.791016 C82.7500014,157.791016 82.890625,157.634767 82.890625,157.322266 L82.890625,155.962891 L81.2734375,155.962891 L81.2734375,158.599609 Z M84.6601562,147.150391 L84.4609375,147.408203 C85.3750046,148.78321 86.5195244,149.767575 87.8945312,150.361328 C87.6289049,150.67383 87.425782,150.943358 87.2851562,151.169922 C86.7539036,150.873045 86.261721,150.537111 85.8085938,150.162109 L85.8085938,150.748047 L81.7421875,150.748047 L81.7421875,150.232422 C81.2812477,150.615236 80.8007837,150.966795 80.3007812,151.287109 C80.0664051,150.98242 79.8593759,150.744141 79.6796875,150.572266 C81.2343828,149.666011 82.4882765,148.525397 83.4414062,147.150391 L84.6601562,147.150391 Z M86.40625,151.486328 L87.203125,151.486328 L87.203125,157.193359 C87.203125,158.060551 86.8359412,158.498047 86.1015625,158.505859 C85.703123,158.513672 85.2460963,158.505859 84.7304688,158.482422 C84.6914061,158.193358 84.6367191,157.900392 84.5664062,157.603516 C85.0585962,157.666016 85.480467,157.697266 85.8320312,157.697266 C86.2148457,157.697266 86.40625,157.494143 86.40625,157.087891 L86.40625,151.486328 Z M83.8867188,148.017578 C83.3007783,148.751957 82.6679721,149.416013 81.9882812,150.009766 L85.6210938,150.009766 C84.9570279,149.431638 84.3789087,148.767582 83.8867188,148.017578 Z M84.6132812,152.048828 L85.3632812,152.048828 L85.3632812,156.314453 L84.6132812,156.314453 L84.6132812,152.048828 Z M81.2734375,155.306641 L82.890625,155.306641 L82.890625,154.181641 L81.2734375,154.181641 L81.2734375,155.306641 Z M82.890625,152.412109 L81.2734375,152.412109 L81.2734375,153.525391 L82.890625,153.525391 L82.890625,152.412109 Z M91.4335938,147.724609 L92.2070312,147.173828 C93.0820356,147.712893 94.0429635,149.095692 95.0898438,151.322266 C96.5507886,154.517594 98.1367102,156.466793 99.8476562,157.169922 L99.0273438,158.201172 C97.3876871,157.22786 95.8664407,155.221369 94.4635628,152.181642 L94.0494794,151.271485 C94.011285,151.189454 93.9733075,151.108724 93.9355469,151.029297 C93.0292923,154.134781 91.3437623,156.54882 88.8789062,158.271484 C88.6679677,157.958983 88.4296888,157.666017 88.1640625,157.392578 C90.6992314,155.794914 92.4062456,153.267595 93.2851562,149.810547 C92.6718719,148.787104 92.0546906,148.091799 91.4335938,147.724609 Z M104.640625,147.736328 L111.554688,147.736328 L111.554688,148.580078 L105.519531,148.580078 L105.519531,157.228516 L111.71875,157.228516 L111.71875,158.072266 L104.640625,158.072266 L104.640625,147.736328 Z M100.164062,154.369141 C100.988285,153.064447 101.57617,151.650398 101.927734,150.126953 L100.246094,150.126953 L100.246094,149.306641 L101.933594,149.306641 L101.933594,147.021484 L102.800781,147.021484 L102.800781,149.306641 L104.265625,149.306641 L104.265625,150.126953 L102.800781,150.126953 L102.800781,151.996094 L103.316406,151.521484 L103.621572,151.841957 C103.890226,152.13054 104.194753,152.472933 104.535156,152.869141 L103.890625,153.466797 C103.570311,153.037107 103.207033,152.587893 102.800781,152.119141 L102.800781,158.576172 L101.933594,158.576172 L101.933594,152.300781 C101.531248,153.613288 101.066409,154.646481 100.539062,155.400391 C100.437499,155.064451 100.312501,154.720705 100.164062,154.369141 Z M105.917969,154.978516 L108.296875,154.978516 L108.296875,153.173828 L106.421875,153.173828 L106.421875,152.376953 L108.296875,152.376953 L108.296875,150.689453 L106.210938,150.689453 L106.210938,149.892578 L111.296875,149.892578 L111.296875,150.689453 L109.164062,150.689453 L109.164062,152.376953 L111.039062,152.376953 L111.039062,153.173828 L109.164062,153.173828 L109.164062,154.978516 L111.542969,154.978516 L111.542969,155.775391 L105.917969,155.775391 L105.917969,154.978516 Z" id="文本输入框" fill="#333333" fill-rule="nonzero"></path>
            <rect id="矩形" fill="#FD6868" x="52" y="166" width="177" height="1"></rect>
            <g id="编组-2" transform="translate(213.000000, 148.000000)">
                <rect id="矩形" fill="#D8D8D8" opacity="0.01" x="0" y="0" width="10" height="10"></rect>
                <path d="M3.07437422,1.34394406 C3.3505166,1.34394406 3.57437422,1.56780169 3.57437422,1.84394406 L3.57437422,5.34394406 L7.07437422,5.34394406 C7.3505166,5.34394406 7.57437422,5.56780169 7.57437422,5.84394406 C7.57437422,6.12008644 7.3505166,6.34394406 7.07437422,6.34394406 L3.07437422,6.34394406 L3.07437422,6.34394406 C2.79823185,6.34394406 2.57437422,6.12008644 2.57437422,5.84394406 L2.57437422,1.84394406 C2.57437422,1.56780169 2.79823185,1.34394406 3.07437422,1.34394406 Z" id="矩形-2" fill="#666666" transform="translate(5.074374, 3.843944) rotate(-45.000000) translate(-5.074374, -3.843944) "></path>
            </g>
            <path d="M56.1015625,178.606445 L61.0722656,178.606445 L61.0722656,183.323242 L60.3300781,183.323242 L60.3300781,182.756836 L56.84375,182.756836 L56.84375,183.323242 L56.1015625,183.323242 L56.1015625,178.606445 Z M55.4472656,177.112305 L56.8828125,177.112305 L56.8828125,175.803711 L55.7402344,175.803711 L55.7402344,175.139648 L56.8828125,175.139648 L56.8828125,173.733398 L57.625,173.733398 L57.625,175.139648 L59.4023438,175.139648 L59.4023438,173.733398 L60.1445312,173.733398 L60.1445312,175.139648 L61.5214844,175.139648 L61.5214844,175.803711 L60.1445312,175.803711 L60.1445312,177.112305 L61.8046875,177.112305 L61.8046875,177.776367 L55.4472656,177.776367 L55.4472656,177.112305 Z M55.2519531,180.676758 L55.3374024,181.07959 C55.3650716,181.20166 55.391927,181.311523 55.4179688,181.40918 L54.5952144,182.197754 C54.352702,182.433756 54.141928,182.642903 53.9628906,182.825195 L53.7628909,183.087695 C53.7399742,183.118424 53.7154949,183.151367 53.6894531,183.186523 L53.1523438,182.581055 C53.3346363,182.379231 53.4257812,182.08301 53.4257812,181.692383 L53.4257812,179.553711 L52.1757812,179.553711 L52.1757812,178.870117 L53.4257812,178.870117 L53.4257812,177.65918 L53.0058594,177.65918 L53.0058594,176.975586 L55.0957031,176.975586 L55.0957031,177.65918 L54.1386719,177.65918 L54.1386719,178.870117 L55.359375,178.870117 L55.359375,179.553711 L54.1386719,179.553711 L54.1386719,181.72168 C54.5488302,181.350584 54.9199202,181.00228 55.2519531,180.676758 Z M52.1171875,177.053711 C52.6770861,176.142248 53.0970038,175.022468 53.3769531,173.694336 L54.109375,173.850586 C53.9954421,174.316083 53.8668627,174.762042 53.7236328,175.188477 L55.3984375,175.188477 L55.3984375,175.87207 L53.4746094,175.87207 C53.2011705,176.578454 52.8821633,177.226234 52.5175781,177.81543 C52.3938796,177.568033 52.2604174,177.314129 52.1171875,177.053711 Z M56.84375,182.112305 L60.3300781,182.112305 L60.3300781,180.989258 L56.84375,180.989258 L56.84375,182.112305 Z M60.3300781,179.250977 L56.84375,179.250977 L56.84375,180.364258 L60.3300781,180.364258 L60.3300781,179.250977 Z M57.625,177.112305 L59.4023438,177.112305 L59.4023438,175.803711 L57.625,175.803711 L57.625,177.112305 Z M64.8417969,179.680664 L67.7910156,179.680664 C67.8365888,179.384439 67.8626302,179.000328 67.8691406,178.52832 L65.1933594,178.52832 L65.1933594,177.844727 L71.4824219,177.844727 L71.4824219,178.52832 L68.6308594,178.52832 C68.6210937,179.016604 68.5999351,179.400715 68.5673828,179.680664 L71.8242188,179.680664 L71.8242188,180.364258 L68.8066406,180.364258 C69.3860706,181.510097 70.430982,182.242511 71.9414062,182.561523 L71.6166991,182.95459 C71.5174155,183.07666 71.4270837,183.189778 71.3457031,183.293945 C69.8417894,182.85449 68.8017607,181.980475 68.2255859,180.671875 C67.7926411,181.840501 66.7428469,182.724281 65.0761719,183.323242 C64.9199211,183.121418 64.7441416,182.909832 64.5488281,182.688477 C66.16993,182.174151 67.1888,181.399419 67.6054688,180.364258 L64.8417969,180.364258 L64.8417969,179.680664 Z M65.6328125,174.133789 L70.984375,174.133789 L70.984375,177.327148 L70.2421875,177.327148 L70.2421875,176.887695 L66.375,176.887695 L66.375,177.327148 L65.6328125,177.327148 L65.6328125,174.133789 Z M65.1933594,180.774414 L65.2183594,181.152539 C65.2316406,181.327539 65.2460937,181.481445 65.2617188,181.614258 L64.7432952,181.958587 C64.1767278,182.341738 63.7440698,182.659902 63.4453125,182.913086 L62.9863281,182.258789 C63.2076834,182.076496 63.3183594,181.793296 63.3183594,181.40918 L63.3183594,177.756836 L62.15625,177.756836 L62.15625,177.053711 L64.0703125,177.053711 L64.0703125,181.555664 L64.6928714,181.130859 C64.8800454,181.000651 65.0468743,180.881836 65.1933594,180.774414 Z M70.2421875,174.788086 L66.375,174.788086 L66.375,176.233398 L70.2421875,176.233398 L70.2421875,174.788086 Z M63.2988281,173.948242 C63.7675805,174.423505 64.2330706,174.928057 64.6953125,175.461914 L64.0214844,176.02832 C63.5917947,175.481443 63.152346,174.960614 62.703125,174.46582 L63.2988281,173.948242 Z M76.0136719,174.124023 L80.8867188,174.124023 L80.8867188,177.981445 L80.1835938,177.981445 L80.1835938,177.698242 L76.7167969,177.698242 L76.7167969,177.981445 L76.0136719,177.981445 L76.0136719,174.124023 Z M74.4902344,182.874023 C75.4082077,182.10579 75.9225255,181.005541 76.0332031,179.573242 L76.765625,179.573242 C76.7330728,180.028974 76.6663417,180.455402 76.5654297,180.852539 C76.9788432,181.484053 77.5175748,181.910481 78.1816406,182.131836 L78.1816406,179.192383 L75.1640625,179.192383 L75.1640625,178.547852 L81.7460938,178.547852 L81.7460938,179.192383 L78.9140625,179.192383 L78.9140625,180.286133 L81.3652344,180.286133 L81.3652344,180.911133 L78.9140625,180.911133 L78.9140625,182.288086 L79.1199656,182.305968 C79.62853,182.338318 80.5429621,182.329102 81.8632812,182.27832 L81.6386719,183.000977 L81.6386719,183.000977 C81.0576143,183.015625 80.4600839,183.013794 79.8460705,182.995483 L79.2265625,182.97168 C77.9114518,182.955404 76.9446646,182.493169 76.3261719,181.584961 C76.052733,182.265303 75.6556016,182.847979 75.1347656,183.333008 C74.9394521,183.170247 74.7246105,183.017253 74.4902344,182.874023 Z M72.1269531,178.870117 C72.5436219,178.69108 72.9635396,178.50228 73.3867188,178.303711 L73.3867188,176.223633 L72.2050781,176.223633 L72.2050781,175.55957 L73.3867188,175.55957 L73.3867188,173.743164 L74.1289062,173.743164 L74.1289062,175.55957 L75.3789062,175.55957 L75.3789062,176.223633 L74.1289062,176.223633 L74.1289062,177.942383 C74.5032571,177.756835 74.8776023,177.561524 75.2519531,177.356445 C75.2714845,177.610353 75.2975259,177.870767 75.3300781,178.137695 L74.1289062,178.738281 L74.1289062,178.738281 L74.1289062,182.141602 C74.1289062,182.773115 73.8880232,183.114909 73.40625,183.166992 C73.0677066,183.199544 72.6868511,183.20931 72.2636719,183.196289 C72.2246092,182.92285 72.1822919,182.652671 72.1367188,182.385742 L72.5414067,182.423242 C72.73125,182.437305 72.902343,182.444336 73.0546875,182.444336 C73.2760428,182.444336 73.3867188,182.323894 73.3867188,182.083008 L73.3867188,179.119141 C72.9960918,179.320965 72.6087259,179.524413 72.2246094,179.729492 L72.1269531,178.870117 Z M76.7167969,177.073242 L80.1835938,177.073242 L80.1835938,176.213867 L76.7167969,176.213867 L76.7167969,177.073242 Z M80.1835938,174.749023 L76.7167969,174.749023 L76.7167969,175.598633 L80.1835938,175.598633 L80.1835938,174.749023 Z M82.15625,177.200195 L91.84375,177.200195 L91.84375,177.932617 L87.6542969,177.932617 L87.6542969,181.87793 C87.6542969,182.691736 87.2278688,183.101888 86.375,183.108398 L85.1828134,183.102148 C85.0746102,183.101107 84.9641933,183.099935 84.8515625,183.098633 L84.7856446,182.673828 C84.7612306,182.524089 84.7343751,182.366212 84.7050781,182.200195 C85.2194036,182.252279 85.7044248,182.27832 86.1601562,182.27832 C86.6028668,182.27832 86.8242188,182.060224 86.8242188,181.624023 L86.8242188,177.932617 L82.15625,177.932617 L82.15625,177.200195 Z M83.0546875,174.319336 L90.9746094,174.319336 L90.9746094,175.051758 L83.0546875,175.051758 L83.0546875,174.319336 Z M88.8945312,179.114258 L89.5488281,178.674805 C90.3496134,179.657883 91.1243452,180.683263 91.8730469,181.750977 L91.1601562,182.219727 L90.5644519,181.362791 C89.9785147,180.532713 89.4218776,179.783206 88.8945312,179.114258 Z M84.3144531,178.655273 L85.0273438,179.055664 C84.3437466,180.240566 83.6145872,181.366857 82.8398438,182.43457 C82.6380198,182.28483 82.4231782,182.131837 82.1953125,181.975586 C82.9244828,181.031571 83.630856,179.924811 84.3144531,178.655273 Z M92.3027344,175.374023 L96.9902344,175.374023 L96.7570795,174.937011 C96.5373529,174.531737 96.3579109,174.221681 96.21875,174.006836 L96.9707031,173.655273 L97.1833767,173.993815 C97.3454134,174.258571 97.5479589,174.601452 97.7910156,175.022461 L97.0878906,175.374023 L101.677734,175.374023 L101.677734,176.09668 L99.8759766,176.09668 C99.5276675,177.955413 98.7789771,179.449539 97.6298828,180.579102 C98.4957726,181.210615 99.8710843,181.777016 101.755859,182.27832 C101.456379,182.616864 101.228516,182.900064 101.072266,183.12793 C99.2363189,182.493161 97.8805382,181.829105 97.0048828,181.135742 C96.1259722,181.819339 94.7213638,182.509437 92.7910156,183.206055 L92.5175782,182.844727 C92.4199222,182.717774 92.3157558,182.584311 92.2050781,182.444336 C94.0670666,181.884437 95.4684198,181.261071 96.4091797,180.574219 C95.2210227,179.304681 94.4658219,177.812183 94.1435547,176.09668 L92.3027344,176.09668 L92.3027344,175.374023 Z M99.0410156,176.09668 L94.9248047,176.09668 C95.2177749,177.69825 95.9176377,179.021479 97.0244141,180.066406 C98.0823621,179.083328 98.7545559,177.760099 99.0410156,176.09668 Z M102.195312,179.456055 L106.775391,179.456055 L106.775391,178.84082 L108.699219,177.629883 L103.972656,177.629883 L103.972656,176.916992 L109.890625,176.916992 L109.890625,177.708008 L107.576172,179.192383 L107.576172,179.456055 L111.84375,179.456055 L111.84375,180.178711 L107.576172,180.178711 L107.576172,181.975586 C107.576172,182.802413 107.162765,183.21582 106.335938,183.21582 L105.897858,183.213074 C105.618623,183.210022 105.279624,183.204427 104.880859,183.196289 L104.832031,182.793457 C104.8125,182.648601 104.789714,182.493165 104.763672,182.327148 C105.277997,182.398763 105.733722,182.43457 106.130859,182.43457 C106.560549,182.43457 106.775391,182.203453 106.775391,181.741211 L106.775391,180.178711 L102.195312,180.178711 L102.195312,179.456055 Z M102.566406,175.149414 L107.058594,175.149414 C106.817707,174.807615 106.527996,174.43327 106.189453,174.026367 L106.84375,173.586914 C107.253908,174.036135 107.592447,174.452798 107.859375,174.836914 L107.395508,175.149414 L111.511719,175.149414 L111.511719,177.131836 L110.720703,177.131836 L110.720703,175.862305 L103.347656,175.862305 L103.347656,177.131836 L102.566406,177.131836 L102.566406,175.149414 Z" id="错误提示文字" fill="#FD6868" fill-rule="nonzero"></path>
            <rect id="矩形" fill="#EFF6FF" x="52" y="60" width="177" height="20"></rect>
            <g id="编组-2" transform="translate(213.000000, 65.000000)">
                <rect id="矩形" fill="#D8D8D8" opacity="0.01" x="0" y="0" width="10" height="10"></rect>
                <path d="M3.07437422,1.34394406 C3.3505166,1.34394406 3.57437422,1.56780169 3.57437422,1.84394406 L3.57437422,5.34394406 L7.07437422,5.34394406 C7.3505166,5.34394406 7.57437422,5.56780169 7.57437422,5.84394406 C7.57437422,6.12008644 7.3505166,6.34394406 7.07437422,6.34394406 L3.07437422,6.34394406 L3.07437422,6.34394406 C2.79823185,6.34394406 2.57437422,6.12008644 2.57437422,5.84394406 L2.57437422,1.84394406 C2.57437422,1.56780169 2.79823185,1.34394406 3.07437422,1.34394406 Z" id="矩形-2" fill="#666666" transform="translate(5.074374, 3.843944) rotate(-45.000000) translate(-5.074374, -3.843944) "></path>
            </g>
            <g id="编组-2" opacity="0.5" transform="translate(213.000000, 107.000000)">
                <rect id="矩形" fill="#D8D8D8" opacity="0.01" x="0" y="0" width="10" height="10"></rect>
                <path d="M3.07437422,1.34394406 C3.3505166,1.34394406 3.57437422,1.56780169 3.57437422,1.84394406 L3.57437422,5.34394406 L7.07437422,5.34394406 C7.3505166,5.34394406 7.57437422,5.56780169 7.57437422,5.84394406 C7.57437422,6.12008644 7.3505166,6.34394406 7.07437422,6.34394406 L3.07437422,6.34394406 L3.07437422,6.34394406 C2.79823185,6.34394406 2.57437422,6.12008644 2.57437422,5.84394406 L2.57437422,1.84394406 C2.57437422,1.56780169 2.79823185,1.34394406 3.07437422,1.34394406 Z" id="矩形-2" fill="#666666" transform="translate(5.074374, 3.843944) rotate(-45.000000) translate(-5.074374, -3.843944) "></path>
            </g>
            <path d="M57.2265625,76.4824219 L56.3125,76.4824219 L56.3125,70.5410156 L62.828125,70.5410156 L62.828125,75.0996094 C62.828125,75.9433636 62.3945356,76.3691406 61.5273438,76.3769531 L60.6108905,76.3865195 C60.3502086,76.3879544 60.0658498,76.3886719 59.7578125,76.3886719 C59.7187498,76.1386706 59.6601566,75.8378924 59.5820312,75.4863281 L60.1340094,75.520767 C60.5684798,75.5446828 60.9391726,75.5566406 61.2460938,75.5566406 C61.6914085,75.5566406 61.9140625,75.3535177 61.9140625,74.9472656 L61.9140625,74.3613281 L57.2265625,74.3613281 L57.2265625,76.4824219 Z M55.28125,69.0878906 L59.0664062,69.0878906 L59.0664062,68.2792969 L56.0664062,68.2792969 L56.0664062,67.5410156 L59.0664062,67.5410156 L59.0664062,66.7558594 L55.65625,66.7558594 L55.65625,66.0175781 L59.0664062,66.0175781 L59.0664062,64.9628906 L60.015625,64.9628906 L60.015625,66.0175781 L63.5898438,66.0175781 L63.5898438,66.7558594 L60.015625,66.7558594 L60.015625,67.5410156 L63.2851562,67.5410156 L63.2851562,68.2792969 L60.015625,68.2792969 L60.015625,69.0878906 L63.8242188,69.0878906 L63.8242188,69.8261719 L55.28125,69.8261719 L55.28125,69.0878906 Z M55.8554688,73.5878906 C55.8789064,73.9785176 55.9062498,74.3183579 55.9375,74.6074219 C55.0937458,75.1699247 54.3789092,75.6777321 53.7929688,76.1308594 L53.2539062,75.3574219 C53.5195326,75.1074206 53.6523438,74.7675803 53.6523438,74.3378906 L53.6523438,69.9082031 L52.2226562,69.9082031 L52.2226562,69.0527344 L54.5429688,69.0527344 L54.5429688,74.5136719 C54.9804709,74.2167954 55.4179666,73.9082047 55.8554688,73.5878906 Z M61.9140625,71.2910156 L57.2265625,71.2910156 L57.2265625,72.0996094 L61.9140625,72.0996094 L61.9140625,71.2910156 Z M57.2265625,73.6347656 L61.9140625,73.6347656 L61.9140625,72.8261719 L57.2265625,72.8261719 L57.2265625,73.6347656 Z M53.546875,65.3613281 C54.1875032,65.9941438 54.7539038,66.5839816 55.2460938,67.1308594 L54.4257812,67.8105469 C53.8867161,67.1152309 53.3593776,66.4980496 52.84375,65.9589844 L53.546875,65.3613281 Z M67.2929688,69.8378906 L71.171875,69.8378906 L71.171875,67.8808594 L69.1972656,67.8808594 C68.9628895,68.4746123 68.7187513,69.005857 68.4648438,69.4746094 C68.2617177,69.3417962 67.988283,69.2011726 67.6445312,69.0527344 C68.2539093,67.9824165 68.7070298,66.7949284 69.0039062,65.4902344 L69.9179688,65.6894531 C69.7812493,66.1777368 69.6386726,66.6386697 69.4902344,67.0722656 L71.171875,67.0722656 L71.171875,65.0332031 L72.0859375,65.0332031 L72.0859375,67.0722656 L75.1445312,67.0722656 L75.1445312,67.8808594 L72.0859375,67.8808594 L72.0859375,69.8378906 L75.7070312,69.8378906 L75.7070312,70.6464844 L72.9414062,70.6464844 L72.9414062,73.1542969 C72.9414062,73.5683614 73.1132795,73.7753906 73.4570312,73.7753906 L74.0195312,73.7753906 C74.378908,73.7753906 74.5859372,73.5878925 74.640625,73.2128906 C74.6875002,72.9082016 74.7304686,72.4472687 74.7695312,71.8300781 C75.01172,71.9394537 75.308592,72.0527338 75.6601562,72.1699219 C75.5976559,72.7089871 75.5312504,73.1621075 75.4609375,73.5292969 C75.3359369,74.2246129 74.8906288,74.5722656 74.125,74.5722656 L73.2578125,74.5722656 C72.4453084,74.5722656 72.0390625,74.1308638 72.0390625,73.2480469 L72.0390625,70.6464844 L70.4628906,70.6464844 L70.4526367,71.1503908 C70.4501953,71.2294921 70.4473877,71.3061521 70.4442139,71.3803708 L70.4335938,71.5957031 C70.3867185,73.0566479 69.5664142,74.1386684 67.9726562,74.8417969 C67.8164055,74.6152332 67.6210949,74.3535171 67.3867188,74.0566406 C68.7617256,73.4863253 69.4765622,72.666021 69.53125,71.5957031 L69.5490625,71.2750782 C69.5575,71.0950787 69.5652343,70.8855481 69.5722656,70.6464844 L67.2929688,70.6464844 L67.2929688,69.8378906 Z M69.0507812,75.3691406 L71.5,75.3925781 L75.8125,75.3105469 L75.698125,75.6442969 C75.6353127,75.823359 75.5640629,76.020702 75.484375,76.2363281 L71.4003906,76.2832031 L68.9453125,76.2480469 C67.5390555,76.2011716 66.5664089,75.7285201 66.0273438,74.8300781 C65.7070296,75.1269546 65.2382843,75.6503869 64.6210938,76.4003906 L64.140625,75.4277344 L65.640625,73.9921875 L65.640625,73.9921875 L65.640625,70.0488281 L64.2460938,70.0488281 L64.2460938,69.1816406 L66.5429688,69.1816406 L66.5429688,74.1914062 C67.0234399,74.9609413 67.859369,75.3535155 69.0507812,75.3691406 Z M64.8554688,65.7480469 L65.6054688,65.2441406 L65.8375198,65.5335264 C66.2076772,66.0053753 66.6771989,66.6471905 67.2460938,67.4589844 L66.4140625,68.0449219 L65.8751162,67.2131233 C65.4797259,66.6137487 65.1398452,66.1253925 64.8554688,65.7480469 Z M79.7617188,73.6347656 L83.40625,73.6347656 L83.40625,72.2753906 L80.4765625,72.2753906 L80.4765625,71.4316406 L83.40625,71.4316406 L83.40625,70.0957031 L84.296875,70.0957031 L84.296875,71.4316406 L87.296875,71.4316406 L87.296875,72.2753906 L84.296875,72.2753906 L84.296875,73.6347656 L87.8476562,73.6347656 L87.8476562,74.4785156 L84.296875,74.4785156 L84.296875,76.4824219 L83.40625,76.4824219 L83.40625,74.4785156 L79.7617188,74.4785156 L79.7617188,73.6347656 Z M76.28125,72.2988281 L76.1640625,71.3378906 L77.2786453,71.0800783 C77.4600686,71.0371096 77.639322,70.9941408 77.8164062,70.9511719 L77.8164062,68.1621094 L76.2695312,68.1621094 L76.2695312,67.3417969 L77.8164062,67.3417969 L77.8164062,65.0566406 L78.6953125,65.0566406 L78.6953125,67.3417969 L80.1953125,67.3417969 L80.1953125,68.1621094 L78.6953125,68.1621094 L78.6953125,70.7285156 C79.1210959,70.6191401 79.531248,70.5097662 79.9257812,70.4003906 C79.9414063,70.7441423 79.9687498,71.033202 80.0078125,71.2675781 L79.1197921,71.5071613 C78.9761291,71.5466578 78.8346361,71.5859373 78.6953125,71.625 L78.6953125,75.1230469 C78.6953125,75.9902387 78.3007852,76.4238281 77.5117188,76.4238281 L76.7866221,76.4106446 C76.6723642,76.4077149 76.5468757,76.4042969 76.4101562,76.4003906 C76.3789061,76.0800765 76.3281254,75.7636734 76.2578125,75.4511719 L76.6705736,75.5032553 C76.9240456,75.5310331 77.1341138,75.5449219 77.3007812,75.5449219 C77.644533,75.5449219 77.8164062,75.3378927 77.8164062,74.9238281 L77.8164062,71.8652344 L76.28125,72.2988281 L76.28125,72.2988281 Z" id="请选择" fill="#333333" fill-rule="nonzero"></path>
            <path d="M87.0507812,65.6074219 L87.0507812,66.3925781 C86.5468725,67.3105515 85.7851613,68.1113247 84.765625,68.7949219 C85.6289106,69.1503924 86.656244,69.4042961 87.8476562,69.5566406 L87.5781249,70.051758 C87.4960938,70.2060545 87.4218753,70.3496087 87.3554688,70.4824219 C85.9882744,70.2167955 84.8281298,69.8300807 83.875,69.3222656 C82.8867138,69.8417995 81.7148505,70.2753889 80.359375,70.6230469 C80.2656245,70.349608 80.1328134,70.0605484 79.9609375,69.7558594 C81.1289121,69.4863268 82.1425738,69.1621113 83.0019531,68.7832031 C82.0996049,68.1386687 81.4453145,67.349614 81.0390625,66.4160156 L80.359375,66.4160156 L80.359375,65.6074219 L87.0507812,65.6074219 Z M86.0078125,66.4160156 L81.9238281,66.4160156 C82.3457052,67.2011758 82.9941362,67.8476537 83.8691406,68.3554688 C84.8496143,67.8046847 85.5624978,67.1582068 86.0078125,66.4160156 L86.0078125,66.4160156 Z" id="形状结合" fill="#333333" fill-rule="nonzero"></path>
            <path d="M57.2265625,35.4824219 L56.3125,35.4824219 L56.3125,29.5410156 L62.828125,29.5410156 L62.828125,34.0996094 C62.828125,34.9433636 62.3945356,35.3691406 61.5273438,35.3769531 L60.6108905,35.3865195 C60.3502086,35.3879544 60.0658498,35.3886719 59.7578125,35.3886719 C59.7187498,35.1386706 59.6601566,34.8378924 59.5820312,34.4863281 L60.1340094,34.520767 C60.5684798,34.5446828 60.9391726,34.5566406 61.2460938,34.5566406 C61.6914085,34.5566406 61.9140625,34.3535177 61.9140625,33.9472656 L61.9140625,33.3613281 L57.2265625,33.3613281 L57.2265625,35.4824219 Z M55.28125,28.0878906 L59.0664062,28.0878906 L59.0664062,27.2792969 L56.0664062,27.2792969 L56.0664062,26.5410156 L59.0664062,26.5410156 L59.0664062,25.7558594 L55.65625,25.7558594 L55.65625,25.0175781 L59.0664062,25.0175781 L59.0664062,23.9628906 L60.015625,23.9628906 L60.015625,25.0175781 L63.5898438,25.0175781 L63.5898438,25.7558594 L60.015625,25.7558594 L60.015625,26.5410156 L63.2851562,26.5410156 L63.2851562,27.2792969 L60.015625,27.2792969 L60.015625,28.0878906 L63.8242188,28.0878906 L63.8242188,28.8261719 L55.28125,28.8261719 L55.28125,28.0878906 Z M55.8554688,32.5878906 C55.8789064,32.9785176 55.9062498,33.3183579 55.9375,33.6074219 C55.0937458,34.1699247 54.3789092,34.6777321 53.7929688,35.1308594 L53.2539062,34.3574219 C53.5195326,34.1074206 53.6523438,33.7675803 53.6523438,33.3378906 L53.6523438,28.9082031 L52.2226562,28.9082031 L52.2226562,28.0527344 L54.5429688,28.0527344 L54.5429688,33.5136719 C54.9804709,33.2167954 55.4179666,32.9082047 55.8554688,32.5878906 Z M61.9140625,30.2910156 L57.2265625,30.2910156 L57.2265625,31.0996094 L61.9140625,31.0996094 L61.9140625,30.2910156 Z M57.2265625,32.6347656 L61.9140625,32.6347656 L61.9140625,31.8261719 L57.2265625,31.8261719 L57.2265625,32.6347656 Z M53.546875,24.3613281 C54.1875032,24.9941438 54.7539038,25.5839816 55.2460938,26.1308594 L54.4257812,26.8105469 C53.8867161,26.1152309 53.3593776,25.4980496 52.84375,24.9589844 L53.546875,24.3613281 Z M67.2929688,28.8378906 L71.171875,28.8378906 L71.171875,26.8808594 L69.1972656,26.8808594 C68.9628895,27.4746123 68.7187513,28.005857 68.4648438,28.4746094 C68.2617177,28.3417962 67.988283,28.2011726 67.6445312,28.0527344 C68.2539093,26.9824165 68.7070298,25.7949284 69.0039062,24.4902344 L69.9179688,24.6894531 C69.7812493,25.1777368 69.6386726,25.6386697 69.4902344,26.0722656 L71.171875,26.0722656 L71.171875,24.0332031 L72.0859375,24.0332031 L72.0859375,26.0722656 L75.1445312,26.0722656 L75.1445312,26.8808594 L72.0859375,26.8808594 L72.0859375,28.8378906 L75.7070312,28.8378906 L75.7070312,29.6464844 L72.9414062,29.6464844 L72.9414062,32.1542969 C72.9414062,32.5683614 73.1132795,32.7753906 73.4570312,32.7753906 L74.0195312,32.7753906 C74.378908,32.7753906 74.5859372,32.5878925 74.640625,32.2128906 C74.6875002,31.9082016 74.7304686,31.4472687 74.7695312,30.8300781 C75.01172,30.9394537 75.308592,31.0527338 75.6601562,31.1699219 C75.5976559,31.7089871 75.5312504,32.1621075 75.4609375,32.5292969 C75.3359369,33.2246129 74.8906288,33.5722656 74.125,33.5722656 L73.2578125,33.5722656 C72.4453084,33.5722656 72.0390625,33.1308638 72.0390625,32.2480469 L72.0390625,29.6464844 L70.4628906,29.6464844 L70.4526367,30.1503908 C70.4501953,30.2294921 70.4473877,30.3061521 70.4442139,30.3803708 L70.4335938,30.5957031 C70.3867185,32.0566479 69.5664142,33.1386684 67.9726562,33.8417969 C67.8164055,33.6152332 67.6210949,33.3535171 67.3867188,33.0566406 C68.7617256,32.4863253 69.4765622,31.666021 69.53125,30.5957031 L69.5490625,30.2750782 C69.5575,30.0950787 69.5652343,29.8855481 69.5722656,29.6464844 L67.2929688,29.6464844 L67.2929688,28.8378906 Z M69.0507812,34.3691406 L71.5,34.3925781 L75.8125,34.3105469 L75.698125,34.6442969 C75.6353127,34.823359 75.5640629,35.020702 75.484375,35.2363281 L71.4003906,35.2832031 L68.9453125,35.2480469 C67.5390555,35.2011716 66.5664089,34.7285201 66.0273438,33.8300781 C65.7070296,34.1269546 65.2382843,34.6503869 64.6210938,35.4003906 L64.140625,34.4277344 L65.640625,32.9921875 L65.640625,32.9921875 L65.640625,29.0488281 L64.2460938,29.0488281 L64.2460938,28.1816406 L66.5429688,28.1816406 L66.5429688,33.1914062 C67.0234399,33.9609413 67.859369,34.3535155 69.0507812,34.3691406 Z M64.8554688,24.7480469 L65.6054688,24.2441406 L65.8375198,24.5335264 C66.2076772,25.0053753 66.6771989,25.6471905 67.2460938,26.4589844 L66.4140625,27.0449219 L65.8751162,26.2131233 C65.4797259,25.6137487 65.1398452,25.1253925 64.8554688,24.7480469 Z M79.7617188,32.6347656 L83.40625,32.6347656 L83.40625,31.2753906 L80.4765625,31.2753906 L80.4765625,30.4316406 L83.40625,30.4316406 L83.40625,29.0957031 L84.296875,29.0957031 L84.296875,30.4316406 L87.296875,30.4316406 L87.296875,31.2753906 L84.296875,31.2753906 L84.296875,32.6347656 L87.8476562,32.6347656 L87.8476562,33.4785156 L84.296875,33.4785156 L84.296875,35.4824219 L83.40625,35.4824219 L83.40625,33.4785156 L79.7617188,33.4785156 L79.7617188,32.6347656 Z M76.28125,31.2988281 L76.1640625,30.3378906 L77.2786453,30.0800783 C77.4600686,30.0371096 77.639322,29.9941408 77.8164062,29.9511719 L77.8164062,27.1621094 L76.2695312,27.1621094 L76.2695312,26.3417969 L77.8164062,26.3417969 L77.8164062,24.0566406 L78.6953125,24.0566406 L78.6953125,26.3417969 L80.1953125,26.3417969 L80.1953125,27.1621094 L78.6953125,27.1621094 L78.6953125,29.7285156 C79.1210959,29.6191401 79.531248,29.5097662 79.9257812,29.4003906 C79.9414063,29.7441423 79.9687498,30.033202 80.0078125,30.2675781 L79.1197921,30.5071613 C78.9761291,30.5466578 78.8346361,30.5859373 78.6953125,30.625 L78.6953125,34.1230469 C78.6953125,34.9902387 78.3007852,35.4238281 77.5117188,35.4238281 L76.7866221,35.4106446 C76.6723642,35.4077149 76.5468757,35.4042969 76.4101562,35.4003906 C76.3789061,35.0800765 76.3281254,34.7636734 76.2578125,34.4511719 L76.6705736,34.5032553 C76.9240456,34.5310331 77.1341138,34.5449219 77.3007812,34.5449219 C77.644533,34.5449219 77.8164062,34.3378927 77.8164062,33.9238281 L77.8164062,30.8652344 L76.28125,31.2988281 L76.28125,31.2988281 Z" id="请选择" fill="#333333" fill-rule="nonzero"></path>
            <path d="M87.0507812,24.6074219 L87.0507812,25.3925781 C86.5468725,26.3105515 85.7851613,27.1113247 84.765625,27.7949219 C85.6289106,28.1503924 86.656244,28.4042961 87.8476562,28.5566406 L87.5781249,29.051758 C87.4960938,29.2060545 87.4218753,29.3496087 87.3554688,29.4824219 C85.9882744,29.2167955 84.8281298,28.8300807 83.875,28.3222656 C82.8867138,28.8417995 81.7148505,29.2753889 80.359375,29.6230469 C80.2656245,29.349608 80.1328134,29.0605484 79.9609375,28.7558594 C81.1289121,28.4863268 82.1425738,28.1621113 83.0019531,27.7832031 C82.0996049,27.1386687 81.4453145,26.349614 81.0390625,25.4160156 L80.359375,25.4160156 L80.359375,24.6074219 L87.0507812,24.6074219 Z M86.0078125,25.4160156 L81.9238281,25.4160156 C82.3457052,26.2011758 82.9941362,26.8476537 83.8691406,27.3554687 C84.8496143,26.8046847 85.5624978,26.1582068 86.0078125,25.4160156 L86.0078125,25.4160156 Z" id="形状结合" fill="#333333" fill-rule="nonzero"></path>
            <rect id="矩形" fill="#B8D7FF" x="52" y="84" width="177" height="1"></rect>
            <path d="M57.2265625,117.482422 L56.3125,117.482422 L56.3125,111.541016 L62.828125,111.541016 L62.828125,116.099609 C62.828125,116.943364 62.3945356,117.369141 61.5273438,117.376953 L60.6108905,117.386519 C60.3502086,117.387954 60.0658498,117.388672 59.7578125,117.388672 C59.7187498,117.138671 59.6601566,116.837892 59.5820312,116.486328 L60.1340094,116.520767 C60.5684798,116.544683 60.9391726,116.556641 61.2460938,116.556641 C61.6914085,116.556641 61.9140625,116.353518 61.9140625,115.947266 L61.9140625,115.361328 L57.2265625,115.361328 L57.2265625,117.482422 Z M55.28125,110.087891 L59.0664062,110.087891 L59.0664062,109.279297 L56.0664062,109.279297 L56.0664062,108.541016 L59.0664062,108.541016 L59.0664062,107.755859 L55.65625,107.755859 L55.65625,107.017578 L59.0664062,107.017578 L59.0664062,105.962891 L60.015625,105.962891 L60.015625,107.017578 L63.5898438,107.017578 L63.5898438,107.755859 L60.015625,107.755859 L60.015625,108.541016 L63.2851562,108.541016 L63.2851562,109.279297 L60.015625,109.279297 L60.015625,110.087891 L63.8242188,110.087891 L63.8242188,110.826172 L55.28125,110.826172 L55.28125,110.087891 Z M55.8554688,114.587891 C55.8789064,114.978518 55.9062498,115.318358 55.9375,115.607422 C55.0937458,116.169925 54.3789092,116.677732 53.7929688,117.130859 L53.2539062,116.357422 C53.5195326,116.107421 53.6523438,115.76758 53.6523438,115.337891 L53.6523438,110.908203 L52.2226562,110.908203 L52.2226562,110.052734 L54.5429688,110.052734 L54.5429688,115.513672 C54.9804709,115.216795 55.4179666,114.908205 55.8554688,114.587891 Z M61.9140625,112.291016 L57.2265625,112.291016 L57.2265625,113.099609 L61.9140625,113.099609 L61.9140625,112.291016 Z M57.2265625,114.634766 L61.9140625,114.634766 L61.9140625,113.826172 L57.2265625,113.826172 L57.2265625,114.634766 Z M53.546875,106.361328 C54.1875032,106.994144 54.7539038,107.583982 55.2460938,108.130859 L54.4257812,108.810547 C53.8867161,108.115231 53.3593776,107.49805 52.84375,106.958984 L53.546875,106.361328 Z M67.2929688,110.837891 L71.171875,110.837891 L71.171875,108.880859 L69.1972656,108.880859 C68.9628895,109.474612 68.7187513,110.005857 68.4648438,110.474609 C68.2617177,110.341796 67.988283,110.201173 67.6445312,110.052734 C68.2539093,108.982417 68.7070298,107.794928 69.0039062,106.490234 L69.9179688,106.689453 C69.7812493,107.177737 69.6386726,107.63867 69.4902344,108.072266 L71.171875,108.072266 L71.171875,106.033203 L72.0859375,106.033203 L72.0859375,108.072266 L75.1445312,108.072266 L75.1445312,108.880859 L72.0859375,108.880859 L72.0859375,110.837891 L75.7070312,110.837891 L75.7070312,111.646484 L72.9414062,111.646484 L72.9414062,114.154297 C72.9414062,114.568361 73.1132795,114.775391 73.4570312,114.775391 L74.0195312,114.775391 C74.378908,114.775391 74.5859372,114.587892 74.640625,114.212891 C74.6875002,113.908202 74.7304686,113.447269 74.7695312,112.830078 C75.01172,112.939454 75.308592,113.052734 75.6601562,113.169922 C75.5976559,113.708987 75.5312504,114.162108 75.4609375,114.529297 C75.3359369,115.224613 74.8906288,115.572266 74.125,115.572266 L73.2578125,115.572266 C72.4453084,115.572266 72.0390625,115.130864 72.0390625,114.248047 L72.0390625,111.646484 L70.4628906,111.646484 L70.4526367,112.150391 C70.4501953,112.229492 70.4473877,112.306152 70.4442139,112.380371 L70.4335938,112.595703 C70.3867185,114.056648 69.5664142,115.138668 67.9726562,115.841797 C67.8164055,115.615233 67.6210949,115.353517 67.3867188,115.056641 C68.7617256,114.486325 69.4765622,113.666021 69.53125,112.595703 L69.5490625,112.275078 C69.5575,112.095079 69.5652343,111.885548 69.5722656,111.646484 L67.2929688,111.646484 L67.2929688,110.837891 Z M69.0507812,116.369141 L71.5,116.392578 L75.8125,116.310547 L75.698125,116.644297 C75.6353127,116.823359 75.5640629,117.020702 75.484375,117.236328 L71.4003906,117.283203 L68.9453125,117.248047 C67.5390555,117.201172 66.5664089,116.72852 66.0273438,115.830078 C65.7070296,116.126955 65.2382843,116.650387 64.6210938,117.400391 L64.140625,116.427734 L65.640625,114.992188 L65.640625,114.992188 L65.640625,111.048828 L64.2460938,111.048828 L64.2460938,110.181641 L66.5429688,110.181641 L66.5429688,115.191406 C67.0234399,115.960941 67.859369,116.353516 69.0507812,116.369141 Z M64.8554688,106.748047 L65.6054688,106.244141 L65.8375198,106.533526 C66.2076772,107.005375 66.6771989,107.647191 67.2460938,108.458984 L66.4140625,109.044922 L65.8751162,108.213123 C65.4797259,107.613749 65.1398452,107.125393 64.8554688,106.748047 Z M79.7617188,114.634766 L83.40625,114.634766 L83.40625,113.275391 L80.4765625,113.275391 L80.4765625,112.431641 L83.40625,112.431641 L83.40625,111.095703 L84.296875,111.095703 L84.296875,112.431641 L87.296875,112.431641 L87.296875,113.275391 L84.296875,113.275391 L84.296875,114.634766 L87.8476562,114.634766 L87.8476562,115.478516 L84.296875,115.478516 L84.296875,117.482422 L83.40625,117.482422 L83.40625,115.478516 L79.7617188,115.478516 L79.7617188,114.634766 Z M76.28125,113.298828 L76.1640625,112.337891 L77.2786453,112.080078 C77.4600686,112.03711 77.639322,111.994141 77.8164062,111.951172 L77.8164062,109.162109 L76.2695312,109.162109 L76.2695312,108.341797 L77.8164062,108.341797 L77.8164062,106.056641 L78.6953125,106.056641 L78.6953125,108.341797 L80.1953125,108.341797 L80.1953125,109.162109 L78.6953125,109.162109 L78.6953125,111.728516 C79.1210959,111.61914 79.531248,111.509766 79.9257812,111.400391 C79.9414063,111.744142 79.9687498,112.033202 80.0078125,112.267578 L79.1197921,112.507161 C78.9761291,112.546658 78.8346361,112.585937 78.6953125,112.625 L78.6953125,116.123047 C78.6953125,116.990239 78.3007852,117.423828 77.5117188,117.423828 L76.7866221,117.410645 C76.6723642,117.407715 76.5468757,117.404297 76.4101562,117.400391 C76.3789061,117.080077 76.3281254,116.763673 76.2578125,116.451172 L76.6705736,116.503255 C76.9240456,116.531033 77.1341138,116.544922 77.3007812,116.544922 C77.644533,116.544922 77.8164062,116.337893 77.8164062,115.923828 L77.8164062,112.865234 L76.28125,113.298828 L76.28125,113.298828 Z" id="请选择" fill="#AAADBA" fill-rule="nonzero" opacity="0.5"></path>
            <path d="M87.0507812,106.607422 L87.0507812,107.392578 C86.5468725,108.310551 85.7851613,109.111325 84.765625,109.794922 C85.6289106,110.150392 86.656244,110.404296 87.8476562,110.556641 L87.5781249,111.051758 C87.4960938,111.206054 87.4218753,111.349609 87.3554688,111.482422 C85.9882744,111.216796 84.8281298,110.830081 83.875,110.322266 C82.8867138,110.841799 81.7148505,111.275389 80.359375,111.623047 C80.2656245,111.349608 80.1328134,111.060548 79.9609375,110.755859 C81.1289121,110.486327 82.1425738,110.162111 83.0019531,109.783203 C82.0996049,109.138669 81.4453145,108.349614 81.0390625,107.416016 L80.359375,107.416016 L80.359375,106.607422 L87.0507812,106.607422 Z M86.0078125,107.416016 L81.9238281,107.416016 C82.3457052,108.201176 82.9941362,108.847654 83.8691406,109.355469 C84.8496143,108.804685 85.5624978,108.158207 86.0078125,107.416016 L86.0078125,107.416016 Z" id="形状结合" fill="#AAADBA" fill-rule="nonzero" opacity="0.5"></path>
            <rect id="矩形" fill="#E7EAED" x="52" y="125" width="177" height="1"></rect>
            <path d="M52,43.5 C52,43.2238576 52.2202696,43 52.5077515,43 L228.492249,43 C228.772672,43 229,43.2319336 229,43.5 L229,43.5 C229,43.7761424 228.77973,44 228.492249,44 L52.5077515,44 C52.2273281,44 52,43.7680664 52,43.5 L52,43.5 Z" id="Rectangle-26-Copy-23备份" fill="#D9D9D9"></path>
            <g id="编组-2" transform="translate(213.000000, 25.000000)">
                <rect id="矩形" fill="#D8D8D8" opacity="0.01" x="0" y="0" width="10" height="10"></rect>
                <path d="M3.07437422,1.34394406 C3.3505166,1.34394406 3.57437422,1.56780169 3.57437422,1.84394406 L3.57437422,5.34394406 L7.07437422,5.34394406 C7.3505166,5.34394406 7.57437422,5.56780169 7.57437422,5.84394406 C7.57437422,6.12008644 7.3505166,6.34394406 7.07437422,6.34394406 L3.07437422,6.34394406 L3.07437422,6.34394406 C2.79823185,6.34394406 2.57437422,6.12008644 2.57437422,5.84394406 L2.57437422,1.84394406 C2.57437422,1.56780169 2.79823185,1.34394406 3.07437422,1.34394406 Z" id="矩形-2" fill="#666666" transform="translate(5.074374, 3.843944) rotate(-45.000000) translate(-5.074374, -3.843944) "></path>
            </g>
            <text id="样式三" font-family="MicrosoftYaHei, Microsoft YaHei" font-size="12" font-weight="normal" line-spacing="20" fill="#333333">
                <tspan x="8" y="32">样式三</tspan>
            </text>
        </g>
    </g>
</svg>