<?xml version="1.0" encoding="UTF-8"?>
<svg width="241px" height="192px" viewBox="0 0 241 192" version="1.1" xmlns="http://www.w3.org/2000/svg" xmlns:xlink="http://www.w3.org/1999/xlink">
    <!-- Generator: Sketch 58 (84663) - https://sketch.com -->
    <title>selection/style1</title>
    <desc>Created with Sketch.</desc>
    <g id="页面-1" stroke="none" stroke-width="1" fill="none" fill-rule="evenodd">
        <g id="selection/style1">
            <rect id="矩形备份-3" fill-opacity="0.01" fill="#FAFAFA" x="0" y="0" width="241" height="192"></rect>
            <path d="M52.5,21.9912443 L52.5,46.0087557 C52.5,46.8265218 53.1754932,47.5 54.0030127,47.5 L226.996987,47.5 C227.832296,47.5 228.5,46.8345206 228.5,46.0087557 L228.5,21.9912443 C228.5,21.1734782 227.824507,20.5 226.996987,20.5 L54.0030127,20.5 C53.1677039,20.5 52.5,21.1654794 52.5,21.9912443 Z" id="Rectangle-26-Copy-23备份" stroke="#D9D9D9" fill="#FFFFFF"></path>
            <path d="M52.5,53.9912443 L52.5,78.0087557 C52.5,78.8265218 53.1754932,79.5 54.0030127,79.5 L226.996987,79.5 C227.832296,79.5 228.5,78.8345206 228.5,78.0087557 L228.5,53.9912443 C228.5,53.1734782 227.824507,52.5 226.996987,52.5 L54.0030127,52.5 C53.1677039,52.5 52.5,53.1654794 52.5,53.9912443 Z" id="Rectangle-26-Copy-23备份-3" stroke="#B8D7FF" fill="#EFF6FF"></path>
            <path d="M52.5,85.9912443 L52.5,110.008756 C52.5,110.826522 53.1754932,111.5 54.0030127,111.5 L226.996987,111.5 C227.832296,111.5 228.5,110.834521 228.5,110.008756 L228.5,85.9912443 C228.5,85.1734782 227.824507,84.5 226.996987,84.5 L54.0030127,84.5 C53.1677039,84.5 52.5,85.1654794 52.5,85.9912443 Z" id="Rectangle-26-Copy-23备份-4" stroke="#E7EAED" fill="#F8F8F8"></path>
            <rect id="矩形备份-4" stroke="#FD6868" fill="#FFFFFF" x="52.5" y="116.5" width="176" height="27" rx="2"></rect>
            <g id="编组-2备份" transform="translate(213.000000, 125.000000)">
                <rect id="矩形" fill="#D8D8D8" opacity="0.01" x="0" y="0" width="10" height="10"></rect>
                <path d="M3.07437422,1.34394406 C3.3505166,1.34394406 3.57437422,1.56780169 3.57437422,1.84394406 L3.57437422,5.34394406 L7.07437422,5.34394406 C7.3505166,5.34394406 7.57437422,5.56780169 7.57437422,5.84394406 C7.57437422,6.12008644 7.3505166,6.34394406 7.07437422,6.34394406 L3.07437422,6.34394406 L3.07437422,6.34394406 C2.79823185,6.34394406 2.57437422,6.12008644 2.57437422,5.84394406 L2.57437422,1.84394406 C2.57437422,1.56780169 2.79823185,1.34394406 3.07437422,1.34394406 Z" id="矩形-2" fill="#666666" transform="translate(5.074374, 3.843944) rotate(-45.000000) translate(-5.074374, -3.843944) "></path>
            </g>
            <path d="M56.1015625,155.606445 L61.0722656,155.606445 L61.0722656,160.323242 L60.3300781,160.323242 L60.3300781,159.756836 L56.84375,159.756836 L56.84375,160.323242 L56.1015625,160.323242 L56.1015625,155.606445 Z M55.4472656,154.112305 L56.8828125,154.112305 L56.8828125,152.803711 L55.7402344,152.803711 L55.7402344,152.139648 L56.8828125,152.139648 L56.8828125,150.733398 L57.625,150.733398 L57.625,152.139648 L59.4023438,152.139648 L59.4023438,150.733398 L60.1445312,150.733398 L60.1445312,152.139648 L61.5214844,152.139648 L61.5214844,152.803711 L60.1445312,152.803711 L60.1445312,154.112305 L61.8046875,154.112305 L61.8046875,154.776367 L55.4472656,154.776367 L55.4472656,154.112305 Z M55.2519531,157.676758 L55.3374024,158.07959 C55.3650716,158.20166 55.391927,158.311523 55.4179688,158.40918 L54.5952144,159.197754 C54.352702,159.433756 54.141928,159.642903 53.9628906,159.825195 L53.7628909,160.087695 C53.7399742,160.118424 53.7154949,160.151367 53.6894531,160.186523 L53.1523438,159.581055 C53.3346363,159.379231 53.4257812,159.08301 53.4257812,158.692383 L53.4257812,156.553711 L52.1757812,156.553711 L52.1757812,155.870117 L53.4257812,155.870117 L53.4257812,154.65918 L53.0058594,154.65918 L53.0058594,153.975586 L55.0957031,153.975586 L55.0957031,154.65918 L54.1386719,154.65918 L54.1386719,155.870117 L55.359375,155.870117 L55.359375,156.553711 L54.1386719,156.553711 L54.1386719,158.72168 C54.5488302,158.350584 54.9199202,158.00228 55.2519531,157.676758 Z M52.1171875,154.053711 C52.6770861,153.142248 53.0970038,152.022468 53.3769531,150.694336 L54.109375,150.850586 C53.9954421,151.316083 53.8668627,151.762042 53.7236328,152.188477 L55.3984375,152.188477 L55.3984375,152.87207 L53.4746094,152.87207 C53.2011705,153.578454 52.8821633,154.226234 52.5175781,154.81543 C52.3938796,154.568033 52.2604174,154.314129 52.1171875,154.053711 Z M56.84375,159.112305 L60.3300781,159.112305 L60.3300781,157.989258 L56.84375,157.989258 L56.84375,159.112305 Z M60.3300781,156.250977 L56.84375,156.250977 L56.84375,157.364258 L60.3300781,157.364258 L60.3300781,156.250977 Z M57.625,154.112305 L59.4023438,154.112305 L59.4023438,152.803711 L57.625,152.803711 L57.625,154.112305 Z M64.8417969,156.680664 L67.7910156,156.680664 C67.8365888,156.384439 67.8626302,156.000328 67.8691406,155.52832 L65.1933594,155.52832 L65.1933594,154.844727 L71.4824219,154.844727 L71.4824219,155.52832 L68.6308594,155.52832 C68.6210937,156.016604 68.5999351,156.400715 68.5673828,156.680664 L71.8242188,156.680664 L71.8242188,157.364258 L68.8066406,157.364258 C69.3860706,158.510097 70.430982,159.242511 71.9414062,159.561523 L71.6166991,159.95459 C71.5174155,160.07666 71.4270837,160.189778 71.3457031,160.293945 C69.8417894,159.85449 68.8017607,158.980475 68.2255859,157.671875 C67.7926411,158.840501 66.7428469,159.724281 65.0761719,160.323242 C64.9199211,160.121418 64.7441416,159.909832 64.5488281,159.688477 C66.16993,159.174151 67.1888,158.399419 67.6054688,157.364258 L64.8417969,157.364258 L64.8417969,156.680664 Z M65.6328125,151.133789 L70.984375,151.133789 L70.984375,154.327148 L70.2421875,154.327148 L70.2421875,153.887695 L66.375,153.887695 L66.375,154.327148 L65.6328125,154.327148 L65.6328125,151.133789 Z M65.1933594,157.774414 L65.2183594,158.152539 C65.2316406,158.327539 65.2460937,158.481445 65.2617188,158.614258 L64.7432952,158.958587 C64.1767278,159.341738 63.7440698,159.659902 63.4453125,159.913086 L62.9863281,159.258789 C63.2076834,159.076496 63.3183594,158.793296 63.3183594,158.40918 L63.3183594,154.756836 L62.15625,154.756836 L62.15625,154.053711 L64.0703125,154.053711 L64.0703125,158.555664 L64.6928714,158.130859 C64.8800454,158.000651 65.0468743,157.881836 65.1933594,157.774414 Z M70.2421875,151.788086 L66.375,151.788086 L66.375,153.233398 L70.2421875,153.233398 L70.2421875,151.788086 Z M63.2988281,150.948242 C63.7675805,151.423505 64.2330706,151.928057 64.6953125,152.461914 L64.0214844,153.02832 C63.5917947,152.481443 63.152346,151.960614 62.703125,151.46582 L63.2988281,150.948242 Z M76.0136719,151.124023 L80.8867188,151.124023 L80.8867188,154.981445 L80.1835938,154.981445 L80.1835938,154.698242 L76.7167969,154.698242 L76.7167969,154.981445 L76.0136719,154.981445 L76.0136719,151.124023 Z M74.4902344,159.874023 C75.4082077,159.10579 75.9225255,158.005541 76.0332031,156.573242 L76.765625,156.573242 C76.7330728,157.028974 76.6663417,157.455402 76.5654297,157.852539 C76.9788432,158.484053 77.5175748,158.910481 78.1816406,159.131836 L78.1816406,156.192383 L75.1640625,156.192383 L75.1640625,155.547852 L81.7460938,155.547852 L81.7460938,156.192383 L78.9140625,156.192383 L78.9140625,157.286133 L81.3652344,157.286133 L81.3652344,157.911133 L78.9140625,157.911133 L78.9140625,159.288086 L79.1199656,159.305968 C79.62853,159.338318 80.5429621,159.329102 81.8632812,159.27832 L81.6386719,160.000977 L81.6386719,160.000977 C81.0576143,160.015625 80.4600839,160.013794 79.8460705,159.995483 L79.2265625,159.97168 C77.9114518,159.955404 76.9446646,159.493169 76.3261719,158.584961 C76.052733,159.265303 75.6556016,159.847979 75.1347656,160.333008 C74.9394521,160.170247 74.7246105,160.017253 74.4902344,159.874023 Z M72.1269531,155.870117 C72.5436219,155.69108 72.9635396,155.50228 73.3867188,155.303711 L73.3867188,153.223633 L72.2050781,153.223633 L72.2050781,152.55957 L73.3867188,152.55957 L73.3867188,150.743164 L74.1289062,150.743164 L74.1289062,152.55957 L75.3789062,152.55957 L75.3789062,153.223633 L74.1289062,153.223633 L74.1289062,154.942383 C74.5032571,154.756835 74.8776023,154.561524 75.2519531,154.356445 C75.2714845,154.610353 75.2975259,154.870767 75.3300781,155.137695 L74.1289062,155.738281 L74.1289062,155.738281 L74.1289062,159.141602 C74.1289062,159.773115 73.8880232,160.114909 73.40625,160.166992 C73.0677066,160.199544 72.6868511,160.20931 72.2636719,160.196289 C72.2246092,159.92285 72.1822919,159.652671 72.1367188,159.385742 L72.5414067,159.423242 C72.73125,159.437305 72.902343,159.444336 73.0546875,159.444336 C73.2760428,159.444336 73.3867188,159.323894 73.3867188,159.083008 L73.3867188,156.119141 C72.9960918,156.320965 72.6087259,156.524413 72.2246094,156.729492 L72.1269531,155.870117 Z M76.7167969,154.073242 L80.1835938,154.073242 L80.1835938,153.213867 L76.7167969,153.213867 L76.7167969,154.073242 Z M80.1835938,151.749023 L76.7167969,151.749023 L76.7167969,152.598633 L80.1835938,152.598633 L80.1835938,151.749023 Z M82.15625,154.200195 L91.84375,154.200195 L91.84375,154.932617 L87.6542969,154.932617 L87.6542969,158.87793 C87.6542969,159.691736 87.2278688,160.101888 86.375,160.108398 L85.1828134,160.102148 C85.0746102,160.101107 84.9641933,160.099935 84.8515625,160.098633 L84.7856446,159.673828 C84.7612306,159.524089 84.7343751,159.366212 84.7050781,159.200195 C85.2194036,159.252279 85.7044248,159.27832 86.1601562,159.27832 C86.6028668,159.27832 86.8242188,159.060224 86.8242188,158.624023 L86.8242188,154.932617 L82.15625,154.932617 L82.15625,154.200195 Z M83.0546875,151.319336 L90.9746094,151.319336 L90.9746094,152.051758 L83.0546875,152.051758 L83.0546875,151.319336 Z M88.8945312,156.114258 L89.5488281,155.674805 C90.3496134,156.657883 91.1243452,157.683263 91.8730469,158.750977 L91.1601562,159.219727 L90.5644519,158.362791 C89.9785147,157.532713 89.4218776,156.783206 88.8945312,156.114258 Z M84.3144531,155.655273 L85.0273438,156.055664 C84.3437466,157.240566 83.6145872,158.366857 82.8398438,159.43457 C82.6380198,159.28483 82.4231782,159.131837 82.1953125,158.975586 C82.9244828,158.031571 83.630856,156.924811 84.3144531,155.655273 Z M92.3027344,152.374023 L96.9902344,152.374023 L96.7570795,151.937011 C96.5373529,151.531737 96.3579109,151.221681 96.21875,151.006836 L96.9707031,150.655273 L97.1833767,150.993815 C97.3454134,151.258571 97.5479589,151.601452 97.7910156,152.022461 L97.0878906,152.374023 L101.677734,152.374023 L101.677734,153.09668 L99.8759766,153.09668 C99.5276675,154.955413 98.7789771,156.449539 97.6298828,157.579102 C98.4957726,158.210615 99.8710843,158.777016 101.755859,159.27832 C101.456379,159.616864 101.228516,159.900064 101.072266,160.12793 C99.2363189,159.493161 97.8805382,158.829105 97.0048828,158.135742 C96.1259722,158.819339 94.7213638,159.509437 92.7910156,160.206055 L92.5175782,159.844727 C92.4199222,159.717774 92.3157558,159.584311 92.2050781,159.444336 C94.0670666,158.884437 95.4684198,158.261071 96.4091797,157.574219 C95.2210227,156.304681 94.4658219,154.812183 94.1435547,153.09668 L92.3027344,153.09668 L92.3027344,152.374023 Z M99.0410156,153.09668 L94.9248047,153.09668 C95.2177749,154.69825 95.9176377,156.021479 97.0244141,157.066406 C98.0823621,156.083328 98.7545559,154.760099 99.0410156,153.09668 Z M102.195312,156.456055 L106.775391,156.456055 L106.775391,155.84082 L108.699219,154.629883 L103.972656,154.629883 L103.972656,153.916992 L109.890625,153.916992 L109.890625,154.708008 L107.576172,156.192383 L107.576172,156.456055 L111.84375,156.456055 L111.84375,157.178711 L107.576172,157.178711 L107.576172,158.975586 C107.576172,159.802413 107.162765,160.21582 106.335938,160.21582 L105.897858,160.213074 C105.618623,160.210022 105.279624,160.204427 104.880859,160.196289 L104.832031,159.793457 C104.8125,159.648601 104.789714,159.493165 104.763672,159.327148 C105.277997,159.398763 105.733722,159.43457 106.130859,159.43457 C106.560549,159.43457 106.775391,159.203453 106.775391,158.741211 L106.775391,157.178711 L102.195312,157.178711 L102.195312,156.456055 Z M102.566406,152.149414 L107.058594,152.149414 C106.817707,151.807615 106.527996,151.43327 106.189453,151.026367 L106.84375,150.586914 C107.253908,151.036135 107.592447,151.452798 107.859375,151.836914 L107.395508,152.149414 L111.511719,152.149414 L111.511719,154.131836 L110.720703,154.131836 L110.720703,152.862305 L103.347656,152.862305 L103.347656,154.131836 L102.566406,154.131836 L102.566406,152.149414 Z" id="错误提示文字" fill="#FD6868" fill-rule="nonzero"></path>
            <g id="arrow-down" transform="translate(213.000000, 29.000000)">
                <rect id="矩形" fill="#D8D8D8" opacity="0.01" x="0" y="0" width="10" height="10"></rect>
                <path d="M3.07437422,1.34394406 C3.3505166,1.34394406 3.57437422,1.56780169 3.57437422,1.84394406 L3.57437422,5.34394406 L7.07437422,5.34394406 C7.3505166,5.34394406 7.57437422,5.56780169 7.57437422,5.84394406 C7.57437422,6.12008644 7.3505166,6.34394406 7.07437422,6.34394406 L3.07437422,6.34394406 L3.07437422,6.34394406 C2.79823185,6.34394406 2.57437422,6.12008644 2.57437422,5.84394406 L2.57437422,1.84394406 C2.57437422,1.56780169 2.79823185,1.34394406 3.07437422,1.34394406 Z" id="矩形-2" fill="#666666" transform="translate(5.074374, 3.843944) rotate(-45.000000) translate(-5.074374, -3.843944) "></path>
            </g>
            <g id="编组-2备份" transform="translate(213.000000, 61.000000)">
                <rect id="矩形" fill="#D8D8D8" opacity="0.01" x="0" y="0" width="10" height="10"></rect>
                <path d="M3.07437422,1.34394406 C3.3505166,1.34394406 3.57437422,1.56780169 3.57437422,1.84394406 L3.57437422,5.34394406 L7.07437422,5.34394406 C7.3505166,5.34394406 7.57437422,5.56780169 7.57437422,5.84394406 C7.57437422,6.12008644 7.3505166,6.34394406 7.07437422,6.34394406 L3.07437422,6.34394406 L3.07437422,6.34394406 C2.79823185,6.34394406 2.57437422,6.12008644 2.57437422,5.84394406 L2.57437422,1.84394406 C2.57437422,1.56780169 2.79823185,1.34394406 3.07437422,1.34394406 Z" id="矩形-2" fill="#666666" transform="translate(5.074374, 3.843944) rotate(-45.000000) translate(-5.074374, -3.843944) "></path>
            </g>
            <g id="编组-2备份-2" opacity="0.5" transform="translate(213.000000, 93.000000)">
                <rect id="矩形" fill="#D8D8D8" opacity="0.01" x="0" y="0" width="10" height="10"></rect>
                <path d="M3.07437422,1.34394406 C3.3505166,1.34394406 3.57437422,1.56780169 3.57437422,1.84394406 L3.57437422,5.34394406 L7.07437422,5.34394406 C7.3505166,5.34394406 7.57437422,5.56780169 7.57437422,5.84394406 C7.57437422,6.12008644 7.3505166,6.34394406 7.07437422,6.34394406 L3.07437422,6.34394406 L3.07437422,6.34394406 C2.79823185,6.34394406 2.57437422,6.12008644 2.57437422,5.84394406 L2.57437422,1.84394406 C2.57437422,1.56780169 2.79823185,1.34394406 3.07437422,1.34394406 Z" id="矩形-2" fill="#666666" transform="translate(5.074374, 3.843944) rotate(-45.000000) translate(-5.074374, -3.843944) "></path>
            </g>
            <text id="样式一" font-family="MicrosoftYaHei, Microsoft YaHei" font-size="12" font-weight="normal" line-spacing="22" fill="#525A6E">
                <tspan x="8" y="35">样式一</tspan>
            </text>
        </g>
    </g>
</svg>