<?xml version="1.0" encoding="UTF-8"?>
<svg width="494px" height="52px" viewBox="0 0 494 52" version="1.1" xmlns="http://www.w3.org/2000/svg" xmlns:xlink="http://www.w3.org/1999/xlink">
    <!-- Generator: Sketch 58 (84663) - https://sketch.com -->
    <title>checkbox/checkbox/style1</title>
    <desc>Created with Sketch.</desc>
    <g id="页面-1" stroke="none" stroke-width="1" fill="none" fill-rule="evenodd">
        <g id="编组-52备份-2" transform="translate(0.000000, -78.000000)">
            <g id="checkbox/checkbox/style1" transform="translate(0.000000, 78.000000)">
                <g id="编组-56">
                    <rect id="矩形" fill-opacity="0.01" fill="#FAFAFA" x="0" y="0" width="494" height="52"></rect>
                    <path d="M83.1523438,24.8398438 L87.03125,24.8398438 L87.03125,22.8828125 L85.0566406,22.8828125 C84.8222645,23.4765655 84.5781263,24.0078102 84.3242188,24.4765625 C84.1210927,24.3437493 83.847658,24.2031257 83.5039062,24.0546875 C84.1132843,22.9843696 84.5664048,21.7968815 84.8632812,20.4921875 L85.7773438,20.6914062 C85.6406243,21.1796899 85.4980476,21.6406228 85.3496094,22.0742188 L87.03125,22.0742188 L87.03125,20.0351562 L87.9453125,20.0351562 L87.9453125,22.0742188 L91.0039062,22.0742188 L91.0039062,22.8828125 L87.9453125,22.8828125 L87.9453125,24.8398438 L91.5664062,24.8398438 L91.5664062,25.6484375 L88.8007812,25.6484375 L88.8007812,28.15625 C88.8007812,28.5703146 88.9726545,28.7773438 89.3164062,28.7773438 L89.8789062,28.7773438 C90.238283,28.7773438 90.4453122,28.5898456 90.5,28.2148438 C90.5468752,27.9101547 90.5898436,27.4492218 90.6289062,26.8320312 C90.871095,26.9414068 91.167967,27.0546869 91.5195312,27.171875 C91.4570309,27.7109402 91.3906254,28.1640607 91.3203125,28.53125 C91.1953119,29.226566 90.7500038,29.5742188 89.984375,29.5742188 L89.1171875,29.5742188 C88.3046834,29.5742188 87.8984375,29.1328169 87.8984375,28.25 L87.8984375,25.6484375 L86.3222656,25.6484375 L86.3120117,26.1523439 C86.3095703,26.2314453 86.3067627,26.3081052 86.3035889,26.3823239 L86.2929688,26.5976562 C86.2460935,28.0586011 85.4257892,29.1406215 83.8320312,29.84375 C83.6757805,29.6171864 83.4804699,29.3554702 83.2460938,29.0585938 C84.6211006,28.4882784 85.3359372,27.6679741 85.390625,26.5976562 L85.4084375,26.2770313 C85.416875,26.0970318 85.4246093,25.8875012 85.4316406,25.6484375 L83.1523438,25.6484375 L83.1523438,24.8398438 Z M84.9101562,30.3710938 L87.359375,30.3945312 L91.671875,30.3125 L91.5575,30.64625 C91.4946877,30.8253121 91.4234379,31.0226552 91.34375,31.2382812 L87.2597656,31.2851562 L84.8046875,31.25 C83.3984305,31.2031248 82.4257839,30.7304732 81.8867188,29.8320312 C81.5664046,30.1289077 81.0976593,30.65234 80.4804688,31.4023438 L80,30.4296875 L81.5,28.9941406 L81.5,28.9941406 L81.5,25.0507812 L80.1054688,25.0507812 L80.1054688,24.1835938 L82.4023438,24.1835938 L82.4023438,29.1933594 C82.8828149,29.9628945 83.718744,30.3554687 84.9101562,30.3710938 Z M80.7148438,20.75 L81.4648438,20.2460938 L81.6968948,20.5354796 C82.0670522,21.0073284 82.5365739,21.6491437 83.1054688,22.4609375 L82.2734375,23.046875 L81.7344912,22.2150764 C81.3391009,21.6157018 80.9992202,21.1273456 80.7148438,20.75 Z M98.3632812,20 L98.3632812,22.5546875 L102.921875,22.5546875 L102.921875,27.8984375 L101.960938,27.8984375 L101.960938,27.265625 L98.3632812,27.265625 L98.3632812,31.625 L97.3554688,31.625 L97.3554688,27.265625 L93.8046875,27.265625 L93.8046875,27.8984375 L92.84375,27.8984375 L92.84375,22.5546875 L97.3554688,22.5546875 L97.3554688,20 L98.3632812,20 Z M101.960938,23.421875 L98.3632812,23.421875 L98.3632812,26.3984375 L101.960938,26.3984375 L101.960938,23.421875 Z M97.3554688,23.421875 L93.8046875,23.421875 L93.8046875,26.3984375 L97.3554688,26.3984375 L97.3554688,23.421875 Z" id="选中" fill="#6A6A6A" fill-rule="nonzero"></path>
                    <path d="M158.859375,29.7597656 C158.640624,30.025392 158.421876,30.3144516 158.203125,30.6269531 C156.144521,29.5996042 154.562506,28.2714925 153.457031,26.6425781 L153.457031,31.5410156 L152.542969,31.5410156 L152.542969,26.6542969 C151.355463,28.2285235 149.769541,29.5996035 147.785156,30.7675781 C147.636718,30.5566396 147.425783,30.2949234 147.152344,29.9824219 C149.273448,28.8691351 150.949213,27.5293047 152.179688,25.9628906 L147.339844,25.9628906 L147.339844,25.0957031 L152.542969,25.0957031 L152.542969,22.8925781 L148.03125,22.8925781 L148.03125,22.0253906 L152.542969,22.0253906 L152.542969,20.0214844 L153.457031,20.0214844 L153.457031,22.0253906 L158.015625,22.0253906 L158.015625,22.8925781 L153.457031,22.8925781 L153.457031,25.0957031 L158.660156,25.0957031 L158.660156,25.9628906 L153.785156,25.9628906 C155.042975,27.6425865 156.734364,28.9081989 158.859375,29.7597656 Z M162.292969,24.8378906 L166.171875,24.8378906 L166.171875,22.8808594 L164.197266,22.8808594 C163.962889,23.4746123 163.718751,24.005857 163.464844,24.4746094 C163.261718,24.3417962 162.988283,24.2011726 162.644531,24.0527344 C163.253909,22.9824165 163.70703,21.7949284 164.003906,20.4902344 L164.917969,20.6894531 C164.781249,21.1777368 164.638673,21.6386697 164.490234,22.0722656 L166.171875,22.0722656 L166.171875,20.0332031 L167.085938,20.0332031 L167.085938,22.0722656 L170.144531,22.0722656 L170.144531,22.8808594 L167.085938,22.8808594 L167.085938,24.8378906 L170.707031,24.8378906 L170.707031,25.6464844 L167.941406,25.6464844 L167.941406,28.1542969 C167.941406,28.5683614 168.11328,28.7753906 168.457031,28.7753906 L169.019531,28.7753906 C169.378908,28.7753906 169.585937,28.5878925 169.640625,28.2128906 C169.6875,27.9082016 169.730469,27.4472687 169.769531,26.8300781 C170.01172,26.9394537 170.308592,27.0527338 170.660156,27.1699219 C170.597656,27.7089871 170.53125,28.1621075 170.460938,28.5292969 C170.335937,29.2246129 169.890629,29.5722656 169.125,29.5722656 L168.257812,29.5722656 C167.445308,29.5722656 167.039062,29.1308638 167.039062,28.2480469 L167.039062,25.6464844 L165.462891,25.6464844 L165.452637,26.1503908 C165.450195,26.2294921 165.447388,26.3061521 165.444214,26.3803708 L165.433594,26.5957031 C165.386719,28.0566479 164.566414,29.1386684 162.972656,29.8417969 C162.816405,29.6152332 162.621095,29.3535171 162.386719,29.0566406 C163.761726,28.4863253 164.476562,27.666021 164.53125,26.5957031 L164.549063,26.2750782 C164.5575,26.0950787 164.565234,25.8855481 164.572266,25.6464844 L162.292969,25.6464844 L162.292969,24.8378906 Z M164.050781,30.3691406 L166.5,30.3925781 L170.8125,30.3105469 L170.698125,30.6442969 C170.635313,30.823359 170.564063,31.020702 170.484375,31.2363281 L166.400391,31.2832031 L163.945312,31.2480469 C162.539055,31.2011716 161.566409,30.7285201 161.027344,29.8300781 C160.70703,30.1269546 160.238284,30.6503869 159.621094,31.4003906 L159.140625,30.4277344 L160.640625,28.9921875 L160.640625,28.9921875 L160.640625,25.0488281 L159.246094,25.0488281 L159.246094,24.1816406 L161.542969,24.1816406 L161.542969,29.1914062 C162.02344,29.9609413 162.859369,30.3535155 164.050781,30.3691406 Z M159.855469,20.7480469 L160.605469,20.2441406 L160.83752,20.5335264 C161.207677,21.0053753 161.677199,21.6471905 162.246094,22.4589844 L161.414062,23.0449219 L160.875116,22.2131233 C160.479726,21.6137487 160.139845,21.1253925 159.855469,20.7480469 Z M177.503906,19.9980469 L177.503906,22.5527344 L182.0625,22.5527344 L182.0625,27.8964844 L181.101562,27.8964844 L181.101562,27.2636719 L177.503906,27.2636719 L177.503906,31.6230469 L176.496094,31.6230469 L176.496094,27.2636719 L172.945312,27.2636719 L172.945312,27.8964844 L171.984375,27.8964844 L171.984375,22.5527344 L176.496094,22.5527344 L176.496094,19.9980469 L177.503906,19.9980469 Z M181.101562,23.4199219 L177.503906,23.4199219 L177.503906,26.3964844 L181.101562,26.3964844 L181.101562,23.4199219 Z M176.496094,23.4199219 L172.945312,23.4199219 L172.945312,26.3964844 L176.496094,26.3964844 L176.496094,23.4199219 Z" id="未选中" fill="#6A6A6A" fill-rule="nonzero"></path>
                    <rect id="outline" stroke="#DBDFE6" fill-rule="nonzero" x="128.5" y="19.5" width="13" height="13" rx="2"></rect>
                    <path d="M226.351562,21.0195312 L237.519531,21.0195312 L237.519531,21.9335938 L233.207031,21.9335938 C232.832029,22.5820345 232.332034,23.351558 231.707031,24.2421875 L232.386719,24.2421875 L232.386719,31.5898438 L231.378906,31.5898438 L231.378906,24.6054688 C230.042962,26.2539145 228.468759,27.6601504 226.65625,28.8242188 C226.460937,28.5429673 226.242189,28.2617202 226,27.9804688 C228.46095,26.4413986 230.445305,24.4257937 231.953125,21.9335938 L226.351562,21.9335938 L226.351562,21.0195312 Z M233.558594,24.6054688 C235.019539,25.4960982 236.429681,26.4023391 237.789062,27.3242188 L237.121094,28.25 C235.511711,27.0546815 234.132818,26.1054688 232.984375,25.4023438 L233.558594,24.6054688 Z M239.453125,23.5742188 L244.621094,23.5742188 L244.621094,28.203125 L240.378906,28.203125 L240.378906,29.0351562 L239.453125,29.0351562 L239.453125,23.5742188 Z M238.152344,20.9492188 L249.730469,20.9492188 L249.730469,21.8398438 L247.785156,21.8398438 L247.785156,29.7734375 C247.785156,30.8281303 247.273443,31.359375 246.25,31.3671875 C245.515621,31.3671875 244.800785,31.3632813 244.105469,31.3554688 C244.066406,30.996092 244.003907,30.6406268 243.917969,30.2890625 L244.73047,30.341146 C245.225261,30.3689238 245.626301,30.3828125 245.933594,30.3828125 C246.511722,30.3828125 246.800781,30.0703156 246.800781,29.4453125 L246.800781,21.8398438 L238.152344,21.8398438 L238.152344,20.9492188 Z M243.695312,24.40625 L240.378906,24.40625 L240.378906,27.3710938 L243.695312,27.3710938 L243.695312,24.40625 Z M253.222656,24.8046875 L257.101562,24.8046875 L257.101562,22.8476562 L255.126953,22.8476562 C254.892577,23.4414092 254.648439,23.9726539 254.394531,24.4414062 C254.191405,24.3085931 253.91797,24.1679695 253.574219,24.0195312 C254.183597,22.9492134 254.636717,21.7617253 254.933594,20.4570312 L255.847656,20.65625 C255.710937,21.1445337 255.56836,21.6054666 255.419922,22.0390625 L257.101562,22.0390625 L257.101562,20 L258.015625,20 L258.015625,22.0390625 L261.074219,22.0390625 L261.074219,22.8476562 L258.015625,22.8476562 L258.015625,24.8046875 L261.636719,24.8046875 L261.636719,25.6132812 L258.871094,25.6132812 L258.871094,28.1210938 C258.871094,28.5351583 259.042967,28.7421875 259.386719,28.7421875 L259.949219,28.7421875 C260.308596,28.7421875 260.515625,28.5546894 260.570312,28.1796875 C260.617188,27.8749985 260.660156,27.4140656 260.699219,26.796875 C260.941407,26.9062505 261.238279,27.0195307 261.589844,27.1367188 C261.527343,27.6757839 261.460938,28.1289044 261.390625,28.4960938 C261.265624,29.1914097 260.820316,29.5390625 260.054688,29.5390625 L259.1875,29.5390625 C258.374996,29.5390625 257.96875,29.0976607 257.96875,28.2148438 L257.96875,25.6132812 L256.392578,25.6132812 L256.382324,26.1171876 C256.379883,26.196289 256.377075,26.272949 256.373901,26.3471676 L256.363281,26.5625 C256.316406,28.0234448 255.496102,29.1054652 253.902344,29.8085938 C253.746093,29.5820301 253.550782,29.320314 253.316406,29.0234375 C254.691413,28.4531221 255.40625,27.6328179 255.460938,26.5625 L255.47875,26.2418751 C255.487188,26.0618755 255.494922,25.8523449 255.501953,25.6132812 L253.222656,25.6132812 L253.222656,24.8046875 Z M254.980469,30.3359375 L257.429688,30.359375 L261.742188,30.2773438 L261.627813,30.6110938 C261.565,30.7901559 261.49375,30.9874989 261.414062,31.203125 L257.330078,31.25 L254.875,31.2148438 C253.468743,31.1679685 252.496096,30.695317 251.957031,29.796875 C251.636717,30.0937515 251.167972,30.6171838 250.550781,31.3671875 L250.070312,30.3945312 L251.570312,28.9589844 L251.570312,28.9589844 L251.570312,25.015625 L250.175781,25.015625 L250.175781,24.1484375 L252.472656,24.1484375 L252.472656,29.1582031 C252.953127,29.9277382 253.789057,30.3203124 254.980469,30.3359375 Z M250.785156,20.7148438 L251.535156,20.2109375 L251.767207,20.5003233 C252.137365,20.9721721 252.606886,21.6139874 253.175781,22.4257812 L252.34375,23.0117188 L251.804804,22.1799202 C251.409413,21.5805456 251.069533,21.0921894 250.785156,20.7148438 Z" id="不可选" fill="#AAADBA" fill-rule="nonzero"></path>
                    <rect id="outline" stroke="#DBDFE6" fill-rule="nonzero" x="207.5" y="19.5" width="13" height="13" rx="2"></rect>
                    <g id="checked-" transform="translate(61.000000, 19.000000)">
                        <g id="icon/z/checkboxChecked-Copy" fill="#4F7DE7" fill-rule="nonzero">
                            <rect id="box" x="0" y="0" width="14" height="14" rx="2"></rect>
                        </g>
                        <g id="check" transform="translate(2.625000, 2.625000)">
                            <rect id="Rectangle" fill="#618FE8" opacity="0" x="0" y="0" width="8.75" height="8.75"></rect>
                            <path d="M8.28125,1.23046875 L7.59863281,1.23046875 C7.50292969,1.23046875 7.41210938,1.27441406 7.35351563,1.34960938 L3.32714844,6.45019531 L1.39648438,4.00390625 C1.33691406,3.92871094 1.24707031,3.88476562 1.15136719,3.88476562 L0.46875,3.88476562 C0.403320313,3.88476562 0.3671875,3.95996094 0.407226563,4.01074219 L3.08203125,7.39941406 C3.20703125,7.55761719 3.44726563,7.55761719 3.57324219,7.39941406 L8.34277344,1.35546875 C8.3828125,1.30566406 8.34667969,1.23046875 8.28125,1.23046875 Z" id="Path" stroke="#FFFFFF" stroke-width="0.833333333" fill="#FFFFFF"></path>
                        </g>
                    </g>
                    <path d="M11.8554688,27.78125 L15.2890625,27.78125 L15.2890625,25.859375 L12.734375,25.859375 L12.734375,25.0390625 L15.2890625,25.0390625 L15.2890625,23.1992188 L12.4648438,23.1992188 L12.4648438,22.3789062 L16.0859375,22.3789062 C16.7343782,21.4414016 17.2226546,20.6679718 17.5507812,20.0585938 L18.4179688,20.609375 C18.0117167,21.1640653 17.5625025,21.7539031 17.0703125,22.3789062 L19.2148438,22.3789062 L19.2148438,23.1992188 L16.203125,23.1992188 L16.203125,25.0390625 L18.8867188,25.0390625 L18.8867188,25.859375 L16.203125,25.859375 L16.203125,27.78125 L19.5898438,27.78125 L19.5898438,28.6015625 L16.203125,28.6015625 L16.203125,31.6601562 L15.2890625,31.6601562 L15.2890625,28.6015625 L11.8554688,28.6015625 L11.8554688,27.78125 Z M8,27.4296875 C8.75781629,26.2656192 9.34765414,24.8789143 9.76953125,23.2695312 L8.12890625,23.2695312 L8.12890625,22.484375 L9.86328125,22.484375 L9.86328125,20.1640625 L10.71875,20.1640625 L10.71875,22.484375 L12.0898438,22.484375 L12.0898438,23.2695312 L10.71875,23.2695312 L10.71875,25.109375 L11.1875,24.6875 C11.695315,25.1875025 12.19531,25.7031223 12.6875,26.234375 L12.0195312,26.84375 L11.3782803,26.1162489 C11.0979683,25.8012494 10.8781258,25.5593758 10.71875,25.390625 L10.71875,31.6601562 L9.86328125,31.6601562 L9.86328125,25.2265625 C9.44140414,26.4921938 8.9609402,27.5664018 8.421875,28.4492188 C8.30468691,28.1132796 8.16406332,27.7734392 8,27.4296875 Z M13.1328125,20.5625 L13.8242188,20.046875 L14.2096365,20.486691 C14.6289077,20.9721272 14.9418392,21.3606756 15.1484375,21.6523438 L14.3515625,22.203125 C13.8906227,21.5390592 13.4843768,20.9921896 13.1328125,20.5625 Z M20,22.296875 L26.515625,22.296875 C26.4843748,21.5742151 26.4609376,20.8085978 26.4453125,20 L27.4414062,20 C27.4375,20.7734414 27.4492186,21.5390587 27.4765625,22.296875 L31.5078125,22.296875 L31.5078125,23.1757812 L27.5175781,23.1757812 C27.6699226,27.1133009 28.3281192,29.503902 29.4921875,30.3476562 C29.9140646,30.691408 30.2109366,30.5976589 30.3828125,30.0664062 C30.5,29.6601542 30.6054683,29.0585977 30.6992188,28.2617188 C31.0664081,28.3945319 31.3828112,28.4960934 31.6484375,28.5664062 C31.5,29.4804733 31.3398446,30.2187472 31.1679688,30.78125 C30.9804678,31.3203152 30.6210964,31.5898438 30.0898438,31.5898438 C29.5507786,31.5898438 29.0156277,31.316409 28.484375,30.7695312 C27.3671819,29.5820253 26.7285164,27.0508006 26.5683594,23.1757812 L20,23.1757812 L20,22.296875 Z M20.046875,29.7265625 C20.9296919,29.6210932 21.8359329,29.50586 22.765625,29.3808594 L22.765625,26.09375 L20.4804688,26.09375 L20.4804688,25.2148438 L25.9882812,25.2148438 L25.9882812,26.09375 L23.7265625,26.09375 L23.7265625,29.2460938 C24.6367233,29.1171869 25.5703077,28.9804695 26.5273438,28.8359375 C26.5117187,29.1406265 26.5039062,29.4570296 26.5039062,29.7851562 L23.8151538,30.1751566 C22.5373438,30.3635937 21.3593804,30.5421867 20.28125,30.7109375 L20.046875,29.7265625 Z M28.34375,20.6914062 L28.90625,20.09375 C29.4687528,20.500002 30.0390596,20.9609349 30.6171875,21.4765625 L29.9492188,22.1679688 C29.4492162,21.6601537 28.9140654,21.1679711 28.34375,20.6914062 Z M32.0117188,24.9570312 L43.6601562,24.9570312 L43.6601562,25.9882812 L32.0117188,25.9882812 L32.0117188,24.9570312 Z" id="样式一" fill="#525A6E" fill-rule="nonzero"></path>
                </g>
            </g>
        </g>
    </g>
</svg>