<?xml version="1.0" encoding="UTF-8"?>
<svg width="241px" height="197px" viewBox="0 0 241 197" version="1.1" xmlns="http://www.w3.org/2000/svg" xmlns:xlink="http://www.w3.org/1999/xlink">
    <!-- Generator: Sketch 58 (84663) - https://sketch.com -->
    <title>tree-check/style1</title>
    <desc>Created with Sketch.</desc>
    <defs>
        <polygon id="path-1" points="5 7.68048012 0.123236337 2.89238489 0.908910539 2.12099568 5.00284025 6.13491308 9.05160734 2.15975994 9.83728155 2.93114915"></polygon>
        <polygon id="path-3" points="5 7.68048012 0.123236337 2.89238489 0.908910539 2.12099568 5.00284025 6.13491308 9.05160734 2.15975994 9.83728155 2.93114915"></polygon>
        <polygon id="path-5" points="5 7.68048012 0.123236337 2.89238489 0.908910539 2.12099568 5.00284025 6.13491308 9.05160734 2.15975994 9.83728155 2.93114915"></polygon>
    </defs>
    <g id="页面-1" stroke="none" stroke-width="1" fill="none" fill-rule="evenodd">
        <g id="tree-check/style1">
            <g id="编组-20">
                <rect id="矩形备份" fill-opacity="0.01" fill="#FAFAFA" x="0" y="0" width="241" height="197"></rect>
                <g id="7.Icon/control/checkbox/Checked-" transform="translate(90.000000, 56.000000)">
                    <g id="icon/z/checkboxChecked-Copy" fill="#4F7DE7" fill-rule="nonzero">
                        <rect id="box" x="0" y="0" width="14" height="14" rx="2"></rect>
                    </g>
                    <g id="check" transform="translate(2.625000, 2.625000)" fill="#FFFFFF">
                        <rect id="Rectangle" opacity="0.01" x="0" y="0" width="8.75" height="8.75"></rect>
                        <path d="M8.28125,1.23046875 L7.59863281,1.23046875 C7.50292969,1.23046875 7.41210938,1.27441406 7.35351563,1.34960938 L3.32714844,6.45019531 L1.39648438,4.00390625 C1.33691406,3.92871094 1.24707031,3.88476562 1.15136719,3.88476562 L0.46875,3.88476562 C0.403320313,3.88476562 0.3671875,3.95996094 0.407226563,4.01074219 L3.08203125,7.39941406 C3.20703125,7.55761719 3.44726563,7.55761719 3.57324219,7.39941406 L8.34277344,1.35546875 C8.3828125,1.30566406 8.34667969,1.23046875 8.28125,1.23046875 Z" id="Path" stroke="#FFFFFF" stroke-width="0.833333333"></path>
                    </g>
                </g>
                <g id="7.Icon/control/checkbox/Checked-备份" transform="translate(80.000000, 124.000000)">
                    <g id="icon/z/checkboxChecked-Copy" fill="#4F7DE7" fill-rule="nonzero">
                        <rect id="box" x="0" y="0" width="14" height="14" rx="2"></rect>
                    </g>
                    <g id="check" transform="translate(2.625000, 2.625000)" fill="#FFFFFF">
                        <rect id="Rectangle" opacity="0.01" x="0" y="0" width="8.75" height="8.75"></rect>
                        <path d="M8.28125,1.23046875 L7.59863281,1.23046875 C7.50292969,1.23046875 7.41210938,1.27441406 7.35351563,1.34960938 L3.32714844,6.45019531 L1.39648438,4.00390625 C1.33691406,3.92871094 1.24707031,3.88476562 1.15136719,3.88476562 L0.46875,3.88476562 C0.403320313,3.88476562 0.3671875,3.95996094 0.407226563,4.01074219 L3.08203125,7.39941406 C3.20703125,7.55761719 3.44726563,7.55761719 3.57324219,7.39941406 L8.34277344,1.35546875 C8.3828125,1.30566406 8.34667969,1.23046875 8.28125,1.23046875 Z" id="Path" stroke="#FFFFFF" stroke-width="0.833333333"></path>
                    </g>
                </g>
                <rect id="outline" stroke="#DBDFE6" fill="#FFFFFF" fill-rule="nonzero" x="90.5" y="88.5" width="13" height="13" rx="2"></rect>
                <g id="编组-6" transform="translate(80.000000, 20.000000)">
                    <rect id="Rectangle" fill="#4F7DE7" x="0" y="0" width="14" height="14" rx="2"></rect>
                    <rect id="矩形" fill="#FFFFFF" x="3" y="6" width="8" height="2" rx="1"></rect>
                </g>
                <path d="M102.1875,26.9316406 L113.835938,26.9316406 L113.835938,27.9628906 L102.1875,27.9628906 L102.1875,26.9316406 Z M120.134766,27.2714844 C120.013671,29.8418097 119.214851,31.9199139 117.738281,33.5058594 C117.45703,33.224608 117.207032,33.0058602 116.988281,32.8496094 C117.904948,31.8828077 118.526203,30.8142679 118.85205,29.6439629 L118.933594,29.3222656 C119.218751,28.2050725 119.351563,26.287123 119.332031,23.5683594 L118.289062,23.5683594 L118.289062,22.7363281 L124.136719,22.7363281 L124.136719,23.6152344 L123,25.9707031 L124.945312,25.9707031 L124.945312,26.8378906 C124.492185,28.2519602 123.876957,29.488276 123.099609,30.546875 C123.853519,31.3125038 124.777338,31.9785128 125.871094,32.5449219 C125.636718,32.7714855 125.375001,33.0605451 125.085938,33.4121094 C124.054682,32.7597624 123.18555,32.0644568 122.478516,31.3261719 C121.67773,32.2324264 120.73438,32.9863251 119.648438,33.5878906 C119.429686,33.2988267 119.210939,33.0488292 118.992188,32.8378906 C120.117193,32.2011687 121.070309,31.4492231 121.851562,30.5820312 C121.148434,29.6523391 120.576174,28.5488345 120.134766,27.2714844 Z M122.027344,25.9472656 L123.152344,23.5683594 L120.222656,23.5683594 L120.224121,24.3828126 C120.223145,24.6464838 120.220703,24.9023425 120.216797,25.1503906 C120.814456,27.1738382 121.562496,28.7363226 122.460938,29.8378906 C123.125003,28.9316361 123.628905,27.9199275 123.972656,26.8027344 L122.027344,26.8027344 L122.027344,25.9472656 Z M115.757812,28.4433594 C116.570317,28.3574214 117.398433,28.2597662 118.242188,28.1503906 L118.148438,28.9121094 L118.148438,28.9121094 L117.09327,29.0469948 C116.244259,29.1601962 115.470986,29.27539 114.773438,29.3925781 L114.5625,28.5605469 C115.027346,28.1503886 115.611325,27.4043023 116.314453,26.3222656 C115.712888,26.3652346 115.093753,26.4199215 114.457031,26.4863281 L114.234375,25.7480469 C114.882816,25.0292933 115.636714,23.7793058 116.496094,21.9980469 L117.386719,22.3847656 L116.916092,23.1694553 C116.304842,24.1744561 115.758596,25.0144498 115.277344,25.6894531 L116.753906,25.6308594 L116.753906,25.6308594 C117.035158,25.1699196 117.335936,24.6621121 117.65625,24.1074219 L118.5,24.5058594 L117.824061,25.5221124 C116.96531,26.8008638 116.276565,27.774606 115.757812,28.4433594 Z M114.1875,31.1738281 C115.437506,30.8769516 116.707025,30.5527361 117.996094,30.2011719 C118.003906,30.4746107 118.015625,30.7441393 118.03125,31.0097656 L116.608519,31.4025276 C115.852905,31.6143195 115.155277,31.8154297 114.515625,32.0058594 L114.1875,31.1738281 Z M137.835938,32.2050781 C137.539061,32.5253922 137.296876,32.8222643 137.109375,33.0957031 C135.117178,32.4316373 133.542975,31.3652417 132.386719,29.8964844 L132.386719,33.6816406 L131.484375,33.6816406 L131.484375,29.8964844 C130.359369,31.224616 128.81251,32.3378861 126.84375,33.2363281 C126.664062,33.001952 126.437501,32.7363296 126.164062,32.4394531 C127.820321,31.8769503 129.249994,31.0253963 130.453125,29.8847656 L126.375,29.8847656 L126.375,29.0644531 L131.484375,29.0644531 L131.484375,28.1738281 L132.386719,28.1738281 L132.386719,29.0644531 L137.683594,29.0644531 L137.683594,29.8847656 L133.324219,29.8847656 C134.457037,31.0332089 135.960928,31.8066386 137.835938,32.2050781 Z M126.28125,23.1582031 L129.5625,23.1582031 L129.5625,22.0566406 L130.476562,22.0566406 L130.476562,23.1582031 L133.523438,23.1582031 L133.523438,22.0566406 L134.4375,22.0566406 L134.4375,23.1582031 L137.753906,23.1582031 L137.753906,23.9902344 L134.4375,23.9902344 L134.4375,24.6582031 L133.523438,24.6582031 L133.523438,23.9902344 L130.476562,23.9902344 L130.476562,24.7636719 L129.5625,24.7636719 L129.5625,23.9902344 L126.28125,23.9902344 L126.28125,23.1582031 Z M127.089844,26.0410156 L126.985677,25.509766 C126.96658,25.4160161 126.946615,25.319662 126.925781,25.2207031 C130.535174,25.1816404 133.726549,25.0605479 136.5,24.8574219 L136.640625,25.6777344 C133.781236,25.8574219 130.597674,25.9785153 127.089844,26.0410156 Z M133.664062,27.9628906 C134.195315,27.4863257 134.792965,26.8496134 135.457031,26.0527344 L136.230469,26.6621094 L135.282566,27.6086254 C134.843587,28.0413171 134.511119,28.3586228 134.285156,28.5605469 L133.664062,27.9628906 Z M127.734375,26.7675781 L128.449219,26.3222656 L128.671441,26.6110391 C128.946904,26.9810232 129.279078,27.4667939 129.667969,28.0683594 L128.859375,28.5839844 C128.507811,27.9589813 128.132814,27.3535186 127.734375,26.7675781 Z M130.945312,26.3925781 L131.683594,26.0292969 C132.058596,26.5761746 132.382811,27.1035131 132.65625,27.6113281 L131.824219,28.0566406 C131.660155,27.6347635 131.36719,27.0800816 130.945312,26.3925781 Z M141.292969,21.9394531 C141.871097,22.4941434 142.378904,23.005857 142.816406,23.4746094 L142.382812,23.8378906 L145.130859,23.8378906 C145.560549,23.2675753 145.996092,22.6464877 146.4375,21.9746094 L147.375,22.4785156 C146.972654,22.9667993 146.583986,23.4199198 146.208984,23.8378906 L148.605469,23.8378906 L148.605469,29.5214844 L147.714844,29.5214844 L147.714844,28.9707031 L144.457031,28.9707031 L144.457031,30.2949219 L149.765625,30.2949219 L149.765625,31.1386719 L144.457031,31.1386719 L144.457031,33.6113281 L143.542969,33.6113281 L143.542969,31.1386719 L138.234375,31.1386719 L138.234375,30.2949219 L143.542969,30.2949219 L143.542969,28.9707031 L140.296875,28.9707031 L140.296875,29.5214844 L139.40625,29.5214844 L139.40625,23.8378906 L141.837891,23.8378906 C141.462889,23.4003884 141.058596,22.9511742 140.625,22.4902344 L141.292969,21.9394531 Z M147.714844,26.7910156 L144.457031,26.7910156 L144.457031,28.1503906 L147.714844,28.1503906 L147.714844,26.7910156 Z M143.542969,26.7910156 L140.296875,26.7910156 L140.296875,28.1503906 L143.542969,28.1503906 L143.542969,26.7910156 Z M147.714844,24.6582031 L144.457031,24.6582031 L144.457031,25.9941406 L147.714844,25.9941406 L147.714844,24.6582031 Z M143.542969,24.6582031 L140.296875,24.6582031 L140.296875,25.9941406 L143.542969,25.9941406 L143.542969,24.6582031 Z" id="一级菜单" fill="#333333" fill-rule="nonzero"></path>
                <path d="M102.1875,130.931641 L113.835938,130.931641 L113.835938,131.962891 L102.1875,131.962891 L102.1875,130.931641 Z M120.134766,131.271484 C120.013671,133.84181 119.214851,135.919914 117.738281,137.505859 C117.45703,137.224608 117.207032,137.00586 116.988281,136.849609 C117.904948,135.882808 118.526203,134.814268 118.85205,133.643963 L118.933594,133.322266 C119.218751,132.205073 119.351563,130.287123 119.332031,127.568359 L118.289062,127.568359 L118.289062,126.736328 L124.136719,126.736328 L124.136719,127.615234 L123,129.970703 L124.945312,129.970703 L124.945312,130.837891 C124.492185,132.25196 123.876957,133.488276 123.099609,134.546875 C123.853519,135.312504 124.777338,135.978513 125.871094,136.544922 C125.636718,136.771486 125.375001,137.060545 125.085938,137.412109 C124.054682,136.759762 123.18555,136.064457 122.478516,135.326172 C121.67773,136.232426 120.73438,136.986325 119.648438,137.587891 C119.429686,137.298827 119.210939,137.048829 118.992188,136.837891 C120.117193,136.201169 121.070309,135.449223 121.851562,134.582031 C121.148434,133.652339 120.576174,132.548835 120.134766,131.271484 Z M122.027344,129.947266 L123.152344,127.568359 L120.222656,127.568359 L120.224121,128.382813 C120.223145,128.646484 120.220703,128.902343 120.216797,129.150391 C120.814456,131.173838 121.562496,132.736323 122.460938,133.837891 C123.125003,132.931636 123.628905,131.919927 123.972656,130.802734 L122.027344,130.802734 L122.027344,129.947266 Z M115.757812,132.443359 C116.570317,132.357421 117.398433,132.259766 118.242188,132.150391 L118.148438,132.912109 L118.148438,132.912109 L117.09327,133.046995 C116.244259,133.160196 115.470986,133.27539 114.773438,133.392578 L114.5625,132.560547 C115.027346,132.150389 115.611325,131.404302 116.314453,130.322266 C115.712888,130.365235 115.093753,130.419922 114.457031,130.486328 L114.234375,129.748047 C114.882816,129.029293 115.636714,127.779306 116.496094,125.998047 L117.386719,126.384766 L116.916092,127.169455 C116.304842,128.174456 115.758596,129.01445 115.277344,129.689453 L116.753906,129.630859 L116.753906,129.630859 C117.035158,129.16992 117.335936,128.662112 117.65625,128.107422 L118.5,128.505859 L117.824061,129.522112 C116.96531,130.800864 116.276565,131.774606 115.757812,132.443359 Z M114.1875,135.173828 C115.437506,134.876952 116.707025,134.552736 117.996094,134.201172 C118.003906,134.474611 118.015625,134.744139 118.03125,135.009766 L116.608519,135.402528 C115.852905,135.61432 115.155277,135.81543 114.515625,136.005859 L114.1875,135.173828 Z M137.835938,136.205078 C137.539061,136.525392 137.296876,136.822264 137.109375,137.095703 C135.117178,136.431637 133.542975,135.365242 132.386719,133.896484 L132.386719,137.681641 L131.484375,137.681641 L131.484375,133.896484 C130.359369,135.224616 128.81251,136.337886 126.84375,137.236328 C126.664062,137.001952 126.437501,136.73633 126.164062,136.439453 C127.820321,135.87695 129.249994,135.025396 130.453125,133.884766 L126.375,133.884766 L126.375,133.064453 L131.484375,133.064453 L131.484375,132.173828 L132.386719,132.173828 L132.386719,133.064453 L137.683594,133.064453 L137.683594,133.884766 L133.324219,133.884766 C134.457037,135.033209 135.960928,135.806639 137.835938,136.205078 Z M126.28125,127.158203 L129.5625,127.158203 L129.5625,126.056641 L130.476562,126.056641 L130.476562,127.158203 L133.523438,127.158203 L133.523438,126.056641 L134.4375,126.056641 L134.4375,127.158203 L137.753906,127.158203 L137.753906,127.990234 L134.4375,127.990234 L134.4375,128.658203 L133.523438,128.658203 L133.523438,127.990234 L130.476562,127.990234 L130.476562,128.763672 L129.5625,128.763672 L129.5625,127.990234 L126.28125,127.990234 L126.28125,127.158203 Z M127.089844,130.041016 L126.985677,129.509766 C126.96658,129.416016 126.946615,129.319662 126.925781,129.220703 C130.535174,129.18164 133.726549,129.060548 136.5,128.857422 L136.640625,129.677734 C133.781236,129.857422 130.597674,129.978515 127.089844,130.041016 Z M133.664062,131.962891 C134.195315,131.486326 134.792965,130.849613 135.457031,130.052734 L136.230469,130.662109 L135.282566,131.608625 C134.843587,132.041317 134.511119,132.358623 134.285156,132.560547 L133.664062,131.962891 Z M127.734375,130.767578 L128.449219,130.322266 L128.671441,130.611039 C128.946904,130.981023 129.279078,131.466794 129.667969,132.068359 L128.859375,132.583984 C128.507811,131.958981 128.132814,131.353519 127.734375,130.767578 Z M130.945312,130.392578 L131.683594,130.029297 C132.058596,130.576175 132.382811,131.103513 132.65625,131.611328 L131.824219,132.056641 C131.660155,131.634764 131.36719,131.080082 130.945312,130.392578 Z M138.234375,134.294922 L143.542969,134.294922 L143.542969,132.970703 L140.296875,132.970703 L140.296875,133.521484 L139.40625,133.521484 L139.40625,127.837891 L141.837891,127.837891 C141.462889,127.400388 141.058596,126.951174 140.625,126.490234 L141.292969,125.939453 C141.871097,126.494143 142.378904,127.005857 142.816406,127.474609 L142.382812,127.837891 L145.130859,127.837891 C145.560549,127.267575 145.996092,126.646488 146.4375,125.974609 L147.375,126.478516 C146.972654,126.966799 146.583986,127.41992 146.208984,127.837891 L148.605469,127.837891 L148.605469,133.521484 L147.714844,133.521484 L147.714844,132.970703 L144.457031,132.970703 L144.457031,134.294922 L149.765625,134.294922 L149.765625,135.138672 L144.457031,135.138672 L144.457031,137.611328 L143.542969,137.611328 L143.542969,135.138672 L138.234375,135.138672 L138.234375,134.294922 Z M144.457031,132.150391 L147.714844,132.150391 L147.714844,130.791016 L144.457031,130.791016 L144.457031,132.150391 Z M140.296875,132.150391 L143.542969,132.150391 L143.542969,130.791016 L140.296875,130.791016 L140.296875,132.150391 Z M147.714844,128.658203 L144.457031,128.658203 L144.457031,129.994141 L147.714844,129.994141 L147.714844,128.658203 Z M140.296875,129.994141 L143.542969,129.994141 L143.542969,128.658203 L140.296875,128.658203 L140.296875,129.994141 Z M156.140625,136 L150.621094,136 L150.621094,135.003906 L153.257812,132.373047 C153.984379,131.646481 154.470702,131.071291 154.716797,130.647461 C154.962892,130.223631 155.085938,129.785159 155.085938,129.332031 C155.085938,128.816404 154.941408,128.4209 154.652344,128.145508 C154.36328,127.870116 153.945315,127.732422 153.398438,127.732422 C152.58984,127.732422 151.818363,128.076168 151.083984,128.763672 L151.083984,127.597656 C151.798832,127.046872 152.630855,126.771484 153.580078,126.771484 C154.396488,126.771484 155.041013,126.992185 155.513672,127.433594 C155.98633,127.875002 156.222656,128.468746 156.222656,129.214844 C156.222656,129.777347 156.071291,130.329099 155.768555,130.870117 C155.465819,131.411136 154.892582,132.099605 154.048828,132.935547 L151.980469,134.957031 L151.980469,134.980469 L156.140625,134.980469 L156.140625,136 Z" id="一级菜单2" fill="#333333" fill-rule="nonzero"></path>
                <rect id="Rectangle" stroke="#D5DAE0" fill="#FFFFFF" x="80.5" y="158.5" width="13" height="13" rx="2"></rect>
                <g id="arrow-down" transform="translate(67.000000, 165.000000) rotate(-90.000000) translate(-67.000000, -165.000000) translate(62.000000, 160.000000)">
                    <rect id="Rectangle" fill="#D8D8D8" opacity="0.01" x="0" y="0" width="10" height="10"></rect>
                    <mask id="mask-2" fill="white">
                        <use xlink:href="#path-1"></use>
                    </mask>
                    <use id="Path-2" fill="#333333" fill-rule="nonzero" xlink:href="#path-1"></use>
                </g>
                <path d="M102.1875,164.931641 L113.835938,164.931641 L113.835938,165.962891 L102.1875,165.962891 L102.1875,164.931641 Z M120.134766,165.271484 C120.013671,167.84181 119.214851,169.919914 117.738281,171.505859 C117.45703,171.224608 117.207032,171.00586 116.988281,170.849609 C117.904948,169.882808 118.526203,168.814268 118.85205,167.643963 L118.933594,167.322266 C119.218751,166.205073 119.351563,164.287123 119.332031,161.568359 L118.289062,161.568359 L118.289062,160.736328 L124.136719,160.736328 L124.136719,161.615234 L123,163.970703 L124.945312,163.970703 L124.945312,164.837891 C124.492185,166.25196 123.876957,167.488276 123.099609,168.546875 C123.853519,169.312504 124.777338,169.978513 125.871094,170.544922 C125.636718,170.771486 125.375001,171.060545 125.085938,171.412109 C124.054682,170.759762 123.18555,170.064457 122.478516,169.326172 C121.67773,170.232426 120.73438,170.986325 119.648438,171.587891 C119.429686,171.298827 119.210939,171.048829 118.992188,170.837891 C120.117193,170.201169 121.070309,169.449223 121.851562,168.582031 C121.148434,167.652339 120.576174,166.548835 120.134766,165.271484 Z M122.027344,163.947266 L123.152344,161.568359 L120.222656,161.568359 L120.224121,162.382813 C120.223145,162.646484 120.220703,162.902343 120.216797,163.150391 C120.814456,165.173838 121.562496,166.736323 122.460938,167.837891 C123.125003,166.931636 123.628905,165.919927 123.972656,164.802734 L122.027344,164.802734 L122.027344,163.947266 Z M115.757812,166.443359 C116.570317,166.357421 117.398433,166.259766 118.242188,166.150391 L118.148438,166.912109 L118.148438,166.912109 L117.09327,167.046995 C116.244259,167.160196 115.470986,167.27539 114.773438,167.392578 L114.5625,166.560547 C115.027346,166.150389 115.611325,165.404302 116.314453,164.322266 C115.712888,164.365235 115.093753,164.419922 114.457031,164.486328 L114.234375,163.748047 C114.882816,163.029293 115.636714,161.779306 116.496094,159.998047 L117.386719,160.384766 L116.916092,161.169455 C116.304842,162.174456 115.758596,163.01445 115.277344,163.689453 L116.753906,163.630859 L116.753906,163.630859 C117.035158,163.16992 117.335936,162.662112 117.65625,162.107422 L118.5,162.505859 L117.824061,163.522112 C116.96531,164.800864 116.276565,165.774606 115.757812,166.443359 Z M114.1875,169.173828 C115.437506,168.876952 116.707025,168.552736 117.996094,168.201172 C118.003906,168.474611 118.015625,168.744139 118.03125,169.009766 L116.608519,169.402528 C115.852905,169.61432 115.155277,169.81543 114.515625,170.005859 L114.1875,169.173828 Z M137.835938,170.205078 C137.539061,170.525392 137.296876,170.822264 137.109375,171.095703 C135.117178,170.431637 133.542975,169.365242 132.386719,167.896484 L132.386719,171.681641 L131.484375,171.681641 L131.484375,167.896484 C130.359369,169.224616 128.81251,170.337886 126.84375,171.236328 C126.664062,171.001952 126.437501,170.73633 126.164062,170.439453 C127.820321,169.87695 129.249994,169.025396 130.453125,167.884766 L126.375,167.884766 L126.375,167.064453 L131.484375,167.064453 L131.484375,166.173828 L132.386719,166.173828 L132.386719,167.064453 L137.683594,167.064453 L137.683594,167.884766 L133.324219,167.884766 C134.457037,169.033209 135.960928,169.806639 137.835938,170.205078 Z M126.28125,161.158203 L129.5625,161.158203 L129.5625,160.056641 L130.476562,160.056641 L130.476562,161.158203 L133.523438,161.158203 L133.523438,160.056641 L134.4375,160.056641 L134.4375,161.158203 L137.753906,161.158203 L137.753906,161.990234 L134.4375,161.990234 L134.4375,162.658203 L133.523438,162.658203 L133.523438,161.990234 L130.476562,161.990234 L130.476562,162.763672 L129.5625,162.763672 L129.5625,161.990234 L126.28125,161.990234 L126.28125,161.158203 Z M127.089844,164.041016 L126.985677,163.509766 C126.96658,163.416016 126.946615,163.319662 126.925781,163.220703 C130.535174,163.18164 133.726549,163.060548 136.5,162.857422 L136.640625,163.677734 C133.781236,163.857422 130.597674,163.978515 127.089844,164.041016 Z M133.664062,165.962891 C134.195315,165.486326 134.792965,164.849613 135.457031,164.052734 L136.230469,164.662109 L135.282566,165.608625 C134.843587,166.041317 134.511119,166.358623 134.285156,166.560547 L133.664062,165.962891 Z M127.734375,164.767578 L128.449219,164.322266 L128.671441,164.611039 C128.946904,164.981023 129.279078,165.466794 129.667969,166.068359 L128.859375,166.583984 C128.507811,165.958981 128.132814,165.353519 127.734375,164.767578 Z M130.945312,164.392578 L131.683594,164.029297 C132.058596,164.576175 132.382811,165.103513 132.65625,165.611328 L131.824219,166.056641 C131.660155,165.634764 131.36719,165.080082 130.945312,164.392578 Z M138.234375,168.294922 L143.542969,168.294922 L143.542969,166.970703 L140.296875,166.970703 L140.296875,167.521484 L139.40625,167.521484 L139.40625,161.837891 L141.837891,161.837891 C141.462889,161.400388 141.058596,160.951174 140.625,160.490234 L141.292969,159.939453 C141.871097,160.494143 142.378904,161.005857 142.816406,161.474609 L142.382812,161.837891 L145.130859,161.837891 C145.560549,161.267575 145.996092,160.646488 146.4375,159.974609 L147.375,160.478516 C146.972654,160.966799 146.583986,161.41992 146.208984,161.837891 L148.605469,161.837891 L148.605469,167.521484 L147.714844,167.521484 L147.714844,166.970703 L144.457031,166.970703 L144.457031,168.294922 L149.765625,168.294922 L149.765625,169.138672 L144.457031,169.138672 L144.457031,171.611328 L143.542969,171.611328 L143.542969,169.138672 L138.234375,169.138672 L138.234375,168.294922 Z M144.457031,166.150391 L147.714844,166.150391 L147.714844,164.791016 L144.457031,164.791016 L144.457031,166.150391 Z M140.296875,166.150391 L143.542969,166.150391 L143.542969,164.791016 L140.296875,164.791016 L140.296875,166.150391 Z M147.714844,162.658203 L144.457031,162.658203 L144.457031,163.994141 L147.714844,163.994141 L147.714844,162.658203 Z M140.296875,163.994141 L143.542969,163.994141 L143.542969,162.658203 L140.296875,162.658203 L140.296875,163.994141 Z M150.837891,168.482422 C151.458987,168.962893 152.160152,169.203125 152.941406,169.203125 C153.566409,169.203125 154.061522,169.049806 154.426758,168.743164 C154.791994,168.436522 154.974609,168.025393 154.974609,167.509766 C154.974609,166.361322 154.152352,165.787109 152.507812,165.787109 L151.751953,165.787109 L151.751953,164.837891 L152.472656,164.837891 C153.929695,164.837891 154.658203,164.298834 154.658203,163.220703 C154.658203,162.224604 154.101568,161.726562 152.988281,161.726562 C152.351559,161.726562 151.751956,161.941404 151.189453,162.371094 L151.189453,161.287109 C151.783206,160.943358 152.476559,160.771484 153.269531,160.771484 C154.042973,160.771484 154.66406,160.973631 155.132812,161.37793 C155.601565,161.782229 155.835938,162.306637 155.835938,162.951172 C155.835938,164.138678 155.230475,164.902342 154.019531,165.242188 L154.019531,165.265625 C154.675785,165.335938 155.194334,165.567381 155.575195,165.959961 C155.956057,166.352541 156.146484,166.841794 156.146484,167.427734 C156.146484,168.244145 155.852542,168.902341 155.264648,169.402344 C154.676755,169.902346 153.894536,170.152344 152.917969,170.152344 C152.058589,170.152344 151.365237,169.992189 150.837891,169.671875 L150.837891,168.482422 Z" id="一级菜单3" fill="#333333" fill-rule="nonzero"></path>
                <path d="M113.21875,59.5332031 L122.78125,59.5332031 L122.78125,60.5410156 L113.21875,60.5410156 L113.21875,59.5332031 Z M112.351562,67.2089844 L123.613281,67.2089844 L123.613281,68.1933594 L112.351562,68.1933594 L112.351562,67.2089844 Z M130.134766,63.2714844 C130.013671,65.8418097 129.214851,67.9199139 127.738281,69.5058594 C127.45703,69.224608 127.207032,69.0058602 126.988281,68.8496094 C127.904948,67.8828077 128.526203,66.8142679 128.85205,65.6439629 L128.933594,65.3222656 C129.218751,64.2050725 129.351563,62.287123 129.332031,59.5683594 L128.289062,59.5683594 L128.289062,58.7363281 L134.136719,58.7363281 L134.136719,59.6152344 L133,61.9707031 L134.945312,61.9707031 L134.945312,62.8378906 C134.492185,64.2519602 133.876957,65.488276 133.099609,66.546875 C133.853519,67.3125038 134.777338,67.9785128 135.871094,68.5449219 C135.636718,68.7714855 135.375001,69.0605451 135.085938,69.4121094 C134.054682,68.7597624 133.18555,68.0644568 132.478516,67.3261719 C131.67773,68.2324264 130.73438,68.9863251 129.648438,69.5878906 C129.429686,69.2988267 129.210939,69.0488292 128.992188,68.8378906 C130.117193,68.2011687 131.070309,67.4492231 131.851562,66.5820312 C131.148434,65.6523391 130.576174,64.5488345 130.134766,63.2714844 Z M132.027344,61.9472656 L133.152344,59.5683594 L130.222656,59.5683594 L130.224121,60.3828126 C130.223145,60.6464838 130.220703,60.9023425 130.216797,61.1503906 C130.814456,63.1738382 131.562496,64.7363226 132.460938,65.8378906 C133.125003,64.9316361 133.628905,63.9199275 133.972656,62.8027344 L132.027344,62.8027344 L132.027344,61.9472656 Z M125.757812,64.4433594 C126.570317,64.3574214 127.398433,64.2597662 128.242188,64.1503906 L128.148438,64.9121094 L128.148438,64.9121094 L127.09327,65.0469948 C126.244259,65.1601962 125.470986,65.27539 124.773438,65.3925781 L124.5625,64.5605469 C125.027346,64.1503886 125.611325,63.4043023 126.314453,62.3222656 C125.712888,62.3652346 125.093753,62.4199215 124.457031,62.4863281 L124.234375,61.7480469 C124.882816,61.0292933 125.636714,59.7793058 126.496094,57.9980469 L127.386719,58.3847656 L126.916092,59.1694553 C126.304842,60.1744561 125.758596,61.0144498 125.277344,61.6894531 L126.753906,61.6308594 L126.753906,61.6308594 C127.035158,61.1699196 127.335936,60.6621121 127.65625,60.1074219 L128.5,60.5058594 L127.824061,61.5221124 C126.96531,62.8008638 126.276565,63.774606 125.757812,64.4433594 Z M124.1875,67.1738281 C125.437506,66.8769516 126.707025,66.5527361 127.996094,66.2011719 C128.003906,66.4746107 128.015625,66.7441393 128.03125,67.0097656 L126.608519,67.4025276 C125.852905,67.6143195 125.155277,67.8154297 124.515625,68.0058594 L124.1875,67.1738281 Z M147.835938,68.2050781 C147.539061,68.5253922 147.296876,68.8222643 147.109375,69.0957031 C145.117178,68.4316373 143.542975,67.3652417 142.386719,65.8964844 L142.386719,69.6816406 L141.484375,69.6816406 L141.484375,65.8964844 C140.359369,67.224616 138.81251,68.3378861 136.84375,69.2363281 C136.664062,69.001952 136.437501,68.7363296 136.164062,68.4394531 C137.820321,67.8769503 139.249994,67.0253963 140.453125,65.8847656 L136.375,65.8847656 L136.375,65.0644531 L141.484375,65.0644531 L141.484375,64.1738281 L142.386719,64.1738281 L142.386719,65.0644531 L147.683594,65.0644531 L147.683594,65.8847656 L143.324219,65.8847656 C144.457037,67.0332089 145.960928,67.8066386 147.835938,68.2050781 Z M136.28125,59.1582031 L139.5625,59.1582031 L139.5625,58.0566406 L140.476562,58.0566406 L140.476562,59.1582031 L143.523438,59.1582031 L143.523438,58.0566406 L144.4375,58.0566406 L144.4375,59.1582031 L147.753906,59.1582031 L147.753906,59.9902344 L144.4375,59.9902344 L144.4375,60.6582031 L143.523438,60.6582031 L143.523438,59.9902344 L140.476562,59.9902344 L140.476562,60.7636719 L139.5625,60.7636719 L139.5625,59.9902344 L136.28125,59.9902344 L136.28125,59.1582031 Z M137.089844,62.0410156 L136.985677,61.509766 C136.96658,61.4160161 136.946615,61.319662 136.925781,61.2207031 C140.535174,61.1816404 143.726549,61.0605479 146.5,60.8574219 L146.640625,61.6777344 C143.781236,61.8574219 140.597674,61.9785153 137.089844,62.0410156 Z M143.664062,63.9628906 C144.195315,63.4863257 144.792965,62.8496134 145.457031,62.0527344 L146.230469,62.6621094 L145.282566,63.6086254 C144.843587,64.0413171 144.511119,64.3586228 144.285156,64.5605469 L143.664062,63.9628906 Z M137.734375,62.7675781 L138.449219,62.3222656 L138.671441,62.6110391 C138.946904,62.9810232 139.279078,63.4667939 139.667969,64.0683594 L138.859375,64.5839844 C138.507811,63.9589813 138.132814,63.3535186 137.734375,62.7675781 Z M140.945312,62.3925781 L141.683594,62.0292969 C142.058596,62.5761746 142.382811,63.1035131 142.65625,63.6113281 L141.824219,64.0566406 C141.660155,63.6347635 141.36719,63.0800816 140.945312,62.3925781 Z M148.234375,66.2949219 L153.542969,66.2949219 L153.542969,64.9707031 L150.296875,64.9707031 L150.296875,65.5214844 L149.40625,65.5214844 L149.40625,59.8378906 L151.837891,59.8378906 C151.462889,59.4003884 151.058596,58.9511742 150.625,58.4902344 L151.292969,57.9394531 C151.871097,58.4941434 152.378904,59.005857 152.816406,59.4746094 L152.382812,59.8378906 L155.130859,59.8378906 C155.560549,59.2675753 155.996092,58.6464877 156.4375,57.9746094 L157.375,58.4785156 C156.972654,58.9667993 156.583986,59.4199198 156.208984,59.8378906 L158.605469,59.8378906 L158.605469,65.5214844 L157.714844,65.5214844 L157.714844,64.9707031 L154.457031,64.9707031 L154.457031,66.2949219 L159.765625,66.2949219 L159.765625,67.1386719 L154.457031,67.1386719 L154.457031,69.6113281 L153.542969,69.6113281 L153.542969,67.1386719 L148.234375,67.1386719 L148.234375,66.2949219 Z M154.457031,64.1503906 L157.714844,64.1503906 L157.714844,62.7910156 L154.457031,62.7910156 L154.457031,64.1503906 Z M150.296875,64.1503906 L153.542969,64.1503906 L153.542969,62.7910156 L150.296875,62.7910156 L150.296875,64.1503906 Z M157.714844,60.6582031 L154.457031,60.6582031 L154.457031,61.9941406 L157.714844,61.9941406 L157.714844,60.6582031 Z M150.296875,61.9941406 L153.542969,61.9941406 L153.542969,60.6582031 L150.296875,60.6582031 L150.296875,61.9941406 Z M166.310547,68 L161.107422,68 L161.107422,67.0097656 L163.140625,67.0097656 L163.140625,60.1191406 L161.054688,60.7226562 L161.054688,59.6679688 L164.283203,58.7304688 L164.283203,67.0097656 L166.310547,67.0097656 L166.310547,68 Z" id="二级菜单1" fill="#5A6677" fill-rule="nonzero"></path>
                <path d="M113.21875,91.5332031 L122.78125,91.5332031 L122.78125,92.5410156 L113.21875,92.5410156 L113.21875,91.5332031 Z M112.351562,99.2089844 L123.613281,99.2089844 L123.613281,100.193359 L112.351562,100.193359 L112.351562,99.2089844 Z M130.134766,95.2714844 C130.013671,97.8418097 129.214851,99.9199139 127.738281,101.505859 C127.45703,101.224608 127.207032,101.00586 126.988281,100.849609 C127.904948,99.8828077 128.526203,98.8142679 128.85205,97.6439629 L128.933594,97.3222656 C129.218751,96.2050725 129.351563,94.287123 129.332031,91.5683594 L128.289062,91.5683594 L128.289062,90.7363281 L134.136719,90.7363281 L134.136719,91.6152344 L133,93.9707031 L134.945312,93.9707031 L134.945312,94.8378906 C134.492185,96.2519602 133.876957,97.488276 133.099609,98.546875 C133.853519,99.3125038 134.777338,99.9785128 135.871094,100.544922 C135.636718,100.771486 135.375001,101.060545 135.085938,101.412109 C134.054682,100.759762 133.18555,100.064457 132.478516,99.3261719 C131.67773,100.232426 130.73438,100.986325 129.648438,101.587891 C129.429686,101.298827 129.210939,101.048829 128.992188,100.837891 C130.117193,100.201169 131.070309,99.4492231 131.851562,98.5820312 C131.148434,97.6523391 130.576174,96.5488345 130.134766,95.2714844 Z M132.027344,93.9472656 L133.152344,91.5683594 L130.222656,91.5683594 L130.224121,92.3828126 C130.223145,92.6464838 130.220703,92.9023425 130.216797,93.1503906 C130.814456,95.1738382 131.562496,96.7363226 132.460938,97.8378906 C133.125003,96.9316361 133.628905,95.9199275 133.972656,94.8027344 L132.027344,94.8027344 L132.027344,93.9472656 Z M125.757812,96.4433594 C126.570317,96.3574214 127.398433,96.2597662 128.242188,96.1503906 L128.148438,96.9121094 L128.148438,96.9121094 L127.09327,97.0469948 C126.244259,97.1601962 125.470986,97.27539 124.773438,97.3925781 L124.5625,96.5605469 C125.027346,96.1503886 125.611325,95.4043023 126.314453,94.3222656 C125.712888,94.3652346 125.093753,94.4199215 124.457031,94.4863281 L124.234375,93.7480469 C124.882816,93.0292933 125.636714,91.7793058 126.496094,89.9980469 L127.386719,90.3847656 L126.916092,91.1694553 C126.304842,92.1744561 125.758596,93.0144497 125.277344,93.6894531 L126.753906,93.6308594 L126.753906,93.6308594 C127.035158,93.1699196 127.335936,92.6621121 127.65625,92.1074219 L128.5,92.5058594 L127.824061,93.5221124 C126.96531,94.8008638 126.276565,95.774606 125.757812,96.4433594 Z M124.1875,99.1738281 C125.437506,98.8769516 126.707025,98.5527361 127.996094,98.2011719 C128.003906,98.4746107 128.015625,98.7441393 128.03125,99.0097656 L126.608519,99.4025276 C125.852905,99.6143195 125.155277,99.8154297 124.515625,100.005859 L124.1875,99.1738281 Z M147.835938,100.205078 C147.539061,100.525392 147.296876,100.822264 147.109375,101.095703 C145.117178,100.431637 143.542975,99.3652417 142.386719,97.8964844 L142.386719,101.681641 L141.484375,101.681641 L141.484375,97.8964844 C140.359369,99.224616 138.81251,100.337886 136.84375,101.236328 C136.664062,101.001952 136.437501,100.73633 136.164062,100.439453 C137.820321,99.8769503 139.249994,99.0253963 140.453125,97.8847656 L136.375,97.8847656 L136.375,97.0644531 L141.484375,97.0644531 L141.484375,96.1738281 L142.386719,96.1738281 L142.386719,97.0644531 L147.683594,97.0644531 L147.683594,97.8847656 L143.324219,97.8847656 C144.457037,99.0332089 145.960928,99.8066386 147.835938,100.205078 Z M136.28125,91.1582031 L139.5625,91.1582031 L139.5625,90.0566406 L140.476562,90.0566406 L140.476562,91.1582031 L143.523438,91.1582031 L143.523438,90.0566406 L144.4375,90.0566406 L144.4375,91.1582031 L147.753906,91.1582031 L147.753906,91.9902344 L144.4375,91.9902344 L144.4375,92.6582031 L143.523438,92.6582031 L143.523438,91.9902344 L140.476562,91.9902344 L140.476562,92.7636719 L139.5625,92.7636719 L139.5625,91.9902344 L136.28125,91.9902344 L136.28125,91.1582031 Z M137.089844,94.0410156 L136.985677,93.509766 C136.96658,93.4160161 136.946615,93.319662 136.925781,93.2207031 C140.535174,93.1816404 143.726549,93.0605479 146.5,92.8574219 L146.640625,93.6777344 C143.781236,93.8574219 140.597674,93.9785153 137.089844,94.0410156 Z M143.664062,95.9628906 C144.195315,95.4863257 144.792965,94.8496134 145.457031,94.0527344 L146.230469,94.6621094 L145.282566,95.6086254 C144.843587,96.0413171 144.511119,96.3586228 144.285156,96.5605469 L143.664062,95.9628906 Z M137.734375,94.7675781 L138.449219,94.3222656 L138.671441,94.6110391 C138.946904,94.9810232 139.279078,95.4667939 139.667969,96.0683594 L138.859375,96.5839844 C138.507811,95.9589812 138.132814,95.3535186 137.734375,94.7675781 Z M140.945312,94.3925781 L141.683594,94.0292969 C142.058596,94.5761746 142.382811,95.1035131 142.65625,95.6113281 L141.824219,96.0566406 C141.660155,95.6347635 141.36719,95.0800816 140.945312,94.3925781 Z M148.234375,98.2949219 L153.542969,98.2949219 L153.542969,96.9707031 L150.296875,96.9707031 L150.296875,97.5214844 L149.40625,97.5214844 L149.40625,91.8378906 L151.837891,91.8378906 C151.462889,91.4003884 151.058596,90.9511742 150.625,90.4902344 L151.292969,89.9394531 C151.871097,90.4941434 152.378904,91.005857 152.816406,91.4746094 L152.382812,91.8378906 L155.130859,91.8378906 C155.560549,91.2675753 155.996092,90.6464877 156.4375,89.9746094 L157.375,90.4785156 C156.972654,90.9667993 156.583986,91.4199198 156.208984,91.8378906 L158.605469,91.8378906 L158.605469,97.5214844 L157.714844,97.5214844 L157.714844,96.9707031 L154.457031,96.9707031 L154.457031,98.2949219 L159.765625,98.2949219 L159.765625,99.1386719 L154.457031,99.1386719 L154.457031,101.611328 L153.542969,101.611328 L153.542969,99.1386719 L148.234375,99.1386719 L148.234375,98.2949219 Z M154.457031,96.1503906 L157.714844,96.1503906 L157.714844,94.7910156 L154.457031,94.7910156 L154.457031,96.1503906 Z M150.296875,96.1503906 L153.542969,96.1503906 L153.542969,94.7910156 L150.296875,94.7910156 L150.296875,96.1503906 Z M157.714844,92.6582031 L154.457031,92.6582031 L154.457031,93.9941406 L157.714844,93.9941406 L157.714844,92.6582031 Z M150.296875,93.9941406 L153.542969,93.9941406 L153.542969,92.6582031 L150.296875,92.6582031 L150.296875,93.9941406 Z M166.140625,100 L160.621094,100 L160.621094,99.0039062 L163.257812,96.3730469 C163.984379,95.6464807 164.470702,95.0712912 164.716797,94.6474609 C164.962892,94.2236307 165.085938,93.7851585 165.085938,93.3320312 C165.085938,92.8164037 164.941408,92.4208998 164.652344,92.1455078 C164.36328,91.8701158 163.945315,91.7324219 163.398438,91.7324219 C162.58984,91.7324219 161.818363,92.0761684 161.083984,92.7636719 L161.083984,91.5976562 C161.798832,91.0468722 162.630855,90.7714844 163.580078,90.7714844 C164.396488,90.7714844 165.041013,90.9921853 165.513672,91.4335938 C165.98633,91.8750022 166.222656,92.4687463 166.222656,93.2148438 C166.222656,93.7773466 166.071291,94.3290989 165.768555,94.8701172 C165.465819,95.4111355 164.892582,96.0996052 164.048828,96.9355469 L161.980469,98.9570312 L161.980469,98.9804688 L166.140625,98.9804688 L166.140625,100 Z" id="二级菜单2" fill="#5A6677" fill-rule="nonzero"></path>
                <g id="arrow-down" transform="translate(62.000000, 22.000000)">
                    <rect id="Rectangle" fill="#D8D8D8" opacity="0.01" x="0" y="0" width="10" height="10"></rect>
                    <mask id="mask-4" fill="white">
                        <use xlink:href="#path-3"></use>
                    </mask>
                    <use id="Path-2" fill="#333333" fill-rule="nonzero" xlink:href="#path-3"></use>
                </g>
                <g id="arrow-down" transform="translate(67.000000, 131.000000) rotate(-90.000000) translate(-67.000000, -131.000000) translate(62.000000, 126.000000)">
                    <rect id="Rectangle" fill="#D8D8D8" opacity="0.01" x="0" y="0" width="10" height="10"></rect>
                    <mask id="mask-6" fill="white">
                        <use xlink:href="#path-5"></use>
                    </mask>
                    <use id="Path-2" fill="#333333" fill-rule="nonzero" xlink:href="#path-5"></use>
                </g>
                <text id="样式一" font-family="MicrosoftYaHei, Microsoft YaHei" font-size="12" font-weight="normal" line-spacing="22" fill="#525A6E">
                    <tspan x="8" y="27">样式一</tspan>
                </text>
            </g>
        </g>
    </g>
</svg>