<?xml version="1.0" encoding="UTF-8"?>
<svg width="241px" height="68px" viewBox="0 0 241 68" version="1.1" xmlns="http://www.w3.org/2000/svg" xmlns:xlink="http://www.w3.org/1999/xlink">
    <!-- Generator: Sketch 58 (84663) - https://sketch.com -->
    <title>email-input/style3</title>
    <desc>Created with Sketch.</desc>
    <g id="页面-1" stroke="none" stroke-width="1" fill="none" fill-rule="evenodd">
        <g id="email-input/style3">
            <rect id="矩形备份" fill-opacity="0.01" fill="#F6F6F6" x="0" y="0" width="241" height="68"></rect>
            <path d="M61.328125,29.5195312 L59.3945312,36 L58.1992188,36 L56.9101562,31.453125 C56.8554685,31.2578115 56.8203126,31.0507823 56.8046875,30.8320312 L56.78125,30.8320312 C56.7724609,30.9550787 56.7449953,31.1000973 56.6988527,31.2670894 L55.2519531,36 L54.0917969,36 L52.1464844,29.5195312 L53.3417969,29.5195312 L54.6367188,34.3242188 C54.6757814,34.4687507 54.705078,34.6660144 54.7246094,34.9160156 L54.7714844,34.9160156 C54.7871095,34.7011708 54.8242185,34.4980478 54.8828125,34.3066406 L56.2773438,29.5195312 L57.3378906,29.5195312 L58.6972656,34.3300781 C58.7363283,34.4707038 58.767578,34.6699206 58.7910156,34.9277344 L58.84375,34.9277344 C58.8496094,34.7988275 58.8708494,34.6545413 58.9074706,34.4948734 L60.2148438,29.5195312 L61.328125,29.5195312 Z M62.6523438,29.9707031 C63.2968782,29.5683574 64.0410114,29.3671875 64.8847656,29.3671875 C66.4472734,29.3671875 67.2285156,30.1874918 67.2285156,31.828125 L67.2285156,36 L66.0917969,36 L66.0917969,34.9980469 L66.0625,34.9980469 C65.613279,35.767582 64.9511763,36.1523438 64.0761719,36.1523438 C63.4472625,36.1523438 62.9472675,35.9824236 62.5761719,35.6425781 C62.2050763,35.3027327 62.0195312,34.8437529 62.0195312,34.265625 C62.0195312,33.0546814 62.736321,32.3496104 64.1699219,32.1503906 L66.0917969,31.8808594 C66.0917969,30.8222603 65.6543013,30.2929688 64.7792969,30.2929688 C64.0019492,30.2929688 63.292972,30.5546849 62.6523438,31.078125 L62.6523438,29.9707031 Z M64.5742188,32.953125 C64.0429661,33.0234379 63.6767588,33.156249 63.4755859,33.3515625 C63.2744131,33.546876 63.1738281,33.8203107 63.1738281,34.171875 C63.1738281,34.4804703 63.283202,34.7324209 63.5019531,34.9277344 C63.7207042,35.1230479 64.0097638,35.2207031 64.3691406,35.2207031 C64.8691431,35.2207031 65.2812484,35.0449236 65.6054688,34.6933594 C65.9296891,34.3417951 66.0917969,33.9003933 66.0917969,33.3691406 L66.0917969,32.7480469 L64.5742188,32.953125 Z M74.6113281,36 L73.46875,36 L73.46875,32.3144531 C73.46875,30.9824152 72.9824267,30.3164062 72.0097656,30.3164062 C71.5058569,30.3164062 71.0917985,30.5039044 70.7675781,30.8789062 C70.4433578,31.2539081 70.28125,31.7285128 70.28125,32.3027344 L70.28125,36 L69.1328125,36 L69.1328125,29.5195312 L70.28125,29.5195312 L70.28125,30.5917969 L70.3046875,30.5917969 C70.7929712,29.7753865 71.5019485,29.3671875 72.4316406,29.3671875 C73.1425817,29.3671875 73.6835919,29.5947243 74.0546875,30.0498047 C74.4257831,30.5048851 74.6113281,31.1679644 74.6113281,32.0390625 L74.6113281,36 Z M82.1523438,35.4550781 C82.1523438,37.8535276 80.9882929,39.0527344 78.6601562,39.0527344 C77.8554647,39.0527344 77.156253,38.9023453 76.5625,38.6015625 L76.5625,37.4941406 C77.2851599,37.8964864 77.9785123,38.0976562 78.6425781,38.0976562 C80.2168047,38.0976562 81.0039062,37.2695395 81.0039062,35.6132812 L81.0039062,34.9277344 L80.9804688,34.9277344 C80.4882788,35.7441447 79.7539111,36.1523438 78.7773438,36.1523438 C77.9648397,36.1523438 77.3144556,35.861331 76.8261719,35.2792969 C76.3378882,34.6972627 76.09375,33.9257861 76.09375,32.9648438 C76.09375,31.8593695 76.3632786,30.9834017 76.9023438,30.3369141 C77.4414089,29.6904265 78.1601518,29.3671875 79.0585938,29.3671875 C79.9218793,29.3671875 80.5624979,29.7109341 80.9804688,30.3984375 L81.0039062,30.3984375 L81.0039062,29.5195312 L82.1523438,29.5195312 L82.1523438,35.4550781 Z M81.0039062,32.1445312 C81.0078125,31.6445287 80.8398454,31.2148455 80.5,30.8554688 C80.1601546,30.496092 79.74219,30.3164062 79.2460938,30.3164062 C78.6210906,30.3164062 78.1347674,30.5458961 77.7871094,31.0048828 C77.4394514,31.4638695 77.265625,32.093746 77.265625,32.8945312 C77.265625,33.5820347 77.4335921,34.1386697 77.7695312,34.5644531 C78.1054704,34.9902365 78.5507785,35.203125 79.1054688,35.203125 C79.6640653,35.203125 80.121092,35.000002 80.4765625,34.59375 C80.832033,34.187498 81.0078125,33.6718781 81.0039062,33.046875 L81.0039062,32.1445312 Z M84.0683594,27.234375 C84.0683594,27.031249 84.1367181,26.8603523 84.2734375,26.7216797 C84.4101569,26.5830071 84.5820302,26.5136719 84.7890625,26.5136719 C85.0000011,26.5136719 85.1757805,26.5820306 85.3164062,26.71875 C85.457032,26.8554694 85.5273438,27.0273427 85.5273438,27.234375 C85.5273438,27.4335947 85.4560554,27.6015618 85.3134766,27.7382812 C85.1708977,27.8750007 84.9960948,27.9433594 84.7890625,27.9433594 C84.5820302,27.9433594 84.4101569,27.8740241 84.2734375,27.7353516 C84.1367181,27.596679 84.0683594,27.4296885 84.0683594,27.234375 Z M85.3515625,35.7480469 C85.3515625,36.7988334 85.1337912,37.6123018 84.6982422,38.1884766 C84.2626931,38.7646513 83.6445353,39.0527344 82.84375,39.0527344 C82.5468735,39.0527344 82.2558608,38.9843757 81.9707031,38.8476562 L81.9707031,37.8105469 C82.2753921,37.9980478 82.5644518,38.0917969 82.8378906,38.0917969 C83.7480514,38.0917969 84.203125,37.3671947 84.203125,35.9179688 L84.203125,29.5195312 L85.3515625,29.5195312 L85.3515625,35.7480469 Z M87.2675781,27.234375 C87.2675781,27.031249 87.3369134,26.8603523 87.4755859,26.7216797 C87.6142585,26.5830071 87.7851552,26.5136719 87.9882812,26.5136719 C88.1953135,26.5136719 88.3701165,26.5820306 88.5126953,26.71875 C88.6552742,26.8554694 88.7265625,27.0273427 88.7265625,27.234375 C88.7265625,27.437501 88.6552742,27.6064446 88.5126953,27.7412109 C88.3701165,27.8759772 88.1953135,27.9433594 87.9882812,27.9433594 C87.781249,27.9433594 87.6093757,27.8759772 87.4726562,27.7412109 C87.3359368,27.6064446 87.2675781,27.437501 87.2675781,27.234375 Z M87.4023438,36 L87.4023438,29.5195312 L88.5507812,29.5195312 L88.5507812,36 L87.4023438,36 Z M95.8808594,33.0527344 L91.3457031,33.0527344 C91.3652345,33.7441441 91.5546857,34.2783184 91.9140625,34.6552734 C92.2734393,35.0322284 92.7753874,35.2207031 93.4199219,35.2207031 C94.146488,35.2207031 94.812497,34.9882836 95.4179688,34.5234375 L95.4179688,35.5488281 C94.8476534,35.9511739 94.0918016,36.1523438 93.1503906,36.1523438 C92.2128859,36.1523438 91.4814479,35.8554717 90.9560547,35.2617188 C90.4306614,34.6679658 90.1679688,33.8437553 90.1679688,32.7890625 C90.1679688,31.79687 90.4560518,30.9785188 91.0322266,30.3339844 C91.6084013,29.6894499 92.3242145,29.3671875 93.1796875,29.3671875 C94.027348,29.3671875 94.6894507,29.6396457 95.1660156,30.1845703 C95.6425805,30.7294949 95.8808594,31.4921826 95.8808594,32.4726562 L95.8808594,33.0527344 Z M94.7324219,32.1328125 C94.7285156,31.5468721 94.5898451,31.0937516 94.3164062,30.7734375 C94.0429674,30.4531234 93.6582056,30.2929688 93.1621094,30.2929688 C92.7050758,30.2929688 92.309572,30.4628889 91.9755859,30.8027344 C91.6415999,31.1425798 91.4316411,31.5859348 91.3457031,32.1328125 L94.7324219,32.1328125 Z M103.955078,29.2675781 L104.816406,29.2675781 L104.523438,32.8183594 L104.523438,32.8183594 C104.523438,33.6582073 104.763669,34.078125 105.244141,34.078125 C105.689455,34.078125 106.057616,33.8349634 106.348633,33.3486328 C106.63965,32.8623023 106.785156,32.2285195 106.785156,31.4472656 C106.785156,30.3066349 106.423832,29.3750036 105.701172,28.6523438 C104.978512,27.9296839 103.978522,27.5683594 102.701172,27.5683594 C101.455072,27.5683594 100.423832,28.0039019 99.6074219,28.875 C98.7910115,29.7460981 98.3828125,30.835931 98.3828125,32.1445312 C98.3828125,33.4257877 98.7656212,34.4570273 99.53125,35.2382812 C100.296879,36.0195352 101.339837,36.4101562 102.660156,36.4101562 C103.683599,36.4101562 104.570309,36.2363299 105.320312,35.8886719 L105.320312,36.7207031 C104.58984,37.0332047 103.675787,37.1894531 102.578125,37.1894531 C101.042961,37.1894531 99.8037157,36.7275437 98.8603516,35.8037109 C97.9169875,34.8798782 97.4453125,33.6718825 97.4453125,32.1796875 C97.4453125,30.636711 97.9404247,29.3544973 98.9306641,28.3330078 C99.9209034,27.3115183 101.189445,26.8007812 102.736328,26.8007812 C104.181648,26.8007812 105.374019,27.2255817 106.313477,28.0751953 C107.252934,28.9248089 107.722656,30.0312432 107.722656,31.3945312 C107.722656,32.4101613 107.470706,33.2392546 106.966797,33.8818359 C106.462888,34.5244173 105.84766,34.8457031 105.121094,34.8457031 C104.195308,34.8457031 103.728516,34.3554737 103.720703,33.375 L103.691406,33.375 C103.378905,34.3554737 102.781254,34.8457031 101.898438,34.8457031 C101.324216,34.8457031 100.8584,34.6347677 100.500977,34.2128906 C100.143553,33.7910135 99.9648438,33.2168005 99.9648438,32.4902344 C99.9648438,31.5371046 100.210935,30.7460969 100.703125,30.1171875 C101.195315,29.4882781 101.830074,29.1738281 102.607422,29.1738281 C102.912111,29.1738281 103.182616,29.2509758 103.418945,29.4052734 C103.655275,29.5595711 103.804687,29.751952 103.867188,29.9824219 L103.890625,29.9824219 L103.955078,29.2675781 L103.955078,29.2675781 Z M100.919922,32.4960938 C100.919922,32.9687524 101.020507,33.3486314 101.22168,33.6357422 C101.422853,33.922853 101.708983,34.0664062 102.080078,34.0664062 C102.591799,34.0664062 102.995116,33.8105494 103.290039,33.2988281 C103.584962,32.7871068 103.732422,32.1113323 103.732422,31.2714844 C103.732422,30.3886675 103.361332,29.9472656 102.619141,29.9472656 C102.115232,29.9472656 101.706056,30.1933569 101.391602,30.6855469 C101.077147,31.1777368 100.919922,31.7812464 100.919922,32.4960938 Z M115.070312,36 L109.867188,36 L109.867188,35.0097656 L111.900391,35.0097656 L111.900391,28.1191406 L109.814453,28.7226562 L109.814453,27.6679688 L113.042969,26.7304688 L113.042969,35.0097656 L115.070312,35.0097656 L115.070312,36 Z M121.9375,36 L116.417969,36 L116.417969,35.0039062 L119.054688,32.3730469 C119.781254,31.6464807 120.267577,31.0712912 120.513672,30.6474609 C120.759767,30.2236307 120.882812,29.7851585 120.882812,29.3320312 C120.882812,28.8164037 120.738283,28.4208998 120.449219,28.1455078 C120.160155,27.8701158 119.74219,27.7324219 119.195312,27.7324219 C118.386715,27.7324219 117.615238,28.0761684 116.880859,28.7636719 L116.880859,27.5976562 C117.595707,27.0468722 118.42773,26.7714844 119.376953,26.7714844 C120.193363,26.7714844 120.837888,26.9921853 121.310547,27.4335938 C121.783205,27.8750022 122.019531,28.4687463 122.019531,29.2148438 C122.019531,29.7773466 121.868166,30.3290989 121.56543,30.8701172 C121.262694,31.4111355 120.689457,32.0996052 119.845703,32.9355469 L117.777344,34.9570312 L117.777344,34.9804688 L121.9375,34.9804688 L121.9375,36 Z M123.671875,34.4824219 C124.292972,34.962893 124.994137,35.203125 125.775391,35.203125 C126.400394,35.203125 126.895506,35.0498062 127.260742,34.7431641 C127.625978,34.4365219 127.808594,34.0253932 127.808594,33.5097656 C127.808594,32.3613224 126.986336,31.7871094 125.341797,31.7871094 L124.585938,31.7871094 L124.585938,30.8378906 L125.306641,30.8378906 C126.763679,30.8378906 127.492188,30.2988335 127.492188,29.2207031 C127.492188,28.2246044 126.935552,27.7265625 125.822266,27.7265625 C125.185544,27.7265625 124.58594,27.9414041 124.023438,28.3710938 L124.023438,27.2871094 C124.61719,26.9433577 125.310543,26.7714844 126.103516,26.7714844 C126.876957,26.7714844 127.498045,26.9736308 127.966797,27.3779297 C128.435549,27.7822286 128.669922,28.3066374 128.669922,28.9511719 C128.669922,30.1386778 128.064459,30.9023421 126.853516,31.2421875 L126.853516,31.265625 C127.509769,31.3359379 128.028318,31.5673808 128.40918,31.9599609 C128.790041,32.352541 128.980469,32.8417939 128.980469,33.4277344 C128.980469,34.2441447 128.686526,34.9023412 128.098633,35.4023438 C127.510739,35.9023463 126.728521,36.1523438 125.751953,36.1523438 C124.892574,36.1523438 124.199221,35.9921891 123.671875,35.671875 L123.671875,34.4824219 Z M130.568359,35.3964844 C130.568359,35.1855458 130.640624,35.0078132 130.785156,34.8632812 C130.929688,34.7187493 131.109374,34.6464844 131.324219,34.6464844 C131.54297,34.6464844 131.724609,34.7197258 131.869141,34.8662109 C132.013673,35.012696 132.085938,35.1894521 132.085938,35.3964844 C132.085938,35.5996104 132.013673,35.7744133 131.869141,35.9208984 C131.724609,36.0673835 131.541017,36.140625 131.318359,36.140625 C131.103515,36.140625 130.924805,36.0673835 130.782227,35.9208984 C130.639648,35.7744133 130.568359,35.5996104 130.568359,35.3964844 Z M138.261719,35.7070312 C137.765623,36.0039077 137.167972,36.1523438 136.46875,36.1523438 C135.531245,36.1523438 134.777347,35.8515655 134.207031,35.25 C133.636716,34.6484345 133.351562,33.8691454 133.351562,32.9121094 C133.351562,31.8496041 133.659177,30.9931673 134.274414,30.3427734 C134.889652,29.6923796 135.712885,29.3671875 136.744141,29.3671875 C137.337894,29.3671875 137.845701,29.4726552 138.267578,29.6835938 L138.267578,30.8203125 C137.810545,30.4843733 137.302737,30.3164062 136.744141,30.3164062 C136.087887,30.3164062 135.553713,30.543943 135.141602,30.9990234 C134.72949,31.4541038 134.523438,32.0605431 134.523438,32.8183594 C134.523438,33.5644569 134.717771,34.1484354 135.106445,34.5703125 C135.495119,34.9921896 136.019528,35.203125 136.679688,35.203125 C137.238284,35.203125 137.765623,35.0195331 138.261719,34.6523438 L138.261719,35.7070312 Z M139.369141,32.8300781 C139.369141,31.7597603 139.667966,30.9150422 140.265625,30.2958984 C140.863284,29.6767547 141.673823,29.3671875 142.697266,29.3671875 C143.669927,29.3671875 144.432614,29.6650361 144.985352,30.2607422 C145.538089,30.8564483 145.814453,31.6796822 145.814453,32.7304688 C145.814453,33.7539114 145.519534,34.580075 144.929688,35.2089844 C144.339841,35.8378938 143.548833,36.1523438 142.556641,36.1523438 C141.587886,36.1523438 140.814456,35.8476593 140.236328,35.2382812 C139.6582,34.6289032 139.369141,33.8261769 139.369141,32.8300781 Z M140.541016,32.7949219 C140.541016,33.5410194 140.72949,34.1289041 141.106445,34.5585938 C141.4834,34.9882834 141.990231,35.203125 142.626953,35.203125 C143.283206,35.203125 143.783201,34.9931662 144.126953,34.5732422 C144.470705,34.1533182 144.642578,33.5507852 144.642578,32.765625 C144.642578,31.9765586 144.470705,31.3710959 144.126953,30.9492188 C143.783201,30.5273416 143.283206,30.3164062 142.626953,30.3164062 C141.982419,30.3164062 141.473635,30.5371072 141.100586,30.9785156 C140.727537,31.4199241 140.541016,32.0253868 140.541016,32.7949219 Z M156.759766,36 L155.611328,36 L155.611328,32.2792969 C155.611328,31.5761684 155.501954,31.0732437 155.283203,30.7705078 C155.064452,30.4677719 154.705081,30.3164062 154.205078,30.3164062 C153.783201,30.3164062 153.421877,30.5136699 153.121094,30.9082031 C152.820311,31.3027363 152.669922,31.7695286 152.669922,32.3085938 L152.669922,36 L151.521484,36 L151.521484,32.1621094 C151.521484,30.9316345 151.04688,30.3164062 150.097656,30.3164062 C149.660154,30.3164062 149.297853,30.5039044 149.010742,30.8789062 C148.723631,31.2539081 148.580078,31.732419 148.580078,32.3144531 L148.580078,36 L147.431641,36 L147.431641,29.5195312 L148.580078,29.5195312 L148.580078,30.5449219 L148.603516,30.5449219 C149.064455,29.7597617 149.738277,29.3671875 150.625,29.3671875 C151.058596,29.3671875 151.441405,29.4863269 151.773438,29.7246094 C152.10547,29.9628918 152.335937,30.2851542 152.464844,30.6914062 C152.945315,29.8085893 153.664058,29.3671875 154.621094,29.3671875 C156.046882,29.3671875 156.759766,30.246085 156.759766,32.0039062 L156.759766,36 Z" id="wangjie@123.com" fill="#333333" fill-rule="nonzero"></path>
            <rect id="矩形" fill="#D9D9D9" x="52" y="45" width="177" height="1"></rect>
            <text id="样式三" font-family="MicrosoftYaHei, Microsoft YaHei" font-size="12" font-weight="normal" line-spacing="22" fill="#525A6E">
                <tspan x="8" y="35">样式三</tspan>
            </text>
        </g>
    </g>
</svg>