<?xml version="1.0" encoding="UTF-8"?>
<svg width="241px" height="197px" viewBox="0 0 241 197" version="1.1" xmlns="http://www.w3.org/2000/svg" xmlns:xlink="http://www.w3.org/1999/xlink">
    <!-- Generator: Sketch 58 (84663) - https://sketch.com -->
    <title>tree-radio/style2</title>
    <desc>Created with Sketch.</desc>
    <defs>
        <linearGradient x1="3.99108215%" y1="18%" x2="100%" y2="82%" id="linearGradient-1">
            <stop stop-color="#87B4F5" offset="0%"></stop>
            <stop stop-color="#4F7DE7" offset="100%"></stop>
        </linearGradient>
        <linearGradient x1="0%" y1="18%" x2="100%" y2="82%" id="linearGradient-2">
            <stop stop-color="#87B4F5" offset="0%"></stop>
            <stop stop-color="#4F7DE7" offset="100%"></stop>
        </linearGradient>
    </defs>
    <g id="页面-1" stroke="none" stroke-width="1" fill="none" fill-rule="evenodd">
        <g id="tree-radio/style2">
            <g id="编组-20">
                <rect id="矩形备份" fill-opacity="0.01" fill="#FAFAFA" x="0" y="0" width="241" height="197"></rect>
                <path d="M96.1875,24.9316406 L107.835938,24.9316406 L107.835938,25.9628906 L96.1875,25.9628906 L96.1875,24.9316406 Z M114.134766,25.2714844 C114.013671,27.8418097 113.214851,29.9199139 111.738281,31.5058594 C111.45703,31.224608 111.207032,31.0058602 110.988281,30.8496094 C111.904948,29.8828077 112.526203,28.8142679 112.85205,27.6439629 L112.933594,27.3222656 C113.218751,26.2050725 113.351563,24.287123 113.332031,21.5683594 L112.289062,21.5683594 L112.289062,20.7363281 L118.136719,20.7363281 L118.136719,21.6152344 L117,23.9707031 L118.945312,23.9707031 L118.945312,24.8378906 C118.492185,26.2519602 117.876957,27.488276 117.099609,28.546875 C117.853519,29.3125038 118.777338,29.9785128 119.871094,30.5449219 C119.636718,30.7714855 119.375001,31.0605451 119.085938,31.4121094 C118.054682,30.7597624 117.18555,30.0644568 116.478516,29.3261719 C115.67773,30.2324264 114.73438,30.9863251 113.648438,31.5878906 C113.429686,31.2988267 113.210939,31.0488292 112.992188,30.8378906 C114.117193,30.2011687 115.070309,29.4492231 115.851562,28.5820312 C115.148434,27.6523391 114.576174,26.5488345 114.134766,25.2714844 Z M116.027344,23.9472656 L117.152344,21.5683594 L114.222656,21.5683594 L114.224121,22.3828126 C114.223145,22.6464838 114.220703,22.9023425 114.216797,23.1503906 C114.814456,25.1738382 115.562496,26.7363226 116.460938,27.8378906 C117.125003,26.9316361 117.628905,25.9199275 117.972656,24.8027344 L116.027344,24.8027344 L116.027344,23.9472656 Z M109.757812,26.4433594 C110.570317,26.3574214 111.398433,26.2597662 112.242188,26.1503906 L112.148438,26.9121094 L112.148438,26.9121094 L111.09327,27.0469948 C110.244259,27.1601962 109.470986,27.27539 108.773438,27.3925781 L108.5625,26.5605469 C109.027346,26.1503886 109.611325,25.4043023 110.314453,24.3222656 C109.712888,24.3652346 109.093753,24.4199215 108.457031,24.4863281 L108.234375,23.7480469 C108.882816,23.0292933 109.636714,21.7793058 110.496094,19.9980469 L111.386719,20.3847656 L110.916092,21.1694553 C110.304842,22.1744561 109.758596,23.0144498 109.277344,23.6894531 L110.753906,23.6308594 L110.753906,23.6308594 C111.035158,23.1699196 111.335936,22.6621121 111.65625,22.1074219 L112.5,22.5058594 L111.824061,23.5221124 C110.96531,24.8008638 110.276565,25.774606 109.757812,26.4433594 Z M108.1875,29.1738281 C109.437506,28.8769516 110.707025,28.5527361 111.996094,28.2011719 C112.003906,28.4746107 112.015625,28.7441393 112.03125,29.0097656 L110.608519,29.4025276 C109.852905,29.6143195 109.155277,29.8154297 108.515625,30.0058594 L108.1875,29.1738281 Z M131.835938,30.2050781 C131.539061,30.5253922 131.296876,30.8222643 131.109375,31.0957031 C129.117178,30.4316373 127.542975,29.3652417 126.386719,27.8964844 L126.386719,31.6816406 L125.484375,31.6816406 L125.484375,27.8964844 C124.359369,29.224616 122.81251,30.3378861 120.84375,31.2363281 C120.664062,31.001952 120.437501,30.7363296 120.164062,30.4394531 C121.820321,29.8769503 123.249994,29.0253963 124.453125,27.8847656 L120.375,27.8847656 L120.375,27.0644531 L125.484375,27.0644531 L125.484375,26.1738281 L126.386719,26.1738281 L126.386719,27.0644531 L131.683594,27.0644531 L131.683594,27.8847656 L127.324219,27.8847656 C128.457037,29.0332089 129.960928,29.8066386 131.835938,30.2050781 Z M120.28125,21.1582031 L123.5625,21.1582031 L123.5625,20.0566406 L124.476562,20.0566406 L124.476562,21.1582031 L127.523438,21.1582031 L127.523438,20.0566406 L128.4375,20.0566406 L128.4375,21.1582031 L131.753906,21.1582031 L131.753906,21.9902344 L128.4375,21.9902344 L128.4375,22.6582031 L127.523438,22.6582031 L127.523438,21.9902344 L124.476562,21.9902344 L124.476562,22.7636719 L123.5625,22.7636719 L123.5625,21.9902344 L120.28125,21.9902344 L120.28125,21.1582031 Z M121.089844,24.0410156 L120.985677,23.509766 C120.96658,23.4160161 120.946615,23.319662 120.925781,23.2207031 C124.535174,23.1816404 127.726549,23.0605479 130.5,22.8574219 L130.640625,23.6777344 C127.781236,23.8574219 124.597674,23.9785153 121.089844,24.0410156 Z M127.664062,25.9628906 C128.195315,25.4863257 128.792965,24.8496134 129.457031,24.0527344 L130.230469,24.6621094 L129.282566,25.6086254 C128.843587,26.0413171 128.511119,26.3586228 128.285156,26.5605469 L127.664062,25.9628906 Z M121.734375,24.7675781 L122.449219,24.3222656 L122.671441,24.6110391 C122.946904,24.9810232 123.279078,25.4667939 123.667969,26.0683594 L122.859375,26.5839844 C122.507811,25.9589813 122.132814,25.3535186 121.734375,24.7675781 Z M124.945312,24.3925781 L125.683594,24.0292969 C126.058596,24.5761746 126.382811,25.1035131 126.65625,25.6113281 L125.824219,26.0566406 C125.660155,25.6347635 125.36719,25.0800816 124.945312,24.3925781 Z M135.292969,19.9394531 C135.871097,20.4941434 136.378904,21.005857 136.816406,21.4746094 L136.382812,21.8378906 L139.130859,21.8378906 C139.560549,21.2675753 139.996092,20.6464877 140.4375,19.9746094 L141.375,20.4785156 C140.972654,20.9667993 140.583986,21.4199198 140.208984,21.8378906 L142.605469,21.8378906 L142.605469,27.5214844 L141.714844,27.5214844 L141.714844,26.9707031 L138.457031,26.9707031 L138.457031,28.2949219 L143.765625,28.2949219 L143.765625,29.1386719 L138.457031,29.1386719 L138.457031,31.6113281 L137.542969,31.6113281 L137.542969,29.1386719 L132.234375,29.1386719 L132.234375,28.2949219 L137.542969,28.2949219 L137.542969,26.9707031 L134.296875,26.9707031 L134.296875,27.5214844 L133.40625,27.5214844 L133.40625,21.8378906 L135.837891,21.8378906 C135.462889,21.4003884 135.058596,20.9511742 134.625,20.4902344 L135.292969,19.9394531 Z M141.714844,24.7910156 L138.457031,24.7910156 L138.457031,26.1503906 L141.714844,26.1503906 L141.714844,24.7910156 Z M137.542969,24.7910156 L134.296875,24.7910156 L134.296875,26.1503906 L137.542969,26.1503906 L137.542969,24.7910156 Z M141.714844,22.6582031 L138.457031,22.6582031 L138.457031,23.9941406 L141.714844,23.9941406 L141.714844,22.6582031 Z M137.542969,22.6582031 L134.296875,22.6582031 L134.296875,23.9941406 L137.542969,23.9941406 L137.542969,22.6582031 Z" id="一级菜单" fill="#333333" fill-rule="nonzero"></path>
                <path d="M96.1875,128.931641 L107.835938,128.931641 L107.835938,129.962891 L96.1875,129.962891 L96.1875,128.931641 Z M114.134766,129.271484 C114.013671,131.84181 113.214851,133.919914 111.738281,135.505859 C111.45703,135.224608 111.207032,135.00586 110.988281,134.849609 C111.904948,133.882808 112.526203,132.814268 112.85205,131.643963 L112.933594,131.322266 C113.218751,130.205073 113.351563,128.287123 113.332031,125.568359 L112.289062,125.568359 L112.289062,124.736328 L118.136719,124.736328 L118.136719,125.615234 L117,127.970703 L118.945312,127.970703 L118.945312,128.837891 C118.492185,130.25196 117.876957,131.488276 117.099609,132.546875 C117.853519,133.312504 118.777338,133.978513 119.871094,134.544922 C119.636718,134.771486 119.375001,135.060545 119.085938,135.412109 C118.054682,134.759762 117.18555,134.064457 116.478516,133.326172 C115.67773,134.232426 114.73438,134.986325 113.648438,135.587891 C113.429686,135.298827 113.210939,135.048829 112.992188,134.837891 C114.117193,134.201169 115.070309,133.449223 115.851562,132.582031 C115.148434,131.652339 114.576174,130.548835 114.134766,129.271484 Z M116.027344,127.947266 L117.152344,125.568359 L114.222656,125.568359 L114.224121,126.382813 C114.223145,126.646484 114.220703,126.902343 114.216797,127.150391 C114.814456,129.173838 115.562496,130.736323 116.460938,131.837891 C117.125003,130.931636 117.628905,129.919927 117.972656,128.802734 L116.027344,128.802734 L116.027344,127.947266 Z M109.757812,130.443359 C110.570317,130.357421 111.398433,130.259766 112.242188,130.150391 L112.148438,130.912109 L112.148438,130.912109 L111.09327,131.046995 C110.244259,131.160196 109.470986,131.27539 108.773438,131.392578 L108.5625,130.560547 C109.027346,130.150389 109.611325,129.404302 110.314453,128.322266 C109.712888,128.365235 109.093753,128.419922 108.457031,128.486328 L108.234375,127.748047 C108.882816,127.029293 109.636714,125.779306 110.496094,123.998047 L111.386719,124.384766 L110.916092,125.169455 C110.304842,126.174456 109.758596,127.01445 109.277344,127.689453 L110.753906,127.630859 L110.753906,127.630859 C111.035158,127.16992 111.335936,126.662112 111.65625,126.107422 L112.5,126.505859 L111.824061,127.522112 C110.96531,128.800864 110.276565,129.774606 109.757812,130.443359 Z M108.1875,133.173828 C109.437506,132.876952 110.707025,132.552736 111.996094,132.201172 C112.003906,132.474611 112.015625,132.744139 112.03125,133.009766 L110.608519,133.402528 C109.852905,133.61432 109.155277,133.81543 108.515625,134.005859 L108.1875,133.173828 Z M131.835938,134.205078 C131.539061,134.525392 131.296876,134.822264 131.109375,135.095703 C129.117178,134.431637 127.542975,133.365242 126.386719,131.896484 L126.386719,135.681641 L125.484375,135.681641 L125.484375,131.896484 C124.359369,133.224616 122.81251,134.337886 120.84375,135.236328 C120.664062,135.001952 120.437501,134.73633 120.164062,134.439453 C121.820321,133.87695 123.249994,133.025396 124.453125,131.884766 L120.375,131.884766 L120.375,131.064453 L125.484375,131.064453 L125.484375,130.173828 L126.386719,130.173828 L126.386719,131.064453 L131.683594,131.064453 L131.683594,131.884766 L127.324219,131.884766 C128.457037,133.033209 129.960928,133.806639 131.835938,134.205078 Z M120.28125,125.158203 L123.5625,125.158203 L123.5625,124.056641 L124.476562,124.056641 L124.476562,125.158203 L127.523438,125.158203 L127.523438,124.056641 L128.4375,124.056641 L128.4375,125.158203 L131.753906,125.158203 L131.753906,125.990234 L128.4375,125.990234 L128.4375,126.658203 L127.523438,126.658203 L127.523438,125.990234 L124.476562,125.990234 L124.476562,126.763672 L123.5625,126.763672 L123.5625,125.990234 L120.28125,125.990234 L120.28125,125.158203 Z M121.089844,128.041016 L120.985677,127.509766 C120.96658,127.416016 120.946615,127.319662 120.925781,127.220703 C124.535174,127.18164 127.726549,127.060548 130.5,126.857422 L130.640625,127.677734 C127.781236,127.857422 124.597674,127.978515 121.089844,128.041016 Z M127.664062,129.962891 C128.195315,129.486326 128.792965,128.849613 129.457031,128.052734 L130.230469,128.662109 L129.282566,129.608625 C128.843587,130.041317 128.511119,130.358623 128.285156,130.560547 L127.664062,129.962891 Z M121.734375,128.767578 L122.449219,128.322266 L122.671441,128.611039 C122.946904,128.981023 123.279078,129.466794 123.667969,130.068359 L122.859375,130.583984 C122.507811,129.958981 122.132814,129.353519 121.734375,128.767578 Z M124.945312,128.392578 L125.683594,128.029297 C126.058596,128.576175 126.382811,129.103513 126.65625,129.611328 L125.824219,130.056641 C125.660155,129.634764 125.36719,129.080082 124.945312,128.392578 Z M132.234375,132.294922 L137.542969,132.294922 L137.542969,130.970703 L134.296875,130.970703 L134.296875,131.521484 L133.40625,131.521484 L133.40625,125.837891 L135.837891,125.837891 C135.462889,125.400388 135.058596,124.951174 134.625,124.490234 L135.292969,123.939453 C135.871097,124.494143 136.378904,125.005857 136.816406,125.474609 L136.382812,125.837891 L139.130859,125.837891 C139.560549,125.267575 139.996092,124.646488 140.4375,123.974609 L141.375,124.478516 C140.972654,124.966799 140.583986,125.41992 140.208984,125.837891 L142.605469,125.837891 L142.605469,131.521484 L141.714844,131.521484 L141.714844,130.970703 L138.457031,130.970703 L138.457031,132.294922 L143.765625,132.294922 L143.765625,133.138672 L138.457031,133.138672 L138.457031,135.611328 L137.542969,135.611328 L137.542969,133.138672 L132.234375,133.138672 L132.234375,132.294922 Z M138.457031,130.150391 L141.714844,130.150391 L141.714844,128.791016 L138.457031,128.791016 L138.457031,130.150391 Z M134.296875,130.150391 L137.542969,130.150391 L137.542969,128.791016 L134.296875,128.791016 L134.296875,130.150391 Z M141.714844,126.658203 L138.457031,126.658203 L138.457031,127.994141 L141.714844,127.994141 L141.714844,126.658203 Z M134.296875,127.994141 L137.542969,127.994141 L137.542969,126.658203 L134.296875,126.658203 L134.296875,127.994141 Z M150.140625,134 L144.621094,134 L144.621094,133.003906 L147.257812,130.373047 C147.984379,129.646481 148.470702,129.071291 148.716797,128.647461 C148.962892,128.223631 149.085938,127.785159 149.085938,127.332031 C149.085938,126.816404 148.941408,126.4209 148.652344,126.145508 C148.36328,125.870116 147.945315,125.732422 147.398438,125.732422 C146.58984,125.732422 145.818363,126.076168 145.083984,126.763672 L145.083984,125.597656 C145.798832,125.046872 146.630855,124.771484 147.580078,124.771484 C148.396488,124.771484 149.041013,124.992185 149.513672,125.433594 C149.98633,125.875002 150.222656,126.468746 150.222656,127.214844 C150.222656,127.777347 150.071291,128.329099 149.768555,128.870117 C149.465819,129.411136 148.892582,130.099605 148.048828,130.935547 L145.980469,132.957031 L145.980469,132.980469 L150.140625,132.980469 L150.140625,134 Z" id="一级菜单2" fill="#333333" fill-rule="nonzero"></path>
                <path d="M96.1875,162.931641 L107.835938,162.931641 L107.835938,163.962891 L96.1875,163.962891 L96.1875,162.931641 Z M114.134766,163.271484 C114.013671,165.84181 113.214851,167.919914 111.738281,169.505859 C111.45703,169.224608 111.207032,169.00586 110.988281,168.849609 C111.904948,167.882808 112.526203,166.814268 112.85205,165.643963 L112.933594,165.322266 C113.218751,164.205073 113.351563,162.287123 113.332031,159.568359 L112.289062,159.568359 L112.289062,158.736328 L118.136719,158.736328 L118.136719,159.615234 L117,161.970703 L118.945312,161.970703 L118.945312,162.837891 C118.492185,164.25196 117.876957,165.488276 117.099609,166.546875 C117.853519,167.312504 118.777338,167.978513 119.871094,168.544922 C119.636718,168.771486 119.375001,169.060545 119.085938,169.412109 C118.054682,168.759762 117.18555,168.064457 116.478516,167.326172 C115.67773,168.232426 114.73438,168.986325 113.648438,169.587891 C113.429686,169.298827 113.210939,169.048829 112.992188,168.837891 C114.117193,168.201169 115.070309,167.449223 115.851562,166.582031 C115.148434,165.652339 114.576174,164.548835 114.134766,163.271484 Z M116.027344,161.947266 L117.152344,159.568359 L114.222656,159.568359 L114.224121,160.382813 C114.223145,160.646484 114.220703,160.902343 114.216797,161.150391 C114.814456,163.173838 115.562496,164.736323 116.460938,165.837891 C117.125003,164.931636 117.628905,163.919927 117.972656,162.802734 L116.027344,162.802734 L116.027344,161.947266 Z M109.757812,164.443359 C110.570317,164.357421 111.398433,164.259766 112.242188,164.150391 L112.148438,164.912109 L112.148438,164.912109 L111.09327,165.046995 C110.244259,165.160196 109.470986,165.27539 108.773438,165.392578 L108.5625,164.560547 C109.027346,164.150389 109.611325,163.404302 110.314453,162.322266 C109.712888,162.365235 109.093753,162.419922 108.457031,162.486328 L108.234375,161.748047 C108.882816,161.029293 109.636714,159.779306 110.496094,157.998047 L111.386719,158.384766 L110.916092,159.169455 C110.304842,160.174456 109.758596,161.01445 109.277344,161.689453 L110.753906,161.630859 L110.753906,161.630859 C111.035158,161.16992 111.335936,160.662112 111.65625,160.107422 L112.5,160.505859 L111.824061,161.522112 C110.96531,162.800864 110.276565,163.774606 109.757812,164.443359 Z M108.1875,167.173828 C109.437506,166.876952 110.707025,166.552736 111.996094,166.201172 C112.003906,166.474611 112.015625,166.744139 112.03125,167.009766 L110.608519,167.402528 C109.852905,167.61432 109.155277,167.81543 108.515625,168.005859 L108.1875,167.173828 Z M131.835938,168.205078 C131.539061,168.525392 131.296876,168.822264 131.109375,169.095703 C129.117178,168.431637 127.542975,167.365242 126.386719,165.896484 L126.386719,169.681641 L125.484375,169.681641 L125.484375,165.896484 C124.359369,167.224616 122.81251,168.337886 120.84375,169.236328 C120.664062,169.001952 120.437501,168.73633 120.164062,168.439453 C121.820321,167.87695 123.249994,167.025396 124.453125,165.884766 L120.375,165.884766 L120.375,165.064453 L125.484375,165.064453 L125.484375,164.173828 L126.386719,164.173828 L126.386719,165.064453 L131.683594,165.064453 L131.683594,165.884766 L127.324219,165.884766 C128.457037,167.033209 129.960928,167.806639 131.835938,168.205078 Z M120.28125,159.158203 L123.5625,159.158203 L123.5625,158.056641 L124.476562,158.056641 L124.476562,159.158203 L127.523438,159.158203 L127.523438,158.056641 L128.4375,158.056641 L128.4375,159.158203 L131.753906,159.158203 L131.753906,159.990234 L128.4375,159.990234 L128.4375,160.658203 L127.523438,160.658203 L127.523438,159.990234 L124.476562,159.990234 L124.476562,160.763672 L123.5625,160.763672 L123.5625,159.990234 L120.28125,159.990234 L120.28125,159.158203 Z M121.089844,162.041016 L120.985677,161.509766 C120.96658,161.416016 120.946615,161.319662 120.925781,161.220703 C124.535174,161.18164 127.726549,161.060548 130.5,160.857422 L130.640625,161.677734 C127.781236,161.857422 124.597674,161.978515 121.089844,162.041016 Z M127.664062,163.962891 C128.195315,163.486326 128.792965,162.849613 129.457031,162.052734 L130.230469,162.662109 L129.282566,163.608625 C128.843587,164.041317 128.511119,164.358623 128.285156,164.560547 L127.664062,163.962891 Z M121.734375,162.767578 L122.449219,162.322266 L122.671441,162.611039 C122.946904,162.981023 123.279078,163.466794 123.667969,164.068359 L122.859375,164.583984 C122.507811,163.958981 122.132814,163.353519 121.734375,162.767578 Z M124.945312,162.392578 L125.683594,162.029297 C126.058596,162.576175 126.382811,163.103513 126.65625,163.611328 L125.824219,164.056641 C125.660155,163.634764 125.36719,163.080082 124.945312,162.392578 Z M132.234375,166.294922 L137.542969,166.294922 L137.542969,164.970703 L134.296875,164.970703 L134.296875,165.521484 L133.40625,165.521484 L133.40625,159.837891 L135.837891,159.837891 C135.462889,159.400388 135.058596,158.951174 134.625,158.490234 L135.292969,157.939453 C135.871097,158.494143 136.378904,159.005857 136.816406,159.474609 L136.382812,159.837891 L139.130859,159.837891 C139.560549,159.267575 139.996092,158.646488 140.4375,157.974609 L141.375,158.478516 C140.972654,158.966799 140.583986,159.41992 140.208984,159.837891 L142.605469,159.837891 L142.605469,165.521484 L141.714844,165.521484 L141.714844,164.970703 L138.457031,164.970703 L138.457031,166.294922 L143.765625,166.294922 L143.765625,167.138672 L138.457031,167.138672 L138.457031,169.611328 L137.542969,169.611328 L137.542969,167.138672 L132.234375,167.138672 L132.234375,166.294922 Z M138.457031,164.150391 L141.714844,164.150391 L141.714844,162.791016 L138.457031,162.791016 L138.457031,164.150391 Z M134.296875,164.150391 L137.542969,164.150391 L137.542969,162.791016 L134.296875,162.791016 L134.296875,164.150391 Z M141.714844,160.658203 L138.457031,160.658203 L138.457031,161.994141 L141.714844,161.994141 L141.714844,160.658203 Z M134.296875,161.994141 L137.542969,161.994141 L137.542969,160.658203 L134.296875,160.658203 L134.296875,161.994141 Z M144.837891,166.482422 C145.458987,166.962893 146.160152,167.203125 146.941406,167.203125 C147.566409,167.203125 148.061522,167.049806 148.426758,166.743164 C148.791994,166.436522 148.974609,166.025393 148.974609,165.509766 C148.974609,164.361322 148.152352,163.787109 146.507812,163.787109 L145.751953,163.787109 L145.751953,162.837891 L146.472656,162.837891 C147.929695,162.837891 148.658203,162.298834 148.658203,161.220703 C148.658203,160.224604 148.101568,159.726562 146.988281,159.726562 C146.351559,159.726562 145.751956,159.941404 145.189453,160.371094 L145.189453,159.287109 C145.783206,158.943358 146.476559,158.771484 147.269531,158.771484 C148.042973,158.771484 148.66406,158.973631 149.132812,159.37793 C149.601565,159.782229 149.835938,160.306637 149.835938,160.951172 C149.835938,162.138678 149.230475,162.902342 148.019531,163.242188 L148.019531,163.265625 C148.675785,163.335938 149.194334,163.567381 149.575195,163.959961 C149.956057,164.352541 150.146484,164.841794 150.146484,165.427734 C150.146484,166.244145 149.852542,166.902341 149.264648,167.402344 C148.676755,167.902346 147.894536,168.152344 146.917969,168.152344 C146.058589,168.152344 145.365237,167.992189 144.837891,167.671875 L144.837891,166.482422 Z" id="一级菜单3" fill="#333333" fill-rule="nonzero"></path>
                <rect id="矩形" fill="#F1F1F1" x="60" y="49" width="114" height="24"></rect>
                <g id="点击数-copy" transform="translate(162.000000, 66.000000)" stroke="#4C4C4C">
                    <path d="M15.7642312,6.00637625 C15.3623769,6.00637625 15.0075481,6.15390129 14.6933323,6.35622132 C14.3833914,5.65231618 13.6737339,5.15705358 12.84865,5.15705358 C12.4703085,5.15705358 12.1347174,5.28982611 11.8311891,5.46896364 C11.5875115,4.64282348 10.8436536,4.02532584 9.92879378,4.02532584 C9.59747773,4.02532584 9.29822453,4.12227086 9.02248408,4.26347339 L9.02248408,1.98526542 C9.02248408,0.891472705 8.1183119,0 7.00893752,0 C5.89956313,0 4.99539098,0.891472684 4.99539098,1.98526542 L4.99539098,10.3836547 L3.43499926,8.84517933 C2.67404112,8.09490918 1.34450188,8.09701668 0.589956315,8.84517933 C0.209477234,9.22031442 0,9.71768451 0,10.2487746 C0,10.7798648 0.209477234,11.2772348 0.589956315,11.6523699 L6.21591654,17.2056336 C6.99824992,17.9980537 8.31068897,19.3236715 10.8799915,19.3236715 C15.1999252,19.3236715 17.7777778,17.1950961 17.7777778,13.6292053 L17.7777778,7.99164165 C17.7777778,6.89784894 16.8757431,6.00637625 15.7642312,6.00637625 Z" id="Shape" fill="#FFFFFF" fill-rule="nonzero"></path>
                    <rect id="Rectangle" fill="#D8D8D8" x="9.17360423" y="10.6424885" width="1" height="4.55555556" rx="0.5"></rect>
                    <rect id="Rectangle-Copy" fill="#D8D8D8" x="12.1244931" y="11.4330883" width="1" height="4.55555556" rx="0.5"></rect>
                    <rect id="Rectangle-Copy-2" fill="#D8D8D8" x="14.8960548" y="11.5005061" width="1" height="3.44444444" rx="0.5"></rect>
                </g>
                <path d="M107.21875,57.5332031 L116.78125,57.5332031 L116.78125,58.5410156 L107.21875,58.5410156 L107.21875,57.5332031 Z M106.351562,65.2089844 L117.613281,65.2089844 L117.613281,66.1933594 L106.351562,66.1933594 L106.351562,65.2089844 Z M124.134766,61.2714844 C124.013671,63.8418097 123.214851,65.9199139 121.738281,67.5058594 C121.45703,67.224608 121.207032,67.0058602 120.988281,66.8496094 C121.904948,65.8828077 122.526203,64.8142679 122.85205,63.6439629 L122.933594,63.3222656 C123.218751,62.2050725 123.351563,60.287123 123.332031,57.5683594 L122.289062,57.5683594 L122.289062,56.7363281 L128.136719,56.7363281 L128.136719,57.6152344 L127,59.9707031 L128.945312,59.9707031 L128.945312,60.8378906 C128.492185,62.2519602 127.876957,63.488276 127.099609,64.546875 C127.853519,65.3125038 128.777338,65.9785128 129.871094,66.5449219 C129.636718,66.7714855 129.375001,67.0605451 129.085938,67.4121094 C128.054682,66.7597624 127.18555,66.0644568 126.478516,65.3261719 C125.67773,66.2324264 124.73438,66.9863251 123.648438,67.5878906 C123.429686,67.2988267 123.210939,67.0488292 122.992188,66.8378906 C124.117193,66.2011687 125.070309,65.4492231 125.851562,64.5820312 C125.148434,63.6523391 124.576174,62.5488345 124.134766,61.2714844 Z M126.027344,59.9472656 L127.152344,57.5683594 L124.222656,57.5683594 L124.224121,58.3828126 C124.223145,58.6464838 124.220703,58.9023425 124.216797,59.1503906 C124.814456,61.1738382 125.562496,62.7363226 126.460938,63.8378906 C127.125003,62.9316361 127.628905,61.9199275 127.972656,60.8027344 L126.027344,60.8027344 L126.027344,59.9472656 Z M119.757812,62.4433594 C120.570317,62.3574214 121.398433,62.2597662 122.242188,62.1503906 L122.148438,62.9121094 L122.148438,62.9121094 L121.09327,63.0469948 C120.244259,63.1601962 119.470986,63.27539 118.773438,63.3925781 L118.5625,62.5605469 C119.027346,62.1503886 119.611325,61.4043023 120.314453,60.3222656 C119.712888,60.3652346 119.093753,60.4199215 118.457031,60.4863281 L118.234375,59.7480469 C118.882816,59.0292933 119.636714,57.7793058 120.496094,55.9980469 L121.386719,56.3847656 L120.916092,57.1694553 C120.304842,58.1744561 119.758596,59.0144498 119.277344,59.6894531 L120.753906,59.6308594 L120.753906,59.6308594 C121.035158,59.1699196 121.335936,58.6621121 121.65625,58.1074219 L122.5,58.5058594 L121.824061,59.5221124 C120.96531,60.8008638 120.276565,61.774606 119.757812,62.4433594 Z M118.1875,65.1738281 C119.437506,64.8769516 120.707025,64.5527361 121.996094,64.2011719 C122.003906,64.4746107 122.015625,64.7441393 122.03125,65.0097656 L120.608519,65.4025276 C119.852905,65.6143195 119.155277,65.8154297 118.515625,66.0058594 L118.1875,65.1738281 Z M141.835938,66.2050781 C141.539061,66.5253922 141.296876,66.8222643 141.109375,67.0957031 C139.117178,66.4316373 137.542975,65.3652417 136.386719,63.8964844 L136.386719,67.6816406 L135.484375,67.6816406 L135.484375,63.8964844 C134.359369,65.224616 132.81251,66.3378861 130.84375,67.2363281 C130.664062,67.001952 130.437501,66.7363296 130.164062,66.4394531 C131.820321,65.8769503 133.249994,65.0253963 134.453125,63.8847656 L130.375,63.8847656 L130.375,63.0644531 L135.484375,63.0644531 L135.484375,62.1738281 L136.386719,62.1738281 L136.386719,63.0644531 L141.683594,63.0644531 L141.683594,63.8847656 L137.324219,63.8847656 C138.457037,65.0332089 139.960928,65.8066386 141.835938,66.2050781 Z M130.28125,57.1582031 L133.5625,57.1582031 L133.5625,56.0566406 L134.476562,56.0566406 L134.476562,57.1582031 L137.523438,57.1582031 L137.523438,56.0566406 L138.4375,56.0566406 L138.4375,57.1582031 L141.753906,57.1582031 L141.753906,57.9902344 L138.4375,57.9902344 L138.4375,58.6582031 L137.523438,58.6582031 L137.523438,57.9902344 L134.476562,57.9902344 L134.476562,58.7636719 L133.5625,58.7636719 L133.5625,57.9902344 L130.28125,57.9902344 L130.28125,57.1582031 Z M131.089844,60.0410156 L130.985677,59.509766 C130.96658,59.4160161 130.946615,59.319662 130.925781,59.2207031 C134.535174,59.1816404 137.726549,59.0605479 140.5,58.8574219 L140.640625,59.6777344 C137.781236,59.8574219 134.597674,59.9785153 131.089844,60.0410156 Z M137.664062,61.9628906 C138.195315,61.4863257 138.792965,60.8496134 139.457031,60.0527344 L140.230469,60.6621094 L139.282566,61.6086254 C138.843587,62.0413171 138.511119,62.3586228 138.285156,62.5605469 L137.664062,61.9628906 Z M131.734375,60.7675781 L132.449219,60.3222656 L132.671441,60.6110391 C132.946904,60.9810232 133.279078,61.4667939 133.667969,62.0683594 L132.859375,62.5839844 C132.507811,61.9589813 132.132814,61.3535186 131.734375,60.7675781 Z M134.945312,60.3925781 L135.683594,60.0292969 C136.058596,60.5761746 136.382811,61.1035131 136.65625,61.6113281 L135.824219,62.0566406 C135.660155,61.6347635 135.36719,61.0800816 134.945312,60.3925781 Z M142.234375,64.2949219 L147.542969,64.2949219 L147.542969,62.9707031 L144.296875,62.9707031 L144.296875,63.5214844 L143.40625,63.5214844 L143.40625,57.8378906 L145.837891,57.8378906 C145.462889,57.4003884 145.058596,56.9511742 144.625,56.4902344 L145.292969,55.9394531 C145.871097,56.4941434 146.378904,57.005857 146.816406,57.4746094 L146.382812,57.8378906 L149.130859,57.8378906 C149.560549,57.2675753 149.996092,56.6464877 150.4375,55.9746094 L151.375,56.4785156 C150.972654,56.9667993 150.583986,57.4199198 150.208984,57.8378906 L152.605469,57.8378906 L152.605469,63.5214844 L151.714844,63.5214844 L151.714844,62.9707031 L148.457031,62.9707031 L148.457031,64.2949219 L153.765625,64.2949219 L153.765625,65.1386719 L148.457031,65.1386719 L148.457031,67.6113281 L147.542969,67.6113281 L147.542969,65.1386719 L142.234375,65.1386719 L142.234375,64.2949219 Z M148.457031,62.1503906 L151.714844,62.1503906 L151.714844,60.7910156 L148.457031,60.7910156 L148.457031,62.1503906 Z M144.296875,62.1503906 L147.542969,62.1503906 L147.542969,60.7910156 L144.296875,60.7910156 L144.296875,62.1503906 Z M151.714844,58.6582031 L148.457031,58.6582031 L148.457031,59.9941406 L151.714844,59.9941406 L151.714844,58.6582031 Z M144.296875,59.9941406 L147.542969,59.9941406 L147.542969,58.6582031 L144.296875,58.6582031 L144.296875,59.9941406 Z M160.310547,66 L155.107422,66 L155.107422,65.0097656 L157.140625,65.0097656 L157.140625,58.1191406 L155.054688,58.7226562 L155.054688,57.6679688 L158.283203,56.7304688 L158.283203,65.0097656 L160.310547,65.0097656 L160.310547,66 Z" id="二级菜单1" fill="#5A6677" fill-rule="nonzero"></path>
                <g id="file-normal" transform="translate(78.000000, 124.000000)">
                    <rect id="矩形" fill="#D8D8D8" opacity="0.01" x="0" y="0" width="10" height="10"></rect>
                    <path d="M4.63962039,1 C4.85483559,1 5.04590502,1.13771505 5.11396204,1.34188612 L5.333,2 L9,2 C9.55228475,2 10,2.44771525 10,3 L10,8 C10,8.55228475 9.55228475,9 9,9 L1,9 C0.44771525,9 6.76353751e-17,8.55228475 0,8 L0,3 L0,2 C-6.76353751e-17,1.44771525 0.44771525,1 1,1 L4.63962039,1 Z" id="矩形-2" fill="url(#linearGradient-1)"></path>
                </g>
                <path d="M107.21875,89.5332031 L116.78125,89.5332031 L116.78125,90.5410156 L107.21875,90.5410156 L107.21875,89.5332031 Z M106.351562,97.2089844 L117.613281,97.2089844 L117.613281,98.1933594 L106.351562,98.1933594 L106.351562,97.2089844 Z M124.134766,93.2714844 C124.013671,95.8418097 123.214851,97.9199139 121.738281,99.5058594 C121.45703,99.224608 121.207032,99.0058602 120.988281,98.8496094 C121.904948,97.8828077 122.526203,96.8142679 122.85205,95.6439629 L122.933594,95.3222656 C123.218751,94.2050725 123.351563,92.287123 123.332031,89.5683594 L122.289062,89.5683594 L122.289062,88.7363281 L128.136719,88.7363281 L128.136719,89.6152344 L127,91.9707031 L128.945312,91.9707031 L128.945312,92.8378906 C128.492185,94.2519602 127.876957,95.488276 127.099609,96.546875 C127.853519,97.3125038 128.777338,97.9785128 129.871094,98.5449219 C129.636718,98.7714855 129.375001,99.0605451 129.085938,99.4121094 C128.054682,98.7597624 127.18555,98.0644568 126.478516,97.3261719 C125.67773,98.2324264 124.73438,98.9863251 123.648438,99.5878906 C123.429686,99.2988267 123.210939,99.0488292 122.992188,98.8378906 C124.117193,98.2011687 125.070309,97.4492231 125.851562,96.5820312 C125.148434,95.6523391 124.576174,94.5488345 124.134766,93.2714844 Z M126.027344,91.9472656 L127.152344,89.5683594 L124.222656,89.5683594 L124.224121,90.3828126 C124.223145,90.6464838 124.220703,90.9023425 124.216797,91.1503906 C124.814456,93.1738382 125.562496,94.7363226 126.460938,95.8378906 C127.125003,94.9316361 127.628905,93.9199275 127.972656,92.8027344 L126.027344,92.8027344 L126.027344,91.9472656 Z M119.757812,94.4433594 C120.570317,94.3574214 121.398433,94.2597662 122.242188,94.1503906 L122.148438,94.9121094 L122.148438,94.9121094 L121.09327,95.0469948 C120.244259,95.1601962 119.470986,95.27539 118.773438,95.3925781 L118.5625,94.5605469 C119.027346,94.1503886 119.611325,93.4043023 120.314453,92.3222656 C119.712888,92.3652346 119.093753,92.4199215 118.457031,92.4863281 L118.234375,91.7480469 C118.882816,91.0292933 119.636714,89.7793058 120.496094,87.9980469 L121.386719,88.3847656 L120.916092,89.1694553 C120.304842,90.1744561 119.758596,91.0144497 119.277344,91.6894531 L120.753906,91.6308594 L120.753906,91.6308594 C121.035158,91.1699196 121.335936,90.6621121 121.65625,90.1074219 L122.5,90.5058594 L121.824061,91.5221124 C120.96531,92.8008638 120.276565,93.774606 119.757812,94.4433594 Z M118.1875,97.1738281 C119.437506,96.8769516 120.707025,96.5527361 121.996094,96.2011719 C122.003906,96.4746107 122.015625,96.7441393 122.03125,97.0097656 L120.608519,97.4025276 C119.852905,97.6143195 119.155277,97.8154297 118.515625,98.0058594 L118.1875,97.1738281 Z M141.835938,98.2050781 C141.539061,98.5253922 141.296876,98.8222643 141.109375,99.0957031 C139.117178,98.4316373 137.542975,97.3652417 136.386719,95.8964844 L136.386719,99.6816406 L135.484375,99.6816406 L135.484375,95.8964844 C134.359369,97.224616 132.81251,98.3378861 130.84375,99.2363281 C130.664062,99.001952 130.437501,98.7363296 130.164062,98.4394531 C131.820321,97.8769503 133.249994,97.0253963 134.453125,95.8847656 L130.375,95.8847656 L130.375,95.0644531 L135.484375,95.0644531 L135.484375,94.1738281 L136.386719,94.1738281 L136.386719,95.0644531 L141.683594,95.0644531 L141.683594,95.8847656 L137.324219,95.8847656 C138.457037,97.0332089 139.960928,97.8066386 141.835938,98.2050781 Z M130.28125,89.1582031 L133.5625,89.1582031 L133.5625,88.0566406 L134.476562,88.0566406 L134.476562,89.1582031 L137.523438,89.1582031 L137.523438,88.0566406 L138.4375,88.0566406 L138.4375,89.1582031 L141.753906,89.1582031 L141.753906,89.9902344 L138.4375,89.9902344 L138.4375,90.6582031 L137.523438,90.6582031 L137.523438,89.9902344 L134.476562,89.9902344 L134.476562,90.7636719 L133.5625,90.7636719 L133.5625,89.9902344 L130.28125,89.9902344 L130.28125,89.1582031 Z M131.089844,92.0410156 L130.985677,91.509766 C130.96658,91.4160161 130.946615,91.319662 130.925781,91.2207031 C134.535174,91.1816404 137.726549,91.0605479 140.5,90.8574219 L140.640625,91.6777344 C137.781236,91.8574219 134.597674,91.9785153 131.089844,92.0410156 Z M137.664062,93.9628906 C138.195315,93.4863257 138.792965,92.8496134 139.457031,92.0527344 L140.230469,92.6621094 L139.282566,93.6086254 C138.843587,94.0413171 138.511119,94.3586228 138.285156,94.5605469 L137.664062,93.9628906 Z M131.734375,92.7675781 L132.449219,92.3222656 L132.671441,92.6110391 C132.946904,92.9810232 133.279078,93.4667939 133.667969,94.0683594 L132.859375,94.5839844 C132.507811,93.9589812 132.132814,93.3535186 131.734375,92.7675781 Z M134.945312,92.3925781 L135.683594,92.0292969 C136.058596,92.5761746 136.382811,93.1035131 136.65625,93.6113281 L135.824219,94.0566406 C135.660155,93.6347635 135.36719,93.0800816 134.945312,92.3925781 Z M142.234375,96.2949219 L147.542969,96.2949219 L147.542969,94.9707031 L144.296875,94.9707031 L144.296875,95.5214844 L143.40625,95.5214844 L143.40625,89.8378906 L145.837891,89.8378906 C145.462889,89.4003884 145.058596,88.9511742 144.625,88.4902344 L145.292969,87.9394531 C145.871097,88.4941434 146.378904,89.005857 146.816406,89.4746094 L146.382812,89.8378906 L149.130859,89.8378906 C149.560549,89.2675753 149.996092,88.6464877 150.4375,87.9746094 L151.375,88.4785156 C150.972654,88.9667993 150.583986,89.4199198 150.208984,89.8378906 L152.605469,89.8378906 L152.605469,95.5214844 L151.714844,95.5214844 L151.714844,94.9707031 L148.457031,94.9707031 L148.457031,96.2949219 L153.765625,96.2949219 L153.765625,97.1386719 L148.457031,97.1386719 L148.457031,99.6113281 L147.542969,99.6113281 L147.542969,97.1386719 L142.234375,97.1386719 L142.234375,96.2949219 Z M148.457031,94.1503906 L151.714844,94.1503906 L151.714844,92.7910156 L148.457031,92.7910156 L148.457031,94.1503906 Z M144.296875,94.1503906 L147.542969,94.1503906 L147.542969,92.7910156 L144.296875,92.7910156 L144.296875,94.1503906 Z M151.714844,90.6582031 L148.457031,90.6582031 L148.457031,91.9941406 L151.714844,91.9941406 L151.714844,90.6582031 Z M144.296875,91.9941406 L147.542969,91.9941406 L147.542969,90.6582031 L144.296875,90.6582031 L144.296875,91.9941406 Z M160.140625,98 L154.621094,98 L154.621094,97.0039062 L157.257812,94.3730469 C157.984379,93.6464807 158.470702,93.0712912 158.716797,92.6474609 C158.962892,92.2236307 159.085938,91.7851585 159.085938,91.3320312 C159.085938,90.8164037 158.941408,90.4208998 158.652344,90.1455078 C158.36328,89.8701158 157.945315,89.7324219 157.398438,89.7324219 C156.58984,89.7324219 155.818363,90.0761684 155.083984,90.7636719 L155.083984,89.5976562 C155.798832,89.0468722 156.630855,88.7714844 157.580078,88.7714844 C158.396488,88.7714844 159.041013,88.9921853 159.513672,89.4335938 C159.98633,89.8750022 160.222656,90.4687463 160.222656,91.2148438 C160.222656,91.7773466 160.071291,92.3290989 159.768555,92.8701172 C159.465819,93.4111355 158.892582,94.0996052 158.048828,94.9355469 L155.980469,96.9570312 L155.980469,96.9804688 L160.140625,96.9804688 L160.140625,98 Z" id="二级菜单2" fill="#5A6677" fill-rule="nonzero"></path>
                <g id="编组-4" transform="translate(64.000000, 20.000000)">
                    <rect id="矩形" fill="#D8D8D8" opacity="0.01" x="0" y="0" width="10" height="10"></rect>
                    <polygon id="矩形" fill="#333333" points="2 3 8 3 5.00776171 7"></polygon>
                </g>
                <g id="编组-4" transform="translate(69.000000, 129.000000) rotate(-90.000000) translate(-69.000000, -129.000000) translate(64.000000, 124.000000)">
                    <rect id="矩形" fill="#D8D8D8" opacity="0.01" x="0" y="0" width="10" height="10"></rect>
                    <polygon id="矩形" fill="#333333" points="2 3 8 3 5.00776171 7"></polygon>
                </g>
                <g id="编组-10" transform="translate(78.000000, 158.000000)">
                    <rect id="矩形" fill="#D8D8D8" opacity="0.01" x="0" y="0" width="10" height="10"></rect>
                    <path d="M4.63962039,1 C4.85483559,1 5.04590502,1.13771505 5.11396204,1.34188612 L5.333,2 L9,2 C9.55228475,2 10,2.44771525 10,3 L10,8 C10,8.55228475 9.55228475,9 9,9 L1,9 C0.44771525,9 6.76353751e-17,8.55228475 0,8 L0,3 L0,2 C-6.76353751e-17,1.44771525 0.44771525,1 1,1 L4.63962039,1 Z" id="矩形-2" fill="url(#linearGradient-1)"></path>
                </g>
                <g id="编组-4" transform="translate(69.000000, 163.000000) rotate(-90.000000) translate(-69.000000, -163.000000) translate(64.000000, 158.000000)">
                    <rect id="矩形" fill="#D8D8D8" opacity="0.01" x="0" y="0" width="10" height="10"></rect>
                    <polygon id="矩形" fill="#333333" points="2 3 8 3 5.00776171 7"></polygon>
                </g>
                <g id="file-open" transform="translate(78.000000, 20.000000)">
                    <rect id="矩形" fill="#D8D8D8" opacity="0.01" x="0" y="0" width="10" height="10"></rect>
                    <path d="M4.63962039,1.5 L1,1.5 C0.723857625,1.5 0.5,1.72385763 0.5,2 L0.5,8 C0.5,8.27614237 0.723857625,8.5 1,8.5 L9,8.5 C9.27614237,8.5 9.5,8.27614237 9.5,8 L9.5,3 C9.5,2.72385763 9.27614237,2.5 9,2.5 L4.97244717,2.5 L4.85858631,2.15789761 L4.63962039,1.5 Z" id="矩形-2" stroke="url(#linearGradient-2)"></path>
                </g>
                <g id="menu" transform="translate(88.000000, 56.000000)">
                    <rect id="矩形" fill="#D8D8D8" opacity="0.01" x="0" y="0" width="10" height="10"></rect>
                    <g id="编组-11" transform="translate(1.000000, 0.000000)">
                        <path d="M3.00355964,0 L7.5,0 C7.77614237,-5.07265313e-17 8,0.223857625 8,0.5 L8,9.5 C8,9.77614237 7.77614237,10 7.5,10 L0.5,10 C0.223857625,10 3.38176876e-17,9.77614237 0,9.5 L0,3.01279239 L0,3.01279239 L3.00355964,0 Z" id="矩形" fill="#5A6677"></path>
                        <polygon id="矩形" fill="#DCDFE3" points="3.5 0.5 3.5 3.5 0.5 3.5"></polygon>
                    </g>
                </g>
                <g id="编组-12" transform="translate(88.000000, 88.000000)">
                    <rect id="矩形" fill="#D8D8D8" opacity="0.01" x="0" y="0" width="10" height="10"></rect>
                    <g id="编组-11" transform="translate(1.000000, 0.000000)">
                        <path d="M3.00355964,0 L7.5,0 C7.77614237,-5.07265313e-17 8,0.223857625 8,0.5 L8,9.5 C8,9.77614237 7.77614237,10 7.5,10 L0.5,10 C0.223857625,10 3.38176876e-17,9.77614237 0,9.5 L0,3.01279239 L0,3.01279239 L3.00355964,0 Z" id="矩形" fill="#5A6677"></path>
                        <polygon id="矩形" fill="#DCDFE3" points="3.5 0.5 3.5 3.5 0.5 3.5"></polygon>
                    </g>
                </g>
                <text id="样式二" font-family="MicrosoftYaHei, Microsoft YaHei" font-size="12" font-weight="normal" line-spacing="22" fill="#525A6E">
                    <tspan x="8" y="27">样式二</tspan>
                </text>
            </g>
        </g>
    </g>
</svg>