<?xml version="1.0" encoding="UTF-8"?>
<svg width="494px" height="106px" viewBox="0 0 494 106" version="1.1" xmlns="http://www.w3.org/2000/svg" xmlns:xlink="http://www.w3.org/1999/xlink">
    <!-- Generator: Sketch 58 (84663) - https://sketch.com -->
    <title>clickhover-prompt/style2</title>
    <desc>Created with Sketch.</desc>
    <defs>
        <path d="M208,15 C210.209139,15 212,16.790861 212,19 L212,54 C212,56.209139 210.209139,58 208,58 L141.846,58 L133.412714,66.4169497 C132.63201,67.1960014 131.36799,67.1960014 130.587286,66.4169497 L122.153,58 L56,58 C53.790861,58 52,56.209139 52,54 L52,19 C52,16.790861 53.790861,15 56,15 L208,15 Z" id="path-1"></path>
        <filter x="-6.2%" y="-15.4%" width="112.5%" height="138.5%" filterUnits="objectBoundingBox" id="filter-2">
            <feOffset dx="0" dy="2" in="SourceAlpha" result="shadowOffsetOuter1"></feOffset>
            <feGaussianBlur stdDeviation="3" in="shadowOffsetOuter1" result="shadowBlurOuter1"></feGaussianBlur>
            <feComposite in="shadowBlurOuter1" in2="SourceAlpha" operator="out" result="shadowBlurOuter1"></feComposite>
            <feColorMatrix values="0 0 0 0 0.309803922   0 0 0 0 0.490196078   0 0 0 0 0.905882353  0 0 0 0.5 0" type="matrix" in="shadowBlurOuter1"></feColorMatrix>
        </filter>
        <path d="M430,15 C432.209139,15 434,16.790861 434,19 L434,54 C434,56.209139 432.209139,58 430,58 L363.846,58 L355.412714,66.4169497 C354.63201,67.1960014 353.36799,67.1960014 352.587286,66.4169497 L344.153,58 L278,58 C275.790861,58 274,56.209139 274,54 L274,19 C274,16.790861 275.790861,15 278,15 L430,15 Z" id="path-3"></path>
        <filter x="-6.2%" y="-15.4%" width="112.5%" height="138.5%" filterUnits="objectBoundingBox" id="filter-4">
            <feOffset dx="0" dy="2" in="SourceAlpha" result="shadowOffsetOuter1"></feOffset>
            <feGaussianBlur stdDeviation="3" in="shadowOffsetOuter1" result="shadowBlurOuter1"></feGaussianBlur>
            <feComposite in="shadowBlurOuter1" in2="SourceAlpha" operator="out" result="shadowBlurOuter1"></feComposite>
            <feColorMatrix values="0 0 0 0 0.309803922   0 0 0 0 0.490196078   0 0 0 0 0.905882353  0 0 0 0.5 0" type="matrix" in="shadowBlurOuter1"></feColorMatrix>
        </filter>
    </defs>
    <g id="页面-1" stroke="none" stroke-width="1" fill="none" fill-rule="evenodd">
        <g id="clickhover-prompt/style2">
            <g id="编组-20">
                <rect id="矩形备份" fill-opacity="0.01" fill="#FFFFFF" x="0" y="0" width="494" height="106"></rect>
                <path d="M105.948242,79.6103516 L110.241211,79.6103516 L110.241211,75.3173828 L111.389648,75.3173828 L111.389648,76.9580078 L117.500977,76.9580078 L117.500977,77.9423828 L111.389648,77.9423828 L111.389648,79.6103516 L116.229492,79.6103516 L116.229492,84.8330078 L115.108398,84.8330078 L115.108398,84.2587891 L107.069336,84.2587891 L107.069336,84.8330078 L105.948242,84.8330078 L105.948242,79.6103516 Z M115.108398,80.5947266 L107.069336,80.5947266 L107.069336,83.2744141 L115.108398,83.2744141 L115.108398,80.5947266 Z M115.84668,85.1474609 C116.57585,86.250331 117.159177,87.2438107 117.59668,88.1279297 L116.557617,88.6884766 C116.101886,87.7587844 115.550459,86.7425185 114.90332,85.6396484 L115.84668,85.1474609 Z M106.016602,85.2431641 L106.973633,85.7900391 L106.56785,86.5069942 C106.039934,87.4199117 105.56452,88.1607393 105.141602,88.7294922 L104.198242,88.0595703 C104.790693,87.2757122 105.396807,86.3369195 106.016602,85.2431641 Z M109.256836,85.1884766 C109.676109,86.1090541 110.040689,87.0797475 110.350586,88.1005859 L109.243164,88.4833984 C108.960611,87.4899039 108.637046,86.510096 108.272461,85.5439453 L109.256836,85.1884766 Z M112.524414,85.0927734 C112.961916,85.9951217 113.358397,86.9384716 113.713867,87.9228516 L112.633789,88.3466797 C112.378579,87.5263631 112.009443,86.5693414 111.526367,85.4755859 L112.524414,85.0927734 Z M129.245117,88.7841797 L129.245117,88.1962891 L119.592773,88.1962891 L119.592773,83.5341797 L120.768555,83.5341797 L120.768555,87.1572266 L124.37793,87.1572266 L124.37793,82.3583984 L118.280273,82.3583984 L118.280273,81.3193359 L124.37793,81.3193359 L124.37793,78.8583984 L119.264648,78.8583984 L119.264648,77.8193359 L124.37793,77.8193359 L124.37793,75.3720703 L125.581055,75.3720703 L125.581055,77.8193359 L130.735352,77.8193359 L130.735352,78.8583984 L125.581055,78.8583984 L125.581055,81.3193359 L131.665039,81.3193359 L131.665039,82.3583984 L125.581055,82.3583984 L125.581055,87.1572266 L129.245117,87.1572266 L129.245117,83.5341797 L130.420898,83.5341797 L130.420898,88.7841797 L129.245117,88.7841797 Z M137.598633,75.9736328 L144.420898,75.9736328 L144.420898,81.3740234 L143.436523,81.3740234 L143.436523,80.9775391 L138.583008,80.9775391 L138.583008,81.3740234 L137.598633,81.3740234 L137.598633,75.9736328 Z M135.46582,88.2236328 C136.750983,87.1481066 137.471028,85.6077574 137.625977,83.6025391 L138.651367,83.6025391 C138.605794,84.2405631 138.51237,84.8375623 138.371094,85.3935547 C138.949873,86.2776737 139.704097,86.8746729 140.633789,87.1845703 L140.633789,83.0693359 L136.40918,83.0693359 L136.40918,82.1669922 L145.624023,82.1669922 L145.624023,83.0693359 L141.65918,83.0693359 L141.65918,84.6005859 L145.09082,84.6005859 L145.09082,85.4755859 L141.65918,85.4755859 L141.65918,87.4033203 L141.893796,87.4247566 C142.594156,87.4742681 143.892243,87.4625655 145.788086,87.3896484 L145.569449,88.0872519 C145.540373,88.182315 145.508434,88.28702 145.473633,88.4013672 C144.388992,88.4287111 143.263352,88.4150393 142.09668,88.3603516 C140.255525,88.337565 138.902023,87.690436 138.036133,86.4189453 C137.653318,87.371424 137.097334,88.1871711 136.368164,88.8662109 C136.094725,88.6383452 135.793947,88.4241546 135.46582,88.2236328 Z M132.157227,82.6181641 C132.740563,82.3675118 133.328448,82.1031915 133.920898,81.8251953 L133.920898,78.9130859 L132.266602,78.9130859 L132.266602,77.9833984 L133.920898,77.9833984 L133.920898,75.4404297 L134.959961,75.4404297 L134.959961,77.9833984 L136.709961,77.9833984 L136.709961,78.9130859 L134.959961,78.9130859 L134.959961,81.3193359 C135.484052,81.059569 136.008135,80.7861342 136.532227,80.4990234 C136.55957,80.854494 136.596028,81.2190737 136.641602,81.5927734 L134.959961,82.4335938 L134.959961,82.4335938 L134.959961,87.1982422 C134.959961,88.0823612 134.622725,88.560872 133.948242,88.6337891 C133.474281,88.6793622 132.941084,88.6930339 132.348633,88.6748047 C132.293945,88.2919903 132.234701,87.9137388 132.170898,87.5400391 C132.672203,87.5947268 133.100584,87.6220703 133.456055,87.6220703 C133.765952,87.6220703 133.920898,87.4534522 133.920898,87.1162109 L133.920898,82.9667969 C133.374021,83.2493504 132.831708,83.5341783 132.293945,83.8212891 L132.157227,82.6181641 Z M138.583008,80.1025391 L143.436523,80.1025391 L143.436523,78.8994141 L138.583008,78.8994141 L138.583008,80.1025391 Z M143.436523,76.8486328 L138.583008,76.8486328 L138.583008,78.0380859 L143.436523,78.0380859 L143.436523,76.8486328 Z M146.198242,80.2802734 L159.760742,80.2802734 L159.760742,81.3056641 L153.895508,81.3056641 L153.895508,86.8291016 C153.895508,87.9684302 153.298509,88.5426432 152.104492,88.5517578 L150.435431,88.5430078 C150.283946,88.5415495 150.129363,88.5399089 149.97168,88.5380859 L149.879395,87.9433595 C149.845215,87.7337247 149.807617,87.5126965 149.766602,87.2802734 C150.486657,87.3531905 151.165687,87.3896484 151.803711,87.3896484 C152.423506,87.3896484 152.733398,87.0843129 152.733398,86.4736328 L152.733398,81.3056641 L146.198242,81.3056641 L146.198242,80.2802734 Z M147.456055,76.2470703 L158.543945,76.2470703 L158.543945,77.2724609 L147.456055,77.2724609 L147.456055,76.2470703 Z M155.631836,82.9599609 L156.547852,82.3447266 C157.668951,83.7210355 158.753575,85.156568 159.801758,86.6513672 L158.803711,87.3076172 C157.673497,85.6578694 156.616216,84.2086651 155.631836,82.9599609 Z M149.219727,82.3173828 L150.217773,82.8779297 C149.260737,84.5367921 148.239914,86.1135993 147.155273,87.6083984 C146.87272,87.398762 146.571942,87.1845714 146.25293,86.9658203 C147.273768,85.6441991 148.262691,84.0947354 149.219727,82.3173828 Z" id="点击提示" fill="#333333" fill-rule="nonzero"></path>
                <path d="M326.191406,81.3603516 L328.1875,81.3603516 L328.1875,75.9873047 L337.785156,75.9873047 L337.785156,81.3603516 L339.740234,81.3603516 L339.740234,82.2080078 L335.775391,82.2080078 C336.887375,82.9280635 337.917313,83.6298794 338.865234,84.3134766 L338.195312,85.0244141 C337.803383,84.7145167 337.397789,84.4091812 336.978516,84.1083984 L333.879736,84.2027066 C331.582954,84.2785064 330.000004,84.3473304 329.130859,84.4091797 C328.793618,84.4365236 328.410809,84.482096 327.982422,84.5458984 L327.613281,83.6298828 C328.050783,83.5387365 328.410806,83.4065764 328.693359,83.2333984 C329.103518,82.9690742 329.552406,82.6272807 330.040039,82.2080078 L326.191406,82.2080078 L326.191406,81.3603516 Z M329.71875,85.0380859 L330.730469,85.0380859 L330.730469,86.6240234 C330.730469,87.1891304 331.040361,87.4716797 331.660156,87.4716797 L334.326172,87.4716797 C334.948771,87.4716797 335.311194,87.2542262 335.41345,86.8193133 L335.433594,86.7060547 C335.506511,86.3141256 335.561198,85.8720728 335.597656,85.3798828 C335.907554,85.5074876 336.267576,85.644205 336.677734,85.7900391 C336.586588,86.3460314 336.5,86.7971988 336.417969,87.1435547 C336.226562,88.0003298 335.597662,88.4287109 334.53125,88.4287109 L331.46875,88.4287109 C330.302077,88.4287109 329.71875,87.8863987 329.71875,86.8017578 L329.71875,85.0380859 Z M329.171875,81.3603516 L336.800781,81.3603516 L336.800781,80.3623047 L329.171875,80.3623047 L329.171875,81.3603516 Z M329.171875,79.5693359 L336.800781,79.5693359 L336.800781,78.5849609 L329.171875,78.5849609 L329.171875,79.5693359 Z M336.800781,76.8076172 L329.171875,76.8076172 L329.171875,77.7919922 L336.800781,77.7919922 L336.800781,76.8076172 Z M335.023438,82.7685547 L335.570312,82.2080078 L331.537109,82.2080078 L330.78789,82.7417583 C330.424219,82.9966015 330.076955,83.2333973 329.746094,83.4521484 L335.857422,83.3222656 L335.857422,83.3222656 C335.583983,83.1354157 335.305991,82.9508473 335.023438,82.7685547 Z M327.558594,85.0517578 L328.542969,85.4345703 C328.105467,86.4918673 327.677085,87.3805303 327.257812,88.1005859 L326.747579,87.8528518 C326.6156,87.7901436 326.471225,87.7223311 326.314453,87.6494141 C326.751955,86.9567023 327.166665,86.0908255 327.558594,85.0517578 Z M337.224609,85.7216797 L338.003906,85.1474609 C338.66016,85.8310581 339.270831,86.5192023 339.835938,87.2119141 L338.960938,87.8818359 C338.432289,87.1617803 337.853519,86.4417354 337.224609,85.7216797 Z M331.974609,85.0791016 L332.726562,84.5322266 L333.151236,84.9568997 C333.617543,85.4302956 333.981842,85.8264958 334.244141,86.1455078 L333.369141,86.7880859 C333.01367,86.3050106 332.548831,85.7353548 331.974609,85.0791016 Z M343.308594,84.0263672 L348.3125,84.0263672 L348.3125,83.2197266 L350.882812,81.5654297 L344.429688,81.5654297 L344.429688,80.5947266 L352.455078,80.5947266 L352.455078,81.6748047 L349.378906,83.6982422 L349.378906,84.0263672 L353.808594,84.0263672 L353.808594,85.0107422 L349.378906,85.0107422 L349.378906,87.1298828 C349.378906,88.1598359 348.836594,88.6748047 347.751953,88.6748047 L347.363159,88.6730957 C346.94104,88.6696778 346.418948,88.6611329 345.796875,88.6474609 L345.718262,88.1245119 C345.688639,87.939942 345.655599,87.7451182 345.619141,87.5400391 L346.147788,87.5832491 C346.729096,87.6273592 347.186341,87.6494141 347.519531,87.6494141 C348.04818,87.6494141 348.3125,87.389651 348.3125,86.8701172 L348.3125,85.0107422 L343.308594,85.0107422 L343.308594,84.0263672 Z M344.128906,77.3134766 L344.007379,76.6511506 C343.985099,76.5367121 343.961806,76.420248 343.9375,76.3017578 C347.209652,76.2288408 350.221991,76.0556654 352.974609,75.7822266 L353.166016,76.7802734 L352.125052,76.8710398 C350.235043,77.0216837 347.569679,77.1691616 344.128906,77.3134766 Z M341.763672,83.1376953 C342.146486,83.3199879 342.515623,83.470377 342.871094,83.5888672 L342.595947,84.6894546 C342.312256,85.8515626 342.002931,87.1982345 341.667969,88.7294922 L340.464844,88.3740234 C340.938804,86.8883389 341.371743,85.1429137 341.763672,83.1376953 Z M349.980469,79.8291016 C350.591149,79.0270142 351.160805,78.1474657 351.689453,77.1904297 L352.6875,77.7099609 C352.149737,78.5849653 351.54818,79.4827428 350.882812,80.4033203 L349.980469,79.8291016 Z M340.833984,79.1865234 C341.663416,79.7880889 342.442705,80.3942027 343.171875,81.0048828 C342.889322,81.3056656 342.625001,81.5973293 342.378906,81.8798828 C341.595048,81.1507125 340.852217,80.512698 340.150391,79.9658203 L340.833984,79.1865234 Z M341.367188,75.6591797 C342.078129,76.2151721 342.839189,76.8531865 343.650391,77.5732422 L343.21289,78.0039064 C343.076172,78.1406248 342.948568,78.2705072 342.830078,78.3935547 C342.055335,77.6279259 341.33529,76.9671252 340.669922,76.4111328 L341.367188,75.6591797 Z M344.15625,78.1474609 L344.976562,77.6689453 C345.477867,78.3525425 345.956378,79.0589156 346.412109,79.7880859 L345.509766,80.3212891 C345.072263,79.537431 344.621096,78.8128288 344.15625,78.1474609 Z M347.095703,77.8193359 L347.957031,77.3955078 C348.358075,78.0061879 348.768227,78.7080038 349.1875,79.5009766 L348.257812,79.9794922 C347.884113,79.1956341 347.496747,78.4755892 347.095703,77.8193359 Z M359.605469,75.9736328 L366.427734,75.9736328 L366.427734,81.3740234 L365.443359,81.3740234 L365.443359,80.9775391 L360.589844,80.9775391 L360.589844,81.3740234 L359.605469,81.3740234 L359.605469,75.9736328 Z M357.472656,88.2236328 C358.757819,87.1481066 359.477864,85.6077574 359.632812,83.6025391 L360.658203,83.6025391 C360.61263,84.2405631 360.519206,84.8375623 360.37793,85.3935547 C360.956709,86.2776737 361.710933,86.8746729 362.640625,87.1845703 L362.640625,83.0693359 L358.416016,83.0693359 L358.416016,82.1669922 L367.630859,82.1669922 L367.630859,83.0693359 L363.666016,83.0693359 L363.666016,84.6005859 L367.097656,84.6005859 L367.097656,85.4755859 L363.666016,85.4755859 L363.666016,87.4033203 L363.900632,87.4247566 C364.600992,87.4742681 365.899079,87.4625655 367.794922,87.3896484 L367.576285,88.0872519 C367.547209,88.182315 367.51527,88.28702 367.480469,88.4013672 C366.395828,88.4287111 365.270188,88.4150393 364.103516,88.3603516 C362.262361,88.337565 360.908858,87.690436 360.042969,86.4189453 C359.660154,87.371424 359.10417,88.1871711 358.375,88.8662109 C358.101561,88.6383452 357.800783,88.4241546 357.472656,88.2236328 Z M354.164062,82.6181641 C354.747399,82.3675118 355.335283,82.1031915 355.927734,81.8251953 L355.927734,78.9130859 L354.273438,78.9130859 L354.273438,77.9833984 L355.927734,77.9833984 L355.927734,75.4404297 L356.966797,75.4404297 L356.966797,77.9833984 L358.716797,77.9833984 L358.716797,78.9130859 L356.966797,78.9130859 L356.966797,81.3193359 C357.490888,81.059569 358.014971,80.7861342 358.539062,80.4990234 C358.566406,80.854494 358.602864,81.2190737 358.648438,81.5927734 L356.966797,82.4335938 L356.966797,82.4335938 L356.966797,87.1982422 C356.966797,88.0823612 356.629561,88.560872 355.955078,88.6337891 C355.481117,88.6793622 354.94792,88.6930339 354.355469,88.6748047 C354.300781,88.2919903 354.241537,87.9137388 354.177734,87.5400391 C354.679039,87.5947268 355.10742,87.6220703 355.462891,87.6220703 C355.772788,87.6220703 355.927734,87.4534522 355.927734,87.1162109 L355.927734,82.9667969 C355.380857,83.2493504 354.838544,83.5341783 354.300781,83.8212891 L354.164062,82.6181641 Z M360.589844,80.1025391 L365.443359,80.1025391 L365.443359,78.8994141 L360.589844,78.8994141 L360.589844,80.1025391 Z M365.443359,76.8486328 L360.589844,76.8486328 L360.589844,78.0380859 L365.443359,78.0380859 L365.443359,76.8486328 Z M368.205078,80.2802734 L381.767578,80.2802734 L381.767578,81.3056641 L375.902344,81.3056641 L375.902344,86.8291016 C375.902344,87.9684302 375.305345,88.5426432 374.111328,88.5517578 L372.442267,88.5430078 C372.290782,88.5415495 372.136199,88.5399089 371.978516,88.5380859 L371.886231,87.9433595 C371.852051,87.7337247 371.814453,87.5126965 371.773438,87.2802734 C372.493493,87.3531905 373.172523,87.3896484 373.810547,87.3896484 C374.430342,87.3896484 374.740234,87.0843129 374.740234,86.4736328 L374.740234,81.3056641 L368.205078,81.3056641 L368.205078,80.2802734 Z M369.462891,76.2470703 L380.550781,76.2470703 L380.550781,77.2724609 L369.462891,77.2724609 L369.462891,76.2470703 Z M377.638672,82.9599609 L378.554688,82.3447266 C379.675787,83.7210355 380.760411,85.156568 381.808594,86.6513672 L380.810547,87.3076172 C379.680333,85.6578694 378.623052,84.2086651 377.638672,82.9599609 Z M371.226562,82.3173828 L372.224609,82.8779297 C371.267573,84.5367921 370.24675,86.1135993 369.162109,87.6083984 C368.879556,87.398762 368.578778,87.1845714 368.259766,86.9658203 C369.280604,85.6441991 370.269526,84.0947354 371.226562,82.3173828 Z" id="悬浮提示" fill="#333333" fill-rule="nonzero"></path>
                <g id="提示框">
                    <use fill="black" fill-opacity="1" filter="url(#filter-2)" xlink:href="#path-1"></use>
                    <path stroke="#4F7DE7" stroke-width="1" d="M208,15.5 L56,15.5 C54.0670034,15.5 52.5,17.0670034 52.5,19 L52.5,54 C52.5,55.9329966 54.0670034,57.5 56,57.5 L122.359806,57.5 L130.940464,66.0630219 C131.525993,66.6473107 132.474007,66.6473107 133.059504,66.0630538 L141.639177,57.5 L208,57.5 C209.932997,57.5 211.5,55.9329966 211.5,54 L211.5,19 C211.5,17.0670034 209.932997,15.5 208,15.5 Z" stroke-linejoin="square" fill="#FFFFFF" fill-rule="evenodd"></path>
                </g>
                <g id="提示框备份-2">
                    <use fill="black" fill-opacity="1" filter="url(#filter-4)" xlink:href="#path-3"></use>
                    <path stroke="#4F7DE7" stroke-width="1" d="M430,15.5 L278,15.5 C276.067003,15.5 274.5,17.0670034 274.5,19 L274.5,54 C274.5,55.9329966 276.067003,57.5 278,57.5 L344.359806,57.5 L352.940464,66.0630219 C353.525993,66.6473107 354.474007,66.6473107 355.059504,66.0630538 L363.639177,57.5 L430,57.5 C431.932997,57.5 433.5,55.9329966 433.5,54 L433.5,19 C433.5,17.0670034 431.932997,15.5 430,15.5 Z" stroke-linejoin="square" fill="#FFFFFF" fill-rule="evenodd"></path>
                </g>
                <path d="M81.6191406,30.4091797 L88.4414062,30.4091797 L88.4414062,35.8095703 L87.4570312,35.8095703 L87.4570312,35.4130859 L82.6035156,35.4130859 L82.6035156,35.8095703 L81.6191406,35.8095703 L81.6191406,30.4091797 Z M79.4863281,42.6591797 C80.7714908,41.5836535 81.4915357,40.0433043 81.6464844,38.0380859 L82.671875,38.0380859 C82.6263019,38.67611 82.5328783,39.2731092 82.3916016,39.8291016 C82.9703805,40.7132206 83.7246047,41.3102198 84.6542969,41.6201172 L84.6542969,37.5048828 L80.4296875,37.5048828 L80.4296875,36.6025391 L89.6445312,36.6025391 L89.6445312,37.5048828 L85.6796875,37.5048828 L85.6796875,39.0361328 L89.1113281,39.0361328 L89.1113281,39.9111328 L85.6796875,39.9111328 L85.6796875,41.8388672 L85.9143041,41.8603034 C86.6146641,41.909815 87.9127509,41.8981123 89.8085938,41.8251953 L89.5899571,42.5227988 C89.5608807,42.6178618 89.5289419,42.7225669 89.4941406,42.8369141 C88.4094998,42.8642579 87.28386,42.8505862 86.1171875,42.7958984 C84.2760325,42.7731119 82.9225304,42.1259829 82.0566406,40.8544922 C81.6738262,41.8069709 81.1178422,42.622718 80.3886719,43.3017578 C80.115233,43.0738921 79.8144548,42.8597015 79.4863281,42.6591797 Z M76.1777344,37.0537109 C76.7610706,36.8030586 77.3489554,36.5387384 77.9414062,36.2607422 L77.9414062,33.3486328 L76.2871094,33.3486328 L76.2871094,32.4189453 L77.9414062,32.4189453 L77.9414062,29.8759766 L78.9804688,29.8759766 L78.9804688,32.4189453 L80.7304688,32.4189453 L80.7304688,33.3486328 L78.9804688,33.3486328 L78.9804688,35.7548828 C79.5045599,35.4951159 80.0286432,35.2216811 80.5527344,34.9345703 C80.5800783,35.2900408 80.6165362,35.6546205 80.6621094,36.0283203 L78.9804688,36.8691406 L78.9804688,36.8691406 L78.9804688,41.6337891 C78.9804688,42.5179081 78.6432325,42.9964189 77.96875,43.0693359 C77.4947893,43.1149091 76.9615915,43.1285808 76.3691406,43.1103516 C76.3144529,42.7275371 76.2552087,42.3492857 76.1914062,41.9755859 C76.6927108,42.0302737 77.121092,42.0576172 77.4765625,42.0576172 C77.7864599,42.0576172 77.9414062,41.8889991 77.9414062,41.5517578 L77.9414062,37.4023438 C77.3945285,37.6848972 76.8522162,37.9697251 76.3144531,38.2568359 L76.1777344,37.0537109 Z M82.6035156,34.5380859 L87.4570312,34.5380859 L87.4570312,33.3349609 L82.6035156,33.3349609 L82.6035156,34.5380859 Z M87.4570312,31.2841797 L82.6035156,31.2841797 L82.6035156,32.4736328 L87.4570312,32.4736328 L87.4570312,31.2841797 Z M90.21875,34.7158203 L103.78125,34.7158203 L103.78125,35.7412109 L97.9160156,35.7412109 L97.9160156,41.2646484 C97.9160156,42.4039771 97.3190164,42.9781901 96.125,42.9873047 L94.4559387,42.9785547 C94.3044543,42.9770964 94.1498706,42.9754557 93.9921875,42.9736328 L93.8999024,42.3789064 C93.8657228,42.1692715 93.8281252,41.9482433 93.7871094,41.7158203 C94.5071651,41.7887373 95.1861947,41.8251953 95.8242188,41.8251953 C96.4440135,41.8251953 96.7539062,41.5198598 96.7539062,40.9091797 L96.7539062,35.7412109 L90.21875,35.7412109 L90.21875,34.7158203 Z M91.4765625,30.6826172 L102.564453,30.6826172 L102.564453,31.7080078 L91.4765625,31.7080078 L91.4765625,30.6826172 Z M99.6523438,37.3955078 L100.568359,36.7802734 C101.689459,38.1565824 102.774083,39.5921149 103.822266,41.0869141 L102.824219,41.7431641 C101.694005,40.0934162 100.636724,38.644212 99.6523438,37.3955078 Z M93.2402344,36.7529297 L94.2382812,37.3134766 C93.2812452,38.972339 92.2604221,40.5491462 91.1757812,42.0439453 C90.8932278,41.8343088 90.5924495,41.6201183 90.2734375,41.4013672 C91.2942759,40.079746 92.2831983,38.5302823 93.2402344,36.7529297 Z M104.423828,32.1591797 L110.986328,32.1591797 L110.59914,31.4356625 C110.319049,30.922694 110.088087,30.5258478 109.90625,30.2451172 L110.958984,29.7529297 L111.223125,30.1721094 C111.455364,30.5498168 111.750128,31.0481089 112.107422,31.6669922 L111.123047,32.1591797 L117.548828,32.1591797 L117.548828,33.1708984 L115.026367,33.1708984 C114.538735,35.773125 113.490568,37.8649009 111.881836,39.4462891 C113.094082,40.3304081 115.019518,41.1233689 117.658203,41.8251953 L117.323381,42.2124729 C117.064825,42.5193923 116.857423,42.7867827 116.701172,43.0146484 C114.130847,42.1259721 112.232754,41.1962939 111.006836,40.2255859 C109.776361,41.182622 107.809909,42.1487581 105.107422,43.1240234 L104.72461,42.6181642 C104.587891,42.4404303 104.442058,42.2535817 104.287109,42.0576172 C106.893893,41.2737591 108.855788,40.4010465 110.172852,39.4394531 C108.509432,37.6621005 107.452151,35.5726032 107.000977,33.1708984 L104.423828,33.1708984 L104.423828,32.1591797 Z M113.857422,33.1708984 L108.094727,33.1708984 C108.504885,35.4130971 109.484693,37.2656177 111.03418,38.7285156 C112.515307,37.3522067 113.456378,35.4996861 113.857422,33.1708984 Z M118.916016,37.4501953 C121.112641,37.199543 122.823887,36.9101579 124.049805,36.5820312 C122.956049,36.2903631 121.850917,36.0055352 120.734375,35.7275391 C121.108075,35.3264954 121.46354,34.930015 121.800781,34.5380859 L118.546875,34.5380859 L118.546875,33.6357422 L122.539062,33.6357422 C122.885418,33.19824 123.204426,32.7653016 123.496094,32.3369141 L124.603516,32.6513672 C124.357421,32.9794938 124.095379,33.3076155 123.817383,33.6357422 L131.453125,33.6357422 L131.453125,34.5380859 L128.513672,34.5380859 C128.080727,35.3082721 127.495121,35.9326148 126.756836,36.4111328 L128.282618,36.8147268 C129.026367,37.013242 129.741403,37.206835 130.427734,37.3955078 L129.990234,38.3115234 C128.545566,37.855792 127.075854,37.420575 125.581055,37.0058594 C124.195631,37.5527371 122.106134,38.0016258 119.3125,38.3525391 C119.203124,38.0608709 119.070964,37.7600927 118.916016,37.4501953 Z M131.822266,41.8662109 C131.512368,42.2307961 131.248048,42.5725896 131.029297,42.8916016 C128.623035,42.1715459 126.77735,41.2897188 125.492188,40.2460938 L125.492188,43.3291016 L124.507812,43.3291016 L124.507812,40.2666016 C123.126946,41.2418669 121.290376,42.1214154 118.998047,42.9052734 L118.720234,42.5662109 C118.568204,42.3857426 118.396485,42.1888683 118.205078,41.9755859 C120.556652,41.3876924 122.418287,40.6630902 123.790039,39.8017578 L118.519531,39.8017578 L118.519531,38.8857422 L124.507812,38.8857422 L124.507812,37.7646484 L125.492188,37.7646484 L125.492188,38.8857422 L131.5625,38.8857422 L131.5625,39.8017578 L126.237305,39.8017578 C127.677416,40.7724658 129.539051,41.46061 131.822266,41.8662109 Z M118.916016,31.0791016 L124.644531,31.0791016 C124.471353,30.7646469 124.270834,30.4410824 124.042969,30.1083984 L125.013672,29.6708984 C125.309897,30.1357445 125.590168,30.6051409 125.854492,31.0791016 L131.070312,31.0791016 L131.070312,33.1435547 L130.03125,33.1435547 L130.03125,31.9814453 L119.955078,31.9814453 L119.955078,33.1435547 L118.916016,33.1435547 L118.916016,31.0791016 Z M122.292969,35.2900391 L123.926758,35.6950684 C124.45996,35.8283688 124.981768,35.9599603 125.492188,36.0898438 C126.294275,35.7343732 126.920896,35.2171258 127.37207,34.5380859 L123.017578,34.5380859 C122.785155,34.7887382 122.543621,35.0393868 122.292969,35.2900391 Z M137.619141,30.4091797 L144.441406,30.4091797 L144.441406,35.8095703 L143.457031,35.8095703 L143.457031,35.4130859 L138.603516,35.4130859 L138.603516,35.8095703 L137.619141,35.8095703 L137.619141,30.4091797 Z M135.486328,42.6591797 C136.771491,41.5836535 137.491536,40.0433043 137.646484,38.0380859 L138.671875,38.0380859 C138.626302,38.67611 138.532878,39.2731092 138.391602,39.8291016 C138.97038,40.7132206 139.724605,41.3102198 140.654297,41.6201172 L140.654297,37.5048828 L136.429688,37.5048828 L136.429688,36.6025391 L145.644531,36.6025391 L145.644531,37.5048828 L141.679688,37.5048828 L141.679688,39.0361328 L145.111328,39.0361328 L145.111328,39.9111328 L141.679688,39.9111328 L141.679688,41.8388672 L141.914304,41.8603034 C142.614664,41.909815 143.912751,41.8981123 145.808594,41.8251953 L145.589957,42.5227988 C145.560881,42.6178618 145.528942,42.7225669 145.494141,42.8369141 C144.4095,42.8642579 143.28386,42.8505862 142.117188,42.7958984 C140.276032,42.7731119 138.92253,42.1259829 138.056641,40.8544922 C137.673826,41.8069709 137.117842,42.622718 136.388672,43.3017578 C136.115233,43.0738921 135.814455,42.8597015 135.486328,42.6591797 Z M132.177734,37.0537109 C132.761071,36.8030586 133.348955,36.5387384 133.941406,36.2607422 L133.941406,33.3486328 L132.287109,33.3486328 L132.287109,32.4189453 L133.941406,32.4189453 L133.941406,29.8759766 L134.980469,29.8759766 L134.980469,32.4189453 L136.730469,32.4189453 L136.730469,33.3486328 L134.980469,33.3486328 L134.980469,35.7548828 C135.50456,35.4951159 136.028643,35.2216811 136.552734,34.9345703 C136.580078,35.2900408 136.616536,35.6546205 136.662109,36.0283203 L134.980469,36.8691406 L134.980469,36.8691406 L134.980469,41.6337891 C134.980469,42.5179081 134.643233,42.9964189 133.96875,43.0693359 C133.494789,43.1149091 132.961592,43.1285808 132.369141,43.1103516 C132.314453,42.7275371 132.255209,42.3492857 132.191406,41.9755859 C132.692711,42.0302737 133.121092,42.0576172 133.476562,42.0576172 C133.78646,42.0576172 133.941406,41.8889991 133.941406,41.5517578 L133.941406,37.4023438 C133.394529,37.6848972 132.852216,37.9697251 132.314453,38.2568359 L132.177734,37.0537109 Z M138.603516,34.5380859 L143.457031,34.5380859 L143.457031,33.3349609 L138.603516,33.3349609 L138.603516,34.5380859 Z M143.457031,31.2841797 L138.603516,31.2841797 L138.603516,32.4736328 L143.457031,32.4736328 L143.457031,31.2841797 Z M146.21875,34.7158203 L159.78125,34.7158203 L159.78125,35.7412109 L153.916016,35.7412109 L153.916016,41.2646484 C153.916016,42.4039771 153.319016,42.9781901 152.125,42.9873047 L150.455939,42.9785547 C150.304454,42.9770964 150.149871,42.9754557 149.992188,42.9736328 L149.899902,42.3789064 C149.865723,42.1692715 149.828125,41.9482433 149.787109,41.7158203 C150.507165,41.7887373 151.186195,41.8251953 151.824219,41.8251953 C152.444014,41.8251953 152.753906,41.5198598 152.753906,40.9091797 L152.753906,35.7412109 L146.21875,35.7412109 L146.21875,34.7158203 Z M147.476562,30.6826172 L158.564453,30.6826172 L158.564453,31.7080078 L147.476562,31.7080078 L147.476562,30.6826172 Z M155.652344,37.3955078 L156.568359,36.7802734 C157.689459,38.1565824 158.774083,39.5921149 159.822266,41.0869141 L158.824219,41.7431641 C157.694005,40.0934162 156.636724,38.644212 155.652344,37.3955078 Z M149.240234,36.7529297 L150.238281,37.3134766 C149.281245,38.972339 148.260422,40.5491462 147.175781,42.0439453 C146.893228,41.8343088 146.59245,41.6201183 146.273438,41.4013672 C147.294276,40.079746 148.283198,38.5302823 149.240234,36.7529297 Z M160.423828,32.1591797 L166.986328,32.1591797 L166.59914,31.4356625 C166.319049,30.922694 166.088087,30.5258478 165.90625,30.2451172 L166.958984,29.7529297 L167.223125,30.1721094 C167.455364,30.5498168 167.750128,31.0481089 168.107422,31.6669922 L167.123047,32.1591797 L173.548828,32.1591797 L173.548828,33.1708984 L171.026367,33.1708984 C170.538735,35.773125 169.490568,37.8649009 167.881836,39.4462891 C169.094082,40.3304081 171.019518,41.1233689 173.658203,41.8251953 L173.323381,42.2124729 C173.064825,42.5193923 172.857423,42.7867827 172.701172,43.0146484 C170.130847,42.1259721 168.232754,41.1962939 167.006836,40.2255859 C165.776361,41.182622 163.809909,42.1487581 161.107422,43.1240234 L160.72461,42.6181642 C160.587891,42.4404303 160.442058,42.2535817 160.287109,42.0576172 C162.893893,41.2737591 164.855788,40.4010465 166.172852,39.4394531 C164.509432,37.6621005 163.452151,35.5726032 163.000977,33.1708984 L160.423828,33.1708984 L160.423828,32.1591797 Z M169.857422,33.1708984 L164.094727,33.1708984 C164.504885,35.4130971 165.484693,37.2656177 167.03418,38.7285156 C168.515307,37.3522067 169.456378,35.4996861 169.857422,33.1708984 Z M187.822266,41.8662109 C187.512368,42.2307961 187.248048,42.5725896 187.029297,42.8916016 C184.623035,42.1715459 182.77735,41.2897188 181.492188,40.2460938 L181.492188,43.3291016 L180.507812,43.3291016 L180.507812,40.2666016 C179.126946,41.2418669 177.290376,42.1214154 174.998047,42.9052734 L174.720234,42.5662109 C174.568204,42.3857426 174.396485,42.1888683 174.205078,41.9755859 C176.556652,41.3876924 178.418287,40.6630902 179.790039,39.8017578 L174.519531,39.8017578 L174.519531,38.8857422 L180.507812,38.8857422 L180.507812,37.7646484 L181.492188,37.7646484 L181.492188,38.8857422 L187.5625,38.8857422 L187.5625,39.8017578 L182.237305,39.8017578 C183.677416,40.7724658 185.539051,41.46061 187.822266,41.8662109 Z M174.916016,31.0791016 L180.644531,31.0791016 C180.471353,30.7646469 180.270834,30.4410824 180.042969,30.1083984 L181.013672,29.6708984 C181.309897,30.1357445 181.590168,30.6051409 181.854492,31.0791016 L187.070312,31.0791016 L187.070312,33.1435547 L186.03125,33.1435547 L186.03125,31.9814453 L175.955078,31.9814453 L175.955078,33.1435547 L174.916016,33.1435547 L174.916016,31.0791016 Z" id="提示文案提示文案" fill="#333333" fill-rule="nonzero"></path>
                <path d="M179.496094,32.3369141 L180.603516,32.6513672 C180.357421,32.9794938 180.095379,33.3076155 179.817383,33.6357422 L187.453125,33.6357422 L187.453125,34.5380859 L184.513672,34.5380859 C184.080727,35.3082721 183.495121,35.9326148 182.756836,36.4111328 L184.282618,36.8147268 C185.026367,37.013242 185.741403,37.206835 186.427734,37.3955078 L185.990234,38.3115234 C184.545566,37.855792 183.075854,37.420575 181.581055,37.0058594 C180.195631,37.5527371 178.106134,38.0016258 175.3125,38.3525391 C175.203124,38.0608709 175.070964,37.7600927 174.916016,37.4501953 C177.112641,37.199543 178.823887,36.9101579 180.049805,36.5820312 C178.956049,36.2903631 177.850917,36.0055352 176.734375,35.7275391 C177.108075,35.3264954 177.46354,34.930015 177.800781,34.5380859 L174.546875,34.5380859 L174.546875,33.6357422 L178.539062,33.6357422 C178.885418,33.19824 179.204426,32.7653016 179.496094,32.3369141 Z M183.37207,34.5380859 L179.017578,34.5380859 C178.785155,34.7887382 178.543621,35.0393868 178.292969,35.2900391 C178.848961,35.4267585 179.393556,35.5617679 179.926758,35.6950684 L179.926758,35.6950684 L181.492188,36.0898438 C182.294275,35.7343732 182.920896,35.2171258 183.37207,34.5380859 L183.37207,34.5380859 Z" id="形状结合" fill="#333333" fill-rule="nonzero"></path>
                <path d="M303.619141,30.4091797 L310.441406,30.4091797 L310.441406,35.8095703 L309.457031,35.8095703 L309.457031,35.4130859 L304.603516,35.4130859 L304.603516,35.8095703 L303.619141,35.8095703 L303.619141,30.4091797 Z M301.486328,42.6591797 C302.771491,41.5836535 303.491536,40.0433043 303.646484,38.0380859 L304.671875,38.0380859 C304.626302,38.67611 304.532878,39.2731092 304.391602,39.8291016 C304.97038,40.7132206 305.724605,41.3102198 306.654297,41.6201172 L306.654297,37.5048828 L302.429688,37.5048828 L302.429688,36.6025391 L311.644531,36.6025391 L311.644531,37.5048828 L307.679688,37.5048828 L307.679688,39.0361328 L311.111328,39.0361328 L311.111328,39.9111328 L307.679688,39.9111328 L307.679688,41.8388672 L307.914304,41.8603034 C308.614664,41.909815 309.912751,41.8981123 311.808594,41.8251953 L311.589957,42.5227988 C311.560881,42.6178618 311.528942,42.7225669 311.494141,42.8369141 C310.4095,42.8642579 309.28386,42.8505862 308.117188,42.7958984 C306.276032,42.7731119 304.92253,42.1259829 304.056641,40.8544922 C303.673826,41.8069709 303.117842,42.622718 302.388672,43.3017578 C302.115233,43.0738921 301.814455,42.8597015 301.486328,42.6591797 Z M298.177734,37.0537109 C298.761071,36.8030586 299.348955,36.5387384 299.941406,36.2607422 L299.941406,33.3486328 L298.287109,33.3486328 L298.287109,32.4189453 L299.941406,32.4189453 L299.941406,29.8759766 L300.980469,29.8759766 L300.980469,32.4189453 L302.730469,32.4189453 L302.730469,33.3486328 L300.980469,33.3486328 L300.980469,35.7548828 C301.50456,35.4951159 302.028643,35.2216811 302.552734,34.9345703 C302.580078,35.2900408 302.616536,35.6546205 302.662109,36.0283203 L300.980469,36.8691406 L300.980469,36.8691406 L300.980469,41.6337891 C300.980469,42.5179081 300.643233,42.9964189 299.96875,43.0693359 C299.494789,43.1149091 298.961592,43.1285808 298.369141,43.1103516 C298.314453,42.7275371 298.255209,42.3492857 298.191406,41.9755859 C298.692711,42.0302737 299.121092,42.0576172 299.476562,42.0576172 C299.78646,42.0576172 299.941406,41.8889991 299.941406,41.5517578 L299.941406,37.4023438 C299.394529,37.6848972 298.852216,37.9697251 298.314453,38.2568359 L298.177734,37.0537109 Z M304.603516,34.5380859 L309.457031,34.5380859 L309.457031,33.3349609 L304.603516,33.3349609 L304.603516,34.5380859 Z M309.457031,31.2841797 L304.603516,31.2841797 L304.603516,32.4736328 L309.457031,32.4736328 L309.457031,31.2841797 Z M312.21875,34.7158203 L325.78125,34.7158203 L325.78125,35.7412109 L319.916016,35.7412109 L319.916016,41.2646484 C319.916016,42.4039771 319.319016,42.9781901 318.125,42.9873047 L316.455939,42.9785547 C316.304454,42.9770964 316.149871,42.9754557 315.992188,42.9736328 L315.899902,42.3789064 C315.865723,42.1692715 315.828125,41.9482433 315.787109,41.7158203 C316.507165,41.7887373 317.186195,41.8251953 317.824219,41.8251953 C318.444014,41.8251953 318.753906,41.5198598 318.753906,40.9091797 L318.753906,35.7412109 L312.21875,35.7412109 L312.21875,34.7158203 Z M313.476562,30.6826172 L324.564453,30.6826172 L324.564453,31.7080078 L313.476562,31.7080078 L313.476562,30.6826172 Z M321.652344,37.3955078 L322.568359,36.7802734 C323.689459,38.1565824 324.774083,39.5921149 325.822266,41.0869141 L324.824219,41.7431641 C323.694005,40.0934162 322.636724,38.644212 321.652344,37.3955078 Z M315.240234,36.7529297 L316.238281,37.3134766 C315.281245,38.972339 314.260422,40.5491462 313.175781,42.0439453 C312.893228,41.8343088 312.59245,41.6201183 312.273438,41.4013672 C313.294276,40.079746 314.283198,38.5302823 315.240234,36.7529297 Z M326.423828,32.1591797 L332.986328,32.1591797 L332.59914,31.4356625 C332.319049,30.922694 332.088087,30.5258478 331.90625,30.2451172 L332.958984,29.7529297 L333.223125,30.1721094 C333.455364,30.5498168 333.750128,31.0481089 334.107422,31.6669922 L333.123047,32.1591797 L339.548828,32.1591797 L339.548828,33.1708984 L337.026367,33.1708984 C336.538735,35.773125 335.490568,37.8649009 333.881836,39.4462891 C335.094082,40.3304081 337.019518,41.1233689 339.658203,41.8251953 L339.323381,42.2124729 C339.064825,42.5193923 338.857423,42.7867827 338.701172,43.0146484 C336.130847,42.1259721 334.232754,41.1962939 333.006836,40.2255859 C331.776361,41.182622 329.809909,42.1487581 327.107422,43.1240234 L326.72461,42.6181642 C326.587891,42.4404303 326.442058,42.2535817 326.287109,42.0576172 C328.893893,41.2737591 330.855788,40.4010465 332.172852,39.4394531 C330.509432,37.6621005 329.452151,35.5726032 329.000977,33.1708984 L326.423828,33.1708984 L326.423828,32.1591797 Z M335.857422,33.1708984 L330.094727,33.1708984 C330.504885,35.4130971 331.484693,37.2656177 333.03418,38.7285156 C334.515307,37.3522067 335.456378,35.4996861 335.857422,33.1708984 Z M340.916016,37.4501953 C343.112641,37.199543 344.823887,36.9101579 346.049805,36.5820312 C344.956049,36.2903631 343.850917,36.0055352 342.734375,35.7275391 C343.108075,35.3264954 343.46354,34.930015 343.800781,34.5380859 L340.546875,34.5380859 L340.546875,33.6357422 L344.539062,33.6357422 C344.885418,33.19824 345.204426,32.7653016 345.496094,32.3369141 L346.603516,32.6513672 C346.357421,32.9794938 346.095379,33.3076155 345.817383,33.6357422 L353.453125,33.6357422 L353.453125,34.5380859 L350.513672,34.5380859 C350.080727,35.3082721 349.495121,35.9326148 348.756836,36.4111328 L350.282618,36.8147268 C351.026367,37.013242 351.741403,37.206835 352.427734,37.3955078 L351.990234,38.3115234 C350.545566,37.855792 349.075854,37.420575 347.581055,37.0058594 C346.195631,37.5527371 344.106134,38.0016258 341.3125,38.3525391 C341.203124,38.0608709 341.070964,37.7600927 340.916016,37.4501953 Z M353.822266,41.8662109 C353.512368,42.2307961 353.248048,42.5725896 353.029297,42.8916016 C350.623035,42.1715459 348.77735,41.2897188 347.492188,40.2460938 L347.492188,43.3291016 L346.507812,43.3291016 L346.507812,40.2666016 C345.126946,41.2418669 343.290376,42.1214154 340.998047,42.9052734 L340.720234,42.5662109 C340.568204,42.3857426 340.396485,42.1888683 340.205078,41.9755859 C342.556652,41.3876924 344.418287,40.6630902 345.790039,39.8017578 L340.519531,39.8017578 L340.519531,38.8857422 L346.507812,38.8857422 L346.507812,37.7646484 L347.492188,37.7646484 L347.492188,38.8857422 L353.5625,38.8857422 L353.5625,39.8017578 L348.237305,39.8017578 C349.677416,40.7724658 351.539051,41.46061 353.822266,41.8662109 Z M340.916016,31.0791016 L346.644531,31.0791016 C346.471353,30.7646469 346.270834,30.4410824 346.042969,30.1083984 L347.013672,29.6708984 C347.309897,30.1357445 347.590168,30.6051409 347.854492,31.0791016 L353.070312,31.0791016 L353.070312,33.1435547 L352.03125,33.1435547 L352.03125,31.9814453 L341.955078,31.9814453 L341.955078,33.1435547 L340.916016,33.1435547 L340.916016,31.0791016 Z M344.292969,35.2900391 L345.926758,35.6950684 C346.45996,35.8283688 346.981768,35.9599603 347.492188,36.0898438 C348.294275,35.7343732 348.920896,35.2171258 349.37207,34.5380859 L345.017578,34.5380859 C344.785155,34.7887382 344.543621,35.0393868 344.292969,35.2900391 Z M359.619141,30.4091797 L366.441406,30.4091797 L366.441406,35.8095703 L365.457031,35.8095703 L365.457031,35.4130859 L360.603516,35.4130859 L360.603516,35.8095703 L359.619141,35.8095703 L359.619141,30.4091797 Z M357.486328,42.6591797 C358.771491,41.5836535 359.491536,40.0433043 359.646484,38.0380859 L360.671875,38.0380859 C360.626302,38.67611 360.532878,39.2731092 360.391602,39.8291016 C360.97038,40.7132206 361.724605,41.3102198 362.654297,41.6201172 L362.654297,37.5048828 L358.429688,37.5048828 L358.429688,36.6025391 L367.644531,36.6025391 L367.644531,37.5048828 L363.679688,37.5048828 L363.679688,39.0361328 L367.111328,39.0361328 L367.111328,39.9111328 L363.679688,39.9111328 L363.679688,41.8388672 L363.914304,41.8603034 C364.614664,41.909815 365.912751,41.8981123 367.808594,41.8251953 L367.589957,42.5227988 C367.560881,42.6178618 367.528942,42.7225669 367.494141,42.8369141 C366.4095,42.8642579 365.28386,42.8505862 364.117188,42.7958984 C362.276032,42.7731119 360.92253,42.1259829 360.056641,40.8544922 C359.673826,41.8069709 359.117842,42.622718 358.388672,43.3017578 C358.115233,43.0738921 357.814455,42.8597015 357.486328,42.6591797 Z M354.177734,37.0537109 C354.761071,36.8030586 355.348955,36.5387384 355.941406,36.2607422 L355.941406,33.3486328 L354.287109,33.3486328 L354.287109,32.4189453 L355.941406,32.4189453 L355.941406,29.8759766 L356.980469,29.8759766 L356.980469,32.4189453 L358.730469,32.4189453 L358.730469,33.3486328 L356.980469,33.3486328 L356.980469,35.7548828 C357.50456,35.4951159 358.028643,35.2216811 358.552734,34.9345703 C358.580078,35.2900408 358.616536,35.6546205 358.662109,36.0283203 L356.980469,36.8691406 L356.980469,36.8691406 L356.980469,41.6337891 C356.980469,42.5179081 356.643233,42.9964189 355.96875,43.0693359 C355.494789,43.1149091 354.961592,43.1285808 354.369141,43.1103516 C354.314453,42.7275371 354.255209,42.3492857 354.191406,41.9755859 C354.692711,42.0302737 355.121092,42.0576172 355.476562,42.0576172 C355.78646,42.0576172 355.941406,41.8889991 355.941406,41.5517578 L355.941406,37.4023438 C355.394529,37.6848972 354.852216,37.9697251 354.314453,38.2568359 L354.177734,37.0537109 Z M360.603516,34.5380859 L365.457031,34.5380859 L365.457031,33.3349609 L360.603516,33.3349609 L360.603516,34.5380859 Z M365.457031,31.2841797 L360.603516,31.2841797 L360.603516,32.4736328 L365.457031,32.4736328 L365.457031,31.2841797 Z M368.21875,34.7158203 L381.78125,34.7158203 L381.78125,35.7412109 L375.916016,35.7412109 L375.916016,41.2646484 C375.916016,42.4039771 375.319016,42.9781901 374.125,42.9873047 L372.455939,42.9785547 C372.304454,42.9770964 372.149871,42.9754557 371.992188,42.9736328 L371.899902,42.3789064 C371.865723,42.1692715 371.828125,41.9482433 371.787109,41.7158203 C372.507165,41.7887373 373.186195,41.8251953 373.824219,41.8251953 C374.444014,41.8251953 374.753906,41.5198598 374.753906,40.9091797 L374.753906,35.7412109 L368.21875,35.7412109 L368.21875,34.7158203 Z M369.476562,30.6826172 L380.564453,30.6826172 L380.564453,31.7080078 L369.476562,31.7080078 L369.476562,30.6826172 Z M377.652344,37.3955078 L378.568359,36.7802734 C379.689459,38.1565824 380.774083,39.5921149 381.822266,41.0869141 L380.824219,41.7431641 C379.694005,40.0934162 378.636724,38.644212 377.652344,37.3955078 Z M371.240234,36.7529297 L372.238281,37.3134766 C371.281245,38.972339 370.260422,40.5491462 369.175781,42.0439453 C368.893228,41.8343088 368.59245,41.6201183 368.273438,41.4013672 C369.294276,40.079746 370.283198,38.5302823 371.240234,36.7529297 Z M382.423828,32.1591797 L388.986328,32.1591797 L388.59914,31.4356625 C388.319049,30.922694 388.088087,30.5258478 387.90625,30.2451172 L388.958984,29.7529297 L389.223125,30.1721094 C389.455364,30.5498168 389.750128,31.0481089 390.107422,31.6669922 L389.123047,32.1591797 L395.548828,32.1591797 L395.548828,33.1708984 L393.026367,33.1708984 C392.538735,35.773125 391.490568,37.8649009 389.881836,39.4462891 C391.094082,40.3304081 393.019518,41.1233689 395.658203,41.8251953 L395.323381,42.2124729 C395.064825,42.5193923 394.857423,42.7867827 394.701172,43.0146484 C392.130847,42.1259721 390.232754,41.1962939 389.006836,40.2255859 C387.776361,41.182622 385.809909,42.1487581 383.107422,43.1240234 L382.72461,42.6181642 C382.587891,42.4404303 382.442058,42.2535817 382.287109,42.0576172 C384.893893,41.2737591 386.855788,40.4010465 388.172852,39.4394531 C386.509432,37.6621005 385.452151,35.5726032 385.000977,33.1708984 L382.423828,33.1708984 L382.423828,32.1591797 Z M391.857422,33.1708984 L386.094727,33.1708984 C386.504885,35.4130971 387.484693,37.2656177 389.03418,38.7285156 C390.515307,37.3522067 391.456378,35.4996861 391.857422,33.1708984 Z M409.822266,41.8662109 C409.512368,42.2307961 409.248048,42.5725896 409.029297,42.8916016 C406.623035,42.1715459 404.77735,41.2897188 403.492188,40.2460938 L403.492188,43.3291016 L402.507812,43.3291016 L402.507812,40.2666016 C401.126946,41.2418669 399.290376,42.1214154 396.998047,42.9052734 L396.720234,42.5662109 C396.568204,42.3857426 396.396485,42.1888683 396.205078,41.9755859 C398.556652,41.3876924 400.418287,40.6630902 401.790039,39.8017578 L396.519531,39.8017578 L396.519531,38.8857422 L402.507812,38.8857422 L402.507812,37.7646484 L403.492188,37.7646484 L403.492188,38.8857422 L409.5625,38.8857422 L409.5625,39.8017578 L404.237305,39.8017578 C405.677416,40.7724658 407.539051,41.46061 409.822266,41.8662109 Z M396.916016,31.0791016 L402.644531,31.0791016 C402.471353,30.7646469 402.270834,30.4410824 402.042969,30.1083984 L403.013672,29.6708984 C403.309897,30.1357445 403.590168,30.6051409 403.854492,31.0791016 L409.070312,31.0791016 L409.070312,33.1435547 L408.03125,33.1435547 L408.03125,31.9814453 L397.955078,31.9814453 L397.955078,33.1435547 L396.916016,33.1435547 L396.916016,31.0791016 Z" id="提示文案提示文案" fill="#333333" fill-rule="nonzero"></path>
                <path d="M401.496094,32.3369141 L402.603516,32.6513672 C402.357421,32.9794938 402.095379,33.3076155 401.817383,33.6357422 L409.453125,33.6357422 L409.453125,34.5380859 L406.513672,34.5380859 C406.080727,35.3082721 405.495121,35.9326148 404.756836,36.4111328 L406.282618,36.8147268 C407.026367,37.013242 407.741403,37.206835 408.427734,37.3955078 L407.990234,38.3115234 C406.545566,37.855792 405.075854,37.420575 403.581055,37.0058594 C402.195631,37.5527371 400.106134,38.0016258 397.3125,38.3525391 C397.203124,38.0608709 397.070964,37.7600927 396.916016,37.4501953 C399.112641,37.199543 400.823887,36.9101579 402.049805,36.5820312 C400.956049,36.2903631 399.850917,36.0055352 398.734375,35.7275391 C399.108075,35.3264954 399.46354,34.930015 399.800781,34.5380859 L396.546875,34.5380859 L396.546875,33.6357422 L400.539062,33.6357422 C400.885418,33.19824 401.204426,32.7653016 401.496094,32.3369141 Z M405.37207,34.5380859 L401.017578,34.5380859 C400.785155,34.7887382 400.543621,35.0393868 400.292969,35.2900391 C400.848961,35.4267585 401.393556,35.5617679 401.926758,35.6950684 L401.926758,35.6950684 L403.492188,36.0898438 C404.294275,35.7343732 404.920896,35.2171258 405.37207,34.5380859 L405.37207,34.5380859 Z" id="形状结合" fill="#333333" fill-rule="nonzero"></path>
                <text id="样式二" font-family="MicrosoftYaHei, Microsoft YaHei" font-size="12" font-weight="normal" line-spacing="22" fill="#525A6E">
                    <tspan x="8" y="27">样式二</tspan>
                </text>
            </g>
        </g>
    </g>
</svg>