<?xml version="1.0" encoding="UTF-8"?>
<svg width="494px" height="68px" viewBox="0 0 494 68" version="1.1" xmlns="http://www.w3.org/2000/svg" xmlns:xlink="http://www.w3.org/1999/xlink">
    <!-- Generator: Sketch 58 (84663) - https://sketch.com -->
    <title>date+time-selection/style3</title>
    <desc>Created with Sketch.</desc>
    <g id="页面-1" stroke="none" stroke-width="1" fill="none" fill-rule="evenodd">
        <g id="date+time-selection/style3">
            <rect id="矩形" fill-opacity="0.01" fill="#F6F6F6" x="0" y="0" width="494" height="68"></rect>
            <g id="编组-13" transform="translate(53.000000, 23.000000)">
                <rect id="矩形备份-12" fill="#D9D9D9" x="0" y="19" width="276" height="1"></rect>
                <path d="M6.140625,10 L0.62109375,10 L0.62109375,9.00390625 L3.2578125,6.37304688 C3.98437863,5.64648074 4.47070189,5.07129118 4.71679688,4.64746094 C4.96289186,4.22363069 5.0859375,3.78515852 5.0859375,3.33203125 C5.0859375,2.81640367 4.9414077,2.42089981 4.65234375,2.14550781 C4.3632798,1.87011581 3.94531523,1.73242188 3.3984375,1.73242188 C2.58983971,1.73242188 1.81836305,2.07616844 1.08398438,2.76367188 L1.08398438,1.59765625 C1.7988317,1.04687225 2.63085463,0.771484375 3.58007812,0.771484375 C4.39648846,0.771484375 5.04101326,0.992185293 5.51367188,1.43359375 C5.98633049,1.87500221 6.22265625,2.46874627 6.22265625,3.21484375 C6.22265625,3.77734656 6.07129058,4.32909886 5.76855469,4.87011719 C5.4658188,5.41113552 4.89258234,6.0996052 4.04882812,6.93554688 L1.98046875,8.95703125 L1.98046875,8.98046875 L6.140625,8.98046875 L6.140625,10 Z M7.5703125,5.640625 C7.5703125,4.03905449 7.83593484,2.82715255 8.3671875,2.00488281 C8.89844016,1.18261308 9.66796371,0.771484375 10.6757812,0.771484375 C12.5976659,0.771484375 13.5585938,2.32225012 13.5585938,5.42382812 C13.5585938,6.95508578 13.2880886,8.12597251 12.7470703,8.93652344 C12.206052,9.74707437 11.4472705,10.1523438 10.4707031,10.1523438 C9.54882352,10.1523438 8.83496347,9.76758197 8.32910156,8.99804688 C7.82323966,8.22851178 7.5703125,7.10938234 7.5703125,5.640625 Z M8.7421875,5.58789062 C8.7421875,7.99805893 9.35350951,9.203125 10.5761719,9.203125 C11.7793029,9.203125 12.3808594,7.97852787 12.3808594,5.52929688 C12.3808594,2.99412795 11.7910215,1.7265625 10.6113281,1.7265625 C9.36522814,1.7265625 8.7421875,3.013659 8.7421875,5.58789062 Z M20.3847656,10 L15.1816406,10 L15.1816406,9.00976562 L17.2148438,9.00976562 L17.2148438,2.11914062 L15.1289062,2.72265625 L15.1289062,1.66796875 L18.3574219,0.73046875 L18.3574219,9.00976562 L20.3847656,9.00976562 L20.3847656,10 Z M22.1953125,8.76953125 C22.695315,9.0585952 23.2343721,9.203125 23.8125,9.203125 C24.6250041,9.203125 25.2548806,8.8828157 25.7021484,8.2421875 C26.1494163,7.6015593 26.3730469,6.69141215 26.3730469,5.51171875 C26.3652343,5.51953129 26.3574219,5.51953129 26.3496094,5.51171875 C25.9511699,6.26953504 25.2812547,6.6484375 24.3398438,6.6484375 C23.5781212,6.6484375 22.9472681,6.38672137 22.4472656,5.86328125 C21.9472631,5.33984113 21.6972656,4.66016043 21.6972656,3.82421875 C21.6972656,2.9335893 21.9707004,2.2021513 22.5175781,1.62988281 C23.0644559,1.05761433 23.7734331,0.771484375 24.6445312,0.771484375 C25.5468795,0.771484375 26.2519506,1.12597302 26.7597656,1.83496094 C27.2675807,2.54394886 27.5214844,3.5761651 27.5214844,4.93164062 C27.5214844,6.60743025 27.1933627,7.89647986 26.5371094,8.79882812 C25.8808561,9.70117639 24.9726621,10.1523438 23.8125,10.1523438 C23.1757781,10.1523438 22.636721,10.0488292 22.1953125,9.84179688 L22.1953125,8.76953125 Z M22.8574219,3.67773438 C22.8574219,4.28711242 23.0136703,4.77050603 23.3261719,5.12792969 C23.6386734,5.48535335 24.0703097,5.6640625 24.6210938,5.6640625 C25.0976586,5.6640625 25.4980453,5.50097819 25.8222656,5.17480469 C26.146486,4.84863118 26.3085938,4.45312732 26.3085938,3.98828125 C26.3085938,3.33593424 26.1474625,2.79590058 25.8251953,2.36816406 C25.5029281,1.94042755 25.0781276,1.7265625 24.5507812,1.7265625 C24.0624976,1.7265625 23.6582047,1.91210752 23.3378906,2.28320312 C23.0175765,2.65429873 22.8574219,3.11913783 22.8574219,3.67773438 Z M32.5136719,6.84765625 L29.0625,6.84765625 L29.0625,5.96289062 L32.5136719,5.96289062 L32.5136719,6.84765625 Z M33.8730469,5.640625 C33.8730469,4.03905449 34.1386692,2.82715255 34.6699219,2.00488281 C35.2011745,1.18261308 35.9706981,0.771484375 36.9785156,0.771484375 C38.9004002,0.771484375 39.8613281,2.32225012 39.8613281,5.42382812 C39.8613281,6.95508578 39.590823,8.12597251 39.0498047,8.93652344 C38.5087864,9.74707437 37.7500049,10.1523438 36.7734375,10.1523438 C35.8515579,10.1523438 35.1376978,9.76758197 34.6318359,8.99804688 C34.125974,8.22851178 33.8730469,7.10938234 33.8730469,5.640625 Z M35.0449219,5.58789062 C35.0449219,7.99805893 35.6562439,9.203125 36.8789062,9.203125 C38.0820373,9.203125 38.6835938,7.97852787 38.6835938,5.52929688 C38.6835938,2.99412795 38.0937559,1.7265625 36.9140625,1.7265625 C35.6679625,1.7265625 35.0449219,3.013659 35.0449219,5.58789062 Z M41.2148438,8.48242188 C41.8359406,8.96289303 42.5371055,9.203125 43.3183594,9.203125 C43.9433625,9.203125 44.4384747,9.04980622 44.8037109,8.74316406 C45.1689471,8.4365219 45.3515625,8.0253932 45.3515625,7.50976562 C45.3515625,6.36132238 44.5293051,5.78710938 42.8847656,5.78710938 L42.1289062,5.78710938 L42.1289062,4.83789062 L42.8496094,4.83789062 C44.3066479,4.83789062 45.0351562,4.29883352 45.0351562,3.22070312 C45.0351562,2.22460439 44.4785212,1.7265625 43.3652344,1.7265625 C42.7285124,1.7265625 42.1289091,1.9414041 41.5664062,2.37109375 L41.5664062,1.28710938 C42.1601592,0.943357656 42.8535117,0.771484375 43.6464844,0.771484375 C44.4199257,0.771484375 45.0410133,0.973630791 45.5097656,1.37792969 C45.978518,1.78222858 46.2128906,2.3066374 46.2128906,2.95117188 C46.2128906,4.13867781 45.6074279,4.90234205 44.3964844,5.2421875 L44.3964844,5.265625 C45.0527377,5.33593785 45.5712872,5.56738085 45.9521484,5.95996094 C46.3330097,6.35254103 46.5234375,6.84179395 46.5234375,7.42773438 C46.5234375,8.24414471 46.2294951,8.90234125 45.6416016,9.40234375 C45.053708,9.90234625 44.2714893,10.1523438 43.2949219,10.1523438 C42.4355426,10.1523438 41.7421901,9.9921891 41.2148438,9.671875 L41.2148438,8.48242188 Z M51.7792969,6.84765625 L48.328125,6.84765625 L48.328125,5.96289062 L51.7792969,5.96289062 L51.7792969,6.84765625 Z M58.9160156,10 L53.7128906,10 L53.7128906,9.00976562 L55.7460938,9.00976562 L55.7460938,2.11914062 L53.6601562,2.72265625 L53.6601562,1.66796875 L56.8886719,0.73046875 L56.8886719,9.00976562 L58.9160156,9.00976562 L58.9160156,10 Z M65.953125,10 L60.75,10 L60.75,9.00976562 L62.7832031,9.00976562 L62.7832031,2.11914062 L60.6972656,2.72265625 L60.6972656,1.66796875 L63.9257812,0.73046875 L63.9257812,9.00976562 L65.953125,9.00976562 L65.953125,10 Z M76.5410156,10 L71.3378906,10 L71.3378906,9.00976562 L73.3710938,9.00976562 L73.3710938,2.11914062 L71.2851562,2.72265625 L71.2851562,1.66796875 L74.5136719,0.73046875 L74.5136719,9.00976562 L76.5410156,9.00976562 L76.5410156,10 Z M83.4082031,10 L77.8886719,10 L77.8886719,9.00390625 L80.5253906,6.37304688 C81.2519568,5.64648074 81.73828,5.07129118 81.984375,4.64746094 C82.23047,4.22363069 82.3535156,3.78515852 82.3535156,3.33203125 C82.3535156,2.81640367 82.2089858,2.42089981 81.9199219,2.14550781 C81.6308579,1.87011581 81.2128934,1.73242188 80.6660156,1.73242188 C79.8574178,1.73242188 79.0859412,2.07616844 78.3515625,2.76367188 L78.3515625,1.59765625 C79.0664098,1.04687225 79.8984328,0.771484375 80.8476562,0.771484375 C81.6640666,0.771484375 82.3085914,0.992185293 82.78125,1.43359375 C83.2539086,1.87500221 83.4902344,2.46874627 83.4902344,3.21484375 C83.4902344,3.77734656 83.3388687,4.32909886 83.0361328,4.87011719 C82.7333969,5.41113552 82.1601605,6.0996052 81.3164062,6.93554688 L79.2480469,8.95703125 L79.2480469,8.98046875 L83.4082031,8.98046875 L83.4082031,10 Z M85.0019531,4.12304688 C85.0019531,3.91210832 85.0761711,3.73632883 85.2246094,3.59570312 C85.3730476,3.45507742 85.5507802,3.38476562 85.7578125,3.38476562 C85.9687511,3.38476562 86.1484368,3.45605397 86.296875,3.59863281 C86.4453132,3.74121165 86.5195312,3.91601459 86.5195312,4.12304688 C86.5195312,4.33007916 86.4472663,4.50585865 86.3027344,4.65039062 C86.1582024,4.7949226 85.9746105,4.8671875 85.7519531,4.8671875 C85.5410146,4.8671875 85.363282,4.7949226 85.21875,4.65039062 C85.074218,4.50585865 85.0019531,4.33007916 85.0019531,4.12304688 Z M85.0019531,9.39648438 C85.0019531,9.18554582 85.074218,9.00781322 85.21875,8.86328125 C85.363282,8.71874928 85.5429677,8.64648438 85.7578125,8.64648438 C85.9765636,8.64648438 86.1582024,8.71972583 86.3027344,8.86621094 C86.4472663,9.01269604 86.5195312,9.18945209 86.5195312,9.39648438 C86.5195312,9.59961039 86.4472663,9.77441333 86.3027344,9.92089844 C86.1582024,10.0673835 85.9746105,10.140625 85.7519531,10.140625 C85.5371083,10.140625 85.3583992,10.0673835 85.2158203,9.92089844 C85.0732415,9.77441333 85.0019531,9.59961039 85.0019531,9.39648438 Z M93.3339844,10 L87.8144531,10 L87.8144531,9.00390625 L90.4511719,6.37304688 L90.8582825,5.95527225 C91.3626582,5.42245929 91.7132803,4.98652513 91.9101562,4.64746094 C92.1562512,4.22363069 92.2792969,3.78515852 92.2792969,3.33203125 C92.2792969,2.81640367 92.1347671,2.42089981 91.8457031,2.14550781 C91.5566392,1.87011581 91.1386746,1.73242188 90.5917969,1.73242188 C89.7831991,1.73242188 89.0117224,2.07616844 88.2773438,2.76367188 L88.2773438,1.59765625 C88.9921911,1.04687225 89.824214,0.771484375 90.7734375,0.771484375 C91.5898478,0.771484375 92.2343726,0.992185293 92.7070312,1.43359375 C93.1796899,1.87500221 93.4160156,2.46874627 93.4160156,3.21484375 C93.4160156,3.77734656 93.26465,4.32909886 92.9619141,4.87011719 C92.6591782,5.41113552 92.0859417,6.0996052 91.2421875,6.93554688 L89.1738281,8.95703125 L89.1738281,8.98046875 L93.3339844,8.98046875 L93.3339844,10 Z M95.0683594,8.48242188 C95.6894562,8.96289303 96.3906211,9.203125 97.171875,9.203125 C97.7968781,9.203125 98.2919904,9.04980622 98.6572266,8.74316406 C99.0224628,8.4365219 99.2050781,8.0253932 99.2050781,7.50976562 C99.2050781,6.36132238 98.3828207,5.78710938 96.7382812,5.78710938 L95.9824219,5.78710938 L95.9824219,4.83789062 L96.703125,4.83789062 C98.1601635,4.83789062 98.8886719,4.29883352 98.8886719,3.22070312 C98.8886719,2.22460439 98.3320368,1.7265625 97.21875,1.7265625 C96.5820281,1.7265625 95.9824247,1.9414041 95.4199219,2.37109375 L95.4199219,1.28710938 C96.0136748,0.943357656 96.7070273,0.771484375 97.5,0.771484375 C98.2734414,0.771484375 98.8945289,0.973630791 99.3632812,1.37792969 C99.8320336,1.78222858 100.066406,2.3066374 100.066406,2.95117188 C100.066406,4.13867781 99.4609436,4.90234205 98.25,5.2421875 L98.25,5.265625 C98.9062533,5.33593785 99.4248028,5.56738085 99.8056641,5.95996094 C100.186525,6.35254103 100.376953,6.84179395 100.376953,7.42773438 C100.376953,8.24414471 100.083011,8.90234125 99.4951172,9.40234375 C98.9072236,9.90234625 98.1250049,10.1523438 97.1484375,10.1523438 C96.2890582,10.1523438 95.5957058,9.9921891 95.0683594,9.671875 L95.0683594,8.48242188 Z M101.964844,4.12304688 C101.964844,3.91210832 102.039062,3.73632883 102.1875,3.59570312 C102.335938,3.45507742 102.513671,3.38476562 102.720703,3.38476562 C102.931642,3.38476562 103.111327,3.45605397 103.259766,3.59863281 C103.408204,3.74121165 103.482422,3.91601459 103.482422,4.12304688 C103.482422,4.33007916 103.410157,4.50585865 103.265625,4.65039062 C103.121093,4.7949226 102.937501,4.8671875 102.714844,4.8671875 C102.503905,4.8671875 102.326173,4.7949226 102.181641,4.65039062 C102.037109,4.50585865 101.964844,4.33007916 101.964844,4.12304688 Z M101.964844,9.39648438 C101.964844,9.18554582 102.037109,9.00781322 102.181641,8.86328125 C102.326173,8.71874928 102.505858,8.64648438 102.720703,8.64648438 C102.939454,8.64648438 103.121093,8.71972583 103.265625,8.86621094 C103.410157,9.01269604 103.482422,9.18945209 103.482422,9.39648438 C103.482422,9.59961039 103.410157,9.77441333 103.265625,9.92089844 C103.121093,10.0673835 102.937501,10.140625 102.714844,10.140625 C102.499999,10.140625 102.32129,10.0673835 102.178711,9.92089844 C102.036132,9.77441333 101.964844,9.59961039 101.964844,9.39648438 Z M110.765625,7.64453125 L109.605469,7.64453125 L109.605469,10 L108.492188,10 L108.492188,7.64453125 L104.261719,7.64453125 L104.261719,6.90039062 L108.275391,0.923828125 L109.605469,0.923828125 L109.605469,6.73632812 L110.765625,6.73632812 L110.765625,7.64453125 Z M105.445312,6.73632812 L108.492188,6.73632812 L108.492188,2.93359375 C108.492188,2.66406115 108.5,2.35351738 108.515625,2.00195312 L108.492188,2.00195312 C108.4375,2.15039137 108.322267,2.38281092 108.146484,2.69921875 L105.445312,6.73632812 Z M112.03125,8.48242188 C112.652347,8.96289303 113.353512,9.203125 114.134766,9.203125 C114.759769,9.203125 115.254881,9.04980622 115.620117,8.74316406 C115.985353,8.4365219 116.167969,8.0253932 116.167969,7.50976562 C116.167969,6.36132238 115.345711,5.78710938 113.701172,5.78710938 L112.945312,5.78710938 L112.945312,4.83789062 L113.666016,4.83789062 C115.123054,4.83789062 115.851562,4.29883352 115.851562,3.22070312 C115.851562,2.22460439 115.294927,1.7265625 114.181641,1.7265625 C113.544919,1.7265625 112.945315,1.9414041 112.382812,2.37109375 L112.382812,1.28710938 C112.976565,0.943357656 113.669918,0.771484375 114.462891,0.771484375 C115.236332,0.771484375 115.85742,0.973630791 116.326172,1.37792969 C116.794924,1.78222858 117.029297,2.3066374 117.029297,2.95117188 C117.029297,4.13867781 116.423834,4.90234205 115.212891,5.2421875 L115.212891,5.265625 C115.869144,5.33593785 116.387693,5.56738085 116.768555,5.95996094 C117.149416,6.35254103 117.339844,6.84179395 117.339844,7.42773438 C117.339844,8.24414471 117.045901,8.90234125 116.458008,9.40234375 C115.870114,9.90234625 115.087896,10.1523438 114.111328,10.1523438 C113.251949,10.1523438 112.558596,9.9921891 112.03125,9.671875 L112.03125,8.48242188 Z" id="2019-03-1112:23:43" fill="#333333" fill-rule="nonzero"></path>
                <g id="编组-2" transform="translate(266.000000, 1.000000)" stroke="#333333">
                    <rect id="矩形" x="0.5" y="1.5" width="9" height="8" rx="1"></rect>
                    <rect id="矩形" fill="#D8D8D8" x="3.5" y="0.5" width="1" height="2" rx="0.5"></rect>
                    <rect id="矩形" fill="#D8D8D8" x="6.5" y="0.5" width="1" height="2" rx="0.5"></rect>
                    <rect id="矩形" fill="#D8D8D8" x="0.5" y="4.5" width="9" height="1"></rect>
                    <rect id="矩形" fill="#D8D8D8" x="2.5" y="6.5" width="1" height="1" rx="0.5"></rect>
                    <rect id="矩形" fill="#D8D8D8" x="6.5" y="7.5" width="1" height="1" rx="0.5"></rect>
                </g>
            </g>
            <text id="样式三" font-family="MicrosoftYaHei, Microsoft YaHei" font-size="12" font-weight="normal" line-spacing="22" fill="#525A6E">
                <tspan x="8" y="36">样式三</tspan>
            </text>
        </g>
    </g>
</svg>