<?xml version="1.0" encoding="UTF-8"?>
<svg width="241px" height="68px" viewBox="0 0 241 68" version="1.1" xmlns="http://www.w3.org/2000/svg" xmlns:xlink="http://www.w3.org/1999/xlink">
    <!-- Generator: Sketch 58 (84663) - https://sketch.com -->
    <title>label-selection/style1</title>
    <desc>Created with Sketch.</desc>
    <g id="页面-1" stroke="none" stroke-width="1" fill="none" fill-rule="evenodd">
        <g id="label-selection/style1">
            <rect id="矩形备份-26" fill-opacity="0.01" fill="#FAFAFA" x="0" y="0" width="241" height="68"></rect>
            <path d="M52.5,21.9912443 L52.5,46.0087557 C52.5,46.8265218 53.1754932,47.5 54.0030127,47.5 L226.996987,47.5 C227.832296,47.5 228.5,46.8345206 228.5,46.0087557 L228.5,21.9912443 C228.5,21.1734782 227.824507,20.5 226.996987,20.5 L54.0030127,20.5 C53.1677039,20.5 52.5,21.1654794 52.5,21.9912443 Z" id="Rectangle-26-Copy-23备份-3" stroke="#D9D9D9" fill="#FFFFFF"></path>
            <g id="编组-2备份-7" transform="translate(213.000000, 29.000000)">
                <rect id="矩形" fill="#D8D8D8" opacity="0.01" x="0" y="0" width="10" height="10"></rect>
                <path d="M3.07437422,1.34394406 C3.3505166,1.34394406 3.57437422,1.56780169 3.57437422,1.84394406 L3.57437422,5.34394406 L7.07437422,5.34394406 C7.3505166,5.34394406 7.57437422,5.56780169 7.57437422,5.84394406 C7.57437422,6.12008644 7.3505166,6.34394406 7.07437422,6.34394406 L3.07437422,6.34394406 L3.07437422,6.34394406 C2.79823185,6.34394406 2.57437422,6.12008644 2.57437422,5.84394406 L2.57437422,1.84394406 C2.57437422,1.56780169 2.79823185,1.34394406 3.07437422,1.34394406 Z" id="矩形-2" fill="#666666" transform="translate(5.074374, 3.843944) rotate(-45.000000) translate(-5.074374, -3.843944) "></path>
            </g>
            <text id="样式一备份-3" font-family="MicrosoftYaHei, Microsoft YaHei" font-size="12" font-weight="normal" line-spacing="22" fill="#525A6E">
                <tspan x="8" y="35">样式一</tspan>
            </text>
            <g id="编组-21" transform="translate(58.000000, 24.000000)">
                <rect id="矩形" fill="#E8F0FD" x="0" y="0" width="54" height="20" rx="2"></rect>
                <g id="Group-46" transform="translate(40.000000, 5.000000)">
                    <rect id="Rectangle" fill="#D8D8D8" opacity="0.01" x="0" y="0" width="10" height="10"></rect>
                    <path d="M5.70710678,5 L8.53553391,7.82842712 C8.73079605,8.02368927 8.73079605,8.34027176 8.53553391,8.53553391 C8.34027176,8.73079605 8.02368927,8.73079605 7.82842712,8.53553391 L5,5.70710678 L2.17157288,8.53553391 C1.97631073,8.73079605 1.65972824,8.73079605 1.46446609,8.53553391 C1.26920395,8.34027176 1.26920395,8.02368927 1.46446609,7.82842712 L4.29289322,5 L1.46446609,2.17157288 C1.26920395,1.97631073 1.26920395,1.65972824 1.46446609,1.46446609 C1.65972824,1.26920395 1.97631073,1.26920395 2.17157288,1.46446609 L5,4.29289322 L7.82842712,1.46446609 C8.02368927,1.26920395 8.34027176,1.26920395 8.53553391,1.46446609 C8.73079605,1.65972824 8.73079605,1.97631073 8.53553391,2.17157288 L5.70710678,5 Z" id="Path" fill="#8B8B8B"></path>
                </g>
                <path d="M8.25585938,9.08007812 L12.1347656,9.08007812 L12.1347656,7.12304688 L10.1601562,7.12304688 C9.92578008,7.71679984 9.68164189,8.24804453 9.42773438,8.71679688 C9.22460836,8.58398371 8.95117359,8.44336012 8.60742188,8.29492188 C9.21679992,7.22460402 9.66992039,6.0371159 9.96679688,4.73242188 L10.8808594,4.93164062 C10.7441399,5.41992432 10.6015632,5.88085721 10.453125,6.31445312 L12.1347656,6.31445312 L12.1347656,4.27539062 L13.0488281,4.27539062 L13.0488281,6.31445312 L16.1074219,6.31445312 L16.1074219,7.12304688 L13.0488281,7.12304688 L13.0488281,9.08007812 L16.6699219,9.08007812 L16.6699219,9.88867188 L13.9042969,9.88867188 L13.9042969,12.3964844 C13.9042969,12.8105489 14.0761702,13.0175781 14.4199219,13.0175781 L14.9824219,13.0175781 C15.3417987,13.0175781 15.5488279,12.83008 15.6035156,12.4550781 L15.6379395,12.1972654 C15.6716309,11.9101566 15.7031249,11.5351586 15.7324219,11.0722656 C15.9746106,11.1816412 16.2714826,11.2949213 16.6230469,11.4121094 C16.5605466,11.9511746 16.494141,12.404295 16.4238281,12.7714844 C16.2988275,13.4668004 15.8535195,13.8144531 15.0878906,13.8144531 L14.2207031,13.8144531 C13.4081991,13.8144531 13.0019531,13.3730513 13.0019531,12.4902344 L13.0019531,9.88867188 L11.4257812,9.88867188 L11.4155274,10.3925783 C11.413086,10.4716796 11.4102784,10.5483396 11.4071045,10.6225583 L11.3964844,10.8378906 C11.3496091,12.2988354 10.5293048,13.3808559 8.93554688,14.0839844 C8.77929609,13.8574207 8.58398555,13.5957046 8.34960938,13.2988281 C9.72461625,12.7285128 10.4394529,11.9082085 10.4941406,10.8378906 L10.5201562,10.3274224 C10.5254687,10.1942976 10.5304687,10.0480477 10.5351562,9.88867188 L8.25585938,9.88867188 L8.25585938,9.08007812 Z M10.0136719,14.6113281 L12.4628906,14.6347656 L16.7753906,14.5527344 L16.6610156,14.8864844 C16.5982033,15.0655465 16.5269535,15.2628895 16.4472656,15.4785156 L12.3632812,15.5253906 L9.90820312,15.4902344 C8.50194609,15.4433591 7.52929957,14.9707076 6.99023438,14.0722656 C6.66992027,14.3691421 6.20117496,14.8925744 5.58398438,15.6425781 L5.10351562,14.6699219 L6.60351562,13.234375 L6.60351562,13.234375 L6.60351562,9.29101562 L5.20898438,9.29101562 L5.20898438,8.42382812 L7.50585938,8.42382812 L7.50585938,13.4335938 C7.98633053,14.2031288 8.82225967,14.595703 10.0136719,14.6113281 Z M5.81835938,4.99023438 L6.56835938,4.48632812 L6.80041044,4.77571394 C7.17056784,5.24756277 7.64008949,5.88937804 8.20898438,6.70117188 L7.37695312,7.28710938 L7.01085836,6.71898273 C6.540858,5.99773206 6.143361,5.42148653 5.81835938,4.99023438 Z M21.3222656,5.65820312 L21.3222656,4.84960938 L28.0136719,4.84960938 L28.0136719,5.63476562 C27.5097631,6.55273896 26.748052,7.35351221 25.7285156,8.03710938 C26.5918012,8.3925799 27.6191347,8.64648361 28.8105469,8.79882812 C28.6152334,9.15039238 28.4511725,9.45898305 28.3183594,9.72460938 C26.951165,9.45898305 25.7910204,9.07226816 24.8378906,8.56445312 C23.8496044,9.08398697 22.6777412,9.51757639 21.3222656,9.86523438 C21.2285152,9.59179551 21.095704,9.3027359 20.9238281,8.99804688 C22.0918027,8.72851428 23.1054645,8.40429877 23.9648438,8.02539062 C23.0624955,7.38085615 22.4082052,6.59180154 22.0019531,5.65820312 L21.3222656,5.65820312 Z M20.7246094,12.8769531 L24.3691406,12.8769531 L24.3691406,11.5175781 L21.4394531,11.5175781 L21.4394531,10.6738281 L24.3691406,10.6738281 L24.3691406,9.33789062 L25.2597656,9.33789062 L25.2597656,10.6738281 L28.2597656,10.6738281 L28.2597656,11.5175781 L25.2597656,11.5175781 L25.2597656,12.8769531 L28.8105469,12.8769531 L28.8105469,13.7207031 L25.2597656,13.7207031 L25.2597656,15.7246094 L24.3691406,15.7246094 L24.3691406,13.7207031 L20.7246094,13.7207031 L20.7246094,12.8769531 Z M17.2441406,11.5410156 L17.1269531,10.5800781 L18.2415359,10.3222658 C18.4229592,10.2792971 18.6022127,10.2363283 18.7792969,10.1933594 L18.7792969,7.40429688 L17.2324219,7.40429688 L17.2324219,6.58398438 L18.7792969,6.58398438 L18.7792969,4.29882812 L19.6582031,4.29882812 L19.6582031,6.58398438 L21.1582031,6.58398438 L21.1582031,7.40429688 L19.6582031,7.40429688 L19.6582031,9.97070312 C20.0839865,9.86132758 20.4941387,9.75195367 20.8886719,9.64257812 C20.904297,9.98632984 20.9316404,10.2753895 20.9707031,10.5097656 L20.0826827,10.7493488 C19.9390198,10.7888453 19.7975267,10.8281248 19.6582031,10.8671875 L19.6582031,14.3652344 C19.6582031,15.2324262 19.2636758,15.6660156 18.4746094,15.6660156 L17.7495127,15.6528321 C17.6352549,15.6499024 17.5097663,15.6464844 17.3730469,15.6425781 C17.3417967,15.322264 17.291016,15.0058609 17.2207031,14.6933594 L17.6334643,14.7454428 C17.8869362,14.7732206 18.0970044,14.7871094 18.2636719,14.7871094 C18.6074236,14.7871094 18.7792969,14.5800802 18.7792969,14.1660156 L18.7792969,11.1074219 L17.2441406,11.5410156 L17.2441406,11.5410156 Z M26.9707031,5.65820312 L22.8867188,5.65820312 C23.3085959,6.4433633 23.9570269,7.08984121 24.8320312,7.59765625 C25.8125049,7.04687225 26.5253884,6.40039434 26.9707031,5.65820312 Z M35.2734375,14.2421875 L30.0703125,14.2421875 L30.0703125,13.2519531 L32.1035156,13.2519531 L32.1035156,6.36132812 L30.0175781,6.96484375 L30.0175781,5.91015625 L33.2460938,4.97265625 L33.2460938,13.2519531 L35.2734375,13.2519531 L35.2734375,14.2421875 Z" id="选择1" fill="#525A6E" fill-rule="nonzero"></path>
            </g>
            <g id="编组-26" transform="translate(114.000000, 24.000000)">
                <rect id="矩形备份-24" fill="#E8F0FD" x="0" y="0" width="54" height="20" rx="2"></rect>
                <g id="Group-46备份" transform="translate(40.000000, 5.000000)">
                    <rect id="Rectangle" fill="#D8D8D8" opacity="0.01" x="0" y="0" width="10" height="10"></rect>
                    <path d="M5.70710678,5 L8.53553391,7.82842712 C8.73079605,8.02368927 8.73079605,8.34027176 8.53553391,8.53553391 C8.34027176,8.73079605 8.02368927,8.73079605 7.82842712,8.53553391 L5,5.70710678 L2.17157288,8.53553391 C1.97631073,8.73079605 1.65972824,8.73079605 1.46446609,8.53553391 C1.26920395,8.34027176 1.26920395,8.02368927 1.46446609,7.82842712 L4.29289322,5 L1.46446609,2.17157288 C1.26920395,1.97631073 1.26920395,1.65972824 1.46446609,1.46446609 C1.65972824,1.26920395 1.97631073,1.26920395 2.17157288,1.46446609 L5,4.29289322 L7.82842712,1.46446609 C8.02368927,1.26920395 8.34027176,1.26920395 8.53553391,1.46446609 C8.73079605,1.65972824 8.73079605,1.97631073 8.53553391,2.17157288 L5.70710678,5 Z" id="Path" fill="#8B8B8B"></path>
                </g>
                <path d="M8.25585938,9.08007812 L12.1347656,9.08007812 L12.1347656,7.12304688 L10.1601562,7.12304688 C9.92578008,7.71679984 9.68164189,8.24804453 9.42773438,8.71679688 C9.22460836,8.58398371 8.95117359,8.44336012 8.60742188,8.29492188 C9.21679992,7.22460402 9.66992039,6.0371159 9.96679688,4.73242188 L10.8808594,4.93164062 C10.7441399,5.41992432 10.6015632,5.88085721 10.453125,6.31445312 L12.1347656,6.31445312 L12.1347656,4.27539062 L13.0488281,4.27539062 L13.0488281,6.31445312 L16.1074219,6.31445312 L16.1074219,7.12304688 L13.0488281,7.12304688 L13.0488281,9.08007812 L16.6699219,9.08007812 L16.6699219,9.88867188 L13.9042969,9.88867188 L13.9042969,12.3964844 C13.9042969,12.8105489 14.0761702,13.0175781 14.4199219,13.0175781 L14.9824219,13.0175781 C15.3417987,13.0175781 15.5488279,12.83008 15.6035156,12.4550781 L15.6379395,12.1972654 C15.6716309,11.9101566 15.7031249,11.5351586 15.7324219,11.0722656 C15.9746106,11.1816412 16.2714826,11.2949213 16.6230469,11.4121094 C16.5605466,11.9511746 16.494141,12.404295 16.4238281,12.7714844 C16.2988275,13.4668004 15.8535195,13.8144531 15.0878906,13.8144531 L14.2207031,13.8144531 C13.4081991,13.8144531 13.0019531,13.3730513 13.0019531,12.4902344 L13.0019531,9.88867188 L11.4257812,9.88867188 L11.4155274,10.3925783 C11.413086,10.4716796 11.4102784,10.5483396 11.4071045,10.6225583 L11.3964844,10.8378906 C11.3496091,12.2988354 10.5293048,13.3808559 8.93554688,14.0839844 C8.77929609,13.8574207 8.58398555,13.5957046 8.34960938,13.2988281 C9.72461625,12.7285128 10.4394529,11.9082085 10.4941406,10.8378906 L10.5201562,10.3274224 C10.5254687,10.1942976 10.5304687,10.0480477 10.5351562,9.88867188 L8.25585938,9.88867188 L8.25585938,9.08007812 Z M10.0136719,14.6113281 L12.4628906,14.6347656 L16.7753906,14.5527344 L16.6610156,14.8864844 C16.5982033,15.0655465 16.5269535,15.2628895 16.4472656,15.4785156 L12.3632812,15.5253906 L9.90820312,15.4902344 C8.50194609,15.4433591 7.52929957,14.9707076 6.99023438,14.0722656 C6.66992027,14.3691421 6.20117496,14.8925744 5.58398438,15.6425781 L5.10351562,14.6699219 L6.60351562,13.234375 L6.60351562,13.234375 L6.60351562,9.29101562 L5.20898438,9.29101562 L5.20898438,8.42382812 L7.50585938,8.42382812 L7.50585938,13.4335938 C7.98633053,14.2031288 8.82225967,14.595703 10.0136719,14.6113281 Z M5.81835938,4.99023438 L6.56835938,4.48632812 L6.80041044,4.77571394 C7.17056784,5.24756277 7.64008949,5.88937804 8.20898438,6.70117188 L7.37695312,7.28710938 L7.01085836,6.71898273 C6.540858,5.99773206 6.143361,5.42148653 5.81835938,4.99023438 Z M21.3222656,5.65820312 L21.3222656,4.84960938 L28.0136719,4.84960938 L28.0136719,5.63476562 C27.5097631,6.55273896 26.748052,7.35351221 25.7285156,8.03710938 C26.5918012,8.3925799 27.6191347,8.64648361 28.8105469,8.79882812 C28.6152334,9.15039238 28.4511725,9.45898305 28.3183594,9.72460938 C26.951165,9.45898305 25.7910204,9.07226816 24.8378906,8.56445312 C23.8496044,9.08398697 22.6777412,9.51757639 21.3222656,9.86523438 C21.2285152,9.59179551 21.095704,9.3027359 20.9238281,8.99804688 C22.0918027,8.72851428 23.1054645,8.40429877 23.9648438,8.02539062 C23.0624955,7.38085615 22.4082052,6.59180154 22.0019531,5.65820312 L21.3222656,5.65820312 Z M20.7246094,12.8769531 L24.3691406,12.8769531 L24.3691406,11.5175781 L21.4394531,11.5175781 L21.4394531,10.6738281 L24.3691406,10.6738281 L24.3691406,9.33789062 L25.2597656,9.33789062 L25.2597656,10.6738281 L28.2597656,10.6738281 L28.2597656,11.5175781 L25.2597656,11.5175781 L25.2597656,12.8769531 L28.8105469,12.8769531 L28.8105469,13.7207031 L25.2597656,13.7207031 L25.2597656,15.7246094 L24.3691406,15.7246094 L24.3691406,13.7207031 L20.7246094,13.7207031 L20.7246094,12.8769531 Z M17.2441406,11.5410156 L17.1269531,10.5800781 L18.2415359,10.3222658 C18.4229592,10.2792971 18.6022127,10.2363283 18.7792969,10.1933594 L18.7792969,7.40429688 L17.2324219,7.40429688 L17.2324219,6.58398438 L18.7792969,6.58398438 L18.7792969,4.29882812 L19.6582031,4.29882812 L19.6582031,6.58398438 L21.1582031,6.58398438 L21.1582031,7.40429688 L19.6582031,7.40429688 L19.6582031,9.97070312 C20.0839865,9.86132758 20.4941387,9.75195367 20.8886719,9.64257812 C20.904297,9.98632984 20.9316404,10.2753895 20.9707031,10.5097656 L20.0826827,10.7493488 C19.9390198,10.7888453 19.7975267,10.8281248 19.6582031,10.8671875 L19.6582031,14.3652344 C19.6582031,15.2324262 19.2636758,15.6660156 18.4746094,15.6660156 L17.7495127,15.6528321 C17.6352549,15.6499024 17.5097663,15.6464844 17.3730469,15.6425781 C17.3417967,15.322264 17.291016,15.0058609 17.2207031,14.6933594 L17.6334643,14.7454428 C17.8869362,14.7732206 18.0970044,14.7871094 18.2636719,14.7871094 C18.6074236,14.7871094 18.7792969,14.5800802 18.7792969,14.1660156 L18.7792969,11.1074219 L17.2441406,11.5410156 L17.2441406,11.5410156 Z M26.9707031,5.65820312 L22.8867188,5.65820312 C23.3085959,6.4433633 23.9570269,7.08984121 24.8320312,7.59765625 C25.8125049,7.04687225 26.5253884,6.40039434 26.9707031,5.65820312 Z M35.1035156,14.2421875 L29.5839844,14.2421875 L29.5839844,13.2460938 L32.2207031,10.6152344 C32.9472693,9.88866824 33.4335925,9.31347868 33.6796875,8.88964844 C33.9257825,8.46581819 34.0488281,8.02734602 34.0488281,7.57421875 C34.0488281,7.05859117 33.9042983,6.66308731 33.6152344,6.38769531 C33.3261704,6.11230331 32.9082059,5.97460938 32.3613281,5.97460938 C31.5527303,5.97460938 30.7812537,6.31835594 30.046875,7.00585938 L30.046875,5.83984375 C30.7617223,5.28905975 31.5937453,5.01367188 32.5429688,5.01367188 C33.3593791,5.01367188 34.0039039,5.23437279 34.4765625,5.67578125 C34.9492211,6.11718971 35.1855469,6.71093377 35.1855469,7.45703125 C35.1855469,8.01953406 35.0341812,8.57128636 34.7314453,9.11230469 C34.4287094,9.65332302 33.855473,10.3417927 33.0117188,11.1777344 L30.9433594,13.1992188 L30.9433594,13.2226562 L35.1035156,13.2226562 L35.1035156,14.2421875 Z" id="选择2" fill="#525A6E" fill-rule="nonzero"></path>
            </g>
        </g>
    </g>
</svg>