<?xml version="1.0" encoding="UTF-8"?>
<svg width="494px" height="218px" viewBox="0 0 494 218" version="1.1" xmlns="http://www.w3.org/2000/svg" xmlns:xlink="http://www.w3.org/1999/xlink">
    <!-- Generator: Sketch 58 (84663) - https://sketch.com -->
    <title>list-double+operate/style1</title>
    <desc>Created with Sketch.</desc>
    <g id="页面-1" stroke="none" stroke-width="1" fill="none" fill-rule="evenodd">
        <g id="list-double+operate/style1">
            <g id="编组-20">
                <rect id="矩形备份" fill-opacity="0.01" fill="#FAFAFA" x="0" y="0" width="494" height="218"></rect>
                <g id="编组-2" transform="translate(52.000000, 18.000000)">
                    <text id="标题文案" font-family="MicrosoftYaHei, Microsoft YaHei" font-size="14" font-weight="normal" line-spacing="22" fill="#333333">
                        <tspan x="12" y="15">标题文案</tspan>
                    </text>
                    <path d="M14.1796875,50.3378906 L14.7539062,49.6816406 C15.3476592,50.1699243 15.8886694,50.6484352 16.3769531,51.1171875 C16.9003932,50.210933 17.2695302,49.2285209 17.484375,48.1699219 L14.8476562,48.1699219 C14.2343719,49.5761789 13.4804732,50.8417912 12.5859375,51.9667969 C12.4140616,51.5683574 12.2578132,51.2558605 12.1171875,51.0292969 C13.2968809,49.4433514 14.2050749,47.5879013 14.8417969,45.4628906 L12.5039062,45.4628906 L12.5039062,44.6191406 L19.078125,44.6191406 L19.078125,45.4628906 L15.8085938,45.4628906 C15.6249991,46.1074251 15.419923,46.7285126 15.1933594,47.3261719 L18.4453125,47.3261719 L18.4453125,48.1816406 C17.8046843,51.3847816 16.1211074,53.8574132 13.3945312,55.5996094 C13.1914052,55.3652332 12.9492202,55.1269543 12.6679688,54.8847656 C14.0039129,54.0214801 15.0742147,53.0234432 15.8789062,51.890625 C15.4335915,51.4531228 14.8671909,50.9355499 14.1796875,50.3378906 Z M22.1601562,44.1972656 L23.0976562,44.1972656 L23.0976562,53.8769531 C23.0976562,54.8691456 22.648442,55.3691406 21.75,55.3769531 L21.43287,55.3804254 C21.0271028,55.3824508 20.496097,55.3773872 19.8398438,55.3652344 C19.8007811,55.0058576 19.7382817,54.6542986 19.6523438,54.3105469 L20.3867201,54.3691408 C20.829428,54.4003908 21.1783841,54.4160156 21.4335938,54.4160156 C21.9179712,54.4160156 22.1601562,54.1542995 22.1601562,53.6308594 L22.1601562,44.1972656 Z M20.4726562,52.6699219 L19.5703125,52.6699219 L19.5703125,45.4980469 L20.4726562,45.4980469 L20.4726562,52.6699219 Z M34.3476562,50.4550781 L34.9921875,51.2636719 L32.3730469,52.5761719 C33.2910202,53.3261756 34.4413993,53.8222644 35.8242188,54.0644531 C35.5585924,54.4082048 35.3398446,54.7207017 35.1679688,55.0019531 C32.6484249,54.4003876 30.8418023,52.851575 29.7480469,50.3554688 C29.3496074,50.8632838 28.8945338,51.3457008 28.3828125,51.8027344 L28.3828125,54.3105469 C29.4140677,53.9746077 30.3710893,53.6230487 31.2539062,53.2558594 C31.2460937,53.5996111 31.2499999,53.9394531 31.265625,54.2753906 C30.3281203,54.5957047 29.35938,54.9472637 28.359375,55.3300781 C28.1484364,55.4160161 27.9414073,55.5175775 27.7382812,55.6347656 L27.1875,54.7792969 C27.4062511,54.6230461 27.515625,54.4042983 27.515625,54.1230469 L27.515625,52.5117188 C26.7070272,53.1171905 25.7890676,53.6660132 24.7617188,54.1582031 C24.5898429,53.8847643 24.3906261,53.6152357 24.1640625,53.3496094 C26.1836038,52.5214802 27.7695255,51.4121163 28.921875,50.0214844 L24.2929688,50.0214844 L24.2929688,49.2128906 L29.5429688,49.2128906 L29.5429688,48.0175781 L25.125,48.0175781 L25.125,47.2089844 L29.5429688,47.2089844 L29.5429688,46.0605469 L24.65625,46.0605469 L24.65625,45.2519531 L29.5429688,45.2519531 L29.5429688,43.9394531 L30.46875,43.9394531 L30.46875,45.2519531 L35.3789062,45.2519531 L35.3789062,46.0605469 L30.46875,46.0605469 L30.46875,47.2089844 L34.875,47.2089844 L34.875,48.0175781 L30.46875,48.0175781 L30.46875,49.2128906 L35.7070312,49.2128906 L35.7070312,50.0214844 L30.4980469,50.0214844 C30.8261735,50.7832069 31.2480443,51.4433566 31.7636719,52.0019531 C32.5488321,51.6113262 33.4101516,51.0957063 34.3476562,50.4550781 Z M36.3632812,46.0488281 L41.9882812,46.0488281 L41.6223952,45.3665352 C41.3975691,44.9568133 41.2109382,44.6373709 41.0625,44.4082031 L41.9648438,43.9863281 L42.2200521,44.392578 C42.414496,44.7102855 42.6575506,45.1217423 42.9492188,45.6269531 L42.1054688,46.0488281 L47.6132812,46.0488281 L47.6132812,46.9160156 L45.4511719,46.9160156 C45.033201,49.1464955 44.1347725,50.9394463 42.7558594,52.2949219 C43.7949271,53.0527382 45.4453012,53.7324189 47.7070312,54.3339844 C47.3476545,54.7402364 47.0742197,55.0800768 46.8867188,55.3535156 C44.6835827,54.5917931 43.0566459,53.794926 42.0058594,52.9628906 C40.9511666,53.7832072 39.2656366,54.6113239 36.9492188,55.4472656 L36.6210942,55.013672 C36.5039069,54.8613286 36.3789069,54.7011727 36.2460938,54.5332031 C38.4804799,53.8613248 40.1621037,53.1132854 41.2910156,52.2890625 C39.8652272,50.7656174 38.9589863,48.9746197 38.5722656,46.9160156 L36.3632812,46.9160156 L36.3632812,46.0488281 Z M44.4492188,46.9160156 L39.5097656,46.9160156 C39.8613299,48.8379002 40.7011652,50.425775 42.0292969,51.6796875 C43.2988345,50.4999941 44.105467,48.9121194 44.4492188,46.9160156 Z M48.7851562,50.5839844 L49.6246099,50.4824678 C51.1094497,50.2920322 52.2964198,50.0778257 53.1855469,49.8398438 C52.2480422,49.5898425 51.300786,49.3457043 50.34375,49.1074219 C50.6640641,48.7636702 50.96875,48.4238298 51.2578125,48.0878906 L48.46875,48.0878906 L48.46875,47.3144531 L51.890625,47.3144531 C52.1875015,46.9394512 52.4609363,46.5683612 52.7109375,46.2011719 L53.6601562,46.4707031 C53.4492177,46.7519545 53.2246106,47.0332017 52.9863281,47.3144531 L59.53125,47.3144531 L59.53125,48.0878906 L57.0117188,48.0878906 C56.6406231,48.7480502 56.138675,49.2832011 55.5058594,49.6933594 L56.8136729,50.0392971 C57.4511715,50.209453 58.0640596,50.3753898 58.6523438,50.5371094 L58.2773438,51.3222656 C57.0390563,50.9316387 55.7793033,50.5585955 54.4980469,50.203125 C53.3105409,50.6718773 51.5195432,51.0566391 49.125,51.3574219 C49.0312495,51.1074206 48.9179694,50.8496107 48.7851562,50.5839844 Z M59.8476562,54.3691406 C59.5820299,54.6816422 59.3554697,54.974608 59.1679688,55.2480469 C57.1054584,54.6308563 55.523443,53.8750045 54.421875,52.9804688 L54.421875,55.6230469 L53.578125,55.6230469 L53.578125,52.9980469 C52.3945253,53.8339886 50.8203223,54.5878873 48.8554688,55.2597656 C48.6757812,55.033202 48.4492201,54.7675796 48.1757812,54.4628906 C50.1914163,53.9589819 51.7871035,53.3378943 52.9628906,52.5996094 L48.4453125,52.5996094 L48.4453125,51.8144531 L53.578125,51.8144531 L53.578125,50.8535156 L54.421875,50.8535156 L54.421875,51.8144531 L59.625,51.8144531 L59.625,52.5996094 L55.0605469,52.5996094 C56.294928,53.4316448 57.8906152,54.0214826 59.8476562,54.3691406 Z M48.7851562,45.1230469 L53.6953125,45.1230469 C53.5468743,44.8535143 53.375001,44.5761733 53.1796875,44.2910156 L54.0117188,43.9160156 C54.2656263,44.3144551 54.5058582,44.7167948 54.7324219,45.1230469 L59.203125,45.1230469 L59.203125,46.8925781 L58.3125,46.8925781 L58.3125,45.8964844 L49.6757812,45.8964844 L49.6757812,46.8925781 L48.7851562,46.8925781 L48.7851562,45.1230469 Z M51.6796875,48.7324219 L53.7582996,49.2498776 C53.9819323,49.3062741 54.2031239,49.3623044 54.421875,49.4179688 C55.1093784,49.1132797 55.6464824,48.6699248 56.0332031,48.0878906 L52.3007812,48.0878906 C52.1015615,48.3027354 51.8945323,48.5175771 51.6796875,48.7324219 Z M62.1796875,50.3378906 L62.7539062,49.6816406 C63.3476592,50.1699243 63.8886694,50.6484352 64.3769531,51.1171875 C64.9003932,50.210933 65.2695302,49.2285209 65.484375,48.1699219 L62.8476562,48.1699219 C62.2343719,49.5761789 61.4804732,50.8417912 60.5859375,51.9667969 C60.4140616,51.5683574 60.2578132,51.2558605 60.1171875,51.0292969 C61.2968809,49.4433514 62.2050749,47.5879013 62.8417969,45.4628906 L60.5039062,45.4628906 L60.5039062,44.6191406 L67.078125,44.6191406 L67.078125,45.4628906 L63.8085938,45.4628906 C63.6249991,46.1074251 63.419923,46.7285126 63.1933594,47.3261719 L66.4453125,47.3261719 L66.4453125,48.1816406 C65.8046843,51.3847816 64.1211074,53.8574132 61.3945312,55.5996094 C61.1914052,55.3652332 60.9492202,55.1269543 60.6679688,54.8847656 C62.0039129,54.0214801 63.0742147,53.0234432 63.8789062,51.890625 C63.4335915,51.4531228 62.8671909,50.9355499 62.1796875,50.3378906 Z M70.1601562,44.1972656 L71.0976562,44.1972656 L71.0976562,53.8769531 C71.0976562,54.8691456 70.648442,55.3691406 69.75,55.3769531 L69.43287,55.3804254 C69.0271028,55.3824508 68.496097,55.3773872 67.8398438,55.3652344 C67.8007811,55.0058576 67.7382817,54.6542986 67.6523438,54.3105469 L68.3867201,54.3691408 C68.829428,54.4003908 69.1783841,54.4160156 69.4335938,54.4160156 C69.9179712,54.4160156 70.1601562,54.1542995 70.1601562,53.6308594 L70.1601562,44.1972656 Z M68.4726562,52.6699219 L67.5703125,52.6699219 L67.5703125,45.4980469 L68.4726562,45.4980469 L68.4726562,52.6699219 Z M82.3476562,50.4550781 L82.9921875,51.2636719 L80.3730469,52.5761719 C81.2910202,53.3261756 82.4413993,53.8222644 83.8242188,54.0644531 C83.5585924,54.4082048 83.3398446,54.7207017 83.1679688,55.0019531 C80.6484249,54.4003876 78.8418023,52.851575 77.7480469,50.3554688 C77.3496074,50.8632838 76.8945338,51.3457008 76.3828125,51.8027344 L76.3828125,54.3105469 C77.4140677,53.9746077 78.3710893,53.6230487 79.2539062,53.2558594 C79.2460937,53.5996111 79.2499999,53.9394531 79.265625,54.2753906 C78.3281203,54.5957047 77.35938,54.9472637 76.359375,55.3300781 C76.1484364,55.4160161 75.9414073,55.5175775 75.7382812,55.6347656 L75.1875,54.7792969 C75.4062511,54.6230461 75.515625,54.4042983 75.515625,54.1230469 L75.515625,52.5117188 C74.7070272,53.1171905 73.7890676,53.6660132 72.7617188,54.1582031 C72.5898429,53.8847643 72.3906261,53.6152357 72.1640625,53.3496094 C74.1836038,52.5214802 75.7695255,51.4121163 76.921875,50.0214844 L72.2929688,50.0214844 L72.2929688,49.2128906 L77.5429688,49.2128906 L77.5429688,48.0175781 L73.125,48.0175781 L73.125,47.2089844 L77.5429688,47.2089844 L77.5429688,46.0605469 L72.65625,46.0605469 L72.65625,45.2519531 L77.5429688,45.2519531 L77.5429688,43.9394531 L78.46875,43.9394531 L78.46875,45.2519531 L83.3789062,45.2519531 L83.3789062,46.0605469 L78.46875,46.0605469 L78.46875,47.2089844 L82.875,47.2089844 L82.875,48.0175781 L78.46875,48.0175781 L78.46875,49.2128906 L83.7070312,49.2128906 L83.7070312,50.0214844 L78.4980469,50.0214844 C78.8261735,50.7832069 79.2480443,51.4433566 79.7636719,52.0019531 C80.5488321,51.6113262 81.4101516,51.0957063 82.3476562,50.4550781 Z M84.3632812,46.0488281 L89.9882812,46.0488281 L89.6223952,45.3665352 C89.3975691,44.9568133 89.2109382,44.6373709 89.0625,44.4082031 L89.9648438,43.9863281 L90.2200521,44.392578 C90.414496,44.7102855 90.6575506,45.1217423 90.9492188,45.6269531 L90.1054688,46.0488281 L95.6132812,46.0488281 L95.6132812,46.9160156 L93.4511719,46.9160156 C93.033201,49.1464955 92.1347725,50.9394463 90.7558594,52.2949219 C91.7949271,53.0527382 93.4453012,53.7324189 95.7070312,54.3339844 C95.3476545,54.7402364 95.0742197,55.0800768 94.8867188,55.3535156 C92.6835827,54.5917931 91.0566459,53.794926 90.0058594,52.9628906 C88.9511666,53.7832072 87.2656366,54.6113239 84.9492188,55.4472656 L84.6210942,55.013672 C84.5039069,54.8613286 84.3789069,54.7011727 84.2460938,54.5332031 C86.4804799,53.8613248 88.1621037,53.1132854 89.2910156,52.2890625 C87.8652272,50.7656174 86.9589863,48.9746197 86.5722656,46.9160156 L84.3632812,46.9160156 L84.3632812,46.0488281 Z M92.4492188,46.9160156 L87.5097656,46.9160156 C87.8613299,48.8379002 88.7011652,50.425775 90.0292969,51.6796875 C91.2988345,50.4999941 92.105467,48.9121194 92.4492188,46.9160156 Z M107.847656,54.3691406 C107.58203,54.6816422 107.35547,54.974608 107.167969,55.2480469 C105.105458,54.6308563 103.523443,53.8750045 102.421875,52.9804688 L102.421875,55.6230469 L101.578125,55.6230469 L101.578125,52.9980469 C100.394525,53.8339886 98.8203223,54.5878873 96.8554688,55.2597656 C96.6757812,55.033202 96.4492201,54.7675796 96.1757812,54.4628906 C98.1914163,53.9589819 99.7871035,53.3378943 100.962891,52.5996094 L96.4453125,52.5996094 L96.4453125,51.8144531 L101.578125,51.8144531 L101.578125,50.8535156 L102.421875,50.8535156 L102.421875,51.8144531 L107.625,51.8144531 L107.625,52.5996094 L103.060547,52.5996094 C104.294928,53.4316448 105.890615,54.0214826 107.847656,54.3691406 Z M96.7851562,45.1230469 L101.695312,45.1230469 C101.546874,44.8535143 101.375001,44.5761733 101.179688,44.2910156 L102.011719,43.9160156 C102.265626,44.3144551 102.505858,44.7167948 102.732422,45.1230469 L107.203125,45.1230469 L107.203125,46.8925781 L106.3125,46.8925781 L106.3125,45.8964844 L97.6757812,45.8964844 L97.6757812,46.8925781 L96.7851562,46.8925781 L96.7851562,45.1230469 Z" id="列表文案列表文案" fill="#5A6677" fill-rule="nonzero"></path>
                    <path d="M100.710938,46.2011719 L101.660156,46.4707031 C101.449218,46.7519545 101.224611,47.0332017 100.986328,47.3144531 L107.53125,47.3144531 L107.53125,48.0878906 L105.011719,48.0878906 C104.640623,48.7480502 104.138675,49.2832011 103.505859,49.6933594 L104.813673,50.0392971 C105.451172,50.209453 106.06406,50.3753898 106.652344,50.5371094 L106.277344,51.3222656 C105.039056,50.9316387 103.779303,50.5585955 102.498047,50.203125 C101.310541,50.6718773 99.5195432,51.0566391 97.125,51.3574219 C97.0312495,51.1074206 96.9179694,50.8496107 96.7851562,50.5839844 L97.6246099,50.4824678 C99.1094497,50.2920322 100.29642,50.0778257 101.185547,49.8398438 C100.248042,49.5898425 99.300786,49.3457043 98.34375,49.1074219 C98.6640641,48.7636702 98.96875,48.4238298 99.2578125,48.0878906 L96.46875,48.0878906 L96.46875,47.3144531 L99.890625,47.3144531 C100.187501,46.9394512 100.460936,46.5683612 100.710938,46.2011719 Z M104.033203,48.0878906 L100.300781,48.0878906 C100.101562,48.3027354 99.8945323,48.5175771 99.6796875,48.7324219 C100.156252,48.84961 100.623048,48.9653323 101.080078,49.0795899 L101.080078,49.0795899 L102.421875,49.4179688 C103.109378,49.1132797 103.646482,48.6699248 104.033203,48.0878906 L104.033203,48.0878906 Z" id="形状结合" fill="#5A6677" fill-rule="nonzero"></path>
                    <path d="M16.21875,72.2988281 L23.2148438,72.2988281 L23.2148438,79.5175781 L22.3242188,79.5175781 L22.3242188,78.7910156 L17.109375,78.7910156 L17.109375,79.5175781 L16.21875,79.5175781 L16.21875,72.2988281 Z M12.1640625,74.2441406 C12.6328148,74.1035149 13.1328098,73.9414072 13.6640625,73.7578125 L13.6640625,71.0683594 L12.2695312,71.0683594 L12.2695312,70.2714844 L13.6640625,70.2714844 L13.6640625,68.0917969 L14.5546875,68.0917969 L14.5546875,70.2714844 L15.75,70.2714844 L15.75,71.0683594 L14.5546875,71.0683594 L14.5546875,73.4472656 L15.304687,73.1712241 C15.432291,73.1234812 15.5611973,73.07487 15.6914062,73.0253906 L15.7148438,73.9511719 L15.7148438,73.9511719 L14.5546875,74.3789062 L14.5546875,74.3789062 L14.5546875,78.2167969 C14.5546875,79.0136759 14.175785,79.4199218 13.4179688,79.4355469 L13.0392188,79.4411719 C12.8292193,79.4421094 12.5882826,79.4402344 12.3164062,79.4355469 C12.269531,79.1074202 12.2187503,78.7832047 12.1640625,78.4628906 C12.5937521,78.5097659 12.9414049,78.5332031 13.2070312,78.5332031 C13.5117203,78.5332031 13.6640625,78.3730485 13.6640625,78.0527344 L13.6640625,74.7070312 L12.2929688,75.2285156 L12.2929688,75.2285156 L12.1640625,74.2441406 Z M20.8125,68.0800781 L21.6679688,68.0800781 L21.6679688,69.5566406 L23.8125,69.5566406 L23.8125,70.3769531 L21.6679688,70.3769531 L21.6679688,71.8183594 L20.8125,71.8183594 L20.8125,70.3769531 L18.609375,70.3769531 L18.609375,71.8183594 L17.7539062,71.8183594 L17.7539062,70.3769531 L15.890625,70.3769531 L15.890625,69.5566406 L17.7539062,69.5566406 L17.7539062,68.0917969 L18.609375,68.0917969 L18.609375,69.5566406 L20.8125,69.5566406 L20.8125,68.0800781 Z M20.1445312,78.0175781 L22.3242188,78.0175781 L22.3242188,75.9199219 L20.1445312,75.9199219 L20.1445312,78.0175781 Z M17.109375,78.0175781 L19.2773438,78.0175781 L19.2773438,75.9199219 L17.109375,75.9199219 L17.109375,78.0175781 Z M22.3242188,73.0957031 L20.1445312,73.0957031 L20.1445312,75.1699219 L22.3242188,75.1699219 L22.3242188,73.0957031 Z M17.109375,75.1699219 L19.2773438,75.1699219 L19.2773438,73.0957031 L17.109375,73.0957031 L17.109375,75.1699219 Z M27.6679688,70.6230469 L30.9140625,70.6230469 L30.9140625,68.0800781 L31.828125,68.0800781 L31.828125,70.6230469 L35.34375,70.6230469 L35.34375,71.4667969 L31.828125,71.4667969 L31.828125,73.0019531 L32.2265625,72.5449219 C33.4140684,73.4980516 34.5859317,74.4941354 35.7421875,75.5332031 L35.0625,76.2949219 C34.1015577,75.3339796 33.0234435,74.341802 31.828125,73.3183594 L31.828125,77.9238281 L30.9140625,77.9238281 L30.9140625,72.6269531 C30.0390581,74.1425857 28.9882874,75.4941347 27.7617188,76.6816406 C27.5429677,76.4628895 27.2929702,76.2402355 27.0117188,76.0136719 C28.4882886,74.6699152 29.7031202,73.1543053 30.65625,71.4667969 L27.6679688,71.4667969 L27.6679688,70.6230469 Z M29.0742188,78.4511719 L30.1664082,78.468047 C31.7101572,78.4817971 33.603895,78.4605472 35.8476562,78.4042969 L35.4609375,79.3066406 L35.4609375,79.3066406 L33.84823,79.3258332 C31.9501503,79.3420562 30.3197613,79.3317524 28.9570312,79.2949219 C27.605462,79.2714843 26.6328155,78.8261762 26.0390625,77.9589844 C25.8124989,78.1386728 25.3554722,78.6386678 24.6679688,79.4589844 L24.1640625,78.4628906 L24.8557085,77.8516018 C25.1401467,77.6028778 25.3939721,77.3847666 25.6171875,77.1972656 L25.6171875,73.0957031 L24.28125,73.0957031 L24.28125,72.2402344 L26.53125,72.2402344 L26.53125,77.3613281 C27.1015654,78.0488316 27.9492131,78.4121092 29.0742188,78.4511719 Z M25.3710938,68.1738281 C25.8945339,68.7832062 26.4765593,69.5175738 27.1171875,70.3769531 L26.3085938,70.9863281 C25.7851536,70.1816366 25.2304717,69.4199255 24.6445312,68.7011719 L25.3710938,68.1738281 Z M32.6015625,68.8769531 L33.140625,68.2207031 L33.8114078,68.6689463 C34.2806263,68.988868 34.6273426,69.2417959 34.8515625,69.4277344 L34.2539062,70.1777344 C33.8164041,69.7871074 33.2656283,69.353518 32.6015625,68.8769531 Z M36.3632812,70.0488281 L41.9882812,70.0488281 L41.6223952,69.3665352 C41.3975691,68.9568133 41.2109382,68.6373709 41.0625,68.4082031 L41.9648438,67.9863281 L42.2200521,68.392578 C42.414496,68.7102855 42.6575506,69.1217423 42.9492188,69.6269531 L42.1054688,70.0488281 L47.6132812,70.0488281 L47.6132812,70.9160156 L45.4511719,70.9160156 C45.033201,73.1464955 44.1347725,74.9394463 42.7558594,76.2949219 C43.7949271,77.0527382 45.4453012,77.7324189 47.7070312,78.3339844 C47.3476545,78.7402364 47.0742197,79.0800768 46.8867188,79.3535156 C44.6835827,78.5917931 43.0566459,77.794926 42.0058594,76.9628906 C40.9511666,77.7832072 39.2656366,78.6113239 36.9492188,79.4472656 L36.6210942,79.013672 C36.5039069,78.8613286 36.3789069,78.7011727 36.2460938,78.5332031 C38.4804799,77.8613248 40.1621037,77.1132854 41.2910156,76.2890625 C39.8652272,74.7656174 38.9589863,72.9746197 38.5722656,70.9160156 L36.3632812,70.9160156 L36.3632812,70.0488281 Z M44.4492188,70.9160156 L39.5097656,70.9160156 C39.8613299,72.8379002 40.7011652,74.425775 42.0292969,75.6796875 C43.2988345,74.4999941 44.105467,72.9121194 44.4492188,70.9160156 Z M48.7851562,74.5839844 L49.6246099,74.4824678 C51.1094497,74.2920322 52.2964198,74.0778257 53.1855469,73.8398438 C52.2480422,73.5898425 51.300786,73.3457043 50.34375,73.1074219 C50.6640641,72.7636702 50.96875,72.4238298 51.2578125,72.0878906 L48.46875,72.0878906 L48.46875,71.3144531 L51.890625,71.3144531 C52.1875015,70.9394513 52.4609363,70.5683612 52.7109375,70.2011719 L53.6601562,70.4707031 C53.4492177,70.7519545 53.2246106,71.0332017 52.9863281,71.3144531 L59.53125,71.3144531 L59.53125,72.0878906 L57.0117188,72.0878906 C56.6406231,72.7480502 56.138675,73.2832011 55.5058594,73.6933594 L56.8136729,74.0392971 C57.4511715,74.209453 58.0640596,74.3753898 58.6523438,74.5371094 L58.2773438,75.3222656 C57.0390563,74.9316387 55.7793033,74.5585955 54.4980469,74.203125 C53.3105409,74.6718773 51.5195432,75.0566391 49.125,75.3574219 C49.0312495,75.1074206 48.9179694,74.8496107 48.7851562,74.5839844 Z M59.8476562,78.3691406 C59.5820299,78.6816422 59.3554697,78.974608 59.1679688,79.2480469 C57.1054584,78.6308563 55.523443,77.8750045 54.421875,76.9804688 L54.421875,79.6230469 L53.578125,79.6230469 L53.578125,76.9980469 C52.3945253,77.8339886 50.8203223,78.5878873 48.8554688,79.2597656 C48.6757812,79.033202 48.4492201,78.7675796 48.1757812,78.4628906 C50.1914163,77.9589819 51.7871035,77.3378943 52.9628906,76.5996094 L48.4453125,76.5996094 L48.4453125,75.8144531 L53.578125,75.8144531 L53.578125,74.8535156 L54.421875,74.8535156 L54.421875,75.8144531 L59.625,75.8144531 L59.625,76.5996094 L55.0605469,76.5996094 C56.294928,77.4316448 57.8906152,78.0214826 59.8476562,78.3691406 Z M48.7851562,69.1230469 L53.6953125,69.1230469 C53.5468743,68.8535143 53.375001,68.5761733 53.1796875,68.2910156 L54.0117188,67.9160156 C54.2656263,68.3144551 54.5058582,68.7167948 54.7324219,69.1230469 L59.203125,69.1230469 L59.203125,70.8925781 L58.3125,70.8925781 L58.3125,69.8964844 L49.6757812,69.8964844 L49.6757812,70.8925781 L48.7851562,70.8925781 L48.7851562,69.1230469 Z M51.6796875,72.7324219 L53.7582996,73.2498776 C53.9819323,73.3062741 54.2031239,73.3623044 54.421875,73.4179688 C55.1093784,73.1132797 55.6464824,72.6699248 56.0332031,72.0878906 L52.3007812,72.0878906 C52.1015615,72.3027354 51.8945323,72.5175771 51.6796875,72.7324219 Z M64.21875,72.2988281 L71.2148438,72.2988281 L71.2148438,79.5175781 L70.3242188,79.5175781 L70.3242188,78.7910156 L65.109375,78.7910156 L65.109375,79.5175781 L64.21875,79.5175781 L64.21875,72.2988281 Z M60.1640625,74.2441406 C60.6328148,74.1035149 61.1328098,73.9414072 61.6640625,73.7578125 L61.6640625,71.0683594 L60.2695312,71.0683594 L60.2695312,70.2714844 L61.6640625,70.2714844 L61.6640625,68.0917969 L62.5546875,68.0917969 L62.5546875,70.2714844 L63.75,70.2714844 L63.75,71.0683594 L62.5546875,71.0683594 L62.5546875,73.4472656 L63.304687,73.1712241 C63.432291,73.1234812 63.5611973,73.07487 63.6914062,73.0253906 L63.7148438,73.9511719 L63.7148438,73.9511719 L62.5546875,74.3789062 L62.5546875,74.3789062 L62.5546875,78.2167969 C62.5546875,79.0136759 62.175785,79.4199218 61.4179688,79.4355469 L61.0392188,79.4411719 C60.8292193,79.4421094 60.5882826,79.4402344 60.3164062,79.4355469 C60.269531,79.1074202 60.2187503,78.7832047 60.1640625,78.4628906 C60.5937521,78.5097659 60.9414049,78.5332031 61.2070312,78.5332031 C61.5117203,78.5332031 61.6640625,78.3730485 61.6640625,78.0527344 L61.6640625,74.7070312 L60.2929688,75.2285156 L60.2929688,75.2285156 L60.1640625,74.2441406 Z M68.8125,68.0800781 L69.6679688,68.0800781 L69.6679688,69.5566406 L71.8125,69.5566406 L71.8125,70.3769531 L69.6679688,70.3769531 L69.6679688,71.8183594 L68.8125,71.8183594 L68.8125,70.3769531 L66.609375,70.3769531 L66.609375,71.8183594 L65.7539062,71.8183594 L65.7539062,70.3769531 L63.890625,70.3769531 L63.890625,69.5566406 L65.7539062,69.5566406 L65.7539062,68.0917969 L66.609375,68.0917969 L66.609375,69.5566406 L68.8125,69.5566406 L68.8125,68.0800781 Z M68.1445312,78.0175781 L70.3242188,78.0175781 L70.3242188,75.9199219 L68.1445312,75.9199219 L68.1445312,78.0175781 Z M65.109375,78.0175781 L67.2773438,78.0175781 L67.2773438,75.9199219 L65.109375,75.9199219 L65.109375,78.0175781 Z M70.3242188,73.0957031 L68.1445312,73.0957031 L68.1445312,75.1699219 L70.3242188,75.1699219 L70.3242188,73.0957031 Z M65.109375,75.1699219 L67.2773438,75.1699219 L67.2773438,73.0957031 L65.109375,73.0957031 L65.109375,75.1699219 Z M75.6679688,70.6230469 L78.9140625,70.6230469 L78.9140625,68.0800781 L79.828125,68.0800781 L79.828125,70.6230469 L83.34375,70.6230469 L83.34375,71.4667969 L79.828125,71.4667969 L79.828125,73.0019531 L80.2265625,72.5449219 C81.4140684,73.4980516 82.5859317,74.4941354 83.7421875,75.5332031 L83.0625,76.2949219 C82.1015577,75.3339796 81.0234435,74.341802 79.828125,73.3183594 L79.828125,77.9238281 L78.9140625,77.9238281 L78.9140625,72.6269531 C78.0390581,74.1425857 76.9882874,75.4941347 75.7617188,76.6816406 C75.5429677,76.4628895 75.2929702,76.2402355 75.0117188,76.0136719 C76.4882886,74.6699152 77.7031202,73.1543053 78.65625,71.4667969 L75.6679688,71.4667969 L75.6679688,70.6230469 Z M77.0742188,78.4511719 L78.1664082,78.468047 C79.7101572,78.4817971 81.603895,78.4605472 83.8476562,78.4042969 L83.4609375,79.3066406 L83.4609375,79.3066406 L81.84823,79.3258332 C79.9501503,79.3420562 78.3197613,79.3317524 76.9570312,79.2949219 C75.605462,79.2714843 74.6328155,78.8261762 74.0390625,77.9589844 C73.8124989,78.1386728 73.3554722,78.6386678 72.6679688,79.4589844 L72.1640625,78.4628906 L72.8557085,77.8516018 C73.1401467,77.6028778 73.3939721,77.3847666 73.6171875,77.1972656 L73.6171875,73.0957031 L72.28125,73.0957031 L72.28125,72.2402344 L74.53125,72.2402344 L74.53125,77.3613281 C75.1015654,78.0488316 75.9492131,78.4121092 77.0742188,78.4511719 Z M73.3710938,68.1738281 C73.8945339,68.7832062 74.4765593,69.5175738 75.1171875,70.3769531 L74.3085938,70.9863281 C73.7851536,70.1816366 73.2304717,69.4199255 72.6445312,68.7011719 L73.3710938,68.1738281 Z M80.6015625,68.8769531 L81.140625,68.2207031 L81.8114078,68.6689463 C82.2806263,68.988868 82.6273426,69.2417959 82.8515625,69.4277344 L82.2539062,70.1777344 C81.8164041,69.7871074 81.2656283,69.353518 80.6015625,68.8769531 Z M84.3632812,70.0488281 L89.9882812,70.0488281 L89.6223952,69.3665352 C89.3975691,68.9568133 89.2109382,68.6373709 89.0625,68.4082031 L89.9648438,67.9863281 L90.2200521,68.392578 C90.414496,68.7102855 90.6575506,69.1217423 90.9492188,69.6269531 L90.1054688,70.0488281 L95.6132812,70.0488281 L95.6132812,70.9160156 L93.4511719,70.9160156 C93.033201,73.1464955 92.1347725,74.9394463 90.7558594,76.2949219 C91.7949271,77.0527382 93.4453012,77.7324189 95.7070312,78.3339844 C95.3476545,78.7402364 95.0742197,79.0800768 94.8867188,79.3535156 C92.6835827,78.5917931 91.0566459,77.794926 90.0058594,76.9628906 C88.9511666,77.7832072 87.2656366,78.6113239 84.9492188,79.4472656 L84.6210942,79.013672 C84.5039069,78.8613286 84.3789069,78.7011727 84.2460938,78.5332031 C86.4804799,77.8613248 88.1621037,77.1132854 89.2910156,76.2890625 C87.8652272,74.7656174 86.9589863,72.9746197 86.5722656,70.9160156 L84.3632812,70.9160156 L84.3632812,70.0488281 Z M92.4492188,70.9160156 L87.5097656,70.9160156 C87.8613299,72.8379002 88.7011652,74.425775 90.0292969,75.6796875 C91.2988345,74.4999941 92.105467,72.9121194 92.4492188,70.9160156 Z M96.7851562,74.5839844 L97.6246099,74.4824678 C99.1094497,74.2920322 100.29642,74.0778257 101.185547,73.8398438 C100.248042,73.5898425 99.300786,73.3457043 98.34375,73.1074219 C98.6640641,72.7636702 98.96875,72.4238298 99.2578125,72.0878906 L96.46875,72.0878906 L96.46875,71.3144531 L99.890625,71.3144531 C100.187501,70.9394513 100.460936,70.5683612 100.710938,70.2011719 L101.660156,70.4707031 C101.449218,70.7519545 101.224611,71.0332017 100.986328,71.3144531 L107.53125,71.3144531 L107.53125,72.0878906 L105.011719,72.0878906 C104.640623,72.7480502 104.138675,73.2832011 103.505859,73.6933594 L104.813673,74.0392971 C105.451172,74.209453 106.06406,74.3753898 106.652344,74.5371094 L106.277344,75.3222656 C105.039056,74.9316387 103.779303,74.5585955 102.498047,74.203125 C101.310541,74.6718773 99.5195432,75.0566391 97.125,75.3574219 C97.0312495,75.1074206 96.9179694,74.8496107 96.7851562,74.5839844 Z M107.847656,78.3691406 C107.58203,78.6816422 107.35547,78.974608 107.167969,79.2480469 C105.105458,78.6308563 103.523443,77.8750045 102.421875,76.9804688 L102.421875,79.6230469 L101.578125,79.6230469 L101.578125,76.9980469 C100.394525,77.8339886 98.8203223,78.5878873 96.8554688,79.2597656 C96.6757812,79.033202 96.4492201,78.7675796 96.1757812,78.4628906 C98.1914163,77.9589819 99.7871035,77.3378943 100.962891,76.5996094 L96.4453125,76.5996094 L96.4453125,75.8144531 L101.578125,75.8144531 L101.578125,74.8535156 L102.421875,74.8535156 L102.421875,75.8144531 L107.625,75.8144531 L107.625,76.5996094 L103.060547,76.5996094 C104.294928,77.4316448 105.890615,78.0214826 107.847656,78.3691406 Z M96.7851562,69.1230469 L101.695312,69.1230469 C101.546874,68.8535143 101.375001,68.5761733 101.179688,68.2910156 L102.011719,67.9160156 C102.265626,68.3144551 102.505858,68.7167948 102.732422,69.1230469 L107.203125,69.1230469 L107.203125,70.8925781 L106.3125,70.8925781 L106.3125,69.8964844 L97.6757812,69.8964844 L97.6757812,70.8925781 L96.7851562,70.8925781 L96.7851562,69.1230469 Z M99.6796875,72.7324219 L101.7583,73.2498776 C101.981932,73.3062741 102.203124,73.3623044 102.421875,73.4179688 C103.109378,73.1132797 103.646482,72.6699248 104.033203,72.0878906 L100.300781,72.0878906 C100.101562,72.3027354 99.8945323,72.5175771 99.6796875,72.7324219 Z M112.21875,72.2988281 L119.214844,72.2988281 L119.214844,79.5175781 L118.324219,79.5175781 L118.324219,78.7910156 L113.109375,78.7910156 L113.109375,79.5175781 L112.21875,79.5175781 L112.21875,72.2988281 Z M108.164062,74.2441406 C108.632815,74.1035149 109.13281,73.9414072 109.664062,73.7578125 L109.664062,71.0683594 L108.269531,71.0683594 L108.269531,70.2714844 L109.664062,70.2714844 L109.664062,68.0917969 L110.554688,68.0917969 L110.554688,70.2714844 L111.75,70.2714844 L111.75,71.0683594 L110.554688,71.0683594 L110.554688,73.4472656 L111.304687,73.1712241 C111.432291,73.1234812 111.561197,73.07487 111.691406,73.0253906 L111.714844,73.9511719 L111.714844,73.9511719 L110.554688,74.3789062 L110.554688,74.3789062 L110.554688,78.2167969 C110.554688,79.0136759 110.175785,79.4199218 109.417969,79.4355469 L109.039219,79.4411719 C108.829219,79.4421094 108.588283,79.4402344 108.316406,79.4355469 C108.269531,79.1074202 108.21875,78.7832047 108.164062,78.4628906 C108.593752,78.5097659 108.941405,78.5332031 109.207031,78.5332031 C109.51172,78.5332031 109.664062,78.3730485 109.664062,78.0527344 L109.664062,74.7070312 L108.292969,75.2285156 L108.292969,75.2285156 L108.164062,74.2441406 Z M116.8125,68.0800781 L117.667969,68.0800781 L117.667969,69.5566406 L119.8125,69.5566406 L119.8125,70.3769531 L117.667969,70.3769531 L117.667969,71.8183594 L116.8125,71.8183594 L116.8125,70.3769531 L114.609375,70.3769531 L114.609375,71.8183594 L113.753906,71.8183594 L113.753906,70.3769531 L111.890625,70.3769531 L111.890625,69.5566406 L113.753906,69.5566406 L113.753906,68.0917969 L114.609375,68.0917969 L114.609375,69.5566406 L116.8125,69.5566406 L116.8125,68.0800781 Z M116.144531,78.0175781 L118.324219,78.0175781 L118.324219,75.9199219 L116.144531,75.9199219 L116.144531,78.0175781 Z M113.109375,78.0175781 L115.277344,78.0175781 L115.277344,75.9199219 L113.109375,75.9199219 L113.109375,78.0175781 Z M118.324219,73.0957031 L116.144531,73.0957031 L116.144531,75.1699219 L118.324219,75.1699219 L118.324219,73.0957031 Z M113.109375,75.1699219 L115.277344,75.1699219 L115.277344,73.0957031 L113.109375,73.0957031 L113.109375,75.1699219 Z M123.667969,70.6230469 L126.914062,70.6230469 L126.914062,68.0800781 L127.828125,68.0800781 L127.828125,70.6230469 L131.34375,70.6230469 L131.34375,71.4667969 L127.828125,71.4667969 L127.828125,73.0019531 L128.226562,72.5449219 C129.414068,73.4980516 130.585932,74.4941354 131.742188,75.5332031 L131.0625,76.2949219 C130.101558,75.3339796 129.023443,74.341802 127.828125,73.3183594 L127.828125,77.9238281 L126.914062,77.9238281 L126.914062,72.6269531 C126.039058,74.1425857 124.988287,75.4941347 123.761719,76.6816406 C123.542968,76.4628895 123.29297,76.2402355 123.011719,76.0136719 C124.488289,74.6699152 125.70312,73.1543053 126.65625,71.4667969 L123.667969,71.4667969 L123.667969,70.6230469 Z M125.074219,78.4511719 L126.166408,78.468047 C127.710157,78.4817971 129.603895,78.4605472 131.847656,78.4042969 L131.460938,79.3066406 L131.460938,79.3066406 L129.84823,79.3258332 C127.95015,79.3420562 126.319761,79.3317524 124.957031,79.2949219 C123.605462,79.2714843 122.632815,78.8261762 122.039062,77.9589844 C121.812499,78.1386728 121.355472,78.6386678 120.667969,79.4589844 L120.164062,78.4628906 L120.855709,77.8516018 C121.140147,77.6028778 121.393972,77.3847666 121.617188,77.1972656 L121.617188,73.0957031 L120.28125,73.0957031 L120.28125,72.2402344 L122.53125,72.2402344 L122.53125,77.3613281 C123.101565,78.0488316 123.949213,78.4121092 125.074219,78.4511719 Z M121.371094,68.1738281 C121.894534,68.7832062 122.476559,69.5175738 123.117188,70.3769531 L122.308594,70.9863281 C121.785154,70.1816366 121.230472,69.4199255 120.644531,68.7011719 L121.371094,68.1738281 Z M128.601562,68.8769531 L129.140625,68.2207031 L129.811408,68.6689463 C130.280626,68.988868 130.627343,69.2417959 130.851562,69.4277344 L130.253906,70.1777344 C129.816404,69.7871074 129.265628,69.353518 128.601562,68.8769531 Z M132.363281,70.0488281 L137.988281,70.0488281 L137.622395,69.3665352 C137.397569,68.9568133 137.210938,68.6373709 137.0625,68.4082031 L137.964844,67.9863281 L138.220052,68.392578 C138.414496,68.7102855 138.657551,69.1217423 138.949219,69.6269531 L138.105469,70.0488281 L143.613281,70.0488281 L143.613281,70.9160156 L141.451172,70.9160156 C141.033201,73.1464955 140.134773,74.9394463 138.755859,76.2949219 C139.794927,77.0527382 141.445301,77.7324189 143.707031,78.3339844 C143.347654,78.7402364 143.07422,79.0800768 142.886719,79.3535156 C140.683583,78.5917931 139.056646,77.794926 138.005859,76.9628906 C136.951167,77.7832072 135.265637,78.6113239 132.949219,79.4472656 L132.621094,79.013672 C132.503907,78.8613286 132.378907,78.7011727 132.246094,78.5332031 C134.48048,77.8613248 136.162104,77.1132854 137.291016,76.2890625 C135.865227,74.7656174 134.958986,72.9746197 134.572266,70.9160156 L132.363281,70.9160156 L132.363281,70.0488281 Z M140.449219,70.9160156 L135.509766,70.9160156 C135.86133,72.8379002 136.701165,74.425775 138.029297,75.6796875 C139.298834,74.4999941 140.105467,72.9121194 140.449219,70.9160156 Z M144.785156,74.5839844 L145.62461,74.4824678 C147.10945,74.2920322 148.29642,74.0778257 149.185547,73.8398438 C148.248042,73.5898425 147.300786,73.3457043 146.34375,73.1074219 C146.664064,72.7636702 146.96875,72.4238298 147.257812,72.0878906 L144.46875,72.0878906 L144.46875,71.3144531 L147.890625,71.3144531 C148.187501,70.9394513 148.460936,70.5683612 148.710938,70.2011719 L149.660156,70.4707031 C149.449218,70.7519545 149.224611,71.0332017 148.986328,71.3144531 L155.53125,71.3144531 L155.53125,72.0878906 L153.011719,72.0878906 C152.640623,72.7480502 152.138675,73.2832011 151.505859,73.6933594 L152.813673,74.0392971 C153.451172,74.209453 154.06406,74.3753898 154.652344,74.5371094 L154.277344,75.3222656 C153.039056,74.9316387 151.779303,74.5585955 150.498047,74.203125 C149.310541,74.6718773 147.519543,75.0566391 145.125,75.3574219 C145.03125,75.1074206 144.917969,74.8496107 144.785156,74.5839844 Z M155.847656,78.3691406 C155.58203,78.6816422 155.35547,78.974608 155.167969,79.2480469 C153.105458,78.6308563 151.523443,77.8750045 150.421875,76.9804688 L150.421875,79.6230469 L149.578125,79.6230469 L149.578125,76.9980469 C148.394525,77.8339886 146.820322,78.5878873 144.855469,79.2597656 C144.675781,79.033202 144.44922,78.7675796 144.175781,78.4628906 C146.191416,77.9589819 147.787103,77.3378943 148.962891,76.5996094 L144.445312,76.5996094 L144.445312,75.8144531 L149.578125,75.8144531 L149.578125,74.8535156 L150.421875,74.8535156 L150.421875,75.8144531 L155.625,75.8144531 L155.625,76.5996094 L151.060547,76.5996094 C152.294928,77.4316448 153.890615,78.0214826 155.847656,78.3691406 Z M144.785156,69.1230469 L149.695312,69.1230469 C149.546874,68.8535143 149.375001,68.5761733 149.179688,68.2910156 L150.011719,67.9160156 C150.265626,68.3144551 150.505858,68.7167948 150.732422,69.1230469 L155.203125,69.1230469 L155.203125,70.8925781 L154.3125,70.8925781 L154.3125,69.8964844 L145.675781,69.8964844 L145.675781,70.8925781 L144.785156,70.8925781 L144.785156,69.1230469 Z M147.679688,72.7324219 L149.7583,73.2498776 C149.981932,73.3062741 150.203124,73.3623044 150.421875,73.4179688 C151.109378,73.1132797 151.646482,72.6699248 152.033203,72.0878906 L148.300781,72.0878906 C148.101562,72.3027354 147.894532,72.5175771 147.679688,72.7324219 Z M156.697266,77.3964844 C156.697266,77.1855458 156.769531,77.0078132 156.914062,76.8632812 C157.058594,76.7187493 157.23828,76.6464844 157.453125,76.6464844 C157.671876,76.6464844 157.853515,76.7197258 157.998047,76.8662109 C158.142579,77.012696 158.214844,77.1894521 158.214844,77.3964844 C158.214844,77.5996104 158.142579,77.7744133 157.998047,77.9208984 C157.853515,78.0673835 157.669923,78.140625 157.447266,78.140625 C157.232421,78.140625 157.053712,78.0673835 156.911133,77.9208984 C156.768554,77.7744133 156.697266,77.5996104 156.697266,77.3964844 Z M159.585938,77.3964844 C159.585938,77.1855458 159.658202,77.0078132 159.802734,76.8632812 C159.947266,76.7187493 160.126952,76.6464844 160.341797,76.6464844 C160.560548,76.6464844 160.742187,76.7197258 160.886719,76.8662109 C161.031251,77.012696 161.103516,77.1894521 161.103516,77.3964844 C161.103516,77.5996104 161.031251,77.7744133 160.886719,77.9208984 C160.742187,78.0673835 160.558595,78.140625 160.335938,78.140625 C160.121093,78.140625 159.942384,78.0673835 159.799805,77.9208984 C159.657226,77.7744133 159.585938,77.5996104 159.585938,77.3964844 Z M162.474609,77.3964844 C162.474609,77.1855458 162.546874,77.0078132 162.691406,76.8632812 C162.835938,76.7187493 163.015624,76.6464844 163.230469,76.6464844 C163.44922,76.6464844 163.630859,76.7197258 163.775391,76.8662109 C163.919923,77.012696 163.992188,77.1894521 163.992188,77.3964844 C163.992188,77.5996104 163.919923,77.7744133 163.775391,77.9208984 C163.630859,78.0673835 163.447267,78.140625 163.224609,78.140625 C163.009765,78.140625 162.831055,78.0673835 162.688477,77.9208984 C162.545898,77.7744133 162.474609,77.5996104 162.474609,77.3964844 Z" id="描述文案描述文案描述文案..." fill="#9B9B9B" fill-rule="nonzero"></path>
                    <rect id="Rectangle" fill="#F1F1F1" x="0" y="91" width="410" height="1"></rect>
                    <path d="M14.1796875,111.337891 L14.7539062,110.681641 C15.3476592,111.169924 15.8886694,111.648435 16.3769531,112.117188 C16.9003932,111.210933 17.2695302,110.228521 17.484375,109.169922 L14.8476562,109.169922 C14.2343719,110.576179 13.4804732,111.841791 12.5859375,112.966797 C12.4140616,112.568357 12.2578132,112.255861 12.1171875,112.029297 C13.2968809,110.443351 14.2050749,108.587901 14.8417969,106.462891 L12.5039062,106.462891 L12.5039062,105.619141 L19.078125,105.619141 L19.078125,106.462891 L15.8085938,106.462891 C15.6249991,107.107425 15.419923,107.728513 15.1933594,108.326172 L18.4453125,108.326172 L18.4453125,109.181641 C17.8046843,112.384782 16.1211074,114.857413 13.3945312,116.599609 C13.1914052,116.365233 12.9492202,116.126954 12.6679688,115.884766 C14.0039129,115.02148 15.0742147,114.023443 15.8789062,112.890625 C15.4335915,112.453123 14.8671909,111.93555 14.1796875,111.337891 Z M22.1601562,105.197266 L23.0976562,105.197266 L23.0976562,114.876953 C23.0976562,115.869146 22.648442,116.369141 21.75,116.376953 L21.43287,116.380425 C21.0271028,116.382451 20.496097,116.377387 19.8398438,116.365234 C19.8007811,116.005858 19.7382817,115.654299 19.6523438,115.310547 L20.3867201,115.369141 C20.829428,115.400391 21.1783841,115.416016 21.4335938,115.416016 C21.9179712,115.416016 22.1601562,115.154299 22.1601562,114.630859 L22.1601562,105.197266 Z M20.4726562,113.669922 L19.5703125,113.669922 L19.5703125,106.498047 L20.4726562,106.498047 L20.4726562,113.669922 Z M34.3476562,111.455078 L34.9921875,112.263672 L32.3730469,113.576172 C33.2910202,114.326176 34.4413993,114.822264 35.8242188,115.064453 C35.5585924,115.408205 35.3398446,115.720702 35.1679688,116.001953 C32.6484249,115.400388 30.8418023,113.851575 29.7480469,111.355469 C29.3496074,111.863284 28.8945338,112.345701 28.3828125,112.802734 L28.3828125,115.310547 C29.4140677,114.974608 30.3710893,114.623049 31.2539062,114.255859 C31.2460937,114.599611 31.2499999,114.939453 31.265625,115.275391 C30.3281203,115.595705 29.35938,115.947264 28.359375,116.330078 C28.1484364,116.416016 27.9414073,116.517578 27.7382812,116.634766 L27.1875,115.779297 C27.4062511,115.623046 27.515625,115.404298 27.515625,115.123047 L27.515625,113.511719 C26.7070272,114.117191 25.7890676,114.666013 24.7617188,115.158203 C24.5898429,114.884764 24.3906261,114.615236 24.1640625,114.349609 C26.1836038,113.52148 27.7695255,112.412116 28.921875,111.021484 L24.2929688,111.021484 L24.2929688,110.212891 L29.5429688,110.212891 L29.5429688,109.017578 L25.125,109.017578 L25.125,108.208984 L29.5429688,108.208984 L29.5429688,107.060547 L24.65625,107.060547 L24.65625,106.251953 L29.5429688,106.251953 L29.5429688,104.939453 L30.46875,104.939453 L30.46875,106.251953 L35.3789062,106.251953 L35.3789062,107.060547 L30.46875,107.060547 L30.46875,108.208984 L34.875,108.208984 L34.875,109.017578 L30.46875,109.017578 L30.46875,110.212891 L35.7070312,110.212891 L35.7070312,111.021484 L30.4980469,111.021484 C30.8261735,111.783207 31.2480443,112.443357 31.7636719,113.001953 C32.5488321,112.611326 33.4101516,112.095706 34.3476562,111.455078 Z M36.3632812,107.048828 L41.9882812,107.048828 L41.6223952,106.366535 C41.3975691,105.956813 41.2109382,105.637371 41.0625,105.408203 L41.9648438,104.986328 L42.2200521,105.392578 C42.414496,105.710286 42.6575506,106.121742 42.9492188,106.626953 L42.1054688,107.048828 L47.6132812,107.048828 L47.6132812,107.916016 L45.4511719,107.916016 C45.033201,110.146496 44.1347725,111.939446 42.7558594,113.294922 C43.7949271,114.052738 45.4453012,114.732419 47.7070312,115.333984 C47.3476545,115.740236 47.0742197,116.080077 46.8867188,116.353516 C44.6835827,115.591793 43.0566459,114.794926 42.0058594,113.962891 C40.9511666,114.783207 39.2656366,115.611324 36.9492188,116.447266 L36.6210942,116.013672 C36.5039069,115.861329 36.3789069,115.701173 36.2460938,115.533203 C38.4804799,114.861325 40.1621037,114.113285 41.2910156,113.289062 C39.8652272,111.765617 38.9589863,109.97462 38.5722656,107.916016 L36.3632812,107.916016 L36.3632812,107.048828 Z M44.4492188,107.916016 L39.5097656,107.916016 C39.8613299,109.8379 40.7011652,111.425775 42.0292969,112.679688 C43.2988345,111.499994 44.105467,109.912119 44.4492188,107.916016 Z M48.7851562,111.583984 L49.6246099,111.482468 C51.1094497,111.292032 52.2964198,111.077826 53.1855469,110.839844 C52.2480422,110.589843 51.300786,110.345704 50.34375,110.107422 C50.6640641,109.76367 50.96875,109.42383 51.2578125,109.087891 L48.46875,109.087891 L48.46875,108.314453 L51.890625,108.314453 C52.1875015,107.939451 52.4609363,107.568361 52.7109375,107.201172 L53.6601562,107.470703 C53.4492177,107.751955 53.2246106,108.033202 52.9863281,108.314453 L59.53125,108.314453 L59.53125,109.087891 L57.0117188,109.087891 C56.6406231,109.74805 56.138675,110.283201 55.5058594,110.693359 L56.8136729,111.039297 C57.4511715,111.209453 58.0640596,111.37539 58.6523438,111.537109 L58.2773438,112.322266 C57.0390563,111.931639 55.7793033,111.558596 54.4980469,111.203125 C53.3105409,111.671877 51.5195432,112.056639 49.125,112.357422 C49.0312495,112.107421 48.9179694,111.849611 48.7851562,111.583984 Z M59.8476562,115.369141 C59.5820299,115.681642 59.3554697,115.974608 59.1679688,116.248047 C57.1054584,115.630856 55.523443,114.875004 54.421875,113.980469 L54.421875,116.623047 L53.578125,116.623047 L53.578125,113.998047 C52.3945253,114.833989 50.8203223,115.587887 48.8554688,116.259766 C48.6757812,116.033202 48.4492201,115.76758 48.1757812,115.462891 C50.1914163,114.958982 51.7871035,114.337894 52.9628906,113.599609 L48.4453125,113.599609 L48.4453125,112.814453 L53.578125,112.814453 L53.578125,111.853516 L54.421875,111.853516 L54.421875,112.814453 L59.625,112.814453 L59.625,113.599609 L55.0605469,113.599609 C56.294928,114.431645 57.8906152,115.021483 59.8476562,115.369141 Z M48.7851562,106.123047 L53.6953125,106.123047 C53.5468743,105.853514 53.375001,105.576173 53.1796875,105.291016 L54.0117188,104.916016 C54.2656263,105.314455 54.5058582,105.716795 54.7324219,106.123047 L59.203125,106.123047 L59.203125,107.892578 L58.3125,107.892578 L58.3125,106.896484 L49.6757812,106.896484 L49.6757812,107.892578 L48.7851562,107.892578 L48.7851562,106.123047 Z M51.6796875,109.732422 L53.7582996,110.249878 C53.9819323,110.306274 54.2031239,110.362304 54.421875,110.417969 C55.1093784,110.11328 55.6464824,109.669925 56.0332031,109.087891 L52.3007812,109.087891 C52.1015615,109.302735 51.8945323,109.517577 51.6796875,109.732422 Z M62.1796875,111.337891 L62.7539062,110.681641 C63.3476592,111.169924 63.8886694,111.648435 64.3769531,112.117188 C64.9003932,111.210933 65.2695302,110.228521 65.484375,109.169922 L62.8476562,109.169922 C62.2343719,110.576179 61.4804732,111.841791 60.5859375,112.966797 C60.4140616,112.568357 60.2578132,112.255861 60.1171875,112.029297 C61.2968809,110.443351 62.2050749,108.587901 62.8417969,106.462891 L60.5039062,106.462891 L60.5039062,105.619141 L67.078125,105.619141 L67.078125,106.462891 L63.8085938,106.462891 C63.6249991,107.107425 63.419923,107.728513 63.1933594,108.326172 L66.4453125,108.326172 L66.4453125,109.181641 C65.8046843,112.384782 64.1211074,114.857413 61.3945312,116.599609 C61.1914052,116.365233 60.9492202,116.126954 60.6679688,115.884766 C62.0039129,115.02148 63.0742147,114.023443 63.8789062,112.890625 C63.4335915,112.453123 62.8671909,111.93555 62.1796875,111.337891 Z M70.1601562,105.197266 L71.0976562,105.197266 L71.0976562,114.876953 C71.0976562,115.869146 70.648442,116.369141 69.75,116.376953 L69.43287,116.380425 C69.0271028,116.382451 68.496097,116.377387 67.8398438,116.365234 C67.8007811,116.005858 67.7382817,115.654299 67.6523438,115.310547 L68.3867201,115.369141 C68.829428,115.400391 69.1783841,115.416016 69.4335938,115.416016 C69.9179712,115.416016 70.1601562,115.154299 70.1601562,114.630859 L70.1601562,105.197266 Z M68.4726562,113.669922 L67.5703125,113.669922 L67.5703125,106.498047 L68.4726562,106.498047 L68.4726562,113.669922 Z M82.3476562,111.455078 L82.9921875,112.263672 L80.3730469,113.576172 C81.2910202,114.326176 82.4413993,114.822264 83.8242188,115.064453 C83.5585924,115.408205 83.3398446,115.720702 83.1679688,116.001953 C80.6484249,115.400388 78.8418023,113.851575 77.7480469,111.355469 C77.3496074,111.863284 76.8945338,112.345701 76.3828125,112.802734 L76.3828125,115.310547 C77.4140677,114.974608 78.3710893,114.623049 79.2539062,114.255859 C79.2460937,114.599611 79.2499999,114.939453 79.265625,115.275391 C78.3281203,115.595705 77.35938,115.947264 76.359375,116.330078 C76.1484364,116.416016 75.9414073,116.517578 75.7382812,116.634766 L75.1875,115.779297 C75.4062511,115.623046 75.515625,115.404298 75.515625,115.123047 L75.515625,113.511719 C74.7070272,114.117191 73.7890676,114.666013 72.7617188,115.158203 C72.5898429,114.884764 72.3906261,114.615236 72.1640625,114.349609 C74.1836038,113.52148 75.7695255,112.412116 76.921875,111.021484 L72.2929688,111.021484 L72.2929688,110.212891 L77.5429688,110.212891 L77.5429688,109.017578 L73.125,109.017578 L73.125,108.208984 L77.5429688,108.208984 L77.5429688,107.060547 L72.65625,107.060547 L72.65625,106.251953 L77.5429688,106.251953 L77.5429688,104.939453 L78.46875,104.939453 L78.46875,106.251953 L83.3789062,106.251953 L83.3789062,107.060547 L78.46875,107.060547 L78.46875,108.208984 L82.875,108.208984 L82.875,109.017578 L78.46875,109.017578 L78.46875,110.212891 L83.7070312,110.212891 L83.7070312,111.021484 L78.4980469,111.021484 C78.8261735,111.783207 79.2480443,112.443357 79.7636719,113.001953 C80.5488321,112.611326 81.4101516,112.095706 82.3476562,111.455078 Z M84.3632812,107.048828 L89.9882812,107.048828 L89.6223952,106.366535 C89.3975691,105.956813 89.2109382,105.637371 89.0625,105.408203 L89.9648438,104.986328 L90.2200521,105.392578 C90.414496,105.710286 90.6575506,106.121742 90.9492188,106.626953 L90.1054688,107.048828 L95.6132812,107.048828 L95.6132812,107.916016 L93.4511719,107.916016 C93.033201,110.146496 92.1347725,111.939446 90.7558594,113.294922 C91.7949271,114.052738 93.4453012,114.732419 95.7070312,115.333984 C95.3476545,115.740236 95.0742197,116.080077 94.8867188,116.353516 C92.6835827,115.591793 91.0566459,114.794926 90.0058594,113.962891 C88.9511666,114.783207 87.2656366,115.611324 84.9492188,116.447266 L84.6210942,116.013672 C84.5039069,115.861329 84.3789069,115.701173 84.2460938,115.533203 C86.4804799,114.861325 88.1621037,114.113285 89.2910156,113.289062 C87.8652272,111.765617 86.9589863,109.97462 86.5722656,107.916016 L84.3632812,107.916016 L84.3632812,107.048828 Z M92.4492188,107.916016 L87.5097656,107.916016 C87.8613299,109.8379 88.7011652,111.425775 90.0292969,112.679688 C91.2988345,111.499994 92.105467,109.912119 92.4492188,107.916016 Z M107.847656,115.369141 C107.58203,115.681642 107.35547,115.974608 107.167969,116.248047 C105.105458,115.630856 103.523443,114.875004 102.421875,113.980469 L102.421875,116.623047 L101.578125,116.623047 L101.578125,113.998047 C100.394525,114.833989 98.8203223,115.587887 96.8554688,116.259766 C96.6757812,116.033202 96.4492201,115.76758 96.1757812,115.462891 C98.1914163,114.958982 99.7871035,114.337894 100.962891,113.599609 L96.4453125,113.599609 L96.4453125,112.814453 L101.578125,112.814453 L101.578125,111.853516 L102.421875,111.853516 L102.421875,112.814453 L107.625,112.814453 L107.625,113.599609 L103.060547,113.599609 C104.294928,114.431645 105.890615,115.021483 107.847656,115.369141 Z M96.7851562,106.123047 L101.695312,106.123047 C101.546874,105.853514 101.375001,105.576173 101.179688,105.291016 L102.011719,104.916016 C102.265626,105.314455 102.505858,105.716795 102.732422,106.123047 L107.203125,106.123047 L107.203125,107.892578 L106.3125,107.892578 L106.3125,106.896484 L97.6757812,106.896484 L97.6757812,107.892578 L96.7851562,107.892578 L96.7851562,106.123047 Z" id="列表文案列表文案" fill="#5A6677" fill-rule="nonzero"></path>
                    <path d="M100.710938,107.201172 L101.660156,107.470703 C101.449218,107.751955 101.224611,108.033202 100.986328,108.314453 L107.53125,108.314453 L107.53125,109.087891 L105.011719,109.087891 C104.640623,109.74805 104.138675,110.283201 103.505859,110.693359 L104.813673,111.039297 C105.451172,111.209453 106.06406,111.37539 106.652344,111.537109 L106.277344,112.322266 C105.039056,111.931639 103.779303,111.558596 102.498047,111.203125 C101.310541,111.671877 99.5195432,112.056639 97.125,112.357422 C97.0312495,112.107421 96.9179694,111.849611 96.7851562,111.583984 L97.6246099,111.482468 C99.1094497,111.292032 100.29642,111.077826 101.185547,110.839844 C100.248042,110.589843 99.300786,110.345704 98.34375,110.107422 C98.6640641,109.76367 98.96875,109.42383 99.2578125,109.087891 L96.46875,109.087891 L96.46875,108.314453 L99.890625,108.314453 C100.187501,107.939451 100.460936,107.568361 100.710938,107.201172 Z M104.033203,109.087891 L100.300781,109.087891 C100.101562,109.302735 99.8945323,109.517577 99.6796875,109.732422 C100.156252,109.84961 100.623048,109.965332 101.080078,110.07959 L101.080078,110.07959 L102.421875,110.417969 C103.109378,110.11328 103.646482,109.669925 104.033203,109.087891 L104.033203,109.087891 Z" id="形状结合" fill="#5A6677" fill-rule="nonzero"></path>
                    <path d="M16.21875,133.298828 L23.2148438,133.298828 L23.2148438,140.517578 L22.3242188,140.517578 L22.3242188,139.791016 L17.109375,139.791016 L17.109375,140.517578 L16.21875,140.517578 L16.21875,133.298828 Z M12.1640625,135.244141 C12.6328148,135.103515 13.1328098,134.941407 13.6640625,134.757812 L13.6640625,132.068359 L12.2695312,132.068359 L12.2695312,131.271484 L13.6640625,131.271484 L13.6640625,129.091797 L14.5546875,129.091797 L14.5546875,131.271484 L15.75,131.271484 L15.75,132.068359 L14.5546875,132.068359 L14.5546875,134.447266 L15.304687,134.171224 C15.432291,134.123481 15.5611973,134.07487 15.6914062,134.025391 L15.7148438,134.951172 L15.7148438,134.951172 L14.5546875,135.378906 L14.5546875,135.378906 L14.5546875,139.216797 C14.5546875,140.013676 14.175785,140.419922 13.4179688,140.435547 L13.0392188,140.441172 C12.8292193,140.442109 12.5882826,140.440234 12.3164062,140.435547 C12.269531,140.10742 12.2187503,139.783205 12.1640625,139.462891 C12.5937521,139.509766 12.9414049,139.533203 13.2070312,139.533203 C13.5117203,139.533203 13.6640625,139.373048 13.6640625,139.052734 L13.6640625,135.707031 L12.2929688,136.228516 L12.2929688,136.228516 L12.1640625,135.244141 Z M20.8125,129.080078 L21.6679688,129.080078 L21.6679688,130.556641 L23.8125,130.556641 L23.8125,131.376953 L21.6679688,131.376953 L21.6679688,132.818359 L20.8125,132.818359 L20.8125,131.376953 L18.609375,131.376953 L18.609375,132.818359 L17.7539062,132.818359 L17.7539062,131.376953 L15.890625,131.376953 L15.890625,130.556641 L17.7539062,130.556641 L17.7539062,129.091797 L18.609375,129.091797 L18.609375,130.556641 L20.8125,130.556641 L20.8125,129.080078 Z M20.1445312,139.017578 L22.3242188,139.017578 L22.3242188,136.919922 L20.1445312,136.919922 L20.1445312,139.017578 Z M17.109375,139.017578 L19.2773438,139.017578 L19.2773438,136.919922 L17.109375,136.919922 L17.109375,139.017578 Z M22.3242188,134.095703 L20.1445312,134.095703 L20.1445312,136.169922 L22.3242188,136.169922 L22.3242188,134.095703 Z M17.109375,136.169922 L19.2773438,136.169922 L19.2773438,134.095703 L17.109375,134.095703 L17.109375,136.169922 Z M27.6679688,131.623047 L30.9140625,131.623047 L30.9140625,129.080078 L31.828125,129.080078 L31.828125,131.623047 L35.34375,131.623047 L35.34375,132.466797 L31.828125,132.466797 L31.828125,134.001953 L32.2265625,133.544922 C33.4140684,134.498052 34.5859317,135.494135 35.7421875,136.533203 L35.0625,137.294922 C34.1015577,136.33398 33.0234435,135.341802 31.828125,134.318359 L31.828125,138.923828 L30.9140625,138.923828 L30.9140625,133.626953 C30.0390581,135.142586 28.9882874,136.494135 27.7617188,137.681641 C27.5429677,137.46289 27.2929702,137.240236 27.0117188,137.013672 C28.4882886,135.669915 29.7031202,134.154305 30.65625,132.466797 L27.6679688,132.466797 L27.6679688,131.623047 Z M29.0742188,139.451172 L30.1664082,139.468047 C31.7101572,139.481797 33.603895,139.460547 35.8476562,139.404297 L35.4609375,140.306641 L35.4609375,140.306641 L33.84823,140.325833 C31.9501503,140.342056 30.3197613,140.331752 28.9570312,140.294922 C27.605462,140.271484 26.6328155,139.826176 26.0390625,138.958984 C25.8124989,139.138673 25.3554722,139.638668 24.6679688,140.458984 L24.1640625,139.462891 L24.8557085,138.851602 C25.1401467,138.602878 25.3939721,138.384767 25.6171875,138.197266 L25.6171875,134.095703 L24.28125,134.095703 L24.28125,133.240234 L26.53125,133.240234 L26.53125,138.361328 C27.1015654,139.048832 27.9492131,139.412109 29.0742188,139.451172 Z M25.3710938,129.173828 C25.8945339,129.783206 26.4765593,130.517574 27.1171875,131.376953 L26.3085938,131.986328 C25.7851536,131.181637 25.2304717,130.419925 24.6445312,129.701172 L25.3710938,129.173828 Z M32.6015625,129.876953 L33.140625,129.220703 L33.8114078,129.668946 C34.2806263,129.988868 34.6273426,130.241796 34.8515625,130.427734 L34.2539062,131.177734 C33.8164041,130.787107 33.2656283,130.353518 32.6015625,129.876953 Z M36.3632812,131.048828 L41.9882812,131.048828 L41.6223952,130.366535 C41.3975691,129.956813 41.2109382,129.637371 41.0625,129.408203 L41.9648438,128.986328 L42.2200521,129.392578 C42.414496,129.710286 42.6575506,130.121742 42.9492188,130.626953 L42.1054688,131.048828 L47.6132812,131.048828 L47.6132812,131.916016 L45.4511719,131.916016 C45.033201,134.146496 44.1347725,135.939446 42.7558594,137.294922 C43.7949271,138.052738 45.4453012,138.732419 47.7070312,139.333984 C47.3476545,139.740236 47.0742197,140.080077 46.8867188,140.353516 C44.6835827,139.591793 43.0566459,138.794926 42.0058594,137.962891 C40.9511666,138.783207 39.2656366,139.611324 36.9492188,140.447266 L36.6210942,140.013672 C36.5039069,139.861329 36.3789069,139.701173 36.2460938,139.533203 C38.4804799,138.861325 40.1621037,138.113285 41.2910156,137.289062 C39.8652272,135.765617 38.9589863,133.97462 38.5722656,131.916016 L36.3632812,131.916016 L36.3632812,131.048828 Z M44.4492188,131.916016 L39.5097656,131.916016 C39.8613299,133.8379 40.7011652,135.425775 42.0292969,136.679688 C43.2988345,135.499994 44.105467,133.912119 44.4492188,131.916016 Z M48.7851562,135.583984 L49.6246099,135.482468 C51.1094497,135.292032 52.2964198,135.077826 53.1855469,134.839844 C52.2480422,134.589843 51.300786,134.345704 50.34375,134.107422 C50.6640641,133.76367 50.96875,133.42383 51.2578125,133.087891 L48.46875,133.087891 L48.46875,132.314453 L51.890625,132.314453 C52.1875015,131.939451 52.4609363,131.568361 52.7109375,131.201172 L53.6601562,131.470703 C53.4492177,131.751955 53.2246106,132.033202 52.9863281,132.314453 L59.53125,132.314453 L59.53125,133.087891 L57.0117188,133.087891 C56.6406231,133.74805 56.138675,134.283201 55.5058594,134.693359 L56.8136729,135.039297 C57.4511715,135.209453 58.0640596,135.37539 58.6523438,135.537109 L58.2773438,136.322266 C57.0390563,135.931639 55.7793033,135.558596 54.4980469,135.203125 C53.3105409,135.671877 51.5195432,136.056639 49.125,136.357422 C49.0312495,136.107421 48.9179694,135.849611 48.7851562,135.583984 Z M59.8476562,139.369141 C59.5820299,139.681642 59.3554697,139.974608 59.1679688,140.248047 C57.1054584,139.630856 55.523443,138.875004 54.421875,137.980469 L54.421875,140.623047 L53.578125,140.623047 L53.578125,137.998047 C52.3945253,138.833989 50.8203223,139.587887 48.8554688,140.259766 C48.6757812,140.033202 48.4492201,139.76758 48.1757812,139.462891 C50.1914163,138.958982 51.7871035,138.337894 52.9628906,137.599609 L48.4453125,137.599609 L48.4453125,136.814453 L53.578125,136.814453 L53.578125,135.853516 L54.421875,135.853516 L54.421875,136.814453 L59.625,136.814453 L59.625,137.599609 L55.0605469,137.599609 C56.294928,138.431645 57.8906152,139.021483 59.8476562,139.369141 Z M48.7851562,130.123047 L53.6953125,130.123047 C53.5468743,129.853514 53.375001,129.576173 53.1796875,129.291016 L54.0117188,128.916016 C54.2656263,129.314455 54.5058582,129.716795 54.7324219,130.123047 L59.203125,130.123047 L59.203125,131.892578 L58.3125,131.892578 L58.3125,130.896484 L49.6757812,130.896484 L49.6757812,131.892578 L48.7851562,131.892578 L48.7851562,130.123047 Z M51.6796875,133.732422 L53.7582996,134.249878 C53.9819323,134.306274 54.2031239,134.362304 54.421875,134.417969 C55.1093784,134.11328 55.6464824,133.669925 56.0332031,133.087891 L52.3007812,133.087891 C52.1015615,133.302735 51.8945323,133.517577 51.6796875,133.732422 Z M64.21875,133.298828 L71.2148438,133.298828 L71.2148438,140.517578 L70.3242188,140.517578 L70.3242188,139.791016 L65.109375,139.791016 L65.109375,140.517578 L64.21875,140.517578 L64.21875,133.298828 Z M60.1640625,135.244141 C60.6328148,135.103515 61.1328098,134.941407 61.6640625,134.757812 L61.6640625,132.068359 L60.2695312,132.068359 L60.2695312,131.271484 L61.6640625,131.271484 L61.6640625,129.091797 L62.5546875,129.091797 L62.5546875,131.271484 L63.75,131.271484 L63.75,132.068359 L62.5546875,132.068359 L62.5546875,134.447266 L63.304687,134.171224 C63.432291,134.123481 63.5611973,134.07487 63.6914062,134.025391 L63.7148438,134.951172 L63.7148438,134.951172 L62.5546875,135.378906 L62.5546875,135.378906 L62.5546875,139.216797 C62.5546875,140.013676 62.175785,140.419922 61.4179688,140.435547 L61.0392188,140.441172 C60.8292193,140.442109 60.5882826,140.440234 60.3164062,140.435547 C60.269531,140.10742 60.2187503,139.783205 60.1640625,139.462891 C60.5937521,139.509766 60.9414049,139.533203 61.2070312,139.533203 C61.5117203,139.533203 61.6640625,139.373048 61.6640625,139.052734 L61.6640625,135.707031 L60.2929688,136.228516 L60.2929688,136.228516 L60.1640625,135.244141 Z M68.8125,129.080078 L69.6679688,129.080078 L69.6679688,130.556641 L71.8125,130.556641 L71.8125,131.376953 L69.6679688,131.376953 L69.6679688,132.818359 L68.8125,132.818359 L68.8125,131.376953 L66.609375,131.376953 L66.609375,132.818359 L65.7539062,132.818359 L65.7539062,131.376953 L63.890625,131.376953 L63.890625,130.556641 L65.7539062,130.556641 L65.7539062,129.091797 L66.609375,129.091797 L66.609375,130.556641 L68.8125,130.556641 L68.8125,129.080078 Z M68.1445312,139.017578 L70.3242188,139.017578 L70.3242188,136.919922 L68.1445312,136.919922 L68.1445312,139.017578 Z M65.109375,139.017578 L67.2773438,139.017578 L67.2773438,136.919922 L65.109375,136.919922 L65.109375,139.017578 Z M70.3242188,134.095703 L68.1445312,134.095703 L68.1445312,136.169922 L70.3242188,136.169922 L70.3242188,134.095703 Z M65.109375,136.169922 L67.2773438,136.169922 L67.2773438,134.095703 L65.109375,134.095703 L65.109375,136.169922 Z M75.6679688,131.623047 L78.9140625,131.623047 L78.9140625,129.080078 L79.828125,129.080078 L79.828125,131.623047 L83.34375,131.623047 L83.34375,132.466797 L79.828125,132.466797 L79.828125,134.001953 L80.2265625,133.544922 C81.4140684,134.498052 82.5859317,135.494135 83.7421875,136.533203 L83.0625,137.294922 C82.1015577,136.33398 81.0234435,135.341802 79.828125,134.318359 L79.828125,138.923828 L78.9140625,138.923828 L78.9140625,133.626953 C78.0390581,135.142586 76.9882874,136.494135 75.7617188,137.681641 C75.5429677,137.46289 75.2929702,137.240236 75.0117188,137.013672 C76.4882886,135.669915 77.7031202,134.154305 78.65625,132.466797 L75.6679688,132.466797 L75.6679688,131.623047 Z M77.0742188,139.451172 L78.1664082,139.468047 C79.7101572,139.481797 81.603895,139.460547 83.8476562,139.404297 L83.4609375,140.306641 L83.4609375,140.306641 L81.84823,140.325833 C79.9501503,140.342056 78.3197613,140.331752 76.9570312,140.294922 C75.605462,140.271484 74.6328155,139.826176 74.0390625,138.958984 C73.8124989,139.138673 73.3554722,139.638668 72.6679688,140.458984 L72.1640625,139.462891 L72.8557085,138.851602 C73.1401467,138.602878 73.3939721,138.384767 73.6171875,138.197266 L73.6171875,134.095703 L72.28125,134.095703 L72.28125,133.240234 L74.53125,133.240234 L74.53125,138.361328 C75.1015654,139.048832 75.9492131,139.412109 77.0742188,139.451172 Z M73.3710938,129.173828 C73.8945339,129.783206 74.4765593,130.517574 75.1171875,131.376953 L74.3085938,131.986328 C73.7851536,131.181637 73.2304717,130.419925 72.6445312,129.701172 L73.3710938,129.173828 Z M80.6015625,129.876953 L81.140625,129.220703 L81.8114078,129.668946 C82.2806263,129.988868 82.6273426,130.241796 82.8515625,130.427734 L82.2539062,131.177734 C81.8164041,130.787107 81.2656283,130.353518 80.6015625,129.876953 Z M84.3632812,131.048828 L89.9882812,131.048828 L89.6223952,130.366535 C89.3975691,129.956813 89.2109382,129.637371 89.0625,129.408203 L89.9648438,128.986328 L90.2200521,129.392578 C90.414496,129.710286 90.6575506,130.121742 90.9492188,130.626953 L90.1054688,131.048828 L95.6132812,131.048828 L95.6132812,131.916016 L93.4511719,131.916016 C93.033201,134.146496 92.1347725,135.939446 90.7558594,137.294922 C91.7949271,138.052738 93.4453012,138.732419 95.7070312,139.333984 C95.3476545,139.740236 95.0742197,140.080077 94.8867188,140.353516 C92.6835827,139.591793 91.0566459,138.794926 90.0058594,137.962891 C88.9511666,138.783207 87.2656366,139.611324 84.9492188,140.447266 L84.6210942,140.013672 C84.5039069,139.861329 84.3789069,139.701173 84.2460938,139.533203 C86.4804799,138.861325 88.1621037,138.113285 89.2910156,137.289062 C87.8652272,135.765617 86.9589863,133.97462 86.5722656,131.916016 L84.3632812,131.916016 L84.3632812,131.048828 Z M92.4492188,131.916016 L87.5097656,131.916016 C87.8613299,133.8379 88.7011652,135.425775 90.0292969,136.679688 C91.2988345,135.499994 92.105467,133.912119 92.4492188,131.916016 Z M96.7851562,135.583984 L97.6246099,135.482468 C99.1094497,135.292032 100.29642,135.077826 101.185547,134.839844 C100.248042,134.589843 99.300786,134.345704 98.34375,134.107422 C98.6640641,133.76367 98.96875,133.42383 99.2578125,133.087891 L96.46875,133.087891 L96.46875,132.314453 L99.890625,132.314453 C100.187501,131.939451 100.460936,131.568361 100.710938,131.201172 L101.660156,131.470703 C101.449218,131.751955 101.224611,132.033202 100.986328,132.314453 L107.53125,132.314453 L107.53125,133.087891 L105.011719,133.087891 C104.640623,133.74805 104.138675,134.283201 103.505859,134.693359 L104.813673,135.039297 C105.451172,135.209453 106.06406,135.37539 106.652344,135.537109 L106.277344,136.322266 C105.039056,135.931639 103.779303,135.558596 102.498047,135.203125 C101.310541,135.671877 99.5195432,136.056639 97.125,136.357422 C97.0312495,136.107421 96.9179694,135.849611 96.7851562,135.583984 Z M107.847656,139.369141 C107.58203,139.681642 107.35547,139.974608 107.167969,140.248047 C105.105458,139.630856 103.523443,138.875004 102.421875,137.980469 L102.421875,140.623047 L101.578125,140.623047 L101.578125,137.998047 C100.394525,138.833989 98.8203223,139.587887 96.8554688,140.259766 C96.6757812,140.033202 96.4492201,139.76758 96.1757812,139.462891 C98.1914163,138.958982 99.7871035,138.337894 100.962891,137.599609 L96.4453125,137.599609 L96.4453125,136.814453 L101.578125,136.814453 L101.578125,135.853516 L102.421875,135.853516 L102.421875,136.814453 L107.625,136.814453 L107.625,137.599609 L103.060547,137.599609 C104.294928,138.431645 105.890615,139.021483 107.847656,139.369141 Z M96.7851562,130.123047 L101.695312,130.123047 C101.546874,129.853514 101.375001,129.576173 101.179688,129.291016 L102.011719,128.916016 C102.265626,129.314455 102.505858,129.716795 102.732422,130.123047 L107.203125,130.123047 L107.203125,131.892578 L106.3125,131.892578 L106.3125,130.896484 L97.6757812,130.896484 L97.6757812,131.892578 L96.7851562,131.892578 L96.7851562,130.123047 Z M99.6796875,133.732422 L101.7583,134.249878 C101.981932,134.306274 102.203124,134.362304 102.421875,134.417969 C103.109378,134.11328 103.646482,133.669925 104.033203,133.087891 L100.300781,133.087891 C100.101562,133.302735 99.8945323,133.517577 99.6796875,133.732422 Z M112.21875,133.298828 L119.214844,133.298828 L119.214844,140.517578 L118.324219,140.517578 L118.324219,139.791016 L113.109375,139.791016 L113.109375,140.517578 L112.21875,140.517578 L112.21875,133.298828 Z M108.164062,135.244141 C108.632815,135.103515 109.13281,134.941407 109.664062,134.757812 L109.664062,132.068359 L108.269531,132.068359 L108.269531,131.271484 L109.664062,131.271484 L109.664062,129.091797 L110.554688,129.091797 L110.554688,131.271484 L111.75,131.271484 L111.75,132.068359 L110.554688,132.068359 L110.554688,134.447266 L111.304687,134.171224 C111.432291,134.123481 111.561197,134.07487 111.691406,134.025391 L111.714844,134.951172 L111.714844,134.951172 L110.554688,135.378906 L110.554688,135.378906 L110.554688,139.216797 C110.554688,140.013676 110.175785,140.419922 109.417969,140.435547 L109.039219,140.441172 C108.829219,140.442109 108.588283,140.440234 108.316406,140.435547 C108.269531,140.10742 108.21875,139.783205 108.164062,139.462891 C108.593752,139.509766 108.941405,139.533203 109.207031,139.533203 C109.51172,139.533203 109.664062,139.373048 109.664062,139.052734 L109.664062,135.707031 L108.292969,136.228516 L108.292969,136.228516 L108.164062,135.244141 Z M116.8125,129.080078 L117.667969,129.080078 L117.667969,130.556641 L119.8125,130.556641 L119.8125,131.376953 L117.667969,131.376953 L117.667969,132.818359 L116.8125,132.818359 L116.8125,131.376953 L114.609375,131.376953 L114.609375,132.818359 L113.753906,132.818359 L113.753906,131.376953 L111.890625,131.376953 L111.890625,130.556641 L113.753906,130.556641 L113.753906,129.091797 L114.609375,129.091797 L114.609375,130.556641 L116.8125,130.556641 L116.8125,129.080078 Z M116.144531,139.017578 L118.324219,139.017578 L118.324219,136.919922 L116.144531,136.919922 L116.144531,139.017578 Z M113.109375,139.017578 L115.277344,139.017578 L115.277344,136.919922 L113.109375,136.919922 L113.109375,139.017578 Z M118.324219,134.095703 L116.144531,134.095703 L116.144531,136.169922 L118.324219,136.169922 L118.324219,134.095703 Z M113.109375,136.169922 L115.277344,136.169922 L115.277344,134.095703 L113.109375,134.095703 L113.109375,136.169922 Z M123.667969,131.623047 L126.914062,131.623047 L126.914062,129.080078 L127.828125,129.080078 L127.828125,131.623047 L131.34375,131.623047 L131.34375,132.466797 L127.828125,132.466797 L127.828125,134.001953 L128.226562,133.544922 C129.414068,134.498052 130.585932,135.494135 131.742188,136.533203 L131.0625,137.294922 C130.101558,136.33398 129.023443,135.341802 127.828125,134.318359 L127.828125,138.923828 L126.914062,138.923828 L126.914062,133.626953 C126.039058,135.142586 124.988287,136.494135 123.761719,137.681641 C123.542968,137.46289 123.29297,137.240236 123.011719,137.013672 C124.488289,135.669915 125.70312,134.154305 126.65625,132.466797 L123.667969,132.466797 L123.667969,131.623047 Z M125.074219,139.451172 L126.166408,139.468047 C127.710157,139.481797 129.603895,139.460547 131.847656,139.404297 L131.460938,140.306641 L131.460938,140.306641 L129.84823,140.325833 C127.95015,140.342056 126.319761,140.331752 124.957031,140.294922 C123.605462,140.271484 122.632815,139.826176 122.039062,138.958984 C121.812499,139.138673 121.355472,139.638668 120.667969,140.458984 L120.164062,139.462891 L120.855709,138.851602 C121.140147,138.602878 121.393972,138.384767 121.617188,138.197266 L121.617188,134.095703 L120.28125,134.095703 L120.28125,133.240234 L122.53125,133.240234 L122.53125,138.361328 C123.101565,139.048832 123.949213,139.412109 125.074219,139.451172 Z M121.371094,129.173828 C121.894534,129.783206 122.476559,130.517574 123.117188,131.376953 L122.308594,131.986328 C121.785154,131.181637 121.230472,130.419925 120.644531,129.701172 L121.371094,129.173828 Z M128.601562,129.876953 L129.140625,129.220703 L129.811408,129.668946 C130.280626,129.988868 130.627343,130.241796 130.851562,130.427734 L130.253906,131.177734 C129.816404,130.787107 129.265628,130.353518 128.601562,129.876953 Z M132.363281,131.048828 L137.988281,131.048828 L137.622395,130.366535 C137.397569,129.956813 137.210938,129.637371 137.0625,129.408203 L137.964844,128.986328 L138.220052,129.392578 C138.414496,129.710286 138.657551,130.121742 138.949219,130.626953 L138.105469,131.048828 L143.613281,131.048828 L143.613281,131.916016 L141.451172,131.916016 C141.033201,134.146496 140.134773,135.939446 138.755859,137.294922 C139.794927,138.052738 141.445301,138.732419 143.707031,139.333984 C143.347654,139.740236 143.07422,140.080077 142.886719,140.353516 C140.683583,139.591793 139.056646,138.794926 138.005859,137.962891 C136.951167,138.783207 135.265637,139.611324 132.949219,140.447266 L132.621094,140.013672 C132.503907,139.861329 132.378907,139.701173 132.246094,139.533203 C134.48048,138.861325 136.162104,138.113285 137.291016,137.289062 C135.865227,135.765617 134.958986,133.97462 134.572266,131.916016 L132.363281,131.916016 L132.363281,131.048828 Z M140.449219,131.916016 L135.509766,131.916016 C135.86133,133.8379 136.701165,135.425775 138.029297,136.679688 C139.298834,135.499994 140.105467,133.912119 140.449219,131.916016 Z M144.785156,135.583984 L145.62461,135.482468 C147.10945,135.292032 148.29642,135.077826 149.185547,134.839844 C148.248042,134.589843 147.300786,134.345704 146.34375,134.107422 C146.664064,133.76367 146.96875,133.42383 147.257812,133.087891 L144.46875,133.087891 L144.46875,132.314453 L147.890625,132.314453 C148.187501,131.939451 148.460936,131.568361 148.710938,131.201172 L149.660156,131.470703 C149.449218,131.751955 149.224611,132.033202 148.986328,132.314453 L155.53125,132.314453 L155.53125,133.087891 L153.011719,133.087891 C152.640623,133.74805 152.138675,134.283201 151.505859,134.693359 L152.813673,135.039297 C153.451172,135.209453 154.06406,135.37539 154.652344,135.537109 L154.277344,136.322266 C153.039056,135.931639 151.779303,135.558596 150.498047,135.203125 C149.310541,135.671877 147.519543,136.056639 145.125,136.357422 C145.03125,136.107421 144.917969,135.849611 144.785156,135.583984 Z M155.847656,139.369141 C155.58203,139.681642 155.35547,139.974608 155.167969,140.248047 C153.105458,139.630856 151.523443,138.875004 150.421875,137.980469 L150.421875,140.623047 L149.578125,140.623047 L149.578125,137.998047 C148.394525,138.833989 146.820322,139.587887 144.855469,140.259766 C144.675781,140.033202 144.44922,139.76758 144.175781,139.462891 C146.191416,138.958982 147.787103,138.337894 148.962891,137.599609 L144.445312,137.599609 L144.445312,136.814453 L149.578125,136.814453 L149.578125,135.853516 L150.421875,135.853516 L150.421875,136.814453 L155.625,136.814453 L155.625,137.599609 L151.060547,137.599609 C152.294928,138.431645 153.890615,139.021483 155.847656,139.369141 Z M144.785156,130.123047 L149.695312,130.123047 C149.546874,129.853514 149.375001,129.576173 149.179688,129.291016 L150.011719,128.916016 C150.265626,129.314455 150.505858,129.716795 150.732422,130.123047 L155.203125,130.123047 L155.203125,131.892578 L154.3125,131.892578 L154.3125,130.896484 L145.675781,130.896484 L145.675781,131.892578 L144.785156,131.892578 L144.785156,130.123047 Z M147.679688,133.732422 L149.7583,134.249878 C149.981932,134.306274 150.203124,134.362304 150.421875,134.417969 C151.109378,134.11328 151.646482,133.669925 152.033203,133.087891 L148.300781,133.087891 C148.101562,133.302735 147.894532,133.517577 147.679688,133.732422 Z M156.697266,138.396484 C156.697266,138.185546 156.769531,138.007813 156.914062,137.863281 C157.058594,137.718749 157.23828,137.646484 157.453125,137.646484 C157.671876,137.646484 157.853515,137.719726 157.998047,137.866211 C158.142579,138.012696 158.214844,138.189452 158.214844,138.396484 C158.214844,138.59961 158.142579,138.774413 157.998047,138.920898 C157.853515,139.067384 157.669923,139.140625 157.447266,139.140625 C157.232421,139.140625 157.053712,139.067384 156.911133,138.920898 C156.768554,138.774413 156.697266,138.59961 156.697266,138.396484 Z M159.585938,138.396484 C159.585938,138.185546 159.658202,138.007813 159.802734,137.863281 C159.947266,137.718749 160.126952,137.646484 160.341797,137.646484 C160.560548,137.646484 160.742187,137.719726 160.886719,137.866211 C161.031251,138.012696 161.103516,138.189452 161.103516,138.396484 C161.103516,138.59961 161.031251,138.774413 160.886719,138.920898 C160.742187,139.067384 160.558595,139.140625 160.335938,139.140625 C160.121093,139.140625 159.942384,139.067384 159.799805,138.920898 C159.657226,138.774413 159.585938,138.59961 159.585938,138.396484 Z M162.474609,138.396484 C162.474609,138.185546 162.546874,138.007813 162.691406,137.863281 C162.835938,137.718749 163.015624,137.646484 163.230469,137.646484 C163.44922,137.646484 163.630859,137.719726 163.775391,137.866211 C163.919923,138.012696 163.992188,138.189452 163.992188,138.396484 C163.992188,138.59961 163.919923,138.774413 163.775391,138.920898 C163.630859,139.067384 163.447267,139.140625 163.224609,139.140625 C163.009765,139.140625 162.831055,139.067384 162.688477,138.920898 C162.545898,138.774413 162.474609,138.59961 162.474609,138.396484 Z" id="描述文案描述文案描述文案..." fill="#9B9B9B" fill-rule="nonzero"></path>
                    <rect id="Rectangle" fill="#F1F1F1" x="0" y="152" width="410" height="1"></rect>
                    <rect id="Rectangle" fill="#F1F1F1" x="0" y="30" width="410" height="1"></rect>
                    <g id="编组-15" transform="translate(354.000000, 47.000000)">
                        <rect id="矩形" stroke="#D5DAE0" fill="#FFFFFF" x="0.5" y="0.5" width="55" height="27" rx="1.5"></rect>
                        <path d="M27.9179688,18.5878906 C27.6992177,18.869142 27.5078133,19.1347644 27.34375,19.3847656 C25.8554613,18.7988252 24.6953167,18.0234423 23.8632812,17.0585938 L23.8632812,19.7832031 L23.0898438,19.7832031 L23.0898438,17.0585938 C22.1132764,18.0156298 20.9062572,18.8066375 19.46875,19.4316406 C19.3359368,19.1972645 19.1562511,18.947267 18.9296875,18.6816406 C20.4492263,18.1464817 21.6894483,17.4355513 22.6503906,16.5488281 L19.4335938,16.5488281 L19.4335938,15.8222656 L23.0898438,15.8222656 L23.0898438,15.1074219 L23.8632812,15.1074219 L23.8632812,15.8222656 L27.6835938,15.8222656 L27.6835938,16.5488281 L24.2441406,16.5488281 C25.1152387,17.4550827 26.3398359,18.1347634 27.9179688,18.5878906 Z M16.2929688,15.4003906 L16.1640625,14.4160156 L16.7040627,14.2425781 C16.9862495,14.1488283 17.2867172,14.0445318 17.6054688,13.9296875 L17.6054688,11.2636719 L16.2695312,11.2636719 L16.2695312,10.4667969 L17.6054688,10.4667969 L17.6054688,8.28710938 L18.4726562,8.28710938 L18.4726562,10.4667969 L19.7734375,10.4667969 L19.7734375,11.2636719 L18.4726562,11.2636719 L18.4726562,13.6074219 L19.1940099,13.3261721 C19.3185757,13.276693 19.4453119,13.2259117 19.5742188,13.1738281 L19.5976562,14.0996094 L19.5976562,14.0996094 L18.4726562,14.5332031 L18.4726562,14.5332031 L18.4726562,18.4238281 C18.4726562,19.205082 18.1054688,19.6074218 17.3710938,19.6308594 C17.0742173,19.6464845 16.7031272,19.6464845 16.2578125,19.6308594 C16.2187498,19.3183578 16.1679691,19.0058609 16.1054688,18.6933594 C16.5429709,18.7402346 16.9023423,18.7636719 17.1835938,18.7636719 C17.4648452,18.7636719 17.6054688,18.6152359 17.6054688,18.3183594 L17.6054688,14.8789062 L16.6408699,15.2601315 C16.5271004,15.3057858 16.4111334,15.3525388 16.2929688,15.4003906 Z M20.7578125,8.74414062 L26.3125,8.74414062 L26.3125,11.6152344 L25.46875,11.6152344 L25.46875,11.2988281 L21.6015625,11.2988281 L21.6015625,11.6152344 L20.7578125,11.6152344 L20.7578125,8.74414062 Z M23.9921875,12.0957031 L27.15625,12.0957031 L27.15625,14.9785156 L26.4296875,14.9785156 L26.4296875,14.6152344 L24.71875,14.6152344 L24.71875,14.9433594 L23.9921875,14.9433594 L23.9921875,12.0957031 Z M19.9257812,12.1191406 L23.0195312,12.1191406 L23.0195312,14.9433594 L22.2929688,14.9433594 L22.2929688,14.6269531 L20.6523438,14.6269531 L20.6523438,14.9785156 L19.9257812,14.9785156 L19.9257812,12.1191406 Z M25.46875,9.44726562 L21.6015625,9.44726562 L21.6015625,10.5957031 L25.46875,10.5957031 L25.46875,9.44726562 Z M26.4296875,12.7753906 L24.71875,12.7753906 L24.71875,13.9355469 L26.4296875,13.9355469 L26.4296875,12.7753906 Z M22.2929688,12.7988281 L20.6523438,12.7988281 L20.6523438,13.9472656 L22.2929688,13.9472656 L22.2929688,12.7988281 Z M31.3867188,12.9746094 C32.4257864,11.5527273 33.1914038,9.96680562 33.6835938,8.21679688 L34.6445312,8.39257812 C34.4609366,8.99414363 34.2539074,9.57616906 34.0234375,10.1386719 L39.8007812,10.1386719 L39.8007812,10.9589844 L35.5351562,10.9589844 L35.5351562,13.0097656 L39.3320312,13.0097656 L39.3320312,13.8300781 L35.5351562,13.8300781 L35.5351562,15.9628906 L39.484375,15.9628906 L39.484375,16.7832031 L35.5351562,16.7832031 L35.5351562,19.7363281 L34.6210938,19.7363281 L34.6210938,10.9589844 L33.6660156,10.9589844 C33.2246072,11.9121141 32.7109404,12.8066364 32.125,13.6425781 C31.9062489,13.4316396 31.6601576,13.2089855 31.3867188,12.9746094 Z M28.1289062,14.0527344 C29.2304743,12.4199137 30.1015593,10.4863393 30.7421875,8.25195312 L31.703125,8.53320312 C31.4023422,9.45508273 31.0820329,10.3203085 30.7421875,11.1289062 L30.7421875,19.7363281 L29.828125,19.7363281 L29.828125,13.0390625 C29.4335918,13.7773474 29.0156272,14.4511688 28.5742188,15.0605469 C28.4570307,14.7636704 28.3085946,14.4277363 28.1289062,14.0527344 Z" id="操作" fill="#333333" fill-rule="nonzero"></path>
                    </g>
                    <g id="编组-14" transform="translate(354.000000, 108.000000)">
                        <rect id="矩形" stroke="#D5DAE0" fill="#FFFFFF" x="0.5" y="0.5" width="55" height="27" rx="1.5"></rect>
                        <path d="M27.9179688,18.5878906 C27.6992177,18.869142 27.5078133,19.1347644 27.34375,19.3847656 C25.8554613,18.7988252 24.6953167,18.0234423 23.8632812,17.0585938 L23.8632812,19.7832031 L23.0898438,19.7832031 L23.0898438,17.0585938 C22.1132764,18.0156298 20.9062572,18.8066375 19.46875,19.4316406 C19.3359368,19.1972645 19.1562511,18.947267 18.9296875,18.6816406 C20.4492263,18.1464817 21.6894483,17.4355513 22.6503906,16.5488281 L19.4335938,16.5488281 L19.4335938,15.8222656 L23.0898438,15.8222656 L23.0898438,15.1074219 L23.8632812,15.1074219 L23.8632812,15.8222656 L27.6835938,15.8222656 L27.6835938,16.5488281 L24.2441406,16.5488281 C25.1152387,17.4550827 26.3398359,18.1347634 27.9179688,18.5878906 Z M16.2929688,15.4003906 L16.1640625,14.4160156 L16.7040627,14.2425781 C16.9862495,14.1488283 17.2867172,14.0445318 17.6054688,13.9296875 L17.6054688,11.2636719 L16.2695312,11.2636719 L16.2695312,10.4667969 L17.6054688,10.4667969 L17.6054688,8.28710938 L18.4726562,8.28710938 L18.4726562,10.4667969 L19.7734375,10.4667969 L19.7734375,11.2636719 L18.4726562,11.2636719 L18.4726562,13.6074219 L19.1940099,13.3261721 C19.3185757,13.276693 19.4453119,13.2259117 19.5742188,13.1738281 L19.5976562,14.0996094 L19.5976562,14.0996094 L18.4726562,14.5332031 L18.4726562,14.5332031 L18.4726562,18.4238281 C18.4726562,19.205082 18.1054688,19.6074218 17.3710938,19.6308594 C17.0742173,19.6464845 16.7031272,19.6464845 16.2578125,19.6308594 C16.2187498,19.3183578 16.1679691,19.0058609 16.1054688,18.6933594 C16.5429709,18.7402346 16.9023423,18.7636719 17.1835938,18.7636719 C17.4648452,18.7636719 17.6054688,18.6152359 17.6054688,18.3183594 L17.6054688,14.8789062 L16.6408699,15.2601315 C16.5271004,15.3057858 16.4111334,15.3525388 16.2929688,15.4003906 Z M20.7578125,8.74414062 L26.3125,8.74414062 L26.3125,11.6152344 L25.46875,11.6152344 L25.46875,11.2988281 L21.6015625,11.2988281 L21.6015625,11.6152344 L20.7578125,11.6152344 L20.7578125,8.74414062 Z M23.9921875,12.0957031 L27.15625,12.0957031 L27.15625,14.9785156 L26.4296875,14.9785156 L26.4296875,14.6152344 L24.71875,14.6152344 L24.71875,14.9433594 L23.9921875,14.9433594 L23.9921875,12.0957031 Z M19.9257812,12.1191406 L23.0195312,12.1191406 L23.0195312,14.9433594 L22.2929688,14.9433594 L22.2929688,14.6269531 L20.6523438,14.6269531 L20.6523438,14.9785156 L19.9257812,14.9785156 L19.9257812,12.1191406 Z M25.46875,9.44726562 L21.6015625,9.44726562 L21.6015625,10.5957031 L25.46875,10.5957031 L25.46875,9.44726562 Z M26.4296875,12.7753906 L24.71875,12.7753906 L24.71875,13.9355469 L26.4296875,13.9355469 L26.4296875,12.7753906 Z M22.2929688,12.7988281 L20.6523438,12.7988281 L20.6523438,13.9472656 L22.2929688,13.9472656 L22.2929688,12.7988281 Z M31.3867188,12.9746094 C32.4257864,11.5527273 33.1914038,9.96680562 33.6835938,8.21679688 L34.6445312,8.39257812 C34.4609366,8.99414363 34.2539074,9.57616906 34.0234375,10.1386719 L39.8007812,10.1386719 L39.8007812,10.9589844 L35.5351562,10.9589844 L35.5351562,13.0097656 L39.3320312,13.0097656 L39.3320312,13.8300781 L35.5351562,13.8300781 L35.5351562,15.9628906 L39.484375,15.9628906 L39.484375,16.7832031 L35.5351562,16.7832031 L35.5351562,19.7363281 L34.6210938,19.7363281 L34.6210938,10.9589844 L33.6660156,10.9589844 C33.2246072,11.9121141 32.7109404,12.8066364 32.125,13.6425781 C31.9062489,13.4316396 31.6601576,13.2089855 31.3867188,12.9746094 Z M28.1289062,14.0527344 C29.2304743,12.4199137 30.1015593,10.4863393 30.7421875,8.25195312 L31.703125,8.53320312 C31.4023422,9.45508273 31.0820329,10.3203085 30.7421875,11.1289062 L30.7421875,19.7363281 L29.828125,19.7363281 L29.828125,13.0390625 C29.4335918,13.7773474 29.0156272,14.4511688 28.5742188,15.0605469 C28.4570307,14.7636704 28.3085946,14.4277363 28.1289062,14.0527344 Z" id="操作" fill="#333333" fill-rule="nonzero"></path>
                    </g>
                </g>
                <text id="样式一" font-family="MicrosoftYaHei, Microsoft YaHei" font-size="12" font-weight="normal" line-spacing="22" fill="#525A6E">
                    <tspan x="8" y="27">样式一</tspan>
                </text>
            </g>
        </g>
    </g>
</svg>