<?xml version="1.0" encoding="UTF-8"?>
<svg width="494px" height="300px" viewBox="0 0 494 300" version="1.1" xmlns="http://www.w3.org/2000/svg" xmlns:xlink="http://www.w3.org/1999/xlink">
    <!-- Generator: Sketch 59 (86127) - https://sketch.com -->
    <title>9-Transfer</title>
    <desc>Created with Sketch.</desc>
    <g id="页面-1" stroke="none" stroke-width="1" fill="none" fill-rule="evenodd">
        <g id="一诺合同-配置组件-英文" transform="translate(-224.000000, -3353.000000)">
            <rect fill="#F6F6F6" x="0" y="0" width="1440" height="9290"></rect>
            <path d="M210,149 L1430,149 C1431.10457,149 1432,149.895431 1432,151 L1432,8635.15678 L1432,8635.15678 L1432,9272 C1432,9273.10457 1431.10457,9274 1430,9274 L210,9274 C208.895431,9274 208,9273.10457 208,9272 L208,151 C208,149.895431 208.895431,149 210,149 Z" id="Rectangle" fill="#FFFFFF"></path>
            <g id="transfer/style2" transform="translate(224.000000, 3353.000000)">
                <rect id="矩形备份-31" fill-opacity="0.01" fill="#FFFFFF" x="0" y="0" width="494" height="300"></rect>
                <g id="编组-10" transform="translate(54.000000, 14.000000)">
                    <rect id="outline备份-6" stroke="#DBDFE6" fill="#FFFFFF" fill-rule="nonzero" x="0.5" y="0.5" width="427" height="269" rx="2"></rect>
                    <g id="9.Box/2.Row/1.Border.bottom备份-2" fill-rule="nonzero">
                        <rect id="BG/fill" opacity="0" x="0" y="0" width="240" height="32"></rect>
                        <rect id="divider/fill" fill="#DBDFE6" x="1" y="31" width="426" height="1"></rect>
                    </g>
                    <text id="✏️Text备份-13" font-family="PingFangSC-Regular, PingFang SC" font-size="12" font-weight="normal" fill="#525A6E">
                        <tspan x="157.06" y="20">Source</tspan>
                    </text>
                    <text id="✏️Text备份-14" font-family="PingFangSC-Regular, PingFang SC" font-size="12" font-weight="normal" fill="#525A6E">
                        <tspan x="384.472" y="20">Target</tspan>
                    </text>
                    <text id="✏️Text备份-15" font-family="PingFangSC-Regular, PingFang SC" font-size="12" font-weight="normal" fill="#525A6E">
                        <tspan x="34" y="20">2/13 items</tspan>
                    </text>
                    <text id="✏️Text备份-16" font-family="PingFangSC-Regular, PingFang SC" font-size="12" font-weight="normal" fill="#525A6E">
                        <tspan x="255" y="20">2/13 items</tspan>
                    </text>
                    <g id="checkboxDisable备份" transform="translate(12.000000, 9.000000)">
                        <rect id="Rectangle" fill="#3889FF" x="0" y="0" width="14" height="14" rx="2"></rect>
                        <rect id="矩形" fill="#FFFFFF" x="3" y="6" width="8" height="2" rx="1"></rect>
                    </g>
                    <g id="checkboxDisable-2" transform="translate(233.000000, 9.000000)" fill-rule="nonzero">
                        <rect id="fill" fill="#FFFFFF" x="0.325581395" y="0.325581395" width="13.3488372" height="13.3488372" rx="2"></rect>
                        <rect id="outline" stroke="#DBDFE6" x="0.662790698" y="0.662790698" width="12.6744186" height="12.6744186" rx="2"></rect>
                    </g>
                    <rect id="fill备份-3" fill="#3889FF" fill-rule="nonzero" x="237" y="13" width="6" height="6"></rect>
                    <text id="✏️Text备份-17" font-family="PingFangSC-Regular, PingFang SC" font-size="12" font-weight="normal" fill="#3889FF">
                        <tspan x="34" y="94">content1</tspan>
                    </text>
                    <text id="✏️Text备份-18" font-family="PingFangSC-Regular, PingFang SC" font-size="12" font-weight="normal" fill="#4588F4">
                        <tspan x="255" y="61">content1</tspan>
                    </text>
                    <g id="7.Icon/control/checkbox/Checked-备份" transform="translate(12.000000, 83.000000)">
                        <g id="icon/z/checkboxChecked-Copy备份-2" fill="#3889FF" fill-rule="nonzero">
                            <rect id="box" x="0" y="0" width="14" height="14" rx="2"></rect>
                        </g>
                        <g id="check备份-2" transform="translate(2.625000, 2.625000)" fill="#FFFFFF">
                            <rect id="Rectangle" opacity="0.01" x="0" y="0" width="8.75" height="8.75"></rect>
                            <path d="M8.28125,1.23046875 L7.59863281,1.23046875 C7.50292969,1.23046875 7.41210938,1.27441406 7.35351563,1.34960938 L3.32714844,6.45019531 L1.39648438,4.00390625 C1.33691406,3.92871094 1.24707031,3.88476562 1.15136719,3.88476562 L0.46875,3.88476562 C0.403320313,3.88476562 0.3671875,3.95996094 0.407226563,4.01074219 L3.08203125,7.39941406 C3.20703125,7.55761719 3.44726563,7.55761719 3.57324219,7.39941406 L8.34277344,1.35546875 C8.3828125,1.30566406 8.34667969,1.23046875 8.28125,1.23046875 Z" id="Path" stroke="#FFFFFF" stroke-width="0.833333333"></path>
                        </g>
                    </g>
                    <g id="Selected备份" transform="translate(233.000000, 50.000000)">
                        <g id="icon/z/checkboxChecked-Copy备份-3" fill="#3889FF" fill-rule="nonzero">
                            <rect id="box" x="0" y="0" width="14" height="14" rx="2"></rect>
                        </g>
                        <g id="check备份-3" transform="translate(2.625000, 2.625000)">
                            <rect id="Rectangle" fill="#000000" opacity="0" x="0" y="0" width="8.75" height="8.75"></rect>
                            <path d="M8.28125,1.23046875 L7.59863281,1.23046875 C7.50292969,1.23046875 7.41210938,1.27441406 7.35351563,1.34960938 L3.32714844,6.45019531 L1.39648438,4.00390625 C1.33691406,3.92871094 1.24707031,3.88476562 1.15136719,3.88476562 L0.46875,3.88476562 C0.403320313,3.88476562 0.3671875,3.95996094 0.407226563,4.01074219 L3.08203125,7.39941406 C3.20703125,7.55761719 3.44726563,7.55761719 3.57324219,7.39941406 L8.34277344,1.35546875 C8.3828125,1.30566406 8.34667969,1.23046875 8.28125,1.23046875 Z" id="Path" stroke="#FFFFFF" stroke-width="0.833333333" fill="#FFFFFF"></path>
                        </g>
                    </g>
                    <text id="✏️Text备份-19" font-family="PingFangSC-Regular, PingFang SC" font-size="12" font-weight="normal" fill="#525A6E">
                        <tspan x="34" y="156">content3</tspan>
                    </text>
                    <text id="✏️Text备份-20" font-family="PingFangSC-Regular, PingFang SC" font-size="12" font-weight="normal" fill="#525A6E">
                        <tspan x="255" y="125">content3</tspan>
                    </text>
                    <text id="✏️Text备份-21" font-family="PingFangSC-Regular, PingFang SC" font-size="12" font-weight="normal" fill="#525A6E">
                        <tspan x="34" y="187">content4</tspan>
                    </text>
                    <text id="✏️Text备份-22" font-family="PingFangSC-Regular, PingFang SC" font-size="12" font-weight="normal" fill="#525A6E">
                        <tspan x="255" y="156">content4</tspan>
                    </text>
                    <text id="✏️Text备份-23" font-family="PingFangSC-Regular, PingFang SC" font-size="12" font-weight="normal" fill="#525A6E">
                        <tspan x="34" y="218">content5</tspan>
                    </text>
                    <text id="✏️Text备份-24" font-family="PingFangSC-Regular, PingFang SC" font-size="12" font-weight="normal" fill="#525A6E">
                        <tspan x="255" y="187">content5</tspan>
                    </text>
                    <text id="✏️Text备份-25" font-family="PingFangSC-Regular, PingFang SC" font-size="12" font-weight="normal" fill="#525A6E">
                        <tspan x="34" y="250">content6</tspan>
                    </text>
                    <text id="✏️Text备份-26" font-family="PingFangSC-Regular, PingFang SC" font-size="12" font-weight="normal" fill="#525A6E">
                        <tspan x="255" y="218">content6</tspan>
                    </text>
                    <text id="✏️Text备份-27" font-family="PingFangSC-Regular, PingFang SC" font-size="12" font-weight="normal" fill="#525A6E">
                        <tspan x="255" y="250">content7</tspan>
                    </text>
                    <rect id="outline备份-7" stroke="#DBDFE6" fill-rule="nonzero" x="12.5" y="145.5" width="13" height="13" rx="2"></rect>
                    <rect id="outline备份-8" stroke="#DBDFE6" fill-rule="nonzero" x="12.5" y="176.5" width="13" height="13" rx="2"></rect>
                    <rect id="outline备份-9" stroke="#DBDFE6" fill-rule="nonzero" x="12.5" y="207.5" width="13" height="13" rx="2"></rect>
                    <rect id="outline备份-10" stroke="#DBDFE6" fill-rule="nonzero" x="12.5" y="239.5" width="13" height="13" rx="2"></rect>
                    <g id="Checked-2" transform="translate(233.000000, 114.000000)">
                        <rect id="Rectangle备份-3" x="2.625" y="2.625" width="8.75" height="8.75"></rect>
                        <rect id="outline备份-2" stroke="#DBDFE6" fill="#F8F8F8" fill-rule="nonzero" x="0.5" y="0.5" width="12.6744186" height="12.6744186" rx="2"></rect>
                        <path d="M10.5232411,4.10535425 C10.6915806,4.25692775 10.705172,4.51626842 10.5535985,4.68460785 L5.6619774,10.1173035 C5.61221077,10.1725749 5.55082654,10.2111641 5.48486016,10.2327023 C5.47916793,10.2336547 5.47346382,10.235622 5.46772893,10.2374591 C5.46037871,10.2399335 5.45302501,10.2417649 5.44563287,10.243391 C5.30240247,10.2810885 5.14359329,10.2390617 5.03754106,10.1212788 L5.03754106,10.1212788 L3.10535425,7.97536796 C2.95378075,7.80702853 2.96737222,7.54768786 3.13571165,7.39611436 C3.30405107,7.24454086 3.56339174,7.25813233 3.71496524,7.42647176 L3.71496524,7.42647176 L5.348,9.24 L9.94398753,4.13571165 C10.095561,3.96737222 10.3549017,3.95378075 10.5232411,4.10535425 Z" id="Combined-Shape备份" fill="#999999" fill-rule="nonzero"></path>
                    </g>
                    <g id="7.Icon/control/checkbox/Checked-备份-13" transform="translate(233.000000, 145.000000)">
                        <rect id="Rectangle备份-9" x="2.625" y="0.625" width="8.75" height="8.75"></rect>
                        <rect id="outline备份-3" stroke="#DBDFE6" fill="#F8F8F8" fill-rule="nonzero" x="0.5" y="0.5" width="12.6744186" height="12.6744186" rx="2"></rect>
                        <path d="M10.5232411,4.10535425 C10.6915806,4.25692775 10.705172,4.51626842 10.5535985,4.68460785 L5.6619774,10.1173035 C5.61221077,10.1725749 5.55082654,10.2111641 5.48486016,10.2327023 C5.47916793,10.2336547 5.47346382,10.235622 5.46772893,10.2374591 C5.46037871,10.2399335 5.45302501,10.2417649 5.44563287,10.243391 C5.30240247,10.2810885 5.14359329,10.2390617 5.03754106,10.1212788 L5.03754106,10.1212788 L3.10535425,7.97536796 C2.95378075,7.80702853 2.96737222,7.54768786 3.13571165,7.39611436 C3.30405107,7.24454086 3.56339174,7.25813233 3.71496524,7.42647176 L3.71496524,7.42647176 L5.348,9.24 L9.94398753,4.13571165 C10.095561,3.96737222 10.3549017,3.95378075 10.5232411,4.10535425 Z" id="Combined-Shape备份-2" fill="#999999" fill-rule="nonzero"></path>
                    </g>
                    <g id="7.Icon/control/checkbox/Checked-备份-14" transform="translate(233.000000, 176.000000)">
                        <rect id="Rectangle备份-10" x="2.625" y="2.625" width="8.75" height="8.75"></rect>
                        <rect id="outline备份-4" stroke="#DBDFE6" fill="#F8F8F8" fill-rule="nonzero" x="0.5" y="0.5" width="12.6744186" height="12.6744186" rx="2"></rect>
                        <path d="M10.5232411,4.10535425 C10.6915806,4.25692775 10.705172,4.51626842 10.5535985,4.68460785 L5.6619774,10.1173035 C5.61221077,10.1725749 5.55082654,10.2111641 5.48486016,10.2327023 C5.47916793,10.2336547 5.47346382,10.235622 5.46772893,10.2374591 C5.46037871,10.2399335 5.45302501,10.2417649 5.44563287,10.243391 C5.30240247,10.2810885 5.14359329,10.2390617 5.03754106,10.1212788 L5.03754106,10.1212788 L3.10535425,7.97536796 C2.95378075,7.80702853 2.96737222,7.54768786 3.13571165,7.39611436 C3.30405107,7.24454086 3.56339174,7.25813233 3.71496524,7.42647176 L3.71496524,7.42647176 L5.348,9.24 L9.94398753,4.13571165 C10.095561,3.96737222 10.3549017,3.95378075 10.5232411,4.10535425 Z" id="Combined-Shape" fill="#999999" fill-rule="nonzero"></path>
                    </g>
                    <g id="-Unselected备份" transform="translate(233.000000, 207.000000)">
                        <rect id="Rectangle备份-11" x="2.625" y="2.625" width="8.75" height="8.75"></rect>
                        <rect id="outline备份-5" stroke="#DBDFE6" fill-rule="nonzero" x="0.662790698" y="0.662790698" width="12.6744186" height="12.6744186" rx="2"></rect>
                    </g>
                    <g id="7.Icon/control/checkbox/Checked-备份-16" transform="translate(233.000000, 239.000000)">
                        <rect id="Rectangle备份-12" x="2.625" y="2.625" width="8.75" height="8.75"></rect>
                        <rect id="outline备份-11" stroke="#DBDFE6" fill-rule="nonzero" x="0.662790698" y="0.662790698" width="12.6744186" height="12.6744186" rx="2"></rect>
                    </g>
                    <text id="✏️Text备份-28" font-family="PingFangSC-Regular, PingFang SC" font-size="12" font-weight="normal" fill="#3889FF">
                        <tspan x="34" y="125">content2</tspan>
                    </text>
                    <text id="✏️Text备份-29" font-family="PingFangSC-Regular, PingFang SC" font-size="12" font-weight="normal" fill="#4588F4">
                        <tspan x="255" y="93">content2</tspan>
                    </text>
                    <g id="7.Icon/control/checkbox/Checked-备份-2" transform="translate(12.000000, 114.000000)">
                        <g id="icon/z/checkboxChecked-Copy备份-4" fill="#3889FF" fill-rule="nonzero">
                            <rect id="box" x="0" y="0" width="14" height="14" rx="2"></rect>
                        </g>
                        <g id="check备份-4" transform="translate(2.625000, 2.625000)">
                            <rect id="Rectangle" fill="#618FE8" opacity="0" x="0" y="0" width="8.75" height="8.75"></rect>
                            <path d="M8.28125,1.23046875 L7.59863281,1.23046875 C7.50292969,1.23046875 7.41210938,1.27441406 7.35351563,1.34960938 L3.32714844,6.45019531 L1.39648438,4.00390625 C1.33691406,3.92871094 1.24707031,3.88476562 1.15136719,3.88476562 L0.46875,3.88476562 C0.403320313,3.88476562 0.3671875,3.95996094 0.407226563,4.01074219 L3.08203125,7.39941406 C3.20703125,7.55761719 3.44726563,7.55761719 3.57324219,7.39941406 L8.34277344,1.35546875 C8.3828125,1.30566406 8.34667969,1.23046875 8.28125,1.23046875 Z" id="Path" stroke="#FFFFFF" stroke-width="0.833333333" fill="#FFFFFF"></path>
                        </g>
                    </g>
                    <g id="Checked" transform="translate(233.000000, 82.000000)">
                        <g id="icon/z/checkboxChecked-Copy备份-5" fill="#3889FF" fill-rule="nonzero">
                            <rect id="box" x="0" y="0" width="14" height="14" rx="2"></rect>
                        </g>
                        <g id="check备份-5" transform="translate(2.625000, 2.625000)">
                            <rect id="Rectangle" fill="#618FE8" opacity="0" x="0" y="0" width="8.75" height="8.75"></rect>
                            <path d="M8.28125,1.23046875 L7.59863281,1.23046875 C7.50292969,1.23046875 7.41210938,1.27441406 7.35351563,1.34960938 L3.32714844,6.45019531 L1.39648438,4.00390625 C1.33691406,3.92871094 1.24707031,3.88476562 1.15136719,3.88476562 L0.46875,3.88476562 C0.403320313,3.88476562 0.3671875,3.95996094 0.407226563,4.01074219 L3.08203125,7.39941406 C3.20703125,7.55761719 3.44726563,7.55761719 3.57324219,7.39941406 L8.34277344,1.35546875 C8.3828125,1.30566406 8.34667969,1.23046875 8.28125,1.23046875 Z" id="Path" stroke="#FFFFFF" stroke-width="0.833333333" fill="#FFFFFF"></path>
                        </g>
                    </g>
                    <g id="编组备份" transform="translate(12.000000, 40.000000)">
                        <g id="search-2" transform="translate(166.000000, 7.000000)">
                            <rect id="矩形" fill="#D8D8D8" opacity="0.01" x="0" y="0" width="12" height="12"></rect>
                            <g id="编组-13" stroke="#BFBFBF">
                                <circle id="椭圆形" cx="5" cy="5" r="4.5"></circle>
                                <rect id="矩形" fill="#D8D8D8" transform="translate(9.596194, 9.596194) rotate(-45.000000) translate(-9.596194, -9.596194) " x="9.59619408" y="7.59619408" width="1" height="4" rx="0.5"></rect>
                            </g>
                        </g>
                        <rect id="outline备份-12" stroke="#DBDFE6" fill-rule="nonzero" x="0.5" y="0.5" width="183" height="25" rx="4"></rect>
                        <text id="Search-here" font-family="PingFangSC-Regular, PingFang SC" font-size="12" font-weight="normal" fill="#999999">
                            <tspan x="8" y="18">Search here</tspan>
                        </text>
                    </g>
                    <rect id="矩形备份-15" fill="#DBDFE6" x="208" y="1" width="1" height="270"></rect>
                    <g id="编组-8" transform="translate(197.000000, 123.000000)" fill-rule="nonzero">
                        <g id="9.Box/1.Cards/8.Primary备份-2" fill="#3889FF">
                            <g id="Z/Shape/RectangleRC/4px/RC-A备份">
                                <rect id="outline备份-13" x="0" y="0" width="24" height="24" rx="2"></rect>
                            </g>
                        </g>
                        <g id="9.Box/1.Cards/8.Primary备份-3" transform="translate(0.000000, 24.000000)" fill="#FFFFFF" stroke="#DBDFE6">
                            <g id="Z/Shape/RectangleRC/4px/RC-A">
                                <rect id="outline备份-14" x="0.5" y="0.5" width="23" height="23" rx="2"></rect>
                            </g>
                        </g>
                        <g id="箭头_右" transform="translate(4.000000, 4.000000)">
                            <rect id="矩形" fill="#000000" opacity="0" x="0" y="0" width="16" height="16"></rect>
                            <path d="M10.4935781,7.99548438 L9.87610937,7.37801562 L6.27154687,3.77345313 L6.27121875,3.77378125 C6.26709823,3.76926145 6.26288377,3.76482819 6.25857812,3.76048437 C6.08771875,3.589625 5.81071875,3.589625 5.63985937,3.76048437 C5.469,3.93134375 5.469,4.20834375 5.63985937,4.37920313 C5.64420312,4.38354688 5.64867187,4.38771875 5.65315625,4.39184375 L5.65282812,4.39217188 L9.257375,7.99671875 L5.6333125,11.6207813 C5.46245312,11.7916406 5.46245312,12.0686406 5.6333125,12.2395 C5.80417187,12.4103594 6.08117187,12.4103594 6.25203125,12.2395 L10.4948125,7.99671875 L10.4935781,7.99548438 Z" id="路径" fill="#FFFFFF"></path>
                        </g>
                        <g id="箭头_左" transform="translate(12.000000, 36.000000) scale(-1, 1) translate(-12.000000, -36.000000) translate(4.000000, 28.000000)">
                            <rect id="矩形" fill="#000000" opacity="0" x="0" y="0" width="16" height="16"></rect>
                            <path d="M10.4935781,7.99548438 L9.87610937,7.37801562 L6.27154687,3.77345313 L6.27121875,3.77378125 C6.26709823,3.76926145 6.26288377,3.76482819 6.25857812,3.76048437 C6.08771875,3.589625 5.81071875,3.589625 5.63985937,3.76048437 C5.469,3.93134375 5.469,4.20834375 5.63985937,4.37920313 C5.64420312,4.38354688 5.64867187,4.38771875 5.65315625,4.39184375 L5.65282812,4.39217188 L9.257375,7.99671875 L5.6333125,11.6207813 C5.46245312,11.7916406 5.46245312,12.0686406 5.6333125,12.2395 C5.80417187,12.4103594 6.08117187,12.4103594 6.25203125,12.2395 L10.4948125,7.99671875 L10.4935781,7.99548438 Z" id="路径" fill="#525A6E"></path>
                        </g>
                    </g>
                </g>
                <text id="style" font-family="MicrosoftYaHei, Microsoft YaHei" font-size="12" font-weight="normal" line-spacing="22" fill="#525A6E">
                    <tspan x="8" y="27">style</tspan>
                </text>
            </g>
        </g>
    </g>
</svg>