<?xml version="1.0" encoding="UTF-8"?>
<svg width="494px" height="52px" viewBox="0 0 494 52" version="1.1" xmlns="http://www.w3.org/2000/svg" xmlns:xlink="http://www.w3.org/1999/xlink">
    <!-- Generator: Sketch 58 (84663) - https://sketch.com -->
    <title>checkbox/checkbox-btn/style2</title>
    <desc>Created with Sketch.</desc>
    <g id="页面-1" stroke="none" stroke-width="1" fill="none" fill-rule="evenodd">
        <g id="编组-52备份-2" transform="translate(-506.000000, -187.000000)">
            <g id="checkbox/checkbox-btn/style2" transform="translate(506.000000, 187.000000)">
                <g id="编组-20">
                    <rect id="矩形备份" fill-opacity="0.01" fill="#FAFAFA" x="0" y="0" width="494" height="52"></rect>
                    <g id="编组-5" transform="translate(58.000000, 15.000000)">
                        <rect id="矩形" stroke="#4F7DE7" x="0.5" y="0.5" width="31" height="21" rx="10.5"></rect>
                        <path d="M16.1679688,15.0761719 L14.8730469,15.0761719 L13.9472656,12.5917969 L10.1679688,12.5917969 L9.29492188,15.0761719 L8,15.0761719 L11.4570312,6 L12.7109375,6 L16.1679688,15.0761719 Z M13.5839844,11.5664062 L12.2128906,7.79296875 C12.1699217,7.67187439 12.1230471,7.460939 12.0722656,7.16015625 L12.0429688,7.16015625 C11.9999998,7.43359512 11.9511721,7.64453051 11.8964844,7.79296875 L10.5371094,11.5664062 L13.5839844,11.5664062 Z M20.1464844,6 C20.9433634,6 21.5800757,6.19042778 22.0566406,6.57128906 C22.5332055,6.95215034 22.7714844,7.45702811 22.7714844,8.0859375 C22.7714844,8.58594 22.6298842,9.02734184 22.3466797,9.41015625 C22.0634751,9.79297066 21.6738306,10.0644523 21.1777344,10.2246094 L21.1777344,10.2480469 C21.794925,10.3183597 22.2880841,10.5517558 22.6572266,10.9482422 C23.026369,11.3447285 23.2109375,11.8476532 23.2109375,12.4570312 C23.2109375,13.2382852 22.9306669,13.8701148 22.3701172,14.3525391 C21.8095675,14.8349633 21.0918012,15.0761719 20.2167969,15.0761719 L17.4804688,15.0761719 L17.4804688,6 L20.1464844,6 Z M19.8652344,10.8867188 L18.6523438,10.8867188 L18.6523438,14.0507812 L20.0585938,14.0507812 C20.6718781,14.0507812 21.1455061,13.9091811 21.4794922,13.6259766 C21.8134782,13.342772 21.9804688,12.9492213 21.9804688,12.4453125 C21.9804688,11.4062448 21.2753977,10.8867188 19.8652344,10.8867188 L19.8652344,10.8867188 Z M19.8242188,7.02539062 L18.6523438,7.02539062 L18.6523438,9.8671875 L19.71875,9.8671875 C20.2851591,9.8671875 20.7294906,9.72949356 21.0517578,9.45410156 C21.374025,9.17870956 21.5351562,8.79687744 21.5351562,8.30859375 C21.5351562,7.45312072 20.9648495,7.02539062 19.8242188,7.02539062 Z" id="AB" fill="#4F7DE7" fill-rule="nonzero"></path>
                    </g>
                    <g id="编组-5" transform="translate(98.000000, 15.000000)">
                        <rect id="矩形" stroke="#4F7DE7" x="0.5" y="0.5" width="31" height="21" rx="10.5"></rect>
                        <path d="M9,15.2285156 L9,6.15234375 L11.6660156,6.15234375 C12.4628946,6.15234375 13.099607,6.34277153 13.5761719,6.72363281 C14.0527368,7.10449409 14.2910156,7.60937186 14.2910156,8.23828125 C14.2910156,8.73828375 14.1494155,9.17968559 13.8662109,9.5625 C13.5830064,9.94531441 13.1933619,10.2167961 12.6972656,10.3769531 L12.6972656,10.4003906 C13.3144562,10.4707035 13.8076153,10.7040996 14.1767578,11.1005859 C14.5459003,11.4970723 14.7304688,11.999997 14.7304688,12.609375 C14.7304688,13.3906289 14.4501981,14.0224585 13.8896484,14.5048828 C13.3290988,14.9873071 12.6113325,15.2285156 11.7363281,15.2285156 L9,15.2285156 Z M10.171875,7.17773438 L10.171875,10.0195312 L11.2382812,10.0195312 C11.8046903,10.0195312 12.2490218,9.88183731 12.5712891,9.60644531 C12.8935563,9.33105331 13.0546875,8.94922119 13.0546875,8.4609375 C13.0546875,7.60546447 12.4843807,7.17773438 11.34375,7.17773438 L10.171875,7.17773438 Z M10.171875,11.0390625 L10.171875,14.203125 L11.578125,14.203125 C12.1914093,14.203125 12.6650374,14.0615249 12.9990234,13.7783203 C13.3330095,13.4951158 13.5,13.101565 13.5,12.5976562 C13.5,11.5585886 12.7949289,11.0390625 11.3847656,11.0390625 L10.171875,11.0390625 Z M22.7402344,14.8535156 C22.0722623,15.2050799 21.23438,15.3808594 20.2265625,15.3808594 C18.9257747,15.3808594 17.8867226,14.9677776 17.109375,14.1416016 C16.3320274,13.3154256 15.9433594,12.222663 15.9433594,10.8632812 C15.9433594,9.40233645 16.380855,8.22656695 17.2558594,7.3359375 C18.1308637,6.44530805 19.2421808,6 20.5898438,6 C21.4570356,6 22.1738253,6.12304564 22.7402344,6.36914062 L22.7402344,7.59375 C22.0917936,7.2343732 21.3789101,7.0546875 20.6015625,7.0546875 C19.5898387,7.0546875 18.7656282,7.39159819 18.1289062,8.06542969 C17.4921843,8.73926118 17.1738281,9.64843178 17.1738281,10.7929688 C17.1738281,11.8789117 17.4707002,12.7412077 18.0644531,13.3798828 C18.6582061,14.0185579 19.4355421,14.3378906 20.3964844,14.3378906 C21.2949264,14.3378906 22.0761686,14.1347677 22.7402344,13.7285156 L22.7402344,14.8535156 Z" id="BC" fill="#4F7DE7" fill-rule="nonzero"></path>
                    </g>
                    <g id="编组-5" transform="translate(138.000000, 15.000000)">
                        <rect id="矩形" stroke="#D5DAE0" x="0.5" y="0.5" width="33" height="21" rx="10.5"></rect>
                        <path d="M15.796875,14.8535156 C15.1289029,15.2050799 14.2910207,15.3808594 13.2832031,15.3808594 C11.9824154,15.3808594 10.9433633,14.9677776 10.1660156,14.1416016 C9.38866799,13.3154256 9,12.222663 9,10.8632812 C9,9.40233645 9.43749563,8.22656695 10.3125,7.3359375 C11.1875044,6.44530805 12.2988214,6 13.6464844,6 C14.5136762,6 15.2304659,6.12304564 15.796875,6.36914062 L15.796875,7.59375 C15.1484343,7.2343732 14.4355508,7.0546875 13.6582031,7.0546875 C12.6464793,7.0546875 11.8222688,7.39159819 11.1855469,8.06542969 C10.5488249,8.73926118 10.2304688,9.64843178 10.2304688,10.7929688 C10.2304688,11.8789117 10.5273408,12.7412077 11.1210938,13.3798828 C11.7148467,14.0185579 12.4921827,14.3378906 13.453125,14.3378906 C14.351567,14.3378906 15.1328092,14.1347677 15.796875,13.7285156 L15.796875,14.8535156 Z M20.203125,6.15234375 C21.5781319,6.15234375 22.7216751,6.55273037 23.6337891,7.35351562 C24.545903,8.15430088 25.0019531,9.22850889 25.0019531,10.5761719 C25.0019531,11.9824289 24.545903,13.1093708 23.6337891,13.9570312 C22.7216751,14.8046917 21.5468822,15.2285156 20.109375,15.2285156 L17.6132812,15.2285156 L17.6132812,6.15234375 L20.203125,6.15234375 Z M20.15625,7.1953125 L18.7851562,7.1953125 L18.7851562,14.1914062 L20.1035156,14.1914062 C21.2558651,14.1914062 22.1552702,13.8769563 22.8017578,13.2480469 C23.4482454,12.6191375 23.7714844,11.7382869 23.7714844,10.6054688 C23.7714844,9.47265059 23.4394564,8.6210966 22.7753906,8.05078125 C22.1113248,7.4804659 21.2382867,7.1953125 20.15625,7.1953125 L20.15625,7.1953125 Z" id="CD" fill="#5A6677" fill-rule="nonzero"></path>
                    </g>
                    <g id="编组-5" transform="translate(180.000000, 15.000000)" fill-rule="nonzero">
                        <rect id="矩形" stroke="#DBDFE6" x="0.5" y="0.5" width="33" height="21" rx="10.5"></rect>
                        <path d="M15.796875,14.8535156 C15.1289029,15.2050799 14.2910207,15.3808594 13.2832031,15.3808594 C11.9824154,15.3808594 10.9433633,14.9677776 10.1660156,14.1416016 C9.38866799,13.3154256 9,12.222663 9,10.8632812 C9,9.40233645 9.43749563,8.22656695 10.3125,7.3359375 C11.1875044,6.44530805 12.2988214,6 13.6464844,6 C14.5136762,6 15.2304659,6.12304564 15.796875,6.36914062 L15.796875,7.59375 C15.1484343,7.2343732 14.4355508,7.0546875 13.6582031,7.0546875 C12.6464793,7.0546875 11.8222688,7.39159819 11.1855469,8.06542969 C10.5488249,8.73926118 10.2304688,9.64843178 10.2304688,10.7929688 C10.2304688,11.8789117 10.5273408,12.7412077 11.1210938,13.3798828 C11.7148467,14.0185579 12.4921827,14.3378906 13.453125,14.3378906 C14.351567,14.3378906 15.1328092,14.1347677 15.796875,13.7285156 L15.796875,14.8535156 Z M20.203125,6.15234375 C21.5781319,6.15234375 22.7216751,6.55273037 23.6337891,7.35351562 C24.545903,8.15430088 25.0019531,9.22850889 25.0019531,10.5761719 C25.0019531,11.9824289 24.545903,13.1093708 23.6337891,13.9570312 C22.7216751,14.8046917 21.5468822,15.2285156 20.109375,15.2285156 L17.6132812,15.2285156 L17.6132812,6.15234375 L20.203125,6.15234375 Z M20.15625,7.1953125 L18.7851562,7.1953125 L18.7851562,14.1914062 L20.1035156,14.1914062 C21.2558651,14.1914062 22.1552702,13.8769563 22.8017578,13.2480469 C23.4482454,12.6191375 23.7714844,11.7382869 23.7714844,10.6054688 C23.7714844,9.47265059 23.4394564,8.6210966 22.7753906,8.05078125 C22.1113248,7.4804659 21.2382867,7.1953125 20.15625,7.1953125 L20.15625,7.1953125 Z" id="CD" fill="#AAADBA"></path>
                    </g>
                    <path d="M11.8554688,27.78125 L15.2890625,27.78125 L15.2890625,25.859375 L12.734375,25.859375 L12.734375,25.0390625 L15.2890625,25.0390625 L15.2890625,23.1992188 L12.4648438,23.1992188 L12.4648438,22.3789062 L16.0859375,22.3789062 C16.7343782,21.4414016 17.2226546,20.6679718 17.5507812,20.0585938 L18.4179688,20.609375 C18.0117167,21.1640653 17.5625025,21.7539031 17.0703125,22.3789062 L19.2148438,22.3789062 L19.2148438,23.1992188 L16.203125,23.1992188 L16.203125,25.0390625 L18.8867188,25.0390625 L18.8867188,25.859375 L16.203125,25.859375 L16.203125,27.78125 L19.5898438,27.78125 L19.5898438,28.6015625 L16.203125,28.6015625 L16.203125,31.6601562 L15.2890625,31.6601562 L15.2890625,28.6015625 L11.8554688,28.6015625 L11.8554688,27.78125 Z M8,27.4296875 C8.75781629,26.2656192 9.34765414,24.8789143 9.76953125,23.2695312 L8.12890625,23.2695312 L8.12890625,22.484375 L9.86328125,22.484375 L9.86328125,20.1640625 L10.71875,20.1640625 L10.71875,22.484375 L12.0898438,22.484375 L12.0898438,23.2695312 L10.71875,23.2695312 L10.71875,25.109375 L11.1875,24.6875 C11.695315,25.1875025 12.19531,25.7031223 12.6875,26.234375 L12.0195312,26.84375 L11.3782803,26.1162489 C11.0979683,25.8012494 10.8781258,25.5593758 10.71875,25.390625 L10.71875,31.6601562 L9.86328125,31.6601562 L9.86328125,25.2265625 C9.44140414,26.4921938 8.9609402,27.5664018 8.421875,28.4492188 C8.30468691,28.1132796 8.16406332,27.7734392 8,27.4296875 Z M13.1328125,20.5625 L13.8242188,20.046875 L14.2096365,20.486691 C14.6289077,20.9721272 14.9418392,21.3606756 15.1484375,21.6523438 L14.3515625,22.203125 C13.8906227,21.5390592 13.4843768,20.9921896 13.1328125,20.5625 Z M20,22.296875 L26.515625,22.296875 C26.4843748,21.5742151 26.4609376,20.8085978 26.4453125,20 L27.4414062,20 C27.4375,20.7734414 27.4492186,21.5390587 27.4765625,22.296875 L31.5078125,22.296875 L31.5078125,23.1757812 L27.5175781,23.1757812 C27.6699226,27.1133009 28.3281192,29.503902 29.4921875,30.3476562 C29.9140646,30.691408 30.2109366,30.5976589 30.3828125,30.0664062 C30.5,29.6601542 30.6054683,29.0585977 30.6992188,28.2617188 C31.0664081,28.3945319 31.3828112,28.4960934 31.6484375,28.5664062 C31.5,29.4804733 31.3398446,30.2187472 31.1679688,30.78125 C30.9804678,31.3203152 30.6210964,31.5898438 30.0898438,31.5898438 C29.5507786,31.5898438 29.0156277,31.316409 28.484375,30.7695312 C27.3671819,29.5820253 26.7285164,27.0508006 26.5683594,23.1757812 L20,23.1757812 L20,22.296875 Z M20.046875,29.7265625 C20.9296919,29.6210932 21.8359329,29.50586 22.765625,29.3808594 L22.765625,26.09375 L20.4804688,26.09375 L20.4804688,25.2148438 L25.9882812,25.2148438 L25.9882812,26.09375 L23.7265625,26.09375 L23.7265625,29.2460938 C24.6367233,29.1171869 25.5703077,28.9804695 26.5273438,28.8359375 C26.5117187,29.1406265 26.5039062,29.4570296 26.5039062,29.7851562 L23.8151538,30.1751566 C22.5373438,30.3635937 21.3593804,30.5421867 20.28125,30.7109375 L20.046875,29.7265625 Z M28.34375,20.6914062 L28.90625,20.09375 C29.4687528,20.500002 30.0390596,20.9609349 30.6171875,21.4765625 L29.9492188,22.1679688 C29.4492162,21.6601537 28.9140654,21.1679711 28.34375,20.6914062 Z M33.0429688,21.5585938 L42.6054688,21.5585938 L42.6054688,22.5664062 L33.0429688,22.5664062 L33.0429688,21.5585938 Z M32.1757812,29.234375 L43.4375,29.234375 L43.4375,30.21875 L32.1757812,30.21875 L32.1757812,29.234375 Z" id="样式二" fill="#525A6E" fill-rule="nonzero"></path>
                </g>
            </g>
        </g>
    </g>
</svg>