<?xml version="1.0" encoding="UTF-8"?>
<svg width="494px" height="174px" viewBox="0 0 494 174" version="1.1" xmlns="http://www.w3.org/2000/svg" xmlns:xlink="http://www.w3.org/1999/xlink">
    <!-- Generator: Sketch 58 (84663) - https://sketch.com -->
    <title>list-single+operate/style3</title>
    <desc>Created with Sketch.</desc>
    <defs>
        <rect id="path-1" x="64" y="50" width="400" height="52" rx="1.5"></rect>
        <filter x="-1.2%" y="-7.7%" width="102.5%" height="119.2%" filterUnits="objectBoundingBox" id="filter-2">
            <feOffset dx="0" dy="1" in="SourceAlpha" result="shadowOffsetOuter1"></feOffset>
            <feGaussianBlur stdDeviation="1.5" in="shadowOffsetOuter1" result="shadowBlurOuter1"></feGaussianBlur>
            <feColorMatrix values="0 0 0 0 0   0 0 0 0 0   0 0 0 0 0  0 0 0 0.2 0" type="matrix" in="shadowBlurOuter1"></feColorMatrix>
        </filter>
        <rect id="path-3" x="64" y="106" width="400" height="52" rx="1.5"></rect>
        <filter x="-1.2%" y="-7.7%" width="102.5%" height="119.2%" filterUnits="objectBoundingBox" id="filter-4">
            <feOffset dx="0" dy="1" in="SourceAlpha" result="shadowOffsetOuter1"></feOffset>
            <feGaussianBlur stdDeviation="1.5" in="shadowOffsetOuter1" result="shadowBlurOuter1"></feGaussianBlur>
            <feColorMatrix values="0 0 0 0 0   0 0 0 0 0   0 0 0 0 0  0 0 0 0.2 0" type="matrix" in="shadowBlurOuter1"></feColorMatrix>
        </filter>
    </defs>
    <g id="页面-1" stroke="none" stroke-width="1" fill="none" fill-rule="evenodd">
        <g id="list-single+operate/style3">
            <g id="编组-20">
                <rect id="矩形备份" fill-opacity="0.01" fill="#FFFFFF" x="0" y="0" width="494" height="174"></rect>
                <g id="编组-3" transform="translate(64.000000, 20.000000)" fill="#333333" font-family="MicrosoftYaHei, Microsoft YaHei" font-size="14" font-weight="normal" line-spacing="22">
                    <text id="标题文案">
                        <tspan x="0" y="15">标题文案</tspan>
                    </text>
                </g>
                <g id="矩形">
                    <use fill="black" fill-opacity="1" filter="url(#filter-2)" xlink:href="#path-1"></use>
                    <use fill="#FFFFFF" fill-rule="evenodd" xlink:href="#path-1"></use>
                </g>
                <g id="编组-15" transform="translate(396.000000, 62.000000)">
                    <rect id="矩形" stroke="#D5DAE0" fill="#FFFFFF" x="0.5" y="0.5" width="55" height="27" rx="1.5"></rect>
                    <path d="M27.9179688,18.5878906 C27.6992177,18.869142 27.5078133,19.1347644 27.34375,19.3847656 C25.8554613,18.7988252 24.6953167,18.0234423 23.8632812,17.0585938 L23.8632812,19.7832031 L23.0898438,19.7832031 L23.0898438,17.0585938 C22.1132764,18.0156298 20.9062572,18.8066375 19.46875,19.4316406 C19.3359368,19.1972645 19.1562511,18.947267 18.9296875,18.6816406 C20.4492263,18.1464817 21.6894483,17.4355513 22.6503906,16.5488281 L19.4335938,16.5488281 L19.4335938,15.8222656 L23.0898438,15.8222656 L23.0898438,15.1074219 L23.8632812,15.1074219 L23.8632812,15.8222656 L27.6835938,15.8222656 L27.6835938,16.5488281 L24.2441406,16.5488281 C25.1152387,17.4550827 26.3398359,18.1347634 27.9179688,18.5878906 Z M16.2929688,15.4003906 L16.1640625,14.4160156 L16.7040627,14.2425781 C16.9862495,14.1488283 17.2867172,14.0445318 17.6054688,13.9296875 L17.6054688,11.2636719 L16.2695312,11.2636719 L16.2695312,10.4667969 L17.6054688,10.4667969 L17.6054688,8.28710938 L18.4726562,8.28710938 L18.4726562,10.4667969 L19.7734375,10.4667969 L19.7734375,11.2636719 L18.4726562,11.2636719 L18.4726562,13.6074219 L19.1940099,13.3261721 C19.3185757,13.276693 19.4453119,13.2259117 19.5742188,13.1738281 L19.5976562,14.0996094 L19.5976562,14.0996094 L18.4726562,14.5332031 L18.4726562,14.5332031 L18.4726562,18.4238281 C18.4726562,19.205082 18.1054688,19.6074218 17.3710938,19.6308594 C17.0742173,19.6464845 16.7031272,19.6464845 16.2578125,19.6308594 C16.2187498,19.3183578 16.1679691,19.0058609 16.1054688,18.6933594 C16.5429709,18.7402346 16.9023423,18.7636719 17.1835938,18.7636719 C17.4648452,18.7636719 17.6054688,18.6152359 17.6054688,18.3183594 L17.6054688,14.8789062 L16.6408699,15.2601315 C16.5271004,15.3057858 16.4111334,15.3525388 16.2929688,15.4003906 Z M20.7578125,8.74414062 L26.3125,8.74414062 L26.3125,11.6152344 L25.46875,11.6152344 L25.46875,11.2988281 L21.6015625,11.2988281 L21.6015625,11.6152344 L20.7578125,11.6152344 L20.7578125,8.74414062 Z M23.9921875,12.0957031 L27.15625,12.0957031 L27.15625,14.9785156 L26.4296875,14.9785156 L26.4296875,14.6152344 L24.71875,14.6152344 L24.71875,14.9433594 L23.9921875,14.9433594 L23.9921875,12.0957031 Z M19.9257812,12.1191406 L23.0195312,12.1191406 L23.0195312,14.9433594 L22.2929688,14.9433594 L22.2929688,14.6269531 L20.6523438,14.6269531 L20.6523438,14.9785156 L19.9257812,14.9785156 L19.9257812,12.1191406 Z M25.46875,9.44726562 L21.6015625,9.44726562 L21.6015625,10.5957031 L25.46875,10.5957031 L25.46875,9.44726562 Z M26.4296875,12.7753906 L24.71875,12.7753906 L24.71875,13.9355469 L26.4296875,13.9355469 L26.4296875,12.7753906 Z M22.2929688,12.7988281 L20.6523438,12.7988281 L20.6523438,13.9472656 L22.2929688,13.9472656 L22.2929688,12.7988281 Z M31.3867188,12.9746094 C32.4257864,11.5527273 33.1914038,9.96680562 33.6835938,8.21679688 L34.6445312,8.39257812 C34.4609366,8.99414363 34.2539074,9.57616906 34.0234375,10.1386719 L39.8007812,10.1386719 L39.8007812,10.9589844 L35.5351562,10.9589844 L35.5351562,13.0097656 L39.3320312,13.0097656 L39.3320312,13.8300781 L35.5351562,13.8300781 L35.5351562,15.9628906 L39.484375,15.9628906 L39.484375,16.7832031 L35.5351562,16.7832031 L35.5351562,19.7363281 L34.6210938,19.7363281 L34.6210938,10.9589844 L33.6660156,10.9589844 C33.2246072,11.9121141 32.7109404,12.8066364 32.125,13.6425781 C31.9062489,13.4316396 31.6601576,13.2089855 31.3867188,12.9746094 Z M28.1289062,14.0527344 C29.2304743,12.4199137 30.1015593,10.4863393 30.7421875,8.25195312 L31.703125,8.53320312 C31.4023422,9.45508273 31.0820329,10.3203085 30.7421875,11.1289062 L30.7421875,19.7363281 L29.828125,19.7363281 L29.828125,13.0390625 C29.4335918,13.7773474 29.0156272,14.4511688 28.5742188,15.0605469 C28.4570307,14.7636704 28.3085946,14.4277363 28.1289062,14.0527344 Z" id="操作" fill="#333333" fill-rule="nonzero"></path>
                </g>
                <circle id="椭圆形" fill="#D8D8D8" cx="94" cy="76" r="18"></circle>
                <path d="M126.179688,76.5625 L126.753906,75.90625 C127.347659,76.3945337 127.888669,76.8730445 128.376953,77.3417969 C128.900393,76.4355423 129.26953,75.4531303 129.484375,74.3945312 L126.847656,74.3945312 C126.234372,75.8007883 125.480473,77.0664006 124.585938,78.1914062 C124.414062,77.7929668 124.257813,77.4804699 124.117188,77.2539062 C125.296881,75.6679608 126.205075,73.8125106 126.841797,71.6875 L124.503906,71.6875 L124.503906,70.84375 L131.078125,70.84375 L131.078125,71.6875 L127.808594,71.6875 C127.624999,72.3320345 127.419923,72.953122 127.193359,73.5507812 L130.445312,73.5507812 L130.445312,74.40625 C129.804684,77.609391 128.121107,80.0820225 125.394531,81.8242188 C125.191405,81.5898426 124.94922,81.3515637 124.667969,81.109375 C126.003913,80.2460894 127.074215,79.2480525 127.878906,78.1152344 C127.433592,77.6777322 126.867191,77.1601592 126.179688,76.5625 Z M134.160156,70.421875 L135.097656,70.421875 L135.097656,80.1015625 C135.097656,81.093755 134.648442,81.59375 133.75,81.6015625 L133.43287,81.6050347 C133.027103,81.6070602 132.496097,81.6019966 131.839844,81.5898438 C131.800781,81.230467 131.738282,80.878908 131.652344,80.5351562 L132.38672,80.5937502 C132.829428,80.6250002 133.178384,80.640625 133.433594,80.640625 C133.917971,80.640625 134.160156,80.3789089 134.160156,79.8554688 L134.160156,70.421875 Z M132.472656,78.8945312 L131.570312,78.8945312 L131.570312,71.7226562 L132.472656,71.7226562 L132.472656,78.8945312 Z M146.347656,76.6796875 L146.992188,77.4882812 L144.373047,78.8007812 C145.29102,79.550785 146.441399,80.0468738 147.824219,80.2890625 C147.558592,80.6328142 147.339845,80.9453111 147.167969,81.2265625 C144.648425,80.624997 142.841802,79.0761844 141.748047,76.5800781 C141.349607,77.0878932 140.894534,77.5703102 140.382812,78.0273438 L140.382812,80.5351562 C141.414068,80.1992171 142.371089,79.8476581 143.253906,79.4804688 C143.246094,79.8242205 143.25,80.1640625 143.265625,80.5 C142.32812,80.8203141 141.35938,81.1718731 140.359375,81.5546875 C140.148436,81.6406254 139.941407,81.7421869 139.738281,81.859375 L139.1875,81.0039062 C139.406251,80.8476555 139.515625,80.6289077 139.515625,80.3476562 L139.515625,78.7363281 C138.707027,79.3417999 137.789068,79.8906225 136.761719,80.3828125 C136.589843,80.1093736 136.390626,79.8398451 136.164062,79.5742188 C138.183604,78.7460896 139.769525,77.6367257 140.921875,76.2460938 L136.292969,76.2460938 L136.292969,75.4375 L141.542969,75.4375 L141.542969,74.2421875 L137.125,74.2421875 L137.125,73.4335938 L141.542969,73.4335938 L141.542969,72.2851562 L136.65625,72.2851562 L136.65625,71.4765625 L141.542969,71.4765625 L141.542969,70.1640625 L142.46875,70.1640625 L142.46875,71.4765625 L147.378906,71.4765625 L147.378906,72.2851562 L142.46875,72.2851562 L142.46875,73.4335938 L146.875,73.4335938 L146.875,74.2421875 L142.46875,74.2421875 L142.46875,75.4375 L147.707031,75.4375 L147.707031,76.2460938 L142.498047,76.2460938 C142.826174,77.0078163 143.248044,77.667966 143.763672,78.2265625 C144.548832,77.8359355 145.410152,77.3203157 146.347656,76.6796875 Z M148.363281,72.2734375 L153.988281,72.2734375 L153.622395,71.5911445 C153.397569,71.1814227 153.210938,70.8619803 153.0625,70.6328125 L153.964844,70.2109375 L154.220052,70.6171874 C154.414496,70.9348949 154.657551,71.3463516 154.949219,71.8515625 L154.105469,72.2734375 L159.613281,72.2734375 L159.613281,73.140625 L157.451172,73.140625 C157.033201,75.3711049 156.134773,77.1640557 154.755859,78.5195312 C155.794927,79.2773475 157.445301,79.9570282 159.707031,80.5585938 C159.347654,80.9648458 159.07422,81.3046861 158.886719,81.578125 C156.683583,80.8164024 155.056646,80.0195354 154.005859,79.1875 C152.951167,80.0078166 151.265637,80.8359333 148.949219,81.671875 L148.621094,81.2382814 C148.503907,81.085938 148.378907,80.9257821 148.246094,80.7578125 C150.48048,80.0859341 152.162104,79.3378947 153.291016,78.5136719 C151.865227,76.9902268 150.958986,75.199229 150.572266,73.140625 L148.363281,73.140625 L148.363281,72.2734375 Z M156.449219,73.140625 L151.509766,73.140625 C151.86133,75.0625096 152.701165,76.6503844 154.029297,77.9042969 C155.298834,76.7246035 156.105467,75.1367287 156.449219,73.140625 Z M160.785156,76.8085938 L161.62461,76.7070772 C163.10945,76.5166416 164.29642,76.3024351 165.185547,76.0644531 C164.248042,75.8144519 163.300786,75.5703137 162.34375,75.3320312 C162.664064,74.9882795 162.96875,74.6484392 163.257812,74.3125 L160.46875,74.3125 L160.46875,73.5390625 L163.890625,73.5390625 C164.187501,73.1640606 164.460936,72.7929706 164.710938,72.4257812 L165.660156,72.6953125 C165.449218,72.9765639 165.224611,73.2578111 164.986328,73.5390625 L171.53125,73.5390625 L171.53125,74.3125 L169.011719,74.3125 C168.640623,74.9726596 168.138675,75.5078104 167.505859,75.9179688 L168.813673,76.2639065 C169.451172,76.4340624 170.06406,76.5999992 170.652344,76.7617188 L170.277344,77.546875 C169.039056,77.156248 167.779303,76.7832049 166.498047,76.4277344 C165.310541,76.8964867 163.519543,77.2812485 161.125,77.5820312 C161.03125,77.33203 160.917969,77.0742201 160.785156,76.8085938 Z M171.847656,80.59375 C171.58203,80.9062516 171.35547,81.1992174 171.167969,81.4726562 C169.105458,80.8554657 167.523443,80.0996138 166.421875,79.2050781 L166.421875,81.8476562 L165.578125,81.8476562 L165.578125,79.2226562 C164.394525,80.0585979 162.820322,80.8124966 160.855469,81.484375 C160.675781,81.2578114 160.44922,80.992189 160.175781,80.6875 C162.191416,80.1835912 163.787103,79.5625037 164.962891,78.8242188 L160.445312,78.8242188 L160.445312,78.0390625 L165.578125,78.0390625 L165.578125,77.078125 L166.421875,77.078125 L166.421875,78.0390625 L171.625,78.0390625 L171.625,78.8242188 L167.060547,78.8242188 C168.294928,79.6562542 169.890615,80.246092 171.847656,80.59375 Z M160.785156,71.3476562 L165.695312,71.3476562 C165.546874,71.0781237 165.375001,70.8007827 165.179688,70.515625 L166.011719,70.140625 C166.265626,70.5390645 166.505858,70.9414042 166.732422,71.3476562 L171.203125,71.3476562 L171.203125,73.1171875 L170.3125,73.1171875 L170.3125,72.1210938 L161.675781,72.1210938 L161.675781,73.1171875 L160.785156,73.1171875 L160.785156,71.3476562 Z M163.679688,74.9570312 L165.7583,75.474487 C165.981932,75.5308834 166.203124,75.5869138 166.421875,75.6425781 C167.109378,75.3378891 167.646482,74.8945342 168.033203,74.3125 L164.300781,74.3125 C164.101562,74.5273448 163.894532,74.7421864 163.679688,74.9570312 Z M174.179688,76.5625 L174.753906,75.90625 C175.347659,76.3945337 175.888669,76.8730445 176.376953,77.3417969 C176.900393,76.4355423 177.26953,75.4531303 177.484375,74.3945312 L174.847656,74.3945312 C174.234372,75.8007883 173.480473,77.0664006 172.585938,78.1914062 C172.414062,77.7929668 172.257813,77.4804699 172.117188,77.2539062 C173.296881,75.6679608 174.205075,73.8125106 174.841797,71.6875 L172.503906,71.6875 L172.503906,70.84375 L179.078125,70.84375 L179.078125,71.6875 L175.808594,71.6875 C175.624999,72.3320345 175.419923,72.953122 175.193359,73.5507812 L178.445312,73.5507812 L178.445312,74.40625 C177.804684,77.609391 176.121107,80.0820225 173.394531,81.8242188 C173.191405,81.5898426 172.94922,81.3515637 172.667969,81.109375 C174.003913,80.2460894 175.074215,79.2480525 175.878906,78.1152344 C175.433592,77.6777322 174.867191,77.1601592 174.179688,76.5625 Z M182.160156,70.421875 L183.097656,70.421875 L183.097656,80.1015625 C183.097656,81.093755 182.648442,81.59375 181.75,81.6015625 L181.43287,81.6050347 C181.027103,81.6070602 180.496097,81.6019966 179.839844,81.5898438 C179.800781,81.230467 179.738282,80.878908 179.652344,80.5351562 L180.38672,80.5937502 C180.829428,80.6250002 181.178384,80.640625 181.433594,80.640625 C181.917971,80.640625 182.160156,80.3789089 182.160156,79.8554688 L182.160156,70.421875 Z M180.472656,78.8945312 L179.570312,78.8945312 L179.570312,71.7226562 L180.472656,71.7226562 L180.472656,78.8945312 Z M194.347656,76.6796875 L194.992188,77.4882812 L192.373047,78.8007812 C193.29102,79.550785 194.441399,80.0468738 195.824219,80.2890625 C195.558592,80.6328142 195.339845,80.9453111 195.167969,81.2265625 C192.648425,80.624997 190.841802,79.0761844 189.748047,76.5800781 C189.349607,77.0878932 188.894534,77.5703102 188.382812,78.0273438 L188.382812,80.5351562 C189.414068,80.1992171 190.371089,79.8476581 191.253906,79.4804688 C191.246094,79.8242205 191.25,80.1640625 191.265625,80.5 C190.32812,80.8203141 189.35938,81.1718731 188.359375,81.5546875 C188.148436,81.6406254 187.941407,81.7421869 187.738281,81.859375 L187.1875,81.0039062 C187.406251,80.8476555 187.515625,80.6289077 187.515625,80.3476562 L187.515625,78.7363281 C186.707027,79.3417999 185.789068,79.8906225 184.761719,80.3828125 C184.589843,80.1093736 184.390626,79.8398451 184.164062,79.5742188 C186.183604,78.7460896 187.769525,77.6367257 188.921875,76.2460938 L184.292969,76.2460938 L184.292969,75.4375 L189.542969,75.4375 L189.542969,74.2421875 L185.125,74.2421875 L185.125,73.4335938 L189.542969,73.4335938 L189.542969,72.2851562 L184.65625,72.2851562 L184.65625,71.4765625 L189.542969,71.4765625 L189.542969,70.1640625 L190.46875,70.1640625 L190.46875,71.4765625 L195.378906,71.4765625 L195.378906,72.2851562 L190.46875,72.2851562 L190.46875,73.4335938 L194.875,73.4335938 L194.875,74.2421875 L190.46875,74.2421875 L190.46875,75.4375 L195.707031,75.4375 L195.707031,76.2460938 L190.498047,76.2460938 C190.826174,77.0078163 191.248044,77.667966 191.763672,78.2265625 C192.548832,77.8359355 193.410152,77.3203157 194.347656,76.6796875 Z M196.363281,72.2734375 L201.988281,72.2734375 L201.622395,71.5911445 C201.397569,71.1814227 201.210938,70.8619803 201.0625,70.6328125 L201.964844,70.2109375 L202.220052,70.6171874 C202.414496,70.9348949 202.657551,71.3463516 202.949219,71.8515625 L202.105469,72.2734375 L207.613281,72.2734375 L207.613281,73.140625 L205.451172,73.140625 C205.033201,75.3711049 204.134773,77.1640557 202.755859,78.5195312 C203.794927,79.2773475 205.445301,79.9570282 207.707031,80.5585938 C207.347654,80.9648458 207.07422,81.3046861 206.886719,81.578125 C204.683583,80.8164024 203.056646,80.0195354 202.005859,79.1875 C200.951167,80.0078166 199.265637,80.8359333 196.949219,81.671875 L196.621094,81.2382814 C196.503907,81.085938 196.378907,80.9257821 196.246094,80.7578125 C198.48048,80.0859341 200.162104,79.3378947 201.291016,78.5136719 C199.865227,76.9902268 198.958986,75.199229 198.572266,73.140625 L196.363281,73.140625 L196.363281,72.2734375 Z M204.449219,73.140625 L199.509766,73.140625 C199.86133,75.0625096 200.701165,76.6503844 202.029297,77.9042969 C203.298834,76.7246035 204.105467,75.1367287 204.449219,73.140625 Z M208.785156,76.8085938 L209.62461,76.7070772 C211.10945,76.5166416 212.29642,76.3024351 213.185547,76.0644531 C212.248042,75.8144519 211.300786,75.5703137 210.34375,75.3320312 C210.664064,74.9882795 210.96875,74.6484392 211.257812,74.3125 L208.46875,74.3125 L208.46875,73.5390625 L211.890625,73.5390625 C212.187501,73.1640606 212.460936,72.7929706 212.710938,72.4257812 L213.660156,72.6953125 C213.449218,72.9765639 213.224611,73.2578111 212.986328,73.5390625 L219.53125,73.5390625 L219.53125,74.3125 L217.011719,74.3125 C216.640623,74.9726596 216.138675,75.5078104 215.505859,75.9179688 L216.813673,76.2639065 C217.451172,76.4340624 218.06406,76.5999992 218.652344,76.7617188 L218.277344,77.546875 C217.039056,77.156248 215.779303,76.7832049 214.498047,76.4277344 C213.310541,76.8964867 211.519543,77.2812485 209.125,77.5820312 C209.03125,77.33203 208.917969,77.0742201 208.785156,76.8085938 Z M219.847656,80.59375 C219.58203,80.9062516 219.35547,81.1992174 219.167969,81.4726562 C217.105458,80.8554657 215.523443,80.0996138 214.421875,79.2050781 L214.421875,81.8476562 L213.578125,81.8476562 L213.578125,79.2226562 C212.394525,80.0585979 210.820322,80.8124966 208.855469,81.484375 C208.675781,81.2578114 208.44922,80.992189 208.175781,80.6875 C210.191416,80.1835912 211.787103,79.5625037 212.962891,78.8242188 L208.445312,78.8242188 L208.445312,78.0390625 L213.578125,78.0390625 L213.578125,77.078125 L214.421875,77.078125 L214.421875,78.0390625 L219.625,78.0390625 L219.625,78.8242188 L215.060547,78.8242188 C216.294928,79.6562542 217.890615,80.246092 219.847656,80.59375 Z M208.785156,71.3476562 L213.695312,71.3476562 C213.546874,71.0781237 213.375001,70.8007827 213.179688,70.515625 L214.011719,70.140625 C214.265626,70.5390645 214.505858,70.9414042 214.732422,71.3476562 L219.203125,71.3476562 L219.203125,73.1171875 L218.3125,73.1171875 L218.3125,72.1210938 L209.675781,72.1210938 L209.675781,73.1171875 L208.785156,73.1171875 L208.785156,71.3476562 Z M211.679688,74.9570312 L213.7583,75.474487 C213.981932,75.5308834 214.203124,75.5869138 214.421875,75.6425781 C215.109378,75.3378891 215.646482,74.8945342 216.033203,74.3125 L212.300781,74.3125 C212.101562,74.5273448 211.894532,74.7421864 211.679688,74.9570312 Z M226.310547,80.2246094 L221.107422,80.2246094 L221.107422,79.234375 L223.140625,79.234375 L223.140625,72.34375 L221.054688,72.9472656 L221.054688,71.8925781 L224.283203,70.9550781 L224.283203,79.234375 L226.310547,79.234375 L226.310547,80.2246094 Z" id="列表文案列表文案1" fill="#5A6677" fill-rule="nonzero"></path>
                <g id="矩形">
                    <use fill="black" fill-opacity="1" filter="url(#filter-4)" xlink:href="#path-3"></use>
                    <use fill="#FFFFFF" fill-rule="evenodd" xlink:href="#path-3"></use>
                </g>
                <g id="编组-15" transform="translate(396.000000, 118.000000)">
                    <rect id="矩形" stroke="#D5DAE0" fill="#FFFFFF" x="0.5" y="0.5" width="55" height="27" rx="1.5"></rect>
                    <path d="M27.9179688,18.5878906 C27.6992177,18.869142 27.5078133,19.1347644 27.34375,19.3847656 C25.8554613,18.7988252 24.6953167,18.0234423 23.8632812,17.0585938 L23.8632812,19.7832031 L23.0898438,19.7832031 L23.0898438,17.0585938 C22.1132764,18.0156298 20.9062572,18.8066375 19.46875,19.4316406 C19.3359368,19.1972645 19.1562511,18.947267 18.9296875,18.6816406 C20.4492263,18.1464817 21.6894483,17.4355513 22.6503906,16.5488281 L19.4335938,16.5488281 L19.4335938,15.8222656 L23.0898438,15.8222656 L23.0898438,15.1074219 L23.8632812,15.1074219 L23.8632812,15.8222656 L27.6835938,15.8222656 L27.6835938,16.5488281 L24.2441406,16.5488281 C25.1152387,17.4550827 26.3398359,18.1347634 27.9179688,18.5878906 Z M16.2929688,15.4003906 L16.1640625,14.4160156 L16.7040627,14.2425781 C16.9862495,14.1488283 17.2867172,14.0445318 17.6054688,13.9296875 L17.6054688,11.2636719 L16.2695312,11.2636719 L16.2695312,10.4667969 L17.6054688,10.4667969 L17.6054688,8.28710938 L18.4726562,8.28710938 L18.4726562,10.4667969 L19.7734375,10.4667969 L19.7734375,11.2636719 L18.4726562,11.2636719 L18.4726562,13.6074219 L19.1940099,13.3261721 C19.3185757,13.276693 19.4453119,13.2259117 19.5742188,13.1738281 L19.5976562,14.0996094 L19.5976562,14.0996094 L18.4726562,14.5332031 L18.4726562,14.5332031 L18.4726562,18.4238281 C18.4726562,19.205082 18.1054688,19.6074218 17.3710938,19.6308594 C17.0742173,19.6464845 16.7031272,19.6464845 16.2578125,19.6308594 C16.2187498,19.3183578 16.1679691,19.0058609 16.1054688,18.6933594 C16.5429709,18.7402346 16.9023423,18.7636719 17.1835938,18.7636719 C17.4648452,18.7636719 17.6054688,18.6152359 17.6054688,18.3183594 L17.6054688,14.8789062 L16.6408699,15.2601315 C16.5271004,15.3057858 16.4111334,15.3525388 16.2929688,15.4003906 Z M20.7578125,8.74414062 L26.3125,8.74414062 L26.3125,11.6152344 L25.46875,11.6152344 L25.46875,11.2988281 L21.6015625,11.2988281 L21.6015625,11.6152344 L20.7578125,11.6152344 L20.7578125,8.74414062 Z M23.9921875,12.0957031 L27.15625,12.0957031 L27.15625,14.9785156 L26.4296875,14.9785156 L26.4296875,14.6152344 L24.71875,14.6152344 L24.71875,14.9433594 L23.9921875,14.9433594 L23.9921875,12.0957031 Z M19.9257812,12.1191406 L23.0195312,12.1191406 L23.0195312,14.9433594 L22.2929688,14.9433594 L22.2929688,14.6269531 L20.6523438,14.6269531 L20.6523438,14.9785156 L19.9257812,14.9785156 L19.9257812,12.1191406 Z M25.46875,9.44726562 L21.6015625,9.44726562 L21.6015625,10.5957031 L25.46875,10.5957031 L25.46875,9.44726562 Z M26.4296875,12.7753906 L24.71875,12.7753906 L24.71875,13.9355469 L26.4296875,13.9355469 L26.4296875,12.7753906 Z M22.2929688,12.7988281 L20.6523438,12.7988281 L20.6523438,13.9472656 L22.2929688,13.9472656 L22.2929688,12.7988281 Z M31.3867188,12.9746094 C32.4257864,11.5527273 33.1914038,9.96680562 33.6835938,8.21679688 L34.6445312,8.39257812 C34.4609366,8.99414363 34.2539074,9.57616906 34.0234375,10.1386719 L39.8007812,10.1386719 L39.8007812,10.9589844 L35.5351562,10.9589844 L35.5351562,13.0097656 L39.3320312,13.0097656 L39.3320312,13.8300781 L35.5351562,13.8300781 L35.5351562,15.9628906 L39.484375,15.9628906 L39.484375,16.7832031 L35.5351562,16.7832031 L35.5351562,19.7363281 L34.6210938,19.7363281 L34.6210938,10.9589844 L33.6660156,10.9589844 C33.2246072,11.9121141 32.7109404,12.8066364 32.125,13.6425781 C31.9062489,13.4316396 31.6601576,13.2089855 31.3867188,12.9746094 Z M28.1289062,14.0527344 C29.2304743,12.4199137 30.1015593,10.4863393 30.7421875,8.25195312 L31.703125,8.53320312 C31.4023422,9.45508273 31.0820329,10.3203085 30.7421875,11.1289062 L30.7421875,19.7363281 L29.828125,19.7363281 L29.828125,13.0390625 C29.4335918,13.7773474 29.0156272,14.4511688 28.5742188,15.0605469 C28.4570307,14.7636704 28.3085946,14.4277363 28.1289062,14.0527344 Z" id="操作" fill="#333333" fill-rule="nonzero"></path>
                </g>
                <circle id="椭圆形" fill="#D8D8D8" cx="94" cy="132" r="18"></circle>
                <path d="M126.179688,132.5625 L126.753906,131.90625 C127.347659,132.394534 127.888669,132.873045 128.376953,133.341797 C128.900393,132.435542 129.26953,131.45313 129.484375,130.394531 L126.847656,130.394531 C126.234372,131.800788 125.480473,133.066401 124.585938,134.191406 C124.414062,133.792967 124.257813,133.48047 124.117188,133.253906 C125.296881,131.667961 126.205075,129.812511 126.841797,127.6875 L124.503906,127.6875 L124.503906,126.84375 L131.078125,126.84375 L131.078125,127.6875 L127.808594,127.6875 C127.624999,128.332034 127.419923,128.953122 127.193359,129.550781 L130.445312,129.550781 L130.445312,130.40625 C129.804684,133.609391 128.121107,136.082023 125.394531,137.824219 C125.191405,137.589843 124.94922,137.351564 124.667969,137.109375 C126.003913,136.246089 127.074215,135.248053 127.878906,134.115234 C127.433592,133.677732 126.867191,133.160159 126.179688,132.5625 Z M134.160156,126.421875 L135.097656,126.421875 L135.097656,136.101562 C135.097656,137.093755 134.648442,137.59375 133.75,137.601562 L133.43287,137.605035 C133.027103,137.60706 132.496097,137.601997 131.839844,137.589844 C131.800781,137.230467 131.738282,136.878908 131.652344,136.535156 L132.38672,136.59375 C132.829428,136.625 133.178384,136.640625 133.433594,136.640625 C133.917971,136.640625 134.160156,136.378909 134.160156,135.855469 L134.160156,126.421875 Z M132.472656,134.894531 L131.570312,134.894531 L131.570312,127.722656 L132.472656,127.722656 L132.472656,134.894531 Z M146.347656,132.679688 L146.992188,133.488281 L144.373047,134.800781 C145.29102,135.550785 146.441399,136.046874 147.824219,136.289062 C147.558592,136.632814 147.339845,136.945311 147.167969,137.226562 C144.648425,136.624997 142.841802,135.076184 141.748047,132.580078 C141.349607,133.087893 140.894534,133.57031 140.382812,134.027344 L140.382812,136.535156 C141.414068,136.199217 142.371089,135.847658 143.253906,135.480469 C143.246094,135.82422 143.25,136.164062 143.265625,136.5 C142.32812,136.820314 141.35938,137.171873 140.359375,137.554688 C140.148436,137.640625 139.941407,137.742187 139.738281,137.859375 L139.1875,137.003906 C139.406251,136.847655 139.515625,136.628908 139.515625,136.347656 L139.515625,134.736328 C138.707027,135.3418 137.789068,135.890623 136.761719,136.382812 C136.589843,136.109374 136.390626,135.839845 136.164062,135.574219 C138.183604,134.74609 139.769525,133.636726 140.921875,132.246094 L136.292969,132.246094 L136.292969,131.4375 L141.542969,131.4375 L141.542969,130.242188 L137.125,130.242188 L137.125,129.433594 L141.542969,129.433594 L141.542969,128.285156 L136.65625,128.285156 L136.65625,127.476562 L141.542969,127.476562 L141.542969,126.164062 L142.46875,126.164062 L142.46875,127.476562 L147.378906,127.476562 L147.378906,128.285156 L142.46875,128.285156 L142.46875,129.433594 L146.875,129.433594 L146.875,130.242188 L142.46875,130.242188 L142.46875,131.4375 L147.707031,131.4375 L147.707031,132.246094 L142.498047,132.246094 C142.826174,133.007816 143.248044,133.667966 143.763672,134.226562 C144.548832,133.835936 145.410152,133.320316 146.347656,132.679688 Z M148.363281,128.273438 L153.988281,128.273438 L153.622395,127.591145 C153.397569,127.181423 153.210938,126.86198 153.0625,126.632812 L153.964844,126.210938 L154.220052,126.617187 C154.414496,126.934895 154.657551,127.346352 154.949219,127.851562 L154.105469,128.273438 L159.613281,128.273438 L159.613281,129.140625 L157.451172,129.140625 C157.033201,131.371105 156.134773,133.164056 154.755859,134.519531 C155.794927,135.277348 157.445301,135.957028 159.707031,136.558594 C159.347654,136.964846 159.07422,137.304686 158.886719,137.578125 C156.683583,136.816402 155.056646,136.019535 154.005859,135.1875 C152.951167,136.007817 151.265637,136.835933 148.949219,137.671875 L148.621094,137.238281 C148.503907,137.085938 148.378907,136.925782 148.246094,136.757812 C150.48048,136.085934 152.162104,135.337895 153.291016,134.513672 C151.865227,132.990227 150.958986,131.199229 150.572266,129.140625 L148.363281,129.140625 L148.363281,128.273438 Z M156.449219,129.140625 L151.509766,129.140625 C151.86133,131.06251 152.701165,132.650384 154.029297,133.904297 C155.298834,132.724603 156.105467,131.136729 156.449219,129.140625 Z M160.785156,132.808594 L161.62461,132.707077 C163.10945,132.516642 164.29642,132.302435 165.185547,132.064453 C164.248042,131.814452 163.300786,131.570314 162.34375,131.332031 C162.664064,130.98828 162.96875,130.648439 163.257812,130.3125 L160.46875,130.3125 L160.46875,129.539062 L163.890625,129.539062 C164.187501,129.164061 164.460936,128.792971 164.710938,128.425781 L165.660156,128.695312 C165.449218,128.976564 165.224611,129.257811 164.986328,129.539062 L171.53125,129.539062 L171.53125,130.3125 L169.011719,130.3125 C168.640623,130.97266 168.138675,131.50781 167.505859,131.917969 L168.813673,132.263906 C169.451172,132.434062 170.06406,132.599999 170.652344,132.761719 L170.277344,133.546875 C169.039056,133.156248 167.779303,132.783205 166.498047,132.427734 C165.310541,132.896487 163.519543,133.281248 161.125,133.582031 C161.03125,133.33203 160.917969,133.07422 160.785156,132.808594 Z M171.847656,136.59375 C171.58203,136.906252 171.35547,137.199217 171.167969,137.472656 C169.105458,136.855466 167.523443,136.099614 166.421875,135.205078 L166.421875,137.847656 L165.578125,137.847656 L165.578125,135.222656 C164.394525,136.058598 162.820322,136.812497 160.855469,137.484375 C160.675781,137.257811 160.44922,136.992189 160.175781,136.6875 C162.191416,136.183591 163.787103,135.562504 164.962891,134.824219 L160.445312,134.824219 L160.445312,134.039062 L165.578125,134.039062 L165.578125,133.078125 L166.421875,133.078125 L166.421875,134.039062 L171.625,134.039062 L171.625,134.824219 L167.060547,134.824219 C168.294928,135.656254 169.890615,136.246092 171.847656,136.59375 Z M160.785156,127.347656 L165.695312,127.347656 C165.546874,127.078124 165.375001,126.800783 165.179688,126.515625 L166.011719,126.140625 C166.265626,126.539064 166.505858,126.941404 166.732422,127.347656 L171.203125,127.347656 L171.203125,129.117188 L170.3125,129.117188 L170.3125,128.121094 L161.675781,128.121094 L161.675781,129.117188 L160.785156,129.117188 L160.785156,127.347656 Z M163.679688,130.957031 L165.7583,131.474487 C165.981932,131.530883 166.203124,131.586914 166.421875,131.642578 C167.109378,131.337889 167.646482,130.894534 168.033203,130.3125 L164.300781,130.3125 C164.101562,130.527345 163.894532,130.742186 163.679688,130.957031 Z M174.179688,132.5625 L174.753906,131.90625 C175.347659,132.394534 175.888669,132.873045 176.376953,133.341797 C176.900393,132.435542 177.26953,131.45313 177.484375,130.394531 L174.847656,130.394531 C174.234372,131.800788 173.480473,133.066401 172.585938,134.191406 C172.414062,133.792967 172.257813,133.48047 172.117188,133.253906 C173.296881,131.667961 174.205075,129.812511 174.841797,127.6875 L172.503906,127.6875 L172.503906,126.84375 L179.078125,126.84375 L179.078125,127.6875 L175.808594,127.6875 C175.624999,128.332034 175.419923,128.953122 175.193359,129.550781 L178.445312,129.550781 L178.445312,130.40625 C177.804684,133.609391 176.121107,136.082023 173.394531,137.824219 C173.191405,137.589843 172.94922,137.351564 172.667969,137.109375 C174.003913,136.246089 175.074215,135.248053 175.878906,134.115234 C175.433592,133.677732 174.867191,133.160159 174.179688,132.5625 Z M182.160156,126.421875 L183.097656,126.421875 L183.097656,136.101562 C183.097656,137.093755 182.648442,137.59375 181.75,137.601562 L181.43287,137.605035 C181.027103,137.60706 180.496097,137.601997 179.839844,137.589844 C179.800781,137.230467 179.738282,136.878908 179.652344,136.535156 L180.38672,136.59375 C180.829428,136.625 181.178384,136.640625 181.433594,136.640625 C181.917971,136.640625 182.160156,136.378909 182.160156,135.855469 L182.160156,126.421875 Z M180.472656,134.894531 L179.570312,134.894531 L179.570312,127.722656 L180.472656,127.722656 L180.472656,134.894531 Z M194.347656,132.679688 L194.992188,133.488281 L192.373047,134.800781 C193.29102,135.550785 194.441399,136.046874 195.824219,136.289062 C195.558592,136.632814 195.339845,136.945311 195.167969,137.226562 C192.648425,136.624997 190.841802,135.076184 189.748047,132.580078 C189.349607,133.087893 188.894534,133.57031 188.382812,134.027344 L188.382812,136.535156 C189.414068,136.199217 190.371089,135.847658 191.253906,135.480469 C191.246094,135.82422 191.25,136.164062 191.265625,136.5 C190.32812,136.820314 189.35938,137.171873 188.359375,137.554688 C188.148436,137.640625 187.941407,137.742187 187.738281,137.859375 L187.1875,137.003906 C187.406251,136.847655 187.515625,136.628908 187.515625,136.347656 L187.515625,134.736328 C186.707027,135.3418 185.789068,135.890623 184.761719,136.382812 C184.589843,136.109374 184.390626,135.839845 184.164062,135.574219 C186.183604,134.74609 187.769525,133.636726 188.921875,132.246094 L184.292969,132.246094 L184.292969,131.4375 L189.542969,131.4375 L189.542969,130.242188 L185.125,130.242188 L185.125,129.433594 L189.542969,129.433594 L189.542969,128.285156 L184.65625,128.285156 L184.65625,127.476562 L189.542969,127.476562 L189.542969,126.164062 L190.46875,126.164062 L190.46875,127.476562 L195.378906,127.476562 L195.378906,128.285156 L190.46875,128.285156 L190.46875,129.433594 L194.875,129.433594 L194.875,130.242188 L190.46875,130.242188 L190.46875,131.4375 L195.707031,131.4375 L195.707031,132.246094 L190.498047,132.246094 C190.826174,133.007816 191.248044,133.667966 191.763672,134.226562 C192.548832,133.835936 193.410152,133.320316 194.347656,132.679688 Z M196.363281,128.273438 L201.988281,128.273438 L201.622395,127.591145 C201.397569,127.181423 201.210938,126.86198 201.0625,126.632812 L201.964844,126.210938 L202.220052,126.617187 C202.414496,126.934895 202.657551,127.346352 202.949219,127.851562 L202.105469,128.273438 L207.613281,128.273438 L207.613281,129.140625 L205.451172,129.140625 C205.033201,131.371105 204.134773,133.164056 202.755859,134.519531 C203.794927,135.277348 205.445301,135.957028 207.707031,136.558594 C207.347654,136.964846 207.07422,137.304686 206.886719,137.578125 C204.683583,136.816402 203.056646,136.019535 202.005859,135.1875 C200.951167,136.007817 199.265637,136.835933 196.949219,137.671875 L196.621094,137.238281 C196.503907,137.085938 196.378907,136.925782 196.246094,136.757812 C198.48048,136.085934 200.162104,135.337895 201.291016,134.513672 C199.865227,132.990227 198.958986,131.199229 198.572266,129.140625 L196.363281,129.140625 L196.363281,128.273438 Z M204.449219,129.140625 L199.509766,129.140625 C199.86133,131.06251 200.701165,132.650384 202.029297,133.904297 C203.298834,132.724603 204.105467,131.136729 204.449219,129.140625 Z M208.785156,132.808594 L209.62461,132.707077 C211.10945,132.516642 212.29642,132.302435 213.185547,132.064453 C212.248042,131.814452 211.300786,131.570314 210.34375,131.332031 C210.664064,130.98828 210.96875,130.648439 211.257812,130.3125 L208.46875,130.3125 L208.46875,129.539062 L211.890625,129.539062 C212.187501,129.164061 212.460936,128.792971 212.710938,128.425781 L213.660156,128.695312 C213.449218,128.976564 213.224611,129.257811 212.986328,129.539062 L219.53125,129.539062 L219.53125,130.3125 L217.011719,130.3125 C216.640623,130.97266 216.138675,131.50781 215.505859,131.917969 L216.813673,132.263906 C217.451172,132.434062 218.06406,132.599999 218.652344,132.761719 L218.277344,133.546875 C217.039056,133.156248 215.779303,132.783205 214.498047,132.427734 C213.310541,132.896487 211.519543,133.281248 209.125,133.582031 C209.03125,133.33203 208.917969,133.07422 208.785156,132.808594 Z M219.847656,136.59375 C219.58203,136.906252 219.35547,137.199217 219.167969,137.472656 C217.105458,136.855466 215.523443,136.099614 214.421875,135.205078 L214.421875,137.847656 L213.578125,137.847656 L213.578125,135.222656 C212.394525,136.058598 210.820322,136.812497 208.855469,137.484375 C208.675781,137.257811 208.44922,136.992189 208.175781,136.6875 C210.191416,136.183591 211.787103,135.562504 212.962891,134.824219 L208.445312,134.824219 L208.445312,134.039062 L213.578125,134.039062 L213.578125,133.078125 L214.421875,133.078125 L214.421875,134.039062 L219.625,134.039062 L219.625,134.824219 L215.060547,134.824219 C216.294928,135.656254 217.890615,136.246092 219.847656,136.59375 Z M208.785156,127.347656 L213.695312,127.347656 C213.546874,127.078124 213.375001,126.800783 213.179688,126.515625 L214.011719,126.140625 C214.265626,126.539064 214.505858,126.941404 214.732422,127.347656 L219.203125,127.347656 L219.203125,129.117188 L218.3125,129.117188 L218.3125,128.121094 L209.675781,128.121094 L209.675781,129.117188 L208.785156,129.117188 L208.785156,127.347656 Z M211.679688,130.957031 L213.7583,131.474487 C213.981932,131.530883 214.203124,131.586914 214.421875,131.642578 C215.109378,131.337889 215.646482,130.894534 216.033203,130.3125 L212.300781,130.3125 C212.101562,130.527345 211.894532,130.742186 211.679688,130.957031 Z M226.310547,136.224609 L221.107422,136.224609 L221.107422,135.234375 L223.140625,135.234375 L223.140625,128.34375 L221.054688,128.947266 L221.054688,127.892578 L224.283203,126.955078 L224.283203,135.234375 L226.310547,135.234375 L226.310547,136.224609 Z" id="列表文案列表文案1" fill="#5A6677" fill-rule="nonzero"></path>
                <text id="样式三" font-family="MicrosoftYaHei, Microsoft YaHei" font-size="12" font-weight="normal" line-spacing="22" fill="#525A6E">
                    <tspan x="8" y="27">样式三</tspan>
                </text>
            </g>
        </g>
    </g>
</svg>