<?xml version="1.0" encoding="UTF-8"?>
<svg width="494px" height="61px" viewBox="0 0 494 61" version="1.1" xmlns="http://www.w3.org/2000/svg" xmlns:xlink="http://www.w3.org/1999/xlink">
    <!-- Generator: Sketch 58 (84663) - https://sketch.com -->
    <title>tab/style2</title>
    <desc>Created with Sketch.</desc>
    <g id="页面-1" stroke="none" stroke-width="1" fill="none" fill-rule="evenodd">
        <g id="tab/style2">
            <rect id="矩形" fill-opacity="0.01" fill="#FAFAFA" x="0" y="0" width="494" height="61"></rect>
            <rect id="矩形" stroke-opacity="0.15" stroke="#000000" x="56.5" y="15.5" width="145" height="27" rx="2"></rect>
            <path d="M68.4179688,24.03125 L75.2148438,24.03125 L75.0691664,28.3502742 C74.999711,30.2435272 74.9388954,31.6241586 74.8867188,32.4921875 C74.7929683,33.7968815 74.1835994,34.4453125 73.0585938,34.4375 C72.4257781,34.4375 71.7695346,34.4179689 71.0898438,34.3789062 C71.0429685,34.0039044 70.9765629,33.6367205 70.890625,33.2773438 C71.585941,33.3945318 72.253903,33.453125 72.8945312,33.453125 C73.5273469,33.453125 73.8671873,33.0859412 73.9140625,32.3515625 L73.9666518,31.6777087 C74.0739932,30.1415031 74.1580253,27.8856683 74.21875,24.9101562 L71.4472656,24.9101562 L71.3741406,26.7054707 C71.3551563,27.1214855 71.3356446,27.5128905 71.3156056,27.8796867 L71.2539062,28.90625 C71.1210931,31.5234506 70.0937596,33.4960871 68.171875,34.8242188 C67.9765615,34.5976551 67.7304702,34.3437514 67.4335938,34.0625 C69.2695404,32.8749941 70.2382807,31.1211054 70.3398438,28.8007812 C70.4179691,27.753901 70.4726561,26.457039 70.5039062,24.9101562 L68.4179688,24.9101562 L68.4179688,24.03125 Z M69.0507812,29.984375 L69.0727838,30.374682 C69.0927136,30.6736296 69.1166293,30.9068072 69.1445312,31.0742188 C68.2382767,31.6445341 67.3710979,32.2148409 66.5429688,32.7851562 C66.3242177,32.941407 66.1289071,33.1054679 65.9570312,33.2773438 L65.3242188,32.3984375 C65.5898451,32.1484363 65.7226562,31.7929711 65.7226562,31.3320312 L65.7226562,27.5644531 L64.2695312,27.7226562 L64.1992188,26.8203125 L65.7226562,26.6503906 L65.7226562,23.1757812 L66.6367188,23.1757812 L66.6367188,26.5507812 L69.0273438,26.28125 L69.0976562,27.1835938 L66.6367188,27.4589844 L66.6367188,31.4960938 C67.4492228,31.0039038 68.2539023,30.5000026 69.0507812,29.984375 Z M79.4804688,30.3945312 L80.5,30.3945312 L80.5,27.2246094 L80.0100102,26.8455814 C79.948975,26.7994388 79.8857425,26.7519534 79.8203125,26.703125 C80.8515677,25.6328071 81.671872,24.4570377 82.28125,23.1757812 L83.2304688,23.3398438 C83.0429678,23.7148456 82.8437511,24.0781232 82.6328125,24.4296875 L86.171875,24.4296875 L86.171875,25.2148438 L85.8203125,25.6445313 C85.5494799,25.9700513 85.2057313,26.3736955 84.7890625,26.8554688 L86.8867188,26.8554688 L86.8867188,30.3945312 L87.8359375,30.3945312 L87.8359375,31.203125 L84.1972656,31.203125 C84.8183625,32.5586005 86.0117099,33.4179669 87.7773438,33.78125 C87.4882798,34.1250017 87.2539071,34.4414048 87.0742188,34.7304688 C85.4648357,34.1914036 84.3261752,33.218757 83.6582031,31.8125 C83.2246072,33.0234436 81.9218859,34.0273398 79.75,34.8242188 C79.5781241,34.5429673 79.3593763,34.2578139 79.09375,33.96875 C81.3437613,33.3046842 82.634764,32.3828184 82.9667969,31.203125 L79.4804688,31.203125 L79.4804688,30.3945312 Z M76.1640625,29.4570312 C76.6289086,29.3203118 77.1210912,29.1660165 77.640625,28.9941406 L77.640625,26.28125 L76.2695312,26.28125 L76.2695312,25.484375 L77.640625,25.484375 L77.640625,23.3046875 L78.53125,23.3046875 L78.53125,25.484375 L79.8554688,25.484375 L79.8554688,26.28125 L78.53125,26.28125 L78.53125,28.6835938 C78.921877,28.5468743 79.3281229,28.3984383 79.75,28.2382812 L79.7734375,29.1640625 L79.7734375,29.1640625 L78.53125,29.6210938 L78.53125,29.6210938 L78.53125,33.3945312 C78.53125,34.1914102 78.1718786,34.6054686 77.453125,34.6367188 C77.1093733,34.6523438 76.7226584,34.65625 76.2929688,34.6484375 C76.2460935,34.3203109 76.1953128,33.9960954 76.140625,33.6757812 C76.5703146,33.7226565 76.9296861,33.7460938 77.21875,33.7460938 C77.5000014,33.7460938 77.640625,33.5820329 77.640625,33.2539062 L77.640625,29.9433594 L76.2929688,30.4414062 L76.2929688,30.4414062 L76.1640625,29.4570312 Z M86.0546875,27.6640625 L84.0859375,27.6640625 C84.0859375,28.656255 84.0605471,29.5664021 84.0097656,30.3945312 L86.0546875,30.3945312 L86.0546875,27.6640625 Z M81.3320312,30.3945312 L83.1601562,30.3945312 L83.186198,30.2105727 C83.2381079,29.751962 83.2606771,28.9031312 83.2539062,27.6640625 L81.3320312,27.6640625 L81.3320312,30.3945312 Z M85.09375,25.2382812 L82.1230469,25.2382812 C81.7363262,25.8085966 81.3203147,26.3476537 80.875,26.8554688 L83.78125,26.8554688 L84.4126281,26.0906403 C84.6702806,25.7746333 84.8973204,25.4905147 85.09375,25.2382812 Z M94.3105469,33.2128906 L89.1074219,33.2128906 L89.1074219,32.2226562 L91.140625,32.2226562 L91.140625,25.3320312 L89.0546875,25.9355469 L89.0546875,24.8808594 L92.2832031,23.9433594 L92.2832031,32.2226562 L94.3105469,32.2226562 L94.3105469,33.2128906 Z" id="切换1" fill="#4F7DE7" fill-rule="nonzero"></path>
            <rect id="矩形" fill-opacity="0.15" fill="#000000" x="104" y="16" width="1" height="26"></rect>
            <path d="M117.417969,24.03125 L124.214844,24.03125 L124.069166,28.3502742 C123.999711,30.2435272 123.938895,31.6241586 123.886719,32.4921875 C123.792968,33.7968815 123.183599,34.4453125 122.058594,34.4375 C121.425778,34.4375 120.769535,34.4179689 120.089844,34.3789062 C120.042969,34.0039044 119.976563,33.6367205 119.890625,33.2773438 C120.585941,33.3945318 121.253903,33.453125 121.894531,33.453125 C122.527347,33.453125 122.867187,33.0859412 122.914062,32.3515625 L122.966652,31.6777087 C123.073993,30.1415031 123.158025,27.8856683 123.21875,24.9101562 L120.447266,24.9101562 L120.374141,26.7054707 C120.355156,27.1214855 120.335645,27.5128905 120.315606,27.8796867 L120.253906,28.90625 C120.121093,31.5234506 119.09376,33.4960871 117.171875,34.8242188 C116.976562,34.5976551 116.73047,34.3437514 116.433594,34.0625 C118.26954,32.8749941 119.238281,31.1211054 119.339844,28.8007812 C119.417969,27.753901 119.472656,26.457039 119.503906,24.9101562 L117.417969,24.9101562 L117.417969,24.03125 Z M118.050781,29.984375 L118.072784,30.374682 C118.092714,30.6736296 118.116629,30.9068072 118.144531,31.0742188 C117.238277,31.6445341 116.371098,32.2148409 115.542969,32.7851562 C115.324218,32.941407 115.128907,33.1054679 114.957031,33.2773438 L114.324219,32.3984375 C114.589845,32.1484363 114.722656,31.7929711 114.722656,31.3320312 L114.722656,27.5644531 L113.269531,27.7226562 L113.199219,26.8203125 L114.722656,26.6503906 L114.722656,23.1757812 L115.636719,23.1757812 L115.636719,26.5507812 L118.027344,26.28125 L118.097656,27.1835938 L115.636719,27.4589844 L115.636719,31.4960938 C116.449223,31.0039038 117.253902,30.5000026 118.050781,29.984375 Z M128.480469,30.3945312 L129.5,30.3945312 L129.5,27.2246094 L129.01001,26.8455814 C128.948975,26.7994388 128.885743,26.7519534 128.820312,26.703125 C129.851568,25.6328071 130.671872,24.4570377 131.28125,23.1757812 L132.230469,23.3398438 C132.042968,23.7148456 131.843751,24.0781232 131.632812,24.4296875 L135.171875,24.4296875 L135.171875,25.2148438 L134.820313,25.6445313 C134.54948,25.9700513 134.205731,26.3736955 133.789062,26.8554688 L135.886719,26.8554688 L135.886719,30.3945312 L136.835938,30.3945312 L136.835938,31.203125 L133.197266,31.203125 C133.818362,32.5586005 135.01171,33.4179669 136.777344,33.78125 C136.48828,34.1250017 136.253907,34.4414048 136.074219,34.7304688 C134.464836,34.1914036 133.326175,33.218757 132.658203,31.8125 C132.224607,33.0234436 130.921886,34.0273398 128.75,34.8242188 C128.578124,34.5429673 128.359376,34.2578139 128.09375,33.96875 C130.343761,33.3046842 131.634764,32.3828184 131.966797,31.203125 L128.480469,31.203125 L128.480469,30.3945312 Z M125.164062,29.4570312 C125.628909,29.3203118 126.121091,29.1660165 126.640625,28.9941406 L126.640625,26.28125 L125.269531,26.28125 L125.269531,25.484375 L126.640625,25.484375 L126.640625,23.3046875 L127.53125,23.3046875 L127.53125,25.484375 L128.855469,25.484375 L128.855469,26.28125 L127.53125,26.28125 L127.53125,28.6835938 C127.921877,28.5468743 128.328123,28.3984383 128.75,28.2382812 L128.773438,29.1640625 L128.773438,29.1640625 L127.53125,29.6210938 L127.53125,29.6210938 L127.53125,33.3945312 C127.53125,34.1914102 127.171879,34.6054686 126.453125,34.6367188 C126.109373,34.6523438 125.722658,34.65625 125.292969,34.6484375 C125.246094,34.3203109 125.195313,33.9960954 125.140625,33.6757812 C125.570315,33.7226565 125.929686,33.7460938 126.21875,33.7460938 C126.500001,33.7460938 126.640625,33.5820329 126.640625,33.2539062 L126.640625,29.9433594 L125.292969,30.4414062 L125.292969,30.4414062 L125.164062,29.4570312 Z M135.054688,27.6640625 L133.085938,27.6640625 C133.085938,28.656255 133.060547,29.5664021 133.009766,30.3945312 L135.054688,30.3945312 L135.054688,27.6640625 Z M130.332031,30.3945312 L132.160156,30.3945312 L132.186198,30.2105727 C132.238108,29.751962 132.260677,28.9031312 132.253906,27.6640625 L130.332031,27.6640625 L130.332031,30.3945312 Z M134.09375,25.2382812 L131.123047,25.2382812 C130.736326,25.8085966 130.320315,26.3476537 129.875,26.8554688 L132.78125,26.8554688 L133.412628,26.0906403 C133.670281,25.7746333 133.89732,25.4905147 134.09375,25.2382812 Z M143.140625,33.2128906 L137.621094,33.2128906 L137.621094,32.2167969 L140.257812,29.5859375 C140.984379,28.8593714 141.470702,28.2841818 141.716797,27.8603516 C141.962892,27.4365213 142.085938,26.9980491 142.085938,26.5449219 C142.085938,26.0292943 141.941408,25.6337904 141.652344,25.3583984 C141.36328,25.0830064 140.945315,24.9453125 140.398438,24.9453125 C139.58984,24.9453125 138.818363,25.2890591 138.083984,25.9765625 L138.083984,24.8105469 C138.798832,24.2597629 139.630855,23.984375 140.580078,23.984375 C141.396488,23.984375 142.041013,24.2050759 142.513672,24.6464844 C142.98633,25.0878928 143.222656,25.6816369 143.222656,26.4277344 C143.222656,26.9902372 143.071291,27.5419895 142.768555,28.0830078 C142.465819,28.6240261 141.892582,29.3124958 141.048828,30.1484375 L138.980469,32.1699219 L138.980469,32.1933594 L143.140625,32.1933594 L143.140625,33.2128906 Z" id="切换2" fill="#5A6677" fill-rule="nonzero"></path>
            <path d="M166.417969,24.03125 L173.214844,24.03125 L173.069166,28.3502742 C172.999711,30.2435272 172.938895,31.6241586 172.886719,32.4921875 C172.792968,33.7968815 172.183599,34.4453125 171.058594,34.4375 C170.425778,34.4375 169.769535,34.4179689 169.089844,34.3789062 C169.042969,34.0039044 168.976563,33.6367205 168.890625,33.2773438 C169.585941,33.3945318 170.253903,33.453125 170.894531,33.453125 C171.527347,33.453125 171.867187,33.0859412 171.914062,32.3515625 L171.966652,31.6777087 C172.073993,30.1415031 172.158025,27.8856683 172.21875,24.9101562 L169.447266,24.9101562 L169.374141,26.7054707 C169.355156,27.1214855 169.335645,27.5128905 169.315606,27.8796867 L169.253906,28.90625 C169.121093,31.5234506 168.09376,33.4960871 166.171875,34.8242188 C165.976562,34.5976551 165.73047,34.3437514 165.433594,34.0625 C167.26954,32.8749941 168.238281,31.1211054 168.339844,28.8007812 C168.417969,27.753901 168.472656,26.457039 168.503906,24.9101562 L166.417969,24.9101562 L166.417969,24.03125 Z M167.050781,29.984375 L167.072784,30.374682 C167.092714,30.6736296 167.116629,30.9068072 167.144531,31.0742188 C166.238277,31.6445341 165.371098,32.2148409 164.542969,32.7851562 C164.324218,32.941407 164.128907,33.1054679 163.957031,33.2773438 L163.324219,32.3984375 C163.589845,32.1484363 163.722656,31.7929711 163.722656,31.3320312 L163.722656,27.5644531 L162.269531,27.7226562 L162.199219,26.8203125 L163.722656,26.6503906 L163.722656,23.1757812 L164.636719,23.1757812 L164.636719,26.5507812 L167.027344,26.28125 L167.097656,27.1835938 L164.636719,27.4589844 L164.636719,31.4960938 C165.449223,31.0039038 166.253902,30.5000026 167.050781,29.984375 Z M177.480469,30.3945312 L178.5,30.3945312 L178.5,27.2246094 L178.01001,26.8455814 C177.948975,26.7994388 177.885743,26.7519534 177.820312,26.703125 C178.851568,25.6328071 179.671872,24.4570377 180.28125,23.1757812 L181.230469,23.3398438 C181.042968,23.7148456 180.843751,24.0781232 180.632812,24.4296875 L184.171875,24.4296875 L184.171875,25.2148438 L183.820313,25.6445313 C183.54948,25.9700513 183.205731,26.3736955 182.789062,26.8554688 L184.886719,26.8554688 L184.886719,30.3945312 L185.835938,30.3945312 L185.835938,31.203125 L182.197266,31.203125 C182.818362,32.5586005 184.01171,33.4179669 185.777344,33.78125 C185.48828,34.1250017 185.253907,34.4414048 185.074219,34.7304688 C183.464836,34.1914036 182.326175,33.218757 181.658203,31.8125 C181.224607,33.0234436 179.921886,34.0273398 177.75,34.8242188 C177.578124,34.5429673 177.359376,34.2578139 177.09375,33.96875 C179.343761,33.3046842 180.634764,32.3828184 180.966797,31.203125 L177.480469,31.203125 L177.480469,30.3945312 Z M174.164062,29.4570312 C174.628909,29.3203118 175.121091,29.1660165 175.640625,28.9941406 L175.640625,26.28125 L174.269531,26.28125 L174.269531,25.484375 L175.640625,25.484375 L175.640625,23.3046875 L176.53125,23.3046875 L176.53125,25.484375 L177.855469,25.484375 L177.855469,26.28125 L176.53125,26.28125 L176.53125,28.6835938 C176.921877,28.5468743 177.328123,28.3984383 177.75,28.2382812 L177.773438,29.1640625 L177.773438,29.1640625 L176.53125,29.6210938 L176.53125,29.6210938 L176.53125,33.3945312 C176.53125,34.1914102 176.171879,34.6054686 175.453125,34.6367188 C175.109373,34.6523438 174.722658,34.65625 174.292969,34.6484375 C174.246094,34.3203109 174.195313,33.9960954 174.140625,33.6757812 C174.570315,33.7226565 174.929686,33.7460938 175.21875,33.7460938 C175.500001,33.7460938 175.640625,33.5820329 175.640625,33.2539062 L175.640625,29.9433594 L174.292969,30.4414062 L174.292969,30.4414062 L174.164062,29.4570312 Z M184.054688,27.6640625 L182.085938,27.6640625 C182.085938,28.656255 182.060547,29.5664021 182.009766,30.3945312 L184.054688,30.3945312 L184.054688,27.6640625 Z M179.332031,30.3945312 L181.160156,30.3945312 L181.186198,30.2105727 C181.238108,29.751962 181.260677,28.9031312 181.253906,27.6640625 L179.332031,27.6640625 L179.332031,30.3945312 Z M183.09375,25.2382812 L180.123047,25.2382812 C179.736326,25.8085966 179.320315,26.3476537 178.875,26.8554688 L181.78125,26.8554688 L182.412628,26.0906403 C182.670281,25.7746333 182.89732,25.4905147 183.09375,25.2382812 Z M186.837891,31.6953125 C187.458987,32.1757837 188.160152,32.4160156 188.941406,32.4160156 C189.566409,32.4160156 190.061522,32.2626968 190.426758,31.9560547 C190.791994,31.6494125 190.974609,31.2382838 190.974609,30.7226562 C190.974609,29.574213 190.152352,29 188.507812,29 L187.751953,29 L187.751953,28.0507812 L188.472656,28.0507812 C189.929695,28.0507812 190.658203,27.5117241 190.658203,26.4335938 C190.658203,25.437495 190.101568,24.9394531 188.988281,24.9394531 C188.351559,24.9394531 187.751956,25.1542947 187.189453,25.5839844 L187.189453,24.5 C187.783206,24.1562483 188.476559,23.984375 189.269531,23.984375 C190.042973,23.984375 190.66406,24.1865214 191.132812,24.5908203 C191.601565,24.9951192 191.835938,25.519528 191.835938,26.1640625 C191.835938,27.3515684 191.230475,28.1152327 190.019531,28.4550781 L190.019531,28.4785156 C190.675785,28.5488285 191.194334,28.7802715 191.575195,29.1728516 C191.956057,29.5654317 192.146484,30.0546846 192.146484,30.640625 C192.146484,31.4570353 191.852542,32.1152319 191.264648,32.6152344 C190.676755,33.1152369 189.894536,33.3652344 188.917969,33.3652344 C188.058589,33.3652344 187.365237,33.2050797 186.837891,32.8847656 L186.837891,31.6953125 Z" id="切换3" fill="#5A6677" fill-rule="nonzero"></path>
            <rect id="矩形" fill-opacity="0.15" fill="#000000" x="153" y="16" width="1" height="26"></rect>
            <path d="M104.5,42.5 L104.5,15.5 L58,15.5 C57.1715729,15.5 56.5,16.1715729 56.5,17 L56.5,41 C56.5,41.8284271 57.1715729,42.5 58,42.5 L104.5,42.5 Z" id="矩形" stroke="#4F7DE7"></path>
            <text id="样式二" font-family="MicrosoftYaHei, Microsoft YaHei" font-size="12" font-weight="normal" line-spacing="22" fill="#525A6E">
                <tspan x="8" y="27">样式二</tspan>
            </text>
        </g>
    </g>
</svg>