<?xml version="1.0" encoding="UTF-8"?>
<svg width="494px" height="52px" viewBox="0 0 494 52" version="1.1" xmlns="http://www.w3.org/2000/svg" xmlns:xlink="http://www.w3.org/1999/xlink">
    <!-- Generator: Sketch 58 (84663) - https://sketch.com -->
    <title>radio/style2</title>
    <desc>Created with Sketch.</desc>
    <g id="页面-1" stroke="none" stroke-width="1" fill="none" fill-rule="evenodd">
        <g id="radio/style2">
            <g id="编组-20">
                <rect id="矩形备份" fill-opacity="0.01" fill="#FAFAFA" x="0" y="0" width="494" height="52"></rect>
                <circle id="unselected" stroke="#D5DAE0" fill="#FFFFFF" cx="60" cy="26" r="7.5"></circle>
                <g id="selected-2" transform="translate(142.000000, 18.000000)" stroke="#4F7DE7">
                    <circle id="椭圆形备份" fill="#FFFFFF" cx="8" cy="8" r="7.5"></circle>
                    <polyline id="路径-2" stroke-linecap="round" stroke-linejoin="round" points="4.04642614 8.14465202 6.73824688 10.8602366 12.0768996 5.42906744"></polyline>
                </g>
                <path d="M73,26.3164062 C73,25.2460884 73.2988251,24.4013703 73.8964844,23.7822266 C74.4941436,23.1630828 75.3046824,22.8535156 76.328125,22.8535156 C77.3007861,22.8535156 78.0634738,23.1513642 78.6162109,23.7470703 C79.1689481,24.3427764 79.4453125,25.1660104 79.4453125,26.2167969 C79.4453125,27.2402395 79.1503936,28.0664031 78.5605469,28.6953125 C77.9707002,29.3242219 77.1796925,29.6386719 76.1875,29.6386719 C75.2187452,29.6386719 74.4453154,29.3339874 73.8671875,28.7246094 C73.2890596,28.1152313 73,27.312505 73,26.3164062 Z M74.171875,26.28125 C74.171875,27.0273475 74.3603497,27.6152322 74.7373047,28.0449219 C75.1142597,28.4746115 75.6210906,28.6894531 76.2578125,28.6894531 C76.9140658,28.6894531 77.4140608,28.4794943 77.7578125,28.0595703 C78.1015642,27.6396463 78.2734375,27.0371133 78.2734375,26.2519531 C78.2734375,25.4628867 78.1015642,24.857424 77.7578125,24.4355469 C77.4140608,24.0136698 76.9140658,23.8027344 76.2578125,23.8027344 C75.613278,23.8027344 75.1044941,24.0234353 74.7314453,24.4648438 C74.3583966,24.9062522 74.171875,25.5117149 74.171875,26.28125 Z M82.2109375,28.5722656 L82.2109375,32.46875 L81.0625,32.46875 L81.0625,23.0058594 L82.2109375,23.0058594 L82.2109375,24.125 L82.234375,24.125 C82.74219,23.2773395 83.4843701,22.8535156 84.4609375,22.8535156 C85.2890666,22.8535156 85.9384742,23.1435518 86.4091797,23.7236328 C86.8798852,24.3037138 87.1152344,25.0820264 87.1152344,26.0585938 C87.1152344,27.1367241 86.8486355,28.0029264 86.3154297,28.6572266 C85.7822239,29.3115267 85.0644576,29.6386719 84.1621094,29.6386719 C83.330074,29.6386719 82.6875023,29.2832067 82.234375,28.5722656 L82.2109375,28.5722656 Z M82.2050781,26.8144531 C82.2050781,27.3417995 82.3749983,27.786131 82.7148438,28.1474609 C83.0546892,28.5087909 83.4804662,28.6894531 83.9921875,28.6894531 C84.6015655,28.6894531 85.0781233,28.4550805 85.421875,27.9863281 C85.7656267,27.5175758 85.9375,26.8691448 85.9375,26.0410156 C85.9375,25.3417934 85.7773454,24.7939473 85.4570312,24.3974609 C85.1367171,24.0009746 84.6992215,23.8027344 84.1445312,23.8027344 C83.5781222,23.8027344 83.1132831,24.0039042 82.75,24.40625 C82.3867169,24.8085958 82.2050781,25.3242156 82.2050781,25.953125 L82.2050781,26.8144531 Z M91.8378906,29.421875 C91.5878894,29.5585944 91.2500021,29.6269531 90.8242188,29.6269531 C89.6640567,29.6269531 89.0839844,28.9843814 89.0839844,27.6992188 L89.0839844,23.9550781 L87.9707031,23.9550781 L87.9707031,23.0058594 L89.0839844,23.0058594 L89.0839844,21.4472656 L90.2265625,21.0839844 L90.2265625,23.0058594 L91.8378906,23.0058594 L91.8378906,23.9550781 L90.2265625,23.9550781 L90.2265625,27.4941406 C90.2265625,27.919924 90.2988274,28.2246085 90.4433594,28.4082031 C90.5878913,28.5917978 90.8281233,28.6835938 91.1640625,28.6835938 C91.4218763,28.6835938 91.6464834,28.6113288 91.8378906,28.4667969 L91.8378906,29.421875 Z M93.0566406,20.7207031 C93.0566406,20.5175771 93.1259759,20.3466804 93.2646484,20.2080078 C93.403321,20.0693352 93.5742177,20 93.7773438,20 C93.984376,20 94.159179,20.0683587 94.3017578,20.2050781 C94.4443367,20.3417976 94.515625,20.5136708 94.515625,20.7207031 C94.515625,20.9238291 94.4443367,21.0927728 94.3017578,21.2275391 C94.159179,21.3623054 93.984376,21.4296875 93.7773438,21.4296875 C93.5703115,21.4296875 93.3984382,21.3623054 93.2617188,21.2275391 C93.1249993,21.0927728 93.0566406,20.9238291 93.0566406,20.7207031 Z M93.1914062,29.4863281 L93.1914062,23.0058594 L94.3398438,23.0058594 L94.3398438,29.4863281 L93.1914062,29.4863281 Z M95.9570312,26.3164062 C95.9570312,25.2460884 96.2558564,24.4013703 96.8535156,23.7822266 C97.4511749,23.1630828 98.2617136,22.8535156 99.2851562,22.8535156 C100.257817,22.8535156 101.020505,23.1513642 101.573242,23.7470703 C102.125979,24.3427764 102.402344,25.1660104 102.402344,26.2167969 C102.402344,27.2402395 102.107425,28.0664031 101.517578,28.6953125 C100.927731,29.3242219 100.136724,29.6386719 99.1445312,29.6386719 C98.1757764,29.6386719 97.4023466,29.3339874 96.8242188,28.7246094 C96.2460909,28.1152313 95.9570312,27.312505 95.9570312,26.3164062 Z M97.1289062,26.28125 C97.1289062,27.0273475 97.3173809,27.6152322 97.6943359,28.0449219 C98.0712909,28.4746115 98.5781218,28.6894531 99.2148438,28.6894531 C99.871097,28.6894531 100.371092,28.4794943 100.714844,28.0595703 C101.058595,27.6396463 101.230469,27.0371133 101.230469,26.2519531 C101.230469,25.4628867 101.058595,24.857424 100.714844,24.4355469 C100.371092,24.0136698 99.871097,23.8027344 99.2148438,23.8027344 C98.5703093,23.8027344 98.0615253,24.0234353 97.6884766,24.4648438 C97.3154278,24.9062522 97.1289062,25.5117149 97.1289062,26.28125 Z M109.498047,29.4863281 L108.355469,29.4863281 L108.355469,25.8007812 C108.355469,24.4687433 107.869145,23.8027344 106.896484,23.8027344 C106.392576,23.8027344 105.978517,23.9902325 105.654297,24.3652344 C105.330077,24.7402362 105.167969,25.2148409 105.167969,25.7890625 L105.167969,29.4863281 L104.019531,29.4863281 L104.019531,23.0058594 L105.167969,23.0058594 L105.167969,24.078125 L105.191406,24.078125 C105.67969,23.2617147 106.388667,22.8535156 107.318359,22.8535156 C108.0293,22.8535156 108.570311,23.0810524 108.941406,23.5361328 C109.312502,23.9912132 109.498047,24.6542925 109.498047,25.5253906 L109.498047,29.4863281 Z M116.699219,29.4863281 L111.496094,29.4863281 L111.496094,28.4960938 L113.529297,28.4960938 L113.529297,21.6054688 L111.443359,22.2089844 L111.443359,21.1542969 L114.671875,20.2167969 L114.671875,28.4960938 L116.699219,28.4960938 L116.699219,29.4863281 Z" id="option1" fill="#5A6677" fill-rule="nonzero"></path>
                <circle id="椭圆形" stroke="#E7EAED" fill="#F8F8F8" cx="240" cy="26" r="7.5"></circle>
                <path d="M253,26.3164062 C253,25.2460884 253.298825,24.4013703 253.896484,23.7822266 C254.494144,23.1630828 255.304682,22.8535156 256.328125,22.8535156 C257.300786,22.8535156 258.063474,23.1513642 258.616211,23.7470703 C259.168948,24.3427764 259.445312,25.1660104 259.445312,26.2167969 C259.445312,27.2402395 259.150394,28.0664031 258.560547,28.6953125 C257.9707,29.3242219 257.179692,29.6386719 256.1875,29.6386719 C255.218745,29.6386719 254.445315,29.3339874 253.867188,28.7246094 C253.28906,28.1152313 253,27.312505 253,26.3164062 Z M254.171875,26.28125 C254.171875,27.0273475 254.36035,27.6152322 254.737305,28.0449219 C255.11426,28.4746115 255.621091,28.6894531 256.257812,28.6894531 C256.914066,28.6894531 257.414061,28.4794943 257.757812,28.0595703 C258.101564,27.6396463 258.273438,27.0371133 258.273438,26.2519531 C258.273438,25.4628867 258.101564,24.857424 257.757812,24.4355469 C257.414061,24.0136698 256.914066,23.8027344 256.257812,23.8027344 C255.613278,23.8027344 255.104494,24.0234353 254.731445,24.4648438 C254.358397,24.9062522 254.171875,25.5117149 254.171875,26.28125 Z M262.210938,28.5722656 L262.210938,32.46875 L261.0625,32.46875 L261.0625,23.0058594 L262.210938,23.0058594 L262.210938,24.125 L262.234375,24.125 C262.74219,23.2773395 263.48437,22.8535156 264.460938,22.8535156 C265.289067,22.8535156 265.938474,23.1435518 266.40918,23.7236328 C266.879885,24.3037138 267.115234,25.0820264 267.115234,26.0585938 C267.115234,27.1367241 266.848635,28.0029264 266.31543,28.6572266 C265.782224,29.3115267 265.064458,29.6386719 264.162109,29.6386719 C263.330074,29.6386719 262.687502,29.2832067 262.234375,28.5722656 L262.210938,28.5722656 Z M262.205078,26.8144531 C262.205078,27.3417995 262.374998,27.786131 262.714844,28.1474609 C263.054689,28.5087909 263.480466,28.6894531 263.992188,28.6894531 C264.601566,28.6894531 265.078123,28.4550805 265.421875,27.9863281 C265.765627,27.5175758 265.9375,26.8691448 265.9375,26.0410156 C265.9375,25.3417934 265.777345,24.7939473 265.457031,24.3974609 C265.136717,24.0009746 264.699222,23.8027344 264.144531,23.8027344 C263.578122,23.8027344 263.113283,24.0039042 262.75,24.40625 C262.386717,24.8085958 262.205078,25.3242156 262.205078,25.953125 L262.205078,26.8144531 Z M271.837891,29.421875 C271.587889,29.5585944 271.250002,29.6269531 270.824219,29.6269531 C269.664057,29.6269531 269.083984,28.9843814 269.083984,27.6992188 L269.083984,23.9550781 L267.970703,23.9550781 L267.970703,23.0058594 L269.083984,23.0058594 L269.083984,21.4472656 L270.226562,21.0839844 L270.226562,23.0058594 L271.837891,23.0058594 L271.837891,23.9550781 L270.226562,23.9550781 L270.226562,27.4941406 C270.226562,27.919924 270.298827,28.2246085 270.443359,28.4082031 C270.587891,28.5917978 270.828123,28.6835938 271.164062,28.6835938 C271.421876,28.6835938 271.646483,28.6113288 271.837891,28.4667969 L271.837891,29.421875 Z M273.056641,20.7207031 C273.056641,20.5175771 273.125976,20.3466804 273.264648,20.2080078 C273.403321,20.0693352 273.574218,20 273.777344,20 C273.984376,20 274.159179,20.0683587 274.301758,20.2050781 C274.444337,20.3417976 274.515625,20.5136708 274.515625,20.7207031 C274.515625,20.9238291 274.444337,21.0927728 274.301758,21.2275391 C274.159179,21.3623054 273.984376,21.4296875 273.777344,21.4296875 C273.570311,21.4296875 273.398438,21.3623054 273.261719,21.2275391 C273.124999,21.0927728 273.056641,20.9238291 273.056641,20.7207031 Z M273.191406,29.4863281 L273.191406,23.0058594 L274.339844,23.0058594 L274.339844,29.4863281 L273.191406,29.4863281 Z M275.957031,26.3164062 C275.957031,25.2460884 276.255856,24.4013703 276.853516,23.7822266 C277.451175,23.1630828 278.261714,22.8535156 279.285156,22.8535156 C280.257817,22.8535156 281.020505,23.1513642 281.573242,23.7470703 C282.125979,24.3427764 282.402344,25.1660104 282.402344,26.2167969 C282.402344,27.2402395 282.107425,28.0664031 281.517578,28.6953125 C280.927731,29.3242219 280.136724,29.6386719 279.144531,29.6386719 C278.175776,29.6386719 277.402347,29.3339874 276.824219,28.7246094 C276.246091,28.1152313 275.957031,27.312505 275.957031,26.3164062 Z M277.128906,26.28125 C277.128906,27.0273475 277.317381,27.6152322 277.694336,28.0449219 C278.071291,28.4746115 278.578122,28.6894531 279.214844,28.6894531 C279.871097,28.6894531 280.371092,28.4794943 280.714844,28.0595703 C281.058595,27.6396463 281.230469,27.0371133 281.230469,26.2519531 C281.230469,25.4628867 281.058595,24.857424 280.714844,24.4355469 C280.371092,24.0136698 279.871097,23.8027344 279.214844,23.8027344 C278.570309,23.8027344 278.061525,24.0234353 277.688477,24.4648438 C277.315428,24.9062522 277.128906,25.5117149 277.128906,26.28125 Z M289.498047,29.4863281 L288.355469,29.4863281 L288.355469,25.8007812 C288.355469,24.4687433 287.869145,23.8027344 286.896484,23.8027344 C286.392576,23.8027344 285.978517,23.9902325 285.654297,24.3652344 C285.330077,24.7402362 285.167969,25.2148409 285.167969,25.7890625 L285.167969,29.4863281 L284.019531,29.4863281 L284.019531,23.0058594 L285.167969,23.0058594 L285.167969,24.078125 L285.191406,24.078125 C285.67969,23.2617147 286.388667,22.8535156 287.318359,22.8535156 C288.0293,22.8535156 288.570311,23.0810524 288.941406,23.5361328 C289.312502,23.9912132 289.498047,24.6542925 289.498047,25.5253906 L289.498047,29.4863281 Z M291.226562,27.96875 C291.847659,28.4492212 292.548824,28.6894531 293.330078,28.6894531 C293.955081,28.6894531 294.450193,28.5361343 294.81543,28.2294922 C295.180666,27.92285 295.363281,27.5117213 295.363281,26.9960938 C295.363281,25.8476505 294.541024,25.2734375 292.896484,25.2734375 L292.140625,25.2734375 L292.140625,24.3242188 L292.861328,24.3242188 C294.318367,24.3242188 295.046875,23.7851616 295.046875,22.7070312 C295.046875,21.7109325 294.49024,21.2128906 293.376953,21.2128906 C292.740231,21.2128906 292.140628,21.4277322 291.578125,21.8574219 L291.578125,20.7734375 C292.171878,20.4296858 292.86523,20.2578125 293.658203,20.2578125 C294.431644,20.2578125 295.052732,20.4599589 295.521484,20.8642578 C295.990237,21.2685567 296.224609,21.7929655 296.224609,22.4375 C296.224609,23.6250059 295.619147,24.3886702 294.408203,24.7285156 L294.408203,24.7519531 C295.064456,24.822266 295.583006,25.053709 295.963867,25.4462891 C296.344728,25.8388692 296.535156,26.3281221 296.535156,26.9140625 C296.535156,27.7304728 296.241214,28.3886694 295.65332,28.8886719 C295.065427,29.3886744 294.283208,29.6386719 293.306641,29.6386719 C292.447261,29.6386719 291.753909,29.4785172 291.226562,29.1582031 L291.226562,27.96875 Z" id="option3" fill="#AAADBA" fill-rule="nonzero"></path>
                <path d="M163,26.3164062 C163,25.2460884 163.298825,24.4013703 163.896484,23.7822266 C164.494144,23.1630828 165.304682,22.8535156 166.328125,22.8535156 C167.300786,22.8535156 168.063474,23.1513642 168.616211,23.7470703 C169.168948,24.3427764 169.445312,25.1660104 169.445312,26.2167969 C169.445312,27.2402395 169.150394,28.0664031 168.560547,28.6953125 C167.9707,29.3242219 167.179692,29.6386719 166.1875,29.6386719 C165.218745,29.6386719 164.445315,29.3339874 163.867188,28.7246094 C163.28906,28.1152313 163,27.312505 163,26.3164062 Z M164.171875,26.28125 C164.171875,27.0273475 164.36035,27.6152322 164.737305,28.0449219 C165.11426,28.4746115 165.621091,28.6894531 166.257812,28.6894531 C166.914066,28.6894531 167.414061,28.4794943 167.757812,28.0595703 C168.101564,27.6396463 168.273438,27.0371133 168.273438,26.2519531 C168.273438,25.4628867 168.101564,24.857424 167.757812,24.4355469 C167.414061,24.0136698 166.914066,23.8027344 166.257812,23.8027344 C165.613278,23.8027344 165.104494,24.0234353 164.731445,24.4648438 C164.358397,24.9062522 164.171875,25.5117149 164.171875,26.28125 Z M172.210938,28.5722656 L172.210938,32.46875 L171.0625,32.46875 L171.0625,23.0058594 L172.210938,23.0058594 L172.210938,24.125 L172.234375,24.125 C172.74219,23.2773395 173.48437,22.8535156 174.460938,22.8535156 C175.289067,22.8535156 175.938474,23.1435518 176.40918,23.7236328 C176.879885,24.3037138 177.115234,25.0820264 177.115234,26.0585938 C177.115234,27.1367241 176.848635,28.0029264 176.31543,28.6572266 C175.782224,29.3115267 175.064458,29.6386719 174.162109,29.6386719 C173.330074,29.6386719 172.687502,29.2832067 172.234375,28.5722656 L172.210938,28.5722656 Z M172.205078,26.8144531 C172.205078,27.3417995 172.374998,27.786131 172.714844,28.1474609 C173.054689,28.5087909 173.480466,28.6894531 173.992188,28.6894531 C174.601566,28.6894531 175.078123,28.4550805 175.421875,27.9863281 C175.765627,27.5175758 175.9375,26.8691448 175.9375,26.0410156 C175.9375,25.3417934 175.777345,24.7939473 175.457031,24.3974609 C175.136717,24.0009746 174.699222,23.8027344 174.144531,23.8027344 C173.578122,23.8027344 173.113283,24.0039042 172.75,24.40625 C172.386717,24.8085958 172.205078,25.3242156 172.205078,25.953125 L172.205078,26.8144531 Z M181.837891,29.421875 C181.587889,29.5585944 181.250002,29.6269531 180.824219,29.6269531 C179.664057,29.6269531 179.083984,28.9843814 179.083984,27.6992188 L179.083984,23.9550781 L177.970703,23.9550781 L177.970703,23.0058594 L179.083984,23.0058594 L179.083984,21.4472656 L180.226562,21.0839844 L180.226562,23.0058594 L181.837891,23.0058594 L181.837891,23.9550781 L180.226562,23.9550781 L180.226562,27.4941406 C180.226562,27.919924 180.298827,28.2246085 180.443359,28.4082031 C180.587891,28.5917978 180.828123,28.6835938 181.164062,28.6835938 C181.421876,28.6835938 181.646483,28.6113288 181.837891,28.4667969 L181.837891,29.421875 Z M183.056641,20.7207031 C183.056641,20.5175771 183.125976,20.3466804 183.264648,20.2080078 C183.403321,20.0693352 183.574218,20 183.777344,20 C183.984376,20 184.159179,20.0683587 184.301758,20.2050781 C184.444337,20.3417976 184.515625,20.5136708 184.515625,20.7207031 C184.515625,20.9238291 184.444337,21.0927728 184.301758,21.2275391 C184.159179,21.3623054 183.984376,21.4296875 183.777344,21.4296875 C183.570311,21.4296875 183.398438,21.3623054 183.261719,21.2275391 C183.124999,21.0927728 183.056641,20.9238291 183.056641,20.7207031 Z M183.191406,29.4863281 L183.191406,23.0058594 L184.339844,23.0058594 L184.339844,29.4863281 L183.191406,29.4863281 Z M185.957031,26.3164062 C185.957031,25.2460884 186.255856,24.4013703 186.853516,23.7822266 C187.451175,23.1630828 188.261714,22.8535156 189.285156,22.8535156 C190.257817,22.8535156 191.020505,23.1513642 191.573242,23.7470703 C192.125979,24.3427764 192.402344,25.1660104 192.402344,26.2167969 C192.402344,27.2402395 192.107425,28.0664031 191.517578,28.6953125 C190.927731,29.3242219 190.136724,29.6386719 189.144531,29.6386719 C188.175776,29.6386719 187.402347,29.3339874 186.824219,28.7246094 C186.246091,28.1152313 185.957031,27.312505 185.957031,26.3164062 Z M187.128906,26.28125 C187.128906,27.0273475 187.317381,27.6152322 187.694336,28.0449219 C188.071291,28.4746115 188.578122,28.6894531 189.214844,28.6894531 C189.871097,28.6894531 190.371092,28.4794943 190.714844,28.0595703 C191.058595,27.6396463 191.230469,27.0371133 191.230469,26.2519531 C191.230469,25.4628867 191.058595,24.857424 190.714844,24.4355469 C190.371092,24.0136698 189.871097,23.8027344 189.214844,23.8027344 C188.570309,23.8027344 188.061525,24.0234353 187.688477,24.4648438 C187.315428,24.9062522 187.128906,25.5117149 187.128906,26.28125 Z M199.498047,29.4863281 L198.355469,29.4863281 L198.355469,25.8007812 C198.355469,24.4687433 197.869145,23.8027344 196.896484,23.8027344 C196.392576,23.8027344 195.978517,23.9902325 195.654297,24.3652344 C195.330077,24.7402362 195.167969,25.2148409 195.167969,25.7890625 L195.167969,29.4863281 L194.019531,29.4863281 L194.019531,23.0058594 L195.167969,23.0058594 L195.167969,24.078125 L195.191406,24.078125 C195.67969,23.2617147 196.388667,22.8535156 197.318359,22.8535156 C198.0293,22.8535156 198.570311,23.0810524 198.941406,23.5361328 C199.312502,23.9912132 199.498047,24.6542925 199.498047,25.5253906 L199.498047,29.4863281 Z M206.529297,29.4863281 L201.009766,29.4863281 L201.009766,28.4902344 L203.646484,25.859375 C204.373051,25.1328089 204.859374,24.5576193 205.105469,24.1337891 C205.351564,23.7099588 205.474609,23.2714866 205.474609,22.8183594 C205.474609,22.3027318 205.33008,21.9072279 205.041016,21.6318359 C204.751952,21.3564439 204.333987,21.21875 203.787109,21.21875 C202.978512,21.21875 202.207035,21.5624966 201.472656,22.25 L201.472656,21.0839844 C202.187504,20.5332004 203.019527,20.2578125 203.96875,20.2578125 C204.78516,20.2578125 205.429685,20.4785134 205.902344,20.9199219 C206.375002,21.3613303 206.611328,21.9550744 206.611328,22.7011719 C206.611328,23.2636747 206.459962,23.815427 206.157227,24.3564453 C205.854491,24.8974636 205.281254,25.5859333 204.4375,26.421875 L202.369141,28.4433594 L202.369141,28.4667969 L206.529297,28.4667969 L206.529297,29.4863281 Z" id="option2" fill="#5A6677" fill-rule="nonzero"></path>
                <text id="样式二" font-family="MicrosoftYaHei, Microsoft YaHei" font-size="12" font-weight="normal" line-spacing="22" fill="#525A6E">
                    <tspan x="8" y="27">样式二</tspan>
                </text>
            </g>
        </g>
    </g>
</svg>