<?xml version="1.0" encoding="UTF-8"?>
<svg width="241px" height="92px" viewBox="0 0 241 92" version="1.1" xmlns="http://www.w3.org/2000/svg" xmlns:xlink="http://www.w3.org/1999/xlink">
    <!-- Generator: Sketch 58 (84663) - https://sketch.com -->
    <title>Btn-style1</title>
    <desc>Created with Sketch.</desc>
    <g id="页面-1" stroke="none" stroke-width="1" fill="none" fill-rule="evenodd">
        <g id="Btn-style1">
            <rect id="矩形" fill="#FAFAFA" opacity="0.01" x="0" y="0" width="241" height="92"></rect>
            <text id="样式一" font-family="MicrosoftYaHei, Microsoft YaHei" font-size="12" font-weight="normal" line-spacing="22" fill="#525A6E">
                <tspan x="8" y="27">样式一</tspan>
            </text>
            <g id="Group" transform="translate(112.000000, 12.000000)">
                <rect id="Rectangle" fill="#3965C9" x="0" y="0" width="56" height="28" rx="2"></rect>
                <path d="M16.7910156,9.6171875 L21.7949219,9.6171875 L21.7949219,8.36328125 L22.6269531,8.36328125 L22.6269531,9.6171875 L27.7011719,9.6171875 L27.7011719,10.4023438 L23.359375,10.4023438 C24.5937562,11.3437547 26.1542874,12.0546851 28.0410156,12.5351562 L27.6235353,13.1745602 C27.5815432,13.2404781 27.5410158,13.3046872 27.5019531,13.3671875 C27.080076,13.2226555 26.6738301,13.0664071 26.2832031,12.8984375 L26.2832031,17.984375 L25.3925781,17.984375 L25.3925781,17.4570312 L19.0761719,17.4570312 L19.0761719,17.9960938 L18.1855469,17.9960938 L18.1855469,12.9570312 C17.7871074,13.1406259 17.3691428,13.3164054 16.9316406,13.484375 C16.7675773,13.2421863 16.5839854,12.9921888 16.3808594,12.734375 C18.3964945,12.0976531 19.9414009,11.3203171 21.015625,10.4023438 L16.7910156,10.4023438 L16.7910156,9.6171875 Z M16.5097656,18.6171875 L27.9238281,18.6171875 L27.9238281,19.4609375 L16.5097656,19.4609375 L16.5097656,18.6171875 Z M21.7949219,12.6054688 L21.7949219,10.5957031 C20.8964799,11.462895 19.7363352,12.2304654 18.3144531,12.8984375 L26.2773438,12.8984375 C24.8359303,12.2851532 23.6191456,11.5253952 22.6269531,10.6191406 L22.6269531,12.6054688 L21.7949219,12.6054688 Z M19.0761719,16.6484375 L25.3925781,16.6484375 L25.3925781,15.5703125 L19.0761719,15.5703125 L19.0761719,16.6484375 Z M25.3925781,13.7070312 L19.0761719,13.7070312 L19.0761719,14.7734375 L25.3925781,14.7734375 L25.3925781,13.7070312 Z M32.6816406,12.0664062 L36.9707031,12.0664062 L36.9707031,17.4101562 L33.5253906,17.4101562 L33.5253906,18.1015625 L32.6816406,18.1015625 L32.6816406,12.0664062 Z M31.2167969,12.2070312 C32.1855517,11.0820256 32.9941374,9.77735117 33.6425781,8.29296875 L34.5332031,8.6328125 C34.3261708,9.05468961 34.1171886,9.45702934 33.90625,9.83984375 L39.6191406,9.83984375 L39.4368687,16.14329 C39.4184377,16.6950669 39.4010701,17.1798552 39.3847656,17.5976562 C39.3222653,19.0039133 38.7128964,19.7070312 37.5566406,19.7070312 C36.8456996,19.7070312 36.2089872,19.6875002 35.6464844,19.6484375 C35.5996091,19.3359359 35.5332036,18.9921894 35.4472656,18.6171875 C36.1425816,18.726563 36.7714816,18.78125 37.3339844,18.78125 C38.0371129,18.78125 38.4160154,18.3281295 38.4707031,17.421875 L38.516172,16.3085917 C38.574922,14.7460925 38.6261717,12.8711047 38.6699219,10.6835938 L33.4199219,10.6835938 C32.9550758,11.4492226 32.4746119,12.1328095 31.9785156,12.734375 C31.7910147,12.5781242 31.537111,12.4023447 31.2167969,12.2070312 Z M32.0253906,17.140625 L32.0553906,17.5943755 C32.0713281,17.8043751 32.0886718,17.9890617 32.1074219,18.1484375 L31.59257,18.4893476 C30.8598082,18.9815357 30.3048669,19.3874274 29.9277344,19.7070312 L29.3769531,18.921875 C29.6425795,18.6953114 29.7753906,18.3593772 29.7753906,17.9140625 L29.7753906,13.2617188 L28.4042969,13.2617188 L28.4042969,12.4179688 L30.6777344,12.4179688 L30.6777344,18.078125 C31.1230491,17.7812485 31.5722634,17.4687516 32.0253906,17.140625 Z M36.1269531,16.6132812 L36.1269531,15.1015625 L33.5253906,15.1015625 L33.5253906,16.6132812 L36.1269531,16.6132812 Z M36.1269531,12.8632812 L33.5253906,12.8632812 L33.5253906,14.328125 L36.1269531,14.328125 L36.1269531,12.8632812 Z M28.8847656,9.18359375 L29.5761719,8.5859375 L30.8271489,9.88590538 C31.0680337,10.1403535 31.2682284,10.3554679 31.4277344,10.53125 L30.6308594,11.1992188 C30.1386694,10.550778 29.556644,9.87890973 28.8847656,9.18359375 Z" id="查询" fill="#FFFFFF" fill-rule="nonzero"></path>
            </g>
            <g id="Group备份" transform="translate(52.000000, 12.000000)">
                <rect id="Rectangle" fill="#4F7DE7" x="0" y="0" width="56" height="28" rx="2"></rect>
                <g id="编组-58" transform="translate(24.000000, 8.000000)" fill="#FFFFFF" fill-rule="nonzero">
                    <path d="M6.57421875,1.04296875 C8.19141434,1.02734367 9.68358691,0.867189023 11.0507812,0.5625 L11.3554688,1.46484375 C9.80858602,1.66796977 8.49219293,1.80078094 7.40625,1.86328125 L7.40625,4.59375 L11.6835938,4.59375 L11.6835938,5.390625 L10.0078125,5.390625 L10.0078125,11.53125 L9.140625,11.53125 L9.140625,5.390625 L7.40625,5.390625 L7.40625,5.96484375 C7.40625,8.36329324 6.83203699,10.2304621 5.68359375,11.5664062 C5.49609281,11.3242175 5.28906363,11.07422 5.0625,10.8164062 C6.07031754,9.71483824 6.57421875,8.08594828 6.57421875,5.9296875 L6.57421875,1.04296875 Z M0.328125,6.3046875 L2.71875,6.3046875 L2.71875,5.19140625 L3.5625,5.19140625 L3.5625,6.3046875 L5.859375,6.3046875 L5.859375,7.0546875 L3.5625,7.0546875 L3.5625,10.1132812 C3.5625,10.9414104 3.16406648,11.3554688 2.3671875,11.3554688 L1.83105485,11.3525391 C1.6416022,11.350586 1.4414073,11.3476563 1.23046875,11.34375 L1.17480473,10.9277345 C1.15332041,10.7792974 1.12890639,10.6210946 1.1015625,10.453125 L1.52213614,10.4921876 C1.78081641,10.5130209 1.99609289,10.5234375 2.16796875,10.5234375 C2.53515809,10.5234375 2.71875,10.3242207 2.71875,9.92578125 L2.71875,7.0546875 L0.328125,7.0546875 L0.328125,6.3046875 Z M0,4.11328125 L1.88671875,4.11328125 C1.55468584,3.58593486 1.24218896,3.13281439 0.94921875,2.75390625 L1.58203125,2.30859375 L1.82118962,2.60801995 C2.03563439,2.88384849 2.28794498,3.22544439 2.578125,3.6328125 L1.91601563,4.11328125 L3.46289062,4.11328125 C3.888674,3.49999693 4.2812482,2.89453424 4.640625,2.296875 L5.47265625,2.765625 C5.09374811,3.25390869 4.73242359,3.70312295 4.38867188,4.11328125 L6.1640625,4.11328125 L6.1640625,4.86328125 L0,4.86328125 L0,4.11328125 Z M0.375,1.39453125 L2.90625,1.39453125 L2.63671884,0.89355479 C2.54101595,0.7197271 2.43945366,0.539063437 2.33203125,0.3515625 L3.08203125,0 C3.32421996,0.398439492 3.5507802,0.800779219 3.76171875,1.20703125 L3.36914062,1.39453125 L5.859375,1.39453125 L5.859375,2.14453125 L0.375,2.14453125 L0.375,1.39453125 Z M1.23046875,7.58203125 L2.02734375,7.95703125 C1.60546664,8.83984816 1.18750207,9.6367152 0.7734375,10.3476562 C0.546873867,10.2070305 0.289063945,10.066407 0,9.92578125 C0.382814414,9.33202828 0.792966562,8.55078609 1.23046875,7.58203125 Z M4.60546875,7.640625 C5.04297094,8.23437797 5.42577961,8.7812475 5.75390625,9.28125 L5.00390625,9.796875 C4.66015453,9.19530949 4.29687691,8.62890891 3.9140625,8.09765625 L4.60546875,7.640625 Z M12.9609375,6.1640625 C13.1953137,7.11719227 13.5234354,7.90038756 13.9453125,8.51367188 C14.3632833,7.65429258 14.6249995,6.66406811 14.7304688,5.54296875 L12.3867188,5.54296875 L12.3867188,4.6875 L14.5429688,2.02734375 L12.1523438,2.02734375 L12.1523438,1.23046875 L15.6210938,1.23046875 L15.6210938,2.02734375 L13.4179688,4.74609375 L15.609375,4.74609375 L15.609375,5.4375 C15.464843,6.886726 15.1113309,8.14257281 14.5488281,9.20507812 C15.347172,9.89722026 16.5592044,10.2683491 18.184958,10.3184739 L18.515625,10.3242188 C20.0000074,10.3554689 21.7226464,10.3359379 23.6835938,10.265625 L23.296875,11.1914062 L23.296875,11.1914062 L18.1054688,11.1679688 L18.1054688,11.1679688 C16.3632725,11.1679688 15.0273484,10.7617228 14.0976562,9.94921875 C13.6562478,10.589847 13.1210969,11.1484351 12.4921875,11.625 C12.3671869,11.3984364 12.2070322,11.1445327 12.0117188,10.8632812 C12.5976592,10.4179665 13.0898418,9.89844047 13.4882812,9.3046875 C12.9648411,8.64062168 12.5312517,7.69141242 12.1875,6.45703125 L12.9609375,6.1640625 Z" id="新建"></path>
                    <path d="M19.59375,0.08203125 L19.59375,1.23046875 L22.3125,1.23046875 L22.3125,2.953125 L23.5429688,2.953125 L23.5429688,3.6796875 L22.3125,3.6796875 L22.3125,5.71875 L21.46875,5.71875 L21.46875,5.40234375 L19.59375,5.40234375 L19.59375,6.421875 L22.546875,6.421875 L22.546875,7.125 L19.59375,7.125 L19.59375,8.14453125 L23.0859375,8.14453125 L23.0859375,8.84765625 L19.59375,8.84765625 L19.59375,10.0546875 L18.7265625,10.0546875 L18.7265625,8.84765625 L15.7265625,8.84765625 L15.7265625,8.14453125 L18.7265625,8.14453125 L18.7265625,7.125 L16.125,7.125 L16.125,6.421875 L18.7265625,6.421875 L18.7265625,5.40234375 L16.2890625,5.40234375 L16.2890625,4.69921875 L18.7265625,4.69921875 L18.7265625,3.6796875 L15.6796875,3.6796875 L15.6796875,2.953125 L18.7265625,2.953125 L18.7265625,1.93359375 L16.2890625,1.93359375 L16.2890625,1.23046875 L18.7265625,1.23046875 L18.7265625,0.08203125 L19.59375,0.08203125 Z M21.46875,3.6796875 L19.59375,3.6796875 L19.59375,4.69921875 L21.46875,4.69921875 L21.46875,3.6796875 Z M21.46875,1.93359375 L19.59375,1.93359375 L19.59375,2.953125 L21.46875,2.953125 L21.46875,1.93359375 Z" id="形状结合"></path>
                </g>
                <g id="编组-9" transform="translate(8.000000, 8.000000)">
                    <rect id="矩形" fill="#D8D8D8" opacity="0.01" x="0" y="0" width="12" height="12"></rect>
                    <path d="M6,1 C6.27614237,1 6.5,1.22385763 6.5,1.5 L6.5,5.5 L10.5,5.5 C10.7761424,5.5 11,5.72385763 11,6 C11,6.27614237 10.7761424,6.5 10.5,6.5 L6.499,6.5 L6.5,10.5 C6.5,10.7761424 6.27614237,11 6,11 C5.72385763,11 5.5,10.7761424 5.5,10.5 L5.499,6.5 L1.5,6.5 C1.22385763,6.5 1,6.27614237 1,6 C1,5.72385763 1.22385763,5.5 1.5,5.5 L5.5,5.5 L5.5,1.5 C5.5,1.22385763 5.72385763,1 6,1 Z" id="矩形-3" fill="#FFFFFF"></path>
                </g>
            </g>
            <g id="Group-2" transform="translate(172.000000, 12.000000)">
                <rect id="Rectangle" stroke="#D5DAE0" fill="#FFFFFF" x="0.5" y="0.5" width="55" height="27" rx="2"></rect>
                <path d="M16.2050781,18.59375 L21.5722656,18.59375 L21.5722656,17.7265625 L17.1191406,17.7265625 L17.1191406,17.0351562 L21.5722656,17.0351562 L21.5722656,16.0507812 L18.4082031,16.0507812 L18.4082031,16.4726562 L17.5878906,16.4726562 L17.5878906,12.0664062 L21.5722656,12.0664062 L21.5722656,11.2226562 L16.2988281,11.2226562 L16.2988281,10.4960938 L21.5722656,10.4960938 L21.5722656,9.57617188 L19.4072268,9.63623049 C18.6728536,9.65478513 17.925785,9.67187492 17.1660156,9.6875 C17.1191404,9.43749875 17.0644534,9.17187641 17.0019531,8.890625 L18.9196024,8.86230466 C22.0109695,8.80696621 24.5787658,8.71093818 26.6230469,8.57421875 L26.7636719,9.37109375 L25.066796,9.44796881 C24.204298,9.48499999 23.3207076,9.51992171 22.4160156,9.55273438 L22.4160156,10.4960938 L27.7363281,10.4960938 L27.7363281,11.2226562 L22.4160156,11.2226562 L22.4160156,12.0664062 L26.4355469,12.0664062 L26.4355469,16.4609375 L25.6152344,16.4609375 L25.6152344,16.0507812 L22.4160156,16.0507812 L22.4160156,17.0351562 L26.8808594,17.0351562 L26.8808594,17.7265625 L22.4160156,17.7265625 L22.4160156,18.59375 L27.7363281,18.59375 L27.7363281,19.3203125 L16.2050781,19.3203125 L16.2050781,18.59375 Z M22.4160156,15.3710938 L25.6152344,15.3710938 L25.6152344,14.3632812 L22.4160156,14.3632812 L22.4160156,15.3710938 Z M18.4082031,15.3710938 L21.5722656,15.3710938 L21.5722656,14.3632812 L18.4082031,14.3632812 L18.4082031,15.3710938 Z M25.6152344,12.7460938 L22.4160156,12.7460938 L22.4160156,13.7421875 L25.6152344,13.7421875 L25.6152344,12.7460938 Z M18.4082031,13.7421875 L21.5722656,13.7421875 L21.5722656,12.7460938 L18.4082031,12.7460938 L18.4082031,13.7421875 Z M28.1699219,18.7460938 L29.9160156,18.7460938 L29.9160156,13.3203125 L33.5019531,13.3203125 L33.5019531,12.5585938 L28.4511719,12.5585938 L28.4511719,11.9023438 L33.5019531,11.9023438 L33.5019531,11.28125 L34.3457031,11.28125 L34.3457031,11.9023438 L39.5253906,11.9023438 L39.5253906,12.5585938 L34.3457031,12.5585938 L34.3457031,13.3203125 L38.1777344,13.3203125 L38.1777344,18.7460938 L39.7949219,18.7460938 L39.7949219,19.4257812 L28.1699219,19.4257812 L28.1699219,18.7460938 Z M30.7363281,18.7460938 L37.3574219,18.7460938 L37.3574219,17.9960938 L30.7363281,17.9960938 L30.7363281,18.7460938 Z M30.7363281,17.3867188 L37.3574219,17.3867188 L37.3574219,16.6484375 L30.7363281,16.6484375 L30.7363281,17.3867188 Z M30.7363281,16.0390625 L37.3574219,16.0390625 L37.3574219,15.3007812 L30.7363281,15.3007812 L30.7363281,16.0390625 Z M37.3574219,13.953125 L30.7363281,13.953125 L30.7363281,14.6914062 L37.3574219,14.6914062 L37.3574219,13.953125 Z" id="重置" fill="#333333" fill-rule="nonzero"></path>
                <path d="M38.7871094,8.7734375 L38.7871094,11.3867188 L37.9902344,11.3867188 L37.9902344,11.1171875 L29.9980469,11.1171875 L29.9980469,11.3867188 L29.1894531,11.3867188 L29.1894531,8.7734375 L38.7871094,8.7734375 Z M37.9902344,9.40625 L35.8339844,9.40625 L35.8339844,10.484375 L37.9902344,10.484375 L37.9902344,9.40625 Z M35.0605469,9.40625 L32.9160156,9.40625 L32.9160156,10.484375 L35.0605469,10.484375 L35.0605469,9.40625 Z M32.1425781,9.40625 L29.9980469,9.40625 L29.9980469,10.484375 L32.1425781,10.484375 L32.1425781,9.40625 Z" id="形状结合" fill="#333333" fill-rule="nonzero"></path>
            </g>
            <g id="Group" transform="translate(112.000000, 48.000000)">
                <rect id="Rectangle" fill="#99AFE1" x="0" y="0" width="56" height="28" rx="2"></rect>
                <path d="M16.7910156,9.6171875 L21.7949219,9.6171875 L21.7949219,8.36328125 L22.6269531,8.36328125 L22.6269531,9.6171875 L27.7011719,9.6171875 L27.7011719,10.4023438 L23.359375,10.4023438 C24.5937562,11.3437547 26.1542874,12.0546851 28.0410156,12.5351562 L27.6235353,13.1745602 C27.5815432,13.2404781 27.5410158,13.3046872 27.5019531,13.3671875 C27.080076,13.2226555 26.6738301,13.0664071 26.2832031,12.8984375 L26.2832031,17.984375 L25.3925781,17.984375 L25.3925781,17.4570312 L19.0761719,17.4570312 L19.0761719,17.9960938 L18.1855469,17.9960938 L18.1855469,12.9570312 C17.7871074,13.1406259 17.3691428,13.3164054 16.9316406,13.484375 C16.7675773,13.2421863 16.5839854,12.9921888 16.3808594,12.734375 C18.3964945,12.0976531 19.9414009,11.3203171 21.015625,10.4023438 L16.7910156,10.4023438 L16.7910156,9.6171875 Z M16.5097656,18.6171875 L27.9238281,18.6171875 L27.9238281,19.4609375 L16.5097656,19.4609375 L16.5097656,18.6171875 Z M21.7949219,12.6054688 L21.7949219,10.5957031 C20.8964799,11.462895 19.7363352,12.2304654 18.3144531,12.8984375 L26.2773438,12.8984375 C24.8359303,12.2851532 23.6191456,11.5253952 22.6269531,10.6191406 L22.6269531,12.6054688 L21.7949219,12.6054688 Z M19.0761719,16.6484375 L25.3925781,16.6484375 L25.3925781,15.5703125 L19.0761719,15.5703125 L19.0761719,16.6484375 Z M25.3925781,13.7070312 L19.0761719,13.7070312 L19.0761719,14.7734375 L25.3925781,14.7734375 L25.3925781,13.7070312 Z M32.6816406,12.0664062 L36.9707031,12.0664062 L36.9707031,17.4101562 L33.5253906,17.4101562 L33.5253906,18.1015625 L32.6816406,18.1015625 L32.6816406,12.0664062 Z M31.2167969,12.2070312 C32.1855517,11.0820256 32.9941374,9.77735117 33.6425781,8.29296875 L34.5332031,8.6328125 C34.3261708,9.05468961 34.1171886,9.45702934 33.90625,9.83984375 L39.6191406,9.83984375 L39.4368687,16.14329 C39.4184377,16.6950669 39.4010701,17.1798552 39.3847656,17.5976562 C39.3222653,19.0039133 38.7128964,19.7070312 37.5566406,19.7070312 C36.8456996,19.7070312 36.2089872,19.6875002 35.6464844,19.6484375 C35.5996091,19.3359359 35.5332036,18.9921894 35.4472656,18.6171875 C36.1425816,18.726563 36.7714816,18.78125 37.3339844,18.78125 C38.0371129,18.78125 38.4160154,18.3281295 38.4707031,17.421875 L38.516172,16.3085917 C38.574922,14.7460925 38.6261717,12.8711047 38.6699219,10.6835938 L33.4199219,10.6835938 C32.9550758,11.4492226 32.4746119,12.1328095 31.9785156,12.734375 C31.7910147,12.5781242 31.537111,12.4023447 31.2167969,12.2070312 Z M32.0253906,17.140625 L32.0553906,17.5943755 C32.0713281,17.8043751 32.0886718,17.9890617 32.1074219,18.1484375 L31.59257,18.4893476 C30.8598082,18.9815357 30.3048669,19.3874274 29.9277344,19.7070312 L29.3769531,18.921875 C29.6425795,18.6953114 29.7753906,18.3593772 29.7753906,17.9140625 L29.7753906,13.2617188 L28.4042969,13.2617188 L28.4042969,12.4179688 L30.6777344,12.4179688 L30.6777344,18.078125 C31.1230491,17.7812485 31.5722634,17.4687516 32.0253906,17.140625 Z M36.1269531,16.6132812 L36.1269531,15.1015625 L33.5253906,15.1015625 L33.5253906,16.6132812 L36.1269531,16.6132812 Z M36.1269531,12.8632812 L33.5253906,12.8632812 L33.5253906,14.328125 L36.1269531,14.328125 L36.1269531,12.8632812 Z M28.8847656,9.18359375 L29.5761719,8.5859375 L30.8271489,9.88590538 C31.0680337,10.1403535 31.2682284,10.3554679 31.4277344,10.53125 L30.6308594,11.1992188 C30.1386694,10.550778 29.556644,9.87890973 28.8847656,9.18359375 Z" id="查询" fill="#FFFFFF" fill-rule="nonzero"></path>
            </g>
            <g id="Group备份" transform="translate(52.000000, 48.000000)">
                <rect id="Rectangle" fill="#99AFE1" x="0" y="0" width="56" height="28" rx="2"></rect>
                <path d="M30.5742188,9.23046875 C32.1914143,9.21484367 33.6835869,9.05468902 35.0507812,8.75 L35.3554688,9.65234375 C33.808586,9.85546977 32.4921929,9.98828094 31.40625,10.0507812 L31.40625,12.78125 L35.6835938,12.78125 L35.6835938,13.578125 L34.0078125,13.578125 L34.0078125,19.71875 L33.140625,19.71875 L33.140625,13.578125 L31.40625,13.578125 L31.40625,14.1523438 C31.40625,16.5507932 30.832037,18.4179621 29.6835938,19.7539062 C29.4960928,19.5117175 29.2890636,19.26172 29.0625,19.0039062 C30.0703175,17.9023382 30.5742188,16.2734483 30.5742188,14.1171875 L30.5742188,9.23046875 Z M24.328125,14.4921875 L26.71875,14.4921875 L26.71875,13.3789062 L27.5625,13.3789062 L27.5625,14.4921875 L29.859375,14.4921875 L29.859375,15.2421875 L27.5625,15.2421875 L27.5625,18.3007812 C27.5625,19.1289104 27.1640665,19.5429688 26.3671875,19.5429688 L25.8310548,19.5400391 C25.6416022,19.538086 25.4414073,19.5351563 25.2304688,19.53125 L25.1748047,19.1152345 C25.1533204,18.9667974 25.1289064,18.8085946 25.1015625,18.640625 L25.5221361,18.6796876 C25.7808164,18.7005209 25.9960929,18.7109375 26.1679688,18.7109375 C26.5351581,18.7109375 26.71875,18.5117207 26.71875,18.1132812 L26.71875,15.2421875 L24.328125,15.2421875 L24.328125,14.4921875 Z M24,12.3007812 L25.8867188,12.3007812 C25.5546858,11.7734349 25.242189,11.3203144 24.9492188,10.9414062 L25.5820312,10.4960938 L25.8211896,10.79552 C26.0356344,11.0713485 26.287945,11.4129444 26.578125,11.8203125 L25.9160156,12.3007812 L27.4628906,12.3007812 C27.888674,11.6874969 28.2812482,11.0820342 28.640625,10.484375 L29.4726562,10.953125 C29.0937481,11.4414087 28.7324236,11.8906229 28.3886719,12.3007812 L30.1640625,12.3007812 L30.1640625,13.0507812 L24,13.0507812 L24,12.3007812 Z M24.375,9.58203125 L26.90625,9.58203125 L26.6367188,9.08105479 C26.541016,8.9072271 26.4394537,8.72656344 26.3320312,8.5390625 L27.0820312,8.1875 C27.32422,8.58593949 27.5507802,8.98827922 27.7617188,9.39453125 L27.3691406,9.58203125 L29.859375,9.58203125 L29.859375,10.3320312 L24.375,10.3320312 L24.375,9.58203125 Z M25.2304688,15.7695312 L26.0273438,16.1445312 C25.6054666,17.0273482 25.1875021,17.8242152 24.7734375,18.5351562 C24.5468739,18.3945305 24.2890639,18.253907 24,18.1132812 C24.3828144,17.5195283 24.7929666,16.7382861 25.2304688,15.7695312 Z M28.6054688,15.828125 C29.0429709,16.421878 29.4257796,16.9687475 29.7539062,17.46875 L29.0039062,17.984375 C28.6601545,17.3828095 28.2968769,16.8164089 27.9140625,16.2851562 L28.6054688,15.828125 Z M36.9609375,14.3515625 C37.1953137,15.3046923 37.5234354,16.0878876 37.9453125,16.7011719 C38.3632833,15.8417926 38.6249995,14.8515681 38.7304688,13.7304688 L36.3867188,13.7304688 L36.3867188,12.875 L38.5429688,10.2148438 L36.1523438,10.2148438 L36.1523438,9.41796875 L39.6210938,9.41796875 L39.6210938,10.2148438 L37.4179688,12.9335938 L39.609375,12.9335938 L39.609375,13.625 C39.464843,15.074226 39.1113309,16.3300728 38.5488281,17.3925781 C39.347172,18.0847203 40.5592044,18.4558491 42.184958,18.5059739 L42.515625,18.5117188 C44.0000074,18.5429689 45.7226464,18.5234379 47.6835938,18.453125 L47.296875,19.3789062 L47.296875,19.3789062 L42.1054688,19.3554688 L42.1054688,19.3554688 C40.3632725,19.3554688 39.0273484,18.9492228 38.0976562,18.1367188 C37.6562478,18.777347 37.1210969,19.3359351 36.4921875,19.8125 C36.3671869,19.5859364 36.2070322,19.3320327 36.0117188,19.0507812 C36.5976592,18.6054665 37.0898418,18.0859405 37.4882812,17.4921875 C36.9648411,16.8281217 36.5312517,15.8789124 36.1875,14.6445312 L36.9609375,14.3515625 Z" id="新建" fill="#FFFFFF" fill-rule="nonzero"></path>
                <path d="M43.59375,8.26953125 L43.59375,9.41796875 L46.3125,9.41796875 L46.3125,11.140625 L47.5429688,11.140625 L47.5429688,11.8671875 L46.3125,11.8671875 L46.3125,13.90625 L45.46875,13.90625 L45.46875,13.5898438 L43.59375,13.5898438 L43.59375,14.609375 L46.546875,14.609375 L46.546875,15.3125 L43.59375,15.3125 L43.59375,16.3320312 L47.0859375,16.3320312 L47.0859375,17.0351562 L43.59375,17.0351562 L43.59375,18.2421875 L42.7265625,18.2421875 L42.7265625,17.0351562 L39.7265625,17.0351562 L39.7265625,16.3320312 L42.7265625,16.3320312 L42.7265625,15.3125 L40.125,15.3125 L40.125,14.609375 L42.7265625,14.609375 L42.7265625,13.5898438 L40.2890625,13.5898438 L40.2890625,12.8867188 L42.7265625,12.8867188 L42.7265625,11.8671875 L39.6796875,11.8671875 L39.6796875,11.140625 L42.7265625,11.140625 L42.7265625,10.1210938 L40.2890625,10.1210938 L40.2890625,9.41796875 L42.7265625,9.41796875 L42.7265625,8.26953125 L43.59375,8.26953125 Z M45.46875,11.8671875 L43.59375,11.8671875 L43.59375,12.8867188 L45.46875,12.8867188 L45.46875,11.8671875 Z M45.46875,10.1210938 L43.59375,10.1210938 L43.59375,11.140625 L45.46875,11.140625 L45.46875,10.1210938 Z" id="形状结合" fill="#FFFFFF" fill-rule="nonzero"></path>
                <g id="编组-9" transform="translate(8.000000, 8.000000)">
                    <rect id="矩形" fill="#D8D8D8" opacity="0.01" x="0" y="0" width="12" height="12"></rect>
                    <path d="M6,1 C6.27614237,1 6.5,1.22385763 6.5,1.5 L6.5,5.5 L10.5,5.5 C10.7761424,5.5 11,5.72385763 11,6 C11,6.27614237 10.7761424,6.5 10.5,6.5 L6.499,6.5 L6.5,10.5 C6.5,10.7761424 6.27614237,11 6,11 C5.72385763,11 5.5,10.7761424 5.5,10.5 L5.499,6.5 L1.5,6.5 C1.22385763,6.5 1,6.27614237 1,6 C1,5.72385763 1.22385763,5.5 1.5,5.5 L5.5,5.5 L5.5,1.5 C5.5,1.22385763 5.72385763,1 6,1 Z" id="矩形-3" fill="#FFFFFF"></path>
                </g>
            </g>
            <g id="点击数-copy" transform="translate(147.000000, 26.000000)">
                <path d="M15.7642312,6.00637625 C15.3623769,6.00637625 15.0075481,6.15390129 14.6933323,6.35622132 C14.3833914,5.65231618 13.6737339,5.15705358 12.84865,5.15705358 C12.4703085,5.15705358 12.1347174,5.28982611 11.8311891,5.46896364 C11.5875115,4.64282348 10.8436536,4.02532584 9.92879378,4.02532584 C9.59747773,4.02532584 9.29822453,4.12227086 9.02248408,4.26347339 L9.02248408,1.98526542 C9.02248408,0.891472705 8.1183119,0 7.00893752,0 C5.89956313,0 4.99539098,0.891472684 4.99539098,1.98526542 L4.99539098,10.3836547 L3.43499926,8.84517933 C2.67404112,8.09490918 1.34450188,8.09701668 0.589956315,8.84517933 C0.209477234,9.22031442 0,9.71768451 0,10.2487746 C0,10.7798648 0.209477234,11.2772348 0.589956315,11.6523699 L6.21591654,17.2056336 C6.99824992,17.9980537 8.31068897,19.3236715 10.8799915,19.3236715 C15.1999252,19.3236715 17.7777778,17.1950961 17.7777778,13.6292053 L17.7777778,7.99164165 C17.7777778,6.89784894 16.8757431,6.00637625 15.7642312,6.00637625 Z" id="Shape" stroke="#4C4C4C" fill="#FFFFFF" fill-rule="nonzero"></path>
                <rect id="Rectangle" fill="#4C4C4C" x="8.67360423" y="10.1424885" width="1.11111111" height="5.55555556" rx="0.555555556"></rect>
                <rect id="Rectangle-Copy" fill="#4C4C4C" x="11.6244931" y="10.9330883" width="1.11111111" height="5.55555556" rx="0.555555556"></rect>
                <rect id="Rectangle-Copy-2" fill="#4C4C4C" x="14.3960548" y="11.0005061" width="1.11111111" height="4.44444444" rx="0.555555556"></rect>
            </g>
            <g id="Group-2" transform="translate(172.000000, 48.000000)">
                <rect id="Rectangle" stroke="#E7EAED" fill="#F8F8F8" x="0.5" y="0.5" width="55" height="27" rx="2"></rect>
                <path d="M16.2050781,18.59375 L21.5722656,18.59375 L21.5722656,17.7265625 L17.1191406,17.7265625 L17.1191406,17.0351562 L21.5722656,17.0351562 L21.5722656,16.0507812 L18.4082031,16.0507812 L18.4082031,16.4726562 L17.5878906,16.4726562 L17.5878906,12.0664062 L21.5722656,12.0664062 L21.5722656,11.2226562 L16.2988281,11.2226562 L16.2988281,10.4960938 L21.5722656,10.4960938 L21.5722656,9.57617188 L19.4072268,9.63623049 C18.6728536,9.65478513 17.925785,9.67187492 17.1660156,9.6875 C17.1191404,9.43749875 17.0644534,9.17187641 17.0019531,8.890625 L18.9196024,8.86230466 C22.0109695,8.80696621 24.5787658,8.71093818 26.6230469,8.57421875 L26.7636719,9.37109375 L25.066796,9.44796881 C24.204298,9.48499999 23.3207076,9.51992171 22.4160156,9.55273438 L22.4160156,10.4960938 L27.7363281,10.4960938 L27.7363281,11.2226562 L22.4160156,11.2226562 L22.4160156,12.0664062 L26.4355469,12.0664062 L26.4355469,16.4609375 L25.6152344,16.4609375 L25.6152344,16.0507812 L22.4160156,16.0507812 L22.4160156,17.0351562 L26.8808594,17.0351562 L26.8808594,17.7265625 L22.4160156,17.7265625 L22.4160156,18.59375 L27.7363281,18.59375 L27.7363281,19.3203125 L16.2050781,19.3203125 L16.2050781,18.59375 Z M22.4160156,15.3710938 L25.6152344,15.3710938 L25.6152344,14.3632812 L22.4160156,14.3632812 L22.4160156,15.3710938 Z M18.4082031,15.3710938 L21.5722656,15.3710938 L21.5722656,14.3632812 L18.4082031,14.3632812 L18.4082031,15.3710938 Z M25.6152344,12.7460938 L22.4160156,12.7460938 L22.4160156,13.7421875 L25.6152344,13.7421875 L25.6152344,12.7460938 Z M18.4082031,13.7421875 L21.5722656,13.7421875 L21.5722656,12.7460938 L18.4082031,12.7460938 L18.4082031,13.7421875 Z M28.1699219,18.7460938 L29.9160156,18.7460938 L29.9160156,13.3203125 L33.5019531,13.3203125 L33.5019531,12.5585938 L28.4511719,12.5585938 L28.4511719,11.9023438 L33.5019531,11.9023438 L33.5019531,11.28125 L34.3457031,11.28125 L34.3457031,11.9023438 L39.5253906,11.9023438 L39.5253906,12.5585938 L34.3457031,12.5585938 L34.3457031,13.3203125 L38.1777344,13.3203125 L38.1777344,18.7460938 L39.7949219,18.7460938 L39.7949219,19.4257812 L28.1699219,19.4257812 L28.1699219,18.7460938 Z M30.7363281,18.7460938 L37.3574219,18.7460938 L37.3574219,17.9960938 L30.7363281,17.9960938 L30.7363281,18.7460938 Z M30.7363281,17.3867188 L37.3574219,17.3867188 L37.3574219,16.6484375 L30.7363281,16.6484375 L30.7363281,17.3867188 Z M30.7363281,16.0390625 L37.3574219,16.0390625 L37.3574219,15.3007812 L30.7363281,15.3007812 L30.7363281,16.0390625 Z M37.3574219,13.953125 L30.7363281,13.953125 L30.7363281,14.6914062 L37.3574219,14.6914062 L37.3574219,13.953125 Z" id="重置" fill="#AAADBA" fill-rule="nonzero"></path>
                <path d="M38.7871094,8.7734375 L38.7871094,11.3867188 L37.9902344,11.3867188 L37.9902344,11.1171875 L29.9980469,11.1171875 L29.9980469,11.3867188 L29.1894531,11.3867188 L29.1894531,8.7734375 L38.7871094,8.7734375 Z M37.9902344,9.40625 L35.8339844,9.40625 L35.8339844,10.484375 L37.9902344,10.484375 L37.9902344,9.40625 Z M35.0605469,9.40625 L32.9160156,9.40625 L32.9160156,10.484375 L35.0605469,10.484375 L35.0605469,9.40625 Z M32.1425781,9.40625 L29.9980469,9.40625 L29.9980469,10.484375 L32.1425781,10.484375 L32.1425781,9.40625 Z" id="形状结合" fill="#AAADBA" fill-rule="nonzero"></path>
            </g>
        </g>
    </g>
</svg>